<svg width="175" height="40" viewBox="0 0 175 40" fill="none" xmlns="http://www.w3.org/2000/svg">
<g id="blockchair">
<path id="&#232;&#183;&#175;&#229;&#190;&#132;" d="M12.0357 28.1657V40.0002L21.6408 33.9895V21.7903C21.6403 21.5488 21.601 21.3089 21.524 21.08L11.8301 27.1608C11.9658 27.4784 12.0359 27.8202 12.0357 28.1657Z" fill="#FFF200"/>
<path id="&#232;&#183;&#175;&#229;&#190;&#132;_2" d="M10.0309 11.8345V0L0.425783 6.01543V18.2099C0.425481 18.4519 0.466577 18.6922 0.547306 18.9204L10.2365 12.8441C10.1022 12.5245 10.0324 12.1813 10.0309 11.8345Z" fill="#21DFF3"/>
<path id="&#232;&#183;&#175;&#229;&#190;&#132;_3" d="M20.598 19.8973L11.2499 14.0548C10.9779 13.8836 10.7402 13.6633 10.5489 13.4052L0.822266 19.4813C0.992786 19.7236 1.21061 19.9286 1.4626 20.0843L10.8106 25.9315C11.083 26.1039 11.3221 26.324 11.5164 26.5811L21.2383 20.5049C21.0654 20.2636 20.848 20.0574 20.598 19.8973Z" fill="#FF0078"/>
<path id="&#232;&#183;&#175;&#229;&#190;&#132;_4" d="M1.30957 34.5363L10.0312 40.0001V29.0349L1.30957 34.5363Z" fill="#A42EFF"/>
<path id="&#229;&#189;&#162;&#231;&#138;&#182;" fill-rule="evenodd" clip-rule="evenodd" d="M46.1938 19.5144C46.369 19.3565 46.5258 19.1793 46.6612 18.9862C46.8297 18.7444 46.9518 18.4734 47.021 18.1869C47.0983 17.8813 47.1376 17.5674 47.1379 17.2522C47.1447 16.7637 47.059 16.2785 46.8856 15.8219C46.7164 15.3949 46.4618 15.0068 46.1377 14.6815C45.7212 14.2681 45.2207 13.9492 44.6701 13.7466C44.1128 13.5442 43.5242 13.4414 42.9313 13.4429H36.2943C36.1802 13.4429 36.0708 13.4882 35.9902 13.5688C35.9096 13.6495 35.8643 13.7588 35.8643 13.8729V26.7357C35.8643 26.8498 35.9096 26.9591 35.9902 27.0398C36.0708 27.1204 36.1802 27.1657 36.2943 27.1657H43.1838C43.8229 27.1715 44.4574 27.0557 45.0534 26.8245C45.6105 26.6098 46.1225 26.2928 46.563 25.8897C46.9768 25.5086 47.3063 25.0454 47.5305 24.5296C47.7633 23.9878 47.881 23.4037 47.8764 22.8142C47.8918 21.9661 47.6382 21.1349 47.152 20.4398C46.8922 20.075 46.5673 19.7613 46.1938 19.5144ZM43.2114 24.3239H39.0049V21.2344H43.3376C43.5637 21.2338 43.7873 21.2833 43.992 21.3793C44.1916 21.471 44.3724 21.5994 44.5248 21.7578C44.7442 22.0433 44.8523 22.3988 44.8287 22.7581C44.831 22.9697 44.7961 23.1801 44.7258 23.3797C44.6726 23.5402 44.5849 23.6869 44.4687 23.8097C44.3008 23.9675 44.1062 24.0941 43.8938 24.1836C43.6792 24.2791 43.4464 24.3269 43.2114 24.3239ZM43.5015 18.3271C43.6157 18.2719 43.7175 18.1939 43.8007 18.0981C43.9755 17.885 44.0683 17.6165 44.0624 17.3409C44.0722 17.1987 44.0511 17.056 44.0002 16.9228C43.9493 16.7897 43.8701 16.6692 43.7679 16.5697C43.5005 16.3423 43.1556 16.2269 42.8051 16.2472H38.9865V18.4066H43.1463C43.2696 18.4108 43.3918 18.3835 43.5015 18.3271Z" fill="white"/>
<path id="&#232;&#183;&#175;&#229;&#190;&#132;_5" d="M53.5507 13.4238H51.2838C51.2276 13.4238 51.1718 13.435 51.1198 13.4567C51.068 13.4783 51.0209 13.5102 50.9814 13.5501C50.9417 13.5901 50.9106 13.6375 50.8894 13.6897C50.8683 13.7418 50.8578 13.7976 50.8584 13.8538V26.7168C50.8584 26.8299 50.903 26.9387 50.9827 27.0192C51.0623 27.0996 51.1705 27.1455 51.2838 27.1468H60.973C61.0292 27.1468 61.0849 27.1356 61.1368 27.1139C61.1887 27.0923 61.2358 27.0606 61.2754 27.0205C61.3149 26.9805 61.3462 26.9331 61.3672 26.8809C61.3884 26.8288 61.3989 26.773 61.3982 26.7168V24.6836C61.3982 24.6277 61.3873 24.5724 61.3659 24.5208C61.3446 24.4692 61.3132 24.4222 61.2737 24.3827C61.2342 24.3432 61.1874 24.312 61.1358 24.2906C61.0841 24.2692 61.0288 24.2582 60.973 24.2582H53.962V13.8538C53.9621 13.743 53.9193 13.6363 53.8426 13.5563C53.7661 13.4761 53.6614 13.4287 53.5507 13.4238Z" fill="white"/>
<path id="&#229;&#189;&#162;&#231;&#138;&#182;_2" fill-rule="evenodd" clip-rule="evenodd" d="M72.4001 13.5781C73.2505 13.9139 74.0235 14.4196 74.6717 15.0644C75.3214 15.7276 75.8343 16.5122 76.1813 17.3734C76.5314 18.257 76.7091 19.1994 76.7048 20.1497C76.7171 21.0868 76.5522 22.0176 76.2188 22.8933C75.8901 23.7264 75.3992 24.4858 74.7745 25.1275C74.1194 25.7956 73.3376 26.3264 72.4749 26.6886C71.5398 27.073 70.5365 27.2639 69.5255 27.2495C68.4898 27.2607 67.4641 27.0454 66.5202 26.6186C65.6483 26.2256 64.8621 25.665 64.2066 24.9686C63.6165 24.3305 63.149 23.5888 62.8278 22.7812C62.4866 21.9459 62.312 21.052 62.3136 20.1497C62.3079 19.2302 62.4777 18.3181 62.8137 17.4621C63.1347 16.6407 63.6108 15.8884 64.2159 15.2467C64.866 14.5534 65.6541 14.0041 66.5296 13.6341C67.4734 13.239 68.4883 13.0418 69.5116 13.0546C70.4991 13.042 71.4797 13.2198 72.4001 13.5781ZM73.2883 21.8047C73.4902 21.2767 73.5901 20.7152 73.5828 20.15C73.5882 19.5857 73.485 19.0256 73.279 18.5001C73.0952 18.0273 72.8223 17.5941 72.4751 17.2242C72.096 16.8269 71.6416 16.5091 71.1384 16.2893C70.6242 16.07 70.0707 15.9587 69.5118 15.9622C68.9452 15.9572 68.3836 16.0685 67.8618 16.2893C67.3594 16.508 66.9063 16.826 66.5298 17.2242C66.1848 17.6037 65.911 18.0424 65.7211 18.5189C65.5136 19.0438 65.4104 19.6043 65.4174 20.1688C65.4116 20.7255 65.5149 21.2781 65.7211 21.7953C65.9119 22.2724 66.1874 22.711 66.5345 23.09C66.9007 23.4895 67.3465 23.8079 67.8431 24.0249C68.3684 24.2459 68.9325 24.3598 69.5024 24.3598C70.0723 24.3598 70.6364 24.2459 71.1617 24.0249C71.6661 23.8096 72.1198 23.4911 72.4938 23.09C72.8364 22.7148 73.1058 22.2789 73.2883 21.8047Z" fill="white"/>
<path id="&#232;&#183;&#175;&#229;&#190;&#132;_6" d="M82.7591 17.2473C83.1317 16.875 83.5751 16.5809 84.0631 16.3826C85.1932 15.956 86.4435 15.9761 87.5593 16.4387C88.1858 16.7951 88.7813 17.2031 89.3401 17.6586C89.3942 17.7011 89.4626 17.7213 89.5311 17.7152C89.5997 17.7091 89.6635 17.6772 89.7092 17.626L91.2657 15.8731C91.2905 15.8452 91.3093 15.8127 91.321 15.7774C91.3329 15.7421 91.3373 15.7046 91.3343 15.6675C91.3313 15.6304 91.3207 15.5943 91.3033 15.5613C91.2858 15.5284 91.262 15.4993 91.2331 15.4759C90.436 14.819 89.5802 14.237 88.6763 13.7371C87.7196 13.3554 86.6961 13.1695 85.6663 13.1903C84.6735 13.1784 83.6877 13.3595 82.7638 13.7231C81.9072 14.0637 81.1294 14.5759 80.4782 15.2281C79.8439 15.8787 79.3381 16.643 78.9871 17.4811C78.6222 18.3704 78.4394 19.3241 78.4496 20.2854C78.4416 21.2466 78.6243 22.1998 78.9871 23.0898C79.3396 23.9452 79.863 24.7197 80.5249 25.3661C81.1823 26.0063 81.9566 26.514 82.8058 26.8618C83.7135 27.2259 84.6837 27.4086 85.6616 27.3993C86.6902 27.4197 87.7126 27.2387 88.6717 26.8664C89.5828 26.3604 90.4395 25.762 91.2283 25.0809C91.257 25.0571 91.2805 25.0278 91.2974 24.9947C91.3144 24.9616 91.3245 24.9254 91.3272 24.8883C91.3297 24.8511 91.3249 24.8139 91.3127 24.7787C91.3006 24.7435 91.2814 24.7112 91.2564 24.6837L89.6999 22.9543C89.6535 22.9039 89.5899 22.8726 89.5217 22.8666C89.4534 22.8605 89.3853 22.8802 89.3307 22.9215C88.7707 23.3732 88.1733 23.7766 87.5452 24.1275C86.9909 24.3682 86.3941 24.4959 85.7897 24.5031C85.1854 24.5103 84.5856 24.3969 84.0257 24.1695C83.5204 23.951 83.0642 23.6331 82.6843 23.2347C82.3344 22.8748 82.0595 22.4491 81.8757 21.982C81.6589 21.4399 81.5524 20.8599 81.5625 20.276C81.5579 19.6948 81.6675 19.1184 81.885 18.5794C82.0859 18.0822 82.3829 17.6296 82.7591 17.2473Z" fill="white"/>
<path id="&#232;&#183;&#175;&#229;&#190;&#132;_7" d="M106.311 13.4238H103.333C103.234 13.4235 103.135 13.4471 103.047 13.4926C102.958 13.5382 102.882 13.6044 102.824 13.6856L99.5148 18.3877H97.4582V13.8539C97.4582 13.7399 97.4129 13.6305 97.3322 13.5498C97.2516 13.4691 97.1422 13.4238 97.0282 13.4238H94.766C94.6519 13.4238 94.5425 13.4691 94.4619 13.5498C94.3813 13.6305 94.3359 13.7399 94.3359 13.8539V26.7168C94.3359 26.8308 94.3813 26.9402 94.4619 27.0208C94.5425 27.1015 94.6519 27.1468 94.766 27.1468H97.0282C97.1422 27.1468 97.2516 27.1015 97.3322 27.0208C97.4129 26.9402 97.4582 26.8308 97.4582 26.7168V21.2762H99.5148L103.17 26.8617C103.227 26.9483 103.304 27.0194 103.396 27.0685C103.487 27.1174 103.59 27.1427 103.693 27.142H106.6C106.638 27.1421 106.674 27.1323 106.706 27.1133C106.738 27.0945 106.764 27.0673 106.782 27.0347C106.799 27.0021 106.808 26.9654 106.807 26.9284C106.805 26.8913 106.794 26.8554 106.773 26.8242L102.17 19.7571L106.465 13.7464C106.486 13.7166 106.498 13.6818 106.501 13.6456C106.504 13.6094 106.497 13.573 106.482 13.5403C106.466 13.5075 106.442 13.4795 106.412 13.459C106.382 13.4386 106.347 13.4265 106.311 13.4238Z" fill="white"/>
<path id="&#232;&#183;&#175;&#229;&#190;&#132;_8" d="M112.374 17.2473C112.745 16.8747 113.186 16.5805 113.673 16.3826C114.805 15.9562 116.056 15.9762 117.174 16.4387C117.799 16.794 118.394 17.2022 118.95 17.6586C119.004 17.7011 119.072 17.7213 119.141 17.7152C119.209 17.7091 119.273 17.6772 119.319 17.626L120.876 15.8731C120.9 15.8452 120.918 15.8127 120.931 15.7774C120.943 15.7421 120.948 15.7046 120.944 15.6675C120.941 15.6304 120.93 15.5943 120.913 15.5613C120.895 15.5284 120.872 15.4993 120.843 15.4759C120.047 14.819 119.193 14.237 118.29 13.7371C117.333 13.3554 116.307 13.1695 115.276 13.1903C114.283 13.1794 113.298 13.3603 112.374 13.7231C111.518 14.0649 110.74 14.5769 110.088 15.2281C109.454 15.8781 108.95 16.6426 108.602 17.4811C108.235 18.3699 108.052 19.3238 108.064 20.2854C108.055 21.2462 108.236 22.1993 108.597 23.0898C108.951 23.9454 109.476 24.7199 110.139 25.3661C110.795 26.0062 111.568 26.514 112.416 26.8617C113.324 27.2265 114.297 27.4091 115.276 27.3993C116.303 27.4193 117.324 27.2382 118.281 26.8664C119.194 26.3604 120.052 25.7622 120.843 25.0809C120.871 25.0571 120.895 25.0278 120.912 24.9947C120.929 24.9616 120.939 24.9254 120.942 24.8883C120.944 24.8511 120.939 24.8139 120.927 24.7787C120.915 24.7435 120.895 24.7112 120.871 24.6837L119.319 22.9543C119.274 22.9033 119.211 22.8715 119.143 22.8654C119.076 22.8593 119.008 22.8794 118.955 22.9215C118.393 23.3711 117.795 23.7744 117.169 24.1275C116.615 24.3669 116.018 24.4939 115.413 24.5011C114.809 24.5083 114.21 24.3956 113.65 24.1695C113.143 23.9521 112.688 23.6341 112.308 23.2347C111.958 22.8739 111.681 22.4484 111.494 21.982C111.282 21.439 111.177 20.8594 111.186 20.276C111.181 19.6947 111.29 19.1182 111.508 18.5794C111.707 18.0829 112.001 17.6304 112.374 17.2473Z" fill="white"/>
<path id="&#232;&#183;&#175;&#229;&#190;&#132;_9" d="M132.788 18.2521H126.858V13.7182C126.858 13.6051 126.812 13.4963 126.733 13.4159C126.653 13.3354 126.545 13.2895 126.431 13.2882H124.165C124.052 13.2895 123.944 13.3354 123.864 13.4159C123.785 13.4963 123.739 13.6051 123.739 13.7182V26.5811C123.739 26.6943 123.785 26.8031 123.864 26.8835C123.944 26.964 124.052 27.0099 124.165 27.0112H126.431C126.545 27.0099 126.653 26.964 126.733 26.8835C126.812 26.8031 126.858 26.6943 126.858 26.5811V21.1406H132.788V26.5811C132.788 26.6951 132.833 26.8046 132.915 26.8852C132.995 26.9659 133.104 27.0112 133.218 27.0112H135.505C135.619 27.0112 135.728 26.9659 135.808 26.8852C135.889 26.8046 135.935 26.6951 135.935 26.5811V13.7182C135.935 13.6042 135.889 13.4948 135.808 13.4142C135.728 13.3335 135.619 13.2882 135.505 13.2882H133.242C133.127 13.2882 133.018 13.3335 132.938 13.4142C132.857 13.4948 132.811 13.6042 132.811 13.7182V18.2521H132.788Z" fill="white"/>
<path id="&#229;&#189;&#162;&#231;&#138;&#182;_3" fill-rule="evenodd" clip-rule="evenodd" d="M138.308 26.8571L144.071 13.798C144.119 13.6864 144.199 13.5915 144.3 13.5251C144.401 13.4586 144.521 13.4234 144.642 13.4241H146.834C146.955 13.4251 147.072 13.461 147.173 13.5274C147.274 13.5936 147.355 13.6876 147.403 13.798L153.18 26.8571C153.195 26.8884 153.201 26.9227 153.198 26.9568C153.195 26.991 153.185 27.0239 153.166 27.0527C153.148 27.0815 153.122 27.1052 153.092 27.1217C153.062 27.1381 153.028 27.1468 152.994 27.1469H150.344C150.224 27.1468 150.107 27.1124 150.007 27.0477C149.907 26.9831 149.827 26.891 149.778 26.7823L148.872 24.7819H142.557L141.674 26.7777C141.624 26.8875 141.544 26.9808 141.443 27.0463C141.342 27.1118 141.223 27.1467 141.104 27.1469H138.5C138.466 27.1463 138.432 27.1375 138.402 27.1211C138.372 27.1046 138.346 27.0812 138.328 27.0526C138.309 27.0241 138.298 26.9913 138.294 26.9572C138.291 26.9231 138.295 26.8888 138.308 26.8571ZM143.749 21.8931H147.657L145.674 16.9714L143.749 21.8931Z" fill="white"/>
<path id="&#232;&#183;&#175;&#229;&#190;&#132;_10" d="M156 27.1608H158.221C158.333 27.1608 158.441 27.1161 158.522 27.0363C158.601 26.9566 158.646 26.8484 158.646 26.7356V13.868C158.646 13.7548 158.601 13.6461 158.522 13.5656C158.441 13.485 158.333 13.4393 158.221 13.438H156C155.886 13.438 155.777 13.4833 155.696 13.5639C155.616 13.6446 155.57 13.754 155.57 13.868V26.7356C155.571 26.8487 155.617 26.9569 155.698 27.0366C155.778 27.1162 155.886 27.1608 156 27.1608Z" fill="white"/>
<path id="&#229;&#189;&#162;&#231;&#138;&#182;_4" fill-rule="evenodd" clip-rule="evenodd" d="M172.863 22.5241C172.66 22.6881 172.44 22.8322 172.209 22.9541L174.617 26.9457C174.631 26.9683 174.639 26.9942 174.639 27.021C174.64 27.0476 174.634 27.0739 174.62 27.0973C174.607 27.1206 174.589 27.1402 174.565 27.1538C174.543 27.1673 174.517 27.1747 174.49 27.1747H171.522C171.414 27.174 171.308 27.1456 171.215 27.0924C171.12 27.0393 171.041 26.9631 170.985 26.8709L169.082 23.6692H165.769V26.7446C165.769 26.8575 165.723 26.9656 165.644 27.0455C165.564 27.1252 165.456 27.17 165.343 27.17H163.081C162.967 27.17 162.859 27.1254 162.778 27.0457C162.698 26.9661 162.653 26.8579 162.651 26.7446V13.8772C162.651 13.7631 162.697 13.6538 162.777 13.5731C162.857 13.4925 162.967 13.4472 163.081 13.4472H169.429C170.131 13.4446 170.826 13.5746 171.481 13.8305C172.116 14.0858 172.697 14.462 173.191 14.9381C173.656 15.4037 174.031 15.9501 174.298 16.5507C174.577 17.1937 174.717 17.888 174.71 18.5886C174.736 19.7041 174.382 20.7955 173.705 21.6827C173.455 21.9917 173.172 22.2737 172.863 22.5241ZM169.367 16.3824H165.787L165.769 16.3917V20.7853H169.461C169.763 20.7878 170.064 20.7306 170.344 20.6171C170.591 20.5161 170.807 20.3554 170.975 20.1496C171.18 19.9451 171.339 19.6999 171.442 19.4298C171.541 19.165 171.591 18.8849 171.592 18.6026C171.614 18.0616 171.42 17.534 171.054 17.1349C170.863 16.8954 170.616 16.7061 170.335 16.5833C170.031 16.4482 169.701 16.3796 169.367 16.3824Z" fill="white"/>
</g>
</svg>
