<svg xmlns="http://www.w3.org/2000/svg" width="130" height="30" viewBox="0 0 130 30" fill="none">
  <path fill-rule="evenodd" clip-rule="evenodd" d="M28.8905 17.8371C29.2604 17.4679 29.554 17.0296 29.7541 16.5472C29.9543 16.0648 30.0573 15.5478 30.0573 15.0256C30.0573 14.5034 29.9543 13.9863 29.7541 13.5039C29.554 13.0215 29.2604 12.5832 28.8905 12.214L17.8419 1.16493C17.472 0.79565 17.033 0.502711 16.5497 0.302851C16.0665 0.102991 15.5485 0.00012207 15.0255 0.00012207C14.5024 0.00012207 13.9845 0.102991 13.5013 0.302851C13.018 0.502711 12.579 0.79565 12.2092 1.16493L1.16675 12.1886C0.796917 12.5577 0.503462 12.9961 0.3033 13.4785C0.103044 13.9608 0 14.478 0 15.0001C0 15.5223 0.103044 16.0393 0.3033 16.5218C0.503462 17.0042 0.796917 17.4425 1.16675 17.8117L12.2092 28.8353C12.579 29.2046 13.018 29.4975 13.5013 29.6973C13.9845 29.8973 14.5024 30.0001 15.0255 30.0001C15.5485 30.0001 16.0665 29.8973 16.5497 29.6973C17.033 29.4975 17.472 29.2046 17.8419 28.8353L28.8905 17.8371ZM15.0191 18.8358C15.6734 18.8366 16.317 18.6697 16.8882 18.3512C17.4593 18.0327 17.9391 17.5731 18.2815 17.0166C18.3093 16.9685 18.3493 16.9285 18.3972 16.9006C18.4453 16.8728 18.4999 16.8579 18.5554 16.8575H22.3786C22.4247 16.857 22.4703 16.8671 22.5119 16.8871C22.5535 16.907 22.5899 16.9363 22.6183 16.9727C22.6467 17.009 22.6663 17.0514 22.6756 17.0965C22.6847 17.1417 22.6834 17.1883 22.6716 17.2328C22.1882 18.8839 21.1819 20.3341 19.8034 21.3662C18.425 22.3983 16.7485 22.9567 15.0255 22.9577C13.9798 22.9577 12.9444 22.752 11.9785 22.3524C11.0125 21.9527 10.1349 21.3669 9.39582 20.6284C8.65673 19.89 8.07059 19.0134 7.67103 18.0488C7.27147 17.0841 7.06624 16.0504 7.0671 15.0065C7.06204 13.9605 7.26392 12.9237 7.66128 11.9558C8.05854 10.9879 8.64344 10.1078 9.38224 9.36618C10.121 8.62443 10.9993 8.03565 11.9667 7.63362C12.934 7.23159 13.9713 7.02423 15.0191 7.02337C16.7429 7.02137 18.4208 7.57856 19.7999 8.61107C21.1789 9.64367 22.1845 11.0957 22.6652 12.7484C22.6782 12.7924 22.6807 12.8389 22.6724 12.8841C22.6641 12.9294 22.6452 12.9719 22.6172 13.0085C22.5892 13.045 22.5531 13.0745 22.5116 13.0946C22.4701 13.1145 22.4246 13.1245 22.3786 13.1236H18.5554C18.4999 13.1233 18.4453 13.1084 18.3972 13.0805C18.3493 13.0527 18.3093 13.0127 18.2815 12.9646C17.9402 12.4026 17.4595 11.9381 16.8858 11.616C16.312 11.294 15.6647 11.1253 15.0064 11.1263C13.9924 11.1263 13.02 11.5283 12.303 12.2441C11.5861 12.9599 11.1833 13.9307 11.1833 14.9429C11.1765 15.4494 11.2709 15.9522 11.4608 16.422C11.6506 16.8918 11.9323 17.3192 12.2894 17.6791C12.6464 18.0391 13.0717 18.3245 13.5403 18.5188C14.009 18.713 14.5117 18.8121 15.0191 18.8104V18.8358Z" fill="#FF8200"/>
  <path d="M46.35 19.4529C43.8013 19.4529 42.0873 17.4809 42.0873 15.0001C42.0873 12.5193 43.7821 10.5474 46.35 10.5474C47.1343 10.4925 47.9137 10.7083 48.5575 11.1588C49.2014 11.6093 49.6706 12.2671 49.8864 13.0218C49.8958 13.0555 49.9156 13.0854 49.9431 13.1071C49.9705 13.1288 50.0042 13.1413 50.0393 13.1427H53.4355C53.4573 13.1428 53.4789 13.1383 53.4988 13.1296C53.5186 13.1207 53.5364 13.1077 53.5509 13.0915C53.5654 13.0752 53.5762 13.056 53.5827 13.0353C53.5891 13.0145 53.5911 12.9925 53.5883 12.971C53.0404 9.59328 50.0392 7.24608 46.35 7.24608C45.3181 7.21669 44.2909 7.39629 43.3304 7.77398C42.3698 8.15168 41.496 8.71965 40.7612 9.44355C40.0265 10.1675 39.4462 11.0325 39.0554 11.9864C38.6646 12.9402 38.4713 13.9633 38.4872 14.9937C38.4757 16.0215 38.6721 17.0411 39.0649 17.9912C39.4577 18.9414 40.0385 19.8026 40.7727 20.5232C41.5071 21.2437 42.3796 21.8087 43.3379 22.1845C44.2963 22.5602 45.3208 22.7389 46.35 22.7097C50.0392 22.7097 53.0404 20.4133 53.5883 16.9848C53.5911 16.9632 53.5891 16.9413 53.5827 16.9205C53.5762 16.8997 53.5654 16.8805 53.5509 16.8643C53.5364 16.8479 53.5186 16.835 53.4988 16.8262C53.4789 16.8173 53.4573 16.8128 53.4355 16.813H50.0393C50.0042 16.8144 49.9705 16.8268 49.9431 16.8486C49.9156 16.8703 49.8958 16.9001 49.8864 16.9338C49.6813 17.6982 49.2163 18.3674 48.5711 18.827C47.9259 19.2865 47.1406 19.5078 46.35 19.4529Z" fill="#2B2F33"/>
  <path fill-rule="evenodd" clip-rule="evenodd" d="M56.0987 14.981C56.0987 10.5092 59.4821 7.23328 63.9934 7.23328C65.0262 7.19941 66.055 7.37585 67.0173 7.75192C67.9795 8.12809 68.855 8.69597 69.5901 9.42092C70.3252 10.146 70.9048 11.0128 71.2932 11.9687C71.6818 12.9247 71.8712 13.9496 71.8497 14.981C71.8788 16.0189 71.6954 17.0517 71.3108 18.0163C70.9263 18.981 70.3486 19.8572 69.6133 20.5914C68.8779 21.3255 68.0001 21.9022 67.0338 22.2861C66.0675 22.67 65.033 22.8531 63.9934 22.8241C62.952 22.8528 61.9157 22.6699 60.9474 22.2864C59.9791 21.9029 59.099 21.3268 58.3606 20.5933C57.6222 19.8598 57.041 18.9839 56.6521 18.0191C56.2633 17.0543 56.075 16.0207 56.0987 14.981ZM59.6987 14.981C59.6987 17.5127 61.4446 19.5418 63.9934 19.5418C66.5293 19.5418 68.2497 17.4618 68.2497 14.981C68.2497 12.5002 66.5612 10.5282 63.9934 10.5282C61.4255 10.5282 59.6987 12.4493 59.6987 14.981Z" fill="#2B2F33"/>
  <path fill-rule="evenodd" clip-rule="evenodd" d="M77.264 5.32185C76.9923 5.42568 76.7027 5.47434 76.412 5.46509C76.1212 5.47434 75.8316 5.42568 75.56 5.32185C75.2884 5.21794 75.0402 5.06096 74.8301 4.86018C74.62 4.65933 74.4523 4.41866 74.3365 4.15224C74.2209 3.88583 74.1596 3.59903 74.1563 3.30868C74.1537 3.01401 74.2105 2.72181 74.3234 2.44952C74.4363 2.17725 74.6029 1.93045 74.8134 1.72387C75.0239 1.51728 75.274 1.35513 75.5486 1.24709C75.8232 1.13906 76.1168 1.08735 76.412 1.09505C76.7071 1.08735 77.0007 1.13906 77.2753 1.24709C77.5499 1.35513 77.8 1.51728 78.0104 1.72387C78.2209 1.93045 78.3876 2.17725 78.5005 2.44952C78.6134 2.72181 78.6702 3.01401 78.6675 3.30868C78.6643 3.59903 78.603 3.88583 78.4873 4.15224C78.3717 4.41866 78.2039 4.65933 77.9938 4.86018C77.7837 5.06096 77.5357 5.21794 77.264 5.32185ZM78.2182 7.67009C78.2255 7.68908 78.2289 7.70931 78.2279 7.72955V22.2009C78.2289 22.2211 78.2255 22.2414 78.2182 22.2603C78.2108 22.2792 78.1995 22.2965 78.1852 22.3108C78.1707 22.3252 78.1535 22.3364 78.1346 22.3437C78.1156 22.3511 78.0953 22.3544 78.075 22.3536H74.7807C74.7402 22.3536 74.7013 22.3374 74.6726 22.3088C74.6439 22.2802 74.6279 22.2413 74.6279 22.2009V7.72955C74.6279 7.68908 74.6439 7.65025 74.6726 7.62162C74.7013 7.59299 74.7402 7.57696 74.7807 7.57696H78.075C78.0953 7.576 78.1156 7.57934 78.1346 7.58669C78.1535 7.59404 78.1707 7.6053 78.1852 7.61961C78.1995 7.63402 78.2108 7.6512 78.2182 7.67009Z" fill="#2B2F33"/>
  <path d="M89.8444 7.10618C88.1678 7.10083 86.5457 7.69934 85.2753 8.79187V7.72959C85.2753 7.68904 85.2591 7.6502 85.2304 7.62157C85.2017 7.59294 85.1635 7.57691 85.1224 7.57691H81.7965C81.756 7.57691 81.7171 7.59294 81.6884 7.62157C81.6597 7.6502 81.6436 7.68904 81.6436 7.72959V22.2008C81.6436 22.2413 81.6597 22.2801 81.6884 22.3088C81.7171 22.3374 81.756 22.3535 81.7965 22.3535H85.1224C85.1635 22.3535 85.2017 22.3374 85.2304 22.3088C85.2591 22.2801 85.2753 22.2413 85.2753 22.2008V12.5639C85.2667 12.5328 85.2667 12.4996 85.2753 12.4685C85.7179 11.8694 86.2857 11.3731 86.9395 11.0141C87.5924 10.655 88.316 10.4415 89.0606 10.3884C91.3155 10.3884 92.692 11.826 92.692 14.4213V22.2008C92.692 22.2413 92.7082 22.2801 92.7369 22.3088C92.7656 22.3374 92.8048 22.3535 92.8449 22.3535H96.1398C96.1599 22.3544 96.181 22.351 96.2001 22.3438C96.2192 22.3364 96.2364 22.3254 96.2517 22.3111C96.267 22.2968 96.2785 22.2798 96.2861 22.2608C96.2947 22.2418 96.2985 22.2214 96.2985 22.2008V14.1987C96.2985 9.91771 93.6995 7.10618 89.8444 7.10618Z" fill="#2B2F33"/>
  <path fill-rule="evenodd" clip-rule="evenodd" d="M101.909 5.32173C101.638 5.42565 101.348 5.47431 101.058 5.46496C100.767 5.47431 100.477 5.42565 100.206 5.32173C99.9345 5.2179 99.686 5.06093 99.4757 4.86015C99.2654 4.65927 99.0981 4.4186 98.9825 4.15218C98.8668 3.88577 98.8056 3.59897 98.8018 3.30862C98.7999 3.01395 98.8563 2.72175 98.9691 2.44946C99.0819 2.17718 99.2492 1.93039 99.4594 1.72381C99.6697 1.51722 99.9202 1.35507 100.195 1.24703C100.469 1.139 100.762 1.08729 101.058 1.09499C101.353 1.08729 101.647 1.139 101.921 1.24703C102.196 1.35507 102.446 1.51722 102.656 1.72381C102.867 1.93039 103.033 2.17718 103.146 2.44946C103.259 2.72175 103.316 3.01395 103.314 3.30862C103.31 3.59897 103.249 3.88577 103.133 4.15218C103.017 4.4186 102.85 4.65927 102.64 4.86015C102.429 5.06093 102.182 5.2179 101.909 5.32173ZM102.829 7.62159C102.858 7.65021 102.874 7.68905 102.874 7.72951L102.848 22.2009C102.848 22.2413 102.832 22.2802 102.803 22.3088C102.774 22.3374 102.736 22.3534 102.695 22.3534H99.4011C99.361 22.3534 99.3218 22.3374 99.2931 22.3088C99.2645 22.2802 99.2482 22.2413 99.2482 22.2009V7.72951C99.2482 7.68905 99.2645 7.65021 99.2931 7.62159C99.3218 7.59296 99.361 7.57683 99.4011 7.57683H102.721C102.761 7.57683 102.8 7.59296 102.829 7.62159Z" fill="#2B2F33"/>
  <path d="M109.908 7.54496V6.62267C109.886 6.21511 109.953 5.80764 110.102 5.42775C110.251 5.04776 110.48 4.70412 110.773 4.41978C111.066 4.13544 111.417 3.91699 111.802 3.77909C112.187 3.64119 112.597 3.58703 113.004 3.62024C113.679 3.64733 114.35 3.72815 115.011 3.86195C115.033 3.86665 115.056 3.86642 115.078 3.86128C115.1 3.85615 115.12 3.84623 115.138 3.83225C115.156 3.81827 115.17 3.80057 115.18 3.78042C115.19 3.76026 115.196 3.73815 115.196 3.71565V0.891361C115.197 0.857495 115.186 0.824391 115.165 0.79771C115.144 0.771029 115.114 0.752421 115.081 0.745064C114.175 0.465733 113.233 0.317918 112.284 0.306152C108.684 0.306152 106.275 2.85055 106.275 6.62267V22.2008C106.275 22.2412 106.292 22.2801 106.32 22.3087C106.349 22.3373 106.388 22.3534 106.428 22.3534H109.755C109.775 22.3534 109.794 22.3494 109.813 22.3418C109.831 22.3341 109.848 22.3229 109.863 22.3087C109.877 22.2945 109.888 22.2777 109.895 22.2592C109.904 22.2406 109.908 22.2208 109.908 22.2008V10.6046H116.28C116.32 10.6046 116.359 10.5886 116.388 10.5599C116.416 10.5313 116.433 10.4925 116.433 10.4519V7.69764C116.434 7.67732 116.43 7.65709 116.422 7.63819C116.415 7.6192 116.404 7.60203 116.39 7.58771C116.375 7.5733 116.358 7.56214 116.339 7.55479C116.32 7.54744 116.3 7.5441 116.28 7.54496H109.908Z" fill="#2B2F33"/>
  <path d="M129.985 7.76139C129.996 7.73801 130.001 7.71234 129.999 7.68676C129.997 7.66109 129.989 7.63638 129.974 7.61481C129.961 7.59325 129.942 7.57559 129.919 7.56338C129.896 7.55116 129.871 7.54487 129.845 7.54515H126.366C126.336 7.54401 126.308 7.55202 126.282 7.56786C126.257 7.5838 126.238 7.60689 126.225 7.63418L121.81 17.0675L117.624 7.65957C117.613 7.6318 117.594 7.60813 117.568 7.5921C117.543 7.57607 117.514 7.56853 117.484 7.57053H113.935C113.91 7.57082 113.885 7.57712 113.863 7.58895C113.841 7.60078 113.823 7.61787 113.809 7.63848C113.795 7.65919 113.787 7.68295 113.784 7.70766C113.782 7.73247 113.786 7.75738 113.794 7.78047L119.74 21.4058C119.749 21.4245 119.754 21.4452 119.754 21.4662C119.754 21.4872 119.749 21.5079 119.74 21.5266L116.707 28.123C116.695 28.1463 116.691 28.1719 116.693 28.1976C116.694 28.2232 116.703 28.248 116.717 28.2696C116.731 28.291 116.75 28.3088 116.773 28.321C116.796 28.3331 116.821 28.3394 116.846 28.3392H120.332C120.361 28.3395 120.391 28.3312 120.416 28.3154C120.44 28.2996 120.46 28.2769 120.472 28.2502L129.985 7.76139Z" fill="#2B2F33"/>
</svg>