<svg width="130" height="30" viewBox="0 0 130 30" fill="none" xmlns="http://www.w3.org/2000/svg">
<g id="coinify">
<path id="&#229;&#189;&#162;&#231;&#138;&#182;" fill-rule="evenodd" clip-rule="evenodd" d="M28.8905 17.8371C29.2604 17.4679 29.554 17.0296 29.7541 16.5472C29.9543 16.0648 30.0573 15.5478 30.0573 15.0256C30.0573 14.5034 29.9543 13.9863 29.7541 13.5039C29.554 13.0215 29.2604 12.5832 28.8905 12.214L17.8419 1.16493C17.472 0.79565 17.033 0.502711 16.5497 0.302851C16.0665 0.102991 15.5485 0.00012207 15.0255 0.00012207C14.5024 0.00012207 13.9845 0.102991 13.5013 0.302851C13.018 0.502711 12.579 0.79565 12.2092 1.16493L1.16675 12.1886C0.796917 12.5577 0.503462 12.9961 0.3033 13.4785C0.103044 13.9608 0 14.478 0 15.0001C0 15.5223 0.103044 16.0393 0.3033 16.5218C0.503462 17.0042 0.796917 17.4425 1.16675 17.8117L12.2092 28.8353C12.579 29.2046 13.018 29.4975 13.5013 29.6973C13.9845 29.8973 14.5024 30.0001 15.0255 30.0001C15.5485 30.0001 16.0665 29.8973 16.5497 29.6973C17.033 29.4975 17.472 29.2046 17.8419 28.8353L28.8905 17.8371ZM15.0194 18.8357C15.6737 18.8366 16.3173 18.6697 16.8886 18.3511C17.4597 18.0326 17.9395 17.573 18.2819 17.0165C18.3097 16.9684 18.3496 16.9284 18.3976 16.9006C18.4457 16.8727 18.5003 16.8578 18.5558 16.8574H22.3789C22.4251 16.857 22.4707 16.8671 22.5123 16.887C22.5539 16.907 22.5903 16.9363 22.6187 16.9726C22.6471 17.009 22.6667 17.0513 22.6759 17.0965C22.6851 17.1416 22.6838 17.1883 22.672 17.2327C22.1885 18.8838 21.1823 20.3341 19.8038 21.3661C18.4253 22.3982 16.7489 22.9567 15.0258 22.9576C13.9802 22.9576 12.9448 22.752 11.9789 22.3523C11.0129 21.9526 10.1353 21.3669 9.39619 20.6284C8.6571 19.89 8.07096 19.0134 7.6714 18.0487C7.27184 17.0841 7.06662 16.0503 7.06748 15.0065C7.06241 13.9604 7.26429 12.9237 7.66165 11.9558C8.05891 10.9879 8.64382 10.1078 9.38262 9.36612C10.1214 8.62438 10.9997 8.0356 11.967 7.63357C12.9344 7.23154 13.9717 7.02418 15.0194 7.02332C16.7433 7.02132 18.4212 7.57851 19.8003 8.61102C21.1793 9.64362 22.1849 11.0956 22.6656 12.7483C22.6786 12.7924 22.6811 12.8389 22.6728 12.8841C22.6645 12.9293 22.6455 12.9719 22.6175 13.0084C22.5896 13.045 22.5535 13.0745 22.512 13.0945C22.4705 13.1145 22.425 13.1245 22.3789 13.1235H18.5558C18.5003 13.1232 18.4457 13.1083 18.3976 13.0805C18.3496 13.0526 18.3097 13.0126 18.2819 12.9645C17.9406 12.4026 17.4599 11.938 16.8862 11.616C16.3124 11.2939 15.665 11.1252 15.0068 11.1263C13.9928 11.1263 13.0204 11.5283 12.3034 12.2441C11.5865 12.9599 11.1837 13.9306 11.1837 14.9428C11.1769 15.4493 11.2712 15.9521 11.4612 16.4219C11.651 16.8917 11.9327 17.3191 12.2897 17.6791C12.6468 18.039 13.072 18.3244 13.5407 18.5187C14.0094 18.7129 14.5121 18.812 15.0194 18.8103V18.8357Z" fill="#FF8200"/>
<path id="&#232;&#183;&#175;&#229;&#190;&#132;" d="M46.35 19.4529C43.8013 19.4529 42.0873 17.481 42.0873 15.0002C42.0873 12.5194 43.7821 10.5475 46.35 10.5475C47.1343 10.4925 47.9137 10.7084 48.5575 11.1589C49.2014 11.6094 49.6706 12.2672 49.8864 13.0219C49.8958 13.0556 49.9156 13.0854 49.9431 13.1072C49.9705 13.1289 50.0042 13.1414 50.0393 13.1428H53.4355C53.4573 13.1429 53.4789 13.1384 53.4988 13.1296C53.5186 13.1208 53.5364 13.1078 53.5509 13.0916C53.5654 13.0752 53.5762 13.0561 53.5827 13.0354C53.5891 13.0145 53.5911 12.9926 53.5883 12.971C53.0404 9.59334 50.0392 7.24615 46.35 7.24615C45.3181 7.21675 44.2909 7.39635 43.3304 7.77404C42.3698 8.15174 41.496 8.71971 40.7612 9.44361C40.0265 10.1676 39.4462 11.0326 39.0554 11.9864C38.6646 12.9403 38.4713 13.9634 38.4872 14.9938C38.4757 16.0216 38.6721 17.0411 39.0649 17.9913C39.4577 18.9415 40.0385 19.8027 40.7727 20.5232C41.5071 21.2438 42.3796 21.8088 43.3379 22.1846C44.2963 22.5603 45.3208 22.7389 46.35 22.7097C50.0392 22.7097 53.0404 20.4134 53.5883 16.9848C53.5911 16.9633 53.5891 16.9413 53.5827 16.9205C53.5762 16.8997 53.5654 16.8805 53.5509 16.8643C53.5364 16.848 53.5186 16.835 53.4988 16.8262C53.4789 16.8174 53.4573 16.8129 53.4355 16.8131H50.0393C50.0042 16.8145 49.9705 16.8269 49.9431 16.8487C49.9156 16.8703 49.8958 16.9002 49.8864 16.9339C49.6813 17.6982 49.2163 18.3675 48.5711 18.827C47.9259 19.2866 47.1406 19.5079 46.35 19.4529Z" fill="white"/>
<path id="&#229;&#189;&#162;&#231;&#138;&#182;_2" fill-rule="evenodd" clip-rule="evenodd" d="M56.0987 14.9811C56.0987 10.5092 59.4821 7.23335 63.9934 7.23335C65.0262 7.19947 66.055 7.37591 67.0173 7.75199C67.9795 8.12815 68.855 8.69603 69.5901 9.42099C70.3252 10.146 70.9048 11.0129 71.2932 11.9688C71.6818 12.9247 71.8712 13.9496 71.8497 14.9811C71.8788 16.0189 71.6954 17.0517 71.3108 18.0164C70.9263 18.981 70.3486 19.8572 69.6133 20.5914C68.8779 21.3256 68.0001 21.9022 67.0338 22.2861C66.0675 22.67 65.033 22.8531 63.9934 22.8241C62.952 22.8529 61.9157 22.6699 60.9474 22.2865C59.9791 21.903 59.099 21.3269 58.3606 20.5934C57.6222 19.8598 57.041 18.984 56.6521 18.0191C56.2633 17.0544 56.075 16.0207 56.0987 14.9811ZM59.6982 14.9811C59.6982 17.5127 61.4442 19.5419 63.9929 19.5419C66.5289 19.5419 68.2493 17.4619 68.2493 14.9811C68.2493 12.5003 66.5608 10.5283 63.9929 10.5283C61.425 10.5283 59.6982 12.4493 59.6982 14.9811Z" fill="white"/>
<path id="&#229;&#189;&#162;&#231;&#138;&#182;_3" fill-rule="evenodd" clip-rule="evenodd" d="M77.264 5.32179C76.9923 5.42562 76.7027 5.47428 76.412 5.46503C76.1212 5.47428 75.8316 5.42562 75.56 5.32179C75.2884 5.21787 75.0402 5.0609 74.8301 4.86012C74.62 4.65927 74.4523 4.4186 74.3365 4.15218C74.2209 3.88577 74.1596 3.59897 74.1563 3.30862C74.1537 3.01395 74.2105 2.72175 74.3234 2.44946C74.4363 2.17718 74.6029 1.93039 74.8134 1.72381C75.0239 1.51722 75.274 1.35507 75.5486 1.24703C75.8232 1.139 76.1168 1.08729 76.412 1.09499C76.7071 1.08729 77.0007 1.139 77.2753 1.24703C77.5499 1.35507 77.8 1.51722 78.0104 1.72381C78.2209 1.93039 78.3876 2.17718 78.5005 2.44946C78.6134 2.72175 78.6702 3.01395 78.6675 3.30862C78.6643 3.59897 78.603 3.88577 78.4873 4.15218C78.3717 4.4186 78.2039 4.65927 77.9938 4.86012C77.7837 5.0609 77.5357 5.21787 77.264 5.32179ZM78.2182 7.67003C78.2255 7.68902 78.2289 7.70925 78.2279 7.72948V22.2008C78.2289 22.2211 78.2255 22.2414 78.2182 22.2603C78.2108 22.2792 78.1995 22.2964 78.1852 22.3108C78.1707 22.3252 78.1535 22.3363 78.1346 22.3437C78.1156 22.351 78.0953 22.3544 78.075 22.3535H74.7807C74.7402 22.3535 74.7013 22.3374 74.6726 22.3088C74.6439 22.2801 74.6279 22.2413 74.6279 22.2008V7.72948C74.6279 7.68902 74.6439 7.65019 74.6726 7.62156C74.7013 7.59293 74.7402 7.5769 74.7807 7.5769H78.075C78.0953 7.57594 78.1156 7.57928 78.1346 7.58663C78.1535 7.59398 78.1707 7.60524 78.1852 7.61955C78.1995 7.63396 78.2108 7.65114 78.2182 7.67003Z" fill="white"/>
<path id="&#232;&#183;&#175;&#229;&#190;&#132;_2" d="M89.8444 7.10624C88.1678 7.10089 86.5457 7.6994 85.2753 8.79194V7.72965C85.2753 7.6891 85.2591 7.65026 85.2304 7.62163C85.2017 7.593 85.1635 7.57697 85.1224 7.57697H81.7965C81.756 7.57697 81.7171 7.593 81.6884 7.62163C81.6597 7.65026 81.6436 7.6891 81.6436 7.72965V22.2009C81.6436 22.2414 81.6597 22.2802 81.6884 22.3088C81.7171 22.3375 81.756 22.3536 81.7965 22.3536H85.1224C85.1635 22.3536 85.2017 22.3375 85.2304 22.3088C85.2591 22.2802 85.2753 22.2414 85.2753 22.2009V12.5639C85.2667 12.5328 85.2667 12.4997 85.2753 12.4686C85.7179 11.8694 86.2857 11.3732 86.9395 11.0141C87.5924 10.655 88.316 10.4416 89.0606 10.3885C91.3155 10.3885 92.692 11.8261 92.692 14.4214V22.2009C92.692 22.2414 92.7082 22.2802 92.7369 22.3088C92.7656 22.3375 92.8048 22.3536 92.8449 22.3536H96.1398C96.1599 22.3544 96.181 22.3511 96.2001 22.3438C96.2192 22.3365 96.2364 22.3254 96.2517 22.3111C96.267 22.2969 96.2785 22.2798 96.2861 22.2608C96.2947 22.2418 96.2985 22.2215 96.2985 22.2009V14.1988C96.2985 9.91777 93.6995 7.10624 89.8444 7.10624Z" fill="white"/>
<path id="&#229;&#189;&#162;&#231;&#138;&#182;_4" fill-rule="evenodd" clip-rule="evenodd" d="M101.909 5.32173C101.638 5.42565 101.348 5.47431 101.058 5.46496C100.767 5.47431 100.477 5.42565 100.206 5.32173C99.9345 5.2179 99.686 5.06093 99.4757 4.86015C99.2654 4.65927 99.0981 4.4186 98.9825 4.15218C98.8668 3.88577 98.8056 3.59897 98.8018 3.30862C98.7999 3.01395 98.8563 2.72175 98.9691 2.44946C99.0819 2.17718 99.2492 1.93039 99.4594 1.72381C99.6697 1.51722 99.9202 1.35507 100.195 1.24703C100.469 1.139 100.762 1.08729 101.058 1.09499C101.353 1.08729 101.647 1.139 101.921 1.24703C102.196 1.35507 102.446 1.51722 102.656 1.72381C102.867 1.93039 103.033 2.17718 103.146 2.44946C103.259 2.72175 103.316 3.01395 103.314 3.30862C103.31 3.59897 103.249 3.88577 103.133 4.15218C103.017 4.4186 102.85 4.65927 102.64 4.86015C102.429 5.06093 102.182 5.2179 101.909 5.32173ZM102.829 7.62159C102.858 7.65021 102.874 7.68905 102.874 7.72951L102.848 22.2009C102.848 22.2413 102.832 22.2802 102.803 22.3088C102.774 22.3374 102.736 22.3534 102.695 22.3534H99.4011C99.361 22.3534 99.3218 22.3374 99.2931 22.3088C99.2645 22.2802 99.2482 22.2413 99.2482 22.2009V7.72951C99.2482 7.68905 99.2645 7.65021 99.2931 7.62159C99.3218 7.59296 99.361 7.57683 99.4011 7.57683H102.721C102.761 7.57683 102.8 7.59296 102.829 7.62159Z" fill="white"/>
<path id="&#232;&#183;&#175;&#229;&#190;&#132;_3" d="M109.908 7.54496V6.62267C109.886 6.21511 109.953 5.80764 110.102 5.42775C110.251 5.04776 110.48 4.70412 110.773 4.41978C111.066 4.13544 111.417 3.91699 111.802 3.77909C112.187 3.64119 112.597 3.58703 113.004 3.62024C113.679 3.64733 114.35 3.72815 115.011 3.86195C115.033 3.86665 115.056 3.86642 115.078 3.86128C115.1 3.85615 115.12 3.84623 115.138 3.83225C115.156 3.81827 115.17 3.80057 115.18 3.78042C115.19 3.76026 115.196 3.73815 115.196 3.71565V0.891361C115.197 0.857495 115.186 0.824391 115.165 0.79771C115.144 0.771029 115.114 0.752421 115.081 0.745064C114.175 0.465733 113.233 0.317918 112.284 0.306152C108.684 0.306152 106.275 2.85055 106.275 6.62267V22.2008C106.275 22.2412 106.292 22.2801 106.32 22.3087C106.349 22.3373 106.388 22.3534 106.428 22.3534H109.755C109.775 22.3534 109.794 22.3494 109.813 22.3418C109.831 22.3341 109.848 22.3229 109.863 22.3087C109.877 22.2945 109.888 22.2777 109.895 22.2592C109.904 22.2406 109.908 22.2208 109.908 22.2008V10.6046H116.28C116.32 10.6046 116.359 10.5886 116.388 10.5599C116.416 10.5313 116.433 10.4925 116.433 10.4519V7.69764C116.434 7.67732 116.43 7.65709 116.422 7.63819C116.415 7.6192 116.404 7.60203 116.39 7.58771C116.375 7.5733 116.358 7.56214 116.339 7.55479C116.32 7.54744 116.3 7.5441 116.28 7.54496H109.908Z" fill="white"/>
<path id="&#232;&#183;&#175;&#229;&#190;&#132;_4" d="M129.985 7.76139C129.996 7.73801 130.001 7.71234 129.999 7.68676C129.997 7.66109 129.989 7.63638 129.974 7.61481C129.961 7.59325 129.942 7.57559 129.919 7.56338C129.896 7.55116 129.871 7.54487 129.845 7.54515H126.366C126.336 7.54401 126.308 7.55202 126.282 7.56786C126.257 7.5838 126.238 7.60689 126.225 7.63418L121.81 17.0675L117.624 7.65957C117.613 7.6318 117.594 7.60813 117.568 7.5921C117.543 7.57607 117.514 7.56853 117.484 7.57053H113.935C113.91 7.57082 113.885 7.57712 113.863 7.58895C113.841 7.60078 113.823 7.61787 113.809 7.63848C113.795 7.65919 113.787 7.68295 113.784 7.70766C113.782 7.73247 113.786 7.75738 113.794 7.78047L119.74 21.4058C119.749 21.4245 119.754 21.4452 119.754 21.4662C119.754 21.4872 119.749 21.5079 119.74 21.5266L116.707 28.123C116.695 28.1463 116.691 28.1719 116.693 28.1976C116.694 28.2232 116.703 28.248 116.717 28.2696C116.731 28.291 116.75 28.3088 116.773 28.321C116.796 28.3331 116.821 28.3394 116.846 28.3392H120.332C120.361 28.3395 120.391 28.3312 120.416 28.3154C120.44 28.2996 120.46 28.2769 120.472 28.2502L129.985 7.76139Z" fill="white"/>
</g>
</svg>
