<svg width="167" height="30" viewBox="0 0 167 30" fill="none" xmlns="http://www.w3.org/2000/svg">
<g id="coinpaprika">
<path id="&#229;&#189;&#162;&#231;&#138;&#182;" fill-rule="evenodd" clip-rule="evenodd" d="M49.3801 22.7491C49.1403 22.8091 48.8966 22.8535 48.6509 22.8818C48.4219 22.9146 48.191 22.9316 47.9596 22.9324C47.5412 22.9381 47.1256 22.863 46.7358 22.7112C46.3786 22.5713 46.0562 22.3556 45.791 22.079C45.5139 21.79 45.2982 21.4481 45.1568 21.0739C44.8855 20.2117 44.8855 19.2874 45.1568 18.4253C45.2781 18.0506 45.4744 17.7043 45.7339 17.4075C45.9982 17.1329 46.3182 16.9175 46.6724 16.7753C47.0747 16.6116 47.5063 16.532 47.9407 16.5414C48.9063 16.5551 49.8571 16.7817 50.7245 17.2053V14.7841C50.3085 14.6649 49.8847 14.574 49.4562 14.5123C48.891 14.4354 48.3208 14.3995 47.7504 14.4048C46.9824 14.3985 46.2196 14.5313 45.4993 14.7967C44.8511 15.0363 44.2628 15.413 43.7746 15.9007C43.2864 16.3884 42.9099 16.9758 42.671 17.6224C42.3994 18.3437 42.2639 19.1088 42.2716 19.8791C42.2577 20.6488 42.3802 21.4149 42.633 22.1422C42.8555 22.762 43.2153 23.3238 43.6856 23.7859C44.1615 24.2365 44.7309 24.5774 45.3534 24.7846C46.0693 25.0188 46.8195 25.132 47.5729 25.1196C48.1254 25.1207 48.6771 25.0741 49.2216 24.9805C49.7425 24.8842 50.2524 24.736 50.7435 24.5381V22.3256C50.5369 22.4158 50.3252 22.4939 50.1094 22.5595C49.8714 22.6408 49.6276 22.7042 49.3801 22.7491ZM61.9424 15.6879C61.5131 15.2333 60.9833 14.8847 60.3951 14.67C59.7307 14.4311 59.0279 14.3155 58.3215 14.3286C57.5859 14.3153 56.8551 14.4485 56.1719 14.7206C55.5583 14.9672 55.0063 15.3447 54.5548 15.8269C54.1023 16.3273 53.757 16.9145 53.5402 17.5525C53.2975 18.2756 53.1796 19.0344 53.1914 19.7968C53.1727 20.5916 53.2863 21.384 53.5276 22.1419C53.724 22.7644 54.0552 23.3362 54.4978 23.8171C54.9305 24.2647 55.4596 24.6084 56.0451 24.8222C56.7086 25.0561 57.4087 25.1695 58.1123 25.1573C58.8547 25.1715 59.5924 25.0361 60.2811 24.759C60.8971 24.5116 61.4481 24.1267 61.8917 23.6337C62.3441 23.1307 62.6855 22.5384 62.8936 21.8954C63.1327 21.1737 63.2505 20.4177 63.2424 19.6576C63.2539 18.8781 63.1427 18.1017 62.9126 17.3566C62.715 16.7366 62.3838 16.1671 61.9424 15.6879ZM60.4961 21.0105C60.4139 21.3823 60.268 21.7374 60.0649 22.0598C59.8835 22.3545 59.6277 22.5965 59.323 22.7615C58.9881 22.9336 58.6151 23.0184 58.2386 23.008C57.896 23.0237 57.5546 22.9579 57.2426 22.8161C56.9306 22.6743 56.6569 22.4606 56.444 22.1925C55.9648 21.4705 55.7416 20.6094 55.8099 19.7462C55.8061 19.3211 55.8508 18.897 55.943 18.482C56.0263 18.1133 56.1744 17.7623 56.3806 17.4452C56.5718 17.1542 56.8307 16.9135 57.1351 16.7436C57.4817 16.5656 57.868 16.4786 58.2576 16.4907C58.6001 16.47 58.9426 16.5329 59.2553 16.6739C59.568 16.8149 59.8415 17.0297 60.0522 17.2998C60.5229 18.0186 60.7456 18.8708 60.6863 19.7273C60.6717 20.1612 60.6058 20.592 60.4897 21.0105H60.4961ZM68.7402 12.8642C68.8912 13.0133 69.07 13.1315 69.2666 13.2119C69.6737 13.3737 70.1277 13.3737 70.5348 13.2119C70.7287 13.1298 70.9051 13.0118 71.0549 12.8642C71.2003 12.7178 71.3147 12.5437 71.391 12.3522C71.4758 12.1521 71.5193 11.9373 71.5193 11.7201C71.5193 11.5029 71.4758 11.288 71.391 11.088C71.2724 10.7864 71.0643 10.528 70.7947 10.3473C70.5251 10.1667 70.2066 10.0721 69.8817 10.0766C69.6642 10.0785 69.4491 10.1215 69.2475 10.203C69.0507 10.2857 68.872 10.4059 68.7213 10.5569C68.5743 10.7046 68.4598 10.881 68.3851 11.0753C68.3004 11.2753 68.2567 11.4903 68.2567 11.7074C68.2567 11.9246 68.3004 12.1395 68.3851 12.3396C68.4597 12.5357 68.5742 12.7142 68.7213 12.8642H68.7402ZM71.3271 14.5502H65.8356V16.4908H68.7716V22.983H65.4678V24.9173H74.3456V22.983H71.3589L71.3271 14.5502ZM84.8403 15.3213C84.5705 15.0025 84.2296 14.7513 83.8447 14.588C83.4054 14.4046 82.932 14.3162 82.4559 14.3288C82.1076 14.3244 81.7602 14.3648 81.4223 14.4489C81.1204 14.5284 80.8304 14.6474 80.5598 14.803C80.2908 14.9605 80.0398 15.1471 79.8116 15.3593C79.5841 15.5872 79.3723 15.8299 79.1775 16.0862L79.1331 14.5501H76.9707V24.9172H79.4692V18.3556C79.8269 17.8504 80.2372 17.3842 80.6931 16.9648C81.0182 16.6498 81.4509 16.4692 81.9042 16.4591C82.754 16.4591 83.1725 17.0218 83.1725 18.1596V24.9172H85.671V17.9636C85.6787 17.4574 85.6125 16.9527 85.4744 16.4656C85.3452 16.0442 85.1292 15.6545 84.8403 15.3213ZM96.8261 15.7385C96.5141 15.2996 96.1009 14.9419 95.6213 14.6955C95.1094 14.4426 94.5437 14.3168 93.9726 14.3288C93.6264 14.3244 93.281 14.3647 92.9452 14.4489C92.6429 14.5272 92.3528 14.6464 92.0828 14.803C91.8137 14.9575 91.5645 15.1442 91.3409 15.3592C91.1134 15.5872 90.9016 15.8299 90.7068 16.0862L90.656 14.5501H88.4492V28.9692H90.9478V24.9172C91.1783 24.9808 91.4137 25.0253 91.6516 25.0499C91.9099 25.0877 92.1706 25.1068 92.4316 25.1069C93.1576 25.1125 93.8795 24.9993 94.5686 24.7718C95.2054 24.5617 95.7879 24.2143 96.2744 23.7541C96.7708 23.2663 97.1558 22.6778 97.4032 22.0283C97.6876 21.238 97.823 20.4023 97.8026 19.5629C97.8138 18.8322 97.7285 18.1032 97.5491 17.3947C97.4022 16.8032 97.151 16.2424 96.8071 15.7385H96.8261ZM95.0183 21.1115C94.9109 21.5048 94.7325 21.8755 94.4921 22.2052C94.2713 22.4997 93.9876 22.7415 93.6614 22.9132C93.3226 23.0726 92.9517 23.1527 92.577 23.1471C92.2815 23.147 91.9866 23.1215 91.6956 23.0712C91.4449 23.0347 91.1984 22.9733 90.96 22.8879V18.3618C91.3181 17.8568 91.7282 17.3907 92.1839 16.9711C92.5114 16.6548 92.9456 16.4722 93.4014 16.459C93.6637 16.4543 93.9232 16.5152 94.1559 16.636C94.3931 16.7701 94.5885 16.967 94.7204 17.205C94.8918 17.5144 95.0118 17.8496 95.0755 18.1974C95.163 18.677 95.2034 19.164 95.1959 19.6514C95.2038 20.1439 95.1441 20.6351 95.0183 21.1115ZM107.6 15.2076C107.195 14.8996 106.727 14.6839 106.23 14.5755C105.58 14.4167 104.913 14.3424 104.245 14.3543C103.562 14.353 102.88 14.4187 102.209 14.5502C101.627 14.6583 101.055 14.8212 100.504 15.037V17.0282C101.056 16.7747 101.632 16.5736 102.222 16.4277C102.819 16.2886 103.429 16.2186 104.042 16.2191C104.374 16.2139 104.705 16.2565 105.025 16.3455C105.259 16.4175 105.475 16.5381 105.659 16.6996C105.82 16.8507 105.943 17.0366 106.02 17.2432C106.097 17.4756 106.133 17.7193 106.128 17.9638V18.596H104.771C104.013 18.5849 103.257 18.6699 102.52 18.8488C101.949 18.9885 101.408 19.2282 100.922 19.5567C100.532 19.8227 100.213 20.1783 99.9899 20.5935C99.7799 21.0156 99.6733 21.4814 99.6792 21.9526C99.6721 22.3955 99.7429 22.8362 99.8884 23.2548C100.015 23.6372 100.228 23.9857 100.511 24.2738C100.793 24.5619 101.138 24.782 101.518 24.9174C101.97 25.0839 102.45 25.1633 102.932 25.1512C103.305 25.1572 103.678 25.119 104.042 25.0375C104.367 24.9638 104.682 24.8513 104.98 24.7024C105.262 24.5616 105.527 24.3922 105.773 24.1967C106.013 23.9992 106.242 23.7882 106.458 23.5646L106.515 24.9174H108.658V17.8374C108.667 17.3138 108.578 16.793 108.398 16.3012C108.231 15.8707 107.951 15.493 107.587 15.2076H107.6ZM106.148 21.7248C105.763 22.1297 105.338 22.494 104.879 22.8121C104.564 23.0422 104.186 23.1721 103.795 23.1851C103.398 23.2062 103.006 23.0901 102.685 22.8563C102.545 22.7387 102.435 22.5899 102.363 22.4218C102.292 22.2538 102.261 22.0713 102.273 21.8892C102.266 21.6838 102.31 21.4798 102.4 21.295C102.491 21.0988 102.628 20.9273 102.799 20.7956C103.015 20.6438 103.255 20.5305 103.51 20.4606C103.859 20.37 104.22 20.3295 104.581 20.3405H106.122L106.148 21.7248ZM119.87 15.7385C119.558 15.2996 119.145 14.9419 118.665 14.6955C118.153 14.4426 117.588 14.3168 117.016 14.3288C116.667 14.3244 116.321 14.3647 115.983 14.4489C115.683 14.5285 115.395 14.6475 115.127 14.803C114.855 14.9567 114.603 15.1435 114.379 15.3592C114.151 15.5872 113.94 15.8299 113.744 16.0862L113.694 14.5501H111.537V28.9692H114.036V24.9172C114.266 24.9802 114.502 25.0247 114.74 25.0499C114.998 25.0877 115.259 25.1068 115.52 25.1069C116.246 25.1125 116.967 24.9993 117.657 24.7718C118.295 24.5633 118.877 24.2156 119.363 23.7541C119.861 23.2681 120.246 22.6789 120.491 22.0283C120.778 21.2384 120.915 20.4026 120.897 19.5629C120.906 18.8324 120.82 18.1038 120.643 17.3947C120.496 16.8021 120.243 16.241 119.895 15.7385H119.87ZM118.063 21.1117C117.955 21.5064 117.775 21.8775 117.53 22.2054C117.311 22.5028 117.024 22.7434 116.694 22.9074C116.363 23.0713 115.996 23.1536 115.628 23.1473C115.331 23.1471 115.038 23.1217 114.746 23.0714C114.497 23.0358 114.253 22.9743 114.017 22.888V18.362C114.373 17.857 114.78 17.3909 115.234 16.9713C115.562 16.655 115.996 16.4724 116.452 16.4592C116.721 16.4462 116.988 16.5094 117.222 16.6414C117.458 16.7734 117.65 16.9687 117.777 17.2052C117.955 17.513 118.079 17.8485 118.145 18.1976C118.236 18.6768 118.276 19.1641 118.265 19.6516C118.27 20.1451 118.203 20.6368 118.069 21.1117H118.063ZM131.461 15.4225C131.194 15.0748 130.843 14.8006 130.44 14.626C130.001 14.4356 129.525 14.3428 129.046 14.3542C128.689 14.35 128.333 14.3904 127.986 14.4743C127.68 14.551 127.386 14.6701 127.112 14.8283C126.855 14.9804 126.619 15.163 126.408 15.3719C126.189 15.5861 125.996 15.8235 125.831 16.08L125.735 14.5692H123.453V24.9362H125.989V18.343C126.337 17.7943 126.764 17.3 127.257 16.8764C127.575 16.5948 127.981 16.4278 128.405 16.4024C128.6 16.4027 128.793 16.4459 128.97 16.5288C129.14 16.6182 129.28 16.7541 129.375 16.9207C129.5 17.1264 129.583 17.3538 129.623 17.5907C129.679 17.9183 129.699 18.2513 129.679 18.5832H132.216C132.247 17.9611 132.192 17.3379 132.051 16.731C131.934 16.2478 131.718 15.7938 131.417 15.3973L131.461 15.4225ZM140.478 14.5754H134.988V16.5161H137.924V23.0081H134.633V24.9425H143.51V23.0081H140.504L140.478 14.5754ZM137.892 12.8876C138.046 13.0403 138.231 13.1607 138.434 13.242C138.637 13.3235 138.853 13.3641 139.071 13.3617C139.289 13.3605 139.504 13.3177 139.705 13.2353C139.897 13.1501 140.073 13.0324 140.225 12.8876C140.372 12.7381 140.488 12.5622 140.567 12.3693C140.732 11.9638 140.732 11.5104 140.567 11.105C140.486 10.9105 140.37 10.7327 140.225 10.5803C140.075 10.432 139.9 10.3139 139.705 10.2327C139.505 10.1454 139.289 10.1001 139.071 10.0999C138.853 10.1032 138.639 10.1461 138.436 10.2263C138.241 10.3075 138.064 10.428 137.917 10.5803C137.693 10.8128 137.542 11.1048 137.481 11.4211C137.42 11.7374 137.453 12.0646 137.575 12.363C137.643 12.5474 137.746 12.717 137.879 12.8623L137.892 12.8876ZM155.458 14.5754H152.325L148.692 19.0003V10.5044H146.199V24.9172H148.692V19.7336L152.534 24.9172H155.794L151.228 19.2784L155.458 14.5754ZM166.041 16.3266C165.876 15.8995 165.603 15.5224 165.248 15.233C164.842 14.9274 164.375 14.7118 163.879 14.6008C163.229 14.4421 162.561 14.3677 161.893 14.3797C161.211 14.3781 160.532 14.4437 159.864 14.5756C159.269 14.6836 158.685 14.8465 158.121 15.0623V17.0536C158.679 16.8 159.261 16.5989 159.858 16.453C160.452 16.3144 161.06 16.2443 161.672 16.2444C162.003 16.2385 162.334 16.2811 162.654 16.3708C162.889 16.4378 163.106 16.5566 163.288 16.7185C163.455 16.8651 163.579 17.0526 163.65 17.2622C163.725 17.4949 163.764 17.7381 163.764 17.9828V18.615H162.401C161.645 18.6032 160.89 18.6903 160.155 18.8742C159.585 19.0115 159.044 19.2492 158.557 19.5758C158.155 19.8485 157.828 20.2181 157.607 20.6505C157.397 21.0703 157.291 21.5341 157.295 22.0033C157.289 22.4482 157.36 22.891 157.505 23.3117C157.638 23.692 157.855 24.0377 158.139 24.3231C158.43 24.6018 158.775 24.8171 159.153 24.9554C159.606 25.1219 160.086 25.2013 160.568 25.1892C160.941 25.1899 161.313 25.1497 161.677 25.0691C162.003 24.9976 162.318 24.8873 162.616 24.7404C162.897 24.5996 163.163 24.4302 163.409 24.2347C163.65 24.0403 163.876 23.8291 164.087 23.6026L164.151 24.9554H166.294V17.8374C166.299 17.313 166.206 16.7922 166.021 16.3013L166.041 16.3266ZM163.783 21.7502C163.399 22.155 162.974 22.5194 162.515 22.8374C162.199 23.0675 161.822 23.1975 161.431 23.2104C161.031 23.2304 160.638 23.1145 160.315 22.8817C160.177 22.7627 160.068 22.6135 159.998 22.4456C159.927 22.2778 159.897 22.0961 159.909 21.9145C159.904 21.7024 159.951 21.4923 160.045 21.302C160.138 21.1118 160.276 20.9467 160.447 20.8209C160.66 20.6681 160.899 20.5546 161.152 20.4858C161.501 20.3953 161.863 20.3549 162.223 20.3657H163.751L163.783 21.7502Z" fill="#2B2F33"/>
<path id="&#232;&#183;&#175;&#229;&#190;&#132;" fill-rule="evenodd" clip-rule="evenodd" d="M28.1677 10.3083C27.9466 9.59499 27.5574 8.94468 27.0326 8.41189C24.6864 5.8075 22.524 4.82142 18.9475 6.47124H18.7636C17.2099 6.72415 16.4236 7.28039 15.9037 8.7912C14.5784 12.5841 13.1642 16.339 11.7819 20.1002L11.1477 20.9157C8.61119 22.7741 6.15713 24.4999 2.64399 23.0776C1.37581 22.553 -0.748568 22.7173 0.34847 25.3406C0.414033 25.6879 0.603195 26 0.88116 26.2193C1.03969 26.5228 1.83862 26.9653 2.04163 27.1043C6.98148 30.3093 12.3716 30.9793 17.5778 28.4824C23.4942 25.6441 27.7936 21.1686 28.2311 14.1391C28.4489 12.8694 28.4274 11.5703 28.1677 10.3083Z" fill="#CA312C"/>
<path id="&#232;&#183;&#175;&#229;&#190;&#132;_2" fill-rule="evenodd" clip-rule="evenodd" d="M26.0625 6.6226C26.0919 5.64036 26.1979 4.66175 26.3795 3.69585C26.6775 1.16727 25.3332 0.0800058 24.2108 0.00415583C23.7004 -0.0210536 23.1904 0.0622776 22.7149 0.248652C22.2392 0.435027 21.8089 0.72015 21.4523 1.08509C21.279 1.25842 21.1771 1.49013 21.1665 1.73463C21.156 1.97913 21.2375 2.21873 21.3953 2.40632C21.8898 2.93093 22.3338 2.92463 22.6191 1.83734C23.0883 0.0799825 25.1556 1.83732 25.0795 2.73498C24.9653 4.50501 23.6717 5.18134 22.543 5.94626C21.4143 6.71118 20.2792 6.80595 18.4466 7.45077C18.359 7.50376 18.2857 7.57705 18.2328 7.66447C18.1799 7.75189 18.149 7.85062 18.1428 7.95251C18.1366 8.0544 18.1552 8.15629 18.197 8.24942C18.2389 8.34256 18.3027 8.42426 18.3831 8.48751C18.8517 8.56022 19.3286 8.56022 19.7972 8.48751C21.2938 8.25362 21.763 8.68347 22.226 10.169C23.1381 9.73094 24.1671 9.59579 25.162 9.78335C26.1512 10.1373 26.1575 10.7442 26.5 11.1741C26.6085 11.2079 26.7259 11.1976 26.8269 11.1455C26.9279 11.0934 27.0041 11.0038 27.039 10.8959C27.0483 10.8458 27.0483 10.7944 27.039 10.7442C26.3341 9.48807 25.9957 8.06047 26.0625 6.6226Z" fill="#91B949"/>
</g>
</svg>
