<svg width="120" height="33" viewBox="0 0 120 33" fill="none" xmlns="http://www.w3.org/2000/svg">
<g id="tangem">
<path id="&#229;&#189;&#162;&#231;&#138;&#182;" fill-rule="evenodd" clip-rule="evenodd" d="M19.0036 6.32696V0.804434C19.0022 0.590568 18.9161 0.386012 18.7643 0.235319C18.6126 0.0846262 18.4074 -8.90076e-06 18.1935 7.02085e-10H0.804431C0.591061 7.02085e-10 0.386415 0.0848132 0.235623 0.235666C0.0847425 0.386528 0 0.591084 0 0.804434V6.32696H19.0036ZM0.235382 25.0742C0.0846789 24.9225 0.000114441 24.7173 0.000114441 24.5034V12.654H6.33275V25.3135H0.804545C0.590642 25.312 0.386085 25.226 0.235382 25.0742ZM12.671 25.3135V12.654H19.0036V24.5091C19.0036 24.6152 18.9827 24.7203 18.9419 24.8182C18.9011 24.9162 18.8414 25.0051 18.7661 25.0798C18.6908 25.1546 18.6014 25.2138 18.5032 25.2539C18.4049 25.294 18.2996 25.3142 18.1935 25.3135H12.671ZM45.333 7.74168C46.5923 7.67118 47.851 7.8898 49.0127 8.38072H48.9671C49.3791 8.59453 49.7432 8.88988 50.0374 9.24879C50.3316 9.60779 50.5498 10.0229 50.6786 10.4687C51.0283 11.8126 51.182 13.2 51.135 14.5878V25.3019H47.7462L47.6435 23.6758C47.5368 23.9013 47.4048 24.1138 47.2499 24.3092C46.3028 25.5187 44.2433 25.5643 43.57 25.5643C42.138 25.5643 41.1169 25.1592 40.495 24.3491C39.8751 23.5314 39.5651 22.2211 39.5651 20.4183C39.5262 19.3516 39.6631 18.2857 39.9702 17.2634C40.1891 16.5594 40.6687 15.9656 41.3108 15.6033C42.1219 15.2254 43.013 15.0511 43.9067 15.0955C45.1047 15.1069 46.3028 15.1526 47.5009 15.2324V14.3938C47.5388 13.5942 47.4522 12.7935 47.2441 12.0205C47.1816 11.8084 47.0692 11.6144 46.9164 11.4546C46.7635 11.2948 46.5747 11.1739 46.3656 11.102C45.6827 10.9355 44.9797 10.8664 44.2775 10.8966C42.9728 10.9146 41.6701 11.0041 40.3752 11.1647V8.28369C42.0023 7.9182 43.6654 7.73643 45.333 7.74168ZM47.5002 18.7244C47.5002 20.1906 47.3405 21.1433 47.0267 21.5769C46.8239 21.8292 46.5524 22.0174 46.2451 22.1189C45.8924 22.2165 45.527 22.2606 45.1611 22.2501C44.3453 22.2501 43.8147 22.1132 43.5694 21.8336C43.2556 21.3089 43.1233 20.6954 43.1929 20.0879C43.1757 19.5962 43.2275 19.1046 43.3469 18.6274C43.3821 18.4913 43.4455 18.3641 43.533 18.2541C43.6205 18.1439 43.73 18.0534 43.8547 17.9884C44.2049 17.8523 44.5807 17.7939 44.9558 17.8173H47.5002V18.7244ZM78.348 8.9974C78.4356 9.10533 78.5149 9.21915 78.5859 9.33805L78.5767 9.32266L78.6622 7.98192H82.0448V23.0604C82.0884 24.8556 81.9647 26.651 81.6745 28.4232C81.5837 28.9661 81.3861 29.4855 81.0923 29.9508C80.7986 30.4162 80.414 30.8182 79.9627 31.133C79.061 31.7415 77.6483 32.0458 75.7239 32.0458C74.9423 32.0458 74.0979 32.0059 73.2308 31.9261C72.5188 31.8682 71.8104 31.773 71.1085 31.6408V28.7883L74.9081 28.851C75.7181 28.9018 76.5302 28.7933 77.2985 28.5315C77.5344 28.4093 77.7391 28.2338 77.8958 28.0189C78.0516 27.8041 78.1557 27.5557 78.2002 27.2936C78.3747 26.3014 78.445 25.2938 78.4112 24.287C77.1787 25.5249 74.697 25.3367 74.697 25.3367H74.6114C73.6317 25.4048 72.659 25.1284 71.8616 24.5551C71.1272 23.8536 70.6558 22.9211 70.5266 21.9136C70.0055 18.3498 70.0055 14.7291 70.5266 11.1654C70.6656 10.1459 71.1511 9.20507 71.9015 8.50106C72.65 7.98112 73.5465 7.71701 74.4574 7.74808C74.4574 7.74808 77.2072 7.52554 78.348 8.9974ZM78.1709 20.5154C78.1139 20.9799 77.8834 21.4059 77.5255 21.7077C77.1081 21.9628 76.6225 22.0842 76.1339 22.0558C75.5868 22.1017 75.038 21.9888 74.5535 21.7306C74.1748 21.3603 73.9557 20.8566 73.943 20.3271C73.8195 19.0855 73.77 17.8378 73.7947 16.5904C73.7685 15.3352 73.82 14.0795 73.9487 12.8307C73.9566 12.3215 74.161 11.835 74.5193 11.4729C75.0143 11.2287 75.5666 11.1241 76.1167 11.1705C76.6315 11.1315 77.1444 11.2683 77.5718 11.5584C77.9528 11.9581 78.1807 12.4792 78.2163 13.0304C78.3596 14.2094 78.4166 15.3973 78.3872 16.5847C78.4317 17.8995 78.3516 19.2157 78.1477 20.5154H78.1709ZM91.6011 7.74776C93.4072 7.74776 94.7024 8.03492 95.4857 8.60915H95.4804C95.8801 8.91875 96.2148 9.30453 96.464 9.74418C96.7141 10.1839 96.8744 10.6688 96.9349 11.1707C97.1672 12.9866 97.2625 14.8174 97.2206 16.6475V17.9198H89.2048C89.1683 18.9455 89.2386 19.9723 89.4158 20.9834C89.4594 21.2312 89.5627 21.4646 89.7167 21.6634C89.8706 21.8623 90.0709 22.0205 90.2997 22.1244C91.067 22.3631 91.8708 22.4616 92.6737 22.4153C94.0677 22.3986 95.4599 22.3072 96.8441 22.1415V25.034C96.0946 25.2237 95.3317 25.3554 94.5618 25.4277C93.6538 25.5256 92.7423 25.5751 91.829 25.576C89.9276 25.576 88.5292 25.2888 87.6355 24.7145C87.1859 24.4125 86.8023 24.022 86.5077 23.567C86.2139 23.1119 86.0154 22.6016 85.9246 22.0674C85.6139 20.2955 85.4822 18.4971 85.5303 16.6989C85.4858 14.9053 85.6113 13.1115 85.9068 11.3418C85.9922 10.8049 86.1827 10.29 86.4676 9.82687C86.7524 9.36373 87.1263 8.96156 87.5669 8.64333C88.45 8.04622 89.7941 7.74776 91.6011 7.74776ZM93.7231 15.2038H89.1762C89.17 14.2497 89.2332 13.2964 89.364 12.3514C89.3845 12.1281 89.4504 11.9114 89.5581 11.715C89.6667 11.5186 89.8135 11.3467 89.9916 11.2103C90.4642 10.9704 90.993 10.8639 91.5209 10.9023C92.0122 10.8674 92.5036 10.9618 92.9469 11.1761C93.1196 11.3159 93.2629 11.489 93.3679 11.6849C93.4721 11.8809 93.537 12.0959 93.5575 12.3172C93.6955 13.2614 93.7507 14.2159 93.7231 15.1697V15.2038ZM118.534 8.38122C119.124 8.88362 119.527 9.57153 119.675 10.3323V10.3722C119.917 11.5197 120.024 12.6914 119.995 13.8637V25.2738H116.326V15.7522C116.348 14.6821 116.31 13.6116 116.213 12.5459C116.21 12.3321 116.165 12.1209 116.08 11.9248C115.994 11.7288 115.871 11.552 115.716 11.4049C115.295 11.1971 114.825 11.1101 114.358 11.1538C113.83 11.1085 113.304 11.2655 112.886 11.5931C112.539 11.9942 112.338 12.5009 112.315 13.0308C112.223 14.1083 112.186 15.1899 112.202 16.2712V25.2853H108.533V15.7635C108.556 14.6933 108.516 13.6228 108.413 12.5573C108.414 12.3437 108.37 12.1324 108.286 11.9362C108.201 11.74 108.077 11.5631 107.923 11.4163C107.501 11.2123 107.032 11.1256 106.565 11.1652C106.305 11.1391 106.043 11.1644 105.793 11.2397C105.544 11.3151 105.312 11.4391 105.11 11.6045C104.763 12.0057 104.562 12.5124 104.539 13.0422C104.443 14.1196 104.403 15.2012 104.42 16.2827V25.3138H100.757V8.02178H104.117L104.214 9.51073C104.31 9.33457 104.422 9.16669 104.545 9.00869C105.646 7.5768 108.448 7.74797 108.448 7.74797C109.279 7.70516 110.105 7.90321 110.826 8.31847C111.236 8.62067 111.553 9.03183 111.74 9.50503C111.832 9.32682 111.943 9.15859 112.071 9.00299C113.223 7.58249 115.972 7.74219 115.972 7.74219H116.109C116.967 7.6805 117.819 7.90526 118.534 8.38122ZM65.2603 8.39778C64.5004 7.90615 63.6017 7.67391 62.6987 7.73595H62.5904C62.5904 7.73595 59.8063 7.58196 58.6824 8.99676C58.6055 9.09681 58.535 9.20167 58.4712 9.31053L58.3914 8.01555H55.0312V25.3018H58.6938V16.2822C58.6766 15.2063 58.7167 14.1303 58.8136 13.0588C58.8334 12.5283 59.0349 12.0208 59.3841 11.6211C59.8257 11.2752 60.3832 11.1118 60.9416 11.1647C61.4306 11.1266 61.9213 11.213 62.3679 11.4157C62.5397 11.5597 62.6793 11.7382 62.7776 11.9398C62.8759 12.1413 62.9307 12.3612 62.9384 12.5853C63.0516 13.6444 63.0992 14.7094 63.081 15.7743V25.2961H66.7436V14.0685C66.7741 12.8384 66.6728 11.6087 66.4413 10.4002C66.2953 9.62217 65.8815 8.91967 65.2717 8.41487L65.2603 8.39778ZM31.5204 2.99536H35.1888V7.91314H37.9671V11.068H35.1888V25.2965H31.5204V11.068H29.2383V7.91314H31.5204V2.99536Z" fill="#2B2F33"/>
</g>
</svg>
