<svg width="187" height="24" viewBox="0 0 187 24" fill="none" xmlns="http://www.w3.org/2000/svg">
<g id="tradingview">
<path id="&#229;&#189;&#162;&#231;&#138;&#182;" fill-rule="evenodd" clip-rule="evenodd" d="M151.386 3.67225C150.979 4.07567 150.427 4.30227 149.851 4.30227C149.276 4.30227 148.724 4.07567 148.317 3.67225C147.91 3.26883 147.681 2.72177 147.681 2.1512C147.681 1.58075 147.91 1.03356 148.317 0.630137C148.724 0.226716 149.276 0.00012207 149.851 0.00012207C150.427 0.00012207 150.979 0.226716 151.386 0.630137C151.793 1.03356 152.022 1.58075 152.022 2.1512C152.022 2.72177 151.793 3.26883 151.386 3.67225ZM98.699 4.09333C98.3422 4.32973 97.9227 4.45591 97.4935 4.45591C96.9233 4.43894 96.3813 4.20682 95.978 3.80704C95.5747 3.40727 95.3406 2.86987 95.3235 2.30483C95.3235 1.87929 95.4508 1.46343 95.6892 1.10965C95.9276 0.756001 96.2665 0.480268 96.663 0.317392C97.0596 0.154641 97.4959 0.112037 97.9168 0.194983C98.3378 0.278055 98.7244 0.482907 99.0279 0.783776C99.3314 1.08452 99.538 1.46783 99.6218 1.8852C99.7055 2.30245 99.6625 2.7349 99.4983 3.12801C99.334 3.521 99.0559 3.85706 98.699 4.09333ZM87.7354 18.5116C87.1123 18.799 86.4314 18.9421 85.7442 18.9299C82.4273 18.9299 79.8852 16.0106 79.8852 12.5074C79.8852 9.00416 82.4273 6.05416 85.7442 6.05416C87.4803 6.05416 88.7823 6.91454 89.3403 7.71359V0.154046H92.7503V18.6533H89.3403V17.2705C88.9072 17.7996 88.3585 18.224 87.7354 18.5116ZM48.0791 18.6532H51.7061V4.54819H56.4491V1.13721H43.3672V4.54819H48.0791V18.6532ZM56.4494 18.6532H59.8594V12.753C59.8594 10.6942 60.9134 9.46497 62.5564 9.46497C63.0856 9.46447 63.6106 9.5581 64.1065 9.74159V6.29982C63.7316 6.20343 63.3465 6.1519 62.9594 6.14612C62.2881 6.15177 61.6338 6.35688 61.0812 6.73479C60.5286 7.11282 60.1031 7.64631 59.8594 8.26653V6.29982H56.4494V18.6532ZM72.6384 18.5115C72.0153 18.7989 71.3344 18.9421 70.6472 18.9299C67.3302 18.9299 64.7882 16.0105 64.7882 12.5073C64.7882 9.00409 67.3302 6.05409 70.6472 6.05409C72.3832 6.05409 73.6852 6.91447 74.2432 7.71352V6.33058H77.6532V18.6533H74.2432V17.2704C73.8102 17.7995 73.2614 18.2239 72.6384 18.5115ZM71.3597 15.8569C69.4688 15.8569 68.2287 14.4434 68.2287 12.5074C68.2287 10.5714 69.4688 9.15784 71.3597 9.15784C73.2507 9.15784 74.4908 10.5714 74.4908 12.5074C74.4908 14.4434 73.2507 15.8569 71.3597 15.8569ZM86.4876 15.8569C84.5967 15.8569 83.3567 14.4434 83.3567 12.5074C83.3567 10.5714 84.5967 9.15784 86.4876 9.15784C88.3787 9.15784 89.6187 10.5714 89.6187 12.5074C89.6187 14.4434 88.3787 15.8569 86.4876 15.8569ZM95.8196 18.6531H99.2295V6.45337H95.8196V18.6531ZM105.646 18.6532H102.236V6.33056H105.646V7.74417C106.327 6.73009 107.599 6.05408 109.21 6.05408C112.217 6.05408 114.016 8.23582 114.016 11.4318V18.6532H110.605V11.9849C110.605 10.2025 109.831 9.12699 108.404 9.12699C106.823 9.12699 105.646 10.264 105.646 12.6302V18.6532ZM122.695 15.3652C122.277 15.3702 121.861 15.2916 121.472 15.134C121.084 14.9762 120.732 14.7429 120.437 14.4475C120.143 14.1522 119.91 13.8009 119.754 13.4148C119.6 13.0288 119.524 12.6155 119.533 12.2001C119.539 11.5815 119.73 10.9785 120.081 10.4671C120.433 9.95573 120.928 9.55872 121.506 9.32622C122.084 9.09372 122.72 9.03591 123.331 9.16033C123.942 9.28475 124.502 9.58562 124.942 10.0252C125.381 10.4648 125.679 11.0234 125.799 11.6305C125.919 12.2376 125.853 12.8663 125.613 13.4372C125.373 14.0082 124.969 14.4959 124.448 14.839C123.929 15.1821 123.32 15.3652 122.695 15.3652ZM128.99 17.6391C128.99 22.0643 126.107 24.0002 122.294 24.0002C120.123 24.0002 117.922 23.3856 116.496 22.0028L118.356 19.4829C118.867 19.9819 119.472 20.3748 120.137 20.6387C120.803 20.9025 121.515 21.032 122.231 21.0194C124.247 21.0194 125.579 19.6058 125.579 17.6391V16.8094C124.928 17.7313 123.564 18.4381 121.983 18.4381C118.728 18.4381 116.124 15.7032 116.124 12.2306C116.124 8.75818 118.728 5.99255 121.983 5.99255C123.564 5.99255 124.898 6.69936 125.579 7.65198V6.26904H128.99V17.6391ZM136.212 18.6532H139.436L146.751 1.13721H142.784L137.855 13.3062L132.864 1.13721H128.958L136.212 18.6532ZM148.178 18.6531H151.588V6.2998H148.178V18.6531ZM166.158 16.1641C164.979 17.8543 162.996 18.9299 160.392 18.9299C156.702 18.9299 153.819 16.3793 153.758 12.4766C153.758 8.85051 156.516 6.05409 160.299 6.05409C163.584 6.05409 166.437 8.08225 166.437 12.1078C166.442 12.498 166.421 12.8881 166.374 13.2756H157.074C157.292 14.935 158.748 15.8568 160.392 15.8568C161.973 15.8568 163.058 15.15 163.616 14.2897L166.158 16.1641ZM157.23 11.0014C157.57 9.49556 158.965 8.85034 160.236 8.85034C161.508 8.85034 162.747 9.52635 163.057 11.0014H157.23ZM182.619 18.6532H179.24L176.915 11.6469L174.59 18.6532H171.21L167.088 6.29984H170.715L173.07 14.1973L175.581 6.29984H178.185L180.728 14.1973L183.053 6.29984H186.711L182.619 18.6532Z" fill="#2B2F33"/>
<path id="&#229;&#189;&#162;&#231;&#138;&#182;_2" fill-rule="evenodd" clip-rule="evenodd" d="M14.4439 18.6532H7.59294V7.95916H0.710938V1.13721H14.4439V18.6532ZM28.2394 18.6532H20.3965L27.7744 1.13721H35.6174L28.2394 18.6532ZM22.5519 1.79487C21.9046 1.36606 21.1433 1.13721 20.3647 1.13721C19.321 1.13884 18.3205 1.55043 17.5826 2.28199C16.8446 3.01355 16.4294 4.00526 16.4277 5.03983C16.4277 5.81173 16.6586 6.56629 17.0912 7.20812C17.5238 7.84982 18.1387 8.35014 18.8581 8.64548C19.5774 8.94082 20.369 9.01811 21.1328 8.86755C21.8964 8.71699 22.5979 8.34524 23.1485 7.79943C23.6991 7.25361 24.0741 6.55825 24.226 5.80118C24.378 5.04423 24.2999 4.25951 24.002 3.54642C23.704 2.83321 23.1994 2.22368 22.5519 1.79487Z" fill="#2B2F33"/>
</g>
</svg>
