<svg width="14" height="14" viewBox="0 0 14 14" fill="none" xmlns="http://www.w3.org/2000/svg">
<g clip-path="url(#clip0_9022_66875)">
<path opacity="0.7" d="M6.99958 12.8339C3.7777 12.8339 1.16602 10.2222 1.16602 7.00032C1.16602 3.77844 3.7777 1.16675 6.99958 1.16675C10.2215 1.16675 12.8332 3.77844 12.8332 7.00032C12.8332 10.2222 10.2215 12.8339 6.99958 12.8339ZM6.99958 11.6672C8.23731 11.6672 9.42434 11.1755 10.2995 10.3003C11.1748 9.42507 11.6664 8.23804 11.6664 7.00032C11.6664 5.76259 11.1748 4.57556 10.2995 3.70035C9.42434 2.82515 8.23731 2.33346 6.99958 2.33346C5.76186 2.33346 4.57482 2.82515 3.69962 3.70035C2.82441 4.57556 2.33273 5.76259 2.33273 7.00032C2.33273 8.23804 2.82441 9.42507 3.69962 10.3003C4.57482 11.1755 5.76186 11.6672 6.99958 11.6672ZM6.41623 4.08353H7.58294V5.25025H6.41623V4.08353ZM6.41623 6.41696H7.58294V9.9171H6.41623V6.41696Z" fill="#9E9E9D"/>
</g>
<defs>
<clipPath id="clip0_9022_66875">
<rect width="14.0006" height="14.0006" fill="white"/>
</clipPath>
</defs>
</svg>
