<svg width="20" height="20" viewBox="0 0 20 20" fill="none" xmlns="http://www.w3.org/2000/svg">
<circle cx="10" cy="10" r="10" fill="#202323"/>
<path d="M7.82874 3.75H5.28223L8.45332 9.2464L9.72175 7.04591L7.82874 3.75Z" fill="white"/>
<path d="M12.1723 3.75V3.75964L11.8169 4.36494L13.095 6.56543L14.7188 3.75H12.1723Z" fill="#FFD30F"/>
<path d="M9.00134 4.84558L10.2794 7.04607L10.0009 7.51691L8.73242 9.71764L9.72206 11.4473L10.0009 11.9181L11.2693 9.71764L12.8163 7.04607L11.5478 4.84558H9.00134Z" fill="#FFD30F"/>
<path d="M15.0668 13.1315H12.6553V16.2503H13.3847V13.773H15.0668V13.1315Z" fill="white"/>
<path d="M14.7409 14.4033H13.7344V14.9929H14.7409V14.4033Z" fill="white"/>
<path d="M16.251 14.1225H15.5684V16.2502H16.251V14.1225Z" fill="white"/>
<path d="M16.251 13.1315H15.5684V13.7727H16.251V13.1315Z" fill="#FFD30F"/>
<path d="M5.81194 14.645C5.97941 14.5459 6.04784 14.2199 6.04784 14.0908V14.0855C6.04778 13.8327 5.94732 13.5903 5.76856 13.4116C5.58979 13.2328 5.34737 13.1324 5.09459 13.1324H3.75049V13.7855H5.03676C5.11545 13.7855 5.19092 13.8167 5.24659 13.8723C5.30226 13.9279 5.33356 14.0034 5.33362 14.0821C5.33356 14.1608 5.30226 14.2362 5.24659 14.2918C5.19092 14.3475 5.11545 14.3787 5.03676 14.3787H3.75049V16.25H5.24447C5.48808 16.25 5.72172 16.1533 5.89399 15.981C6.06625 15.8087 6.16302 15.5751 6.16302 15.3315V15.3296C6.16206 15.1614 6.16206 14.8192 5.81194 14.645ZM5.47049 15.3296C5.47049 15.4183 5.43523 15.5035 5.37246 15.5662C5.30969 15.629 5.22456 15.6643 5.13579 15.6643H4.44278V14.9949H5.13507C5.17908 14.9948 5.22269 15.0034 5.26338 15.0201C5.30407 15.0369 5.34105 15.0615 5.37221 15.0926C5.40336 15.1237 5.42808 15.1607 5.44495 15.2013C5.46181 15.242 5.47049 15.2855 5.47049 15.3296Z" fill="white"/>
<path d="M8.22811 13.1315H8.98257L7.97076 14.7898V16.2503H7.271V14.7898L8.22811 13.1315Z" fill="white"/>
<path d="M9.48438 13.1323V16.2499H10.5752C10.9938 16.2499 11.3951 16.0837 11.6911 15.7877C11.987 15.4918 12.1533 15.0904 12.1533 14.6718V14.6263C12.1533 14.43 12.1146 14.2356 12.0395 14.0543C11.9643 13.873 11.8542 13.7082 11.7153 13.5695C11.5764 13.4307 11.4116 13.3207 11.2302 13.2457C11.0488 13.1707 10.8544 13.1322 10.6581 13.1323H10.5032V13.7155H10.5068C10.7578 13.7155 10.9984 13.8152 11.1759 13.9926C11.3534 14.1701 11.4531 14.4108 11.4531 14.6617C11.453 14.9244 11.3486 15.1763 11.1628 15.362C10.9771 15.5478 10.7251 15.6521 10.4624 15.6521H10.1533V13.1323H9.48438Z" fill="white"/>
<path d="M7.06915 14.4395L7.82433 13.1315H6.31396L7.06915 14.4395Z" fill="#FFD30F"/>
</svg>
