<svg width="15" height="15" viewBox="0 0 15 15" fill="none" xmlns="http://www.w3.org/2000/svg">
<path fill-rule="evenodd" clip-rule="evenodd" d="M2.05465 1.95211H9.45189V5.03428H10.6848V1.95211C10.6848 1.27121 10.1328 0.719238 9.45189 0.719238H2.05465C1.37375 0.719238 0.821777 1.27122 0.821777 1.95211V9.34935C0.821777 10.0302 1.37376 10.5822 2.05465 10.5822H5.13706V9.34935H2.05465V1.95211V1.95211Z" fill="#9E9E9D"/>
<path d="M5.13694 5.65072C5.13694 5.31027 5.41293 5.03428 5.75338 5.03428H13.1506C13.4911 5.03428 13.7671 5.31027 13.7671 5.65072V13.048C13.7671 13.3884 13.4911 13.6644 13.1506 13.6644H5.75338C5.41293 13.6644 5.13694 13.3884 5.13694 13.048V5.65072Z" stroke="#9E9E9D" stroke-width="1.23287"/>
</svg>
