<svg width="25" height="25" viewBox="0 0 25 25" fill="none" xmlns="http://www.w3.org/2000/svg">
<circle cx="12.3291" cy="12.5" r="10.7876" fill="#EBB30E"/>
<path fill-rule="evenodd" clip-rule="evenodd" d="M5.43936 8.21101L9.40321 11.6794L5.39355 15.689V8.64725C5.39355 8.49762 5.40935 8.35168 5.43936 8.21101ZM5.53123 17.1205L10.2421 12.4097C11.4591 13.3894 13.1977 13.3894 14.4147 12.4096L19.1257 17.1206C18.8258 17.9012 18.0691 18.4552 17.1829 18.4552H7.47403C6.58786 18.4552 5.83109 17.9011 5.53123 17.1205ZM19.2634 15.6891V8.64725C19.2634 8.49755 19.2476 8.35155 19.2175 8.21082L15.2536 11.6793L19.2634 15.6891ZM5.97462 7.20497C6.35312 6.81157 6.88499 6.56677 7.47403 6.56677H17.1829C17.7719 6.56677 18.3037 6.81152 18.6822 7.20485L13.7897 11.4858C12.953 12.2179 11.7037 12.2179 10.867 11.4858L5.97462 7.20497Z" fill="white"/>
</svg>
