<svg width="16" height="16" viewBox="0 0 16 16" fill="none" xmlns="http://www.w3.org/2000/svg">
<path fill-rule="evenodd" clip-rule="evenodd" d="M13.5334 5.73663C13.6843 5.73663 13.8326 5.72593 13.9778 5.70526V11.9833C13.9778 13.9549 12.3795 15.5531 10.408 15.5531H3.71434C1.74279 15.5531 0.144531 13.9549 0.144531 11.9833V5.29027C0.144531 3.31871 1.74279 1.72046 3.71434 1.72046H10.408C10.4517 1.72046 10.4952 1.72124 10.5385 1.7228C10.4547 2.00495 10.4098 2.30379 10.4098 2.61312C10.4098 4.33819 11.8083 5.73663 13.5334 5.73663ZM10.7577 6.9008C10.908 6.70547 10.8715 6.42531 10.6761 6.27504C10.4808 6.12478 10.2006 6.16132 10.0504 6.35665L8.09957 8.89259L6.00116 7.17579C5.90839 7.09988 5.78897 7.0645 5.66982 7.07761C5.55066 7.09071 5.44179 7.15121 5.36773 7.24546L2.91345 10.369C2.76118 10.5627 2.79484 10.8433 2.98862 10.9955C3.1824 11.1478 3.46292 11.1141 3.61519 10.9204L5.78829 8.15471L7.89033 9.87449C7.98372 9.9509 8.10408 9.98623 8.22395 9.97242C8.34383 9.95861 8.453 9.89684 8.52657 9.8012L10.7577 6.9008Z" fill="#FFD30F"/>
<ellipse cx="13.7473" cy="2.39017" rx="2.00805" ry="2.00797" fill="#FFD30F" fill-opacity="0.5"/>
</svg>
