<svg width="13" height="11" viewBox="0 0 13 11" fill="none" xmlns="http://www.w3.org/2000/svg">
<path d="M7.70584 8.18401C7.86363 8.18401 7.99155 8.31192 7.99155 8.46972L7.99155 10.2941C7.99155 10.3959 8.11466 10.4469 8.18665 10.3749L11.9719 6.58963C12.0439 6.51763 11.9929 6.39453 11.8911 6.39453L1.41762 6.39453C1.25982 6.39453 1.1319 6.52245 1.1319 6.68025L1.1319 7.89829C1.1319 8.05609 1.25982 8.184 1.41762 8.184L7.70584 8.18401Z" fill="#EBB30E"/>
<path d="M5.29514 2.81575C5.13734 2.81575 5.00942 2.68783 5.00942 2.53004L5.00942 0.705696C5.00942 0.603878 4.88632 0.552888 4.81433 0.624884L1.02908 4.41013C0.957086 4.48212 1.00808 4.60522 1.10989 4.60522L11.5834 4.60523C11.7412 4.60523 11.8691 4.47731 11.8691 4.31951L11.8691 3.10147C11.8691 2.94367 11.7412 2.81575 11.5834 2.81575L5.29514 2.81575Z" fill="#EBB30E"/>
</svg>
