<svg width="20" height="21" viewBox="0 0 20 21" fill="none" xmlns="http://www.w3.org/2000/svg">
<path fill-rule="evenodd" clip-rule="evenodd" d="M4 4H13C13.2761 4 13.5 4.22386 13.5 4.5V7.59069C14.0306 7.68814 14.5345 7.86173 15 8.09971V4.5C15 3.39543 14.1046 2.5 13 2.5H4C2.89543 2.5 2 3.39543 2 4.5V16.5C2 17.6046 2.89543 18.5 4 18.5H12.5C11.0385 18.5 9.71007 17.9299 8.72506 17H4C3.72386 17 3.5 16.7761 3.5 16.5V4.5C3.5 4.22386 3.72386 4 4 4Z" fill="#9E9E9D"/>
<circle cx="12.5" cy="13" r="4.75" stroke="#9E9E9D" stroke-width="1.5"/>
<path d="M11.5 11V14H14.5" stroke="#9E9E9D" stroke-width="1.5"/>
<path d="M6 6.5H9" stroke="#9E9E9D" stroke-width="1.5"/>
</svg>
