<svg width="15" height="15" viewBox="0 0 15 15" fill="none" xmlns="http://www.w3.org/2000/svg">
<path fill-rule="evenodd" clip-rule="evenodd" d="M4.38622 0.549805C2.41467 0.549805 0.816406 2.14806 0.816406 4.11961V10.8127C0.816406 12.7842 2.41467 14.3825 4.38622 14.3825H11.0798C13.0514 14.3825 14.6497 12.7842 14.6497 10.8127V4.11962C14.6497 2.14806 13.0514 0.549805 11.0798 0.549805H4.38622ZM4.49822 5.4586C4.19016 5.4586 3.94043 5.70833 3.94043 6.01639V11.1478C3.94043 11.4559 4.19016 11.7056 4.49822 11.7056C4.80628 11.7056 5.05601 11.4559 5.05601 11.1478V6.01639C5.05601 5.70833 4.80628 5.4586 4.49822 5.4586ZM11.0816 8.69329C11.0816 8.38523 11.3314 8.1355 11.6394 8.1355C11.9475 8.1355 12.1972 8.38523 12.1972 8.69329V11.1474C12.1972 11.4555 11.9475 11.7052 11.6394 11.7052C11.3314 11.7052 11.0816 11.4555 11.0816 11.1474V8.69329ZM8.0667 2.78117C7.75864 2.78117 7.50891 3.03091 7.50891 3.33897V11.1477C7.50891 11.4557 7.75864 11.7055 8.0667 11.7055C8.37476 11.7055 8.6245 11.4557 8.6245 11.1477V3.33896C8.6245 3.0309 8.37476 2.78117 8.0667 2.78117Z" fill="#FFD30F"/>
</svg>
