<svg width="16" height="16" viewBox="0 0 16 16" fill="none" xmlns="http://www.w3.org/2000/svg">
<g id="vuesax/bold/profile-2user">
<g id="profile-2user">
<path id="Vector" d="M5.99967 1.33334C4.25301 1.33334 2.83301 2.75334 2.83301 4.5C2.83301 6.21334 4.17301 7.6 5.91967 7.66C5.97301 7.65334 6.02634 7.65334 6.06634 7.66C6.07967 7.66 6.08634 7.66 6.09967 7.66C6.10634 7.66 6.10634 7.66 6.11301 7.66C7.81967 7.6 9.15967 6.21334 9.16634 4.5C9.16634 2.75334 7.74634 1.33334 5.99967 1.33334Z" fill="#666666"/>
<path id="Vector_2" d="M9.38664 9.43333C7.52664 8.19333 4.49331 8.19333 2.61997 9.43333C1.77331 10 1.30664 10.7667 1.30664 11.5867C1.30664 12.4067 1.77331 13.1667 2.61331 13.7267C3.54664 14.3533 4.77331 14.6667 5.99997 14.6667C7.22664 14.6667 8.45331 14.3533 9.38664 13.7267C10.2266 13.16 10.6933 12.4 10.6933 11.5733C10.6866 10.7533 10.2266 9.99333 9.38664 9.43333Z" fill="#666666"/>
<path id="Vector_3" d="M13.3272 4.89333C13.4339 6.18667 12.5139 7.32 11.2406 7.47333C11.2339 7.47333 11.2339 7.47333 11.2272 7.47333H11.2072C11.1672 7.47333 11.1272 7.47333 11.0939 7.48667C10.4472 7.52 9.85389 7.31333 9.40723 6.93333C10.0939 6.32 10.4872 5.4 10.4072 4.4C10.3606 3.86 10.1739 3.36667 9.89389 2.94667C10.1472 2.82 10.4406 2.74 10.7406 2.71333C12.0472 2.6 13.2139 3.57333 13.3272 4.89333Z" fill="#666666"/>
<path id="Vector_4" d="M14.6605 11.06C14.6071 11.7067 14.1938 12.2667 13.5005 12.6467C12.8338 13.0133 11.9938 13.1867 11.1605 13.1667C11.6405 12.7333 11.9205 12.1933 11.9738 11.62C12.0405 10.7933 11.6471 10 10.8605 9.36667C10.4138 9.01333 9.89382 8.73333 9.32715 8.52667C10.8005 8.1 12.6538 8.38667 13.7938 9.30667C14.4071 9.8 14.7205 10.42 14.6605 11.06Z" fill="#666666"/>
</g>
</g>
</svg>
