<svg width="20" height="20" viewBox="0 0 20 20" fill="none" xmlns="http://www.w3.org/2000/svg">
<path d="M4.16663 6.24996L5.88685 3.49759C6.09785 3.16 6.51816 3.0188 6.89018 3.16052L15 6.24996M15 6.24996H3.74996C3.28972 6.24996 2.91663 6.62305 2.91663 7.08329V8.74996C2.91663 9.2102 3.30751 9.57181 3.72064 9.77463C4.16947 9.99499 4.58329 10.4363 4.58329 11.25C4.58329 12.0637 4.16947 12.5049 3.72064 12.7253C3.30751 12.9281 2.91663 13.2897 2.91663 13.75V16.25C2.91663 16.7102 3.28972 17.0833 3.74996 17.0833H16.25C16.7102 17.0833 17.0833 16.7102 17.0833 16.25V13.5673C17.0833 13.1849 16.8174 12.8588 16.4773 12.6839C15.9604 12.418 15.4166 11.9495 15.4166 11.25C15.4166 10.5504 15.9604 10.0819 16.4773 9.81605C16.8174 9.64114 17.0833 9.31504 17.0833 8.93265V7.08329C17.0833 6.62306 16.7102 6.24996 16.25 6.24996H15Z" stroke="#C5C5C4" stroke-width="1.225"/>
<path d="M7.08325 10.4166H12.9166" stroke="#C5C5C4" stroke-width="1.225"/>
<path d="M7.08325 12.9166H12.9166" stroke="#C5C5C4" stroke-width="1.225"/>
</svg>
