<svg width="20" height="20" viewBox="0 0 20 20" fill="none" xmlns="http://www.w3.org/2000/svg">
<path fill-rule="evenodd" clip-rule="evenodd" d="M12.544 7.12V2.4C12.544 2.176 12.368 2 12.144 2H8.25603C8.03203 2 7.85603 2.176 7.85603 2.4V7.12C7.85603 7.464 8.27203 7.648 8.52803 7.408L9.92803 6.128C10.08 5.984 10.32 5.984 10.472 6.128L11.872 7.416C12.128 7.648 12.544 7.472 12.544 7.12ZM13.744 2.448C13.744 2.216 13.952 2.016 14.184 2.048C16.424 2.328 17.4 3.84 17.4 6V14C17.4 16.4 16.2 18 13.4 18H7C4.2 18 3 16.4 3 14V6C3 3.84 3.976 2.328 6.216 2.048C6.448 2.016 6.656 2.216 6.656 2.448V7.264C6.656 7.872 7.016 8.424 7.576 8.672C7.776 8.76 7.984 8.8 8.192 8.8C8.568 8.8 8.944 8.664 9.232 8.392L9.928 7.752C10.088 7.608 10.32 7.608 10.472 7.752L11.168 8.392C11.616 8.808 12.264 8.912 12.824 8.672C13.384 8.424 13.744 7.872 13.744 7.264V2.448ZM7.2 14.8C7.2 15.128 7.472 15.4 7.8 15.4H14.6C14.928 15.4 15.2 15.128 15.2 14.8C15.2 14.472 14.928 14.2 14.6 14.2H7.8C7.472 14.2 7.2 14.472 7.2 14.8ZM11.2 12.2H14.6C14.928 12.2 15.2 11.928 15.2 11.6C15.2 11.272 14.928 11 14.6 11H11.2C10.872 11 10.6 11.272 10.6 11.6C10.6 11.928 10.872 12.2 11.2 12.2Z" fill="#07828B"/>
</svg>
