<svg width="16" height="16" viewBox="0 0 16 16" fill="none" xmlns="http://www.w3.org/2000/svg">
<g id="WEB/&#233;&#128;&#154;&#231;&#148;&#168;/&#232;&#181;&#132;&#228;&#186;&#167;&#230;&#128;&#187;&#232;&#167;&#136;/&#232;&#181;&#132;&#233;&#135;&#145;&#232;&#174;&#176;&#229;&#189;&#149;-&#230;&#156;&#170;&#230;&#191;&#128;&#230;&#180;&#187;icon">
<path id="Union" d="M11.3472 1.63809C13.1392 1.86209 13.9204 3.0722 13.9204 4.8002V11.1996C13.9204 13.1195 12.9601 14.3997 10.7202 14.3998H5.6001C3.3601 14.3998 2.3999 13.1196 2.3999 11.1996V4.8002C2.3999 3.0722 3.18114 1.86209 4.97314 1.63809C5.15859 1.61276 5.3247 1.77293 5.32471 1.9584V5.81094C5.32471 6.29734 5.61304 6.73949 6.06104 6.93789C6.22082 7.00815 6.38705 7.04038 6.55322 7.04043C6.85401 7.04043 7.15486 6.93087 7.38525 6.71328L7.94287 6.20156C8.07083 6.08665 8.25593 6.08655 8.37744 6.20156L8.93408 6.71328C9.29247 7.04607 9.81129 7.12987 10.2593 6.93789C10.7073 6.73949 10.9956 6.29734 10.9956 5.81094V1.9584C10.9956 1.77283 11.1616 1.61254 11.3472 1.63809ZM6.23975 11.3598C5.97746 11.3599 5.76025 11.5779 5.76025 11.8402C5.76038 12.1024 5.97754 12.3196 6.23975 12.3197H11.6802C11.9424 12.3196 12.1595 12.1025 12.1597 11.8402C12.1597 11.5779 11.9425 11.3599 11.6802 11.3598H6.23975ZM8.96045 8.8002C8.69815 8.8002 8.48015 9.01743 8.47998 9.27969C8.47998 9.54209 8.69805 9.76016 8.96045 9.76016H11.6802C11.9425 9.76006 12.1597 9.54203 12.1597 9.27969C12.1595 9.01749 11.9424 8.80029 11.6802 8.8002H8.96045ZM9.71533 1.6C9.89445 1.60009 10.0356 1.74117 10.0356 1.92031V5.6957C10.0356 5.97726 9.70237 6.11847 9.49756 5.93301L8.37744 4.90273C8.25584 4.78753 8.06349 4.78753 7.94189 4.90273L6.82275 5.92617C6.61795 6.11817 6.28467 5.9709 6.28467 5.6957V1.92031C6.28467 1.74111 6.42578 1.6 6.60498 1.6H9.71533Z" fill="#666666"/>
</g>
</svg>
