<svg width="20" height="20" viewBox="0 0 20 20" fill="none" xmlns="http://www.w3.org/2000/svg">
<path d="M9.5247 2C7.51384 2 5.88372 3.63012 5.88372 5.64099C5.88372 7.65185 7.51384 9.28197 9.5247 9.28197C11.5356 9.28197 13.1657 7.65185 13.1657 5.64099C13.1657 3.63012 11.5356 2 9.5247 2Z" fill="#07828B"/>
<path d="M5.64099 11.2238C3.63012 11.2238 2 12.854 2 14.8648V16.0186C2 16.7499 2.53001 17.3735 3.25179 17.4913C7.40623 18.1696 11.6432 18.1696 15.7976 17.4913C16.5194 17.3735 17.0494 16.7499 17.0494 16.0186V14.8648C17.0494 12.854 15.4193 11.2238 13.4084 11.2238H13.0775C12.8983 11.2238 12.7203 11.2522 12.55 11.3078L11.7097 11.5822C10.2899 12.0458 8.75949 12.0458 7.33971 11.5822L6.49936 11.3078C6.32908 11.2522 6.15107 11.2238 5.97195 11.2238H5.64099Z" fill="#07828B"/>
</svg>
