<svg width="20" height="20" viewBox="0 0 20 20" fill="none" xmlns="http://www.w3.org/2000/svg">
<g id="vuesax/bold/clipboard-tick">
<g id="clipboard-tick">
<g id="Group 75">
<path id="Vector" d="M11.8804 2H8.1204C7.2884 2 6.6084 2.672 6.6084 3.504V4.256C6.6084 5.088 7.2804 5.76 8.1124 5.76H11.8804C12.7124 5.76 13.3844 5.088 13.3844 4.256V3.504C13.3924 2.672 12.7124 2 11.8804 2Z" fill="#9FA1A6"/>
<path id="Vector_2" d="M14.16 4.58997C14.16 5.86197 13.12 6.90197 11.848 6.90197H8.088C6.816 6.90197 5.776 5.86197 5.776 4.58997C5.776 4.14197 5.296 3.86197 4.896 4.06997C3.768 4.66997 3 5.86197 3 7.22997V14.758C3 16.726 4.608 18.334 6.576 18.334H13.36C15.328 18.334 16.936 16.726 16.936 14.758V7.22997C16.936 5.86197 16.168 4.66997 15.04 4.06997C14.64 3.86197 14.16 4.14197 14.16 4.58997ZM12.64 10.918L9.44 14.118C9.32 14.238 9.168 14.294 9.016 14.294C8.864 14.294 8.712 14.238 8.592 14.118L7.392 12.918C7.16 12.686 7.16 12.302 7.392 12.07C7.624 11.838 8.008 11.838 8.24 12.07L9.016 12.846L11.792 10.07C12.024 9.83797 12.408 9.83797 12.64 10.07C12.872 10.302 12.872 10.686 12.64 10.918Z" fill="#9FA1A6"/>
</g>
</g>
</g>
</svg>
