<svg width="16" height="16" viewBox="0 0 16 16" fill="none" xmlns="http://www.w3.org/2000/svg">
<g id="vuesax/bold/clipboard-tick">
<g id="clipboard-tick">
<g id="Group 75">
<path id="Vector" d="M9.50373 1.6H6.49573C5.83013 1.6 5.28613 2.1376 5.28613 2.8032V3.4048C5.28613 4.0704 5.82373 4.608 6.48933 4.608H9.50373C10.1693 4.608 10.7069 4.0704 10.7069 3.4048V2.8032C10.7133 2.1376 10.1693 1.6 9.50373 1.6Z" fill="#666666"/>
<path id="Vector_2" d="M11.3279 3.67197C11.3279 4.68957 10.4959 5.52157 9.4783 5.52157H6.4703C5.4527 5.52157 4.6207 4.68957 4.6207 3.67197C4.6207 3.31357 4.2367 3.08957 3.9167 3.25597C3.0143 3.73597 2.3999 4.68957 2.3999 5.78397V11.8064C2.3999 13.3808 3.6863 14.6672 5.2607 14.6672H10.6879C12.2623 14.6672 13.5487 13.3808 13.5487 11.8064V5.78397C13.5487 4.68957 12.9343 3.73597 12.0319 3.25597C11.7119 3.08957 11.3279 3.31357 11.3279 3.67197ZM10.1119 8.73437L7.5519 11.2944C7.4559 11.3904 7.3343 11.4352 7.2127 11.4352C7.0911 11.4352 6.9695 11.3904 6.8735 11.2944L5.9135 10.3344C5.7279 10.1488 5.7279 9.84157 5.9135 9.65597C6.0991 9.47037 6.4063 9.47037 6.5919 9.65597L7.2127 10.2768L9.4335 8.05597C9.6191 7.87037 9.9263 7.87037 10.1119 8.05597C10.2975 8.24157 10.2975 8.54877 10.1119 8.73437Z" fill="#666666"/>
</g>
</g>
</g>
</svg>
