<svg width="20" height="20" viewBox="0 0 20 20" fill="none" xmlns="http://www.w3.org/2000/svg">
<path d="M17.9941 8.0262C17.6033 4.88581 15.1142 2.3967 11.9738 2.0059C11.4984 1.94674 11.1081 2.34079 11.1081 2.81986V8.4582C11.1081 8.69773 11.3023 8.89192 11.5418 8.89192H17.1801C17.6592 8.89192 18.0533 8.50161 17.9941 8.0262Z" fill="#9FA1A6"/>
<path d="M9.37321 3.25358C5.3011 3.25358 2 6.55468 2 10.6268C2 14.6989 5.3011 18 9.37321 18C13.4453 18 16.7464 14.6989 16.7464 10.6268C16.7464 10.3873 16.5522 10.1931 16.3127 10.1931H10.2406C10.0011 10.1931 9.80693 9.99889 9.80693 9.75936V3.6873C9.80693 3.44777 9.61275 3.25358 9.37321 3.25358Z" fill="#9FA1A6"/>
</svg>
