<svg width="20" height="20" viewBox="0 0 20 20" fill="none" xmlns="http://www.w3.org/2000/svg">
<g id="WEB/&#233;&#128;&#154;&#231;&#148;&#168;/&#232;&#181;&#132;&#228;&#186;&#167;&#230;&#128;&#187;&#232;&#167;&#136;/&#232;&#181;&#132;&#228;&#186;&#167;&#230;&#128;&#187;&#232;&#167;&#136;-&#229;&#183;&#178;&#230;&#191;&#128;&#230;&#180;&#187;icon">
<path id="Union" fill-rule="evenodd" clip-rule="evenodd" d="M13.2095 4.93407C13.5272 4.93407 13.7194 4.58299 13.4937 4.35729C13.4895 4.35311 13.4833 4.34893 13.477 4.34475C13.4707 4.34057 13.4645 4.33639 13.4603 4.33221L11.9974 2.85264C10.8522 1.71579 8.99649 1.71579 7.85128 2.85264L6.49709 4.21518C6.2296 4.47432 6.42186 4.92571 6.78966 4.92571L13.2095 4.93407ZM14.9902 10.9365C14.5722 11.3461 14.3716 11.9563 14.5388 12.5916C14.7561 13.369 15.5168 13.8622 16.3193 13.8622H17.0465C17.5063 13.8622 17.8824 14.2384 17.8824 14.6981V14.8569C17.8824 16.5873 16.4697 18 14.7394 18H5.14305C3.4127 18 2 16.5873 2 14.8569V9.23121C2 8.20303 2.49319 7.29188 3.25388 6.72346C3.78051 6.32222 4.43252 6.08816 5.14305 6.08816H14.7394C16.4697 6.08816 17.8824 7.50086 17.8824 9.23121V9.59902C17.8824 10.0588 17.5063 10.4349 17.0465 10.4349H16.1939C15.7258 10.4349 15.2995 10.6188 14.9902 10.9365ZM17.883 11.7306V12.5665C17.883 12.7922 17.7075 12.9761 17.4734 12.9845H16.253C15.8099 12.9845 15.4087 12.6585 15.3753 12.2238C15.3502 11.9647 15.4505 11.7223 15.6177 11.5551C15.7681 11.3962 15.9771 11.3127 16.2028 11.3127H17.4651C17.7075 11.321 17.883 11.5049 17.883 11.7306Z" fill="#07828B"/>
</g>
</svg>
