<svg width="16" height="16" viewBox="0 0 16 16" fill="none" xmlns="http://www.w3.org/2000/svg">
<g id="WEB/&#233;&#128;&#154;&#231;&#148;&#168;/&#232;&#181;&#132;&#228;&#186;&#167;&#230;&#128;&#187;&#232;&#167;&#136;/&#232;&#181;&#132;&#228;&#186;&#167;&#230;&#128;&#187;&#232;&#167;&#136;-&#229;&#183;&#178;&#230;&#191;&#128;&#230;&#180;&#187;icon">
<path id="Union" d="M11.7915 4.8705C13.1758 4.8705 14.3062 6.00087 14.3062 7.38515V7.6791C14.3062 8.0469 14.005 8.34804 13.6372 8.34804H12.9556C12.5811 8.34804 12.2391 8.49529 11.9917 8.74941C11.6576 9.07709 11.4976 9.56556 11.6313 10.0736C11.8053 10.6952 12.4134 11.0901 13.0552 11.0902H13.6372C14.0049 11.0902 14.306 11.3905 14.3062 11.7582V11.8851C14.3062 13.2694 13.1758 14.3998 11.7915 14.3998H4.11475C2.73047 14.3998 1.6001 13.2694 1.6001 11.8851V7.38515C1.6001 6.56261 1.99448 5.83305 2.60303 5.37831C3.0243 5.0574 3.5464 4.8705 4.11475 4.8705H11.7915ZM13.9722 9.05019C14.1659 9.05697 14.306 9.20382 14.3062 9.38417V10.0531C14.3062 10.2336 14.1661 10.3802 13.979 10.3871H13.0024C12.648 10.3871 12.327 10.1264 12.3003 9.7787C12.2804 9.57174 12.3602 9.37819 12.4937 9.24452C12.614 9.11747 12.7818 9.05019 12.9624 9.05019H13.9722ZM6.28076 2.28163C7.19687 1.37227 8.68198 1.37235 9.59814 2.28163L10.7681 3.4662C10.7748 3.47286 10.7888 3.47908 10.7954 3.48574C10.9757 3.66626 10.8218 3.94752 10.5679 3.94765L5.43213 3.94081C5.13796 3.94081 4.984 3.57979 5.19775 3.37245L6.28076 2.28163Z" fill="#666666"/>
</g>
</svg>
