<svg width="20" height="20" viewBox="0 0 20 20" fill="none" xmlns="http://www.w3.org/2000/svg">
<path d="M14.9294 3.76474L10.5524 2.12534C10.0987 1.95822 9.35862 1.95822 8.905 2.12534L4.52798 3.76474C3.68441 4.08306 3 5.06988 3 5.96916V12.4153C3 13.0599 3.42179 13.9115 3.93907 14.2935L8.31609 17.5643C9.08804 18.1452 10.3534 18.1452 11.1253 17.5643L15.5024 14.2935C16.0196 13.9035 16.4414 13.0599 16.4414 12.4153V5.96916C16.4494 5.06988 15.765 4.08306 14.9294 3.76474ZM10.3216 10.6884V12.7814C10.3216 13.1077 10.051 13.3783 9.7247 13.3783C9.39841 13.3783 9.12783 13.1077 9.12783 12.7814V10.6884C8.32405 10.4337 7.73514 9.68565 7.73514 8.80229C7.73514 7.70405 8.62646 6.81273 9.7247 6.81273C10.8229 6.81273 11.7143 7.70405 11.7143 8.80229C11.7143 9.69361 11.1253 10.4337 10.3216 10.6884Z" fill="#9FA1A6"/>
</svg>
