<svg width="18" height="18" viewBox="0 0 18 18" fill="none" xmlns="http://www.w3.org/2000/svg">
<path d="M16.9651 7.40317L16.9654 7.40466C16.973 7.44442 17.1375 8.3226 17.1375 9.00363C17.1375 9.33535 17.0978 9.72243 17.0543 10.0424C17.0329 10.2 17.0113 10.3366 16.9946 10.4357C16.9863 10.4852 16.9793 10.5252 16.9742 10.5535L16.9681 10.5868L16.9663 10.5963L16.9658 10.599L16.9656 10.5998L16.9656 10.6001L16.9651 10.6025C16.9304 10.7863 16.8637 10.8976 16.8107 10.9535C16.7631 11.0036 16.7294 11.0094 16.7066 11.0094H16.6194C15.1145 11.0094 13.8915 12.2324 13.8915 13.7372C13.8915 14.0092 13.954 14.2715 14.0063 14.4485C14.0338 14.5413 14.0614 14.6204 14.083 14.6782C14.0938 14.7073 14.1033 14.7314 14.1105 14.7495C14.1177 14.7673 14.1235 14.781 14.1231 14.7801L14.1261 14.7873L14.1292 14.7944C14.2227 15.0047 14.15 15.2786 13.9591 15.4178L13.9557 15.4199L11.7786 16.6197C11.7206 16.6415 11.6564 16.6538 11.5851 16.6538C11.3991 16.6538 11.2268 16.573 11.1281 16.4652C10.9785 16.3005 10.676 16.0153 10.317 15.7662C9.98134 15.5333 9.47804 15.2472 8.95515 15.2472C8.46564 15.2472 7.98394 15.5054 7.65088 15.726C7.2944 15.962 6.9789 16.2432 6.79602 16.4408L6.79601 16.4408L6.79362 16.4434C6.64689 16.6038 6.32931 16.6724 6.1252 16.5842L6.12009 16.5819L4.02728 15.4076C3.84851 15.2685 3.77847 15.0021 3.87188 14.7909L3.87195 14.7909L3.87576 14.7819L3.87614 14.781C3.8875 14.7545 4.10854 14.2391 4.10854 13.7372C4.10854 12.2324 2.88549 11.0093 1.38069 11.0093H1.30583C1.27144 11.0093 1.23478 10.9995 1.18855 10.9513C1.13602 10.8965 1.06972 10.7865 1.03495 10.6026L1.035 10.6026L1.0335 10.5951C1.03355 10.5954 1.03349 10.5951 1.03334 10.5943C1.03266 10.5907 1.03006 10.5771 1.02569 10.553C1.02059 10.5249 1.01355 10.485 1.00524 10.4356C0.988576 10.3366 0.966962 10.2 0.945587 10.0425C0.90218 9.72251 0.8625 9.33539 0.8625 9.00361C0.8625 8.6713 0.902188 8.28383 0.945595 7.96363C0.966971 7.80595 0.988587 7.6693 1.00525 7.57018C1.01357 7.52069 1.02061 7.48079 1.02572 7.4526C1.03108 7.42297 1.03386 7.4087 1.03368 7.40958L1.03371 7.40959L1.03494 7.40312C1.06968 7.21938 1.13623 7.10814 1.18907 7.05247C1.23646 7.00254 1.26982 6.99693 1.29225 6.99693H1.38069C2.88554 6.99693 4.10854 5.77384 4.10854 4.26875C4.10854 3.99677 4.04604 3.73441 3.99367 3.55743C3.96624 3.4647 3.93858 3.38562 3.91699 3.32773C3.90613 3.29863 3.89668 3.27454 3.88937 3.25638L3.88016 3.23383C3.8779 3.2284 3.87565 3.22305 3.87602 3.22392L3.87614 3.22387L3.87099 3.21226C3.77768 3.00194 3.85083 2.72795 4.0402 2.58975L4.04425 2.58717L6.26156 1.37233C6.46598 1.29818 6.77038 1.36695 6.91743 1.52154L6.91856 1.52273C7.06569 1.67657 7.3633 1.94557 7.7163 2.18081C8.04597 2.40049 8.53752 2.66908 9.04485 2.66908C9.54601 2.66908 10.0341 2.40585 10.3619 2.19061C10.7128 1.96012 11.0099 1.69618 11.1571 1.54431L11.1593 1.5421C11.3057 1.38954 11.6234 1.32198 11.8275 1.40389L11.8296 1.40489L13.9713 2.59738C14.1521 2.73887 14.2205 3.00605 14.128 3.21434L14.1242 3.22281L14.1207 3.23139C14.1214 3.22967 14.1155 3.24373 14.1086 3.26113C14.1015 3.27908 14.0922 3.30303 14.0815 3.33203C14.0602 3.3897 14.0328 3.46865 14.0056 3.5611C13.9539 3.73705 13.8915 3.99908 13.8915 4.26872C13.8915 5.77382 15.1145 6.9969 16.6193 6.9969H16.6942C16.7287 6.9969 16.7654 7.00684 16.8116 7.05495C16.8641 7.10962 16.9303 7.2194 16.9651 7.40317Z" stroke="#FFD30F" stroke-width="1.225"/>
<path d="M6.4615 8.99148C6.4615 7.61333 7.5839 6.49092 8.96204 6.49092C10.3402 6.49092 11.4626 7.61334 11.4626 8.99148C11.4626 10.3698 10.3403 11.4917 8.96204 11.4917C7.58381 11.4917 6.4615 10.3698 6.4615 8.99148Z" stroke="#FFD30F" stroke-width="1.225"/>
</svg>
