<svg width="20" height="20" viewBox="0 0 20 20" fill="none" xmlns="http://www.w3.org/2000/svg">
<path d="M17.9651 8.40317L17.9654 8.40466C17.973 8.44442 18.1375 9.3226 18.1375 10.0036C18.1375 10.3354 18.0978 10.7224 18.0543 11.0424C18.0329 11.2 18.0113 11.3366 17.9946 11.4357C17.9863 11.4852 17.9793 11.5252 17.9742 11.5535L17.9681 11.5868L17.9663 11.5963L17.9658 11.599L17.9656 11.5998L17.9656 11.6001L17.9651 11.6025C17.9304 11.7863 17.8637 11.8976 17.8107 11.9535C17.7631 12.0036 17.7294 12.0094 17.7066 12.0094H17.6194C16.1145 12.0094 14.8915 13.2324 14.8915 14.7372C14.8915 15.0092 14.954 15.2715 15.0063 15.4485C15.0338 15.5413 15.0614 15.6204 15.083 15.6782C15.0938 15.7073 15.1033 15.7314 15.1105 15.7495C15.1177 15.7673 15.1235 15.781 15.1231 15.7801L15.1261 15.7873L15.1292 15.7944C15.2227 16.0047 15.15 16.2786 14.9591 16.4178L14.9557 16.4199L12.7786 17.6197C12.7206 17.6415 12.6564 17.6538 12.5851 17.6538C12.3991 17.6538 12.2268 17.573 12.1281 17.4652C11.9785 17.3005 11.676 17.0153 11.317 16.7662C10.9813 16.5333 10.478 16.2472 9.95515 16.2472C9.46564 16.2472 8.98394 16.5054 8.65088 16.726C8.2944 16.962 7.9789 17.2432 7.79602 17.4408L7.79601 17.4408L7.79362 17.4434C7.64689 17.6038 7.32931 17.6724 7.1252 17.5842L7.12009 17.5819L5.02728 16.4076C4.84851 16.2685 4.77847 16.0021 4.87188 15.7909L4.87195 15.7909L4.87576 15.7819L4.87614 15.781C4.8875 15.7545 5.10854 15.2391 5.10854 14.7372C5.10854 13.2324 3.88549 12.0093 2.38069 12.0093H2.30583C2.27144 12.0093 2.23478 11.9995 2.18855 11.9513C2.13602 11.8965 2.06972 11.7865 2.03495 11.6026L2.035 11.6026L2.0335 11.5951C2.03355 11.5954 2.03349 11.5951 2.03334 11.5943C2.03266 11.5907 2.03006 11.5771 2.02569 11.553C2.02059 11.5249 2.01355 11.485 2.00524 11.4356C1.98858 11.3366 1.96696 11.2 1.94559 11.0425C1.90218 10.7225 1.8625 10.3354 1.8625 10.0036C1.8625 9.6713 1.90219 9.28383 1.9456 8.96363C1.96697 8.80595 1.98859 8.6693 2.00525 8.57018C2.01357 8.52069 2.02061 8.48079 2.02572 8.4526C2.03108 8.42297 2.03386 8.4087 2.03368 8.40958L2.03371 8.40959L2.03494 8.40312C2.06968 8.21938 2.13623 8.10814 2.18907 8.05247C2.23646 8.00254 2.26982 7.99693 2.29225 7.99693H2.38069C3.88554 7.99693 5.10854 6.77384 5.10854 5.26875C5.10854 4.99677 5.04604 4.73441 4.99367 4.55743C4.96624 4.4647 4.93858 4.38562 4.91699 4.32773C4.90613 4.29863 4.89668 4.27454 4.88937 4.25638L4.88016 4.23383C4.8779 4.2284 4.87565 4.22305 4.87602 4.22392L4.87614 4.22387L4.87099 4.21226C4.77768 4.00194 4.85083 3.72795 5.0402 3.58975L5.04425 3.58717L7.26156 2.37233C7.46598 2.29818 7.77038 2.36695 7.91743 2.52154L7.91856 2.52273C8.06569 2.67657 8.3633 2.94557 8.7163 3.18081C9.04597 3.40049 9.53752 3.66908 10.0449 3.66908C10.546 3.66908 11.0341 3.40585 11.3619 3.19061C11.7128 2.96012 12.0099 2.69618 12.1571 2.54431L12.1593 2.5421C12.3057 2.38954 12.6234 2.32198 12.8275 2.40389L12.8296 2.40489L14.9713 3.59738C15.1521 3.73887 15.2205 4.00605 15.128 4.21434L15.1242 4.22281L15.1207 4.23139C15.1214 4.22967 15.1155 4.24373 15.1086 4.26113C15.1015 4.27908 15.0922 4.30303 15.0815 4.33203C15.0602 4.3897 15.0328 4.46865 15.0056 4.5611C14.9539 4.73705 14.8915 4.99908 14.8915 5.26872C14.8915 6.77382 16.1145 7.9969 17.6193 7.9969H17.6942C17.7287 7.9969 17.7654 8.00684 17.8116 8.05495C17.8641 8.10962 17.9303 8.2194 17.9651 8.40317Z" stroke="#C5C5C4" stroke-width="1.225"/>
<path d="M7.4615 9.99148C7.4615 8.61333 8.5839 7.49092 9.96204 7.49092C11.3402 7.49092 12.4626 8.61334 12.4626 9.99148C12.4626 11.3698 11.3403 12.4917 9.96204 12.4917C8.58381 12.4917 7.4615 11.3698 7.4615 9.99148Z" stroke="#C5C5C4" stroke-width="1.225"/>
</svg>
