<svg width="16" height="16" viewBox="0 0 16 16" fill="none" xmlns="http://www.w3.org/2000/svg">
<g id="WEB/&#233;&#128;&#154;&#231;&#148;&#168;/&#232;&#181;&#132;&#228;&#186;&#167;&#230;&#128;&#187;&#232;&#167;&#136;/&#231;&#142;&#176;&#232;&#180;&#167;&#232;&#180;&#166;&#230;&#136;&#183;-&#230;&#156;&#170;&#230;&#191;&#128;&#230;&#180;&#187;icon">
<path id="Union" d="M6.09326 6.09317C8.12182 6.2534 9.74675 7.879 9.90674 9.90762C9.91312 10.0162 9.9204 10.1311 9.92041 10.2397C9.92041 12.5372 8.05772 14.3997 5.76025 14.3998C3.46266 14.3998 1.6001 12.5372 1.6001 10.2397C1.60027 7.94221 3.46277 6.0795 5.76025 6.0795C5.86897 6.07951 5.98455 6.08678 6.09326 6.09317ZM13.3052 11.6479C13.7084 11.2447 14.3999 11.5333 14.3999 12.1029V13.7602C14.3999 14.112 14.112 14.3996 13.7603 14.3998H12.1021C11.5326 14.3997 11.2513 13.7092 11.6479 13.3061L13.3052 11.6479ZM10.2397 1.60001C12.5373 1.60001 14.3999 3.46257 14.3999 5.76016C14.3998 7.84631 12.8642 9.56757 10.8677 9.86856V9.83047C10.6693 7.34744 8.65306 5.33182 6.15088 5.13321H6.13135C6.43213 3.13651 8.15348 1.60015 10.2397 1.60001ZM3.89795 1.60001C4.46737 1.60022 4.74879 2.2916 4.35205 2.69473L2.69482 4.35196C2.29169 4.7551 1.60031 4.46728 1.6001 3.89786V2.23965C1.60029 1.88793 1.88802 1.6002 2.23975 1.60001H3.89795Z" fill="#666666"/>
</g>
</svg>
