<svg width="20" height="20" viewBox="0 0 20 20" fill="none" xmlns="http://www.w3.org/2000/svg">
<path fill-rule="evenodd" clip-rule="evenodd" d="M13.584 12.336C16.08 11.96 18 9.80797 18 7.19998C18 4.32799 15.672 2 12.8 2C10.192 2 8.04004 3.91999 7.66404 6.41598H7.68804C10.816 6.66398 13.336 9.18397 13.584 12.288V12.336ZM7.19998 17.9999C10.072 17.9999 12.4 15.672 12.4 12.8C12.4 12.664 12.392 12.52 12.384 12.384C12.184 9.84797 10.152 7.81598 7.61598 7.61598C7.47998 7.60798 7.33598 7.59998 7.19998 7.59998C4.32799 7.59998 2 9.92797 2 12.8C2 15.672 4.32799 17.9999 7.19998 17.9999ZM4.87199 2H2.8C2.36 2 2 2.36 2 2.8V4.87199C2 5.58399 2.864 5.94399 3.36799 5.43999L5.43999 3.36799C5.93598 2.864 5.58399 2 4.87199 2ZM17.1997 18.0002H15.1277C14.4157 18.0002 14.0637 17.1362 14.5597 16.6322L16.6317 14.5602C17.1357 14.0562 17.9997 14.4162 17.9997 15.1282V17.2002C17.9997 17.6402 17.6397 18.0002 17.1997 18.0002Z" fill="#9FA1A6"/>
</svg>
