<svg width="20" height="20" viewBox="0 0 20 20" fill="none" xmlns="http://www.w3.org/2000/svg">
<path fill-rule="evenodd" clip-rule="evenodd" d="M13.5839 12.3359C16.0799 11.9599 17.9999 9.8079 17.9999 7.19993C17.9999 4.32797 15.6719 2 12.7999 2C10.192 2 8.03999 3.91997 7.66399 6.41594H7.68799C10.816 6.66394 13.3359 9.18391 13.5839 12.2879V12.3359ZM7.19993 17.9998C10.0719 17.9998 12.3999 15.6718 12.3999 12.7999C12.3999 12.6639 12.3919 12.5199 12.3839 12.3839C12.1839 9.8479 10.1519 7.81593 7.61593 7.61593C7.47993 7.60793 7.33593 7.59993 7.19993 7.59993C4.32797 7.59993 2 9.9279 2 12.7999C2 15.6718 4.32797 17.9998 7.19993 17.9998ZM4.87196 2H2.79999C2.36 2 2 2.36 2 2.79999V4.87196C2 5.58395 2.86399 5.94395 3.36798 5.43996L5.43996 3.36798C5.93595 2.86399 5.58395 2 4.87196 2ZM17.1996 18H15.1276C14.4156 18 14.0636 17.136 14.5596 16.632L16.6316 14.5601C17.1356 14.0561 17.9996 14.4161 17.9996 15.128V17.2C17.9996 17.64 17.6396 18 17.1996 18Z" fill="#07828B"/>
</svg>
