<svg width="16" height="16" viewBox="0 0 16 16" fill="none" xmlns="http://www.w3.org/2000/svg">
<g id="WEB/&#233;&#128;&#154;&#231;&#148;&#168;/&#232;&#181;&#132;&#228;&#186;&#167;&#230;&#128;&#187;&#232;&#167;&#136;/U&#230;&#156;&#172;&#228;&#189;&#141;&#232;&#180;&#166;&#230;&#136;&#183;-&#230;&#156;&#170;&#230;&#191;&#128;&#230;&#180;&#187;icon">
<path id="Union" d="M11.5503 1.60001C10.8662 1.60001 10.3062 2.16007 10.3062 2.84415V2.85001C10.3062 2.15974 10.8659 1.60006 11.5562 1.60001C12.2402 1.60622 12.8561 1.87979 13.3101 2.32755C13.7578 2.78147 14.0375 3.40334 14.0376 4.08731V5.59219C14.0376 6.57478 13.4157 7.19669 12.4331 7.19669H10.3062V13.4154C10.3062 13.9254 9.72148 14.2182 9.31104 13.9135L8.24854 13.1176C8.00607 12.9311 7.65762 12.9558 7.43994 13.1732L6.39502 14.2182C6.15257 14.4606 5.75477 14.4605 5.51221 14.2182L4.479 13.1791C4.25511 12.9556 3.90728 12.9311 3.65869 13.1176L2.59521 13.9135C2.18477 14.2244 1.6001 13.9316 1.6001 13.4154V4.08731C1.60017 2.71311 2.22204 1.6001 4.0874 1.60001H11.5503ZM4.5542 7.97403C4.29923 7.97403 4.0874 8.18585 4.0874 8.44083C4.08743 8.69577 4.29924 8.90762 4.5542 8.90762H7.35303C7.60777 8.90736 7.81882 8.69562 7.81885 8.44083C7.81885 8.18601 7.60779 7.97429 7.35303 7.97403H4.5542ZM4.0874 5.48672C3.83254 5.48686 3.62158 5.69863 3.62158 5.95352C3.62175 6.20828 3.83264 6.41921 4.0874 6.41934H7.81885C8.07372 6.41934 8.28548 6.20836 8.28564 5.95352C8.28564 5.69855 8.07382 5.48672 7.81885 5.48672H4.0874ZM11.5562 2.53262C11.3821 2.53267 11.2388 2.67591 11.2388 2.85001V6.26407H12.4331C12.8995 6.26407 13.105 6.05239 13.105 5.59219V4.08731C13.1049 3.67712 12.9432 3.28548 12.645 2.98087C12.359 2.70102 11.9666 2.53262 11.5562 2.53262Z" fill="#666666"/>
</g>
</svg>
