<svg width="20" height="20" viewBox="0 0 20 20" fill="none" xmlns="http://www.w3.org/2000/svg">
<path fill-rule="evenodd" clip-rule="evenodd" d="M5.10944 2H5.8868H14.4377C13.5827 2 12.883 2.69962 12.883 3.55472V3.55756C12.8857 2.69696 13.5843 2 14.4455 2C15.3006 2.00777 16.0702 2.34981 16.6377 2.90951C17.1974 3.47698 17.5472 4.25434 17.5472 5.10944V6.99065C17.5472 8.21887 16.7698 8.99623 15.5416 8.99623H12.883V16.7698C12.883 17.4073 12.1523 17.7726 11.6393 17.3917L10.31 16.3967C10.0068 16.1635 9.57148 16.1946 9.2994 16.4667L7.99344 17.7726C7.69027 18.0758 7.19276 18.0758 6.88959 17.7726L5.59917 16.4744C5.31932 16.1946 4.884 16.1635 4.57306 16.3967L3.24377 17.3917C2.73072 17.7804 2 17.415 2 16.7698V5.8868V5.10944C2 3.39147 2.77736 2 5.10944 2ZM5.69246 11.134H9.19057C9.50929 11.134 9.77359 10.8697 9.77359 10.551C9.77359 10.2322 9.50929 9.96793 9.19057 9.96793H5.69246C5.37374 9.96793 5.10944 10.2322 5.10944 10.551C5.10944 10.8697 5.37374 11.134 5.69246 11.134ZM5.10944 8.02454H9.77359C10.0923 8.02454 10.3566 7.76023 10.3566 7.44152C10.3566 7.1228 10.0923 6.8585 9.77359 6.8585H5.10944C4.79072 6.8585 4.52642 7.1228 4.52642 7.44152C4.52642 7.76023 4.79072 8.02454 5.10944 8.02454ZM15.8059 3.72574C15.4483 3.37593 14.9586 3.16604 14.4455 3.16604C14.2279 3.16604 14.0491 3.34483 14.0491 3.56249V7.8302H15.5416C16.1246 7.8302 16.3811 7.56589 16.3811 6.99065V5.10944C16.3811 4.59638 16.179 4.10664 15.8059 3.72574Z" fill="#9FA1A6"/>
</svg>
