<svg width="20" height="20" viewBox="0 0 20 20" fill="none" xmlns="http://www.w3.org/2000/svg">
<path d="M6.97154 8.74371C6.97154 7.31966 8.12596 6.16523 9.55001 6.16523C10.9741 6.16523 12.1285 7.31966 12.1285 8.74371C12.1285 10.1678 10.9741 11.3222 9.55001 11.3222C8.12596 11.3222 6.97154 10.1678 6.97154 8.74371Z" fill="#9FA1A6"/>
<path fill-rule="evenodd" clip-rule="evenodd" d="M3.02333 7.85306C3.29596 4.54551 6.05993 2 9.37869 2H9.72138C13.0401 2 15.8041 4.54551 16.0767 7.85306C16.2235 9.63387 15.6735 11.4021 14.5424 12.7854L10.7397 17.436C10.1248 18.188 8.97526 18.188 8.36041 17.436L4.55771 12.7854C3.42662 11.4021 2.87654 9.63387 3.02333 7.85306ZM9.55001 4.97517C7.46871 4.97517 5.78147 6.6624 5.78147 8.74371C5.78147 10.825 7.46871 12.5123 9.55001 12.5123C11.6313 12.5123 13.3186 10.825 13.3186 8.74371C13.3186 6.6624 11.6313 4.97517 9.55001 4.97517Z" fill="#9FA1A6"/>
</svg>
