<svg width="14" height="14" viewBox="0 0 14 14" fill="none" xmlns="http://www.w3.org/2000/svg">
<path fill-rule="evenodd" clip-rule="evenodd" d="M14 7C14 9.50086 12.6658 11.8117 10.5 13.0622C8.33418 14.3126 5.6658 14.3126 3.49999 13.0622C1.33419 11.8117 -7.66666e-06 9.50086 -7.62939e-06 7C-7.54792e-06 3.13401 3.134 0 6.99999 0C10.866 0 14 3.13401 14 7ZM8.37432 7L10.7123 9.33722L9.33721 10.7123L6.99998 8.37433L4.66276 10.7116L3.28765 9.33644L5.62487 6.99922L3.28765 4.662L4.66276 3.28767L6.99998 5.62333L9.33721 3.28611L10.7123 4.66044L8.37432 7Z" fill="#EF454A"/>
</svg>
