<svg width="12" height="12" viewBox="0 0 12 12" fill="none" xmlns="http://www.w3.org/2000/svg">
<path d="M11.7301 5.24419L10.9143 4.29643C10.7583 4.11647 10.6323 3.78056 10.6323 3.54062V2.52087C10.6323 1.88503 10.1105 1.36316 9.47463 1.36316H8.45489C8.22095 1.36316 7.87903 1.23719 7.69908 1.08123L6.75131 0.265434C6.33742 -0.0884779 5.65958 -0.0884779 5.23969 0.265434L4.29793 1.08723C4.11797 1.23719 3.77606 1.36316 3.54211 1.36316H2.50437C1.86853 1.36316 1.34666 1.88503 1.34666 2.52087V3.54661C1.34666 3.78056 1.22069 4.11647 1.07073 4.29643L0.260935 5.25019C-0.0869782 5.66408 -0.0869782 6.33592 0.260935 6.74981L1.07073 7.70357C1.22069 7.88353 1.34666 8.21945 1.34666 8.45339V9.47913C1.34666 10.115 1.86853 10.6368 2.50437 10.6368H3.54211C3.77606 10.6368 4.11797 10.7628 4.29793 10.9188L5.24569 11.7346C5.65958 12.0885 6.33742 12.0885 6.75731 11.7346L7.70507 10.9188C7.88503 10.7628 8.22095 10.6368 8.46089 10.6368H9.48063C10.1165 10.6368 10.6383 10.115 10.6383 9.47913V8.45939C10.6383 8.22544 10.7643 7.88353 10.9203 7.70357L11.7361 6.75581C12.084 6.34191 12.084 5.65809 11.7301 5.24419ZM8.49088 4.86628L5.5936 7.76356C5.50962 7.84754 5.39565 7.89553 5.27568 7.89553C5.15571 7.89553 5.04174 7.84754 4.95776 7.76356L3.50612 6.31192C3.33217 6.13797 3.33217 5.85004 3.50612 5.67608C3.68008 5.50212 3.96801 5.50212 4.14196 5.67608L5.27568 6.8098L7.85504 4.23044C8.02899 4.05649 8.31692 4.05649 8.49088 4.23044C8.66483 4.4044 8.66483 4.69233 8.49088 4.86628Z" fill="#07828B"/>
</svg>
