<svg width="16" height="14" viewBox="0 0 16 14" fill="none" xmlns="http://www.w3.org/2000/svg">
<rect x="0.5" y="0.5" width="15" height="13" rx="1.29405" stroke="#9E9E9D"/>
<rect x="2.52734" y="3.31543" width="3.36842" height="0.736842" fill="#9E9E9D"/>
<rect width="3.1649" height="0.791226" transform="matrix(0.752577 0.658505 -0.752577 0.658505 3.31641 9.38184)" fill="#9E9E9D"/>
<rect x="10.5273" y="3.31543" width="3.36842" height="0.736842" fill="#9E9E9D"/>
<rect y="6.63184" width="16" height="1" fill="#9E9E9D"/>
<rect x="7.58057" y="13.6318" width="13.2632" height="1.14286" transform="rotate(-90 7.58057 13.6318)" fill="#9E9E9D"/>
<rect x="10.5273" y="10.3154" width="3.36842" height="0.736842" fill="#9E9E9D"/>
<rect x="3.78906" y="5.1582" width="2.94737" height="0.842106" transform="rotate(-90 3.78906 5.1582)" fill="#9E9E9D"/>
<rect width="3.1649" height="0.791226" transform="matrix(0.752577 -0.658505 0.752577 0.658505 2.72266 11.4658)" fill="#9E9E9D"/>
<ellipse cx="12.2101" cy="9.57936" rx="0.421052" ry="0.368421" fill="#9E9E9D"/>
<ellipse cx="12.2101" cy="11.7893" rx="0.421052" ry="0.368421" fill="#9E9E9D"/>
</svg>
