<svg xmlns="http://www.w3.org/2000/svg" width="15" height="14" viewBox="0 0 15 14" fill="none">
<path d="M11.1199 9.77982C10.9795 9.77982 10.8449 9.72407 10.7457 9.62482C10.6464 9.52558 10.5907 9.39097 10.5907 9.25062C10.5907 9.11027 10.6464 8.97567 10.7457 8.87642C10.8449 8.77718 10.9795 8.72142 11.1199 8.72142C11.2556 8.72142 11.3857 8.66751 11.4817 8.57155C11.5777 8.47559 11.6316 8.34543 11.6316 8.20972V3.62332C11.6316 3.48761 11.5777 3.35746 11.4817 3.2615C11.3857 3.16553 11.2556 3.11162 11.1199 3.11162H6.53348C6.39777 3.11162 6.26761 3.16553 6.17165 3.2615C6.07569 3.35746 6.02178 3.48761 6.02178 3.62332C6.02178 3.76368 5.96602 3.89828 5.86678 3.99752C5.76754 4.09677 5.63293 4.15252 5.49258 4.15252C5.35223 4.15252 5.21762 4.09677 5.11838 3.99752C5.01913 3.89828 4.96338 3.76368 4.96338 3.62332C4.9643 3.20719 5.13002 2.80837 5.42427 2.51412C5.71852 2.21986 6.11735 2.05415 6.53348 2.05322H11.1199C11.536 2.05415 11.9348 2.21986 12.2291 2.51412C12.5233 2.80837 12.6891 3.20719 12.69 3.62332V8.20972C12.6891 8.62585 12.5233 9.02468 12.2291 9.31893C11.9348 9.61318 11.536 9.7789 11.1199 9.77982Z" fill="#A5A8AC"/>
<path d="M8.77346 12.0735H4.38096C4.16311 12.0738 3.94735 12.0311 3.74603 11.9478C3.54471 11.8646 3.36179 11.7424 3.20775 11.5884C3.0537 11.4344 2.93157 11.2514 2.84833 11.0501C2.76509 10.8488 2.72238 10.633 2.72266 10.4152V6.00519C2.72229 5.78729 2.76493 5.57145 2.84812 5.37005C2.93132 5.16865 3.05345 4.98565 3.2075 4.83153C3.36155 4.67741 3.5445 4.55521 3.74587 4.47193C3.94723 4.38864 4.16305 4.34592 4.38096 4.34619H8.77346C8.99131 4.34592 9.20707 4.38862 9.40839 4.47186C9.60971 4.5551 9.79263 4.67724 9.94667 4.83128C10.1007 4.98532 10.2229 5.16824 10.3061 5.36956C10.3893 5.57088 10.432 5.78664 10.4318 6.00449V10.4145C10.4493 11.3322 9.69116 12.0735 8.77346 12.0735ZM4.38096 5.40459C4.302 5.40394 4.22369 5.41901 4.15062 5.44893C4.07754 5.47884 4.01115 5.52301 3.95531 5.57884C3.89947 5.63468 3.85531 5.70107 3.82539 5.77415C3.79548 5.84723 3.78041 5.92553 3.78106 6.00449V10.4145C3.78041 10.4935 3.79548 10.5718 3.82539 10.6448C3.85531 10.7179 3.89947 10.7843 3.95531 10.8401C4.01115 10.896 4.07754 10.9401 4.15062 10.9701C4.22369 11 4.302 11.015 4.38096 11.0144H8.77346C8.85242 11.015 8.93072 11 9.0038 10.9701C9.07688 10.9401 9.14327 10.896 9.19911 10.8401C9.25494 10.7843 9.29911 10.7179 9.32902 10.6448C9.35894 10.5718 9.37401 10.4935 9.37336 10.4145V6.00449C9.37401 5.92553 9.35894 5.84723 9.32902 5.77415C9.29911 5.70107 9.25494 5.63468 9.19911 5.57884C9.14327 5.52301 9.07688 5.47884 9.0038 5.44893C8.93072 5.41901 8.85242 5.40394 8.77346 5.40459H4.38096Z" fill="#A5A8AC"/>
</svg>