<svg xmlns="http://www.w3.org/2000/svg" width="16" height="16" viewBox="0 0 16 16" fill="none">
<path d="M7.99013 0.458008C8.3405 0.458008 8.63405 0.742091 8.63405 1.10193C8.63405 1.4523 8.34997 1.74585 7.99013 1.74585C4.53379 1.74585 1.73084 4.5488 1.73084 8.00514C1.73084 11.4615 4.53379 14.2644 7.99013 14.2644C11.4465 14.2644 14.2494 11.4615 14.2494 8.00514C14.2494 7.65478 14.5335 7.36122 14.8933 7.36122C15.2437 7.36122 15.5373 7.64531 15.5373 8.00514C15.5373 12.1717 12.1662 15.5428 7.9996 15.5428C3.83305 15.5428 0.461934 12.1717 0.461934 8.00514C0.452465 3.82912 3.82358 0.458008 7.99013 0.458008ZM11.8726 3.65868C11.6359 3.41247 11.6359 3.01475 11.8821 2.77802C12.1283 2.53181 12.5165 2.53181 12.7722 2.77802L13.8706 3.88594C14.2021 4.21737 14.2021 4.75713 13.8706 5.08856L12.7627 6.19648C12.7043 6.25501 12.635 6.30144 12.5586 6.33312C12.4822 6.3648 12.4003 6.3811 12.3177 6.3811C12.235 6.3811 12.1531 6.3648 12.0767 6.33312C12.0004 6.30144 11.931 6.25501 11.8726 6.19648C11.8141 6.13808 11.7676 6.06871 11.736 5.99234C11.7043 5.91597 11.688 5.8341 11.688 5.75142C11.688 5.66874 11.7043 5.58687 11.736 5.5105C11.7676 5.43413 11.8141 5.36476 11.8726 5.30636L12.062 5.11697H11.2476C9.04124 5.11697 8.28368 6.05444 8.28368 8.90474C8.28368 9.25511 7.9996 9.52972 7.6587 9.52972C7.30833 9.52972 7.03372 9.24564 7.03372 8.90474C7.03372 5.38211 8.32156 3.85753 11.2476 3.85753H12.062L11.8726 3.65868Z" fill="#A5A8AC"/>
</svg>