<svg width="48" height="48" viewBox="0 0 48 48" fill="none" xmlns="http://www.w3.org/2000/svg">
<circle cx="24" cy="24" r="24" fill="url(#paint0_linear_5025_651)"/>
<path d="M26.6366 28.4769C26.1944 29.3942 25.5546 30.1519 24.7926 30.7236C24.769 30.7425 24.7446 30.7608 24.7194 30.7778C24.6806 30.8061 24.6411 30.834 24.6012 30.8615C24.426 30.9832 24.2434 31.0956 24.0578 31.1979C22.8157 31.88 21.3515 32.125 19.9214 31.8444C20.0493 31.3456 20.2148 30.8503 20.4198 30.3623C20.4915 30.1895 20.5682 30.0194 20.6504 29.8492C20.6849 29.7771 20.7201 29.7066 20.7562 29.6365C21.2561 28.6528 21.889 27.7804 22.6211 27.0278C22.8459 26.7964 23.08 26.5771 23.323 26.3689C23.4567 26.2542 23.5935 26.143 23.7326 26.036C24.7337 25.2597 25.8615 24.6726 27.0567 24.2939C27.2808 25.1718 27.3125 26.1031 27.1288 27.0189C27.0284 27.5122 26.8664 28.0021 26.6378 28.4776H26.637L26.6366 28.4769Z" fill="url(#paint1_linear_5025_651)"/>
<path d="M21.7999 35.4735C21.2371 36.2137 20.7414 37.0241 20.3287 37.8992L20.2922 37.9764C19.931 36.9559 19.7229 35.8812 19.6826 34.7891C20.3787 35.0801 21.0864 35.3068 21.7999 35.4735Z" fill="url(#paint2_linear_5025_651)"/>
<path fill-rule="evenodd" clip-rule="evenodd" d="M19.9497 36.816C20.0419 37.2167 20.1571 37.6121 20.2942 37.9992L20.3307 37.9221C20.7434 37.047 21.2391 36.2366 21.8019 35.4964C21.5069 35.4274 21.2128 35.3483 20.9202 35.2588C20.5776 35.7603 20.2536 36.2792 19.9497 36.816Z" fill="url(#paint3_linear_5025_651)"/>
<path d="M38.0883 21.3867C38.2391 23.1315 38.074 24.8503 37.5 26.5916C37.3279 27.1125 37.1229 27.6291 36.883 28.1376H36.8818C36.473 29.005 35.9831 29.8076 35.4265 30.5413C35.4207 30.549 35.4157 30.556 35.4099 30.5633C34.0534 32.3457 32.2989 33.7216 30.3348 34.6246C30.198 34.6878 30.0604 34.7486 29.9209 34.8071C27.3645 35.8814 24.485 36.1682 21.6829 35.521C21.6705 35.5183 21.6585 35.5156 21.6465 35.5121C22.7099 34.1157 24.0172 32.9678 25.4791 32.1027L25.5225 32.0764C26.5247 31.4873 27.5975 31.0304 28.714 30.7164C28.7198 30.7149 28.7249 30.7133 28.7307 30.7118C31.6413 29.875 34.2584 28.0667 36.0633 25.4728C36.4885 24.8616 36.869 24.207 37.1969 23.5117" fill="url(#paint4_linear_5025_651)"/>
<path fill-rule="evenodd" clip-rule="evenodd" d="M11.3765 23.4895C11.4927 27.0163 13.8731 32.1836 19.0563 34.6284C19.2474 34.7183 19.4389 34.8035 19.6315 34.883C20.3275 35.1741 21.0352 35.4008 21.7487 35.5674C22.8122 34.171 24.1194 33.0231 25.5813 32.1581L25.6247 32.1317C26.6269 31.5426 27.6997 31.0857 28.8162 30.7718C28.8193 30.771 28.8221 30.7702 28.8248 30.7694C28.8275 30.7687 28.8302 30.7679 28.8333 30.7671C31.7439 29.9304 34.3611 28.122 36.1659 25.5281C36.5911 24.9169 36.9717 24.2623 37.2995 23.567C37.6034 22.9229 37.8537 22.2687 38.0467 21.6068C38.1246 21.3393 38.0619 21.0495 37.8762 20.8413C37.1526 20.0306 36.2574 19.3496 35.2133 18.857C31.597 17.151 27.373 18.266 25.0306 21.3111C24.757 21.6645 24.4845 22.0587 24.2 22.4702C22.7575 24.5565 21.4918 26.7063 17.222 27.0938C13.7204 27.4116 12.6554 24.4197 12.7329 23.3345L11.3765 23.4895ZM24.0679 31.252C22.8312 31.9441 21.3689 32.2011 19.9369 31.9321H19.9361C20.0597 31.4318 20.2213 30.9349 20.4225 30.4454C20.493 30.2722 20.5682 30.1013 20.6488 29.9304C20.6829 29.8583 20.7174 29.7874 20.7527 29.7168C21.2445 28.7293 21.87 27.8519 22.5963 27.0931C22.8195 26.8601 23.0517 26.6384 23.2927 26.4284C23.4253 26.3125 23.5613 26.2001 23.6993 26.092C24.6942 25.3076 25.8173 24.7111 27.0091 24.3228C27.2404 25.199 27.2796 26.1296 27.1032 27.0469C27.0071 27.5411 26.849 28.0325 26.6242 28.5096C26.1898 29.4308 25.5557 30.1935 24.7984 30.7714C24.7748 30.7904 24.7507 30.809 24.7259 30.8264C24.6876 30.8551 24.6484 30.883 24.6081 30.9109C24.4337 31.0341 24.2523 31.1477 24.0675 31.2516L24.0679 31.252Z" fill="url(#paint5_linear_5025_651)"/>
<path d="M11.7609 21.5158C11.9721 21.7898 12.1582 22.0898 12.3151 22.4134C12.4895 22.7731 12.6178 23.1428 12.7038 23.5164C12.7046 23.5179 12.705 23.5191 12.7058 23.5207C12.7073 23.5323 12.7108 23.5443 12.7135 23.5555C12.743 23.6916 12.7674 23.828 12.7856 23.9648C12.7887 23.9842 12.7907 24.0032 12.7938 24.0225C12.6539 24.1082 12.5093 24.1865 12.3589 24.2593C12.2085 24.3322 12.0477 24.4008 11.8896 24.4597C11.8528 24.4721 11.816 24.4861 11.7791 24.4985C10.9982 24.7663 10.1878 24.8349 9.40804 24.7267C7.76363 24.4973 6.26145 23.4796 5.48323 21.8747C5.23016 21.3526 5.07358 20.8101 5.00537 20.2652C5.14567 20.1803 5.29061 20.1008 5.44099 20.028C6.2537 19.6342 7.11951 19.473 7.96206 19.5195C8.03996 19.5234 8.11864 19.5303 8.19653 19.5385C9.51307 19.6703 10.7556 20.3093 11.6276 21.3511C11.6737 21.405 11.7171 21.46 11.7609 21.5162V21.5158Z" fill="url(#paint6_linear_5025_651)"/>
<path d="M18.0569 17.8001L18.1073 17.8133C18.4441 19.4848 17.9221 21.2161 16.7431 22.4229C16.3389 22.8368 15.8568 23.1895 15.306 23.4565C14.522 23.8364 13.6907 23.9995 12.8772 23.9704C12.8586 23.9689 12.7943 23.984 12.776 23.9832C12.7354 23.8995 12.7439 23.6937 12.7125 23.5558C12.7102 23.5445 12.7067 23.5325 12.7051 23.5209C12.7043 23.5193 12.704 23.5182 12.7032 23.5166C12.6171 23.143 12.4889 22.7733 12.3145 22.4136C12.1575 22.09 11.9715 21.79 11.7603 21.516C12.0463 20.3863 12.7129 19.3604 13.6887 18.6411C13.9395 18.4547 14.212 18.2896 14.5042 18.1478C14.6588 18.073 14.8154 18.0063 14.9735 17.9474C15.0816 17.9075 15.1902 17.8714 15.2998 17.8393C16.218 17.5684 17.1702 17.568 18.0558 17.8009H18.0565L18.0569 17.8001Z" fill="url(#paint7_linear_5025_651)"/>
<path fill-rule="evenodd" clip-rule="evenodd" d="M12.764 24.0423C12.2315 24.0597 11.7013 24.031 11.1789 23.9578C8.75622 23.6175 6.50451 22.3235 5 20.2764C5.06821 20.8193 5.22478 21.3604 5.47709 21.8805C6.25492 23.4854 7.7571 24.5035 9.40151 24.7325C10.1809 24.8407 10.9917 24.7721 11.7726 24.5043C11.7908 24.4981 11.8094 24.4915 11.828 24.4849C11.8466 24.4783 11.8648 24.4717 11.8834 24.4655C12.0416 24.4066 12.2024 24.338 12.3528 24.2651C12.495 24.1961 12.6318 24.1225 12.7644 24.0423H12.764Z" fill="url(#paint8_linear_5025_651)"/>
<path fill-rule="evenodd" clip-rule="evenodd" d="M18.1147 17.8284L18.0644 17.8152H18.0636C17.1776 17.5827 16.2254 17.5831 15.3076 17.854C15.198 17.8861 15.0894 17.9222 14.9813 17.9621C14.8232 18.021 14.6666 18.0877 14.512 18.1625C14.2198 18.3043 13.9473 18.4694 13.6966 18.6558C12.7203 19.3751 12.0537 20.4014 11.7681 21.5307C11.9793 21.8047 12.1653 22.1047 12.3223 22.4283C12.3269 22.4384 12.332 22.4481 12.3366 22.4582C12.8482 21.1939 13.7012 20.0654 14.8426 19.2232C15.2111 18.9492 15.6115 18.7058 16.0409 18.4977C16.268 18.3876 16.4982 18.29 16.7308 18.2032C16.8897 18.1446 17.0493 18.0919 17.2106 18.0443C17.5109 17.9559 17.8136 17.8873 18.1171 17.8377C18.1163 17.8342 18.1159 17.8311 18.1151 17.8276L18.1147 17.8284Z" fill="url(#paint9_linear_5025_651)"/>
<path fill-rule="evenodd" clip-rule="evenodd" d="M24.1308 28.7493C25.1959 27.9502 26.09 26.8914 26.7081 25.6089H26.7093C26.8627 25.2908 26.9945 24.9675 27.1057 24.6416C27.2817 25.4543 27.2945 26.3066 27.1259 27.1464C27.0255 27.6398 26.8635 28.1296 26.6349 28.6048H26.6341C26.1923 29.5217 25.552 30.2794 24.7901 30.8511C24.7664 30.8697 24.742 30.8883 24.7168 30.9053C24.6781 30.9336 24.6385 30.9615 24.5982 30.989C24.4231 31.1107 24.2405 31.2231 24.0549 31.3254C22.8128 32.0076 21.3486 32.2525 19.9185 31.9719C20.0464 31.4731 20.2118 30.9778 20.4169 30.4899C20.4378 30.4399 20.4587 30.3903 20.4804 30.3407C21.3985 30.1756 22.2857 29.862 23.1038 29.4128C23.3635 29.2698 23.6181 29.1129 23.863 28.9427C23.9192 28.9044 23.9747 28.8652 24.0285 28.8257C24.0634 28.8017 24.0975 28.7761 24.1305 28.7497L24.1308 28.7493Z" fill="url(#paint10_linear_5025_651)"/>
<path d="M31.0907 17.3306C31.0907 17.3306 31.6193 14.868 33.2866 14.432C34.802 14.0359 35.0326 15.799 34.0939 16.1264C33.1556 16.4532 32.096 16.1009 31.0907 17.3306ZM30.073 17.6856C30.073 17.6856 31.0818 15.7145 30.502 14.6281C29.8602 13.4244 28.5076 14.1751 28.6518 15.0134C28.796 15.8517 30.2175 16.4442 30.073 17.686V17.6856Z" fill="url(#paint11_linear_5025_651)"/>
<path d="M33.6306 23.2553C34.1224 23.4871 34.7088 23.2774 34.9402 22.7867C35.1715 22.2961 34.9607 21.7101 34.4689 21.4783C33.9771 21.2462 33.3907 21.4563 33.1593 21.9469C32.928 22.4376 33.1388 23.0235 33.6306 23.2553Z" fill="white"/>
<path d="M34.1723 23.5011C33.994 23.5483 33.8012 23.539 33.6209 23.4866C33.4406 23.4341 33.2719 23.3385 33.1295 23.2058C33.0617 23.1408 33 23.0626 32.9452 22.9875C32.8935 22.9056 32.8516 22.8205 32.8261 22.735C32.7943 22.6462 32.7818 22.5502 32.7733 22.4643C32.7677 22.3715 32.7721 22.2751 32.7898 22.1851C32.7955 22.2779 32.804 22.3639 32.8261 22.4562C32.8447 22.5385 32.8766 22.6277 32.9052 22.7064C32.9754 22.8705 33.0718 23.0146 33.2042 23.1344C33.3296 23.251 33.4813 23.347 33.6491 23.4099C33.8101 23.4692 33.99 23.5051 34.1728 23.5011H34.1723ZM34.0453 21.0729C34.3898 21.0386 34.7488 21.2 34.9812 21.4735C35.0393 21.5417 35.0873 21.6139 35.1293 21.699C35.1644 21.7813 35.1994 21.8632 35.218 21.9459C35.262 22.1141 35.2563 22.2997 35.2136 22.4599C35.2128 22.2876 35.1922 22.1222 35.1353 21.9641C35.0853 21.8092 34.9985 21.6619 34.8929 21.5385C34.79 21.4082 34.6548 21.3117 34.5136 21.2286C34.3789 21.1488 34.2216 21.0991 34.0453 21.0733V21.0729Z" fill="white"/>
<path fill-rule="evenodd" clip-rule="evenodd" d="M34.2719 22.3085C34.4405 22.388 34.6357 22.3444 34.7556 22.2141C34.7753 22.3537 34.756 22.5006 34.6914 22.6377C34.5256 22.9887 34.1218 23.1513 33.7632 23.0234C33.8092 23.0012 33.8479 22.9641 33.8713 22.9145C33.9253 22.7999 33.8761 22.6627 33.7611 22.6087C33.6462 22.5546 33.509 22.6034 33.455 22.7184C33.4437 22.7426 33.4368 22.7676 33.434 22.793C33.2561 22.5764 33.2073 22.2682 33.3347 21.9983C33.4917 21.6651 33.8636 21.5021 34.2077 21.5953C34.1512 21.6352 34.1045 21.6897 34.073 21.7567C33.9754 21.964 34.0641 22.2113 34.2719 22.3094V22.3085Z" fill="#07828B"/>
<path d="M32.7681 21.5922C32.8818 21.5591 33.1549 21.5148 33.3361 21.6003" stroke="white" stroke-width="0.310048" stroke-linecap="round"/>
<path d="M33.4297 20.8018C33.4019 20.9421 33.3628 21.2778 33.4265 21.4989" stroke="white" stroke-width="0.310048" stroke-linecap="round"/>
<defs>
<linearGradient id="paint0_linear_5025_651" x1="24" y1="0" x2="24" y2="48" gradientUnits="userSpaceOnUse">
<stop stop-color="#054150"/>
<stop offset="1" stop-color="#08566B"/>
</linearGradient>
<linearGradient id="paint1_linear_5025_651" x1="18.332" y1="28.5726" x2="26.7715" y2="23.915" gradientUnits="userSpaceOnUse">
<stop stop-color="#07828B"/>
<stop offset="1" stop-color="#5AB8DB"/>
</linearGradient>
<linearGradient id="paint2_linear_5025_651" x1="20.5411" y1="34.7732" x2="20.3491" y2="37.114" gradientUnits="userSpaceOnUse">
<stop stop-color="#07828B"/>
<stop offset="1" stop-color="#5AB8DB"/>
</linearGradient>
<linearGradient id="paint3_linear_5025_651" x1="19.9598" y1="36.73" x2="20.958" y2="35.7017" gradientUnits="userSpaceOnUse">
<stop stop-color="#07828B"/>
<stop offset="1" stop-color="#5AB8DB"/>
</linearGradient>
<linearGradient id="paint4_linear_5025_651" x1="23.7579" y1="34.3083" x2="37.8576" y2="21.1049" gradientUnits="userSpaceOnUse">
<stop stop-color="#07828B"/>
<stop offset="1" stop-color="#5AB8DB"/>
</linearGradient>
<linearGradient id="paint5_linear_5025_651" x1="18.3324" y1="29.8126" x2="38.8334" y2="23.2868" gradientUnits="userSpaceOnUse">
<stop stop-color="#07828B"/>
<stop offset="1" stop-color="#5AB8DB"/>
</linearGradient>
<linearGradient id="paint6_linear_5025_651" x1="4.99996" y1="20.4337" x2="13.5264" y2="25.1499" gradientUnits="userSpaceOnUse">
<stop stop-color="#07828B"/>
<stop offset="1" stop-color="#5AB8DB"/>
</linearGradient>
<linearGradient id="paint7_linear_5025_651" x1="12.6737" y1="23.3786" x2="17.7975" y2="17.7285" gradientUnits="userSpaceOnUse">
<stop stop-color="#07828B"/>
<stop offset="1" stop-color="#5AB8DB"/>
</linearGradient>
<linearGradient id="paint8_linear_5025_651" x1="5.33745" y1="21.091" x2="13.9802" y2="27.7261" gradientUnits="userSpaceOnUse">
<stop stop-color="#5AB8DB"/>
<stop offset="1" stop-color="#07828B"/>
</linearGradient>
<linearGradient id="paint9_linear_5025_651" x1="12.044" y1="18.5157" x2="17.8015" y2="20.0483" gradientUnits="userSpaceOnUse">
<stop stop-color="#5AB8DB"/>
<stop offset="1" stop-color="#07828B"/>
</linearGradient>
<linearGradient id="paint10_linear_5025_651" x1="28.1758" y1="22.2166" x2="23.2877" y2="30.942" gradientUnits="userSpaceOnUse">
<stop stop-color="#5AB8DB"/>
<stop offset="1" stop-color="#07828B"/>
</linearGradient>
<linearGradient id="paint11_linear_5025_651" x1="27.866" y1="17.178" x2="31.7742" y2="12.0426" gradientUnits="userSpaceOnUse">
<stop stop-color="#07828B"/>
<stop offset="1" stop-color="#5AB8DB"/>
</linearGradient>
</defs>
</svg>
