<svg width="16" height="15" viewBox="0 0 16 15" fill="none" xmlns="http://www.w3.org/2000/svg">
<g id="icon_purse">
<g id="icon_purse_2">
<path fill-rule="evenodd" clip-rule="evenodd" d="M9.71634 10.6624H14.3481C14.3481 10.6624 14.3481 10.6624 14.3481 10.6624V12.4971C14.3479 12.7563 14.2448 13.0048 14.0615 13.1881C13.8782 13.3714 13.6297 13.4746 13.3705 13.4749H2.62948C2.37026 13.4746 2.12176 13.3714 1.93848 13.1881C1.7552 13.0048 1.65212 12.7563 1.65186 12.4971V4.8597C1.65212 4.60049 1.7552 4.35196 1.93848 4.16866C2.12176 3.98535 2.37026 3.88223 2.62948 3.88191H13.3705C13.6297 3.88223 13.8782 3.98535 14.0615 4.16866C14.2448 4.35196 14.3479 4.60049 14.3481 4.8597V6.69476C14.3481 6.69476 14.3481 6.69476 14.3481 6.69476H9.71634C9.54352 6.69498 9.37785 6.76373 9.25565 6.88593C9.13345 7.00812 9.0647 7.1738 9.06448 7.34661V10.0105C9.06466 10.1834 9.13339 10.3491 9.2556 10.4713C9.37781 10.5935 9.54351 10.6622 9.71634 10.6624ZM9.71634 10.0105V7.34661H14.3481L14.3471 10.0105H9.71634ZM5.82506 3.23022H11.0888L10.6761 2.24941C10.5753 2.01065 10.3838 1.82166 10.1438 1.72396C9.90371 1.62626 9.63469 1.62783 9.39579 1.72833L5.82506 3.23022ZM11.7958 3.23022H13.3705C13.8025 3.23071 14.2167 3.40255 14.5222 3.70803C14.8277 4.01351 14.9995 4.42769 15 4.8597V12.4971C14.9995 12.9291 14.8277 13.3433 14.5222 13.6488C14.2167 13.9543 13.8025 14.1262 13.3705 14.1267H2.62948C2.1973 14.1262 1.783 13.9542 1.4775 13.6485C1.172 13.3428 1.00027 12.9284 1 12.4963V4.8597C1.00049 4.42769 1.17232 4.01351 1.4778 3.70803C1.78328 3.40255 2.19746 3.23071 2.62948 3.23022H4.14422L9.1423 1.12724C9.54078 0.959912 9.98938 0.957531 10.3896 1.12062C10.7898 1.28371 11.109 1.59893 11.2771 1.99711L11.7958 3.23022Z" fill="#666666"/>
<path d="M9.71634 10.6624L9.71616 10.8374H9.71634V10.6624ZM14.3481 10.6624H14.5231V10.4874H14.3481V10.6624ZM14.3481 12.4971L14.5231 12.4973V12.4971H14.3481ZM14.0615 13.1881L14.1853 13.3119L14.1853 13.3119L14.0615 13.1881ZM13.3705 13.4749V13.6499H13.3707L13.3705 13.4749ZM2.62948 13.4749L2.62927 13.6499H2.62948V13.4749ZM1.93848 13.1881L1.81473 13.3119L1.81473 13.3119L1.93848 13.1881ZM1.65186 12.4971H1.47686L1.47686 12.4973L1.65186 12.4971ZM1.65186 4.8597L1.47686 4.85952V4.8597H1.65186ZM1.93848 4.16866L1.81473 4.04492L1.93848 4.16866ZM2.62948 3.88191V3.70691L2.62927 3.70691L2.62948 3.88191ZM13.3705 3.88191L13.3707 3.70691H13.3705V3.88191ZM14.0615 4.16866L14.1853 4.04492V4.04492L14.0615 4.16866ZM14.3481 4.8597H14.5231V4.85952L14.3481 4.8597ZM14.3481 6.69476V6.86976H14.5231V6.69476H14.3481ZM9.71634 6.69476V6.51975L9.71611 6.51976L9.71634 6.69476ZM9.06448 7.34661L8.88948 7.34639V7.34661H9.06448ZM9.06448 10.0105H8.88948L8.88948 10.0107L9.06448 10.0105ZM9.71634 7.34661V7.17161H9.54134V7.34661H9.71634ZM9.71634 10.0105H9.54134V10.1855H9.71634V10.0105ZM14.3481 7.34661L14.5231 7.34668L14.5232 7.17161H14.3481V7.34661ZM14.3471 10.0105V10.1855H14.522L14.5221 10.0106L14.3471 10.0105ZM5.82506 3.23022L5.75721 3.06891L5.82506 3.40522V3.23022ZM11.0888 3.23022V3.40522H11.3523L11.2501 3.16236L11.0888 3.23022ZM10.6761 2.24941L10.8374 2.18155L10.8374 2.18134L10.6761 2.24941ZM10.1438 1.72396L10.0778 1.88605L10.0778 1.88605L10.1438 1.72396ZM9.39579 1.72833L9.46364 1.88964L9.46364 1.88964L9.39579 1.72833ZM11.7958 3.23022L11.6345 3.29809L11.6796 3.40522H11.7958V3.23022ZM13.3705 3.23022L13.3707 3.05522H13.3705V3.23022ZM14.5222 3.70803L14.6459 3.58428V3.58428L14.5222 3.70803ZM15 4.8597H15.175V4.8595L15 4.8597ZM15 12.4971L15.175 12.4973V12.4971H15ZM14.5222 13.6488L14.6459 13.7726L14.5222 13.6488ZM13.3705 14.1267V14.3017H13.3707L13.3705 14.1267ZM2.62948 14.1267L2.62926 14.3017H2.62948V14.1267ZM1.4775 13.6485L1.35371 13.7722L1.35371 13.7722L1.4775 13.6485ZM1 12.4963H0.825L0.825 12.4964L1 12.4963ZM1 4.8597L0.825 4.8595V4.8597H1ZM1.4778 3.70803L1.35406 3.58428H1.35406L1.4778 3.70803ZM2.62948 3.23022V3.05522L2.62928 3.05522L2.62948 3.23022ZM4.14422 3.23022V3.40522H4.17954L4.21209 3.39153L4.14422 3.23022ZM9.1423 1.12724L9.07455 0.965885L9.07443 0.965934L9.1423 1.12724ZM11.2771 1.99711L11.4384 1.92925L11.4383 1.92906L11.2771 1.99711ZM14.3481 10.4874H9.71634V10.8374H14.3481V10.4874ZM14.3481 10.4874H14.3481C14.3481 10.4874 14.3481 10.4874 14.3481 10.4874C14.3481 10.4874 14.3481 10.4874 14.3481 10.4874C14.3481 10.4874 14.3481 10.4874 14.3481 10.4874C14.3481 10.4874 14.3481 10.4874 14.3481 10.4874C14.3481 10.4874 14.3481 10.4874 14.3481 10.4874C14.3481 10.4874 14.3481 10.4874 14.3481 10.4874H14.3481H14.3481C14.3481 10.4874 14.3481 10.4874 14.3481 10.4874C14.3481 10.4874 14.3481 10.4874 14.3481 10.4874C14.3481 10.4874 14.3481 10.4874 14.3481 10.4874C14.3481 10.4874 14.3481 10.4874 14.3481 10.4874C14.3481 10.4874 14.3481 10.4874 14.3481 10.4874H14.3481H14.3481H14.3481C14.3481 10.4874 14.3481 10.4874 14.3481 10.4874C14.3481 10.4874 14.3481 10.4874 14.3481 10.4874C14.3481 10.4874 14.3481 10.4874 14.3481 10.4874C14.3481 10.4874 14.3481 10.4874 14.3481 10.4874C14.3481 10.4874 14.3481 10.4874 14.3481 10.4874H14.3481H14.3481H14.3481C14.3481 10.4874 14.3481 10.4874 14.3481 10.4874C14.3481 10.4874 14.3481 10.4874 14.3481 10.4874C14.3481 10.4874 14.3481 10.4874 14.3481 10.4874C14.3481 10.4874 14.3481 10.4874 14.3481 10.4874C14.3481 10.4874 14.3481 10.4874 14.3481 10.4874H14.3481H14.3481H14.3481C14.3481 10.4874 14.3481 10.4874 14.3481 10.4874C14.3481 10.4874 14.3481 10.4874 14.3481 10.4874C14.3481 10.4874 14.3481 10.4874 14.3481 10.4874C14.3481 10.4874 14.3481 10.4874 14.3481 10.4874C14.3481 10.4874 14.3481 10.4874 14.3481 10.4874H14.3481V10.8374H14.3481C14.3481 10.8374 14.3481 10.8374 14.3481 10.8374C14.3481 10.8374 14.3481 10.8374 14.3481 10.8374C14.3481 10.8374 14.3481 10.8374 14.3481 10.8374C14.3481 10.8374 14.3481 10.8374 14.3481 10.8374C14.3481 10.8374 14.3481 10.8374 14.3481 10.8374H14.3481H14.3481H14.3481C14.3481 10.8374 14.3481 10.8374 14.3481 10.8374C14.3481 10.8374 14.3481 10.8374 14.3481 10.8374C14.3481 10.8374 14.3481 10.8374 14.3481 10.8374C14.3481 10.8374 14.3481 10.8374 14.3481 10.8374C14.3481 10.8374 14.3481 10.8374 14.3481 10.8374H14.3481H14.3481H14.3481C14.3481 10.8374 14.3481 10.8374 14.3481 10.8374C14.3481 10.8374 14.3481 10.8374 14.3481 10.8374C14.3481 10.8374 14.3481 10.8374 14.3481 10.8374C14.3481 10.8374 14.3481 10.8374 14.3481 10.8374C14.3481 10.8374 14.3481 10.8374 14.3481 10.8374H14.3481H14.3481H14.3481C14.3481 10.8374 14.3481 10.8374 14.3481 10.8374C14.3481 10.8374 14.3481 10.8374 14.3481 10.8374C14.3481 10.8374 14.3481 10.8374 14.3481 10.8374C14.3481 10.8374 14.3481 10.8374 14.3481 10.8374C14.3481 10.8374 14.3481 10.8374 14.3481 10.8374H14.3481H14.3481C14.3481 10.8374 14.3481 10.8374 14.3481 10.8374C14.3481 10.8374 14.3481 10.8374 14.3481 10.8374C14.3481 10.8374 14.3481 10.8374 14.3481 10.8374C14.3481 10.8374 14.3481 10.8374 14.3481 10.8374C14.3481 10.8374 14.3481 10.8374 14.3481 10.8374C14.3481 10.8374 14.3481 10.8374 14.3481 10.8374H14.3481V10.4874ZM14.5231 12.4971V10.6624H14.1731V12.4971H14.5231ZM14.1853 13.3119C14.4013 13.0958 14.5228 12.8028 14.5231 12.4973L14.1731 12.4969C14.1729 12.7098 14.0883 12.9139 13.9377 13.0644L14.1853 13.3119ZM13.3707 13.6499C13.6763 13.6495 13.9692 13.528 14.1853 13.3119L13.9377 13.0644C13.7872 13.2149 13.5832 13.2996 13.3703 13.2999L13.3707 13.6499ZM2.62948 13.6499H13.3705V13.2999H2.62948V13.6499ZM1.81473 13.3119C2.03077 13.528 2.32371 13.6495 2.62927 13.6499L2.62969 13.2999C2.41682 13.2996 2.21274 13.2149 2.06223 13.0644L1.81473 13.3119ZM1.47686 12.4973C1.47717 12.8028 1.59868 13.0958 1.81473 13.3119L2.06223 13.0644C1.91173 12.9139 1.82708 12.7098 1.82686 12.4969L1.47686 12.4973ZM1.47686 4.8597V12.4971H1.82686V4.8597H1.47686ZM1.81473 4.04492C1.59868 4.261 1.47717 4.55396 1.47686 4.85952L1.82686 4.85988C1.82708 4.64701 1.91173 4.44292 2.06223 4.29239L1.81473 4.04492ZM2.62927 3.70691C2.32371 3.70728 2.03077 3.82884 1.81473 4.04492L2.06223 4.29239C2.21274 4.14185 2.41682 4.05717 2.62969 4.05691L2.62927 3.70691ZM13.3705 3.70691H2.62948V4.05691H13.3705V3.70691ZM14.1853 4.04492C13.9692 3.82884 13.6763 3.70728 13.3707 3.70691L13.3703 4.05691C13.5832 4.05717 13.7872 4.14185 13.9377 4.29239L14.1853 4.04492ZM14.5231 4.85952C14.5228 4.55396 14.4013 4.261 14.1853 4.04492L13.9377 4.29239C14.0883 4.44292 14.1729 4.64701 14.1731 4.85988L14.5231 4.85952ZM14.5231 6.69476V4.8597H14.1731V6.69476H14.5231ZM14.3481 6.86976H14.3481C14.3481 6.86976 14.3481 6.86976 14.3481 6.86976C14.3481 6.86976 14.3481 6.86976 14.3481 6.86976C14.3481 6.86976 14.3481 6.86976 14.3481 6.86976C14.3481 6.86976 14.3481 6.86976 14.3481 6.86976C14.3481 6.86976 14.3481 6.86976 14.3481 6.86976H14.3481H14.3481H14.3481C14.3481 6.86976 14.3481 6.86976 14.3481 6.86976C14.3481 6.86976 14.3481 6.86976 14.3481 6.86976C14.3481 6.86976 14.3481 6.86976 14.3481 6.86976C14.3481 6.86976 14.3481 6.86976 14.3481 6.86976C14.3481 6.86976 14.3481 6.86976 14.3481 6.86976H14.3481H14.3481H14.3481C14.3481 6.86976 14.3481 6.86976 14.3481 6.86976C14.3481 6.86976 14.3481 6.86976 14.3481 6.86976C14.3481 6.86976 14.3481 6.86976 14.3481 6.86976C14.3481 6.86976 14.3481 6.86976 14.3481 6.86976C14.3481 6.86976 14.3481 6.86976 14.3481 6.86976H14.3481H14.3481H14.3481C14.3481 6.86976 14.3481 6.86976 14.3481 6.86976C14.3481 6.86976 14.3481 6.86976 14.3481 6.86976C14.3481 6.86976 14.3481 6.86976 14.3481 6.86976C14.3481 6.86976 14.3481 6.86976 14.3481 6.86976C14.3481 6.86976 14.3481 6.86976 14.3481 6.86976H14.3481H14.3481C14.3481 6.86976 14.3481 6.86976 14.3481 6.86976C14.3481 6.86976 14.3481 6.86976 14.3481 6.86976C14.3481 6.86976 14.3481 6.86976 14.3481 6.86976C14.3481 6.86976 14.3481 6.86976 14.3481 6.86976C14.3481 6.86976 14.3481 6.86976 14.3481 6.86976C14.3481 6.86976 14.3481 6.86976 14.3481 6.86976H14.3481V6.51975H14.3481C14.3481 6.51975 14.3481 6.51975 14.3481 6.51975C14.3481 6.51975 14.3481 6.51975 14.3481 6.51975C14.3481 6.51975 14.3481 6.51975 14.3481 6.51975C14.3481 6.51975 14.3481 6.51975 14.3481 6.51975C14.3481 6.51975 14.3481 6.51975 14.3481 6.51975C14.3481 6.51975 14.3481 6.51975 14.3481 6.51975H14.3481H14.3481C14.3481 6.51975 14.3481 6.51975 14.3481 6.51975C14.3481 6.51975 14.3481 6.51975 14.3481 6.51975C14.3481 6.51975 14.3481 6.51975 14.3481 6.51975C14.3481 6.51975 14.3481 6.51975 14.3481 6.51975C14.3481 6.51975 14.3481 6.51975 14.3481 6.51975H14.3481H14.3481H14.3481C14.3481 6.51975 14.3481 6.51975 14.3481 6.51975C14.3481 6.51975 14.3481 6.51975 14.3481 6.51975C14.3481 6.51975 14.3481 6.51975 14.3481 6.51975C14.3481 6.51975 14.3481 6.51975 14.3481 6.51975C14.3481 6.51975 14.3481 6.51975 14.3481 6.51975H14.3481H14.3481H14.3481C14.3481 6.51975 14.3481 6.51975 14.3481 6.51975C14.3481 6.51975 14.3481 6.51975 14.3481 6.51975C14.3481 6.51975 14.3481 6.51975 14.3481 6.51975C14.3481 6.51975 14.3481 6.51975 14.3481 6.51975C14.3481 6.51975 14.3481 6.51975 14.3481 6.51975H14.3481H14.3481H14.3481C14.3481 6.51975 14.3481 6.51975 14.3481 6.51975C14.3481 6.51975 14.3481 6.51975 14.3481 6.51975C14.3481 6.51975 14.3481 6.51975 14.3481 6.51975C14.3481 6.51975 14.3481 6.51975 14.3481 6.51975C14.3481 6.51975 14.3481 6.51975 14.3481 6.51975H14.3481V6.86976ZM9.71634 6.86976H14.3481V6.51975H9.71634V6.86976ZM9.37939 7.00967C9.46883 6.92023 9.59008 6.86992 9.71656 6.86975L9.71611 6.51976C9.49696 6.52004 9.28687 6.60722 9.1319 6.76218L9.37939 7.00967ZM9.23948 7.34684C9.23964 7.22036 9.28996 7.0991 9.37939 7.00967L9.1319 6.76218C8.97694 6.91714 8.88976 7.12724 8.88948 7.34639L9.23948 7.34684ZM9.23948 10.0105V7.34661H8.88948V10.0105H9.23948ZM9.37934 10.3475C9.28991 10.2581 9.23961 10.1368 9.23948 10.0103L8.88948 10.0107C8.8897 10.2299 8.97687 10.44 9.13186 10.595L9.37934 10.3475ZM9.71652 10.4874C9.59004 10.4872 9.46878 10.4369 9.37934 10.3475L9.13186 10.595C9.28684 10.75 9.49698 10.8372 9.71616 10.8374L9.71652 10.4874ZM9.54134 7.34661V10.0105H9.89134V7.34661H9.54134ZM14.3481 7.17161H9.71634V7.52161H14.3481V7.17161ZM14.5221 10.0106L14.5231 7.34668L14.1731 7.34655L14.1721 10.0105L14.5221 10.0106ZM9.71634 10.1855H14.3471V9.83552H9.71634V10.1855ZM5.82506 3.40522H11.0888V3.05522H5.82506V3.40522ZM11.2501 3.16236L10.8374 2.18155L10.5148 2.31728L10.9275 3.29809L11.2501 3.16236ZM10.8374 2.18134C10.7185 1.89985 10.4928 1.67705 10.2097 1.56187L10.0778 1.88605C10.2749 1.96627 10.4321 2.12145 10.5149 2.31749L10.8374 2.18134ZM10.2097 1.56187C9.92673 1.44669 9.60957 1.44854 9.32793 1.56702L9.46364 1.88964C9.6598 1.80712 9.8807 1.80583 10.0778 1.88605L10.2097 1.56187ZM9.32794 1.56702L5.75721 3.06891L5.89291 3.39154L9.46364 1.88964L9.32794 1.56702ZM11.7958 3.40522H13.3705V3.05522H11.7958V3.40522ZM13.3703 3.40522C13.756 3.40566 14.1257 3.55906 14.3984 3.83177L14.6459 3.58428C14.3077 3.24603 13.8491 3.05577 13.3707 3.05522L13.3703 3.40522ZM14.3984 3.83177C14.6711 4.10448 14.8245 4.47423 14.825 4.8599L15.175 4.8595C15.1744 4.38115 14.9842 3.92253 14.6459 3.58428L14.3984 3.83177ZM14.825 4.8597V12.4971H15.175V4.8597H14.825ZM14.825 12.4969C14.8245 12.8826 14.6712 13.2524 14.3984 13.5251L14.6459 13.7726C14.9842 13.4343 15.1744 12.9757 15.175 12.4973L14.825 12.4969ZM14.3984 13.5251C14.1257 13.7978 13.756 13.9513 13.3703 13.9517L13.3707 14.3017C13.8491 14.3011 14.3077 14.1108 14.6459 13.7726L14.3984 13.5251ZM13.3705 13.9517H2.62948V14.3017H13.3705V13.9517ZM2.62969 13.9517C2.24388 13.9513 1.87401 13.7977 1.60128 13.5248L1.35371 13.7722C1.69198 14.1107 2.15073 14.3011 2.62926 14.3017L2.62969 13.9517ZM1.60128 13.5248C1.32855 13.2519 1.17524 12.882 1.175 12.4961L0.825 12.4964C0.825295 12.9749 1.01545 13.4338 1.35371 13.7722L1.60128 13.5248ZM1.175 12.4963V4.8597H0.825V12.4963H1.175ZM1.175 4.8599C1.17544 4.47423 1.32884 4.10448 1.60155 3.83177L1.35406 3.58428C1.01581 3.92253 0.825542 4.38115 0.825 4.8595L1.175 4.8599ZM1.60155 3.83177C1.87426 3.55906 2.24401 3.40566 2.62967 3.40522L2.62928 3.05522C2.15092 3.05577 1.69231 3.24603 1.35406 3.58428L1.60155 3.83177ZM2.62948 3.40522H4.14422V3.05522H2.62948V3.40522ZM4.21209 3.39153L9.21017 1.28854L9.07443 0.965934L4.07635 3.06892L4.21209 3.39153ZM9.21006 1.28859C9.56579 1.13921 9.96627 1.13709 10.3236 1.28268L10.4556 0.958556C10.0125 0.777976 9.51577 0.780612 9.07455 0.965885L9.21006 1.28859ZM10.3236 1.28268C10.6809 1.42827 10.9658 1.70969 11.1158 2.06516L11.4383 1.92906C11.2522 1.48818 10.8988 1.13914 10.4556 0.958556L10.3236 1.28268ZM11.1158 2.06497L11.6345 3.29809L11.9572 3.16236L11.4384 1.92925L11.1158 2.06497Z" fill="#666666"/>
</g>
</g>
</svg>
