<svg xmlns="http://www.w3.org/2000/svg" width="16" height="16" viewBox="0 0 16 16" fill="none">
<path d="M10.3667 9.18477V4.78263C10.3667 4.32155 10.0146 3.94551 9.58274 3.94551H6.96377C6.53326 3.94551 6.17981 4.32155 6.17981 4.78263V9.18477H4.10696C3.67645 9.18477 3.323 9.56214 3.323 10.0232C3.323 10.2332 3.40272 10.4431 3.53958 10.6105L7.76235 15.2851C7.83204 15.3634 7.91718 15.4265 8.01242 15.4703C8.10766 15.5142 8.21095 15.5378 8.31578 15.5398C8.42061 15.5418 8.52472 15.5221 8.62156 15.4819C8.7184 15.4417 8.80588 15.382 8.8785 15.3063L8.8971 15.2851L13.1053 10.6105C13.2489 10.4436 13.3263 10.2299 13.3229 10.0097C13.3195 9.78956 13.2354 9.57831 13.0867 9.41598C13.0161 9.3416 12.931 9.28266 12.8365 9.24286C12.742 9.20307 12.6404 9.18329 12.5379 9.18477H10.3667ZM6.64886 2.95825H9.97605C10.1913 2.95825 10.3667 2.77223 10.3667 2.53969C10.3667 2.30982 10.1913 2.12114 9.97605 2.12114H6.64886C6.4336 2.12114 6.25821 2.30982 6.25821 2.53969C6.25821 2.76957 6.4336 2.95825 6.64886 2.95825ZM6.64886 1.28137H9.97605C10.1913 1.28137 10.3667 1.09534 10.3667 0.862813C10.3667 0.63161 10.1913 0.442927 9.97605 0.442927H6.64886C6.4336 0.442927 6.25821 0.63161 6.25821 0.862813C6.25821 1.09269 6.4336 1.28137 6.64886 1.28137Z" fill="#EF454A"/>
</svg>