<svg xmlns="http://www.w3.org/2000/svg" width="16" height="16" viewBox="0 0 16 16" fill="none">
<path d="M10.3667 6.81523V11.2174C10.3667 11.6785 10.0146 12.0545 9.58274 12.0545H6.96377C6.53326 12.0545 6.17981 11.6785 6.17981 11.2174V6.81523H4.10696C3.67645 6.81523 3.323 6.43786 3.323 5.97678C3.323 5.76684 3.40272 5.5569 3.53958 5.38948L7.76235 0.714934C7.83204 0.636591 7.91718 0.573513 8.01242 0.529668C8.10766 0.485822 8.21095 0.462157 8.31578 0.46016C8.42061 0.458163 8.52472 0.477878 8.62156 0.518065C8.7184 0.558252 8.80588 0.618042 8.8785 0.693674L8.8971 0.714934L13.1053 5.38948C13.2489 5.55636 13.3263 5.77013 13.3229 5.99028C13.3195 6.21044 13.2354 6.42169 13.0867 6.58402C13.0161 6.6584 12.931 6.71734 12.8365 6.75714C12.742 6.79693 12.6404 6.81671 12.5379 6.81523H10.3667ZM6.64886 13.0417H9.97605C10.1913 13.0417 10.3667 13.2278 10.3667 13.4603C10.3667 13.6902 10.1913 13.8789 9.97605 13.8789H6.64886C6.4336 13.8789 6.25821 13.6902 6.25821 13.4603C6.25821 13.2304 6.4336 13.0417 6.64886 13.0417ZM6.64886 14.7186H9.97605C10.1913 14.7186 10.3667 14.9047 10.3667 15.1372C10.3667 15.3684 10.1913 15.5571 9.97605 15.5571H6.64886C6.4336 15.5571 6.25821 15.3684 6.25821 15.1372C6.25821 14.9073 6.4336 14.7186 6.64886 14.7186Z" fill="#2AB26C"/>
</svg>