<svg width="24" height="24" viewBox="0 0 24 24" fill="none" xmlns="http://www.w3.org/2000/svg">
<g id="icon_search">
<path id="Vector" d="M20.7534 19.6199L17.7588 16.6253C20.4631 13.3503 20.284 8.49439 17.2197 5.43003C15.5918 3.80219 13.4583 2.98829 11.3248 2.98829C9.19125 2.98829 7.05774 3.80219 5.42989 5.43003C2.17425 8.68568 2.17425 13.9641 5.42989 17.2198C7.05774 18.8476 9.19125 19.6615 11.3248 19.6615C13.2076 19.6615 15.0899 19.0267 16.6251 17.7589L19.6197 20.7535C19.7763 20.91 19.9814 20.9883 20.1866 20.9883C20.3917 20.9883 20.5969 20.91 20.7534 20.7535C21.0664 20.4405 21.0664 19.9329 20.7534 19.6199ZM11.3248 18.0583C9.52623 18.0583 7.83532 17.3579 6.56353 16.0862C3.93819 13.4608 3.93819 9.18901 6.56353 6.56367C7.8353 5.2919 9.52621 4.59149 11.3248 4.59149C13.1234 4.59149 14.8143 5.2919 16.086 6.56367C18.7114 9.18901 18.7114 13.4608 16.086 16.0862C14.8143 17.3579 13.1234 18.0583 11.3248 18.0583Z" />
</g>
</svg>
