<svg width="40" height="40" viewBox="0 0 40 40" fill="none" xmlns="http://www.w3.org/2000/svg">
<g id="&#232;&#181;&#132;&#233;&#135;&#145;&#229;&#136;&#146;&#232;&#189;&#172; 2">
<path id="Union" fill-rule="evenodd" clip-rule="evenodd" d="M31.4717 15.197C30.8414 13.7771 29.9365 12.4958 28.8091 11.4269C27.6763 10.3487 26.3487 9.49575 24.8972 8.91352C23.3842 8.3062 21.7684 7.99615 20.1381 8.00033C16.934 7.97692 13.8486 9.21168 11.5453 11.4392C10.4171 12.5316 9.52152 13.841 8.91228 15.2884C8.30305 16.7359 7.99278 18.2916 8.00013 19.862C7.99869 21.4731 8.32043 23.0681 8.94632 24.5527C9.55367 25.9935 10.4318 27.3045 11.5331 28.4145C12.6582 29.5523 13.9981 30.4552 15.4751 31.0707C16.9521 31.6863 18.5367 32.0021 20.1369 32C21.7747 32.0007 23.3961 31.6723 24.9045 31.0342C26.3635 30.4204 27.6915 29.5328 28.8165 28.4194C29.9428 27.3158 30.8445 26.0043 31.4717 24.5576C32.1174 23.0742 32.4504 21.4737 32.4497 19.8559C32.4536 18.2516 32.1204 16.6644 31.4717 15.197ZM20.1369 30.0856C17.4262 30.0827 14.8274 29.0047 12.9105 27.088C10.9936 25.1714 9.91532 22.5727 9.91208 19.862C9.91672 18.5337 10.1865 17.2197 10.7056 15.997C11.2247 14.7743 11.9827 13.6675 12.9352 12.7416C13.8876 11.8157 15.0153 11.0893 16.2522 10.6049C17.4891 10.1205 18.8102 9.88796 20.1381 9.92084C22.8329 9.86637 25.4394 10.882 27.3869 12.7452C29.3345 14.6084 30.4644 17.1675 30.5292 19.862C30.4712 22.5845 29.3524 25.1767 27.4112 27.0863C25.4701 28.996 22.8599 30.0722 20.1369 30.0856ZM24.8569 17.5733H17.7787L18.599 16.8215C18.7502 16.6812 18.8399 16.487 18.8486 16.2809C18.8573 16.0749 18.7843 15.8738 18.6455 15.7213L18.6039 15.6748C18.4636 15.5236 18.2694 15.4339 18.0633 15.4252C17.8573 15.4165 17.6562 15.4895 17.5037 15.6284L15.1211 17.8129C14.9699 17.9532 14.8802 18.1474 14.8715 18.3535C14.8628 18.5595 14.9358 18.7607 15.0746 18.9132L15.1162 18.9596C15.2056 19.0571 15.318 19.1306 15.4432 19.1733C15.5683 19.216 15.7022 19.2266 15.8325 19.2041H24.8605C25.0677 19.2031 25.2662 19.1204 25.4127 18.9739C25.5592 18.8274 25.642 18.6289 25.6429 18.4217V18.3594C25.6429 18.2561 25.6226 18.1539 25.5831 18.0586C25.5436 17.9632 25.4857 17.8765 25.4127 17.8035C25.3397 17.7306 25.253 17.6727 25.1577 17.6332C25.0623 17.5936 24.9601 17.5733 24.8569 17.5733ZM25.0066 20.5477C25.1318 20.5904 25.2442 20.6639 25.3336 20.7614L25.3715 20.8042C25.5103 20.9567 25.5833 21.1578 25.5746 21.3638C25.5659 21.5699 25.4762 21.7641 25.3251 21.9044L22.9425 24.0889C22.79 24.2278 22.5888 24.3008 22.3828 24.2921C22.1768 24.2834 21.9825 24.1937 21.8422 24.0425L21.8007 23.996C21.6619 23.8435 21.5889 23.6424 21.5976 23.4364C21.6063 23.2303 21.6959 23.0361 21.8471 22.8958L22.6674 22.144H15.5893C15.3821 22.143 15.1836 22.0603 15.0371 21.9138C14.8906 21.7672 14.8078 21.5688 14.8069 21.3616V21.2993C14.8078 21.092 14.8906 20.8936 15.0371 20.7471C15.1836 20.6006 15.3821 20.5178 15.5893 20.5169H24.6173C24.7476 20.4944 24.8815 20.505 25.0066 20.5477Z" fill="#07828B"/>
</g>
</svg>
