<svg width="62" height="60" viewBox="0 0 62 60" fill="none" xmlns="http://www.w3.org/2000/svg">
<g id="&#233;&#146;&#137;&#233;&#146;&#137;01 1">
<path id="Vector" opacity="0.15" fill-rule="evenodd" clip-rule="evenodd" d="M15 12.5C15 9.73869 17.2385 7.5 19.9998 7.5C22.7612 7.5 24.9997 9.73869 24.9997 12.5H49.9995V52.5H15H10.0684C12.7982 52.4634 15 50.2391 15 47.5004V30.0004V12.5ZM40.328 23.4211L43.8636 26.9567V18.1178H35.0247L38.5603 21.6534L19.9998 40.2138L21.7676 41.9816L40.328 23.4211ZM44.9998 46.2504H46.2497V38.7504H43.7497V44.3822H19.9998V46.8822H44.9998V46.2504ZM22.4998 18.1178H19.9998V20.6178H22.4998V18.1178ZM19.9998 23.1178H22.4998V25.6178H19.9998V23.1178ZM22.4998 28.1178H19.9998V30.6178H22.4998V28.1178ZM43.7497 48.7504V51.2504H46.2497V48.7504H43.7497Z" fill="#717171"/>
<path id="Vector_2" opacity="0.5" fill-rule="evenodd" clip-rule="evenodd" d="M24.9999 12.5H54.9999V10C54.9999 8.61931 53.8806 7.5 52.4999 7.5H20C22.7614 7.5 24.9999 9.73869 24.9999 12.5Z" fill="#A5A8AC"/>
<path id="Vector_3" fill-rule="evenodd" clip-rule="evenodd" d="M45 35.0005C39.4771 35.0005 35 39.4777 35 45.0005C35 50.5234 39.4771 55.0005 45 55.0005C50.5229 55.0005 55 50.5234 55 45.0005C55 39.4777 50.5229 35.0005 45 35.0005ZM43.75 38.7505V46.2505H46.25V38.7505H43.75ZM43.75 48.7505V51.2505H46.25V48.7505H43.75Z" fill="#07828B"/>
</g>
</svg>
