<svg width="41" height="40" viewBox="0 0 41 40" fill="none" xmlns="http://www.w3.org/2000/svg">
<g id="copy_link" clip-path="url(#clip0_1635_9566)">
<path id="Vector" d="M0.400391 20C0.400391 25.3043 2.50753 30.3914 6.25826 34.1421C10.009 37.8929 15.0961 40 20.4004 40C25.7047 40 30.7918 37.8929 34.5425 34.1421C38.2933 30.3914 40.4004 25.3043 40.4004 20C40.4004 14.6957 38.2933 9.60859 34.5425 5.85786C30.7918 2.10714 25.7047 0 20.4004 0C15.0961 0 10.009 2.10714 6.25826 5.85786C2.50753 9.60859 0.400391 14.6957 0.400391 20Z" fill="#F23D3D"/>
<path id="Vector_2" d="M18.8912 20.8745C19.1357 21.0934 19.2734 21.3989 19.2734 21.7178C19.2734 22.0367 19.1357 22.3423 18.8912 22.5623C18.3834 23.0434 17.499 23.1623 16.9912 22.68C16.5442 22.2638 16.1872 21.7604 15.9422 21.2008C15.6972 20.6413 15.5695 20.0375 15.5668 19.4267C15.5668 18.2056 16.0801 17.0345 16.9923 16.1745L22.0646 11.3556C22.9885 10.4803 24.2141 9.99484 25.4868 10C26.7723 10 28.0046 10.4889 28.909 11.3556C30.8112 13.1634 30.9368 15.9334 29.0346 17.74L27.5146 19.1867C27.0079 19.6689 26.2479 19.6689 25.6146 19.0656C24.9812 18.4634 25.1068 17.8612 25.6146 17.3789L27.1357 15.9334C28.0212 15.0912 27.8934 13.7645 27.1357 13.04C26.3746 12.3167 24.8512 12.0767 23.9646 12.9234L18.8946 17.74C18.6842 17.9432 18.5169 18.1866 18.4026 18.4557C18.2884 18.7249 18.2295 19.0143 18.2295 19.3067C18.2295 19.5991 18.2884 19.8885 18.4026 20.1577C18.5169 20.4269 18.6842 20.6703 18.8946 20.8734H18.8901H18.8912V20.8745ZM20.7957 19.0656C20.289 18.5845 20.289 17.8612 20.9212 17.26C21.5546 16.6589 22.1879 16.7767 22.6968 17.26C23.1437 17.6762 23.5006 18.1794 23.7456 18.7387C23.9906 19.2981 24.1184 19.9016 24.1212 20.5123C24.1212 21.7334 23.6079 22.9045 22.6968 23.7645L17.6257 28.5834C15.7257 30.3889 12.5557 30.5123 10.6534 28.7023C8.75123 26.8934 8.879 23.8834 10.7812 22.0767L12.3034 20.6312C12.809 20.1478 13.6979 20.0289 14.2023 20.5112C14.709 20.9923 14.5846 21.8345 14.0779 22.3167L12.5557 23.7645C12.3452 23.9673 12.1779 24.2105 12.0635 24.4795C11.9492 24.7485 11.8903 25.0378 11.8903 25.33C11.8903 25.6223 11.9492 25.9116 12.0635 26.1806C12.1779 26.4496 12.3452 26.6928 12.5557 26.8956C13.4423 27.74 14.8379 27.6178 15.7257 26.7767L20.7957 21.9556C21.6812 21.1123 21.6812 19.9078 20.7957 19.0645V19.0656Z" fill="white"/>
</g>
<defs>
<clipPath id="clip0_1635_9566">
<rect width="40" height="40" fill="white" transform="translate(0.400391)"/>
</clipPath>
</defs>
</svg>
