<svg width="40" height="40" viewBox="0 0 40 40" fill="none" xmlns="http://www.w3.org/2000/svg">
<g id="save_img" clip-path="url(#clip0_1635_9561)">
<path id="Vector" d="M40 20C40 31.046 31.046 40 20 40C8.954 40 0 31.046 0 20C0 8.954 8.954 0 20 0C31.046 0 40 8.954 40 20Z" fill="#FFA229"/>
<path id="Vector_2" d="M20 10C20.2652 10 20.5196 10.1054 20.7071 10.2929C20.8946 10.4804 21 10.7348 21 11V20.586L24.293 17.293C24.4816 17.1108 24.7342 17.01 24.9964 17.0123C25.2586 17.0146 25.5094 17.1198 25.6948 17.3052C25.8802 17.4906 25.9854 17.7414 25.9877 18.0036C25.99 18.2658 25.8892 18.5184 25.707 18.707L20.707 23.707C20.5195 23.8945 20.2652 23.9998 20 23.9998C19.7348 23.9998 19.4805 23.8945 19.293 23.707L14.293 18.707C14.1108 18.5184 14.01 18.2658 14.0123 18.0036C14.0146 17.7414 14.1198 17.4906 14.3052 17.3052C14.4906 17.1198 14.7414 17.0146 15.0036 17.0123C15.2658 17.01 15.5184 17.1108 15.707 17.293L19 20.586V11C19 10.7348 19.1054 10.4804 19.2929 10.2929C19.4804 10.1054 19.7348 10 20 10ZM11 22C11.1313 22 11.2614 22.0259 11.3827 22.0761C11.504 22.1264 11.6142 22.2 11.7071 22.2929C11.8 22.3858 11.8736 22.496 11.9239 22.6173C11.9741 22.7386 12 22.8687 12 23V24.2C12 25.057 12 25.639 12.038 26.089C12.073 26.527 12.138 26.752 12.218 26.908C12.4097 27.2843 12.7157 27.5903 13.092 27.782C13.248 27.862 13.472 27.927 13.911 27.962C14.361 27.999 14.943 28 15.8 28H24.2C25.057 28 25.639 28 26.089 27.962C26.527 27.927 26.752 27.862 26.908 27.782C27.2843 27.5903 27.5903 27.2843 27.782 26.908C27.862 26.752 27.927 26.528 27.962 26.089C27.999 25.639 28 25.057 28 24.2V23C28 22.7348 28.1054 22.4804 28.2929 22.2929C28.4804 22.1054 28.7348 22 29 22C29.2652 22 29.5196 22.1054 29.7071 22.2929C29.8946 22.4804 30 22.7348 30 23V24.241C30 25.046 30 25.711 29.956 26.251C29.91 26.814 29.811 27.331 29.564 27.816C29.1805 28.5686 28.5686 29.1805 27.816 29.564C27.331 29.811 26.814 29.91 26.252 29.956C25.711 30 25.046 30 24.242 30H15.759C14.954 30 14.289 30 13.749 29.956C13.186 29.91 12.669 29.811 12.184 29.564C11.4314 29.1805 10.8195 28.5686 10.436 27.816C10.189 27.331 10.09 26.814 10.044 26.252C10 25.71 10 25.046 10 24.242V23C10 22.7348 10.1054 22.4804 10.2929 22.2929C10.4804 22.1054 10.7348 22 11 22Z" fill="white"/>
</g>
<defs>
<clipPath id="clip0_1635_9561">
<rect width="40" height="40" fill="white"/>
</clipPath>
</defs>
</svg>
