<svg xmlns="http://www.w3.org/2000/svg" width="24" height="24" viewBox="0 0 24 24" fill="none">
<circle cx="12" cy="12" r="12" fill="#07828B"/>
<path fill-rule="evenodd" clip-rule="evenodd" d="M15.8301 13.2647C16.5545 13.8191 16.9974 14.6711 17.0385 15.5893V15.5901H15.8301V15.5981H8.53259V15.5901H7.32422C7.36508 14.6718 7.80802 13.8197 8.53259 13.2655V10.6999C8.53259 9.21767 9.58017 7.97159 10.9643 7.67802V7.61898C10.9643 6.94249 11.5121 6.38965 12.1814 6.38965C12.8506 6.38965 13.3984 6.94249 13.3984 7.61818V7.67722C14.7826 7.97159 15.8301 9.21847 15.8301 10.6999V13.2647ZM12.2263 17.8182H12.1396C11.355 17.8167 10.6932 17.2265 10.5931 16.4389H13.7728C13.6767 17.2135 13.0185 17.8182 12.2263 17.8182Z" fill="white"/>
</svg>