<svg width="16" height="16" viewBox="0 0 16 16" fill="none" xmlns="http://www.w3.org/2000/svg">
<path d="M3.48752 8.88795H1.81059C1.63506 8.88795 1.53657 9.09007 1.64474 9.22831L5.00246 13.5196C5.08677 13.6273 5.24984 13.6273 5.33416 13.5196L8.69252 9.22833C8.80071 9.09009 8.70222 8.88795 8.52669 8.88795H6.43329C6.45898 5.2317 7.15327 3.55871 7.74563 2.76824C7.86175 2.61328 7.75639 2.37239 7.5652 2.40306C4.83282 2.84127 3.55915 6.50006 3.48752 8.88795Z" fill="#F04E3F"/>
<path d="M12.9362 7.3113L14.2368 7.3113C14.3729 7.3113 14.4493 7.15454 14.3654 7.04733L11.7613 3.7192C11.6959 3.63564 11.5694 3.63563 11.504 3.71919L8.89937 7.04731C8.81547 7.15452 8.89185 7.3113 9.02799 7.3113L10.6516 7.3113C10.6316 10.1469 10.0932 11.4444 9.63375 12.0575C9.54369 12.1777 9.6254 12.3645 9.77369 12.3407C11.8928 12.0008 12.8806 9.16324 12.9362 7.3113Z" fill="#141717"/>
</svg>
