<svg width="64" height="64" viewBox="0 0 64 64" fill="none" xmlns="http://www.w3.org/2000/svg">
<path d="M53.016 20.0171H2.37012V51.9741H53.016V20.0171Z" fill="#C5C5C4"/>
<path d="M48.2338 14.3834H2.37012V20.017H48.2338V14.3834Z" fill="#9E9E9D"/>
<path d="M2.38379 9.67218H17.667L22.4491 14.3692H2.38379V9.67218Z" fill="#C5C5C4"/>
<path d="M38.6693 26.5873H29.1191V29.4112H38.6693V26.5873Z" fill="#9E9E9D"/>
<path d="M47.2688 32.235H29.1191V35.059H47.2688V32.235Z" fill="white"/>
<path d="M47.2688 37.8687H29.1191V40.6926H47.2688V37.8687Z" fill="white"/>
<path d="M47.2688 43.5165H29.1191V46.3404H47.2688V43.5165Z" fill="white"/>
<path d="M24.3369 26.5873H9.05371V46.3262H24.3369V26.5873Z" fill="white"/>
<path d="M17.1845 37.8687C19.5592 37.8687 21.4842 35.9754 21.4842 33.6399C21.4842 31.3044 19.5592 29.4111 17.1845 29.4111C14.8098 29.4111 12.8848 31.3044 12.8848 33.6399C12.8848 35.9754 14.8098 37.8687 17.1845 37.8687Z" fill="#FFD30F"/>
<path d="M13.4953 39.7418H9.05371V46.3262H24.3369V39.7418H20.3919L16.9436 43.034L13.4953 39.7418Z" fill="#9E9E9D"/>
<path d="M51.1004 53.6769C55.5832 53.6769 59.2173 50.1 59.2173 45.6877C59.2173 41.2753 55.5832 37.6984 51.1004 37.6984C46.6175 37.6984 42.9834 41.2753 42.9834 45.6877C42.9834 50.1 46.6175 53.6769 51.1004 53.6769Z" fill="#202323"/>
<path fill-rule="evenodd" clip-rule="evenodd" d="M51.1004 57.0117C53.2096 56.9781 55.2618 56.3218 56.9991 55.1253C58.7364 53.9287 60.0813 52.2453 60.8646 50.2867C61.648 48.3281 61.8349 46.1815 61.4019 44.117C60.9688 42.0524 59.9352 40.1619 58.4309 38.6831C56.9265 37.2043 55.0186 36.2032 52.9469 35.8056C50.8753 35.4079 48.7323 35.6316 46.7873 36.4483C44.8424 37.2651 43.1823 38.6385 42.0157 40.3961C40.849 42.1536 40.2279 44.2168 40.2305 46.3262C40.2567 49.1841 41.4162 51.9147 43.4543 53.9182C45.4925 55.9217 48.2425 57.0344 51.1004 57.0117ZM56.7766 43.2469C56.9299 43.0691 57.0109 42.8403 57.0035 42.6057C56.9961 42.3711 56.9009 42.1478 56.7367 41.9801C56.5725 41.8124 56.3513 41.7124 56.117 41.6999C55.8826 41.6875 55.6521 41.7635 55.4711 41.913L49.7949 47.4615L46.7865 44.5099C46.611 44.3357 46.3738 44.2379 46.1266 44.2379C45.8794 44.2379 45.6422 44.3357 45.4668 44.5099C45.3788 44.5958 45.3089 44.6984 45.2612 44.8117C45.2135 44.925 45.1889 45.0468 45.1889 45.1697C45.1889 45.2927 45.2135 45.4144 45.2612 45.5277C45.3089 45.641 45.3788 45.7436 45.4668 45.8296L49.1279 49.434C49.3027 49.6039 49.5369 49.6989 49.7807 49.6989C50.0244 49.6989 50.2586 49.6039 50.4334 49.434L56.7766 43.2469Z" fill="#FFD30F"/>
<path d="M11.7641 53.8472L14.4603 56.5008L11.7641 59.1686L9.05371 56.5008L11.7641 53.8472Z" fill="#D9D9D9"/>
<path d="M28.7919 5.9259L31.5023 8.57952L28.7919 11.2473L26.0957 8.57952L28.7919 5.9259Z" fill="#D9D9D9"/>
<path d="M57.6989 30.3477H55.7832V32.2209H57.6989V30.3477Z" fill="#D9D9D9"/>
</svg>
