<svg width="20" height="20" viewBox="0 0 20 20" fill="none" xmlns="http://www.w3.org/2000/svg">
<path fill-rule="evenodd" clip-rule="evenodd" d="M17.6942 7.3844C18.1259 7.3844 18.463 7.73977 18.5669 8.28931C18.5744 8.32798 18.75 9.25794 18.75 10.0036C18.75 10.7483 18.5744 11.6779 18.5669 11.7163C18.463 12.2662 18.1253 12.6219 17.7066 12.6219H17.6194C16.4528 12.6219 15.504 13.5707 15.504 14.7372C15.504 15.1032 15.6744 15.5108 15.6883 15.5441L15.6889 15.5456C15.9035 16.0284 15.7377 16.6209 15.3023 16.9252L15.2696 16.9463L13.0428 18.1735C12.9018 18.234 12.7478 18.2663 12.5851 18.2663C12.2369 18.2663 11.8967 18.1202 11.6753 17.8778C11.4353 17.613 10.6021 16.8597 9.95515 16.8597C9.3583 16.8597 8.54552 17.5327 8.24556 17.8568C7.92082 18.2118 7.32024 18.3392 6.87613 18.1438L6.84335 18.1289L4.69583 16.924C4.26164 16.6209 4.0971 16.0284 4.31172 15.5431L4.31175 15.5431C4.31905 15.5258 4.49604 15.1078 4.49604 14.7372C4.49604 13.5707 3.54721 12.6218 2.38069 12.6218H2.30583C1.87411 12.6218 1.53701 12.2662 1.4331 11.7163C1.42536 11.6779 1.25 10.7483 1.25 10.0036C1.25 9.25796 1.42536 8.328 1.4331 8.28933C1.53701 7.73977 1.87411 7.38443 2.29225 7.38443H2.38069C3.54721 7.38443 4.49604 6.43562 4.49604 5.26875C4.49604 4.90022 4.32326 4.48953 4.3115 4.46157L4.31111 4.46064C4.09708 3.97819 4.26284 3.38472 4.69829 3.08133L4.73232 3.05967L6.99921 1.81766C7.44208 1.62809 8.03526 1.75672 8.36122 2.09939C8.59872 2.34773 9.41516 3.05658 10.0449 3.05658C10.6665 3.05658 11.4811 2.36167 11.7174 2.11795C12.0439 1.77777 12.6433 1.65622 13.0812 1.84613L13.1134 1.86187L15.3023 3.08068C15.7377 3.38528 15.9029 3.97878 15.6877 4.46308L15.687 4.4647C15.6734 4.49772 15.504 4.90797 15.504 5.26872C15.504 6.4356 16.4528 7.3844 17.6193 7.3844H17.6942ZM6.84894 9.99148C6.84894 8.27506 8.24556 6.87842 9.96198 6.87842C11.6784 6.87842 13.075 8.27506 13.075 9.99148C13.075 11.7082 11.6784 13.1042 9.96198 13.1042C8.24558 13.1042 6.84894 11.7082 6.84894 9.99148Z" fill="white"/>
</svg>
