<svg width="24" height="24" viewBox="0 0 24 24" fill="none" xmlns="http://www.w3.org/2000/svg">
<g id="icon_menu">
<path id="Union" fill-rule="evenodd" clip-rule="evenodd" d="M3.66667 4H20.1111C20.2879 4 20.4575 4.07024 20.5825 4.19526C20.7075 4.32029 20.7778 4.48986 20.7778 4.66667C20.7778 4.84348 20.7075 5.01305 20.5825 5.13807C20.4575 5.2631 20.2879 5.33333 20.1111 5.33333H3.66667C3.48986 5.33333 3.32029 5.2631 3.19526 5.13807C3.07024 5.01305 3 4.84348 3 4.66667C3 4.48986 3.07024 4.32029 3.19526 4.19526C3.32029 4.07024 3.48986 4 3.66667 4ZM3.66667 8.88889H20.1111C20.2879 8.88889 20.4575 8.95913 20.5825 9.08415C20.7075 9.20918 20.7778 9.37875 20.7778 9.55556C20.7778 9.73237 20.7075 9.90194 20.5825 10.027C20.4575 10.152 20.2879 10.2222 20.1111 10.2222H3.66667C3.48986 10.2222 3.32029 10.152 3.19526 10.027C3.07024 9.90194 3 9.73237 3 9.55556C3 9.37875 3.07024 9.20918 3.19526 9.08415C3.32029 8.95913 3.48986 8.88889 3.66667 8.88889ZM3.66667 13.7778H20.1111C20.2879 13.7778 20.4575 13.848 20.5825 13.973C20.7075 14.0981 20.7778 14.2676 20.7778 14.4444C20.7778 14.6213 20.7075 14.7908 20.5825 14.9158C20.4575 15.0409 20.2879 15.1111 20.1111 15.1111H3.66667C3.48986 15.1111 3.32029 15.0409 3.19526 14.9158C3.07024 14.7908 3 14.6213 3 14.4444C3 14.2676 3.07024 14.0981 3.19526 13.973C3.32029 13.848 3.48986 13.7778 3.66667 13.7778ZM3.66667 18.6667H20.1111C20.2879 18.6667 20.4575 18.7369 20.5825 18.8619C20.7075 18.987 20.7778 19.1565 20.7778 19.3333C20.7778 19.5101 20.7075 19.6797 20.5825 19.8047C20.4575 19.9298 20.2879 20 20.1111 20H3.66667C3.48986 20 3.32029 19.9298 3.19526 19.8047C3.07024 19.6797 3 19.5101 3 19.3333C3 19.1565 3.07024 18.987 3.19526 18.8619C3.32029 18.7369 3.48986 18.6667 3.66667 18.6667Z" fill="white" stroke="white" stroke-width="0.266667"/>
</g>
</svg>
