<svg width="40" height="40" viewBox="0 0 40 40" fill="none" xmlns="http://www.w3.org/2000/svg">
<path fill-rule="evenodd" clip-rule="evenodd" d="M14.1285 15.0139C14.0463 14.9799 13.9716 14.9299 13.9089 14.8668L13.1848 14.1423C13.058 14.0152 12.9869 13.843 12.9869 13.6635C12.9869 13.484 13.058 13.3119 13.1848 13.1848C13.3126 13.0567 13.4827 12.9864 13.6634 12.9864C13.7524 12.9862 13.8404 13.0036 13.9226 13.0376C14.0048 13.0716 14.0794 13.1216 14.1421 13.1846L14.8668 13.9085C14.9947 14.0367 15.0652 14.2068 15.0652 14.3876C15.0654 14.4766 15.0479 14.5647 15.0139 14.6469C14.9798 14.7291 14.9299 14.8038 14.8668 14.8666C14.7384 14.9947 14.5683 15.0652 14.3878 15.0652C14.2988 15.0654 14.2107 15.048 14.1285 15.0139ZM11.1147 19.3229H12.1385C12.318 19.3231 12.4901 19.3945 12.6171 19.5215C12.7441 19.6484 12.8155 19.8205 12.8158 20C12.8155 20.1795 12.7441 20.3516 12.6171 20.4785C12.4901 20.6054 12.318 20.6767 12.1385 20.6769H11.1147C10.9352 20.6767 10.7631 20.6054 10.6362 20.4785C10.5092 20.3516 10.4377 20.1795 10.4375 20C10.4377 19.8205 10.5092 19.6484 10.6361 19.5215C10.7631 19.3945 10.9352 19.3231 11.1147 19.3229ZM13.9087 25.1332C14.0368 25.0051 14.207 24.9346 14.3878 24.9346C14.4767 24.9345 14.5648 24.9519 14.647 24.9859C14.7292 25.02 14.8038 25.07 14.8666 25.133C14.9945 25.2609 15.0648 25.4309 15.0648 25.6121C15.0651 25.7011 15.0478 25.7892 15.0138 25.8715C14.9798 25.9538 14.9298 26.0285 14.8668 26.0913L14.1423 26.8151C14.0141 26.9431 13.844 27.0134 13.6634 27.0134C13.5745 27.0137 13.4864 26.9963 13.4042 26.9622C13.322 26.9282 13.2474 26.8782 13.1848 26.8151C13.058 26.688 12.9869 26.5158 12.9869 26.3364C12.9869 26.1569 13.058 25.9848 13.1848 25.8577L13.9087 25.1332ZM20.6771 12.1385C20.6769 12.5118 20.3731 12.8156 20 12.8156C19.8205 12.8152 19.6485 12.7437 19.5216 12.6168C19.3947 12.4899 19.3232 12.318 19.3228 12.1385V11.1146C19.3228 10.7413 19.6267 10.4375 20 10.4375C20.3733 10.4375 20.6771 10.7413 20.6771 11.1146V12.1385ZM25.8716 24.986C25.9539 25.0201 26.0285 25.0701 26.0913 25.1332L26.8151 25.8579C26.9418 25.985 27.0129 26.1571 27.0129 26.3366C27.0129 26.516 26.9418 26.6882 26.8151 26.8153C26.687 26.9433 26.5171 27.0136 26.3364 27.0136C26.2474 27.0139 26.1592 26.9965 26.077 26.9625C25.9948 26.9284 25.9202 26.8784 25.8575 26.8153L25.133 26.0915C25.0051 25.9634 24.9348 25.7932 24.9348 25.6122C24.9346 25.5233 24.952 25.4351 24.986 25.3529C25.02 25.2707 25.07 25.196 25.133 25.1332C25.2614 25.0051 25.4315 24.9346 25.6122 24.9346C25.7013 24.9345 25.7894 24.9519 25.8716 24.986ZM19.5214 27.3828C19.6484 27.2558 19.8205 27.1844 20 27.1842C20.3733 27.1842 20.6771 27.4882 20.6771 27.8613V28.8853C20.6771 29.2586 20.3733 29.5623 20 29.5623C19.6267 29.5623 19.3228 29.2586 19.3228 28.8853V27.8613C19.323 27.6818 19.3944 27.5097 19.5214 27.3828ZM27.8615 19.3229H28.8854C29.0649 19.3231 29.237 19.3945 29.364 19.5215C29.4909 19.6484 29.5623 19.8205 29.5625 20C29.5623 20.1795 29.4909 20.3516 29.364 20.4785C29.237 20.6054 29.0649 20.6767 28.8854 20.6769H27.8615C27.682 20.6767 27.5099 20.6053 27.383 20.4783C27.2561 20.3514 27.1848 20.1793 27.1846 19.9998C27.1848 19.8204 27.2562 19.6483 27.3831 19.5214C27.51 19.3945 27.682 19.3231 27.8615 19.3229ZM26.0773 13.0377C26.1595 13.0037 26.2476 12.9863 26.3366 12.9866C26.4255 12.9863 26.5136 13.0037 26.5958 13.0378C26.678 13.0718 26.7526 13.1218 26.8153 13.1849C26.942 13.3121 27.0131 13.4842 27.0131 13.6637C27.0131 13.8432 26.942 14.0154 26.8153 14.1425L26.0915 14.867C25.9631 14.9949 25.7928 15.0654 25.6124 15.0654C25.5234 15.0655 25.4352 15.0481 25.353 15.0141C25.2707 14.98 25.196 14.93 25.1332 14.867C25.0051 14.7386 24.9346 14.5683 24.9346 14.3878C24.9344 14.2987 24.9519 14.2106 24.9859 14.1283C25.02 14.0461 25.0701 13.9715 25.1332 13.9087L25.8577 13.1848C25.9205 13.1217 25.9951 13.0717 26.0773 13.0377ZM13.1797 20.0001C13.1797 16.2394 16.2393 13.1799 20 13.1799C23.7609 13.1799 26.8203 16.2394 26.8203 20.0001C26.8203 23.7609 23.7609 26.8204 20 26.8204C16.2393 26.8204 13.1797 23.7609 13.1797 20.0001ZM14.534 20.0001C14.534 23.0141 16.9859 25.4661 20 25.4661C23.0141 25.4661 25.466 23.0141 25.466 20.0001C25.466 16.9862 23.0141 14.5341 20 14.5341C16.9861 14.5341 14.534 16.986 14.534 20.0001Z" fill="#2B2F33"/>
<path d="M13.9089 14.8668L13.9798 14.7963L13.9796 14.7961L13.9089 14.8668ZM13.1848 14.1423L13.1139 14.2129L13.114 14.213L13.1848 14.1423ZM13.1848 13.1848L13.114 13.1141L13.1139 13.1142L13.1848 13.1848ZM13.6634 12.9864V13.0864L13.6637 13.0864L13.6634 12.9864ZM14.1421 13.1846L14.0713 13.2551L14.0715 13.2553L14.1421 13.1846ZM14.8668 13.9085L14.9376 13.8379L14.9375 13.8378L14.8668 13.9085ZM15.0652 14.3876H14.9652L14.9652 14.3878L15.0652 14.3876ZM15.0139 14.6469L14.9215 14.6087L15.0139 14.6469ZM14.8668 14.8666L14.7962 14.7958L14.7962 14.7958L14.8668 14.8666ZM14.3878 15.0652V14.9652L14.3875 14.9652L14.3878 15.0652ZM12.1385 19.3229L12.1386 19.2229H12.1385V19.3229ZM11.1147 19.3229V19.2229H11.1146L11.1147 19.3229ZM12.6171 19.5215L12.6878 19.4507H12.6878L12.6171 19.5215ZM12.8158 20L12.9158 20.0001L12.9158 19.9999L12.8158 20ZM12.6171 20.4785L12.5464 20.4078H12.5464L12.6171 20.4785ZM12.1385 20.6769V20.7769H12.1386L12.1385 20.6769ZM11.1147 20.6769L11.1147 20.7769H11.1147V20.6769ZM10.6362 20.4785L10.7068 20.4078H10.7068L10.6362 20.4785ZM10.4375 20L10.3375 19.9999L10.3375 20.0001L10.4375 20ZM10.6361 19.5215L10.5654 19.4507H10.5654L10.6361 19.5215ZM14.3878 24.9346V25.0346L14.3879 25.0346L14.3878 24.9346ZM13.9087 25.1332L13.838 25.0625L13.8379 25.0625L13.9087 25.1332ZM14.647 24.9859L14.6853 24.8936V24.8936L14.647 24.9859ZM14.8666 25.133L14.7958 25.2036L14.7959 25.2037L14.8666 25.133ZM15.0648 25.6121H14.9648L14.9648 25.6124L15.0648 25.6121ZM15.0138 25.8715L15.1062 25.9097L15.1062 25.9097L15.0138 25.8715ZM14.8668 26.0913L14.7962 26.0205L14.7961 26.0206L14.8668 26.0913ZM14.1423 26.8151L14.213 26.8858L14.213 26.8858L14.1423 26.8151ZM13.6634 27.0134V26.9134H13.6632L13.6634 27.0134ZM13.1848 26.8151L13.2557 26.7446L13.2556 26.7445L13.1848 26.8151ZM13.1848 25.8577L13.114 25.787L13.1139 25.7871L13.1848 25.8577ZM20 12.8156L19.9998 12.9156H20V12.8156ZM20.6771 12.1385L20.7771 12.1386V12.1385H20.6771ZM19.5216 12.6168L19.5923 12.5461V12.5461L19.5216 12.6168ZM19.3228 12.1385H19.2227L19.2228 12.1387L19.3228 12.1385ZM26.0913 25.1332L26.0204 25.2037L26.0206 25.2039L26.0913 25.1332ZM26.8151 25.8579L26.8859 25.7873L26.8858 25.7872L26.8151 25.8579ZM26.8151 26.8153L26.8858 26.886L26.8859 26.8859L26.8151 26.8153ZM26.3364 27.0136V26.9136H26.3361L26.3364 27.0136ZM25.8575 26.8153L25.9284 26.7448L25.9282 26.7445L25.8575 26.8153ZM25.133 26.0915L25.0622 26.1622L25.0623 26.1622L25.133 26.0915ZM24.9348 25.6122H25.0348L25.0348 25.612L24.9348 25.6122ZM24.986 25.3529L24.8936 25.3147L24.8936 25.3147L24.986 25.3529ZM25.133 25.1332L25.2036 25.204L25.2036 25.204L25.133 25.1332ZM25.6122 24.9346V25.0346L25.6124 25.0346L25.6122 24.9346ZM20 27.1842V27.0842H19.9999L20 27.1842ZM19.5214 27.3828L19.4507 27.312L19.5214 27.3828ZM19.3228 27.8613L19.2227 27.8612V27.8613H19.3228ZM28.8854 19.3229L28.8855 19.2229H28.8854V19.3229ZM27.8615 19.3229V19.2229H27.8614L27.8615 19.3229ZM29.364 19.5215L29.4347 19.4508V19.4508L29.364 19.5215ZM29.5625 20L29.6625 20.0001V19.9999L29.5625 20ZM29.364 20.4785L29.2933 20.4077L29.364 20.4785ZM28.8854 20.6769V20.7769H28.8855L28.8854 20.6769ZM27.8615 20.6769L27.8614 20.7769H27.8615V20.6769ZM27.1846 19.9998L27.0846 19.9997V19.9999L27.1846 19.9998ZM27.3831 19.5214L27.3124 19.4507V19.4507L27.3831 19.5214ZM26.3366 12.9866L26.3363 13.0866L26.3368 13.0866L26.3366 12.9866ZM26.0773 13.0377L26.039 12.9453L26.0773 13.0377ZM26.5958 13.0378L26.5575 13.1302V13.1302L26.5958 13.0378ZM26.8153 13.1849L26.7443 13.2554L26.7444 13.2555L26.8153 13.1849ZM26.8153 14.1425L26.886 14.2132L26.8861 14.2131L26.8153 14.1425ZM26.0915 14.867L26.1621 14.9379L26.1622 14.9377L26.0915 14.867ZM25.6124 15.0654V14.9654L25.6122 14.9654L25.6124 15.0654ZM25.353 15.0141L25.3912 14.9217L25.353 15.0141ZM25.1332 14.867L25.0624 14.9376L25.0624 14.9376L25.1332 14.867ZM24.9346 14.3878H25.0346L25.0346 14.3875L24.9346 14.3878ZM24.9859 14.1283L25.0783 14.1666L25.0783 14.1666L24.9859 14.1283ZM25.1332 13.9087L25.2037 13.9796L25.2039 13.9794L25.1332 13.9087ZM25.8577 13.1848L25.9284 13.2555L25.9286 13.2553L25.8577 13.1848ZM13.838 14.9374C13.9101 15.0098 13.9958 15.0672 14.0902 15.1063L14.1667 14.9215C14.0967 14.8925 14.0332 14.85 13.9798 14.7963L13.838 14.9374ZM13.114 14.213L13.8381 14.9375L13.9796 14.7961L13.2555 14.0716L13.114 14.213ZM12.8869 13.6635C12.8869 13.8695 12.9685 14.067 13.1139 14.2129L13.2556 14.0717C13.1475 13.9633 13.0869 13.8166 13.0869 13.6635H12.8869ZM13.1139 13.1142C12.9685 13.26 12.8869 13.4576 12.8869 13.6635H13.0869C13.0869 13.5105 13.1475 13.3637 13.2556 13.2553L13.1139 13.1142ZM13.6634 12.8864C13.4562 12.8864 13.2607 12.9672 13.114 13.1141L13.2555 13.2554C13.3646 13.1462 13.5092 13.0864 13.6634 13.0864V12.8864ZM13.9609 12.9452C13.8665 12.9061 13.7653 12.8861 13.6632 12.8864L13.6637 13.0864C13.7394 13.0862 13.8144 13.101 13.8843 13.13L13.9609 12.9452ZM14.213 13.114C14.1409 13.0416 14.0552 12.9843 13.9609 12.9452L13.8843 13.13C13.9543 13.159 14.0178 13.2015 14.0713 13.2551L14.213 13.114ZM14.9375 13.8378L14.2128 13.1138L14.0715 13.2553L14.7961 13.9792L14.9375 13.8378ZM15.1652 14.3876C15.1652 14.1802 15.0841 13.9848 14.9376 13.8379L14.796 13.9791C14.9053 14.0887 14.9652 14.2334 14.9652 14.3876H15.1652ZM15.1063 14.6852C15.1454 14.5908 15.1654 14.4895 15.1652 14.3874L14.9652 14.3878C14.9653 14.4636 14.9505 14.5386 14.9215 14.6087L15.1063 14.6852ZM14.9374 14.9375C15.0098 14.8653 15.0672 14.7796 15.1063 14.6852L14.9215 14.6087C14.8925 14.6787 14.8499 14.7423 14.7962 14.7958L14.9374 14.9375ZM14.3878 15.1652C14.5949 15.1652 14.7903 15.0841 14.9374 14.9374L14.7962 14.7958C14.6864 14.9053 14.5417 14.9652 14.3878 14.9652V15.1652ZM14.0902 15.1063C14.1846 15.1454 14.2858 15.1654 14.388 15.1652L14.3875 14.9652C14.3118 14.9654 14.2367 14.9505 14.1667 14.9215L14.0902 15.1063ZM12.1385 19.2229H11.1147V19.4229H12.1385V19.2229ZM12.6878 19.4507C12.5421 19.3051 12.3446 19.2232 12.1386 19.2229L12.1384 19.4229C12.2914 19.4231 12.4382 19.484 12.5464 19.5922L12.6878 19.4507ZM12.9158 19.9999C12.9155 19.7939 12.8335 19.5964 12.6878 19.4507L12.5464 19.5922C12.6546 19.7004 12.7155 19.8471 12.7158 20.0001L12.9158 19.9999ZM12.6878 20.5492C12.8335 20.4036 12.9155 20.2061 12.9158 20.0001L12.7158 19.9999C12.7155 20.1529 12.6546 20.2996 12.5464 20.4078L12.6878 20.5492ZM12.1386 20.7769C12.3446 20.7767 12.5421 20.6948 12.6878 20.5492L12.5464 20.4078C12.4382 20.5159 12.2914 20.5767 12.1384 20.5769L12.1386 20.7769ZM11.1147 20.7769H12.1385V20.5769H11.1147V20.7769ZM10.5655 20.5492C10.7112 20.6948 10.9087 20.7767 11.1147 20.7769L11.1148 20.5769C10.9618 20.5767 10.8151 20.5159 10.7068 20.4078L10.5655 20.5492ZM10.3375 20.0001C10.3378 20.2061 10.4198 20.4036 10.5655 20.5492L10.7068 20.4078C10.5986 20.2996 10.5377 20.1529 10.5375 19.9999L10.3375 20.0001ZM10.5654 19.4507C10.4198 19.5964 10.3378 19.7939 10.3375 19.9999L10.5375 20.0001C10.5377 19.8471 10.5986 19.7004 10.7068 19.5922L10.5654 19.4507ZM11.1146 19.2229C10.9086 19.2232 10.7111 19.3051 10.5654 19.4507L10.7068 19.5922C10.8151 19.484 10.9618 19.4231 11.1149 19.4229L11.1146 19.2229ZM14.3878 24.8346C14.1805 24.8346 13.9848 24.9157 13.838 25.0625L13.9794 25.2039C14.0887 25.0946 14.2335 25.0346 14.3878 25.0346V24.8346ZM14.6853 24.8936C14.5909 24.8545 14.4897 24.8344 14.3876 24.8346L14.3879 25.0346C14.4637 25.0345 14.5388 25.0493 14.6087 25.0783L14.6853 24.8936ZM14.9375 25.0624C14.8654 24.99 14.7797 24.9327 14.6853 24.8936L14.6087 25.0783C14.6787 25.1073 14.7423 25.1499 14.7958 25.2036L14.9375 25.0624ZM15.1648 25.6121C15.1648 25.4045 15.084 25.209 14.9373 25.0623L14.7959 25.2037C14.905 25.3128 14.9648 25.4574 14.9648 25.6121H15.1648ZM15.1062 25.9097C15.1452 25.8152 15.1652 25.7139 15.1648 25.6117L14.9648 25.6124C14.9651 25.6882 14.9503 25.7633 14.9214 25.8333L15.1062 25.9097ZM14.9374 26.1621C15.0098 26.09 15.0672 26.0042 15.1062 25.9097L14.9214 25.8333C14.8924 25.9034 14.8499 25.967 14.7962 26.0205L14.9374 26.1621ZM14.213 26.8858L14.9375 26.1621L14.7961 26.0206L14.0716 26.7443L14.213 26.8858ZM13.6634 27.1134C13.8705 27.1134 14.066 27.0326 14.213 26.8858L14.0717 26.7443C13.9621 26.8537 13.8175 26.9134 13.6634 26.9134V27.1134ZM13.3659 27.0546C13.4603 27.0937 13.5615 27.1137 13.6637 27.1134L13.6632 26.9134C13.5874 26.9137 13.5124 26.8988 13.4425 26.8698L13.3659 27.0546ZM13.1138 26.8856C13.1858 26.958 13.2715 27.0155 13.3659 27.0546L13.4425 26.8698C13.3725 26.8409 13.3091 26.7983 13.2557 26.7446L13.1138 26.8856ZM12.8869 26.3364C12.8869 26.5423 12.9685 26.7398 13.1139 26.8857L13.2556 26.7445C13.1476 26.6361 13.0869 26.4894 13.0869 26.3364H12.8869ZM13.1139 25.7871C12.9685 25.9329 12.8869 26.1304 12.8869 26.3364H13.0869C13.0869 26.1834 13.1476 26.0366 13.2556 25.9283L13.1139 25.7871ZM13.8379 25.0625L13.114 25.787L13.2555 25.9284L13.9794 25.2039L13.8379 25.0625ZM20 12.9156C20.4284 12.9156 20.7768 12.567 20.7771 12.1386L20.5771 12.1384C20.5769 12.4566 20.3179 12.7156 20 12.7156V12.9156ZM19.4509 12.6875C19.5965 12.8331 19.7939 12.9151 19.9998 12.9156L20.0002 12.7156C19.8472 12.7152 19.7005 12.6543 19.5923 12.5461L19.4509 12.6875ZM19.2228 12.1387C19.2233 12.3447 19.3053 12.542 19.4509 12.6875L19.5923 12.5461C19.4841 12.4379 19.4231 12.2913 19.4227 12.1383L19.2228 12.1387ZM19.2227 11.1146V12.1385H19.4228V11.1146H19.2227ZM20 10.3375C19.5715 10.3375 19.2227 10.686 19.2227 11.1146H19.4228C19.4228 10.7965 19.6819 10.5375 20 10.5375V10.3375ZM20.7771 11.1146C20.7771 10.686 20.4285 10.3375 20 10.3375V10.5375C20.3181 10.5375 20.5771 10.7965 20.5771 11.1146H20.7771ZM20.7771 12.1385V11.1146H20.5771V12.1385H20.7771ZM26.1622 25.0626C26.0901 24.9902 26.0043 24.9328 25.9099 24.8936L25.8333 25.0784C25.9034 25.1074 25.967 25.15 26.0204 25.2037L26.1622 25.0626ZM26.8858 25.7872L26.1621 25.0625L26.0206 25.2039L26.7443 25.9285L26.8858 25.7872ZM27.1129 26.3366C27.1129 26.1306 27.0313 25.9331 26.8859 25.7873L26.7442 25.9285C26.8523 26.0368 26.9129 26.1836 26.9129 26.3366H27.1129ZM26.8859 26.8859C27.0313 26.74 27.1129 26.5425 27.1129 26.3366H26.9129C26.9129 26.4896 26.8523 26.6363 26.7442 26.7446L26.8859 26.8859ZM26.3364 27.1136C26.5437 27.1136 26.739 27.0328 26.8858 26.886L26.7444 26.7445C26.635 26.8539 26.4906 26.9136 26.3364 26.9136V27.1136ZM26.0388 27.0549C26.1332 27.094 26.2345 27.114 26.3367 27.1136L26.3361 26.9136C26.2603 26.9139 26.1853 26.8991 26.1153 26.8701L26.0388 27.0549ZM25.7866 26.8857C25.8586 26.9582 25.9443 27.0157 26.0388 27.0549L26.1153 26.8701C26.0453 26.8411 25.9818 26.7985 25.9284 26.7448L25.7866 26.8857ZM25.0623 26.1622L25.7868 26.886L25.9282 26.7445L25.2037 26.0208L25.0623 26.1622ZM24.8348 25.6122C24.8348 25.8196 24.9156 26.0153 25.0622 26.1622L25.2038 26.0208C25.0946 25.9116 25.0348 25.7667 25.0348 25.6122H24.8348ZM24.8936 25.3147C24.8545 25.4091 24.8345 25.5103 24.8348 25.6125L25.0348 25.612C25.0346 25.5362 25.0494 25.4611 25.0784 25.3911L24.8936 25.3147ZM25.0624 25.0623C24.99 25.1345 24.9326 25.2202 24.8936 25.3147L25.0784 25.3911C25.1073 25.3211 25.1499 25.2575 25.2036 25.204L25.0624 25.0623ZM25.6122 24.8346C25.4049 24.8346 25.2095 24.9157 25.0624 25.0624L25.2036 25.204C25.3134 25.0945 25.4581 25.0346 25.6122 25.0346V24.8346ZM25.9099 24.8936C25.8155 24.8545 25.7143 24.8344 25.6121 24.8346L25.6124 25.0346C25.6882 25.0345 25.7633 25.0494 25.8333 25.0784L25.9099 24.8936ZM19.9999 27.0842C19.7939 27.0845 19.5964 27.1664 19.4507 27.312L19.5921 27.4535C19.7003 27.3453 19.8471 27.2844 20.0001 27.2843L19.9999 27.0842ZM20.7771 27.8613C20.7771 27.433 20.4286 27.0842 20 27.0842V27.2843C20.3181 27.2843 20.5771 27.5434 20.5771 27.8613H20.7771ZM20.7771 28.8853V27.8613H20.5771V28.8853H20.7771ZM20 29.6623C20.4285 29.6623 20.7771 29.3138 20.7771 28.8853H20.5771C20.5771 29.2033 20.3181 29.4623 20 29.4623V29.6623ZM19.2227 28.8853C19.2227 29.3138 19.5715 29.6623 20 29.6623V29.4623C19.6819 29.4623 19.4228 29.2033 19.4228 28.8853H19.2227ZM19.2227 27.8613V28.8853H19.4228V27.8613H19.2227ZM19.4507 27.312C19.305 27.4577 19.223 27.6552 19.2227 27.8612L19.4228 27.8615C19.423 27.7084 19.4839 27.5617 19.5921 27.4535L19.4507 27.312ZM28.8854 19.2229H27.8615V19.4229H28.8854V19.2229ZM29.4347 19.4508C29.289 19.3051 29.0915 19.2232 28.8855 19.2229L28.8853 19.4229C29.0384 19.4231 29.1851 19.484 29.2933 19.5922L29.4347 19.4508ZM29.6625 19.9999C29.6623 19.7939 29.5803 19.5964 29.4347 19.4508L29.2933 19.5922C29.4015 19.7004 29.4623 19.8471 29.4625 20.0001L29.6625 19.9999ZM29.4347 20.5492C29.5803 20.4036 29.6623 20.2061 29.6625 20.0001L29.4625 19.9999C29.4623 20.1529 29.4015 20.2996 29.2933 20.4077L29.4347 20.5492ZM28.8855 20.7769C29.0915 20.7767 29.289 20.6948 29.4347 20.5492L29.2933 20.4077C29.1851 20.5159 29.0384 20.5767 28.8854 20.5769L28.8855 20.7769ZM27.8615 20.7769H28.8854V20.5769H27.8615V20.7769ZM27.3123 20.549C27.4579 20.6947 27.6554 20.7766 27.8614 20.7769L27.8616 20.5769C27.7086 20.5767 27.5619 20.5158 27.4538 20.4076L27.3123 20.549ZM27.0846 19.9999C27.0848 20.2059 27.1667 20.4034 27.3123 20.549L27.4538 20.4076C27.3456 20.2994 27.2848 20.1527 27.2846 19.9997L27.0846 19.9999ZM27.3124 19.4507C27.1668 19.5963 27.0849 19.7938 27.0846 19.9997L27.2846 19.9999C27.2848 19.8469 27.3456 19.7003 27.4538 19.5921L27.3124 19.4507ZM27.8614 19.2229C27.6554 19.2232 27.458 19.3051 27.3124 19.4507L27.4538 19.5921C27.562 19.484 27.7086 19.4231 27.8616 19.4229L27.8614 19.2229ZM26.3368 12.8866C26.2347 12.8863 26.1335 12.9063 26.039 12.9453L26.1155 13.1301C26.1855 13.1012 26.2605 13.0864 26.3363 13.0866L26.3368 12.8866ZM26.6341 12.9454C26.5397 12.9063 26.4385 12.8863 26.3363 12.8866L26.3368 13.0866C26.4126 13.0863 26.4876 13.1012 26.5575 13.1302L26.6341 12.9454ZM26.8862 13.1144C26.8142 13.042 26.7285 12.9845 26.6341 12.9454L26.5575 13.1302C26.6275 13.1591 26.6909 13.2017 26.7443 13.2554L26.8862 13.1144ZM27.1131 13.6637C27.1131 13.4578 27.0315 13.2602 26.8861 13.1143L26.7444 13.2555C26.8525 13.3639 26.9131 13.5107 26.9131 13.6637H27.1131ZM26.8861 14.2131C27.0315 14.0672 27.1131 13.8697 27.1131 13.6637H26.9131C26.9131 13.8167 26.8525 13.9635 26.7444 14.0719L26.8861 14.2131ZM26.1622 14.9377L26.886 14.2132L26.7445 14.0718L26.0208 14.7963L26.1622 14.9377ZM25.6124 15.1654C25.8194 15.1654 26.015 15.0843 26.1621 14.9379L26.0209 14.7961C25.9111 14.9055 25.7662 14.9654 25.6124 14.9654V15.1654ZM25.3148 15.1065C25.4092 15.1455 25.5104 15.1656 25.6126 15.1654L25.6122 14.9654C25.5364 14.9655 25.4613 14.9507 25.3912 14.9217L25.3148 15.1065ZM25.0624 14.9376C25.1345 15.01 25.2203 15.0674 25.3148 15.1065L25.3912 14.9217C25.3212 14.8927 25.2575 14.8501 25.204 14.7964L25.0624 14.9376ZM24.8346 14.3878C24.8346 14.5949 24.9157 14.7905 25.0624 14.9376L25.204 14.7964C25.0946 14.6866 25.0346 14.5417 25.0346 14.3878H24.8346ZM24.8936 14.09C24.8544 14.1845 24.8344 14.2858 24.8346 14.388L25.0346 14.3875C25.0344 14.3117 25.0493 14.2366 25.0783 14.1666L24.8936 14.09ZM25.0627 13.8378C24.9902 13.9099 24.9327 13.9956 24.8936 14.09L25.0783 14.1666C25.1073 14.0966 25.15 14.033 25.2037 13.9796L25.0627 13.8378ZM25.787 13.114L25.0625 13.8379L25.2039 13.9794L25.9284 13.2555L25.787 13.114ZM26.039 12.9453C25.9446 12.9844 25.8589 13.0418 25.7868 13.1142L25.9286 13.2553C25.982 13.2016 26.0455 13.1591 26.1155 13.1301L26.039 12.9453ZM20 13.0799C16.1841 13.0799 13.0797 16.1841 13.0797 20.0001H13.2797C13.2797 16.2946 16.2945 13.2799 20 13.2799V13.0799ZM26.9203 20.0001C26.9203 16.1841 23.8161 13.0799 20 13.0799V13.2799C23.7056 13.2799 26.7203 16.2946 26.7203 20.0001H26.9203ZM20 26.9204C23.8161 26.9204 26.9203 23.8162 26.9203 20.0001H26.7203C26.7203 23.7057 23.7056 26.7204 20 26.7204V26.9204ZM13.0797 20.0001C13.0797 23.8162 16.1841 26.9204 20 26.9204V26.7204C16.2945 26.7204 13.2797 23.7057 13.2797 20.0001H13.0797ZM20 25.3661C17.0412 25.3661 14.634 22.9589 14.634 20.0001H14.434C14.434 23.0693 16.9307 25.5661 20 25.5661V25.3661ZM25.366 20.0001C25.366 22.9589 22.9588 25.3661 20 25.3661V25.5661C23.0693 25.5661 25.566 23.0693 25.566 20.0001H25.366ZM20 14.6341C22.9588 14.6341 25.366 17.0414 25.366 20.0001H25.566C25.566 16.931 23.0693 14.4341 20 14.4341V14.6341ZM14.634 20.0001C14.634 17.0412 17.0414 14.6341 20 14.6341V14.4341C16.9309 14.4341 14.434 16.9308 14.434 20.0001H14.634Z" fill="#2B2F33"/>
</svg>
