
<svg width="33" height="33" viewBox="0 0 33 33" fill="none" xmlns="http://www.w3.org/2000/svg">
<rect x="0.5" y="0.5" width="32" height="32" rx="8" fill="white"/>
<g clip-path="url(#clip0_352_402)">
<path d="M19.8002 19.5141C19.4338 20.2741 18.9037 20.9019 18.2724 21.3756C18.2528 21.3913 18.2325 21.4064 18.2117 21.4205C18.1796 21.4439 18.1468 21.4671 18.1137 21.4899C17.9686 21.5907 17.8173 21.6838 17.6635 21.7686C16.6344 22.3337 15.4212 22.5367 14.2363 22.3042C14.3423 21.8909 14.4794 21.4806 14.6493 21.0763C14.7087 20.9331 14.7723 20.7921 14.8403 20.6511C14.8689 20.5914 14.8981 20.533 14.928 20.4748C15.3422 19.6599 15.8666 18.937 16.4732 18.3134C16.6594 18.1217 16.8534 17.94 17.0547 17.7676C17.1655 17.6725 17.2788 17.5804 17.3941 17.4917C18.2235 16.8485 19.158 16.3621 20.1483 16.0483C20.3339 16.7757 20.3602 17.5473 20.208 18.3061C20.1248 18.7148 19.9906 19.1207 19.8012 19.5147H19.8005L19.8002 19.5141Z" fill="url(#paint0_linear_352_402)"/>
<path d="M15.7913 25.3115C15.3251 25.9248 14.9144 26.5962 14.5724 27.3213L14.5422 27.3852C14.2429 26.5397 14.0705 25.6493 14.0371 24.7444C14.6138 24.9855 15.2002 25.1734 15.7913 25.3115Z" fill="url(#paint1_linear_352_402)"/>
<path fill-rule="evenodd" clip-rule="evenodd" d="M14.2598 26.4243C14.3362 26.7563 14.4316 27.0838 14.5452 27.4046L14.5754 27.3407C14.9174 26.6156 15.3281 25.9442 15.7943 25.3309C15.55 25.2737 15.3063 25.2082 15.0638 25.134C14.78 25.5495 14.5115 25.9795 14.2598 26.4243Z" fill="url(#paint2_linear_352_402)"/>
<path d="M29.2888 13.6399C29.4137 15.0855 29.2769 16.5097 28.8013 17.9524C28.6588 18.384 28.4889 18.812 28.2901 19.2333H28.2892C27.9504 19.9519 27.5445 20.617 27.0834 21.2248C27.0786 21.2312 27.0744 21.237 27.0696 21.2431C25.9457 22.7199 24.492 23.8599 22.8647 24.608C22.7513 24.6604 22.6373 24.7108 22.5217 24.7593C20.4037 25.6494 18.0178 25.887 15.6962 25.3508C15.6859 25.3485 15.676 25.3463 15.666 25.3434C16.5471 24.1864 17.6302 23.2353 18.8415 22.5186L18.8774 22.4967C19.7078 22.0087 20.5967 21.6301 21.5218 21.37C21.5266 21.3687 21.5308 21.3674 21.5356 21.3661C23.9471 20.6728 26.1156 19.1745 27.611 17.0254C27.9632 16.519 28.2786 15.9766 28.5502 15.4005" fill="url(#paint3_linear_352_402)"/>
<path fill-rule="evenodd" clip-rule="evenodd" d="M7.15625 15.3822C7.25258 18.3043 9.22484 22.5857 13.5194 24.6113C13.6777 24.6858 13.8363 24.7564 13.9959 24.8222C14.5726 25.0634 15.1589 25.2512 15.7501 25.3893C16.6312 24.2323 17.7143 23.2812 18.9256 22.5645L18.9615 22.5427C19.7919 22.0546 20.6808 21.676 21.6059 21.4159C21.6084 21.4153 21.6107 21.4146 21.6129 21.414C21.6152 21.4133 21.6174 21.4127 21.62 21.412C24.0315 20.7188 26.2 19.2205 27.6954 17.0713C28.0477 16.5649 28.363 16.0225 28.6346 15.4465C28.8864 14.9128 29.0938 14.3707 29.2537 13.8223C29.3183 13.6007 29.2663 13.3605 29.1125 13.1881C28.5129 12.5163 27.7712 11.9521 26.9061 11.544C23.9098 10.1305 20.4101 11.0543 18.4693 13.5773C18.2426 13.8701 18.0168 14.1967 17.7811 14.5377C16.586 16.2663 15.5372 18.0475 11.9995 18.3686C9.09832 18.6319 8.21591 16.1529 8.28013 15.2538L7.15625 15.3822ZM17.6716 21.8138C16.647 22.3873 15.4354 22.6001 14.2489 22.3773H14.2483C14.3507 21.9627 14.4846 21.5511 14.6513 21.1455C14.7097 21.002 14.772 20.8604 14.8388 20.7188C14.8671 20.659 14.8956 20.6003 14.9249 20.5418C15.3323 19.7236 15.8506 18.9967 16.4524 18.3679C16.6373 18.1749 16.8297 17.9913 17.0294 17.8172C17.1392 17.7212 17.2519 17.6281 17.3663 17.5385C18.1905 16.8886 19.1211 16.3944 20.1085 16.0726C20.3002 16.7987 20.3327 17.5696 20.1866 18.3297C20.1069 18.7391 19.9759 19.1463 19.7897 19.5416C19.4297 20.3049 18.9044 20.9368 18.2769 21.4156C18.2573 21.4313 18.2374 21.4467 18.2169 21.4612C18.1851 21.4849 18.1527 21.5081 18.1193 21.5312C17.9748 21.6333 17.8245 21.7274 17.6713 21.8134L17.6716 21.8138Z" fill="url(#paint4_linear_352_402)"/>
<path d="M7.47617 13.7467C7.65118 13.9737 7.80531 14.2222 7.93536 14.4904C8.07986 14.7883 8.18615 15.0947 8.25743 15.4042C8.25807 15.4055 8.2584 15.4065 8.25904 15.4078C8.26032 15.4174 8.26321 15.4273 8.26546 15.4367C8.28986 15.5494 8.31009 15.6624 8.32519 15.7758C8.32775 15.7918 8.32936 15.8075 8.33193 15.8236C8.21601 15.8946 8.09623 15.9594 7.97164 16.0198C7.84705 16.0802 7.71379 16.137 7.58278 16.1858C7.55227 16.1961 7.52177 16.2076 7.49126 16.2179C6.84423 16.4398 6.17279 16.4966 5.52671 16.4071C4.16424 16.217 2.91962 15.3737 2.27483 14.044C2.06515 13.6115 1.93542 13.1619 1.87891 12.7104C1.99515 12.6401 2.11524 12.5743 2.23983 12.5139C2.9132 12.1877 3.63056 12.0541 4.32865 12.0926C4.3932 12.0958 4.45838 12.1016 4.52292 12.1084C5.61373 12.2175 6.64321 12.747 7.36571 13.6102C7.40392 13.6548 7.43989 13.7004 7.47617 13.747V13.7467Z" fill="url(#paint5_linear_352_402)"/>
<path d="M12.6917 10.6686L12.7334 10.6795C13.0125 12.0644 12.5799 13.4988 11.6031 14.4988C11.2682 14.8417 10.8687 15.1339 10.4124 15.3552C9.76284 15.6698 9.07406 15.805 8.40005 15.7809C8.38463 15.7797 8.33133 15.7922 8.31624 15.7915C8.28252 15.7222 8.28959 15.5517 8.26358 15.4374C8.26165 15.428 8.25876 15.4181 8.25748 15.4085C8.25683 15.4072 8.25651 15.4062 8.25587 15.4049C8.18458 15.0954 8.0783 14.789 7.9338 14.491C7.80375 14.2229 7.64961 13.9744 7.47461 13.7474C7.71159 12.8113 8.2639 11.9613 9.07245 11.3654C9.28021 11.2109 9.50595 11.0741 9.74807 10.9566C9.87619 10.8946 10.0059 10.8394 10.1369 10.7906C10.2265 10.7575 10.3164 10.7276 10.4073 10.701C11.168 10.4765 11.957 10.4762 12.6907 10.6692H12.6914L12.6917 10.6686Z" fill="url(#paint6_linear_352_402)"/>
<path fill-rule="evenodd" clip-rule="evenodd" d="M8.30584 15.8397C7.86464 15.8542 7.42536 15.8304 6.9925 15.7697C4.98524 15.4878 3.1196 14.4156 1.87305 12.7195C1.92956 13.1694 2.05929 13.6176 2.26833 14.0486C2.9128 15.3783 4.15742 16.2218 5.51989 16.4116C6.16564 16.5012 6.83741 16.4444 7.48444 16.2225C7.49953 16.2173 7.51495 16.2119 7.53036 16.2064C7.54577 16.201 7.56087 16.1955 7.57628 16.1904C7.70729 16.1416 7.84055 16.0847 7.96514 16.0243C8.08299 15.9672 8.19634 15.9062 8.30616 15.8397H8.30584Z" fill="url(#paint7_linear_352_402)"/>
<path fill-rule="evenodd" clip-rule="evenodd" d="M12.739 10.692L12.6972 10.6811H12.6966C11.9625 10.4885 11.1736 10.4888 10.4132 10.7132C10.3223 10.7399 10.2324 10.7698 10.1428 10.8028C10.0118 10.8516 9.88205 10.9069 9.75393 10.9688C9.51181 11.0864 9.28607 11.2232 9.07831 11.3776C8.26944 11.9736 7.71713 12.8239 7.48047 13.7596C7.65547 13.9866 7.80961 14.2352 7.93966 14.5033C7.94351 14.5116 7.94768 14.5197 7.95154 14.528C8.3754 13.4806 9.08216 12.5455 10.0278 11.8477C10.3332 11.6207 10.6649 11.419 11.0207 11.2466C11.2089 11.1554 11.3996 11.0745 11.5923 11.0026C11.7239 10.9541 11.8562 10.9104 11.9898 10.8709C12.2387 10.7977 12.4895 10.7409 12.7409 10.6998C12.7402 10.6969 12.7399 10.6943 12.7393 10.6914L12.739 10.692Z" fill="url(#paint8_linear_352_402)"/>
<path fill-rule="evenodd" clip-rule="evenodd" d="M17.7245 19.7399C18.6069 19.0777 19.3477 18.2005 19.8599 17.1379H19.8609C19.988 16.8743 20.0972 16.6065 20.1894 16.3364C20.3351 17.0098 20.3457 17.7159 20.2061 18.4118C20.1229 18.8205 19.9887 19.2264 19.7992 19.6201H19.7986C19.4325 20.3798 18.902 21.0076 18.2707 21.4812C18.2511 21.4967 18.2309 21.5121 18.21 21.5262C18.1779 21.5496 18.1452 21.5728 18.1118 21.5956C17.9666 21.6964 17.8154 21.7895 17.6616 21.8743C16.6324 22.4394 15.4193 22.6424 14.2344 22.4099C14.3403 21.9966 14.4775 21.5862 14.6473 21.182C14.6647 21.1405 14.682 21.0994 14.7 21.0583C15.4607 20.9216 16.1957 20.6618 16.8736 20.2896C17.0887 20.1711 17.2997 20.0411 17.5026 19.9001C17.5492 19.8683 17.5951 19.8359 17.6397 19.8031C17.6686 19.7832 17.6969 19.762 17.7242 19.7402L17.7245 19.7399Z" fill="url(#paint9_linear_352_402)"/>
<path d="M23.4905 10.2793C23.4905 10.2793 23.9285 8.23898 25.3099 7.87773C26.5655 7.54956 26.7565 9.01029 25.9788 9.28163C25.2014 9.55232 24.3235 9.26043 23.4905 10.2793ZM22.6473 10.5735C22.6473 10.5735 23.4831 8.94029 23.0028 8.04022C22.471 7.04285 21.3503 7.66484 21.4698 8.3594C21.5892 9.05396 22.7671 9.54494 22.6473 10.5738V10.5735Z" fill="url(#paint10_linear_352_402)"/>
<path d="M25.5952 15.1883C26.0027 15.3804 26.4886 15.2066 26.6803 14.8001C26.872 14.3936 26.6973 13.9081 26.2898 13.716C25.8823 13.5237 25.3965 13.6977 25.2048 14.1043C25.0131 14.5108 25.1877 14.9963 25.5952 15.1883Z" fill="white"/>
<path d="M26.0439 15.3918C25.8962 15.4309 25.7364 15.4233 25.587 15.3798C25.4376 15.3364 25.2979 15.2571 25.1799 15.1472C25.1237 15.0934 25.0726 15.0285 25.0271 14.9663C24.9843 14.8985 24.9496 14.828 24.9285 14.7571C24.9021 14.6836 24.8917 14.604 24.8847 14.5328C24.88 14.4559 24.8837 14.3761 24.8984 14.3015C24.9031 14.3784 24.9101 14.4496 24.9285 14.5261C24.9439 14.5943 24.9703 14.6682 24.994 14.7334C25.0522 14.8694 25.1321 14.9887 25.2417 15.088C25.3457 15.1846 25.4713 15.2642 25.6104 15.3163C25.7437 15.3654 25.8928 15.3952 26.0442 15.3918H26.0439ZM25.9386 13.38C26.2241 13.3516 26.5215 13.4853 26.7141 13.7119C26.7622 13.7684 26.802 13.8282 26.8367 13.8988C26.8658 13.9669 26.8949 14.0348 26.9103 14.1033C26.9467 14.2427 26.942 14.3965 26.9066 14.5291C26.9059 14.3864 26.8889 14.2494 26.8417 14.1184C26.8003 13.99 26.7284 13.868 26.6409 13.7657C26.5556 13.6578 26.4437 13.5779 26.3267 13.509C26.215 13.4428 26.0847 13.4017 25.9386 13.3803V13.38Z" fill="white"/>
<path fill-rule="evenodd" clip-rule="evenodd" d="M26.1268 14.404C26.2665 14.4698 26.4282 14.4337 26.5275 14.3258C26.5439 14.4414 26.5279 14.5631 26.4744 14.6767C26.337 14.9675 26.0024 15.1022 25.7053 14.9963C25.7434 14.9779 25.7755 14.9471 25.7948 14.906C25.8396 14.8111 25.7989 14.6974 25.7036 14.6527C25.6083 14.6079 25.4947 14.6483 25.4499 14.7436C25.4405 14.7636 25.4349 14.7843 25.4325 14.8054C25.2851 14.6259 25.2447 14.3705 25.3503 14.1469C25.4803 13.8708 25.7885 13.7358 26.0736 13.813C26.0268 13.8461 25.988 13.8912 25.962 13.9467C25.8811 14.1185 25.9546 14.3234 26.1268 14.4046V14.404Z" fill="#07828B"/>
<path d="M24.8809 13.8104C24.9751 13.783 25.2014 13.7463 25.3515 13.8171" stroke="white" stroke-width="0.256888" stroke-linecap="round"/>
<path d="M25.4277 13.1553C25.4046 13.2716 25.3722 13.5497 25.425 13.7329" stroke="white" stroke-width="0.256888" stroke-linecap="round"/>
</g>
<defs>
<linearGradient id="paint0_linear_352_402" x1="12.9195" y1="19.5934" x2="19.912" y2="15.7344" gradientUnits="userSpaceOnUse">
<stop stop-color="#07828B"/>
<stop offset="1" stop-color="#5AB8DB"/>
</linearGradient>
<linearGradient id="paint1_linear_352_402" x1="14.7484" y1="24.7312" x2="14.5893" y2="26.6707" gradientUnits="userSpaceOnUse">
<stop stop-color="#07828B"/>
<stop offset="1" stop-color="#5AB8DB"/>
</linearGradient>
<linearGradient id="paint2_linear_352_402" x1="14.2681" y1="26.353" x2="15.0952" y2="25.501" gradientUnits="userSpaceOnUse">
<stop stop-color="#07828B"/>
<stop offset="1" stop-color="#5AB8DB"/>
</linearGradient>
<linearGradient id="paint3_linear_352_402" x1="17.4154" y1="24.346" x2="29.0976" y2="13.4064" gradientUnits="userSpaceOnUse">
<stop stop-color="#07828B"/>
<stop offset="1" stop-color="#5AB8DB"/>
</linearGradient>
<linearGradient id="paint4_linear_352_402" x1="12.9195" y1="20.6211" x2="29.9055" y2="15.2142" gradientUnits="userSpaceOnUse">
<stop stop-color="#07828B"/>
<stop offset="1" stop-color="#5AB8DB"/>
</linearGradient>
<linearGradient id="paint5_linear_352_402" x1="1.87442" y1="12.8501" x2="8.93896" y2="16.7577" gradientUnits="userSpaceOnUse">
<stop stop-color="#07828B"/>
<stop offset="1" stop-color="#5AB8DB"/>
</linearGradient>
<linearGradient id="paint6_linear_352_402" x1="8.23148" y1="15.2906" x2="12.4767" y2="10.6092" gradientUnits="userSpaceOnUse">
<stop stop-color="#07828B"/>
<stop offset="1" stop-color="#5AB8DB"/>
</linearGradient>
<linearGradient id="paint7_linear_352_402" x1="2.15264" y1="13.3944" x2="9.31354" y2="18.8919" gradientUnits="userSpaceOnUse">
<stop stop-color="#5AB8DB"/>
<stop offset="1" stop-color="#07828B"/>
</linearGradient>
<linearGradient id="paint8_linear_352_402" x1="7.70909" y1="11.2615" x2="12.4794" y2="12.5313" gradientUnits="userSpaceOnUse">
<stop stop-color="#5AB8DB"/>
<stop offset="1" stop-color="#07828B"/>
</linearGradient>
<linearGradient id="paint9_linear_352_402" x1="21.0759" y1="14.3272" x2="17.026" y2="21.5565" gradientUnits="userSpaceOnUse">
<stop stop-color="#5AB8DB"/>
<stop offset="1" stop-color="#07828B"/>
</linearGradient>
<linearGradient id="paint10_linear_352_402" x1="20.8187" y1="10.1529" x2="24.0569" y2="5.89798" gradientUnits="userSpaceOnUse">
<stop stop-color="#07828B"/>
<stop offset="1" stop-color="#5AB8DB"/>
</linearGradient>
<clipPath id="clip0_352_402">
<rect width="27.4587" height="19.885" fill="white" transform="translate(1.87305 7.51978)"/>
</clipPath>
</defs>
</svg>
