<svg width="64" height="64" viewBox="0 0 64 64" fill="none" xmlns="http://www.w3.org/2000/svg">
<circle cx="32" cy="32" r="32" fill="#F4F5F6"/>
<g clip-path="url(#clip0_117_276)">
<path d="M39.3376 35.9672C38.6972 37.2958 37.7704 38.3932 36.6668 39.2212C36.6326 39.2487 36.5972 39.275 36.5608 39.2997C36.5046 39.3407 36.4474 39.3811 36.3896 39.421C36.1358 39.5972 35.8714 39.76 35.6026 39.9082C33.8035 40.8962 31.6828 41.2509 29.6116 40.8445C29.7968 40.1221 30.0365 39.4047 30.3334 38.698C30.4373 38.4477 30.5484 38.2012 30.6674 37.9548C30.7174 37.8504 30.7684 37.7482 30.8206 37.6466C31.5448 36.222 32.4614 34.9585 33.5217 33.8684C33.8473 33.5333 34.1864 33.2155 34.5383 32.9141C34.732 32.748 34.9301 32.5869 35.1316 32.4319C36.5815 31.3076 38.215 30.4572 39.9461 29.9088C40.2706 31.1802 40.3166 32.529 40.0505 33.8555C39.9051 34.57 39.6705 35.2795 39.3393 35.9683H39.3382L39.3376 35.9672Z" fill="url(#paint0_linear_117_276)"/>
<path d="M32.3323 46.1013C31.5172 47.1734 30.7993 48.3472 30.2015 49.6146L30.1487 49.7264C29.6256 48.2484 29.3241 46.6918 29.2658 45.11C30.2739 45.5316 31.2989 45.8599 32.3323 46.1013Z" fill="url(#paint1_linear_117_276)"/>
<path fill-rule="evenodd" clip-rule="evenodd" d="M29.6526 48.0463C29.7862 48.6267 29.9529 49.1993 30.1516 49.76L30.2043 49.6483C30.8022 48.3809 31.5201 47.2071 32.3351 46.135C31.908 46.0351 31.4819 45.9206 31.0581 45.7909C30.5619 46.5173 30.0926 47.2689 29.6526 48.0463Z" fill="url(#paint2_linear_117_276)"/>
<path d="M55.9236 25.6983C56.142 28.2254 55.9029 30.7148 55.0715 33.2369C54.8223 33.9913 54.5254 34.7395 54.1779 35.476H54.1762C53.584 36.7322 52.8745 37.8948 52.0685 38.9573C52.06 38.9686 52.0527 38.9787 52.0443 38.9893C50.0797 41.5709 47.5386 43.5636 44.6938 44.8715C44.4956 44.963 44.2964 45.0511 44.0943 45.1358C40.3918 46.6918 36.2211 47.1072 32.1628 46.1698C32.1448 46.1659 32.1274 46.1619 32.11 46.1569C33.6503 44.1344 35.5436 42.4718 37.6609 41.2189L37.7238 41.1807C39.1754 40.3275 40.7291 39.6657 42.3463 39.2111C42.3547 39.2088 42.362 39.2066 42.3704 39.2043C46.586 37.9924 50.3766 35.3733 52.9907 31.6163C53.6065 30.7311 54.1577 29.783 54.6326 28.776" fill="url(#paint3_linear_117_276)"/>
<path fill-rule="evenodd" clip-rule="evenodd" d="M17.2349 28.744C17.4033 33.8521 20.8509 41.3362 28.3581 44.8771C28.6348 45.0073 28.9121 45.1308 29.1911 45.2459C30.1992 45.6674 31.2242 45.9958 32.2576 46.2372C33.7979 44.2147 35.6912 42.5521 37.8086 41.2992L37.8714 41.261C39.323 40.4078 40.8768 39.746 42.4939 39.2913C42.4984 39.2902 42.5024 39.2891 42.5063 39.288C42.5102 39.2868 42.5142 39.2857 42.5186 39.2846C46.7342 38.0727 50.5248 35.4536 53.1389 31.6966C53.7547 30.8114 54.3059 29.8633 54.7808 28.8563C55.2209 27.9234 55.5835 26.9759 55.863 26.0171C55.9758 25.6298 55.8849 25.2099 55.616 24.9085C54.568 23.7342 53.2714 22.748 51.7592 22.0345C46.5215 19.5636 40.4036 21.1785 37.0109 25.5888C36.6146 26.1008 36.22 26.6716 35.808 27.2678C33.7188 30.2894 31.8855 33.403 25.7014 33.9644C20.6298 34.4246 19.0873 30.0912 19.1995 28.5195L17.2349 28.744ZM35.6166 39.9868C33.8254 40.9893 31.7075 41.3615 29.6334 40.9719H29.6323C29.8114 40.2473 30.0454 39.5276 30.3368 38.8187C30.4389 38.5678 30.5478 38.3202 30.6646 38.0727C30.714 37.9683 30.7639 37.8656 30.815 37.7634C31.5273 36.3331 32.4333 35.0623 33.4852 33.9632C33.8086 33.6259 34.1448 33.3048 34.4939 33.0006C34.6859 32.8327 34.8829 32.6699 35.0828 32.5133C36.5237 31.3772 38.1504 30.5133 39.8765 29.9509C40.2116 31.22 40.2683 32.5678 40.0129 33.8964C39.8737 34.6121 39.6447 35.3239 39.3191 36.0149C38.6898 37.3491 37.7715 38.4538 36.6747 39.2908C36.6405 39.3183 36.6056 39.3452 36.5697 39.3705C36.5142 39.412 36.4575 39.4524 36.3991 39.4928C36.1465 39.6713 35.8838 39.8358 35.616 39.9862L35.6166 39.9868Z" fill="url(#paint4_linear_117_276)"/>
<path d="M17.7923 25.8852C18.0982 26.2821 18.3677 26.7165 18.595 27.1852C18.8476 27.7061 19.0334 28.2416 19.158 28.7828C19.1591 28.785 19.1597 28.7867 19.1608 28.7889C19.163 28.8058 19.1681 28.8232 19.172 28.8395C19.2147 29.0365 19.2501 29.2341 19.2764 29.4322C19.2809 29.4603 19.2837 29.4878 19.2882 29.5159C19.0856 29.6399 18.8762 29.7533 18.6584 29.8588C18.4406 29.9644 18.2077 30.0637 17.9787 30.149C17.9253 30.167 17.872 30.1872 17.8187 30.2052C16.6876 30.593 15.5139 30.6924 14.3845 30.5358C12.0028 30.2035 9.8271 28.7294 8.69996 26.405C8.33341 25.6489 8.10664 24.863 8.00784 24.0738C8.21104 23.9509 8.42098 23.8358 8.63877 23.7303C9.81587 23.16 11.0699 22.9265 12.2902 22.9938C12.403 22.9994 12.517 23.0095 12.6298 23.0213C14.5366 23.2122 16.3362 24.1378 17.5992 25.6466C17.666 25.7247 17.7289 25.8044 17.7923 25.8858V25.8852Z" fill="url(#paint5_linear_117_276)"/>
<path d="M26.911 20.5043L26.984 20.5234C27.4718 22.9444 26.7157 25.4519 25.0081 27.1998C24.4227 27.7993 23.7244 28.3101 22.9267 28.6969C21.7912 29.247 20.5871 29.4833 19.4089 29.4412C19.382 29.4389 19.2888 29.4608 19.2624 29.4597C19.2035 29.3385 19.2158 29.0404 19.1704 28.8406C19.167 28.8243 19.1619 28.8069 19.1597 28.7901C19.1586 28.7878 19.158 28.7861 19.1569 28.7839C19.0323 28.2428 18.8465 27.7073 18.5939 27.1864C18.3665 26.7176 18.0971 26.2832 17.7912 25.8863C18.2054 24.2501 19.1709 22.7642 20.5843 21.7224C20.9475 21.4524 21.3421 21.2133 21.7654 21.0079C21.9893 20.8995 22.2161 20.803 22.4451 20.7176C22.6017 20.6598 22.7589 20.6076 22.9178 20.561C24.2475 20.1687 25.6267 20.1681 26.9093 20.5055H26.9105L26.911 20.5043Z" fill="url(#paint6_linear_117_276)"/>
<path fill-rule="evenodd" clip-rule="evenodd" d="M19.245 29.5439C18.4738 29.5692 17.7059 29.5276 16.9492 29.4215C13.4404 28.9287 10.1791 27.0544 8 24.0895C8.09879 24.8759 8.32557 25.6595 8.69099 26.4128C9.81757 28.7373 11.9933 30.2119 14.375 30.5436C15.5038 30.7002 16.6781 30.6009 17.8091 30.213C17.8355 30.204 17.8625 30.1945 17.8894 30.1849C17.9164 30.1754 17.9427 30.1659 17.9697 30.1569C18.1987 30.0716 18.4317 29.9722 18.6495 29.8667C18.8555 29.7668 19.0536 29.6601 19.2456 29.5439H19.245Z" fill="url(#paint7_linear_117_276)"/>
<path fill-rule="evenodd" clip-rule="evenodd" d="M26.9952 20.5453L26.9222 20.5262H26.9211C25.6379 20.1894 24.2588 20.19 22.9295 20.5824C22.7707 20.629 22.6135 20.6812 22.4569 20.739C22.2279 20.8243 22.0011 20.9209 21.7771 21.0292C21.3539 21.2346 20.9593 21.4738 20.5961 21.7438C19.1821 22.7856 18.2167 24.272 17.803 25.9077C18.1089 26.3045 18.3783 26.739 18.6057 27.2077C18.6124 27.2223 18.6197 27.2363 18.6264 27.2509C19.3674 25.4199 20.6028 23.7853 22.2559 22.5655C22.7898 22.1687 23.3696 21.8162 23.9916 21.5147C24.3205 21.3553 24.6539 21.2139 24.9907 21.0881C25.2209 21.0034 25.4521 20.927 25.6856 20.858C26.1207 20.73 26.5591 20.6306 26.9986 20.5588C26.9975 20.5537 26.9969 20.5493 26.9958 20.5442L26.9952 20.5453Z" fill="url(#paint8_linear_117_276)"/>
<path fill-rule="evenodd" clip-rule="evenodd" d="M35.7087 36.3618C37.2512 35.2043 38.5462 33.6708 39.4415 31.8134H39.4432C39.6655 31.3525 39.8563 30.8844 40.0174 30.4123C40.2723 31.5894 40.2908 32.8237 40.0466 34.0401C39.9012 34.7547 39.6666 35.4642 39.3354 36.1524H39.3343C38.6944 37.4805 37.7671 38.5779 36.6635 39.4058C36.6293 39.4328 36.5939 39.4597 36.5574 39.4844C36.5013 39.5254 36.444 39.5658 36.3857 39.6057C36.1319 39.7819 35.8676 39.9447 35.5987 40.0929C33.7996 41.0808 31.679 41.4356 29.6077 41.0292C29.7929 40.3068 30.0326 39.5894 30.3295 38.8827C30.3598 38.8103 30.3902 38.7384 30.4216 38.6666C31.7514 38.4274 33.0362 37.9733 34.2212 37.3228C34.5973 37.1156 34.9661 36.8883 35.3208 36.6419C35.4022 36.5863 35.4825 36.5296 35.5605 36.4724C35.611 36.4376 35.6604 36.4005 35.7081 36.3623L35.7087 36.3618Z" fill="url(#paint9_linear_117_276)"/>
<path d="M45.7887 19.8239C45.7887 19.8239 46.5543 16.2572 48.9692 15.6257C51.1639 15.0521 51.4979 17.6055 50.1384 18.0799C48.7794 18.553 47.2448 18.0428 45.7887 19.8239ZM44.3147 20.3381C44.3147 20.3381 45.7758 17.4832 44.936 15.9098C44.0065 14.1663 42.0475 15.2536 42.2563 16.4677C42.4651 17.6819 44.524 18.5401 44.3147 20.3386V20.3381Z" fill="url(#paint10_linear_117_276)"/>
<path d="M49.4673 28.405C50.1796 28.7407 51.0289 28.437 51.364 27.7264C51.6992 27.0157 51.3938 26.167 50.6815 25.8313C49.9692 25.4951 49.1199 25.7993 48.7848 26.51C48.4496 27.2206 48.755 28.0693 49.4673 28.405Z" fill="white"/>
<path d="M50.2524 28.7611C49.9942 28.8294 49.7149 28.816 49.4537 28.74C49.1925 28.6641 48.9483 28.5256 48.742 28.3334C48.6439 28.2393 48.5545 28.1259 48.475 28.0173C48.4002 27.8986 48.3394 27.7754 48.3026 27.6515C48.2565 27.5229 48.2384 27.3839 48.2261 27.2594C48.2179 27.125 48.2243 26.9854 48.25 26.8551C48.2582 26.9895 48.2705 27.1139 48.3026 27.2477C48.3295 27.3669 48.3757 27.4961 48.4172 27.61C48.5188 27.8478 48.6585 28.0564 48.8501 28.2299C49.0318 28.3988 49.2515 28.5379 49.4946 28.629C49.7277 28.7149 49.9883 28.7669 50.253 28.7611H50.2524ZM50.0684 25.2442C50.5673 25.1945 51.0874 25.4283 51.4239 25.8244C51.5081 25.9232 51.5776 26.0277 51.6384 26.151C51.6892 26.2702 51.74 26.3888 51.7669 26.5086C51.8306 26.7523 51.8224 27.021 51.7605 27.253C51.7593 27.0035 51.7295 26.7639 51.6471 26.5349C51.5747 26.3105 51.449 26.0973 51.296 25.9185C51.147 25.7298 50.9512 25.5901 50.7467 25.4697C50.5516 25.3541 50.3237 25.2822 50.0684 25.2448V25.2442Z" fill="white"/>
<path fill-rule="evenodd" clip-rule="evenodd" d="M50.3963 27.0346C50.6405 27.1497 50.9233 27.0866 51.0968 26.8978C51.1255 27.1 51.0974 27.3127 51.0039 27.5113C50.7638 28.0197 50.1789 28.2551 49.6595 28.0699C49.7261 28.0378 49.7822 27.984 49.8161 27.9122C49.8943 27.7462 49.8231 27.5476 49.6565 27.4693C49.49 27.391 49.2914 27.4617 49.2131 27.6282C49.1967 27.6632 49.1868 27.6995 49.1827 27.7363C48.925 27.4225 48.8543 26.9761 49.0389 26.5852C49.2662 26.1026 49.805 25.8666 50.3034 26.0015C50.2216 26.0594 50.1538 26.1382 50.1082 26.2352C49.9668 26.5356 50.0953 26.8937 50.3963 27.0357V27.0346Z" fill="#07828B"/>
<path d="M48.2185 25.9968C48.3832 25.9489 48.7788 25.8846 49.0412 26.0085" stroke="white" stroke-width="0.2" stroke-linecap="round"/>
<path d="M49.1767 24.8516C49.1364 25.0549 49.0797 25.541 49.172 25.8612" stroke="white" stroke-width="0.2" stroke-linecap="round"/>
</g>
<defs>
<linearGradient id="paint0_linear_117_276" x1="27.3096" y1="36.1058" x2="39.533" y2="29.3599" gradientUnits="userSpaceOnUse">
<stop stop-color="#07828B"/>
<stop offset="1" stop-color="#5AB8DB"/>
</linearGradient>
<linearGradient id="paint1_linear_117_276" x1="30.5091" y1="45.087" x2="30.231" y2="48.4773" gradientUnits="userSpaceOnUse">
<stop stop-color="#07828B"/>
<stop offset="1" stop-color="#5AB8DB"/>
</linearGradient>
<linearGradient id="paint2_linear_117_276" x1="29.6671" y1="47.9217" x2="31.1129" y2="46.4324" gradientUnits="userSpaceOnUse">
<stop stop-color="#07828B"/>
<stop offset="1" stop-color="#5AB8DB"/>
</linearGradient>
<linearGradient id="paint3_linear_117_276" x1="35.1681" y1="44.4134" x2="55.5895" y2="25.2901" gradientUnits="userSpaceOnUse">
<stop stop-color="#07828B"/>
<stop offset="1" stop-color="#5AB8DB"/>
</linearGradient>
<linearGradient id="paint4_linear_117_276" x1="27.3096" y1="37.902" x2="57.0024" y2="28.4503" gradientUnits="userSpaceOnUse">
<stop stop-color="#07828B"/>
<stop offset="1" stop-color="#5AB8DB"/>
</linearGradient>
<linearGradient id="paint5_linear_117_276" x1="8" y1="24.318" x2="20.3494" y2="31.1487" gradientUnits="userSpaceOnUse">
<stop stop-color="#07828B"/>
<stop offset="1" stop-color="#5AB8DB"/>
</linearGradient>
<linearGradient id="paint6_linear_117_276" x1="19.1142" y1="28.5841" x2="26.5353" y2="20.4006" gradientUnits="userSpaceOnUse">
<stop stop-color="#07828B"/>
<stop offset="1" stop-color="#5AB8DB"/>
</linearGradient>
<linearGradient id="paint7_linear_117_276" x1="8.48875" y1="25.2693" x2="21.0065" y2="34.8793" gradientUnits="userSpaceOnUse">
<stop stop-color="#5AB8DB"/>
<stop offset="1" stop-color="#07828B"/>
</linearGradient>
<linearGradient id="paint8_linear_117_276" x1="18.2026" y1="21.5408" x2="26.5416" y2="23.7605" gradientUnits="userSpaceOnUse">
<stop stop-color="#5AB8DB"/>
<stop offset="1" stop-color="#07828B"/>
</linearGradient>
<linearGradient id="paint9_linear_117_276" x1="41.5672" y1="26.9001" x2="34.4876" y2="39.5375" gradientUnits="userSpaceOnUse">
<stop stop-color="#5AB8DB"/>
<stop offset="1" stop-color="#07828B"/>
</linearGradient>
<linearGradient id="paint10_linear_117_276" x1="41.1182" y1="19.6029" x2="46.7787" y2="12.165" gradientUnits="userSpaceOnUse">
<stop stop-color="#07828B"/>
<stop offset="1" stop-color="#5AB8DB"/>
</linearGradient>
<clipPath id="clip0_117_276">
<rect width="48" height="34.7606" fill="white" transform="translate(8 15)"/>
</clipPath>
</defs>
</svg>
