<svg width="60" height="60" viewBox="0 0 60 60" fill="none" xmlns="http://www.w3.org/2000/svg">
<path d="M60 29.6592C60 32.4505 57.737 34.7136 54.9457 34.7136H37.5L30 19.5489L38.0951 5.52798C39.4908 3.11069 42.5819 2.28227 44.9993 3.67792L45.0003 3.67841C47.4179 5.07406 48.2462 8.16537 46.8505 10.5828L38.7554 24.6049H54.9457C57.737 24.6049 60 26.8679 60 29.6592Z" fill="#1A73E8"/>
<path d="M45.0004 55.6393L44.9994 55.6398C42.582 57.0354 39.491 56.2072 38.0954 53.7897L30.0001 39.7688L21.905 53.7897C20.5093 56.207 17.4182 57.0354 15.0007 55.6398L14.9998 55.6393C12.5823 54.2436 11.7539 51.1523 13.1495 48.7349L21.2446 34.7128L30.0001 34.3867L38.7555 34.7128L46.8506 48.7349C48.2463 51.1525 47.418 54.2436 45.0004 55.6393Z" fill="#EA4335"/>
<path d="M30.0001 19.5489L27.7175 25.7462L21.2447 24.6049L13.1496 10.5828C11.7539 8.16524 12.5822 5.0741 14.9998 3.67845L15.0008 3.67796C17.4182 2.2823 20.5092 3.11057 21.9048 5.52801L30.0001 19.5489Z" fill="#FBBC04"/>
<path d="M28.6957 24.6055L22.8261 34.7142H5.05435C2.26304 34.7142 0 32.4511 0 29.6598C0 26.8685 2.26304 24.6055 5.05435 24.6055H28.6957Z" fill="#34A853"/>
<path d="M38.7554 34.7135H21.2446L30 19.5488L38.7554 34.7135Z" fill="#185DB7"/>
</svg>
