<svg width="210" height="150" viewBox="0 0 210 150" fill="none" xmlns="http://www.w3.org/2000/svg">
<g clip-path="url(#clip0_10917_12370)">
<path d="M150.92 116.634C139.821 116.619 129.182 112.204 121.334 104.356C113.486 96.5082 109.071 85.8685 109.056 74.7701V41.4787C109.068 30.3795 113.483 19.7385 121.331 11.8902C129.179 4.04184 139.82 -0.372787 150.92 -0.385254C162.02 -0.375276 172.662 4.03855 180.511 11.8874C188.36 19.7363 192.774 30.3787 192.784 41.4787V74.7701C192.771 85.8693 188.356 96.5104 180.508 104.359C172.66 112.207 162.019 116.622 150.92 116.634ZM150.92 18.6626C144.882 18.6701 139.093 21.0727 134.824 25.3431C130.556 29.6135 128.156 35.403 128.151 41.4411V74.7325C128.156 80.7705 130.556 86.5599 134.824 90.8303C139.093 95.1007 144.882 97.5033 150.92 97.5108C156.959 97.5058 162.75 95.1043 167.021 90.8336C171.292 86.563 173.693 80.7722 173.698 74.7325V41.4411C173.683 35.4079 171.277 29.6267 167.008 25.3642C162.738 21.1016 156.953 18.7053 150.92 18.7004V18.6626Z" fill="#A5ACB6"/>
<path d="M197.447 50.2207H102.753C95.6362 50.2207 89.8665 55.9904 89.8665 63.1077V136.728C89.8665 143.845 95.6362 149.615 102.753 149.615H197.447C204.564 149.615 210.334 143.845 210.334 136.728V63.1077C210.334 55.9904 204.564 50.2207 197.447 50.2207Z" fill="#EAEDF4"/>
<path d="M150.938 115.598C159.596 115.598 166.614 108.58 166.614 99.9228C166.614 91.2655 159.596 84.2473 150.938 84.2473C142.281 84.2473 135.263 91.2655 135.263 99.9228C135.263 108.58 142.281 115.598 150.938 115.598Z" fill="#FFD30F"/>
<path d="M112.688 98.6885H56.3641C53.3257 98.6885 50.8626 101.152 50.8626 104.19C50.8626 107.228 53.3257 109.691 56.3641 109.691H112.688C115.727 109.691 118.19 107.228 118.19 104.19C118.19 101.152 115.727 98.6885 112.688 98.6885Z" fill="#A5ACB6"/>
<path d="M82.6939 103.653V93.1491C82.6939 90.1108 80.2308 87.6477 77.1924 87.6477C74.1541 87.6477 71.691 90.1108 71.691 93.1491V103.653C71.691 106.691 74.1541 109.154 77.1924 109.154C80.2308 109.154 82.6939 106.691 82.6939 103.653Z" fill="#A5ACB6"/>
<path d="M101.864 103.644V84.9536C101.864 81.9152 99.4012 79.4521 96.3628 79.4521C93.3244 79.4521 90.8613 81.9152 90.8613 84.9536V103.644C90.8613 106.682 93.3244 109.145 96.3628 109.145C99.4012 109.145 101.864 106.682 101.864 103.644Z" fill="#A5ACB6"/>
<path d="M32.2009 133.629C49.6664 133.629 63.825 119.47 63.825 102.005C63.825 84.5392 49.6664 70.3806 32.2009 70.3806C14.7355 70.3806 0.576874 84.5392 0.576874 102.005C0.576874 119.47 14.7355 133.629 32.2009 133.629Z" fill="#EAEDF4"/>
<path d="M32.2009 114.92C39.3339 114.92 45.1162 109.137 45.1162 102.004C45.1162 94.8715 39.3339 89.0891 32.2009 89.0891C25.068 89.0891 19.2857 94.8715 19.2857 102.004C19.2857 109.137 25.068 114.92 32.2009 114.92Z" fill="white"/>
</g>
<defs>
<clipPath id="clip0_10917_12370">
<rect width="210" height="150" fill="white"/>
</clipPath>
</defs>
</svg>
