<svg width="24" height="24" viewBox="0 0 24 24" fill="none" xmlns="http://www.w3.org/2000/svg">
<g id="&#232;&#174;&#161;&#231;&#174;&#151;&#229;&#153;&#168; 1">
<path id="Union" fill-rule="evenodd" clip-rule="evenodd" d="M6.74811 2.07495H17.2534C19.8647 2.07495 21.9957 4.20602 22.0057 6.81732V17.1725C22.0057 19.7938 19.8747 21.9249 17.2534 21.9249H6.75811C4.1368 21.9249 2.00574 19.7938 2.00574 17.1725V6.81732C2.00574 4.20602 4.1368 2.07495 6.74811 2.07495ZM17.2434 20.6742C19.1743 20.6742 20.7351 19.1035 20.7351 17.1825V6.81732C20.7351 4.88636 19.1643 3.32558 17.2434 3.32558H6.74811C4.81714 3.32558 3.25636 4.89636 3.25636 6.81732V17.1825C3.25636 19.1135 4.82715 20.6742 6.74811 20.6742H17.2434ZM14.3722 8.32799H17.4637C17.7639 8.32799 17.994 8.5681 18.004 8.85825C18.004 9.1584 17.7639 9.38852 17.4737 9.38852H14.3722C14.072 9.38852 13.8419 9.1484 13.8419 8.85825C13.8419 8.5581 14.082 8.32799 14.3722 8.32799ZM9.0195 8.32799H10.4602C10.7504 8.32799 10.9805 8.5681 11.0005 8.85825C11.0005 9.1584 10.7604 9.38852 10.4702 9.38852H9.0295V10.8392C9.0295 11.1394 8.79939 11.3695 8.49924 11.3695C8.19909 11.3695 7.96897 11.1294 7.96897 10.8392V9.39852H6.52825C6.2281 9.39852 5.99799 9.1584 5.99799 8.86825C5.99799 8.5681 6.23811 8.33799 6.52825 8.33799H7.95897V6.89727C7.95897 6.59712 8.18908 6.367 8.48923 6.367C8.78938 6.367 9.0195 6.60712 9.0195 6.89727V8.32799ZM9.45972 14.0609C9.65982 13.8507 9.98998 13.8507 10.2001 14.0609C10.4102 14.271 10.4102 14.6011 10.2001 14.8012L9.23961 15.7617L10.2001 16.7222C10.4102 16.9223 10.4102 17.2524 10.2001 17.4626C10.1 17.5626 9.96997 17.6126 9.8299 17.6126C9.69984 17.6126 9.55977 17.5626 9.45972 17.4626L8.49924 16.5021L7.53876 17.4626C7.43871 17.5626 7.30864 17.6126 7.16857 17.6126C7.03851 17.6126 6.89844 17.5626 6.79839 17.4626C6.58828 17.2625 6.58828 16.9323 6.79839 16.7222L7.75887 15.7617L6.79839 14.8012C6.58828 14.6011 6.58828 14.271 6.79839 14.0609C6.99849 13.8507 7.32865 13.8507 7.53876 14.0609L8.49924 15.0213L9.45972 14.0609ZM14.3722 13.9608H17.4637C17.7639 13.9608 18.004 14.1909 18.004 14.4911C18.004 14.7912 17.7639 15.0213 17.4737 15.0213H14.3722C14.072 15.0213 13.8419 14.7912 13.8419 14.4911C13.8419 14.1909 14.082 13.9608 14.3722 13.9608ZM14.3722 16.5321H17.4637C17.7639 16.5321 17.994 16.7722 18.004 17.0624C18.004 17.3625 17.7639 17.5926 17.4737 17.5926H14.3722C14.072 17.5926 13.8419 17.3525 13.8419 17.0624C13.8419 16.7622 14.082 16.5321 14.3722 16.5321Z" fill="#787D83"/>
</g>
</svg>
