<svg width="16" height="16" viewBox="0 0 16 16" fill="none" xmlns="http://www.w3.org/2000/svg">
<g id="&#232;&#174;&#161;&#231;&#174;&#151;&#229;&#153;&#168; 1" clip-path="url(#clip0_3855_11902)">
<g id="Union">
<path fill-rule="evenodd" clip-rule="evenodd" d="M3.79774 0.0600586H12.2019C14.291 0.0600586 15.9958 1.76491 16.0038 3.85396V12.1381C16.0038 14.2351 14.299 15.94 12.2019 15.94H3.80575C1.7087 15.94 0.00384521 14.2351 0.00384521 12.1381V3.85396C0.00384521 1.76491 1.7087 0.0600586 3.79774 0.0600586ZM12.1939 14.9395C13.7387 14.9395 14.9873 13.6829 14.9873 12.1461V3.85396C14.9873 2.30918 13.7307 1.06056 12.1939 1.06056H3.79774C2.25297 1.06056 1.00435 2.31719 1.00435 3.85396V12.1461C1.00435 13.6909 2.26097 14.9395 3.79774 14.9395H12.1939ZM9.89699 5.06255H12.3702C12.6104 5.06255 12.7944 5.25465 12.8024 5.48676C12.8024 5.72688 12.6104 5.91098 12.3782 5.91098H9.89699C9.65687 5.91098 9.47278 5.71888 9.47278 5.48676C9.47278 5.24664 9.66488 5.06255 9.89699 5.06255ZM5.61485 5.06255H6.76743C6.99954 5.06255 7.18364 5.25465 7.19964 5.48676C7.19964 5.72688 7.00755 5.91098 6.77543 5.91098H5.62286V7.07156C5.62286 7.31168 5.43876 7.49577 5.19864 7.49577C4.95852 7.49577 4.77443 7.30367 4.77443 7.07156V5.91898H3.62186C3.38174 5.91898 3.19764 5.72688 3.19764 5.49477C3.19764 5.25465 3.38974 5.07056 3.62186 5.07056H4.76643V3.91798C4.76643 3.67786 4.95052 3.49377 5.19064 3.49377C5.43076 3.49377 5.61485 3.68586 5.61485 3.91798V5.06255ZM5.96703 9.64885C6.12711 9.48076 6.39124 9.48076 6.55932 9.64885C6.72741 9.81693 6.72741 10.0811 6.55932 10.2411L5.79094 11.0095L6.55932 11.7779C6.72741 11.938 6.72741 12.2021 6.55932 12.3702C6.47928 12.4502 6.37523 12.4903 6.26318 12.4903C6.15912 12.4903 6.04707 12.4502 5.96703 12.3702L5.19864 11.6018L4.43026 12.3702C4.35022 12.4502 4.24617 12.4903 4.13411 12.4903C4.03006 12.4903 3.918 12.4502 3.83796 12.3702C3.66988 12.2101 3.66988 11.946 3.83796 11.7779L4.60635 11.0095L3.83796 10.2411C3.66988 10.0811 3.66988 9.81693 3.83796 9.64885C3.99804 9.48076 4.26218 9.48076 4.43026 9.64885L5.19864 10.4172L5.96703 9.64885ZM9.89699 9.56881H12.3702C12.6104 9.56881 12.8024 9.7529 12.8024 9.99302C12.8024 10.2331 12.6104 10.4172 12.3782 10.4172H9.89699C9.65687 10.4172 9.47278 10.2331 9.47278 9.99302C9.47278 9.7529 9.66488 9.56881 9.89699 9.56881ZM9.89699 11.6258H12.3702C12.6104 11.6258 12.7944 11.8179 12.8024 12.05C12.8024 12.2902 12.6104 12.4743 12.3782 12.4743H9.89699C9.65687 12.4743 9.47278 12.2822 9.47278 12.05C9.47278 11.8099 9.66488 11.6258 9.89699 11.6258Z" fill="#A5A8AC"/>
<path d="M16.0038 3.85396H16.1038L16.1038 3.85357L16.0038 3.85396ZM12.8024 5.48676H12.9025L12.9024 5.48332L12.8024 5.48676ZM5.61485 5.06255H5.51485V5.16255H5.61485V5.06255ZM7.19964 5.48676H7.29988L7.29941 5.47988L7.19964 5.48676ZM5.62286 5.91098V5.81098H5.52286V5.91098H5.62286ZM4.77443 5.91898H4.87443V5.81898H4.77443V5.91898ZM4.76643 5.07056V5.17056H4.86643V5.07056H4.76643ZM6.55932 9.64885L6.48861 9.71956V9.71956L6.55932 9.64885ZM5.96703 9.64885L6.03776 9.71958L6.03944 9.71781L5.96703 9.64885ZM6.55932 10.2411L6.49034 10.1687L6.48861 10.1704L6.55932 10.2411ZM5.79094 11.0095L5.72023 10.9388L5.64952 11.0095L5.72023 11.0802L5.79094 11.0095ZM6.55932 11.7779L6.48859 11.8486L6.49036 11.8503L6.55932 11.7779ZM5.96703 12.3702L6.03774 12.2995L5.96703 12.3702ZM5.19864 11.6018L5.26935 11.5311L5.19864 11.4604L5.12793 11.5311L5.19864 11.6018ZM4.43026 12.3702L4.50097 12.4409V12.4409L4.43026 12.3702ZM3.83796 12.3702L3.9087 12.2995L3.90693 12.2978L3.83796 12.3702ZM4.60635 11.0095L4.67706 11.0802L4.74777 11.0095L4.67706 10.9388L4.60635 11.0095ZM3.83796 10.2411L3.9087 10.1704L3.90693 10.1687L3.83796 10.2411ZM3.83796 9.64885L3.9087 9.71958L3.91038 9.71781L3.83796 9.64885ZM4.43026 9.64885L4.50097 9.57814V9.57813L4.43026 9.64885ZM5.19864 10.4172L5.12793 10.4879L5.19864 10.5587L5.26935 10.4879L5.19864 10.4172ZM12.8024 12.05H12.9025L12.9024 12.0466L12.8024 12.05ZM12.2019 -0.0399414H3.79774V0.160059H12.2019V-0.0399414ZM16.1038 3.85357C16.0956 1.70967 14.3463 -0.0399414 12.2019 -0.0399414V0.160059C14.2357 0.160059 15.8961 1.82015 15.9038 3.85434L16.1038 3.85357ZM16.1038 12.1381V3.85396H15.9038V12.1381H16.1038ZM12.2019 16.04C14.3542 16.04 16.1038 14.2904 16.1038 12.1381H15.9038C15.9038 14.1799 14.2438 15.84 12.2019 15.84V16.04ZM3.80575 16.04H12.2019V15.84H3.80575V16.04ZM-0.0961548 12.1381C-0.0961548 14.2904 1.65347 16.04 3.80575 16.04V15.84C1.76393 15.84 0.103845 14.1799 0.103845 12.1381H-0.0961548ZM-0.0961548 3.85396V12.1381H0.103845V3.85396H-0.0961548ZM3.79774 -0.0399414C1.65347 -0.0399414 -0.0961548 1.70968 -0.0961548 3.85396H0.103845C0.103845 1.82014 1.76393 0.160059 3.79774 0.160059V-0.0399414ZM14.8873 12.1461C14.8873 13.6278 13.6833 14.8395 12.1939 14.8395V15.0395C13.7941 15.0395 15.0873 13.7379 15.0873 12.1461H14.8873ZM14.8873 3.85396V12.1461H15.0873V3.85396H14.8873ZM12.1939 1.16056C13.6757 1.16056 14.8873 2.3646 14.8873 3.85396H15.0873C15.0873 2.25377 13.7858 0.960559 12.1939 0.960559V1.16056ZM3.79774 1.16056H12.1939V0.960559H3.79774V1.16056ZM1.10435 3.85396C1.10435 2.37223 2.30838 1.16056 3.79774 1.16056V0.960559C2.19756 0.960559 0.904346 2.26215 0.904346 3.85396H1.10435ZM1.10435 12.1461V3.85396H0.904346V12.1461H1.10435ZM3.79774 14.8395C2.31602 14.8395 1.10435 13.6355 1.10435 12.1461H0.904346C0.904346 13.7463 2.20593 15.0395 3.79774 15.0395V14.8395ZM12.1939 14.8395H3.79774V15.0395H12.1939V14.8395ZM12.3702 4.96255H9.89699V5.16255H12.3702V4.96255ZM12.9024 5.48332C12.8926 5.20057 12.6674 4.96255 12.3702 4.96255V5.16255C12.5533 5.16255 12.6962 5.30873 12.7025 5.49021L12.9024 5.48332ZM12.3782 6.01098C12.6643 6.01098 12.9024 5.78334 12.9024 5.48676H12.7024C12.7024 5.67043 12.5564 5.81098 12.3782 5.81098V6.01098ZM9.89699 6.01098H12.3782V5.81098H9.89699V6.01098ZM9.37278 5.48676C9.37278 5.77287 9.60042 6.01098 9.89699 6.01098V5.81098C9.71333 5.81098 9.57278 5.66489 9.57278 5.48676H9.37278ZM9.89699 4.96255C9.61089 4.96255 9.37278 5.19019 9.37278 5.48676H9.57278C9.57278 5.3031 9.71887 5.16255 9.89699 5.16255V4.96255ZM6.76743 4.96255H5.61485V5.16255H6.76743V4.96255ZM7.29941 5.47988C7.28022 5.20171 7.05827 4.96255 6.76743 4.96255V5.16255C6.94082 5.16255 7.08705 5.30758 7.09988 5.49365L7.29941 5.47988ZM6.77543 6.01098C7.06154 6.01098 7.29964 5.78334 7.29964 5.48676H7.09964C7.09964 5.67043 6.95356 5.81098 6.77543 5.81098V6.01098ZM5.62286 6.01098H6.77543V5.81098H5.62286V6.01098ZM5.72286 7.07156V5.91098H5.52286V7.07156H5.72286ZM5.19864 7.59577C5.49399 7.59577 5.72286 7.36691 5.72286 7.07156H5.52286C5.52286 7.25645 5.38354 7.39577 5.19864 7.39577V7.59577ZM4.67443 7.07156C4.67443 7.35767 4.90207 7.59577 5.19864 7.59577V7.39577C5.01498 7.39577 4.87443 7.24968 4.87443 7.07156H4.67443ZM4.67443 5.91898V7.07156H4.87443V5.91898H4.67443ZM3.62186 6.01898H4.77443V5.81898H3.62186V6.01898ZM3.09764 5.49477C3.09764 5.78088 3.32528 6.01898 3.62186 6.01898V5.81898C3.43819 5.81898 3.29764 5.67289 3.29764 5.49477H3.09764ZM3.62186 4.97056C3.33575 4.97056 3.09764 5.19819 3.09764 5.49477H3.29764C3.29764 5.31111 3.44373 5.17056 3.62186 5.17056V4.97056ZM4.76643 4.97056H3.62186V5.17056H4.76643V4.97056ZM4.66643 3.91798V5.07056H4.86643V3.91798H4.66643ZM5.19064 3.39377C4.89529 3.39377 4.66643 3.62263 4.66643 3.91798H4.86643C4.86643 3.73309 5.00575 3.59377 5.19064 3.59377V3.39377ZM5.71485 3.91798C5.71485 3.63187 5.48722 3.39377 5.19064 3.39377V3.59377C5.3743 3.59377 5.51485 3.73986 5.51485 3.91798H5.71485ZM5.71485 5.06255V3.91798H5.51485V5.06255H5.71485ZM6.63003 9.57814C6.42388 9.37198 6.09504 9.36944 5.89461 9.57988L6.03944 9.71781C6.15918 9.59209 6.3586 9.58954 6.48861 9.71956L6.63003 9.57814ZM6.62829 10.3136C6.83873 10.1131 6.83619 9.78429 6.63003 9.57813L6.48861 9.71956C6.61863 9.84957 6.61608 10.049 6.49036 10.1687L6.62829 10.3136ZM5.86165 11.0802L6.63003 10.3119L6.48861 10.1704L5.72023 10.9388L5.86165 11.0802ZM6.63003 11.7072L5.86165 10.9388L5.72023 11.0802L6.48861 11.8486L6.63003 11.7072ZM6.63003 12.4409C6.83619 12.2348 6.83873 11.9059 6.62829 11.7055L6.49036 11.8503C6.61608 11.9701 6.61863 12.1695 6.48861 12.2995L6.63003 12.4409ZM6.26318 12.5903C6.39997 12.5903 6.53002 12.5409 6.63003 12.4409L6.48861 12.2995C6.42855 12.3596 6.3505 12.3903 6.26318 12.3903V12.5903ZM5.89632 12.4409C5.997 12.5416 6.1354 12.5903 6.26318 12.5903V12.3903C6.18285 12.3903 6.09713 12.3589 6.03774 12.2995L5.89632 12.4409ZM5.12793 11.6725L5.89632 12.4409L6.03774 12.2995L5.26935 11.5311L5.12793 11.6725ZM4.50097 12.4409L5.26935 11.6725L5.12793 11.5311L4.35955 12.2995L4.50097 12.4409ZM4.13411 12.5903C4.2709 12.5903 4.40095 12.5409 4.50097 12.4409L4.35955 12.2995C4.29949 12.3596 4.22143 12.3903 4.13411 12.3903V12.5903ZM3.76725 12.4409C3.86794 12.5416 4.00634 12.5903 4.13411 12.5903V12.3903C4.05378 12.3903 3.96807 12.3589 3.90867 12.2995L3.76725 12.4409ZM3.76725 11.7072C3.5611 11.9134 3.55855 12.2422 3.769 12.4426L3.90693 12.2978C3.7812 12.1781 3.77866 11.9786 3.90867 11.8486L3.76725 11.7072ZM4.53564 10.9388L3.76725 11.7072L3.90867 11.8486L4.67706 11.0802L4.53564 10.9388ZM3.76725 10.3119L4.53564 11.0802L4.67706 10.9388L3.90867 10.1704L3.76725 10.3119ZM3.76725 9.57813C3.5611 9.78429 3.55855 10.1131 3.769 10.3136L3.90693 10.1687C3.7812 10.049 3.77866 9.84957 3.90867 9.71956L3.76725 9.57813ZM4.50097 9.57813C4.29482 9.37198 3.96597 9.36944 3.76555 9.57988L3.91038 9.71781C4.03011 9.59209 4.22954 9.58954 4.35955 9.71956L4.50097 9.57813ZM5.26935 10.3465L4.50097 9.57814L4.35955 9.71956L5.12793 10.4879L5.26935 10.3465ZM5.89632 9.57814L5.12793 10.3465L5.26935 10.4879L6.03774 9.71956L5.89632 9.57814ZM12.3702 9.46881H9.89699V9.66881H12.3702V9.46881ZM12.9024 9.99302C12.9024 9.69524 12.6631 9.46881 12.3702 9.46881V9.66881C12.5576 9.66881 12.7024 9.81056 12.7024 9.99302H12.9024ZM12.3782 10.5172C12.6643 10.5172 12.9024 10.2896 12.9024 9.99302H12.7024C12.7024 10.1767 12.5564 10.3172 12.3782 10.3172V10.5172ZM9.89699 10.5172H12.3782V10.3172H9.89699V10.5172ZM9.37278 9.99302C9.37278 10.2884 9.60164 10.5172 9.89699 10.5172V10.3172C9.7121 10.3172 9.57278 10.1779 9.57278 9.99302H9.37278ZM9.89699 9.46881C9.61089 9.46881 9.37278 9.69644 9.37278 9.99302H9.57278C9.57278 9.80935 9.71887 9.66881 9.89699 9.66881V9.46881ZM12.3702 11.5258H9.89699V11.7258H12.3702V11.5258ZM12.9024 12.0466C12.8926 11.7639 12.6674 11.5258 12.3702 11.5258V11.7258C12.5533 11.7258 12.6962 11.872 12.7025 12.0535L12.9024 12.0466ZM12.3782 12.5743C12.6643 12.5743 12.9024 12.3466 12.9024 12.05H12.7024C12.7024 12.2337 12.5564 12.3743 12.3782 12.3743V12.5743ZM9.89699 12.5743H12.3782V12.3743H9.89699V12.5743ZM9.37278 12.05C9.37278 12.3362 9.60042 12.5743 9.89699 12.5743V12.3743C9.71333 12.3743 9.57278 12.2282 9.57278 12.05H9.37278ZM9.89699 11.5258C9.61089 11.5258 9.37278 11.7535 9.37278 12.05H9.57278C9.57278 11.8664 9.71887 11.7258 9.89699 11.7258V11.5258Z" fill="#A5A8AC"/>
</g>
</g>
<defs>
<clipPath id="clip0_3855_11902">
<rect width="16" height="16" fill="white"/>
</clipPath>
</defs>
</svg>
