<svg width="16" height="16" viewBox="0 0 16 16" fill="none" xmlns="http://www.w3.org/2000/svg">
<circle cx="8" cy="8" r="8" fill="#07828B"/>
<g clip-path="url(#clip0_5715_31782)">
<path d="M9.06978 7.90858C9.11725 7.20085 9.73778 6.66672 10.4471 6.66672H11.4667C11.5017 6.66672 11.5364 6.65982 11.5688 6.64642C11.6011 6.63302 11.6305 6.61337 11.6553 6.58861C11.68 6.56385 11.6997 6.53445 11.7131 6.5021C11.7265 6.46974 11.7334 6.43507 11.7334 6.40005V5.33338C11.7334 5.04005 11.4934 4.80005 11.2 4.80005H5.33338C5.04005 4.80005 4.80005 5.04005 4.80005 5.33338V10.6667C4.80005 10.96 5.04005 11.2 5.33338 11.2H11.2C11.4934 11.2 11.7334 10.96 11.7334 10.6667V9.60005C11.7334 9.56503 11.7265 9.53035 11.7131 9.498C11.6997 9.46565 11.68 9.43625 11.6553 9.41149C11.6305 9.38672 11.6011 9.36708 11.5688 9.35368C11.5364 9.34028 11.5017 9.33338 11.4667 9.33338H10.4C9.63458 9.33338 9.01778 8.68498 9.06978 7.90858Z" fill="white"/>
<path d="M12 7.19995H10.4C10.1878 7.19995 9.98432 7.28424 9.83429 7.43427C9.68426 7.58429 9.59998 7.78778 9.59998 7.99995C9.59998 8.21212 9.68426 8.41561 9.83429 8.56564C9.98432 8.71567 10.1878 8.79995 10.4 8.79995H12C12.2121 8.79995 12.4156 8.71567 12.5657 8.56564C12.7157 8.41561 12.8 8.21212 12.8 7.99995C12.8 7.78778 12.7157 7.58429 12.5657 7.43427C12.4156 7.28424 12.2121 7.19995 12 7.19995Z" fill="white"/>
</g>
<defs>
<clipPath id="clip0_5715_31782">
<rect width="8" height="8" fill="white" transform="translate(4.80005 4)"/>
</clipPath>
</defs>
</svg>
