<svg width="16" height="16" viewBox="0 0 16 16" fill="none" xmlns="http://www.w3.org/2000/svg">
<g id="icon_add" clip-path="url(#clip0_167_3587)">
<path id="Vector" d="M8.57143 7.42857H11.4286C11.7714 7.42857 12 7.65714 12 8C12 8.34286 11.7714 8.57143 11.4286 8.57143H8.57143V11.4286C8.57143 11.7714 8.34286 12 8 12C7.65714 12 7.42857 11.7714 7.42857 11.4286V8.57143H4.57143C4.22857 8.57143 4 8.34286 4 8C4 7.65714 4.22857 7.42857 4.57143 7.42857H7.42857V4.57143C7.42857 4.22857 7.65714 4 8 4C8.34286 4 8.57143 4.22857 8.57143 4.57143V7.42857ZM8 16C3.6 16 0 12.4 0 8C0 3.6 3.6 0 8 0C12.4 0 16 3.6 16 8C16 12.4 12.4 16 8 16ZM8 14.8571C11.7714 14.8571 14.8571 11.7714 14.8571 8C14.8571 4.22857 11.7714 1.14286 8 1.14286C4.22857 1.14286 1.14286 4.22857 1.14286 8C1.14286 11.7714 4.22857 14.8571 8 14.8571Z" fill="#07828B"/>
</g>
<defs>
<clipPath id="clip0_167_3587">
<rect width="16" height="16" fill="white"/>
</clipPath>
</defs>
</svg>
