<svg width="24" height="24" viewBox="0 0 24 24" fill="none" xmlns="http://www.w3.org/2000/svg">
<path id="Vector" d="M12.8574 11.1429H17.1431C17.6574 11.1429 18.0002 11.4857 18.0002 12C18.0002 12.5143 17.6574 12.8571 17.1431 12.8571H12.8574V17.1429C12.8574 17.6571 12.5145 18 12.0002 18C11.486 18 11.1431 17.6571 11.1431 17.1429V12.8571H6.85739C6.3431 12.8571 6.00024 12.5143 6.00024 12C6.00024 11.4857 6.3431 11.1429 6.85739 11.1429H11.1431V6.85714C11.1431 6.34286 11.486 6 12.0002 6C12.5145 6 12.8574 6.34286 12.8574 6.85714V11.1429ZM12.0002 24C5.40024 24 0.000244141 18.6 0.000244141 12C0.000244141 5.4 5.40024 0 12.0002 0C18.6002 0 24.0002 5.4 24.0002 12C24.0002 18.6 18.6002 24 12.0002 24ZM12.0002 22.2857C17.6574 22.2857 22.286 17.6571 22.286 12C22.286 6.34286 17.6574 1.71429 12.0002 1.71429C6.3431 1.71429 1.71453 6.34286 1.71453 12C1.71453 17.6571 6.3431 22.2857 12.0002 22.2857Z" fill="#9FA1A6"/>
</svg>
