<svg width="22" height="22" viewBox="0 0 22 22" fill="none" xmlns="http://www.w3.org/2000/svg">
<path id="Vector" d="M11.7504 10.25H15.5004C15.9504 10.25 16.2504 10.55 16.2504 11C16.2504 11.45 15.9504 11.75 15.5004 11.75H11.7504V15.5C11.7504 15.95 11.4504 16.25 11.0004 16.25C10.5504 16.25 10.2504 15.95 10.2504 15.5V11.75H6.50037C6.05037 11.75 5.75037 11.45 5.75037 11C5.75037 10.55 6.05037 10.25 6.50037 10.25H10.2504V6.5C10.2504 6.05 10.5504 5.75 11.0004 5.75C11.4504 5.75 11.7504 6.05 11.7504 6.5V10.25ZM11.0004 21.5C5.22537 21.5 0.500366 16.775 0.500366 11C0.500366 5.225 5.22537 0.5 11.0004 0.5C16.7754 0.5 21.5004 5.225 21.5004 11C21.5004 16.775 16.7754 21.5 11.0004 21.5ZM11.0004 20C15.9504 20 20.0004 15.95 20.0004 11C20.0004 6.05 15.9504 2 11.0004 2C6.05037 2 2.00037 6.05 2.00037 11C2.00037 15.95 6.05037 20 11.0004 20Z" fill="white"/>
</svg>
