<svg width="20" height="20" viewBox="0 0 20 20" fill="" xmlns="http://www.w3.org/2000/svg">
<path d="M9.28022 3C8.12403 3 7.18688 3.93505 7.18681 5.09341V5.83482H6.48901C5.85087 5.80914 4.87144 6.22601 4.5046 7.25227L3.6978 7.23042C3.31241 7.23042 2.99993 7.54213 3 7.92823C3 8.31432 3.31241 8.62638 3.6978 8.62638H4.3956V9.32418H3.6978C3.31241 9.32418 2.99993 9.6354 3 10.022C3 10.4079 3.31241 10.7191 3.6978 10.7198H4.3956V11.4176H3.6978C3.31241 11.4176 2.99993 11.7288 3 12.1154C3 12.5013 3.31241 12.8132 3.6978 12.8132H4.3956V13.511H3.6978C3.31241 13.511 2.99993 13.8222 3 14.2088C3 14.5947 3.31241 14.9066 3.6978 14.9066H4.3956C4.3956 16.0622 5.33282 17 6.48901 17H11.3736C12.5298 17 13.467 16.0622 13.467 14.9066V14.2088L14.1648 14.1865C15.321 14.1865 16.2582 13.2514 16.2582 12.0931V5.09341C16.2582 3.93512 15.3209 2.99986 14.1648 3H9.28022ZM14.1648 4.3956C14.5502 4.3956 14.8627 4.70731 14.8626 5.09341V12.0714C14.8626 12.4573 14.5502 12.7692 14.1648 12.7692L13.467 12.7909V7.92823C13.467 6.77204 12.5298 5.83482 11.3736 5.83482H8.58241V5.11525C8.58241 4.72916 8.89482 4.41738 9.28022 4.41745L14.1648 4.3956Z" fill=""/>
</svg>
