<svg width="20" height="21" viewBox="0 0 20 21" fill="none" xmlns="http://www.w3.org/2000/svg">
<mask id="path-1-inside-1_11162_3051" fill="white">
<path fill-rule="evenodd" clip-rule="evenodd" d="M8.47805 1.52559C3.71691 2.0038 0 6.02282 0 10.91C0 16.1191 4.22286 20.342 9.43202 20.342C14.3189 20.342 18.3377 16.6255 18.8163 11.8648H10.0294C9.17263 11.8648 8.47805 11.1702 8.47805 10.3134V1.52559Z"/>
</mask>
<path d="M8.47805 1.52559H10.2075V-0.386239L8.30521 -0.195174L8.47805 1.52559ZM18.8163 11.8648L20.5371 12.0378L20.7283 10.1354H18.8163V11.8648ZM1.72942 10.91C1.72942 6.91996 4.76457 3.6367 8.65088 3.24635L8.30521 -0.195174C2.66924 0.37091 -1.72942 5.12568 -1.72942 10.91H1.72942ZM9.43202 18.6126C5.17799 18.6126 1.72942 15.164 1.72942 10.91H-1.72942C-1.72942 17.0743 3.26773 22.0714 9.43202 22.0714V18.6126ZM17.0956 11.6918C16.7049 15.5778 13.4218 18.6126 9.43202 18.6126V22.0714C15.216 22.0714 19.9705 17.6733 20.5371 12.0378L17.0956 11.6918ZM18.8163 10.1354H10.0294V13.5942H18.8163V10.1354ZM10.0294 10.1354C10.1278 10.1354 10.2075 10.2151 10.2075 10.3134H6.74862C6.74862 12.1254 8.2175 13.5942 10.0294 13.5942V10.1354ZM10.2075 10.3134V1.52559H6.74862V10.3134H10.2075Z" fill="#C5C5C4" mask="url(#path-1-inside-1_11162_3051)"/>
<mask id="path-3-inside-2_11162_3051" fill="white">
<path fill-rule="evenodd" clip-rule="evenodd" d="M19.9886 8.90545H12.5855C11.7287 8.90545 11.0341 8.21086 11.0341 7.35405V0.0148697C11.2014 0.00500301 11.37 0 11.5399 0C16.2123 0 20.0001 3.78777 20.0001 8.46022C20.0001 8.60957 19.9962 8.75801 19.9886 8.90545Z"/>
</mask>
<path d="M19.9886 8.90545V10.6349H21.6306L21.7157 8.99499L19.9886 8.90545ZM11.0341 0.0148697L10.9323 -1.71155L9.30465 -1.61558V0.0148697H11.0341ZM19.9886 7.17602H12.5855V10.6349H19.9886V7.17602ZM12.5855 7.17602C12.6838 7.17602 12.7635 7.25573 12.7635 7.35405H9.30465C9.30465 9.16599 10.7735 10.6349 12.5855 10.6349V7.17602ZM12.7635 7.35405V0.0148697H9.30465V7.35405H12.7635ZM11.1359 1.74129C11.2693 1.73342 11.404 1.72942 11.5399 1.72942V-1.72942C11.3361 -1.72942 11.1335 -1.72342 10.9323 -1.71155L11.1359 1.74129ZM11.5399 1.72942C15.2572 1.72942 18.2707 4.7429 18.2707 8.46022H21.7295C21.7295 2.83264 17.1674 -1.72942 11.5399 -1.72942V1.72942ZM18.2707 8.46022C18.2707 8.57969 18.2676 8.69827 18.2615 8.8159L21.7157 8.99499C21.7249 8.81774 21.7295 8.63944 21.7295 8.46022H18.2707Z" fill="#C5C5C4" mask="url(#path-3-inside-2_11162_3051)"/>
</svg>
