<svg width="18" height="22" viewBox="0 0 18 22" fill="none" xmlns="http://www.w3.org/2000/svg">
<path d="M12 16L17.046 20.9577" stroke="#C5C5C4" stroke-width="1.41646"/>
<path fill-rule="evenodd" clip-rule="evenodd" d="M15.743 9.51572C15.743 13.5047 12.5094 16.7384 8.5207 16.7384C6.94568 16.7384 5.4884 16.2342 4.30145 15.3784L6.65369 13.3296L1.13552 13.3296L1.13611 13.33H0.899234C2.29865 16.121 5.18596 18.0368 8.5207 18.0368C13.2266 18.0368 17.0414 14.2218 17.0414 9.51572C17.0414 8.81672 16.9572 8.13738 16.7985 7.48728H15.4543C15.6422 8.13079 15.743 8.81148 15.743 9.51572ZM1.29842 9.51572C1.29842 10.2796 1.41701 11.0158 1.63677 11.7069H0.284363C0.0988532 11.0077 0 10.2733 0 9.51572C0 4.80965 3.81485 0.994629 8.5207 0.994629C11.9199 0.994629 14.8542 2.98516 16.2216 5.86421H14.7534C14.7372 5.83675 14.7209 5.80941 14.7045 5.78218H10.3884L12.7905 3.68988C11.5945 2.81173 10.1182 2.29305 8.5207 2.29305C4.532 2.29305 1.29842 5.52669 1.29842 9.51572Z" fill="#C5C5C4"/>
</svg>
