<svg width="21" height="20" viewBox="0 0 21 20" fill="none" xmlns="http://www.w3.org/2000/svg">
<path d="M10.8191 3.18867L8.14116 1.4033C5.97717 0.916381 1.51936 1.27346 1 6.59711C1.02705 7.35454 1.37329 9.16157 2.54184 10.3302C3.71039 11.4988 8.5469 16.065 10.8191 18.202L17.1077 11.791M10.8191 3.18867C12.3068 1.64677 15.9315 -0.609274 18.5283 2.70178C21.1251 6.01283 20.0431 8.73417 19.1775 9.68095L17.1077 11.791M10.8191 3.18867L7.94993 5.84549C7.14021 6.59528 7.15563 7.88051 7.98311 8.61065V8.61065C8.679 9.22468 9.7206 9.2332 10.4264 8.63064L12.5232 6.84066L17.1077 11.791" stroke="#C5C5C4" stroke-width="1.5"/>
</svg>
