<svg xmlns="http://www.w3.org/2000/svg" width="24" height="24" viewBox="0 0 24 24" fill="none">
<path d="M8.79872 7.13784C8.73571 7.07655 8.68563 7.00326 8.65143 6.92229C8.61723 6.84132 8.59961 6.75432 8.59961 6.66642C8.59961 6.57853 8.61723 6.49152 8.65143 6.41055C8.68563 6.32958 8.73571 6.25629 8.79872 6.19501C9.06433 5.935 9.49474 5.935 9.76035 6.19501L15.2005 11.5284C15.4661 11.7888 15.4661 12.2112 15.2005 12.4716L9.76035 17.805C9.49474 18.065 9.06433 18.065 8.79872 17.805C8.73571 17.7437 8.68563 17.6704 8.65143 17.5894C8.61723 17.5085 8.59961 17.4215 8.59961 17.3336C8.59961 17.2457 8.61723 17.1587 8.65143 17.0777C8.68563 16.9967 8.73571 16.9234 8.79872 16.8622L13.7581 12L8.79872 7.13784Z" fill="#2B2F33"/>
</svg>