<?xml version="1.0" encoding="UTF-8"?>
<svg width="20px" height="20px" viewBox="0 0 20 20" version="1.1" xmlns="http://www.w3.org/2000/svg" xmlns:xlink="http://www.w3.org/1999/xlink">
    <!-- Generator: Sketch 54.1 (76490) - https://sketchapp.com -->
    <g stroke="none" stroke-width="1" fill-rule="evenodd">
        <g  transform="translate(-1188.000000, -347.000000)">
            <path d="M1205.42768,347.387731 L1197.95917,354.882046 L1190.49081,347.387731 C1189.92351,346.857287 1189.03939,346.873016 1188.49113,347.423177 C1187.94273,347.973488 1187.9272,348.860683 1188.45581,349.429959 L1195.92417,356.924274 L1188.45581,364.418589 C1187.86728,364.98256 1187.84591,365.918408 1188.40777,366.508831 C1188.96979,367.099442 1189.9024,367.12104 1190.49081,366.55707 L1197.95917,358.966465 L1205.42768,366.55707 C1206.01606,367.147643 1206.97019,367.147643 1207.5586,366.55707 C1208.14713,365.966459 1208.14713,365.009163 1207.5586,364.418589 L1199.99429,356.924274 L1207.5586,349.429959 C1208.08736,348.860683 1208.07169,347.973488 1207.52343,347.423177 C1206.97503,346.873016 1206.0909,346.857287 1205.5236,347.387731 L1205.42768,347.387731 Z" />
        </g>
    </g>
</svg>