<svg width="17" height="16" viewBox="0 0 17 16" fill="none" xmlns="http://www.w3.org/2000/svg">
<path fill-rule="evenodd" clip-rule="evenodd" d="M5.9502 1C6.30228 1 6.5877 1.26863 6.5877 1.6V2H10.4127V1.6C10.4127 1.26863 10.6981 1 11.0502 1C11.4023 1 11.6877 1.26863 11.6877 1.6V2H13.6002C14.5391 2 15.3002 2.71634 15.3002 3.6V12.8C15.3002 13.6837 14.5391 14.4 13.6002 14.4H3.4002C2.46131 14.4 1.7002 13.6837 1.7002 12.8V3.6C1.7002 2.71634 2.46131 2 3.4002 2H5.3127V1.6C5.3127 1.26863 5.59811 1 5.9502 1ZM10.4127 4C10.4127 4.33137 10.6981 4.6 11.0502 4.6C11.4023 4.6 11.6877 4.33137 11.6877 4V3.2H13.6002C13.8349 3.2 14.0252 3.37909 14.0252 3.6V5H2.9752V3.6C2.9752 3.37909 3.16547 3.2 3.4002 3.2H5.3127V4C5.3127 4.33137 5.59811 4.6 5.9502 4.6C6.30228 4.6 6.5877 4.33137 6.5877 4V3.2H10.4127V4ZM2.9752 6.2H14.0252V12.8C14.0252 13.0209 13.8349 13.2 13.6002 13.2H3.4002C3.16547 13.2 2.9752 13.0209 2.9752 12.8V6.2Z" fill="#EBB30E"/>
<path d="M4.675 7.6001C4.44028 7.6001 4.25 7.77918 4.25 8.0001V8.4001C4.25 8.62101 4.44028 8.8001 4.675 8.8001H7.225C7.45972 8.8001 7.65 8.62101 7.65 8.4001V8.0001C7.65 7.77918 7.45972 7.6001 7.225 7.6001H4.675Z" fill="#EBB30E"/>
<path d="M4.675 10.4001C4.44028 10.4001 4.25 10.5792 4.25 10.8001V11.2001C4.25 11.421 4.44028 11.6001 4.675 11.6001H7.225C7.45972 11.6001 7.65 11.421 7.65 11.2001V10.8001C7.65 10.5792 7.45972 10.4001 7.225 10.4001H4.675Z" fill="#EBB30E"/>
<path d="M9.35 8.0001C9.35 7.77918 9.54028 7.6001 9.775 7.6001H12.325C12.5597 7.6001 12.75 7.77918 12.75 8.0001V8.4001C12.75 8.62101 12.5597 8.8001 12.325 8.8001H9.775C9.54028 8.8001 9.35 8.62101 9.35 8.4001V8.0001Z" fill="#EBB30E"/>
<path d="M9.775 10.4001C9.54028 10.4001 9.35 10.5792 9.35 10.8001V11.2001C9.35 11.421 9.54028 11.6001 9.775 11.6001H12.325C12.5597 11.6001 12.75 11.421 12.75 11.2001V10.8001C12.75 10.5792 12.5597 10.4001 12.325 10.4001H9.775Z" fill="#EBB30E"/>
</svg>
