<svg width="16" height="16" viewBox="0 0 16 16" fill="none" xmlns="http://www.w3.org/2000/svg">
<g id="Component 1026">
<path id="Union" fill-rule="evenodd" clip-rule="evenodd" d="M5.6001 1C5.93147 1 6.2001 1.26863 6.2001 1.6V2H9.8001V1.6C9.8001 1.26863 10.0687 1 10.4001 1C10.7315 1 11.0001 1.26863 11.0001 1.6V2H12.8001C13.6838 2 14.4001 2.71634 14.4001 3.6V12.8C14.4001 13.6837 13.6838 14.4 12.8001 14.4H3.2001C2.31644 14.4 1.6001 13.6837 1.6001 12.8V3.6C1.6001 2.71634 2.31644 2 3.2001 2H5.0001V1.6C5.0001 1.26863 5.26873 1 5.6001 1ZM9.8001 4C9.8001 4.33137 10.0687 4.6 10.4001 4.6C10.7315 4.6 11.0001 4.33137 11.0001 4V3.2H12.8001C13.021 3.2 13.2001 3.37909 13.2001 3.6V5H2.8001V3.6C2.8001 3.37909 2.97918 3.2 3.2001 3.2H5.0001V4C5.0001 4.33137 5.26873 4.6 5.6001 4.6C5.93147 4.6 6.2001 4.33137 6.2001 4V3.2H9.8001V4ZM2.8001 6.2H13.2001V12.8C13.2001 13.0209 13.021 13.2 12.8001 13.2H3.2001C2.97918 13.2 2.8001 13.0209 2.8001 12.8V6.2Z" fill="#9E9E9D"/>
<g id="Union_2">
<path d="M4.4 7.59998C4.17909 7.59998 4 7.77906 4 7.99998V8.39998C4 8.62089 4.17909 8.79998 4.4 8.79998H6.8C7.02091 8.79998 7.2 8.62089 7.2 8.39998V7.99998C7.2 7.77906 7.02091 7.59998 6.8 7.59998H4.4Z" fill="#9E9E9D"/>
<path d="M4.4 10.4C4.17909 10.4 4 10.5791 4 10.8V11.2C4 11.4209 4.17909 11.6 4.4 11.6H6.8C7.02091 11.6 7.2 11.4209 7.2 11.2V10.8C7.2 10.5791 7.02091 10.4 6.8 10.4H4.4Z" fill="#9E9E9D"/>
<path d="M8.8 7.99998C8.8 7.77906 8.97909 7.59998 9.2 7.59998H11.6C11.8209 7.59998 12 7.77906 12 7.99998V8.39998C12 8.62089 11.8209 8.79998 11.6 8.79998H9.2C8.97909 8.79998 8.8 8.62089 8.8 8.39998V7.99998Z" fill="#9E9E9D"/>
<path d="M9.2 10.4C8.97909 10.4 8.8 10.5791 8.8 10.8V11.2C8.8 11.4209 8.97909 11.6 9.2 11.6H11.6C11.8209 11.6 12 11.4209 12 11.2V10.8C12 10.5791 11.8209 10.4 11.6 10.4H9.2Z" fill="#9E9E9D"/>
</g>
</g>
</svg>
