<svg width="20" height="20" viewBox="0 0 20 20" fill="none" xmlns="http://www.w3.org/2000/svg">
<g id="icon_delete">
<path id="Vector" d="M17.578 5.04999H13.446V4.09399C13.446 2.93399 12.502 1.98999 11.342 1.98999H8.53496C7.37496 1.98999 6.43096 2.93399 6.43096 4.09399V5.04999H2.56096C2.17396 5.04999 1.86096 5.36299 1.86096 5.74999C1.86096 6.13699 2.17396 6.44999 2.56096 6.44999H3.70696V14.931C3.70696 16.507 4.98896 17.788 6.56396 17.788H13.327C14.903 17.788 16.184 16.506 16.184 14.931V6.44999H17.577C17.964 6.44999 18.277 6.13699 18.277 5.74999C18.277 5.36299 17.965 5.04999 17.578 5.04999ZM7.83096 4.09399C7.83096 3.70599 8.14696 3.38999 8.53496 3.38999H11.343C11.731 3.38999 12.047 3.70599 12.047 4.09399V5.04999H7.83096V4.09399ZM14.785 14.93C14.785 15.734 14.131 16.387 13.328 16.387H6.56496C5.76096 16.387 5.10796 15.733 5.10796 14.93V6.44999H14.786V14.93H14.785Z" fill="#07828B"/>
<path id="Vector_2" d="M8.06499 8.586C7.67799 8.586 7.36499 8.899 7.36499 9.286V13.568C7.36499 13.955 7.67799 14.268 8.06499 14.268C8.45199 14.268 8.76499 13.955 8.76499 13.568V9.286C8.76499 8.899 8.45199 8.586 8.06499 8.586ZM11.747 8.586C11.36 8.586 11.047 8.899 11.047 9.286V13.568C11.047 13.955 11.36 14.268 11.747 14.268C12.134 14.268 12.447 13.955 12.447 13.568V9.286C12.447 8.899 12.133 8.586 11.747 8.586Z" fill="#07828B"/>
</g>
</svg>
