<svg width="24" height="24" viewBox="0 0 24 24" fill="none" xmlns="http://www.w3.org/2000/svg">
<path fill-rule="evenodd" clip-rule="evenodd" d="M20.727 12C20.727 15.1179 19.0636 17.999 16.3634 19.558C13.6631 21.117 10.3363 21.117 7.6361 19.558C4.93587 17.999 3.27246 15.1179 3.27246 12C3.27246 7.18004 7.17979 3.27271 11.9997 3.27271C16.8197 3.27271 20.727 7.18004 20.727 12ZM13.7132 12L16.6281 14.9139L14.9137 16.6283L11.9997 13.7134L9.08579 16.6274L7.37137 14.9129L10.2853 11.999L7.37137 9.08507L9.08579 7.37161L11.9997 10.2836L14.9137 7.36967L16.6281 9.08313L13.7132 12Z" fill="#2B2F33"/>
</svg>
