<svg width="24" height="24" viewBox="0 0 24 24" fill="none" xmlns="http://www.w3.org/2000/svg">
<g id="&#229;&#133;&#179;&#233;&#151;&#173; 1">
<path id="Vector" d="M13.2929 12.0001L17.7269 16.4146C17.8985 16.5873 17.9963 16.8199 17.9997 17.0634C18.003 17.3069 17.9117 17.5421 17.7449 17.7196C17.6636 17.8066 17.5657 17.8763 17.4568 17.9246C17.348 17.9729 17.2306 17.9987 17.1115 18.0005C16.9925 18.0023 16.8743 17.9801 16.764 17.9352C16.6538 17.8903 16.5537 17.8235 16.4699 17.7391L11.9999 13.2871L7.52987 17.7391C7.4461 17.8236 7.34613 17.8905 7.23593 17.9355C7.12574 17.9806 7.00758 18.0029 6.88854 18.0012C6.76951 17.9996 6.65203 17.9739 6.54315 17.9257C6.43427 17.8776 6.33622 17.808 6.25487 17.7211C6.08808 17.5436 5.99673 17.3084 6.00009 17.0649C6.00345 16.8214 6.10125 16.5888 6.27287 16.4161L10.7069 12.0001L6.27287 7.58555C6.10125 7.41281 6.00345 7.18016 6.00009 6.93669C5.99673 6.69321 6.08808 6.45796 6.25487 6.28055C6.33612 6.19353 6.43409 6.1238 6.54291 6.07552C6.65174 6.02725 6.76919 6.00143 6.88823 5.99961C7.00726 5.99779 7.12545 6.02001 7.2357 6.06493C7.34595 6.10985 7.446 6.17656 7.52987 6.26105L11.9999 10.7131L16.4699 6.26105C16.5536 6.17646 16.6536 6.10964 16.7638 6.06459C16.874 6.01954 16.9922 5.99719 17.1112 5.99887C17.2302 6.00055 17.3477 6.02623 17.4566 6.07437C17.5655 6.12251 17.6635 6.19213 17.7449 6.27905C17.9117 6.45646 18.003 6.69171 17.9997 6.93519C17.9963 7.17866 17.8985 7.41131 17.7269 7.58405L13.2929 12.0001Z" fill="#A5A8AC"/>
</g>
</svg>
