<svg width="24" height="24" viewBox="0 0 24 24" fill="none" xmlns="http://www.w3.org/2000/svg">
<g id="&#230;&#138;&#152;&#229;&#143;&#160;-&#229;&#177;&#149;&#229;&#188;&#128; 1">
<path id="Union" fill-rule="evenodd" clip-rule="evenodd" d="M3.66667 4H20.1111C20.2879 4 20.4575 4.07024 20.5825 4.19526C20.7075 4.32029 20.7778 4.48986 20.7778 4.66667C20.7778 4.84348 20.7075 5.01305 20.5825 5.13807C20.4575 5.2631 20.2879 5.33333 20.1111 5.33333H3.66667C3.48986 5.33333 3.32029 5.2631 3.19526 5.13807C3.07024 5.01305 3 4.84348 3 4.66667C3 4.48986 3.07024 4.32029 3.19526 4.19526C3.32029 4.07024 3.48986 4 3.66667 4ZM3.66667 8.88889H12.1111C12.2879 8.88889 12.4575 8.95913 12.5825 9.08415C12.7075 9.20917 12.7778 9.37874 12.7778 9.55556C12.7778 9.73237 12.7075 9.90194 12.5825 10.027C12.4575 10.152 12.2879 10.2222 12.1111 10.2222H3.66667C3.48986 10.2222 3.32029 10.152 3.19526 10.027C3.07024 9.90194 3 9.73237 3 9.55556C3 9.37874 3.07024 9.20917 3.19526 9.08415C3.32029 8.95913 3.48986 8.88889 3.66667 8.88889ZM3.66667 13.7778H12.1111C12.2879 13.7778 12.4575 13.848 12.5825 13.973C12.7075 14.0981 12.7778 14.2676 12.7778 14.4444C12.7778 14.6213 12.7075 14.7908 12.5825 14.9158C12.4575 15.0409 12.2879 15.1111 12.1111 15.1111H3.66667C3.48986 15.1111 3.32029 15.0409 3.19526 14.9158C3.07024 14.7908 3 14.6213 3 14.4444C3 14.2676 3.07024 14.0981 3.19526 13.973C3.32029 13.848 3.48986 13.7778 3.66667 13.7778ZM3.66667 18.6667H20.1111C20.2879 18.6667 20.4575 18.7369 20.5825 18.8619C20.7075 18.987 20.7778 19.1565 20.7778 19.3333C20.7778 19.5101 20.7075 19.6797 20.5825 19.8047C20.4575 19.9298 20.2879 20 20.1111 20H3.66667C3.48986 20 3.32029 19.9298 3.19526 19.8047C3.07024 19.6797 3 19.5101 3 19.3333C3 19.1565 3.07024 18.987 3.19526 18.8619C3.32029 18.7369 3.48986 18.6667 3.66667 18.6667ZM20.6255 9.8069L18.2335 14.5909C18.1966 14.6646 18.1399 14.7266 18.0697 14.7699C17.9995 14.8133 17.9187 14.8362 17.8362 14.8362C17.7537 14.8362 17.6729 14.8133 17.6027 14.7699C17.5326 14.7266 17.4758 14.6646 17.4389 14.5909L15.0469 9.8069C15.013 9.73916 14.997 9.66389 15.0005 9.58824C15.0039 9.51259 15.0265 9.43906 15.0663 9.37463C15.1062 9.31021 15.1618 9.25702 15.2279 9.22012C15.294 9.18322 15.3685 9.16383 15.4442 9.16379H20.2282C20.3039 9.16383 20.3784 9.18322 20.4445 9.22012C20.5107 9.25702 20.5663 9.31021 20.6061 9.37463C20.6459 9.43906 20.6686 9.51259 20.672 9.58824C20.6754 9.66389 20.6594 9.73916 20.6255 9.8069Z" fill="#2B2F33" stroke="#2B2F33" stroke-width="0.266667"/>
</g>
</svg>
