<svg width="12" height="12" viewBox="0 0 12 12" fill="none" xmlns="http://www.w3.org/2000/svg">
<g id="close">
<path id="Vector" d="M6.86202 6.00002L9.81808 8.94308C9.9325 9.05824 9.9977 9.21334 9.99994 9.37566C10.0022 9.53798 9.94128 9.69483 9.83008 9.8131C9.77592 9.87111 9.7106 9.9176 9.63805 9.94979C9.5655 9.98197 9.4872 9.99918 9.40784 10.0004C9.32848 10.0016 9.24969 9.9868 9.17619 9.95685C9.10268 9.9269 9.03598 9.88243 8.98006 9.8261L6 6.85804L3.01994 9.8261C2.96409 9.88249 2.89744 9.92704 2.82397 9.95708C2.75051 9.98711 2.67174 10.002 2.59238 10.0009C2.51302 9.99977 2.4347 9.98265 2.36211 9.95055C2.28952 9.91846 2.22415 9.87205 2.16992 9.8141C2.05872 9.69583 1.99782 9.53898 2.00006 9.37666C2.0023 9.21434 2.0675 9.05924 2.18192 8.94408L5.13798 6.00002L2.18192 3.05695C2.0675 2.94179 2.0023 2.78669 2.00006 2.62437C1.99782 2.46205 2.05872 2.30521 2.16992 2.18694C2.22408 2.12892 2.2894 2.08243 2.36195 2.05025C2.4345 2.01807 2.5128 2.00085 2.59216 1.99964C2.67152 1.99842 2.75031 2.01324 2.82382 2.04318C2.89732 2.07313 2.96402 2.1176 3.01994 2.17394L6 5.142L8.98006 2.17394C9.03591 2.11754 9.10256 2.07299 9.17603 2.04296C9.2495 2.01293 9.32827 1.99802 9.40763 1.99914C9.48699 2.00026 9.5653 2.01738 9.63789 2.04948C9.71048 2.08158 9.77585 2.12799 9.83008 2.18594C9.94128 2.30421 10.0022 2.46105 9.99994 2.62337C9.9977 2.78569 9.9325 2.94079 9.81808 3.05595L6.86202 6.00002Z" fill="#787D83"/>
</g>
</svg>
