<svg width="10" height="10" viewBox="0 0 10 10" fill="none" xmlns="http://www.w3.org/2000/svg">
<path fill-rule="evenodd" clip-rule="evenodd" d="M0.909111 0.909111H6.36378V3.18178H7.27289V0.909111C7.27289 0.407023 6.86587 0 6.36378 0H0.909111C0.407023 0 0 0.407023 0 0.909111V6.36378C0 6.86587 0.407023 7.27289 0.909111 7.27289H3.18178V6.36378H0.909111V0.909111Z" fill="#EBB30E"/>
<path d="M3.18112 3.6347C3.18112 3.38365 3.38463 3.18014 3.63567 3.18014H9.09034C9.34138 3.18014 9.5449 3.38365 9.5449 3.6347V9.08936C9.5449 9.34041 9.34138 9.54392 9.09034 9.54392H3.63567C3.38463 9.54392 3.18112 9.34041 3.18112 9.08936V3.6347Z" stroke="#EBB30E" stroke-width="0.909111"/>
</svg>
