<svg width="14" height="14" viewBox="0 0 14 14" fill="none" xmlns="http://www.w3.org/2000/svg">
<path d="M0.816661 12.6C0.816624 12.9221 1.07776 13.1833 1.39993 13.1834C1.72209 13.1834 1.98329 12.9223 1.98333 12.6001L0.816661 12.6ZM1.40023 10.4998L1.98356 10.4999L1.40023 10.4998ZM7.34999 8.98336C7.67216 8.98336 7.93333 8.72219 7.93333 8.40002C7.93333 8.07786 7.67216 7.81669 7.34999 7.81669V8.98336ZM12.6 9.68336C12.9222 9.68336 13.1833 9.42219 13.1833 9.10002C13.1833 8.77786 12.9222 8.51669 12.6 8.51669V9.68336ZM9.44999 8.51669C9.12783 8.51669 8.86666 8.77786 8.86666 9.10002C8.86666 9.42219 9.12783 9.68336 9.44999 9.68336V8.51669ZM10.4417 10.6749C10.4417 10.9971 10.7028 11.2583 11.025 11.2583C11.3472 11.2583 11.6083 10.9971 11.6083 10.6749H10.4417ZM11.6083 7.52494C11.6083 7.20278 11.3472 6.94161 11.025 6.94161C10.7028 6.94161 10.4417 7.20278 10.4417 7.52494H11.6083ZM10.4352 0.891178C10.1542 0.733653 9.79867 0.833771 9.64115 1.1148C9.48362 1.39583 9.58374 1.75134 9.86477 1.90887L10.4352 0.891178ZM9.86477 5.09118C9.58374 5.2487 9.48362 5.60422 9.64115 5.88525C9.79867 6.16628 10.1542 6.2664 10.4352 6.10887L9.86477 5.09118ZM7.81666 3.50002C7.81666 4.33766 7.13763 5.01669 6.29999 5.01669V6.18336C7.78196 6.18336 8.98333 4.98199 8.98333 3.50002H7.81666ZM6.29999 5.01669C5.46236 5.01669 4.78333 4.33766 4.78333 3.50002H3.61666C3.61666 4.98199 4.81803 6.18336 6.29999 6.18336V5.01669ZM4.78333 3.50002C4.78333 2.66239 5.46236 1.98336 6.29999 1.98336V0.816691C4.81803 0.816691 3.61666 2.01806 3.61666 3.50002H4.78333ZM6.29999 1.98336C7.13763 1.98336 7.81666 2.66239 7.81666 3.50002H8.98333C8.98333 2.01806 7.78196 0.816691 6.29999 0.816691V1.98336ZM1.98333 12.6001L1.98356 10.4999L0.816897 10.4997L0.816661 12.6L1.98333 12.6001ZM3.50023 7.81669C2.01838 7.81669 0.817063 9.01788 0.816897 10.4997L1.98356 10.4999C1.98366 9.66229 2.66266 8.98336 3.50023 8.98336V7.81669ZM3.50023 8.98336H7.34999V7.81669H3.50023V8.98336ZM12.6 8.51669H11.025V9.68336H12.6V8.51669ZM11.025 8.51669H9.44999V9.68336H11.025V8.51669ZM11.6083 10.6749V9.10002H10.4417V10.6749H11.6083ZM11.6083 9.10002V7.52494H10.4417V9.10002H11.6083ZM9.86477 1.90887C10.5867 2.31355 10.9667 2.90832 10.9667 3.50002H12.1333C12.1333 2.37075 11.4122 1.43883 10.4352 0.891178L9.86477 1.90887ZM10.9667 3.50002C10.9667 4.09173 10.5867 4.6865 9.86477 5.09118L10.4352 6.10887C11.4122 5.56122 12.1333 4.6293 12.1333 3.50002H10.9667Z" fill="#2B2F33"/>
</svg>
