<svg xmlns="http://www.w3.org/2000/svg" width="16" height="16" viewBox="0 0 16 16" fill="none">
  <path fill-rule="evenodd" clip-rule="evenodd" d="M15.1109 5.15468L12.3162 2.13068C12.21 2.01558 12.0814 1.92336 11.9384 1.85962C11.7953 1.79589 11.6408 1.762 11.4842 1.76001H4.55087C4.39462 1.76173 4.24039 1.79552 4.09773 1.85928C3.95508 1.92304 3.82703 2.01541 3.72153 2.13068L0.926867 5.15468C0.742818 5.34762 0.640137 5.60403 0.640137 5.87068C0.640137 6.13733 0.742818 6.39373 0.926867 6.58668L7.45753 13.9813C7.52643 14.0632 7.61205 14.1293 7.70865 14.1753C7.80524 14.2213 7.91056 14.2461 8.01753 14.248C8.12492 14.2463 8.23071 14.2216 8.32776 14.1756C8.42482 14.1297 8.5109 14.0634 8.5802 13.9813L15.0895 6.60001C15.2804 6.40921 15.3894 6.15153 15.3934 5.88167C15.3974 5.61181 15.296 5.35103 15.1109 5.15468ZM9.3824 5.05283H8.8384V6.90243C8.8384 6.92803 8.83627 6.94723 8.832 6.96003C8.8192 7.0027 8.76373 7.02403 8.6656 7.02403L8.4544 7.03043H7.9808V7.63843H8.672C8.7488 7.63843 8.79573 7.65337 8.8128 7.68323C8.83413 7.70883 8.8448 7.75577 8.8448 7.82403V9.68003H9.3248C9.55093 9.68003 9.69813 9.64803 9.7664 9.58403C9.83467 9.52003 9.8688 9.36857 9.8688 9.12963V7.67043C9.8688 7.42723 9.81546 7.2587 9.7088 7.16483C9.8112 7.0667 9.8624 6.9195 9.8624 6.72323V5.55203C9.8624 5.36857 9.82613 5.24057 9.7536 5.16803C9.68107 5.09123 9.55733 5.05283 9.3824 5.05283ZM7.9808 5.66083H8.5888V5.05283H7.328C7.08907 5.05283 6.93333 5.1083 6.8608 5.21923C6.79253 5.33017 6.7584 5.50297 6.7584 5.73763V6.28803C6.7584 6.4203 6.7712 6.49923 6.7968 6.52483C6.82667 6.55043 6.92053 6.56323 7.0784 6.56323H7.7824V5.85283C7.7824 5.7803 7.79307 5.73123 7.8144 5.70563C7.83573 5.67577 7.8912 5.66083 7.9808 5.66083ZM7.7824 8.88003V8.16963H7.0784C6.92053 8.16963 6.82667 8.18243 6.7968 8.20803C6.7712 8.23363 6.7584 8.31257 6.7584 8.44483V8.99523C6.7584 9.2299 6.79253 9.4027 6.8608 9.51363C6.93333 9.62457 7.08907 9.68003 7.328 9.68003H8.5888V9.07203H7.9808C7.8912 9.07203 7.83573 9.05923 7.8144 9.03363C7.79307 9.00377 7.7824 8.95257 7.7824 8.88003Z" fill="#EF454A"/>
</svg>