<svg xmlns="http://www.w3.org/2000/svg" width="20" height="20" viewBox="0 0 20 20" fill="none">
  <path d="M13.7812 8.13613C16.0859 8.13613 18.0266 8.93045 18.1745 10.2014L18.1836 10.2015V16.3526H18.1745C18.0266 17.6237 16.0859 18.418 13.7812 18.418C11.4766 18.418 9.5359 17.6236 9.38797 16.3526H9.37891V10.2015H9.38797C9.53592 8.93043 11.4766 8.13613 13.7812 8.13613ZM10.5468 14.8766L10.5469 16.1955C10.5469 16.2569 10.5871 16.3341 10.6697 16.4192L10.688 16.4376C10.8115 16.5576 11.0174 16.6917 11.3117 16.818C11.9457 17.0901 12.83 17.2506 13.7812 17.2506C14.7325 17.2506 15.6168 17.0901 16.2508 16.818C16.5451 16.6917 16.751 16.5576 16.8745 16.4376L16.8928 16.4192C16.9725 16.3372 17.0127 16.2624 17.0155 16.2021L17.0156 16.1955L17.0157 14.8766C16.2061 15.3042 15.0487 15.5444 13.7812 15.5444C12.5138 15.5444 11.3564 15.3042 10.5468 14.8766ZM8.54785 1.28906C12.1259 1.28906 15.084 2.53863 15.084 4.38709L15.0831 4.33268C15.0835 4.33871 15.0837 4.34479 15.0838 4.35084L15.084 4.36463V7.19326C15.084 7.51563 14.8225 7.77695 14.5 7.77695C14.1821 7.77695 13.9235 7.52305 13.9162 7.20703L13.916 7.19326L13.9162 6.20912C12.73 7.00873 10.7571 7.4851 8.54785 7.4851C6.33863 7.4851 4.36574 7.00873 3.17957 6.20912L3.17969 8.94432C3.17969 9.11695 3.27486 9.30695 3.46309 9.499L3.48873 9.52463C3.52526 9.56026 3.56316 9.59447 3.60232 9.62719L3.63348 9.65281C3.66518 9.67844 3.69852 9.704 3.73348 9.72951L3.76902 9.75498C3.83881 9.80405 3.91048 9.85038 3.98387 9.89389L4.02646 9.91887C4.04086 9.92717 4.05541 9.93547 4.07016 9.94371L4.11492 9.96846C4.13758 9.9808 4.16062 9.99311 4.1841 10.0053L4.23156 10.0297C4.24758 10.0379 4.26377 10.046 4.28012 10.054L4.32975 10.0781C4.33811 10.0821 4.34652 10.0862 4.35496 10.0902L4.40621 10.114C4.43211 10.1259 4.4584 10.1378 4.4851 10.1495L4.53902 10.1729C4.54811 10.1768 4.55723 10.1807 4.56639 10.1846C4.99561 10.3659 5.49234 10.5158 6.03592 10.629L6.12445 10.6471C6.86576 10.7947 7.69055 10.875 8.54785 10.875C8.87037 10.875 9.13184 11.1363 9.13184 11.4587C9.13184 11.781 8.87037 12.0423 8.54785 12.0423C6.33863 12.0423 4.36574 11.566 3.17957 10.7663L3.17969 13.4791C3.17969 13.6517 3.27486 13.8417 3.46309 14.0338L3.48873 14.0594C3.52526 14.095 3.56316 14.1293 3.60232 14.162L3.63348 14.1876C3.66518 14.2132 3.69852 14.2388 3.73348 14.2643L3.76902 14.2898C3.83881 14.3388 3.91048 14.3852 3.98387 14.4287L4.02646 14.4536C4.04086 14.462 4.05541 14.4702 4.07016 14.4785L4.11492 14.5032C4.13758 14.5156 4.16062 14.5279 4.1841 14.5401L4.23156 14.5645C4.24758 14.5727 4.26377 14.5807 4.28012 14.5888L4.32975 14.6129C4.33811 14.6169 4.34652 14.6209 4.35496 14.6249L4.40621 14.6488C4.43211 14.6607 4.4584 14.6725 4.4851 14.6843L4.53902 14.7077C4.54811 14.7116 4.55723 14.7155 4.56639 14.7194C4.99561 14.9007 5.49234 15.0505 6.03592 15.1638L6.12445 15.1818C6.86576 15.3295 7.69055 15.4097 8.54785 15.4097C8.87037 15.4097 9.13184 15.6711 9.13184 15.9934C9.13184 16.3158 8.87037 16.5771 8.54785 16.5771C5.05746 16.5771 2.15701 15.388 2.01699 13.6138L2.01172 13.6138V4.36465C2.03574 2.52852 4.98436 1.28906 8.54785 1.28906ZM17.0157 11.9132C16.2061 12.3409 15.0487 12.5811 13.7812 12.5811C12.5138 12.5811 11.3564 12.3409 10.5468 11.9133L10.5469 13.322C10.5469 13.3833 10.5871 13.4606 10.6697 13.5457L10.688 13.564C10.8115 13.6841 11.0174 13.8181 11.3117 13.9444C11.9457 14.2165 12.83 14.3771 13.7812 14.3771C14.7325 14.3771 15.6168 14.2165 16.2508 13.9445C16.5451 13.8181 16.751 13.6841 16.8745 13.564L16.8928 13.5457C16.9725 13.4637 17.0127 13.3888 17.0155 13.3286L17.0156 13.322L17.0157 11.9132ZM13.7812 9.30352C12.83 9.30352 11.9457 9.46406 11.3117 9.73617C11.0174 9.86244 10.8115 9.99652 10.688 10.1166L10.6697 10.1349C10.5871 10.22 10.5469 10.2973 10.5469 10.3587C10.5469 10.42 10.5871 10.4973 10.6697 10.5824L10.688 10.6007C10.8115 10.7208 11.0174 10.8548 11.3117 10.9811C11.9457 11.2532 12.83 11.4138 13.7812 11.4138C14.7325 11.4138 15.6168 11.2532 16.2508 10.9811C16.5451 10.8548 16.751 10.7208 16.8745 10.6007L16.8928 10.5824C16.9754 10.4973 17.0156 10.42 17.0156 10.3587C17.0156 10.2973 16.9754 10.22 16.8928 10.1349L16.8745 10.1165C16.751 9.99652 16.5451 9.86244 16.2508 9.73617C15.6168 9.46404 14.7325 9.30352 13.7812 9.30352ZM8.54785 2.45645C7.69055 2.45645 6.86576 2.5367 6.12445 2.68438L6.0359 2.7024C5.49234 2.81564 4.99561 2.96553 4.56639 3.14684C4.55721 3.1507 4.54811 3.15459 4.53904 3.15848L4.4851 3.18191C4.45871 3.19353 4.43241 3.20535 4.40621 3.21738L4.35496 3.24127C4.34652 3.24525 4.33811 3.24928 4.32977 3.25326L4.28012 3.27738C4.26377 3.28545 4.24758 3.29354 4.23158 3.30166L4.18412 3.32607C4.16095 3.33816 4.13788 3.35045 4.11492 3.36295L4.07016 3.3877C4.05541 3.39596 4.04086 3.40426 4.02646 3.41256L3.98389 3.43752C3.91049 3.48102 3.83881 3.52736 3.769 3.57643L3.7335 3.60191C3.69953 3.62664 3.66619 3.65221 3.6335 3.67859L3.60232 3.70422C3.56316 3.73693 3.52526 3.77115 3.48873 3.80678L3.46309 3.8324C3.27486 4.02447 3.17969 4.21447 3.17969 4.38709C3.17969 4.55975 3.27486 4.74973 3.46309 4.9418L3.48873 4.96742C3.52526 5.00305 3.56316 5.03727 3.60232 5.06998L3.63348 5.09561C3.66518 5.12121 3.69852 5.14678 3.73348 5.17229L3.76902 5.19777C3.83881 5.24684 3.91048 5.29318 3.98387 5.33668L4.02646 5.36164C4.04086 5.36996 4.05541 5.37824 4.07016 5.3865L4.11492 5.41125C4.13758 5.42359 4.16062 5.43588 4.1841 5.44812L4.23156 5.47254C4.24758 5.48066 4.26377 5.48875 4.28012 5.49682L4.32975 5.52094C4.33811 5.52494 4.34652 5.52895 4.35496 5.53293L4.40621 5.55682C4.43211 5.56871 4.4584 5.58053 4.4851 5.5923L4.53902 5.61574L4.56639 5.62736C4.99561 5.80867 5.49234 5.95855 6.03592 6.0718L6.12445 6.08984C6.86576 6.2375 7.69055 6.31775 8.54785 6.31775C9.40516 6.31775 10.2299 6.2375 10.9713 6.08984L11.0598 6.0718C11.6034 5.95855 12.1001 5.80867 12.5293 5.62736C12.5385 5.6235 12.5476 5.61961 12.5567 5.61572L12.6106 5.59229C12.637 5.58067 12.6633 5.56885 12.6895 5.55682L12.7407 5.53293C12.7492 5.52895 12.7576 5.52494 12.7659 5.52094L12.8156 5.49682C12.8319 5.48875 12.8481 5.48066 12.8641 5.47254L12.9116 5.44812C12.9348 5.43604 12.9578 5.42375 12.9808 5.41125L13.0255 5.3865C13.0403 5.37824 13.0548 5.36996 13.0692 5.36164L13.1118 5.33668C13.1852 5.29318 13.2569 5.24684 13.3267 5.19777L13.3622 5.17229C13.3962 5.14756 13.4295 5.12199 13.4622 5.09561L13.4934 5.06998C13.5325 5.03727 13.5704 5.00305 13.607 4.96742L13.6326 4.9418C13.8208 4.74973 13.916 4.55973 13.916 4.38711C13.916 4.21445 13.8208 4.02447 13.6326 3.8324L13.607 3.80678C13.5704 3.77115 13.5325 3.73693 13.4934 3.70422L13.4622 3.67859C13.4295 3.65221 13.3962 3.62664 13.3622 3.60191L13.3267 3.57643C13.2569 3.52736 13.1852 3.48102 13.1118 3.43752L13.0692 3.41256C13.0548 3.40426 13.0403 3.39596 13.0255 3.3877L12.9808 3.36295C12.9581 3.35061 12.9351 3.33832 12.9116 3.32607L12.8641 3.30166C12.8481 3.29354 12.8319 3.28545 12.8156 3.27738L12.766 3.25326C12.7576 3.24926 12.7492 3.24525 12.7407 3.24127L12.6895 3.21738C12.6633 3.20535 12.637 3.19353 12.6106 3.18191L12.5567 3.15848L12.5293 3.14684C12.1001 2.96553 11.6034 2.81564 11.0598 2.7024L10.9713 2.68436C10.2299 2.5367 9.40516 2.45645 8.54785 2.45645Z" fill="#9FA1A6"/>
</svg>