<svg xmlns="http://www.w3.org/2000/svg" width="16" height="16" viewBox="0 0 16 16" fill="none">
  <path fill-rule="evenodd" clip-rule="evenodd" d="M15.1107 5.15468L12.3161 2.13068C12.2099 2.01558 12.0813 1.92336 11.9383 1.85962C11.7952 1.79589 11.6407 1.762 11.4841 1.76001H4.55074C4.3945 1.76173 4.24027 1.79552 4.09761 1.85928C3.95496 1.92304 3.82691 2.01541 3.72141 2.13068L0.926745 5.15468C0.742696 5.34762 0.640015 5.60403 0.640015 5.87068C0.640015 6.13733 0.742696 6.39373 0.926745 6.58668L7.45741 13.9813C7.52631 14.0632 7.61193 14.1293 7.70852 14.1753C7.80512 14.2213 7.91044 14.2461 8.01741 14.248C8.1248 14.2463 8.23059 14.2216 8.32764 14.1756C8.4247 14.1297 8.51077 14.0634 8.58008 13.9813L15.0894 6.60001C15.2803 6.40921 15.3893 6.15153 15.3933 5.88167C15.3973 5.61181 15.2959 5.35103 15.1107 5.15468ZM8.40958 5.05283H7.73758V9.43043C7.73758 9.50723 7.75891 9.5691 7.80158 9.61603C7.84424 9.6587 7.89971 9.68003 7.96798 9.68003H9.43998V9.06563C9.43998 9.0187 9.42931 8.9867 9.40798 8.96963C9.38664 8.95257 9.34398 8.94403 9.27998 8.94403H8.76158V5.41763C8.76158 5.2683 8.73811 5.17017 8.69118 5.12323C8.64851 5.0763 8.55464 5.05283 8.40958 5.05283ZM6.61758 9.68003H7.54558V8.94403H6.77758C6.71358 8.94403 6.67091 8.95257 6.64958 8.96963C6.62824 8.9867 6.61758 9.0187 6.61758 9.06563V9.68003ZM6.84158 5.78883H7.54558V5.05283H6.68158V5.60963C6.68158 5.7291 6.73491 5.78883 6.84158 5.78883Z" fill="#F0BA30"/>
</svg>