<svg width="15" height="14" viewBox="0 0 15 14" fill="none" xmlns="http://www.w3.org/2000/svg">
<g id="&#229;&#164;&#141;&#229;&#136;&#182; 1">
<path id="Vector" d="M11.1555 9.7797C11.0152 9.7797 10.8806 9.72395 10.7813 9.6247C10.6821 9.52546 10.6263 9.39085 10.6263 9.2505C10.6263 9.11015 10.6821 8.97554 10.7813 8.8763C10.8806 8.77705 11.0152 8.7213 11.1555 8.7213C11.2912 8.7213 11.4214 8.66739 11.5174 8.57143C11.6133 8.47546 11.6672 8.34531 11.6672 8.2096V3.6232C11.6672 3.48749 11.6133 3.35734 11.5174 3.26137C11.4214 3.16541 11.2912 3.1115 11.1555 3.1115H6.56912C6.43341 3.1115 6.30326 3.16541 6.2073 3.26137C6.11133 3.35734 6.05742 3.48749 6.05742 3.6232C6.05742 3.76355 6.00167 3.89816 5.90242 3.9974C5.80318 4.09665 5.66858 4.1524 5.52822 4.1524C5.38787 4.1524 5.25327 4.09665 5.15402 3.9974C5.05478 3.89816 4.99902 3.76355 4.99902 3.6232C4.99995 3.20707 5.16567 2.80824 5.45992 2.51399C5.75417 2.21974 6.15299 2.05403 6.56912 2.0531H11.1555C11.5717 2.05403 11.9705 2.21974 12.2647 2.51399C12.559 2.80824 12.7247 3.20707 12.7256 3.6232V8.2096C12.7247 8.62573 12.559 9.02456 12.2647 9.31881C11.9705 9.61306 11.5717 9.77878 11.1555 9.7797Z" fill="#787D83"/>
<path id="Vector_2" d="M8.8091 12.0736H4.4166C4.19875 12.0739 3.98299 12.0312 3.78167 11.9479C3.58035 11.8647 3.39743 11.7426 3.24339 11.5885C3.08935 11.4345 2.96721 11.2516 2.88397 11.0502C2.80073 10.8489 2.75803 10.6332 2.7583 10.4153V6.00532C2.75793 5.78741 2.80057 5.57157 2.88377 5.37017C2.96697 5.16877 3.08909 4.98577 3.24314 4.83165C3.39719 4.67753 3.58015 4.55533 3.78151 4.47205C3.98287 4.38877 4.1987 4.34604 4.4166 4.34631H8.8091C9.02695 4.34604 9.24271 4.38874 9.44403 4.47198C9.64535 4.55522 9.82827 4.67736 9.98231 4.8314C10.1364 4.98545 10.2585 5.16837 10.3417 5.36968C10.425 5.571 10.4677 5.78677 10.4674 6.00462V10.4146C10.4849 11.3323 9.7268 12.0736 8.8091 12.0736ZM4.4166 5.40471C4.33764 5.40406 4.25934 5.41913 4.18626 5.44905C4.11318 5.47897 4.04679 5.52313 3.99095 5.57897C3.93512 5.6348 3.89095 5.7012 3.86104 5.77427C3.83112 5.84735 3.81605 5.92565 3.8167 6.00462V10.4146C3.81605 10.4936 3.83112 10.5719 3.86104 10.645C3.89095 10.718 3.93512 10.7844 3.99095 10.8403C4.04679 10.8961 4.11318 10.9403 4.18626 10.9702C4.25934 11.0001 4.33764 11.0152 4.4166 11.0145H8.8091C8.88806 11.0152 8.96637 11.0001 9.03944 10.9702C9.11252 10.9403 9.17891 10.8961 9.23475 10.8403C9.29059 10.7844 9.33475 10.718 9.36467 10.645C9.39458 10.5719 9.40966 10.4936 9.409 10.4146V6.00462C9.40966 5.92565 9.39458 5.84735 9.36467 5.77427C9.33475 5.7012 9.29059 5.6348 9.23475 5.57897C9.17891 5.52313 9.11252 5.47897 9.03944 5.44905C8.96637 5.41913 8.88806 5.40406 8.8091 5.40471H4.4166Z" fill="#787D83"/>
</g>
</svg>
