<svg xmlns="http://www.w3.org/2000/svg" width="16" height="16" viewBox="0 0 16 16" fill="none">
<path fill-rule="evenodd" clip-rule="evenodd" d="M15.1107 5.15462L12.3161 2.13062C12.2099 2.01552 12.0813 1.92329 11.9383 1.85956C11.7952 1.79583 11.6407 1.76194 11.4841 1.75995H4.55074C4.3945 1.76167 4.24027 1.79546 4.09761 1.85922C3.95496 1.92298 3.82691 2.01535 3.72141 2.13062L0.926745 5.15462C0.742696 5.34756 0.640015 5.60397 0.640015 5.87062C0.640015 6.13726 0.742696 6.39367 0.926745 6.58662L7.45741 13.9813C7.52631 14.0631 7.61193 14.1293 7.70852 14.1753C7.80512 14.2213 7.91044 14.2461 8.01741 14.248C8.1248 14.2463 8.23059 14.2216 8.32764 14.1756C8.4247 14.1296 8.51077 14.0633 8.58008 13.9813L15.0894 6.59995C15.2803 6.40915 15.3893 6.15147 15.3933 5.88161C15.3973 5.61175 15.2959 5.35097 15.1107 5.15462ZM9.33124 5.13281H8.85124V7.16161C8.85124 7.22988 8.84058 7.27895 8.81924 7.30881C8.80218 7.33441 8.75524 7.34721 8.67844 7.34721H8.42884V7.95521H9.31204C9.68751 7.95521 9.87524 7.76321 9.87524 7.37921V5.75361C9.87524 5.33975 9.69391 5.13281 9.33124 5.13281ZM7.99364 7.95521H8.17284V7.34721H7.29604C7.09124 7.34721 6.95684 7.37495 6.89284 7.43041C6.82884 7.48588 6.79684 7.60748 6.79684 7.79521V9.14561C6.79684 9.41868 6.82458 9.58935 6.88004 9.65761C6.93551 9.72588 7.06778 9.76001 7.27684 9.76001H7.82084V8.14081C7.82084 8.07255 7.82938 8.02561 7.84644 8.00001C7.86778 7.97015 7.91684 7.95521 7.99364 7.95521ZM9.87524 9.20321C9.87524 9.08375 9.82191 9.02401 9.71524 9.02401H8.07684L8.08324 9.76001H9.87524V9.20321ZM7.98724 5.74081H8.59524V5.13281H7.33444C7.09551 5.13281 6.93978 5.18828 6.86724 5.29921C6.79898 5.41015 6.76484 5.58295 6.76484 5.81761V6.36801C6.76484 6.50028 6.77764 6.57921 6.80324 6.60481C6.83311 6.63041 6.92698 6.64321 7.08484 6.64321H7.78884V5.93281C7.78884 5.86028 7.79951 5.81121 7.82084 5.78561C7.84218 5.75575 7.89764 5.74081 7.98724 5.74081Z" fill="#07828B"/>
</svg>