<svg width="20" height="21" viewBox="0 0 20 21" fill="none" xmlns="http://www.w3.org/2000/svg">
<path d="M14.8648 14.471C14.6643 14.471 14.472 14.3913 14.3303 14.2496C14.1885 14.1078 14.1088 13.9155 14.1088 13.715C14.1088 13.5145 14.1885 13.3222 14.3303 13.1804C14.472 13.0386 14.6643 12.959 14.8648 12.959C15.0587 12.959 15.2446 12.882 15.3817 12.7449C15.5188 12.6078 15.5958 12.4219 15.5958 12.228V5.67598C15.5958 5.48211 15.5188 5.29618 15.3817 5.15909C15.2446 5.022 15.0587 4.94498 14.8648 4.94498H8.31282C8.11895 4.94498 7.93302 5.022 7.79593 5.15909C7.65884 5.29618 7.58182 5.48211 7.58182 5.67598C7.58182 5.87649 7.50217 6.06878 7.3604 6.21056C7.21862 6.35233 7.02633 6.43198 6.82582 6.43198C6.62532 6.43198 6.43303 6.35233 6.29125 6.21056C6.14947 6.06878 6.06982 5.87649 6.06982 5.67598C6.07114 5.08151 6.30788 4.51176 6.72824 4.0914C7.1486 3.67104 7.71835 3.4343 8.31282 3.43298H14.8648C15.4593 3.4343 16.029 3.67104 16.4494 4.0914C16.8698 4.51176 17.1065 5.08151 17.1078 5.67598V12.228C17.1065 12.8225 16.8698 13.3922 16.4494 13.8126C16.029 14.2329 15.4593 14.4697 14.8648 14.471Z" fill="#07828B"/>
<path d="M11.5131 17.748H5.23814C4.92693 17.7484 4.6187 17.6874 4.3311 17.5685C4.0435 17.4496 3.78219 17.2751 3.56213 17.0551C3.34207 16.835 3.16758 16.5737 3.04867 16.2861C2.92976 15.9985 2.86875 15.6903 2.86914 15.379V9.07905C2.86862 8.76775 2.92953 8.45941 3.04838 8.1717C3.16724 7.88398 3.3417 7.62255 3.56177 7.40238C3.78185 7.18222 4.0432 7.00764 4.33087 6.88867C4.61853 6.76969 4.92685 6.70865 5.23814 6.70905H11.5131C11.8244 6.70865 12.1326 6.76966 12.4202 6.88857C12.7078 7.00749 12.9691 7.18197 13.1892 7.40203C13.4092 7.62209 13.5837 7.88341 13.7026 8.171C13.8215 8.4586 13.8825 8.76684 13.8821 9.07805V15.378C13.9071 16.689 12.8241 17.748 11.5131 17.748ZM5.23814 8.22105C5.12534 8.22011 5.01348 8.24164 4.90908 8.28438C4.80469 8.32712 4.70984 8.39021 4.63007 8.46998C4.55031 8.54974 4.48722 8.64459 4.44448 8.74899C4.40174 8.85338 4.38021 8.96525 4.38114 9.07805V15.378C4.38021 15.4909 4.40174 15.6027 4.44448 15.7071C4.48722 15.8115 4.55031 15.9064 4.63007 15.9861C4.70984 16.0659 4.80469 16.129 4.90908 16.1717C5.01348 16.2144 5.12534 16.236 5.23814 16.235H11.5131C11.6259 16.236 11.7378 16.2144 11.8422 16.1717C11.9466 16.129 12.0414 16.0659 12.1212 15.9861C12.201 15.9064 12.2641 15.8115 12.3068 15.7071C12.3495 15.6027 12.3711 15.4909 12.3701 15.378V9.07805C12.3711 8.96525 12.3495 8.85338 12.3068 8.74899C12.2641 8.64459 12.201 8.54974 12.1212 8.46998C12.0414 8.39021 11.9466 8.32712 11.8422 8.28438C11.7378 8.24164 11.6259 8.22011 11.5131 8.22105H5.23814Z" fill="#07828B"/>
</svg>
