<svg width="16" height="16" viewBox="0 0 16 16" fill="none" xmlns="http://www.w3.org/2000/svg">
<path d="M4.66019 5.42667C4.48919 5.42917 4.32599 5.50106 4.20629 5.62667L1.19069 8.72C0.936393 8.98142 0.936393 9.40525 1.19069 9.66667C1.44499 9.92808 1.85729 9.92808 2.11159 9.66667L4.01169 7.70667V13.3333C4.01169 13.7015 4.30209 14 4.66019 14C5.01836 14 5.3087 13.7015 5.3087 13.3333V7.70667L7.2153 9.66667C7.33707 9.79288 7.50282 9.86387 7.67574 9.86387C7.84865 9.86387 8.01441 9.79288 8.13618 9.66667C8.25895 9.54149 8.328 9.37109 8.328 9.19333C8.328 9.01558 8.25895 8.84518 8.13618 8.72L5.12064 5.62667C4.99929 5.49943 4.83349 5.42741 4.66019 5.42667Z" fill="#EC8E41"/>
<path d="M11.3333 2C10.9752 2 10.6848 2.29848 10.6848 2.66667V8.15333L8.78469 6.19333C8.66292 6.06713 8.49717 5.99613 8.32425 5.99613C8.15133 5.99613 7.98558 6.06713 7.86381 6.19333C7.74104 6.31851 7.67199 6.48891 7.67199 6.66667C7.67199 6.84443 7.74104 7.01482 7.86381 7.14L10.8793 10.2333C11.1323 10.4918 11.5408 10.4918 11.7937 10.2333L14.8093 7.14C15.0636 6.87859 15.0636 6.45475 14.8093 6.19333C14.555 5.93192 14.1427 5.93192 13.8884 6.19333L11.9818 8.15333V2.66667C11.9818 2.29848 11.6915 2 11.3333 2Z" fill="#1E8DF9"/>
</svg>
