<svg width="16" height="16" viewBox="0 0 16 16" fill="none" xmlns="http://www.w3.org/2000/svg">
<path d="M3.39993 4.19998H12.5999V11.8C12.5999 13.1255 11.5254 14.2 10.1999 14.2H5.79993C4.47444 14.2 3.39993 13.1255 3.39993 11.8V4.19998Z" stroke="#9E9E9D" stroke-width="1.2"/>
<path d="M1.19995 4.19998C1.19995 3.8686 1.46858 3.59998 1.79995 3.59998H14.2C14.5313 3.59998 14.8 3.8686 14.8 4.19998C14.8 4.53135 14.5313 4.79998 14.2 4.79998H1.79995C1.46858 4.79998 1.19995 4.53135 1.19995 4.19998Z" fill="#9E9E9D"/>
<path d="M6.3999 6.79993L6.3999 9.99993" stroke="#9E9E9D" stroke-width="1.2" stroke-linecap="round"/>
<path d="M9.59998 6.79993L9.59998 9.99993" stroke="#9E9E9D" stroke-width="1.2" stroke-linecap="round"/>
<path d="M5.79995 2.19995C5.79995 1.97904 5.97904 1.79995 6.19995 1.79995H9.79995C10.0209 1.79995 10.2 1.97904 10.2 2.19995V3.79995C10.2 4.02086 10.0209 4.19995 9.79995 4.19995H6.19995C5.97904 4.19995 5.79995 4.02087 5.79995 3.79995V2.19995Z" stroke="#9E9E9D" stroke-width="1.2"/>
</svg>
