<svg width="20" height="20" viewBox="0 0 20 20" fill="none" xmlns="http://www.w3.org/2000/svg">
<path fill-rule="evenodd" clip-rule="evenodd" d="M4.61765 13.2941C4.95876 13.2941 5.23529 13.5706 5.23529 13.9118V15.5588C5.23529 15.6725 5.32747 15.7647 5.44118 15.7647H15.3235C15.4372 15.7647 15.5294 15.6725 15.5294 15.5588V13.9118C15.5294 13.5706 15.8059 13.2941 16.1471 13.2941C16.4882 13.2941 16.7647 13.5706 16.7647 13.9118V15.5588C16.7647 16.3548 16.1195 17 15.3235 17H5.44118C4.64524 17 4 16.3548 4 15.5588V13.9118C4 13.5706 4.27653 13.2941 4.61765 13.2941Z" fill=""/>
<path d="M9.34302 3C8.9194 3 8.56603 3.32375 8.52904 3.74575C8.40251 5.18916 8.38019 6.63966 8.46219 8.08599C8.2588 8.09723 8.05547 8.11025 7.85225 8.12507L6.6256 8.21448C6.15264 8.24896 5.88826 8.77632 6.14359 9.17591C7.01821 10.5447 8.14518 11.7346 9.46443 12.6823L9.95586 13.0353C10.2107 13.2184 10.554 13.2184 10.8089 13.0353L11.3004 12.6823C12.6196 11.7346 13.7466 10.5447 14.6212 9.17591C14.8765 8.77632 14.6121 8.24896 14.1392 8.21449L12.9125 8.12507C12.7093 8.11025 12.506 8.09723 12.3026 8.08599C12.3846 6.63966 12.3623 5.18916 12.2358 3.74574C12.1988 3.32375 11.8454 3 11.4218 3H9.34302Z" fill=""/>
</svg>
