<svg width="12" height="10" viewBox="0 0 12 10" fill="none" xmlns="http://www.w3.org/2000/svg">
<g id="Group 73">
<path id="&#232;&#183;&#175;&#229;&#190;&#132;" fill-rule="evenodd" clip-rule="evenodd" d="M7.67613 0.166125L11.8528 4.63963C12.05 4.85618 12.05 5.20326 11.847 5.41092C11.8412 5.41982 11.8354 5.42575 11.8296 5.43169C11.8195 5.44121 11.8092 5.45026 11.7987 5.4588L7.62522 9.8447C7.61652 9.85063 7.61072 9.85657 7.60492 9.8625C7.40189 10.0553 7.08574 10.0435 6.89721 9.83877C6.69998 9.62221 6.69998 9.28106 6.90301 9.06747L10.7585 5.01575L6.94521 0.931485C6.74508 0.717896 6.74508 0.373781 6.94811 0.160192C7.05253 0.0563638 7.18305 0 7.31357 0C7.44119 0 7.57751 0.0563638 7.67613 0.166125Z" fill="#787D83"/>
<path id="&#232;&#183;&#175;&#229;&#190;&#132;_2" fill-rule="evenodd" clip-rule="evenodd" d="M0.926126 0.166125L5.10279 4.63963C5.30003 4.85618 5.30003 5.20326 5.09699 5.41092C5.09119 5.41982 5.08539 5.42575 5.07959 5.43169C5.06955 5.44121 5.05923 5.45026 5.04866 5.4588L0.875223 9.8447C0.866521 9.85063 0.86072 9.85657 0.854919 9.8625C0.651887 10.0553 0.335736 10.0435 0.147206 9.83877C-0.050025 9.62221 -0.050025 9.28106 0.153008 9.06747L4.00846 5.01575L0.195209 0.931485C-0.00492287 0.717896 -0.00492287 0.373781 0.19811 0.160192C0.302526 0.0563638 0.433047 0 0.563568 0C0.691188 0 0.82751 0.0563638 0.926126 0.166125Z" fill="#787D83"/>
</g>
</svg>
