<svg width="12" height="10" viewBox="0 0 12 10" fill="none" xmlns="http://www.w3.org/2000/svg">
<g id="Group 73">
<path id="&#232;&#183;&#175;&#229;&#190;&#132;" fill-rule="evenodd" clip-rule="evenodd" d="M4.32387 0.166125L0.147206 4.63963C-0.0500251 4.85618 -0.0500251 5.20326 0.153007 5.41092C0.158808 5.41982 0.164609 5.42575 0.17041 5.43169C0.180453 5.44121 0.190772 5.45026 0.201339 5.4588L4.37478 9.8447C4.38348 9.85063 4.38928 9.85657 4.39508 9.8625C4.59811 10.0553 4.91426 10.0435 5.10279 9.83877C5.30002 9.62221 5.30002 9.28106 5.09699 9.06747L1.24154 5.01575L5.05479 0.931485C5.25492 0.717896 5.25492 0.373781 5.05189 0.160192C4.94747 0.0563638 4.81695 0 4.68643 0C4.55881 0 4.42249 0.0563638 4.32387 0.166125Z" fill="#787D83"/>
<path id="&#232;&#183;&#175;&#229;&#190;&#132;_2" fill-rule="evenodd" clip-rule="evenodd" d="M11.0739 0.166125L6.89721 4.63963C6.69997 4.85618 6.69997 5.20326 6.90301 5.41092C6.90881 5.41982 6.91461 5.42575 6.92041 5.43169C6.93045 5.44121 6.94077 5.45026 6.95134 5.4588L11.1248 9.8447C11.1335 9.85063 11.1393 9.85657 11.1451 9.8625C11.3481 10.0553 11.6643 10.0435 11.8528 9.83877C12.05 9.62221 12.05 9.28106 11.847 9.06747L7.99154 5.01575L11.8048 0.931485C12.0049 0.717896 12.0049 0.373781 11.8019 0.160192C11.6975 0.0563638 11.567 0 11.4364 0C11.3088 0 11.1725 0.0563638 11.0739 0.166125Z" fill="#787D83"/>
</g>
</svg>
