<svg width="20" height="20" viewBox="0 0 20 20" fill="none" xmlns="http://www.w3.org/2000/svg">
<path d="M5.75659 4C4.33279 4 3.2184 4.3855 3.0217 5.85175C2.9587 6.32125 3.0973 6.78325 3.4158 7.117C3.574 7.28275 3.7413 7.48 3.9625 7.6795C4.5176 8.18125 5.2253 8.74525 5.8875 9.25C7.7096 10.6375 9.1481 11.5 10 11.5C10.8519 11.5 12.2904 10.6375 14.1125 9.25C14.7754 8.74525 15.4831 8.1805 16.0375 7.6795C16.2587 7.48 16.426 7.2835 16.5842 7.117C16.9027 6.78325 17.0413 6.32125 16.9783 5.85175C16.7816 4.3855 15.6672 4 14.2434 4H5.75659ZM3 8.617V13C3 14.6567 4.2537 16 5.8 16H14.2C15.7463 16 17 14.6567 17 13V8.617C16.426 9.20125 15.7848 9.80425 14.8783 10.492C12.8931 11.998 11.1102 13 10 13C8.8898 13 7.1069 11.998 5.1217 10.492C4.2145 9.80425 3.574 9.20125 3 8.617Z" fill=""/>
</svg>
