<svg width="14" height="14" viewBox="0 0 14 14" fill="none" xmlns="http://www.w3.org/2000/svg">
<g id="icon_transfer" clip-path="url(#clip0_403_252)">
<path id="Vector" d="M12.8545 4.38121C12.5264 3.64204 12.0554 2.97506 11.4685 2.41866C10.8788 1.85739 10.1877 1.41338 9.43212 1.1103C8.64454 0.794156 7.80341 0.632759 6.95475 0.634936C5.28684 0.622751 3.68075 1.26551 2.48175 2.42503C1.89448 2.99372 1.42826 3.6753 1.11112 4.42878C0.793982 5.18226 0.632471 5.99208 0.636297 6.80957C0.635547 7.64823 0.803032 8.47852 1.12884 9.2513C1.445 10.0013 1.90211 10.6838 2.47539 11.2616C3.06104 11.8539 3.75857 12.3239 4.52743 12.6443C5.29629 12.9647 6.12116 13.1291 6.95411 13.128C7.80671 13.1284 8.65069 12.9574 9.43593 12.6253C10.1954 12.3058 10.8867 11.8437 11.4723 11.2641C12.0586 10.6896 12.528 10.007 12.8545 9.25384C13.1906 8.4817 13.3639 7.64853 13.3636 6.80639C13.3656 5.97126 13.1922 5.14503 12.8545 4.38121ZM6.95411 12.1315C5.54306 12.13 4.19023 11.5688 3.19241 10.5711C2.19458 9.57339 1.63325 8.22062 1.63157 6.80957C1.63398 6.11811 1.77442 5.43409 2.04465 4.79762C2.31488 4.16114 2.70946 3.58502 3.20525 3.10304C3.70105 2.62105 4.28808 2.2429 4.93193 1.99076C5.57579 1.73861 6.2635 1.61755 6.95475 1.63466C8.35751 1.60631 9.71435 2.13497 10.7282 3.10489C11.742 4.0748 12.3301 5.40693 12.3638 6.80957C12.3337 8.22675 11.7513 9.57612 10.7408 10.5702C9.73032 11.5643 8.37159 12.1245 6.95411 12.1315Z" fill="#07828B"/>
<path id="Vector_2" d="M9.41117 5.61757H5.72662L6.15362 5.22621C6.23232 5.1532 6.27901 5.05207 6.28353 4.94482C6.28806 4.83757 6.25006 4.73286 6.1778 4.65348L6.15617 4.6293C6.08316 4.5506 5.98203 4.50391 5.87478 4.49939C5.76753 4.49486 5.66282 4.53286 5.58344 4.60512L4.34317 5.7423C4.26447 5.81531 4.21778 5.91644 4.21325 6.02369C4.20873 6.13094 4.24672 6.23564 4.31898 6.31503L4.34062 6.33921C4.38715 6.38995 4.44568 6.4282 4.51083 6.45043C4.57599 6.47267 4.64569 6.47819 4.71353 6.46648H9.41308C9.52094 6.46598 9.62424 6.42291 9.70051 6.34664C9.77678 6.27037 9.81985 6.16707 9.82035 6.05921V6.02675C9.82035 5.97302 9.80977 5.91981 9.7892 5.87017C9.76864 5.82052 9.7385 5.77541 9.7005 5.73742C9.66251 5.69942 9.6174 5.66928 9.56775 5.64872C9.51811 5.62816 9.4649 5.61757 9.41117 5.61757Z" fill="#07828B"/>
<path id="Vector_3" d="M9.65941 7.27779C9.61289 7.22705 9.55436 7.1888 9.4892 7.16657C9.42405 7.14433 9.35435 7.13881 9.28651 7.15052H4.58696C4.4791 7.15102 4.3758 7.19409 4.29953 7.27036C4.22326 7.34663 4.18019 7.44993 4.17969 7.55779V7.59025C4.18019 7.69811 4.22326 7.80141 4.29953 7.87768C4.3758 7.95395 4.4791 7.99702 4.58696 7.99752H8.27151L7.84451 8.38888C7.76581 8.46189 7.71912 8.56302 7.71459 8.67027C7.71006 8.77752 7.74806 8.88223 7.82032 8.96161L7.84196 8.98579C7.91497 9.06449 8.0161 9.11118 8.12335 9.11571C8.2306 9.12023 8.3353 9.08224 8.41469 9.00997L9.65496 7.87279C9.73366 7.79978 9.78035 7.69866 9.78487 7.5914C9.7894 7.48415 9.7514 7.37945 9.67914 7.30007L9.65941 7.27779Z" fill="#07828B"/>
</g>
<defs>
<clipPath id="clip0_403_252">
<rect width="14" height="14" fill="white"/>
</clipPath>
</defs>
</svg>
