<svg width="16" height="16" viewBox="0 0 16 16" fill="none" xmlns="http://www.w3.org/2000/svg">
<path fill-rule="evenodd" clip-rule="evenodd" d="M13.1214 9.25433L13.1214 9.25434C11.9819 10.6573 10.5643 12 8 12C5.43571 12 4.0181 10.6573 2.87864 9.25434L2.87864 9.25433C2.50686 8.79658 2.16333 8.35959 1.88498 8C2.16333 7.64042 2.50686 7.20342 2.87864 6.74567L2.87864 6.74566C4.0181 5.34269 5.43571 4 8 4C10.5643 4 11.9819 5.34269 13.1214 6.74566L13.1214 6.74567C13.4931 7.20342 13.8367 7.64042 14.115 8C13.8367 8.35958 13.4931 8.79658 13.1214 9.25433ZM1.71429 10.2C0.764718 9.03085 0 8 0 8C0 8 0.764718 6.96915 1.71429 5.8C2.95808 4.26857 4.75963 2.5 8 2.5C11.2404 2.5 13.0419 4.26857 14.2857 5.8C15.2353 6.96915 16 8 16 8C16 8 15.2353 9.03085 14.2857 10.2C13.0419 11.7314 11.2404 13.5 8 13.5C4.75963 13.5 2.95808 11.7314 1.71429 10.2ZM8 10C9.10457 10 10 9.10457 10 8C10 6.89543 9.10457 6 8 6C6.89543 6 6 6.89543 6 8C6 9.10457 6.89543 10 8 10Z" fill="#9E9E9D"/>
</svg>
