<svg width="16" height="16" viewBox="0 0 16 16" fill="none" xmlns="http://www.w3.org/2000/svg">
<path fill-rule="evenodd" clip-rule="evenodd" d="M11.5595 12.6202L10.4425 11.5032C9.75856 11.812 8.95956 12 8 12C5.43571 12 4.0181 10.6573 2.87864 9.25434L2.87864 9.25433C2.50686 8.79658 2.16333 8.35959 1.88498 8C2.16333 7.64042 2.50686 7.20342 2.87864 6.74567L2.87864 6.74566C3.28815 6.24145 3.73358 5.74503 4.25526 5.31592L3.19093 4.25159C2.6134 4.74375 2.13234 5.28527 1.71429 5.8C0.764718 6.96915 0 8 0 8C0 8 0.764718 9.03085 1.71429 10.2C2.95808 11.7314 4.75963 13.5 8 13.5C9.4474 13.5 10.6077 13.1471 11.5595 12.6202ZM4.4405 3.37984C5.39228 2.85286 6.5526 2.5 8 2.5C11.2404 2.5 13.0419 4.26857 14.2857 5.8C15.2353 6.96915 16 8 16 8C16 8 15.2353 9.03085 14.2857 10.2C13.8677 10.7147 13.3866 11.2563 12.8091 11.7484L11.7447 10.6841C12.2664 10.255 12.7119 9.75855 13.1214 9.25434L13.1214 9.25433C13.4931 8.79658 13.8367 8.35958 14.115 8C13.8367 7.64042 13.4931 7.20342 13.1214 6.74567L13.1214 6.74566C11.9819 5.34269 10.5643 4 8 4C7.04044 4 6.24144 4.18801 5.5575 4.49684L4.4405 3.37984ZM6.15827 7.21892C6.05637 7.45889 6 7.72286 6 8C6 9.10457 6.89543 10 8 10C8.27714 10 8.54111 9.94363 8.78107 9.84173L6.15827 7.21892ZM9.84173 8.78108L7.21892 6.15827C7.45889 6.05637 7.72286 6 8 6C9.10457 6 10 6.89543 10 8C10 8.27714 9.94363 8.54111 9.84173 8.78108Z" fill="#9E9E9D"/>
<path d="M3.5 1.5L14.5 12.5" stroke="#9E9E9D" stroke-width="1.5"/>
</svg>
