<svg width="24" height="24" viewBox="0 0 24 24" fill="none" xmlns="http://www.w3.org/2000/svg">
<path d="M12.0001 14.2329C13.0955 14.2329 13.9835 13.3553 13.9835 12.2727C13.9835 11.1901 13.0955 10.3125 12.0001 10.3125C10.9046 10.3125 10.0166 11.1901 10.0166 12.2727C10.0166 13.3553 10.9046 14.2329 12.0001 14.2329Z" fill="#2B2F33"/>
<path fill-rule="evenodd" clip-rule="evenodd" d="M7.68022 7.81133L3.27295 12.2727L7.68022 16.7341C8.81218 17.8917 10.3713 18.5455 12.0002 18.5455C13.6292 18.5455 15.1883 17.8917 16.3202 16.7341L20.7275 12.2727L16.3202 7.81133C15.1883 6.65372 13.6292 6 12.0002 6C10.3713 6 8.81218 6.65372 7.68022 7.81133ZM15.9672 12.2727C15.9672 14.4379 14.1911 16.1931 12.0002 16.1931C9.80934 16.1931 8.03328 14.4379 8.03328 12.2727C8.03328 10.1076 9.80934 8.35234 12.0002 8.35234C14.1911 8.35234 15.9672 10.1076 15.9672 12.2727Z" fill="#2B2F33"/>
</svg>
