<svg width="16" height="16" viewBox="0 0 16 16" fill="none" xmlns="http://www.w3.org/2000/svg">
<path d="M8 9.87496C9.00415 9.87496 9.81818 9.03551 9.81818 8C9.81818 6.96448 9.00415 6.12503 8 6.12503C6.99584 6.12503 6.18182 6.96448 6.18182 8C6.18182 9.03551 6.99584 9.87496 8 9.87496Z" fill=""/>
<path fill-rule="evenodd" clip-rule="evenodd" d="M4.04 3.73258L0 8L4.04 12.2674C5.07763 13.3747 6.50681 14 8 14C9.49319 14 10.9224 13.3747 11.96 12.2674L16 8L11.96 3.73258C10.9224 2.62529 9.49319 2 8 2C6.50681 2 5.07763 2.62529 4.04 3.73258ZM11.6364 8C11.6364 10.071 10.0083 11.7499 8 11.7499C5.99169 11.7499 4.36364 10.071 4.36364 8C4.36364 5.92897 5.99169 4.25007 8 4.25007C10.0083 4.25007 11.6364 5.92897 11.6364 8Z" fill=""/>
</svg>
