<svg width="14" height="15" viewBox="0 0 14 15" fill="none" xmlns="http://www.w3.org/2000/svg">
<g id="Component 767">
<path id="Star 5" d="M6.37554 1.27904C6.58843 0.673608 7.44464 0.673607 7.65752 1.27904L8.81454 4.56962C8.90243 4.81958 9.12761 4.99565 9.39138 5.02066L12.5752 5.32259C13.1453 5.37666 13.3969 6.06863 12.9946 6.47628L10.4129 9.09225C10.2542 9.25309 10.1858 9.48232 10.2305 9.70384L10.9893 13.4668C11.1115 14.0729 10.4265 14.514 9.92534 14.1519L7.41446 12.3378C7.17693 12.1661 6.85614 12.1661 6.61861 12.3378L4.10773 14.1519C3.60657 14.514 2.92154 14.0729 3.04376 13.4668L3.80259 9.70384C3.84725 9.48232 3.77887 9.25309 3.62014 9.09225L1.03845 6.47628C0.636136 6.06863 0.887723 5.37666 1.45791 5.32259L4.64169 5.02066C4.90546 4.99565 5.13064 4.81958 5.21853 4.56962L6.37554 1.27904Z" fill="#FFD30F"/>
</g>
</svg>
