<svg width="16" height="16" viewBox="0 0 16 16" fill="none" xmlns="http://www.w3.org/2000/svg">
<path d="M9.25517 14.5456C9.02142 14.5446 8.79524 14.4626 8.61517 14.3136L5.78237 11.9936C5.66533 11.8983 5.57105 11.7782 5.50641 11.6418C5.44177 11.5055 5.40841 11.3565 5.40877 11.2056V7.09277L1.93357 3.73277C1.75969 3.56553 1.63984 3.35008 1.58943 3.11416C1.53902 2.87823 1.56035 2.63262 1.65069 2.40892C1.74103 2.18522 1.89624 1.99367 2.09635 1.85892C2.29646 1.72416 2.53232 1.65237 2.77357 1.65277H12.9112C13.1524 1.65237 13.3883 1.72416 13.5884 1.85892C13.7885 1.99367 13.9437 2.18522 14.034 2.40892C14.1244 2.63262 14.1457 2.87823 14.0953 3.11416C14.0449 3.35008 13.925 3.56553 13.7512 3.73277L10.276 7.09277V13.5256C10.277 13.7187 10.2227 13.908 10.1195 14.0712C10.0163 14.2344 9.86848 14.3646 9.69357 14.4464C9.55655 14.5114 9.40683 14.5453 9.25517 14.5456ZM2.77037 2.61837C2.72091 2.6185 2.67262 2.63335 2.63165 2.66105C2.59067 2.68875 2.55889 2.72803 2.54034 2.77388C2.5218 2.81972 2.51734 2.87006 2.52753 2.91845C2.53772 2.96684 2.56211 3.0111 2.59757 3.04557L6.21917 6.54317C6.26553 6.58799 6.30239 6.64169 6.32755 6.70107C6.3527 6.76045 6.36563 6.82429 6.36557 6.88877V11.2088C6.36559 11.2175 6.36753 11.2261 6.37127 11.234C6.375 11.2419 6.38043 11.2488 6.38717 11.2544L9.21997 13.5744C9.22835 13.5819 9.23885 13.5866 9.25002 13.5879C9.2612 13.5892 9.2725 13.587 9.28237 13.5816C9.29287 13.5775 9.30179 13.5702 9.30783 13.5607C9.31388 13.5512 9.31673 13.54 9.31597 13.5288V6.88877C9.31601 6.82423 9.32906 6.76036 9.35436 6.70098C9.37965 6.64159 9.41666 6.58792 9.46317 6.54317L13.084 3.04557C13.1198 3.01126 13.1446 2.96698 13.155 2.91845C13.1654 2.86992 13.161 2.81939 13.1424 2.77337C13.1238 2.72736 13.0918 2.68799 13.0506 2.66036C13.0094 2.63273 12.9608 2.6181 12.9112 2.61837H2.77037Z" fill="black" stroke="black" stroke-width="0.3"/>
<path d="M13.7976 8.16477H11.8872C11.7599 8.16477 11.6378 8.1142 11.5478 8.02418C11.4578 7.93417 11.4072 7.81208 11.4072 7.68477C11.4072 7.55747 11.4578 7.43538 11.5478 7.34536C11.6378 7.25534 11.7599 7.20477 11.8872 7.20477H13.7976C13.9249 7.20477 14.047 7.25534 14.137 7.34536C14.2271 7.43538 14.2776 7.55747 14.2776 7.68477C14.2776 7.81208 14.2271 7.93417 14.137 8.02418C14.047 8.1142 13.9249 8.16477 13.7976 8.16477ZM13.7976 10.4736H11.8872C11.7599 10.4736 11.6378 10.423 11.5478 10.333C11.4578 10.243 11.4072 10.1209 11.4072 9.99357C11.4072 9.86627 11.4578 9.74418 11.5478 9.65416C11.6378 9.56414 11.7599 9.51357 11.8872 9.51357H13.7976C13.9249 9.51357 14.047 9.56414 14.137 9.65416C14.2271 9.74418 14.2776 9.86627 14.2776 9.99357C14.2776 10.1209 14.2271 10.243 14.137 10.333C14.047 10.423 13.9249 10.4736 13.7976 10.4736ZM13.7976 12.7816H11.8872C11.7599 12.7816 11.6378 12.731 11.5478 12.641C11.4578 12.551 11.4072 12.4289 11.4072 12.3016C11.4072 12.1743 11.4578 12.0522 11.5478 11.9622C11.6378 11.8721 11.7599 11.8216 11.8872 11.8216H13.7976C13.9249 11.8216 14.047 11.8721 14.137 11.9622C14.2271 12.0522 14.2776 12.1743 14.2776 12.3016C14.2776 12.4289 14.2271 12.551 14.137 12.641C14.047 12.731 13.9249 12.7816 13.7976 12.7816Z" fill="black" stroke="black" stroke-width="0.3"/>
</svg>
