<svg width="14" height="14" viewBox="0 0 14 14" fill="none" xmlns="http://www.w3.org/2000/svg">
<path d="M8.0983 12.7274C7.89377 12.7265 7.69587 12.6548 7.5383 12.5244L5.0596 10.4944C4.9572 10.411 4.8747 10.3059 4.81814 10.1866C4.76158 10.0673 4.73239 9.93689 4.7327 9.80487V6.20617L1.6919 3.26617C1.53976 3.11983 1.43489 2.93132 1.39078 2.72488C1.34667 2.51845 1.36534 2.30353 1.44439 2.1078C1.52344 1.91206 1.65924 1.74446 1.83434 1.62655C2.00944 1.50864 2.21581 1.44582 2.4269 1.44617H11.2973C11.5084 1.44582 11.7148 1.50864 11.8899 1.62655C12.065 1.74446 12.2008 1.91206 12.2798 2.1078C12.3589 2.30353 12.3775 2.51845 12.3334 2.72488C12.2893 2.93132 12.1844 3.11983 12.0323 3.26617L8.9915 6.20617V11.8349C8.99243 12.0038 8.94492 12.1695 8.8546 12.3123C8.76429 12.4551 8.63495 12.569 8.4819 12.6406C8.36201 12.6975 8.23101 12.7271 8.0983 12.7274ZM2.4241 2.29107C2.38083 2.29118 2.33857 2.30418 2.30272 2.32841C2.26687 2.35265 2.23906 2.38702 2.22283 2.42713C2.2066 2.46725 2.2027 2.51129 2.21162 2.55364C2.22054 2.59598 2.24187 2.63471 2.2729 2.66487L5.4418 5.72527C5.48237 5.76448 5.51463 5.81147 5.53664 5.86343C5.55864 5.91538 5.56996 5.97124 5.5699 6.02767V9.80767C5.56992 9.8153 5.57162 9.82283 5.57489 9.82973C5.57816 9.83663 5.58291 9.84272 5.5888 9.84757L8.0675 11.8776C8.07484 11.8841 8.08402 11.8883 8.0938 11.8894C8.10358 11.8905 8.11347 11.8886 8.1221 11.8839C8.13129 11.8803 8.1391 11.8739 8.14439 11.8656C8.14967 11.8573 8.15217 11.8475 8.1515 11.8377V6.02767C8.15154 5.97119 8.16296 5.9153 8.18509 5.86335C8.20722 5.81139 8.2396 5.76442 8.2803 5.72527L11.4485 2.66487C11.4799 2.63485 11.5015 2.5961 11.5107 2.55364C11.5198 2.51118 11.5159 2.46696 11.4997 2.42669C11.4834 2.38643 11.4554 2.35199 11.4193 2.32781C11.3832 2.30363 11.3407 2.29083 11.2973 2.29107H2.4241Z" fill="white"/>
<path d="M12.073 7.1442H10.4014C10.2901 7.1442 10.1832 7.09995 10.1045 7.02118C10.0257 6.94242 9.98145 6.83559 9.98145 6.7242C9.98145 6.61281 10.0257 6.50598 10.1045 6.42721C10.1832 6.34845 10.2901 6.3042 10.4014 6.3042H12.073C12.1844 6.3042 12.2913 6.34845 12.37 6.42721C12.4488 6.50598 12.493 6.61281 12.493 6.7242C12.493 6.83559 12.4488 6.94242 12.37 7.02118C12.2913 7.09995 12.1844 7.1442 12.073 7.1442ZM12.073 9.1644H10.4014C10.2901 9.1644 10.1832 9.12015 10.1045 9.04138C10.0257 8.96262 9.98145 8.85579 9.98145 8.7444C9.98145 8.63301 10.0257 8.52618 10.1045 8.44741C10.1832 8.36865 10.2901 8.3244 10.4014 8.3244H12.073C12.1844 8.3244 12.2913 8.36865 12.37 8.44741C12.4488 8.52618 12.493 8.63301 12.493 8.7444C12.493 8.85579 12.4488 8.96262 12.37 9.04138C12.2913 9.12015 12.1844 9.1644 12.073 9.1644ZM12.073 11.1839H10.4014C10.2901 11.1839 10.1832 11.1396 10.1045 11.0609C10.0257 10.9821 9.98145 10.8753 9.98145 10.7639C9.98145 10.6525 10.0257 10.5457 10.1045 10.4669C10.1832 10.3881 10.2901 10.3439 10.4014 10.3439H12.073C12.1844 10.3439 12.2913 10.3881 12.37 10.4669C12.4488 10.5457 12.493 10.6525 12.493 10.7639C12.493 10.8753 12.4488 10.9821 12.37 11.0609C12.2913 11.1396 12.1844 11.1839 12.073 11.1839Z" fill="white"/>
</svg>
