
<svg width="20" height="20" viewBox="0 0 20 20" fill="none" xmlns="http://www.w3.org/2000/svg">
<g clip-path="url(#clip0_150_2795)">
<path d="M13.4025 18.5474C12.8978 18.5474 12.4626 18.2054 12.2678 17.6545L9.74954 10.5337C9.45027 9.68704 9.8799 8.74998 10.7069 8.4437L13.6786 7.34333C13.8517 7.27955 14.0347 7.24661 14.2183 7.24661C14.8897 7.24661 15.4932 7.67905 15.7209 8.32315L18.2392 15.444C18.3934 15.8806 18.3513 16.3215 18.1235 16.6537C17.9042 16.9733 17.5383 17.1569 17.1192 17.1569C17.0435 17.1569 16.9657 17.1513 16.8879 17.1394L15.8534 16.9852C15.8306 16.9821 15.8077 16.9807 15.7847 16.981C15.5107 16.981 15.1813 17.1387 15.0572 17.281L14.3662 18.0708C14.097 18.3785 13.755 18.5474 13.4025 18.5474ZM14.219 8.73035C14.2027 8.73024 14.1866 8.73309 14.1713 8.73876L11.1996 9.83913C11.1637 9.85356 11.1346 9.88123 11.1185 9.91643C11.1023 9.95163 11.1003 9.99169 11.1127 10.0284L13.5146 16.8198L13.9765 16.2913C14.3921 15.8161 15.1189 15.4972 15.7847 15.4972C15.88 15.4972 15.9733 15.5042 16.0623 15.5169L16.7596 15.6213L14.3571 8.82777C14.3467 8.79936 14.3279 8.77476 14.3033 8.75723C14.2786 8.73971 14.2492 8.73009 14.219 8.72965V8.73035Z" fill="#07828B"/>
<path d="M6.37831 18.5888C5.98863 18.5888 5.62698 18.3869 5.36065 18.0211L4.73548 17.1632C4.60021 16.9782 4.23085 16.7959 3.98905 16.7959H3.96803L2.93354 16.8548C2.90274 16.8566 2.87189 16.8576 2.84103 16.8576C2.38056 16.8576 1.99018 16.6544 1.7708 16.3011C1.54793 15.9423 1.53531 15.4839 1.73716 15.0431L4.87846 8.18578C5.00477 7.90747 5.20811 7.67114 5.46445 7.50472C5.7208 7.33829 6.01943 7.24873 6.32505 7.24661C6.55844 7.24661 6.78902 7.29848 6.99928 7.40081L9.86093 8.77241C10.2464 8.95673 10.538 9.28404 10.6831 9.69545C10.8281 10.1055 10.8092 10.5491 10.6284 10.943L7.48709 17.7996C7.26141 18.2937 6.84649 18.5888 6.37831 18.5888ZM3.98905 15.3122C4.68782 15.3122 5.49031 15.718 5.89752 16.2766L6.31874 16.8548L9.31566 10.3129C9.33162 10.2772 9.33288 10.2367 9.31916 10.2001C9.3131 10.1819 9.30347 10.1651 9.29083 10.1506C9.2782 10.1362 9.26281 10.1244 9.24557 10.116L6.38392 8.74367C6.36563 8.73454 6.34549 8.72974 6.32505 8.72965C6.29701 8.72974 6.26959 8.73784 6.246 8.75299C6.2224 8.76813 6.20363 8.7897 6.19188 8.81516L3.19637 15.3543L3.88743 15.315C3.92177 15.3129 3.95541 15.3122 3.98905 15.3122Z" fill="#07828B"/>
<path d="M9.14939 0.875779C9.61968 0.493105 10.3892 0.493105 10.8595 0.875779C11.3291 1.25775 12.2024 1.49184 12.8009 1.39512C13.3988 1.2991 14.0646 1.68388 14.2805 2.25018C14.4963 2.81578 15.1355 3.45568 15.7018 3.67154C16.2681 3.88741 16.6529 4.55324 16.5569 5.15108C16.4602 5.74962 16.6949 6.6229 17.0769 7.09248C17.4589 7.56277 17.4589 8.33232 17.0769 8.8026C16.6942 9.27219 16.4602 10.1455 16.5569 10.744C16.6529 11.3419 16.2681 12.0077 15.7018 12.2235C15.1362 12.4394 14.4963 13.0786 14.2805 13.6449C14.0646 14.2112 13.3988 14.596 12.8009 14.5C12.2024 14.4032 11.3291 14.638 10.8595 15.02C10.3892 15.402 9.61968 15.402 9.14939 15.02C8.67981 14.6373 7.80653 14.4032 7.20799 14.5C6.61015 14.596 5.94432 14.2112 5.72845 13.6449C5.51259 13.0793 4.87339 12.4394 4.30709 12.2235C3.74079 12.0077 3.35601 11.3419 3.45203 10.744C3.54875 10.1455 3.31396 9.27219 2.93199 8.8026C2.55001 8.33232 2.55001 7.56277 2.93199 7.09248C3.31466 6.6229 3.54875 5.74962 3.45203 5.15108C3.35601 4.55324 3.74079 3.88741 4.30709 3.67154C4.87269 3.45568 5.51259 2.81648 5.72845 2.25018C5.94432 1.68388 6.61015 1.2991 7.20799 1.39512C7.80653 1.49184 8.67981 1.25705 9.14939 0.875078V0.875779Z" fill="#07828B"/>
</g>
<defs>
<clipPath id="clip0_150_2795">
<rect width="20" height="20" fill="white"/>
</clipPath>
</defs>
</svg>