<svg width="30" height="30" viewBox="0 0 30 30" fill="none" xmlns="http://www.w3.org/2000/svg">
<path d="M25.4996 14.999H20.9996C19.3427 14.999 17.9996 16.3422 17.9996 17.999V17.999C17.9996 19.6559 19.3427 20.999 20.9996 20.999H25.4996" stroke="#141717" stroke-width="1.5"/>
<path d="M20.5588 9.89997V7.49999C20.5588 5.84314 19.2157 4.5 17.5588 4.5H7.49999C5.84314 4.5 4.5 5.84314 4.5 7.49999V9.89997M4.5 9.89997V22.4999C4.5 24.1567 5.84314 25.4999 7.49999 25.4999H22.5C24.1569 25.4999 25.5 24.1567 25.5 22.4999V12.9C25.5 11.2431 24.1569 9.89997 22.5 9.89997H4.5Z" stroke="#141717" stroke-width="1.5" stroke-linecap="round"/>
</svg>
