<svg width="20" height="20" viewBox="0 0 20 20" fill="none" xmlns="http://www.w3.org/2000/svg">
<path d="M7.2 6C4.8802 6 3 7.8802 3 10.2C3 12.5198 4.8802 14.4 7.2 14.4C8.6861 14.4 10.3983 13.546 11.1725 11.5944L14.2 11.6L14.9 13H17V8.8L11.1669 8.79301C10.4151 6.89601 8.6861 6 7.2 6ZM7.2 9.5C7.3792 9.5 7.5661 9.56021 7.7033 9.69671C7.9763 9.97041 7.9763 10.4296 7.7033 10.7033C7.4296 10.9763 6.9704 10.9763 6.6967 10.7033C6.4237 10.4296 6.4237 9.97041 6.6967 9.69671C6.8339 9.56021 7.0208 9.5 7.2 9.5Z" fill=""/>
</svg>
