<svg width="20" height="20" viewBox="0 0 20 20" fill="" xmlns="http://www.w3.org/2000/svg">
<path d="M16.8938 8.7615C16.8775 8.66742 16.7951 8.6 16.6996 8.6H10.2C10.0895 8.6 10 8.68954 10 8.8V11.2C10 11.3105 10.0895 11.4 10.2 11.4H13.9561C13.3789 13.0299 11.828 14.2 10 14.2C7.68055 14.2 5.8 12.3195 5.8 10C5.8 7.68055 7.68055 5.8 10 5.8C11.0028 5.8 11.9209 6.15436 12.6427 6.74141C12.7248 6.80825 12.8448 6.80515 12.9197 6.73025L14.6198 5.03019C14.6999 4.95013 14.6977 4.81943 14.6127 4.74468C13.3807 3.66166 11.7693 3 10 3C6.13425 3 3 6.13425 3 10C3 13.8658 6.13425 17 10 17C13.8658 17 17 13.8658 17 10C17 9.587 16.9626 9.16018 16.8938 8.7615Z" fill=""/>
</svg>
