<svg width="24" height="24" viewBox="0 0 24 24" fill="none" xmlns="http://www.w3.org/2000/svg">
<path d="M23.25 11.999C23.25 18.2121 18.2132 23.2489 12 23.2489C5.78679 23.2489 0.749998 18.2121 0.749998 11.999C0.749998 5.78579 5.78679 0.749021 12 0.749021C18.2132 0.749021 23.25 5.78579 23.25 11.999Z" stroke="#141717" stroke-width="1.5"/>
<path d="M9.62381 17.55C8.51981 17.55 7.67981 17.41 7.10381 17.13C6.53182 16.85 6.24582 16.482 6.24582 16.026C6.24582 15.814 6.30182 15.636 6.41382 15.492C6.52582 15.348 6.65582 15.234 6.80381 15.15C6.95581 15.062 7.09381 14.996 7.21781 14.952C7.34581 14.904 7.42381 14.872 7.45181 14.856C7.38781 14.82 7.29581 14.768 7.17581 14.7C7.05581 14.628 6.94381 14.532 6.83981 14.412C6.73981 14.288 6.68982 14.1281 6.68982 13.9321C6.68982 13.7121 6.79381 13.5081 7.00181 13.3201C7.21381 13.1321 7.53381 13.0021 7.96181 12.9301C7.55381 12.7381 7.24381 12.4781 7.03181 12.1501C6.81981 11.8221 6.71382 11.4861 6.71382 11.1421C6.71382 10.7341 6.84181 10.3841 7.09781 10.0921C7.35381 9.80006 7.70181 9.57806 8.14181 9.42606C8.58581 9.27406 9.08781 9.19806 9.64781 9.19806C10.0758 9.19806 10.4258 9.24406 10.6978 9.33606C10.9698 9.42406 11.2218 9.54006 11.4538 9.68406C11.5458 9.64806 11.6678 9.60206 11.8198 9.54606C11.9718 9.48606 12.1358 9.42206 12.3118 9.35406C12.4878 9.28206 12.6598 9.21206 12.8278 9.14406C12.9958 9.07206 13.1458 9.00806 13.2778 8.95206L13.2718 10.3081L12.1978 10.4821C12.2418 10.5901 12.2758 10.7061 12.2998 10.8301C12.3238 10.9541 12.3358 11.0561 12.3358 11.1361C12.3358 11.4961 12.2298 11.8321 12.0178 12.1441C11.8098 12.4561 11.4958 12.7081 11.0758 12.9001C10.6598 13.0921 10.1438 13.1881 9.52781 13.1881C9.45181 13.1881 9.34981 13.1861 9.22181 13.1821C9.09781 13.1781 8.99581 13.1721 8.91581 13.1641C8.67981 13.1761 8.51781 13.2061 8.42981 13.2541C8.34181 13.3021 8.29781 13.3581 8.29781 13.4221C8.29781 13.5181 8.38781 13.5821 8.56781 13.6141C8.74781 13.6421 9.01981 13.6681 9.38381 13.6921C9.51181 13.7001 9.68981 13.7101 9.91781 13.7221C10.1458 13.7341 10.3978 13.7501 10.6738 13.7701C11.4338 13.8221 11.9998 14.0101 12.3718 14.334C12.7478 14.654 12.9358 15.058 12.9358 15.546C12.9358 16.126 12.6598 16.604 12.1078 16.98C11.5598 17.36 10.7318 17.55 9.62381 17.55ZM9.90581 16.572C10.3938 16.572 10.7418 16.512 10.9498 16.392C11.1578 16.272 11.2618 16.1 11.2618 15.876C11.2618 15.688 11.1818 15.536 11.0218 15.42C10.8618 15.3 10.6278 15.23 10.3198 15.21L8.89781 15.114C8.71381 15.106 8.54981 15.134 8.40581 15.198C8.26581 15.262 8.15581 15.35 8.07581 15.462C7.99981 15.574 7.96181 15.694 7.96181 15.822C7.96181 16.082 8.11981 16.272 8.43581 16.392C8.75181 16.512 9.24181 16.572 9.90581 16.572ZM9.57581 12.2101C9.90781 12.2101 10.1738 12.1201 10.3738 11.9401C10.5778 11.7561 10.6798 11.5081 10.6798 11.1961C10.6798 10.8721 10.5778 10.6121 10.3738 10.4161C10.1738 10.2201 9.90781 10.1221 9.57581 10.1221C9.24781 10.1221 8.97981 10.2201 8.77181 10.4161C8.56781 10.6121 8.46581 10.8721 8.46581 11.1961C8.46581 11.5041 8.56381 11.7501 8.75981 11.9341C8.95981 12.1181 9.23181 12.2101 9.57581 12.2101ZM19.9009 10.4941V11.7721H14.231V10.4941H19.9009ZM17.7109 13.9621H16.4329V8.29207H17.7109V13.9621Z" fill="#141717"/>
</svg>
