<svg width="16" height="16" viewBox="0 0 16 16" fill="none" xmlns="http://www.w3.org/2000/svg">
<path fill-rule="evenodd" clip-rule="evenodd" d="M11.3842 2.06558C12.0909 1.80984 12.3051 2.35889 12.3724 2.73502C12.4397 3.11184 12.4397 3.6 11.6988 3.6H8.98134C8.23934 3.6 8.23934 3.20961 8.80132 2.98658C9.04532 2.88975 9.61412 2.69027 10.206 2.48268C10.6223 2.33669 11.05 2.18669 11.3842 2.06558ZM5.83379 2.49663C6.41146 2.69902 6.96082 2.89149 7.1994 2.98554C7.76048 3.20961 7.76048 3.6 7.01985 3.6H4.30098C3.56035 3.6 3.56035 3.11219 3.62768 2.73502C3.69501 2.3589 3.90929 1.80984 4.61573 2.06558C4.96026 2.19057 5.40483 2.34633 5.83379 2.49663Z" fill="#EBB30E"/>
<path fill-rule="evenodd" clip-rule="evenodd" d="M7.4 4.40002H2.8001C2.13736 4.40002 1.6001 4.93728 1.6001 5.60002C1.6001 6.26277 2.13736 6.80002 2.8001 6.80002H7.4V4.40002ZM7.4 8H2.4V13.2C2.4 13.8627 2.93726 14.4 3.6 14.4H7.4V8ZM8.6 14.4V8H13.6V13.2C13.6 13.8627 13.0627 14.4 12.4 14.4H8.6ZM8.6 6.80002V4.40002H13.2001C13.8628 4.40002 14.4001 4.93728 14.4001 5.60002C14.4001 6.26277 13.8628 6.80002 13.2001 6.80002H8.6Z" fill="#EBB30E"/>
</svg>
