<svg width="14" height="14" viewBox="0 0 14 14" fill="none" xmlns="http://www.w3.org/2000/svg">
<g id="&#230;&#143;&#144;&#231;&#164;&#186; 1">
<path id="Vector" d="M7 1.75C4.10566 1.75 1.75 4.10566 1.75 7C1.75 9.89434 4.10566 12.25 7 12.25C9.89434 12.25 12.25 9.89434 12.25 7C12.25 4.10566 9.89434 1.75 7 1.75ZM7 11.5582C4.48711 11.5582 2.4418 9.51289 2.4418 7C2.4418 4.48711 4.48711 2.4418 7 2.4418C9.51289 2.4418 11.5582 4.48711 11.5582 7C11.5582 9.51289 9.51289 11.5582 7 11.5582Z" fill="#A5A8AC"/>
<path id="Vector_2" d="M7.0002 5.61636C6.80879 5.61636 6.6543 5.77085 6.6543 5.96226V9.09995C6.6543 9.29136 6.80879 9.44585 7.0002 9.44585C7.1916 9.44585 7.34609 9.29136 7.34609 9.09995V5.96226C7.34609 5.77085 7.1916 5.61636 7.0002 5.61636ZM7.0002 4.55542C6.80879 4.55542 6.6543 4.70991 6.6543 4.90132C6.6543 5.09272 6.81016 5.24722 7.0002 5.24722C7.1916 5.24722 7.34609 5.09272 7.34609 4.90132C7.34609 4.70991 7.1916 4.55542 7.0002 4.55542Z" fill="#A5A8AC"/>
</g>
</svg>
