<svg width="24" height="24" viewBox="0 0 24 24" fill="none" xmlns="http://www.w3.org/2000/svg">
<g id="icon_help">
<path id="Vector" d="M19.8 2.3999C19.9591 2.3999 20.1117 2.46312 20.2242 2.57564C20.3368 2.68816 20.4 2.84077 20.4 2.9999V21.1847C20.4 21.3438 20.3368 21.4964 20.2242 21.609C20.1117 21.7215 19.9591 21.7847 19.8 21.7847H5.99998C5.36346 21.7847 4.75301 21.5318 4.30292 21.0818C3.85283 20.6317 3.59998 20.0212 3.59998 19.3847V4.7999C3.59998 4.16338 3.85283 3.55293 4.30292 3.10285C4.75301 2.65276 5.36346 2.3999 5.99998 2.3999H19.8ZM19.1076 17.9075H6.09238C5.77412 17.9075 5.46889 18.0339 5.24385 18.259C5.0188 18.484 4.89238 18.7892 4.89238 19.1075V19.2923C4.89238 19.6106 5.0188 19.9158 5.24385 20.1408C5.46889 20.3659 5.77412 20.4923 6.09238 20.4923H19.1076V17.9075ZM19.1076 3.6923H6.09238C5.79846 3.69234 5.51477 3.80025 5.29513 3.99556C5.07549 4.19087 4.93516 4.46 4.90078 4.7519L4.89238 4.8923V16.6163H19.1076V3.6911V3.6923Z" fill="#787D83"/>
<path id="Vector_2" d="M12.1189 5.9375C11.3197 5.9375 10.6933 6.1643 10.2289 6.6179C9.75366 7.0715 9.52686 7.6979 9.52686 8.4971H10.7581C10.7581 8.0327 10.8445 7.6763 11.0281 7.4279C11.2441 7.1363 11.5789 6.9959 12.0433 6.9959C12.4105 6.9959 12.7021 7.0931 12.9073 7.2983C13.1017 7.5035 13.2097 7.7843 13.2097 8.1407C13.2059 8.42268 13.1026 8.69425 12.9181 8.9075L12.7885 9.0587C12.0865 9.6851 11.6653 10.1387 11.5249 10.4303C11.3737 10.7219 11.3089 11.0783 11.3089 11.4887V11.6399H12.5509V11.4887C12.5462 11.2497 12.5975 11.0129 12.7007 10.7973C12.8038 10.5817 12.9559 10.3931 13.1449 10.2467C13.6633 9.7931 13.9765 9.5015 14.0737 9.3935C14.3329 9.0479 14.4733 8.6051 14.4733 8.0651C14.4733 7.4063 14.2573 6.8879 13.8253 6.5099C13.3933 6.1211 12.8209 5.9375 12.1189 5.9375ZM11.9245 12.1691C11.8169 12.1652 11.7097 12.1833 11.6094 12.2223C11.5091 12.2613 11.4179 12.3204 11.3413 12.3959C11.2587 12.4682 11.1935 12.5582 11.1505 12.6592C11.1075 12.7601 11.0878 12.8695 11.0929 12.9791C11.0929 13.2167 11.1685 13.4111 11.3413 13.5623C11.4173 13.6394 11.5082 13.7002 11.6084 13.7411C11.7087 13.7819 11.8162 13.8019 11.9245 13.7999C12.1476 13.8041 12.3639 13.723 12.5293 13.5731C12.6065 13.495 12.6673 13.4021 12.7081 13.3001C12.7489 13.1981 12.7689 13.089 12.7669 12.9791C12.7689 12.8709 12.7489 12.7633 12.708 12.6631C12.6672 12.5628 12.6063 12.4719 12.5293 12.3959C12.3649 12.2444 12.1479 12.163 11.9245 12.1691Z" fill="#787D83"/>
</g>
</svg>
