<svg width="24" height="24" viewBox="0 0 24 24" fill="none" xmlns="http://www.w3.org/2000/svg">
<g id="icon_help">
<path id="Vector" d="M19.8 2.40002C19.9591 2.40002 20.1117 2.46324 20.2242 2.57576C20.3368 2.68828 20.4 2.84089 20.4 3.00002V21.1848C20.4 21.344 20.3368 21.4966 20.2242 21.6091C20.1117 21.7216 19.9591 21.7848 19.8 21.7848H5.99998C5.36346 21.7848 4.75301 21.532 4.30292 21.0819C3.85283 20.6318 3.59998 20.0213 3.59998 19.3848V4.80002C3.59998 4.1635 3.85283 3.55306 4.30292 3.10297C4.75301 2.65288 5.36346 2.40002 5.99998 2.40002H19.8ZM19.1076 17.9076H6.09238C5.77412 17.9076 5.46889 18.0341 5.24385 18.2591C5.0188 18.4841 4.89238 18.7894 4.89238 19.1076V19.2924C4.89238 19.6107 5.0188 19.9159 5.24385 20.141C5.46889 20.366 5.77412 20.4924 6.09238 20.4924H19.1076V17.9076ZM19.1076 3.69242H6.09238C5.79846 3.69246 5.51477 3.80037 5.29513 3.99568C5.07549 4.19099 4.93516 4.46012 4.90078 4.75202L4.89238 4.89242V16.6164H19.1076V3.69122V3.69242Z" fill="#A5A8AC"/>
<path id="Vector_2" d="M12.1188 5.93762C11.3196 5.93762 10.6932 6.16442 10.2288 6.61802C9.75359 7.07162 9.52679 7.69802 9.52679 8.49722H10.758C10.758 8.03282 10.8444 7.67642 11.028 7.42802C11.244 7.13642 11.5788 6.99602 12.0432 6.99602C12.4104 6.99602 12.702 7.09322 12.9072 7.29842C13.1016 7.50362 13.2096 7.78442 13.2096 8.14082C13.2058 8.4228 13.1025 8.69438 12.918 8.90762L12.7884 9.05882C12.0864 9.68522 11.6652 10.1388 11.5248 10.4304C11.3736 10.722 11.3088 11.0784 11.3088 11.4888V11.64H12.5508V11.4888C12.5462 11.2498 12.5975 11.0131 12.7006 10.7974C12.8037 10.5818 12.9558 10.3932 13.1448 10.2468C13.6632 9.79322 13.9764 9.50162 14.0736 9.39362C14.3328 9.04802 14.4732 8.60522 14.4732 8.06522C14.4732 7.40642 14.2572 6.88802 13.8252 6.51002C13.3932 6.12122 12.8208 5.93762 12.1188 5.93762ZM11.9244 12.1692C11.8169 12.1653 11.7097 12.1834 11.6094 12.2224C11.5091 12.2614 11.4178 12.3205 11.3412 12.396C11.2587 12.4683 11.1935 12.5583 11.1505 12.6593C11.1075 12.7602 11.0878 12.8696 11.0928 12.9792C11.0928 13.2168 11.1684 13.4112 11.3412 13.5624C11.4172 13.6395 11.5081 13.7003 11.6084 13.7412C11.7086 13.782 11.8162 13.802 11.9244 13.8C12.1475 13.8042 12.3638 13.7231 12.5292 13.5732C12.6064 13.4951 12.6673 13.4023 12.7081 13.3002C12.7489 13.1982 12.7688 13.0891 12.7668 12.9792C12.7688 12.871 12.7488 12.7635 12.708 12.6632C12.6671 12.5629 12.6063 12.472 12.5292 12.396C12.3648 12.2445 12.1478 12.1632 11.9244 12.1692Z" fill="#A5A8AC"/>
</g>
</svg>
