<svg width="20" height="21" viewBox="0 0 20 21" fill="none" xmlns="http://www.w3.org/2000/svg">
<path fill-rule="evenodd" clip-rule="evenodd" d="M16.1818 3.36364H5.81818C5.56714 3.36364 5.36364 3.56714 5.36364 3.81818V17.1818C5.36364 17.4329 5.56714 17.6364 5.81818 17.6364H16.1818C16.4329 17.6364 16.6364 17.4329 16.6364 17.1818V3.81818C16.6364 3.56714 16.4329 3.36364 16.1818 3.36364ZM5.81818 2C4.81403 2 4 2.81403 4 3.81818V4.68146H2V6.0451H4V9.68146H2V11.0451H4V14.6815H2V16.0451H4V17.1818C4 18.186 4.81403 19 5.81818 19H16.1818C17.186 19 18 18.186 18 17.1818V3.81818C18 2.81403 17.186 2 16.1818 2H5.81818ZM12.762 6.225C12.242 5.757 11.566 5.536 10.721 5.536C9.772 5.536 9.018 5.809 8.472 6.368C7.926 6.914 7.64 7.655 7.64 8.604H9.018C9.018 8.032 9.135 7.577 9.369 7.265C9.642 6.901 10.071 6.719 10.643 6.719C11.111 6.719 11.475 6.849 11.735 7.109C11.995 7.369 12.125 7.72 12.125 8.175C12.125 8.513 11.995 8.825 11.761 9.124C11.6845 9.21009 11.5164 9.36657 11.2673 9.59862C11.1778 9.68193 11.0779 9.77497 10.968 9.878C10.552 10.242 10.253 10.606 10.071 10.957C9.889 11.321 9.811 11.737 9.811 12.218V12.439H11.202V12.218C11.202 11.893 11.267 11.607 11.41 11.347C11.527 11.113 11.709 10.892 11.943 10.684C12.567 10.151 12.931 9.813 13.048 9.67C13.36 9.254 13.529 8.721 13.529 8.084C13.529 7.304 13.269 6.68 12.762 6.225ZM11.189 13.401C11.007 13.219 10.773 13.141 10.5 13.141C10.24 13.141 10.019 13.219 9.837 13.401C9.642 13.57 9.551 13.791 9.551 14.064C9.551 14.324 9.642 14.545 9.837 14.727C10.019 14.909 10.24 15 10.5 15C10.76 15 10.994 14.909 11.189 14.74C11.371 14.558 11.462 14.337 11.462 14.064C11.462 13.791 11.371 13.57 11.189 13.401Z" fill="#9E9E9D"/>
</svg>
