<svg width="13" height="13" viewBox="0 0 13 13" fill="none" xmlns="http://www.w3.org/2000/svg">
<g id="Group 1533213686">
<path id="Icon" d="M3.36407 5.61678L1.96816 7.01268C1.44683 7.53402 1.14703 8.24337 1.15251 8.98888C1.15798 9.73439 1.45123 10.4481 1.9973 10.9773C2.52647 11.5234 3.2403 11.8166 3.98569 11.8221C4.74808 11.8277 5.44065 11.5448 5.96201 11.0234L7.35792 9.6275M9.14093 7.8786L10.5368 6.48269C11.0582 5.96136 11.358 5.252 11.3525 4.5065C11.347 3.76099 11.0538 3.04731 10.5077 2.5181C9.97865 1.98905 9.26494 1.69579 8.51943 1.69031C7.77393 1.68483 7.06448 1.96762 6.54311 2.48896L5.14721 3.88487M4.13569 8.82717L8.32342 4.63944" stroke="#2B2F33" stroke-width="1.25" stroke-linecap="round" stroke-linejoin="round"/>
</g>
</svg>
