<svg width="28" height="15" viewBox="0 0 28 15" fill="none" xmlns="http://www.w3.org/2000/svg">
<rect width="28" height="15" rx="4" fill="#F04E3F" fill-opacity="0.1"/>
<path d="M4.17 12V4.9H4.99L7.68 9.5L8.45 10.95H8.5C8.46667 10.5967 8.44 10.2333 8.42 9.86C8.4 9.48 8.39 9.11 8.39 8.75V4.9H9.15V12H8.32L5.65 7.4L4.88 5.95H4.83C4.85 6.30333 4.87333 6.66333 4.9 7.03C4.92667 7.39 4.94 7.75 4.94 8.11V12H4.17ZM11.3442 12V4.85H15.4142V5.54H12.1542V7.89H14.8942V8.57H12.1542V11.32H15.5242V12H11.3442ZM18.1703 12L16.6303 4.87H17.4603L18.2403 8.84C18.3136 9.22 18.387 9.6 18.4603 9.98C18.5336 10.3667 18.607 10.7533 18.6803 11.14H18.7203C18.807 10.7533 18.8936 10.3667 18.9803 9.98C19.067 9.6 19.1536 9.22 19.2403 8.84L20.2503 4.87H21.0003L22.0203 8.84C22.1136 9.22 22.2036 9.6 22.2903 9.98C22.377 10.3667 22.4636 10.7533 22.5503 11.14H22.6003C22.667 10.7533 22.737 10.3667 22.8103 9.98C22.877 9.6 22.9436 9.22 23.0103 8.84L23.8103 4.87H24.5703L23.0803 12H22.1103L20.9903 7.56C20.9303 7.28 20.8703 7.01 20.8103 6.75C20.7503 6.49 20.6903 6.22 20.6303 5.94H20.5903C20.537 6.22 20.477 6.49 20.4103 6.75C20.3436 7.01 20.2803 7.28 20.2203 7.56L19.1103 12H18.1703Z" fill="#F04E3F"/>
</svg>
