<svg width="8" height="12" viewBox="0 0 8 12" fill="none" xmlns="http://www.w3.org/2000/svg">
<path d="M0.798719 1.13784C0.735711 1.07655 0.685627 1.00326 0.651428 0.922292C0.61723 0.841322 0.599609 0.754318 0.599609 0.666422C0.599609 0.578526 0.61723 0.491522 0.651428 0.410553C0.685627 0.329583 0.735711 0.25629 0.798719 0.195007C1.06433 -0.0650022 1.49474 -0.0650022 1.76035 0.195007L7.20053 5.52838C7.46614 5.78879 7.46614 6.21121 7.20053 6.47162L1.76035 11.805C1.49474 12.065 1.06433 12.065 0.798719 11.805C0.735711 11.7437 0.685627 11.6704 0.651428 11.5894C0.61723 11.5085 0.599609 11.4215 0.599609 11.3336C0.599609 11.2457 0.61723 11.1587 0.651428 11.0777C0.685627 10.9967 0.735711 10.9234 0.798719 10.8622L5.75808 6L0.798719 1.13784Z" fill="#9FA1A6"/>
</svg>
