<svg width="16" height="16" viewBox="0 0 16 16" fill="none" xmlns="http://www.w3.org/2000/svg">
<path fill-rule="evenodd" clip-rule="evenodd" d="M9.48535 2.40404L3.12139 8.768L5.94982 11.5964L12.3138 5.23246L9.48535 2.40404ZM10.1925 0.989822C9.80193 0.599297 9.16877 0.599297 8.77824 0.989821L1.70718 8.06089C1.31665 8.45141 1.31665 9.08458 1.70718 9.4751L5.24271 13.0106C5.63324 13.4012 6.2664 13.4012 6.65692 13.0106L13.728 5.93957C14.1185 5.54904 14.1185 4.91588 13.728 4.52536L10.1925 0.989822Z" fill="#FFD30F"/>
<path fill-rule="evenodd" clip-rule="evenodd" d="M9.66189 8.59131L6.12635 5.05578L7.18701 3.99512L10.7225 7.53065L9.66189 8.59131Z" fill="#FFD30F"/>
<path d="M1 13.25C1 12.8358 1.33579 12.5 1.75 12.5H14.25C14.6642 12.5 15 12.8358 15 13.25C15 13.6642 14.6642 14 14.25 14H1.75C1.33579 14 1 13.6642 1 13.25Z" fill="#FFD30F"/>
</svg>
