<svg width="16" height="16" viewBox="0 0 16 16" fill="none" xmlns="http://www.w3.org/2000/svg">
<path opacity="0.5" d="M15.7954 7.6549C15.9223 7.72359 16 7.84774 16 7.98175C16 8.11577 15.9223 8.23992 15.7954 8.30861L8.00056 12.5496L0.204637 8.30861C0.0777248 8.23992 0 8.11577 0 7.98175C0 7.84774 0.0777248 7.72359 0.204637 7.6549L1.21327 7.10677L8.00056 10.7975L14.7867 7.10474L15.7954 7.6549Z" fill="#999999"/>
<path opacity="0.5" d="M15.7954 11.233C15.9223 11.3017 16 11.4259 16 11.5599C16 11.6939 15.9223 11.818 15.7954 11.8867L8.43267 15.8912C8.16644 16.0363 7.83356 16.0363 7.56733 15.8912L0.204637 11.8857C0.0777248 11.817 0 11.6929 0 11.5589C0 11.4248 0.0777248 11.3007 0.204637 11.232L1.21327 10.6839L8.00056 14.3757L14.7867 10.6829L15.7954 11.233Z" fill="#999999"/>
<path d="M15.7954 4.11534C15.9218 4.18415 15.9991 4.30802 15.9991 4.44168C15.9991 4.57535 15.9218 4.69922 15.7954 4.76803L8.0006 9.00898L0.204679 4.76803C0.0782965 4.69922 0.000976562 4.57535 0.000976562 4.44168C0.000976562 4.30802 0.0782965 4.18415 0.204679 4.11534L7.56737 0.108874C7.8336 -0.0362912 8.16648 -0.0362912 8.43271 0.108874L15.7954 4.11534Z" fill="#999999"/>
</svg>
