<svg width="20" height="20" viewBox="0 0 20 20" fill="none" xmlns="http://www.w3.org/2000/svg">
<path d="M16.4802 9.38194V6.3074C16.4802 5.73312 16.046 5.08179 15.5068 4.86468L11.6058 3.26788C10.7304 2.91071 9.74287 2.91071 8.86743 3.26788L4.96648 4.86468C4.43422 5.08179 4 5.73312 4 6.3074V9.38194C4 12.8067 6.48624 16.0143 9.88294 16.9527C10.1141 17.0158 10.3662 17.0158 10.5973 16.9527C13.994 16.0143 16.4802 12.8067 16.4802 9.38194ZM10.7654 10.6076V12.4495C10.7654 12.7366 10.5273 12.9747 10.2401 12.9747C9.95298 12.9747 9.71486 12.7366 9.71486 12.4495V10.6076C9.0075 10.3834 8.48924 9.72511 8.48924 8.94772C8.48924 7.98124 9.27364 7.19685 10.2401 7.19685C11.2066 7.19685 11.991 7.98124 11.991 8.94772C11.991 9.73212 11.4727 10.3834 10.7654 10.6076Z" fill=""/>
</svg>
