<svg width="20" height="20" viewBox="0 0 20 20" fill="none" xmlns="http://www.w3.org/2000/svg">
<path d="M9.34452 12.065L8.04757 13.36C7.77416 13.633 7.33951 13.633 7.05909 13.367C6.98197 13.29 6.90486 13.22 6.82774 13.143C6.10566 12.415 5.45368 11.652 4.87181 10.854C4.29695 10.056 3.83425 9.258 3.49775 8.467C3.16825 7.669 3 6.906 3 6.178C3 5.702 3.08413 5.247 3.25238 4.827C3.42063 4.4 3.68703 4.008 4.05859 3.658C4.50726 3.217 4.998 3 5.51678 3C5.71307 3 5.90936 3.042 6.08463 3.126C6.2669 3.21 6.42814 3.336 6.55433 3.518L8.18077 5.807C8.30696 5.982 8.3981 6.143 8.46119 6.297C8.52429 6.444 8.55934 6.591 8.55934 6.724C8.55934 6.892 8.51027 7.06 8.41212 7.221C8.32098 7.382 8.18778 7.55 8.01953 7.718L7.48673 8.271C7.40962 8.348 7.37456 8.439 7.37456 8.551C7.37456 8.607 7.38157 8.656 7.39559 8.712C7.41663 8.768 7.43766 8.81 7.45168 8.852C7.57787 9.083 7.79519 9.384 8.10366 9.748C8.41913 10.112 8.75563 10.483 9.12018 10.854C9.19029 10.924 9.2674 10.994 9.33751 11.064C9.61793 11.337 9.62494 11.785 9.34452 12.065Z" fill=""/>
<path d="M17 14.431C17 14.627 16.9649 14.83 16.8948 15.026C16.8738 15.082 16.8528 15.138 16.8247 15.194C16.7056 15.446 16.5513 15.684 16.348 15.908C16.0045 16.286 15.6259 16.559 15.1983 16.734C15.1913 16.734 15.1843 16.741 15.1773 16.741C14.7636 16.909 14.315 17 13.8312 17C13.1162 17 12.352 16.832 11.5458 16.489C10.7396 16.146 9.9334 15.684 9.1342 15.103C8.86079 14.9 8.58738 14.697 8.32799 14.48L10.6204 12.191C10.8167 12.338 10.992 12.45 11.1392 12.527C11.1743 12.541 11.2163 12.562 11.2654 12.583C11.3215 12.604 11.3776 12.611 11.4407 12.611C11.5598 12.611 11.651 12.569 11.7281 12.492L12.2609 11.967C12.4361 11.792 12.6044 11.659 12.7656 11.575C12.9269 11.477 13.0881 11.428 13.2634 11.428C13.3966 11.428 13.5368 11.456 13.691 11.519C13.8453 11.582 14.0065 11.673 14.1818 11.792L16.5022 13.437C16.6845 13.563 16.8107 13.71 16.8878 13.885C16.9579 14.06 17 14.235 17 14.431Z" fill=""/>
</svg>
