<svg width="16" height="17" viewBox="0 0 16 17" fill="none" xmlns="http://www.w3.org/2000/svg">
<path d="M2 9.01989C2 8.23359 2.63743 7.59616 3.42373 7.59616H6.67797C7.46427 7.59616 8.1017 8.23359 8.1017 9.01989V12.2741C8.1017 13.0604 7.46427 13.6979 6.67797 13.6979H3.42373C2.63743 13.6979 2 13.0604 2 12.2741V9.01989ZM3.42373 8.8165C3.3114 8.8165 3.22034 8.90756 3.22034 9.01989V12.2741C3.22034 12.3865 3.3114 12.4775 3.42373 12.4775H6.67797C6.7903 12.4775 6.88136 12.3865 6.88136 12.2741V9.01989C6.88136 8.90756 6.7903 8.8165 6.67797 8.8165H3.42373Z" fill="#EBB30E"/>
<path d="M7.89844 4.51512C7.89844 3.72882 8.53586 3.09139 9.32217 3.09139H12.5764C13.3627 3.09139 14.0001 3.72882 14.0001 4.51512V7.76936C14.0001 8.55566 13.3627 9.19309 12.5764 9.19309H10.648C10.311 9.19309 10.0378 8.91991 10.0378 8.58292C10.0378 8.24593 10.311 7.97275 10.648 7.97275H12.5764C12.6887 7.97275 12.7798 7.88169 12.7798 7.76936V4.51512C12.7798 4.40279 12.6887 4.31173 12.5764 4.31173H9.32217C9.20984 4.31173 9.11878 4.40279 9.11878 4.51512V5.95878C9.11878 6.29577 8.84559 6.56895 8.50861 6.56895C8.17162 6.56895 7.89844 6.29577 7.89844 5.95878V4.51512Z" fill="#EBB30E"/>
<path d="M4.59831 4.72148C3.99174 4.72148 3.50001 5.21321 3.50001 5.81979V6.1428C3.50001 6.43485 3.26325 6.67161 2.9712 6.67161C2.67914 6.67161 2.44238 6.43485 2.44238 6.1428V5.81979C2.44238 4.6291 3.40763 3.66386 4.59831 3.66386H4.94088C5.23293 3.66386 5.46969 3.90061 5.46969 4.19267C5.46969 4.48473 5.23293 4.72148 4.94088 4.72148H4.59831Z" fill="#EBB30E"/>
<path d="M4.94088 5.1723V3.21161C4.94088 2.99417 5.20377 2.88528 5.35753 3.03903L6.33787 4.01938C6.43319 4.11469 6.43319 4.26923 6.33787 4.36454L5.35753 5.34488C5.20377 5.49864 4.94088 5.38974 4.94088 5.1723Z" fill="#EBB30E"/>
<path d="M11.1916 12.2253V11.8277C11.1916 11.6103 10.9287 11.5014 10.775 11.6551L9.79463 12.6355C9.69932 12.7308 9.69932 12.8853 9.79463 12.9806L10.775 13.961C10.9287 14.1147 11.1916 14.0058 11.1916 13.7884V13.2829H11.2698C12.4605 13.2829 13.4257 12.3177 13.4257 11.127V10.804C13.4257 10.5119 13.189 10.2752 12.8969 10.2752C12.6049 10.2752 12.3681 10.5119 12.3681 10.804V11.127C12.3681 11.7336 11.8764 12.2253 11.2698 12.2253H11.1916Z" fill="#EBB30E"/>
</svg>
