<svg width="8" height="12" viewBox="0 0 8 12" fill="none" xmlns="http://www.w3.org/2000/svg">
<path d="M7.20128 1.13784C7.26429 1.07655 7.31437 1.00326 7.34857 0.922292C7.38277 0.841322 7.40039 0.754318 7.40039 0.666422C7.40039 0.578526 7.38277 0.491522 7.34857 0.410553C7.31437 0.329583 7.26429 0.25629 7.20128 0.195007C6.93567 -0.0650022 6.50526 -0.0650022 6.23965 0.195007L0.799468 5.52838C0.533858 5.78879 0.533858 6.21121 0.799468 6.47162L6.23965 11.805C6.50526 12.065 6.93567 12.065 7.20128 11.805C7.26429 11.7437 7.31437 11.6704 7.34857 11.5894C7.38277 11.5085 7.40039 11.4215 7.40039 11.3336C7.40039 11.2457 7.38277 11.1587 7.34857 11.0777C7.31437 10.9967 7.26429 10.9234 7.20128 10.8622L2.24192 6L7.20128 1.13784Z" fill="#9FA1A6"/>
</svg>
