<svg width="20" height="20" viewBox="0 0 20 20" fill="none" xmlns="http://www.w3.org/2000/svg">
<path d="M14.3012 7.55422V8.97108C14.0043 8.9306 13.667 8.91036 13.2892 8.90361V7.55422C13.2892 5.42892 12.6887 4.01205 9.74699 4.01205C6.8053 4.01205 6.20482 5.42892 6.20482 7.55422V8.90361C5.82699 8.91036 5.48964 8.9306 5.19277 8.97108V7.55422C5.19277 5.59759 5.66506 3 9.74699 3C13.8289 3 14.3012 5.59759 14.3012 7.55422Z" />
<path d="M14.3012 8.97109C14.0043 8.9306 13.667 8.91036 13.2892 8.90361H6.20482C5.82699 8.91036 5.48964 8.9306 5.19277 8.97109C3.47229 9.18024 3 10.0236 3 12.2771V13.6265C3 16.3253 3.6747 17 6.37349 17H13.1205C15.8193 17 16.494 16.3253 16.494 13.6265V12.2771C16.494 10.0236 16.0217 9.18024 14.3012 8.97109ZM7.52723 13.4308C7.39904 13.5523 7.22361 13.6265 7.04819 13.6265C6.96048 13.6265 6.87277 13.6063 6.79181 13.5725C6.7041 13.5388 6.63663 13.4916 6.56916 13.4308C6.44771 13.3027 6.37349 13.1272 6.37349 12.9518C6.37349 12.8641 6.39374 12.7764 6.42747 12.6954C6.46121 12.6145 6.50843 12.5402 6.56916 12.4728C6.63663 12.412 6.7041 12.3648 6.79181 12.3311C7.04145 12.2231 7.33831 12.2839 7.52723 12.4728C7.58795 12.5402 7.63518 12.6145 7.66892 12.6954C7.70265 12.7764 7.72289 12.8641 7.72289 12.9518C7.72289 13.1272 7.64867 13.3027 7.52723 13.4308ZM10.3677 13.2082C10.334 13.2892 10.2867 13.3634 10.226 13.4308C10.0978 13.5523 9.92241 13.6265 9.74699 13.6265C9.56482 13.6265 9.39614 13.5523 9.26795 13.4308C9.20723 13.3634 9.16 13.2892 9.12627 13.2082C9.09253 13.1272 9.07229 13.0395 9.07229 12.9518C9.07229 12.7696 9.14651 12.601 9.26795 12.4728C9.51759 12.2231 9.96964 12.2231 10.226 12.4728C10.3475 12.601 10.4217 12.7696 10.4217 12.9518C10.4217 13.0395 10.4014 13.1272 10.3677 13.2082ZM12.9248 13.4308C12.7966 13.5523 12.6212 13.6265 12.4458 13.6265C12.2704 13.6265 12.0949 13.5523 11.9667 13.4308C11.8453 13.3027 11.7711 13.134 11.7711 12.9518C11.7711 12.7696 11.8453 12.601 11.9667 12.4728C12.2231 12.2231 12.6752 12.2231 12.9248 12.4728C12.9518 12.5065 12.9788 12.5402 13.0058 12.5807C13.0328 12.6145 13.053 12.6549 13.0665 12.6954C13.0867 12.7359 13.1002 12.7764 13.107 12.8169C13.1137 12.8641 13.1205 12.9113 13.1205 12.9518C13.1205 13.1272 13.0463 13.3027 12.9248 13.4308Z"/>
</svg>
