<svg width="30" height="30" viewBox="0 0 30 30" fill="none" xmlns="http://www.w3.org/2000/svg">
<path fill-rule="evenodd" clip-rule="evenodd" d="M6.74986 12.0018C6.74986 7.44543 10.4435 3.75178 14.9999 3.75178C19.5562 3.75178 23.2499 7.44543 23.2499 12.0018V12.097C24.5438 12.43 25.4998 13.6046 25.4998 15.0024V22.5024C25.4998 24.1592 24.1567 25.5024 22.4998 25.5024H7.4998C5.84295 25.5024 4.49981 24.1592 4.49981 22.5024V15.0024C4.49981 13.6045 5.45591 12.4299 6.74986 12.0969V12.0018ZM21.7499 12.0018V12.0024H8.24985V12.0018C8.24985 8.27385 11.2719 5.25178 14.9999 5.25178C18.7278 5.25178 21.7499 8.27385 21.7499 12.0018ZM22.4998 13.5024H7.4998C6.67137 13.5024 5.9998 14.174 5.9998 15.0024V22.5024C5.9998 23.3308 6.67138 24.0024 7.4998 24.0024H22.4998C23.3282 24.0024 23.9998 23.3308 23.9998 22.5024V15.0024C23.9998 14.174 23.3282 13.5024 22.4998 13.5024ZM15.7499 16.5014C15.7499 16.0872 15.4141 15.7514 14.9999 15.7514C14.5857 15.7514 14.2499 16.0872 14.2499 16.5014V21.0014C14.2499 21.4156 14.5857 21.7514 14.9999 21.7514C15.4141 21.7514 15.7499 21.4156 15.7499 21.0014V16.5014Z" fill="#141717"/>
</svg>
