<svg width="21" height="23" viewBox="0 0 21 23" fill="none" xmlns="http://www.w3.org/2000/svg">
<g clip-path="url(#clip0_10633_16755)">
<path d="M20.85 22.65H0V0H14.89L20.89 6L20.85 22.65ZM2 20.65H18.85V6.79004L14.0599 2H2V20.65Z" fill="#FFD30F"/>
<path d="M14.06 2.00004V6.85004H19.59L14.32 1.29004L14.06 2.00004Z" fill="#FFD30F"/>
<path d="M9.82996 14.9897C8.64709 14.9897 7.51268 14.5199 6.67627 13.6835C5.83986 12.8471 5.37 11.7127 5.37 10.5298C5.37 9.34692 5.83986 8.21251 6.67627 7.3761C7.51268 6.53969 8.64709 6.06982 9.82996 6.06982C11.0128 6.06982 12.1472 6.53969 12.9836 7.3761C13.8201 8.21251 14.29 9.34692 14.29 10.5298C14.29 11.7127 13.8201 12.8471 12.9836 13.6835C12.1472 14.5199 11.0128 14.9897 9.82996 14.9897ZM9.82996 8.06982C9.5069 8.06982 9.18701 8.13345 8.88855 8.25708C8.59009 8.38071 8.31889 8.56185 8.09045 8.79028C7.86202 9.01872 7.68088 9.28992 7.55725 9.58838C7.43362 9.88684 7.37 10.2067 7.37 10.5298C7.37 10.8528 7.43362 11.1727 7.55725 11.4712C7.68088 11.7697 7.86202 12.0409 8.09045 12.2693C8.31889 12.4977 8.59009 12.6789 8.88855 12.8025C9.18701 12.9261 9.5069 12.9897 9.82996 12.9897C10.4824 12.9897 11.1081 12.7306 11.5695 12.2693C12.0308 11.8079 12.29 11.1822 12.29 10.5298C12.2874 9.87816 12.0273 9.25398 11.5665 8.79321C11.1058 8.33244 10.4816 8.07246 9.82996 8.06982Z" fill="#FFD30F"/>
<path d="M12.8748 12.0764L11.4835 13.5132L14.8383 16.762L16.2296 15.3252L12.8748 12.0764Z" fill="#FFD30F"/>
</g>
<defs>
<clipPath id="clip0_10633_16755">
<rect width="20.85" height="22.65" fill="white"/>
</clipPath>
</defs>
</svg>
