<svg width="24" height="24" viewBox="0 0 24 24" fill="none" xmlns="http://www.w3.org/2000/svg">
<path d="M18.5565 13.3929C18.5565 12.988 18.419 12.64 18.1356 12.3327L9.84722 4.06028C9.55584 3.7689 9.15123 3.51814 8.66541 3.30738C8.16358 3.09722 7.71865 3 7.31405 3H2.48987C2.08497 3 1.73698 3.15384 1.4456 3.44462C1.15422 3.73541 1.00098 4.08399 1.00098 4.4889V9.29677C1.00098 9.70137 1.0982 10.1626 1.30866 10.6484C1.51911 11.1503 1.75328 11.5377 2.06126 11.8299L10.3491 20.1192C10.6404 20.4106 10.9884 20.5398 11.3933 20.5398C11.7982 20.5398 12.1459 20.4023 12.4536 20.1192L18.1356 14.4369C18.4024 14.1455 18.5565 13.7975 18.5565 13.3929ZM5.75134 7.76756C5.45996 8.05893 5.11197 8.19647 4.70736 8.19647C4.30276 8.19647 3.95447 8.05893 3.66309 7.76756C3.37171 7.47618 3.23417 7.12819 3.23417 6.72328C3.23417 6.31838 3.37171 5.97039 3.66309 5.6793C3.95447 5.38822 4.30246 5.25009 4.70736 5.25009C5.11227 5.25009 5.45996 5.38763 5.75134 5.6793C6.04272 5.97098 6.17225 6.31867 6.17225 6.72328C6.19656 7.13619 6.04272 7.47618 5.75134 7.76756ZM22.5795 12.3244L14.2911 4.06028C13.9997 3.7689 13.5948 3.51814 13.1093 3.30738C12.6074 3.09722 12.1607 3 11.7576 3H9.15183C9.55643 3 10.018 3.09722 10.5035 3.30738C11.0053 3.51814 11.3927 3.75201 11.6853 4.06028L19.9737 12.3244C20.2651 12.632 20.4026 12.98 20.4026 13.3846C20.4026 13.7892 20.2651 14.1375 19.9737 14.4289L14.5419 19.8762C14.7297 20.0683 14.9357 20.2418 15.1569 20.3943C15.3271 20.5075 15.5618 20.5481 15.8369 20.5481C16.2415 20.5481 16.5898 20.4106 16.8972 20.1192L22.5795 14.4209C22.8706 14.1292 23.0004 13.7815 23.0004 13.3766C23.0004 12.9717 22.8628 12.64 22.5795 12.3244Z" fill="#FFD30F"/>
</svg>
