<svg xmlns="http://www.w3.org/2000/svg" width="20" height="21" viewBox="0 0 20 21" fill="none">
<path d="M10 3C5.86523 3 2.5 6.36523 2.5 10.5C2.5 14.6348 5.86523 18 10 18C14.1348 18 17.5 14.6348 17.5 10.5C17.5 6.36523 14.1348 3 10 3ZM10 17.0117C6.41016 17.0117 3.48828 14.0898 3.48828 10.5C3.48828 6.91016 6.41016 3.98828 10 3.98828C13.5898 3.98828 16.5117 6.91016 16.5117 10.5C16.5117 14.0898 13.5898 17.0117 10 17.0117Z" fill="#787D83"/>
<path d="M10.0005 8.52344C9.72705 8.52344 9.50635 8.74414 9.50635 9.01758V13.5C9.50635 13.7734 9.72705 13.9941 10.0005 13.9941C10.2739 13.9941 10.4946 13.7734 10.4946 13.5V9.01758C10.4946 8.74414 10.2739 8.52344 10.0005 8.52344ZM10.0005 7.00781C9.72705 7.00781 9.50635 7.22852 9.50635 7.50195C9.50635 7.77539 9.729 7.99609 10.0005 7.99609C10.2739 7.99609 10.4946 7.77539 10.4946 7.50195C10.4946 7.22852 10.2739 7.00781 10.0005 7.00781Z" fill="#787D83"/>
</svg>