<svg width="24" height="24" viewBox="0 0 24 24" fill="none" xmlns="http://www.w3.org/2000/svg">
<g id="tips">
<path id="Vector" d="M12 3C7.03828 3 3 7.03828 3 12C3 16.9617 7.03828 21 12 21C16.9617 21 21 16.9617 21 12C21 7.03828 16.9617 3 12 3ZM12 19.8141C7.69219 19.8141 4.18594 16.3078 4.18594 12C4.18594 7.69219 7.69219 4.18594 12 4.18594C16.3078 4.18594 19.8141 7.69219 19.8141 12C19.8141 16.3078 16.3078 19.8141 12 19.8141Z" fill="#F0BA30"/>
<path id="Vector_2" d="M12.0002 9.62832C11.6721 9.62832 11.4072 9.89316 11.4072 10.2213V15.6002C11.4072 15.9283 11.6721 16.1932 12.0002 16.1932C12.3283 16.1932 12.5932 15.9283 12.5932 15.6002V10.2213C12.5932 9.89316 12.3283 9.62832 12.0002 9.62832ZM12.0002 7.80957C11.6721 7.80957 11.4072 8.07441 11.4072 8.40254C11.4072 8.73066 11.6744 8.99551 12.0002 8.99551C12.3283 8.99551 12.5932 8.73066 12.5932 8.40254C12.5932 8.07441 12.3283 7.80957 12.0002 7.80957Z" fill="#F0BA30"/>
</g>
</svg>
