<svg width="14" height="14" viewBox="0 0 14 14" fill="none" xmlns="http://www.w3.org/2000/svg">
<g id="icon_add" clip-path="url(#clip0_403_234)">
<path id="Vector" d="M7.43774 6.5625H9.62524C9.88774 6.5625 10.0627 6.7375 10.0627 7C10.0627 7.2625 9.88774 7.4375 9.62524 7.4375H7.43774V9.625C7.43774 9.8875 7.26274 10.0625 7.00024 10.0625C6.73774 10.0625 6.56274 9.8875 6.56274 9.625V7.4375H4.37524C4.11274 7.4375 3.93774 7.2625 3.93774 7C3.93774 6.7375 4.11274 6.5625 4.37524 6.5625H6.56274V4.375C6.56274 4.1125 6.73774 3.9375 7.00024 3.9375C7.26274 3.9375 7.43774 4.1125 7.43774 4.375V6.5625ZM7.00024 13.125C3.63149 13.125 0.875244 10.3687 0.875244 7C0.875244 3.63125 3.63149 0.875 7.00024 0.875C10.369 0.875 13.1252 3.63125 13.1252 7C13.1252 10.3687 10.369 13.125 7.00024 13.125ZM7.00024 12.25C9.88774 12.25 12.2502 9.8875 12.2502 7C12.2502 4.1125 9.88774 1.75 7.00024 1.75C4.11274 1.75 1.75024 4.1125 1.75024 7C1.75024 9.8875 4.11274 12.25 7.00024 12.25Z" fill="#07828B"/>
</g>
<defs>
<clipPath id="clip0_403_234">
<rect width="14" height="14" fill="white"/>
</clipPath>
</defs>
</svg>
