<svg xmlns="http://www.w3.org/2000/svg" width="16" height="16" viewBox="0 0 16 16" fill="none">
<path opacity="0.8" d="M11.3684 5.68408C11.4237 5.68408 11.4785 5.69497 11.5296 5.71613C11.5807 5.73729 11.6271 5.76831 11.6662 5.80741C11.7053 5.8465 11.7363 5.89292 11.7574 5.94401C11.7786 5.99509 11.7895 6.04984 11.7895 6.10513V8.2104H12.6316C12.8549 8.2104 13.0691 8.29912 13.2271 8.45704C13.385 8.61497 13.4737 8.82916 13.4737 9.0525V11.9472C13.4737 12.1535 13.398 12.3526 13.2609 12.5067C13.1238 12.6608 12.935 12.7593 12.7301 12.7835L12.6316 12.7893H11.7895V14.8946C11.7895 14.9932 11.755 15.0886 11.6919 15.1643C11.6288 15.24 11.5412 15.2912 11.4442 15.3089L11.3684 15.3157C11.2568 15.3157 11.1497 15.2713 11.0707 15.1923C10.9918 15.1134 10.9474 15.0063 10.9474 14.8946V12.7893H10.1053C9.88195 12.7893 9.66776 12.7006 9.50983 12.5427C9.35191 12.3848 9.26318 12.1706 9.26318 11.9472V9.0525C9.26318 8.82916 9.35191 8.61497 9.50983 8.45704C9.66776 8.29912 9.88195 8.2104 10.1053 8.2104H10.9474V6.10513C10.9474 5.99346 10.9918 5.88637 11.0707 5.80741C11.1497 5.72844 11.2568 5.68408 11.3684 5.68408Z" fill="#1E8DF9"/>
<path opacity="0.8" d="M4.63163 0C4.7433 0 4.8504 0.0443608 4.92936 0.123323C5.00832 0.202286 5.05268 0.309383 5.05268 0.421053V2.52632H5.89479C6.11813 2.52632 6.33232 2.61504 6.49025 2.77296C6.64817 2.93089 6.73689 3.14508 6.73689 3.36842V12.6316C6.73689 12.8549 6.64817 13.0691 6.49025 13.227C6.33232 13.385 6.11813 13.4737 5.89479 13.4737H5.05268V15.5789C5.05268 15.6906 5.00832 15.7977 4.92936 15.8767C4.8504 15.9556 4.7433 16 4.63163 16C4.51996 16 4.41286 15.9556 4.3339 15.8767C4.25494 15.7977 4.21058 15.6906 4.21058 15.5789V13.4737H3.36847C3.14513 13.4737 2.93094 13.385 2.77301 13.227C2.61509 13.0691 2.52637 12.8549 2.52637 12.6316V3.36842C2.52637 3.14508 2.61509 2.93089 2.77301 2.77296C2.93094 2.61504 3.14513 2.52632 3.36847 2.52632H4.21058V0.421053C4.21058 0.365759 4.22147 0.311007 4.24263 0.259923C4.26379 0.208838 4.2948 0.162422 4.3339 0.123323C4.373 0.0842251 4.41942 0.0532106 4.4705 0.0320507C4.52158 0.0108908 4.57634 -2.0519e-09 4.63163 0Z" fill="#EF454A"/>
</svg>