<svg width="16" height="16" viewBox="0 0 16 16" fill="none" xmlns="http://www.w3.org/2000/svg">
<g id="icon_fan">
<g id="Union">
<path fill-rule="evenodd" clip-rule="evenodd" d="M13.4876 9.23096C13.506 9.18617 13.5153 9.13814 13.5149 9.0897C13.515 9.04143 13.5055 8.99363 13.4871 8.94903C13.4687 8.90442 13.4416 8.86388 13.4075 8.82972C13.3736 8.79553 13.3332 8.7684 13.2887 8.74989C13.2441 8.73137 13.1964 8.72184 13.1482 8.72184C13.1 8.72184 13.0523 8.73137 13.0078 8.74989C12.9633 8.7684 12.9229 8.79553 12.8889 8.82972L11.6629 10.0557V6.54124C11.6629 5.73414 11.3423 4.96009 10.7716 4.38938C10.2009 3.81867 9.42684 3.49805 8.61973 3.49805C8.52455 3.50132 8.43435 3.54144 8.36818 3.60993C8.302 3.67843 8.26501 3.76995 8.26501 3.86519C8.26501 3.96043 8.302 4.05195 8.36818 4.12044C8.43435 4.18893 8.52455 4.22905 8.61973 4.23233C9.23244 4.23233 9.82005 4.47572 10.2533 4.90897C10.6866 5.34222 10.9299 5.92984 10.9299 6.54254V10.0983L9.71398 8.88406C9.68033 8.84822 9.63982 8.8195 9.59486 8.79962C9.5499 8.77974 9.50141 8.76909 9.45225 8.76831C9.4031 8.76754 9.35429 8.77664 9.30872 8.7951C9.26315 8.81355 9.22176 8.84097 9.187 8.87574C9.15224 8.9105 9.12482 8.95189 9.10636 8.99746C9.08791 9.04302 9.0788 9.09183 9.07958 9.14099C9.08035 9.19014 9.091 9.23864 9.11088 9.2836C9.13077 9.32856 9.15949 9.36907 9.19533 9.40271L11.0139 11.2212C11.0481 11.2556 11.0887 11.2828 11.1335 11.3014C11.1782 11.32 11.2262 11.3296 11.2747 11.3296C11.3232 11.3296 11.3712 11.32 11.4159 11.3014C11.4607 11.2828 11.5013 11.2556 11.5355 11.2212L13.4075 9.35054C13.4419 9.31641 13.4691 9.27576 13.4876 9.23096ZM8.65295 13.3903C8.72146 13.3216 8.75999 13.2286 8.76011 13.1316C8.76022 13.0344 8.72181 12.9411 8.65328 12.8721C8.58475 12.8032 8.49169 12.7642 8.39449 12.7638C7.78197 12.7639 7.19449 12.5207 6.76125 12.0877C6.32801 11.6547 6.0845 11.0674 6.08427 10.4549V6.90127L7.29894 8.11507C7.35022 8.16663 7.41569 8.20175 7.487 8.21595C7.55832 8.23015 7.63225 8.22279 7.69936 8.19481C7.76648 8.16682 7.82374 8.11948 7.86384 8.05883C7.90395 7.99817 7.92507 7.92694 7.92453 7.85423C7.92485 7.75654 7.88639 7.66273 7.81759 7.59338L6.00124 5.77442C5.96703 5.74018 5.92635 5.71309 5.88156 5.69473C5.83678 5.67637 5.78879 5.6671 5.74039 5.66747C5.64271 5.66716 5.54889 5.70562 5.47955 5.77442L3.60755 7.64729C3.57336 7.68127 3.54623 7.72167 3.52771 7.76618C3.5092 7.81068 3.49966 7.85841 3.49966 7.90661C3.49966 7.95482 3.5092 8.00254 3.52771 8.04705C3.54623 8.09155 3.57336 8.13196 3.60755 8.16594C3.64153 8.20012 3.68193 8.22726 3.72644 8.24577C3.77094 8.26429 3.81867 8.27382 3.86687 8.27382C3.91507 8.27382 3.9628 8.26429 4.0073 8.24577C4.05181 8.22726 4.09221 8.20012 4.12619 8.16594L5.3513 6.9404V10.4549C5.3513 11.262 5.67192 12.036 6.24263 12.6067C6.81334 13.1774 7.58738 13.498 8.39449 13.498C8.4915 13.4977 8.58443 13.459 8.65295 13.3903Z" fill="white"/>
<path d="M13.5149 9.0897L13.3496 9.0895L13.3496 9.09102L13.5149 9.0897ZM13.4876 9.23096L13.3347 9.16804L13.3347 9.16804L13.4876 9.23096ZM13.4871 8.94903L13.3343 9.01213V9.01213L13.4871 8.94903ZM13.4075 8.82972L13.2903 8.94624L13.2906 8.9465L13.4075 8.82972ZM13.0078 8.74989L12.9443 8.59728L12.9443 8.59728L13.0078 8.74989ZM12.8889 8.82972L13.0058 8.9466L13.0061 8.94624L12.8889 8.82972ZM11.6629 10.0557H11.4976V10.4547L11.7798 10.1726L11.6629 10.0557ZM10.7716 4.38938L10.8885 4.2725V4.2725L10.7716 4.38938ZM8.61973 3.49805V3.33266L8.61405 3.33286L8.61973 3.49805ZM8.61973 4.23233L8.61404 4.39761H8.61973V4.23233ZM10.2533 4.90897L10.1364 5.02585L10.2533 4.90897ZM10.9299 10.0983L10.8132 10.2153L11.0952 10.4969V10.0983H10.9299ZM9.71398 8.88406L9.5934 8.99725L9.59718 9.00103L9.71398 8.88406ZM9.59486 8.79962L9.66172 8.64846L9.66172 8.64846L9.59486 8.79962ZM9.45225 8.76831L9.45486 8.60304H9.45486L9.45225 8.76831ZM9.187 8.87574L9.30388 8.99261L9.30388 8.99261L9.187 8.87574ZM9.07958 9.14099L9.24484 9.13838V9.13837L9.07958 9.14099ZM9.19533 9.40271L9.31226 9.28578L9.30845 9.2822L9.19533 9.40271ZM11.0139 11.2212L11.1309 11.1046L11.1307 11.1044L11.0139 11.2212ZM11.1335 11.3014L11.1969 11.1488H11.1969L11.1335 11.3014ZM11.4159 11.3014L11.4793 11.4541H11.4793L11.4159 11.3014ZM11.5355 11.2212L11.4187 11.1043L11.4185 11.1046L11.5355 11.2212ZM13.4075 9.35054L13.2911 9.23324L13.2907 9.23363L13.4075 9.35054ZM8.76011 13.1316L8.59482 13.1314V13.1314L8.76011 13.1316ZM8.39449 12.7638L8.39527 12.5985H8.39446L8.39449 12.7638ZM6.08427 10.4549H5.91898V10.4549L6.08427 10.4549ZM6.08427 6.90127L6.20111 6.78435L5.91898 6.50243V6.90127H6.08427ZM7.29894 8.11507L7.41614 7.99852L7.41578 7.99815L7.29894 8.11507ZM7.487 8.21595L7.45472 8.37806L7.487 8.21595ZM7.92453 7.85423L7.75924 7.85369L7.75925 7.85545L7.92453 7.85423ZM7.81759 7.59338L7.93493 7.47697L7.93455 7.47659L7.81759 7.59338ZM6.00124 5.77442L6.1182 5.65763L6.11817 5.6576L6.00124 5.77442ZM5.88156 5.69473L5.94427 5.54179L5.94427 5.54179L5.88156 5.69473ZM5.74039 5.66747L5.73985 5.83277L5.74166 5.83276L5.74039 5.66747ZM5.47955 5.77442L5.36313 5.65708L5.36264 5.65757L5.47955 5.77442ZM3.60755 7.64729L3.72406 7.76453L3.72445 7.76414L3.60755 7.64729ZM3.52771 7.76618L3.3751 7.70269L3.3751 7.70269L3.52771 7.76618ZM3.52771 8.04705L3.68032 7.98356L3.52771 8.04705ZM3.60755 8.16594L3.72478 8.04942L3.72406 8.0487L3.60755 8.16594ZM4.0073 8.24577L3.94382 8.09316H3.94382L4.0073 8.24577ZM4.12619 8.16594L4.0093 8.04908L4.00896 8.04942L4.12619 8.16594ZM5.3513 6.9404H5.51658V6.54126L5.2344 6.82354L5.3513 6.9404ZM6.24263 12.6067L6.12575 12.7236H6.12575L6.24263 12.6067ZM8.39449 13.498V13.6633L8.39508 13.6633L8.39449 13.498ZM13.3496 9.09102C13.3499 9.11744 13.3448 9.14362 13.3347 9.16804L13.6404 9.29389C13.6672 9.22872 13.6808 9.15884 13.6802 9.08837L13.3496 9.09102ZM13.3343 9.01213C13.3445 9.03666 13.3497 9.06296 13.3496 9.0895L13.6802 9.08989C13.6803 9.01991 13.6666 8.9506 13.6399 8.88592L13.3343 9.01213ZM13.2906 8.9465C13.3093 8.96529 13.3242 8.98759 13.3343 9.01213L13.6399 8.88592C13.6132 8.82125 13.574 8.76247 13.5245 8.71294L13.2906 8.9465ZM13.2252 8.9025C13.2496 8.91264 13.2717 8.92751 13.2903 8.94624L13.5248 8.7132C13.4754 8.66356 13.4168 8.62416 13.3521 8.59728L13.2252 8.9025ZM13.1482 8.88713C13.1746 8.88713 13.2008 8.89235 13.2252 8.9025L13.3521 8.59728C13.2875 8.57039 13.2182 8.55655 13.1482 8.55655V8.88713ZM13.0713 8.9025C13.0957 8.89235 13.1218 8.88713 13.1482 8.88713V8.55655C13.0782 8.55655 13.0089 8.57039 12.9443 8.59728L13.0713 8.9025ZM13.0061 8.94624C13.0247 8.92751 13.0469 8.91264 13.0713 8.9025L12.9443 8.59728C12.8797 8.62416 12.821 8.66356 12.7717 8.7132L13.0061 8.94624ZM11.7798 10.1726L13.0058 8.9466L12.772 8.71285L11.546 9.93882L11.7798 10.1726ZM11.4976 6.54124V10.0557H11.8282V6.54124H11.4976ZM10.6547 4.50625C11.1944 5.04597 11.4976 5.77797 11.4976 6.54124H11.8282C11.8282 5.6903 11.4902 4.87421 10.8885 4.2725L10.6547 4.50625ZM8.61973 3.66334C9.383 3.66334 10.115 3.96654 10.6547 4.50625L10.8885 4.2725C10.2868 3.67079 9.47067 3.33276 8.61973 3.33276V3.66334ZM8.48705 3.72478C8.52345 3.68711 8.57306 3.66504 8.62542 3.66324L8.61405 3.33286C8.47603 3.33761 8.34526 3.39577 8.24931 3.49508L8.48705 3.72478ZM8.4303 3.86519C8.4303 3.8128 8.45064 3.76246 8.48705 3.72478L8.24931 3.49508C8.15335 3.5944 8.09972 3.72709 8.09972 3.86519H8.4303ZM8.48705 4.00559C8.45064 3.96792 8.4303 3.91757 8.4303 3.86519H8.09972C8.09972 4.00328 8.15335 4.13598 8.24931 4.23529L8.48705 4.00559ZM8.62542 4.06713C8.57306 4.06533 8.52345 4.04327 8.48705 4.00559L8.24931 4.23529C8.34526 4.3346 8.47603 4.39277 8.61405 4.39752L8.62542 4.06713ZM10.3702 4.7921C9.90593 4.32785 9.27628 4.06704 8.61973 4.06704V4.39761C9.1886 4.39761 9.73417 4.6236 10.1364 5.02585L10.3702 4.7921ZM11.0952 6.54254C11.0952 5.886 10.8344 5.25634 10.3702 4.7921L10.1364 5.02585C10.5387 5.4281 10.7647 5.97367 10.7647 6.54254H11.0952ZM11.0952 10.0983V6.54254H10.7647V10.0983H11.0952ZM9.59718 9.00103L10.8132 10.2153L11.0467 9.98134L9.83077 8.7671L9.59718 9.00103ZM9.52801 8.95078C9.55271 8.96171 9.57497 8.97749 9.59346 8.99719L9.83449 8.77094C9.78569 8.71895 9.72693 8.6773 9.66172 8.64846L9.52801 8.95078ZM9.44964 8.93358C9.47665 8.93401 9.5033 8.93986 9.52801 8.95079L9.66172 8.64846C9.59651 8.61961 9.52616 8.60417 9.45486 8.60304L9.44964 8.93358ZM9.37077 8.9483C9.39581 8.93816 9.42263 8.93315 9.44964 8.93358L9.45486 8.60304C9.38357 8.60192 9.31277 8.61513 9.24668 8.6419L9.37077 8.9483ZM9.30388 8.99261C9.32298 8.97351 9.34573 8.95844 9.37077 8.9483L9.24668 8.6419C9.18059 8.66866 9.12054 8.70844 9.07012 8.75886L9.30388 8.99261ZM9.25956 9.0595C9.26971 9.03446 9.28477 9.01171 9.30388 8.99261L9.07012 8.75886C9.0197 8.80928 8.97993 8.86932 8.95316 8.93541L9.25956 9.0595ZM9.24484 9.13837C9.24442 9.11136 9.24942 9.08454 9.25956 9.0595L8.95316 8.93541C8.92639 9.0015 8.91318 9.0723 8.91431 9.1436L9.24484 9.13837ZM9.26205 9.21674C9.25112 9.19204 9.24527 9.16539 9.24484 9.13838L8.91431 9.1436C8.91544 9.2149 8.93088 9.28524 8.95972 9.35046L9.26205 9.21674ZM9.30845 9.2822C9.28876 9.26371 9.27298 9.24145 9.26205 9.21674L8.95972 9.35046C8.98856 9.41567 9.03021 9.47442 9.0822 9.52322L9.30845 9.2822ZM11.1307 11.1044L9.31221 9.28584L9.07845 9.51959L10.897 11.3381L11.1307 11.1044ZM11.1969 11.1488C11.1722 11.1385 11.1498 11.1235 11.1309 11.1046L10.8968 11.3379C10.9463 11.3876 11.0052 11.4271 11.0701 11.4541L11.1969 11.1488ZM11.2747 11.1643C11.248 11.1643 11.2215 11.159 11.1969 11.1488L11.0701 11.4541C11.1349 11.481 11.2045 11.4948 11.2747 11.4948V11.1643ZM11.3525 11.1488C11.3279 11.159 11.3014 11.1643 11.2747 11.1643V11.4948C11.3449 11.4948 11.4145 11.481 11.4793 11.4541L11.3525 11.1488ZM11.4185 11.1046C11.3996 11.1235 11.3772 11.1385 11.3525 11.1488L11.4793 11.4541C11.5442 11.4271 11.6031 11.3877 11.6526 11.3379L11.4185 11.1046ZM13.2907 9.23363L11.4187 11.1043L11.6524 11.3382L13.5244 9.46746L13.2907 9.23363ZM13.3347 9.16804C13.3247 9.19246 13.3098 9.21463 13.2911 9.23324L13.524 9.46785C13.574 9.4182 13.6136 9.35905 13.6404 9.29388L13.3347 9.16804ZM8.59482 13.1314C8.59476 13.1847 8.57358 13.2358 8.53593 13.2735L8.76996 13.507C8.86934 13.4074 8.92523 13.2725 8.9254 13.1318L8.59482 13.1314ZM8.53606 12.9887C8.57375 13.0266 8.59488 13.0779 8.59482 13.1314L8.9254 13.1318C8.92556 12.9908 8.86987 12.8556 8.7705 12.7556L8.53606 12.9887ZM8.39371 12.9291C8.44717 12.9293 8.49836 12.9507 8.53606 12.9887L8.7705 12.7556C8.67114 12.6556 8.53621 12.5991 8.39527 12.5985L8.39371 12.9291ZM6.64441 12.2046C7.10865 12.6686 7.73817 12.9292 8.39452 12.9291L8.39446 12.5985C7.82577 12.5986 7.28033 12.3728 6.8781 11.9708L6.64441 12.2046ZM5.91898 10.4549C5.91923 11.1113 6.18017 11.7406 6.64441 12.2046L6.8781 11.9708C6.47586 11.5688 6.24977 11.0235 6.24956 10.4548L5.91898 10.4549ZM5.91898 6.90127V10.4549H6.24956V6.90127H5.91898ZM7.41578 7.99815L6.20111 6.78435L5.96744 7.01819L7.1821 8.23199L7.41578 7.99815ZM7.51928 8.05385C7.48017 8.04606 7.44426 8.0268 7.41614 7.99852L7.18174 8.23163C7.25617 8.30647 7.3512 8.35744 7.45472 8.37806L7.51928 8.05385ZM7.63575 8.04225C7.59894 8.0576 7.5584 8.06163 7.51928 8.05385L7.45472 8.37806C7.55824 8.39867 7.66555 8.38799 7.76297 8.34737L7.63575 8.04225ZM7.72596 7.96767C7.70397 8.00094 7.67256 8.0269 7.63575 8.04225L7.76297 8.34737C7.8604 8.30675 7.94351 8.23803 8.00172 8.14998L7.72596 7.96767ZM7.75925 7.85545C7.75955 7.89534 7.74796 7.9344 7.72596 7.96767L8.00172 8.14998C8.05993 8.06193 8.0906 7.95855 8.08982 7.853L7.75925 7.85545ZM7.70025 7.70979C7.7382 7.74805 7.75942 7.7998 7.75925 7.85369L8.08982 7.85476C8.09028 7.71328 8.03457 7.57741 7.93493 7.47697L7.70025 7.70979ZM5.88427 5.89121L7.70063 7.71017L7.93455 7.47659L6.1182 5.65763L5.88427 5.89121ZM5.81886 5.84766C5.84335 5.8577 5.8656 5.87252 5.8843 5.89124L6.11817 5.6576C6.06846 5.60784 6.00934 5.56848 5.94427 5.54179L5.81886 5.84766ZM5.74166 5.83276C5.76813 5.83255 5.79437 5.83762 5.81886 5.84766L5.94427 5.54179C5.87919 5.51511 5.80945 5.50165 5.73912 5.50219L5.74166 5.83276ZM5.59596 5.89176C5.63421 5.85381 5.68597 5.83259 5.73985 5.83276L5.74093 5.50219C5.59945 5.50173 5.46357 5.55744 5.36313 5.65708L5.59596 5.89176ZM3.72445 7.76414L5.59645 5.89127L5.36264 5.65757L3.49064 7.53044L3.72445 7.76414ZM3.68032 7.82967C3.69046 7.80528 3.70533 7.78314 3.72406 7.76452L3.49103 7.53005C3.44138 7.5794 3.40199 7.63807 3.3751 7.70269L3.68032 7.82967ZM3.66495 7.90661C3.66495 7.8802 3.67018 7.85405 3.68032 7.82967L3.3751 7.70269C3.34822 7.76732 3.33438 7.83662 3.33438 7.90661H3.66495ZM3.68032 7.98356C3.67018 7.95917 3.66495 7.93302 3.66495 7.90661H3.33438C3.33438 7.97661 3.34822 8.04591 3.3751 8.11053L3.68032 7.98356ZM3.72406 8.0487C3.70533 8.03008 3.69046 8.00794 3.68032 7.98356L3.3751 8.11053C3.40199 8.17516 3.44138 8.23383 3.49103 8.28317L3.72406 8.0487ZM3.78992 8.09316C3.76554 8.08302 3.7434 8.06815 3.72478 8.04942L3.49031 8.28245C3.53965 8.3321 3.59832 8.3715 3.66295 8.39838L3.78992 8.09316ZM3.86687 8.10853C3.84046 8.10853 3.81431 8.10331 3.78992 8.09316L3.66295 8.39838C3.72757 8.42527 3.79688 8.43911 3.86687 8.43911V8.10853ZM3.94382 8.09316C3.91943 8.10331 3.89328 8.10853 3.86687 8.10853V8.43911C3.93686 8.43911 4.00617 8.42527 4.07079 8.39838L3.94382 8.09316ZM4.00896 8.04942C3.99034 8.06815 3.9682 8.08302 3.94382 8.09316L4.07079 8.39838C4.13542 8.3715 4.19409 8.3321 4.24343 8.28245L4.00896 8.04942ZM5.2344 6.82354L4.0093 8.04908L4.24309 8.28279L5.46819 7.05726L5.2344 6.82354ZM5.51658 10.4549V6.9404H5.18601V10.4549H5.51658ZM6.3595 12.4898C5.81979 11.9501 5.51658 11.2181 5.51658 10.4549H5.18601C5.18601 11.3058 5.52404 12.1219 6.12575 12.7236L6.3595 12.4898ZM8.39449 13.3328C7.63122 13.3328 6.89922 13.0296 6.3595 12.4898L6.12575 12.7236C6.72746 13.3253 7.54355 13.6633 8.39449 13.6633V13.3328ZM8.53593 13.2735C8.49828 13.3113 8.44721 13.3326 8.3939 13.3328L8.39508 13.6633C8.53579 13.6628 8.67058 13.6066 8.76996 13.507L8.53593 13.2735Z" fill="white"/>
</g>
</g>
</svg>
