<svg width="20" height="20" viewBox="0 0 20 20" fill="none" xmlns="http://www.w3.org/2000/svg">
<g id="arrow-right-contained-01">
<path id="Icon" d="M10.5539 6.19907C10.7306 5.98693 11.0459 5.95827 11.2581 6.13505C11.4702 6.31184 11.4989 6.62712 11.3221 6.83926L10.5539 6.19907ZM8.17581 9.83375L7.7917 10.1538C7.63718 9.96842 7.63718 9.69908 7.7917 9.51366L8.17581 9.83375ZM11.3221 12.8282C11.4989 13.0404 11.4702 13.3557 11.2581 13.5324C11.0459 13.7092 10.7306 13.6806 10.5539 13.4684L11.3221 12.8282ZM11.3221 6.83926L8.55992 10.1538L7.7917 9.51366L10.5539 6.19907L11.3221 6.83926ZM8.55992 9.51366L11.3221 12.8282L10.5539 13.4684L7.7917 10.1538L8.55992 9.51366ZM10 3C6.13401 3 3 6.13401 3 10H2C2 5.58172 5.58172 2 10 2V3ZM3 10C3 13.866 6.13401 17 10 17V18C5.58172 18 2 14.4183 2 10H3ZM10 17C13.866 17 17 13.866 17 10H18C18 14.4183 14.4183 18 10 18V17ZM17 10C17 6.13401 13.866 3 10 3V2C14.4183 2 18 5.58172 18 10H17Z" fill="#A5A8AC"/>
</g>
</svg>
