<svg width="16" height="16" viewBox="0 0 16 16" fill="none" xmlns="http://www.w3.org/2000/svg">
<g id="icon_search">
<path id="Vector" d="M14.802 13.9213L12.4754 11.5947C14.5764 9.05036 14.4373 5.27775 12.0566 2.89702C10.7919 1.63233 9.13437 1 7.47681 1C5.81924 1 4.1617 1.63233 2.89701 2.89702C0.367664 5.42636 0.367664 9.52725 2.89701 12.0566C4.1617 13.3213 5.81924 13.9536 7.47681 13.9536C8.9396 13.9536 10.4019 13.4604 11.5947 12.4754L13.9212 14.802C14.0429 14.9236 14.2022 14.9844 14.3616 14.9844C14.521 14.9844 14.6804 14.9236 14.802 14.802C15.0452 14.5588 15.0452 14.1645 14.802 13.9213ZM7.47681 12.7081C6.07949 12.7081 4.76581 12.1639 3.77774 11.1759C1.73809 9.1362 1.73809 5.81741 3.77774 3.77775C4.76579 2.7897 6.07948 2.24555 7.47681 2.24555C8.87413 2.24555 10.1878 2.7897 11.1759 3.77775C13.2155 5.81741 13.2155 9.1362 11.1759 11.1759C10.1878 12.1639 8.87413 12.7081 7.47681 12.7081Z" fill="#999999"/>
</g>
</svg>
