<svg width="20" height="20" viewBox="0 0 20 20" fill="none" xmlns="http://www.w3.org/2000/svg">
<path d="M18.5023 17.4016L15.5942 14.4934C18.2204 11.3129 18.0465 6.59719 15.0706 3.62127C13.4898 2.04041 11.4178 1.25 9.34588 1.25C7.27393 1.25 5.202 2.04041 3.62114 3.62127C0.459458 6.78295 0.459458 11.9091 3.62114 15.0707C5.202 16.6516 7.27393 17.442 9.34588 17.442C11.1744 17.442 13.0023 16.8255 14.4933 15.5943L17.4014 18.5025C17.5534 18.6545 17.7527 18.7305 17.9519 18.7305C18.1511 18.7305 18.3503 18.6545 18.5023 18.5025C18.8064 18.1985 18.8064 17.7056 18.5023 17.4016ZM9.34588 15.8851C7.59924 15.8851 5.95713 15.2049 4.72206 13.9698C2.17249 11.4203 2.17249 7.27176 4.72206 4.72219C5.95711 3.48713 7.59922 2.80693 9.34588 2.80693C11.0925 2.80693 12.7347 3.48713 13.9697 4.72219C16.5193 7.27176 16.5193 11.4203 13.9697 13.9698C12.7347 15.2049 11.0925 15.8851 9.34588 15.8851Z" fill="#9FA1A6"/>
</svg>
