<svg width="12" height="12" viewBox="0 0 12 12" fill="none" xmlns="http://www.w3.org/2000/svg">
<path fill-rule="evenodd" clip-rule="evenodd" d="M10.9218 4.85874C9.71217 4.70929 8.77414 3.67637 8.77414 2.42657C8.77414 2.16086 8.8342 1.91983 8.87601 1.77767C8.88784 1.73748 8.89968 1.70034 8.91086 1.66706L7.80478 1.0512C7.66962 1.17818 7.47438 1.34046 7.25224 1.48636C7.01158 1.64443 6.55466 1.90967 6.03076 1.90967C5.5006 1.90967 5.04042 1.63897 4.79812 1.4775C4.57472 1.32863 4.37926 1.16344 4.24441 1.03486L3.08951 1.66762C3.10039 1.69991 3.11184 1.73568 3.12325 1.77426C3.16584 1.91819 3.22586 2.15941 3.22586 2.42658C3.22586 3.67641 2.28779 4.70936 1.07809 4.85877C1.06998 4.90995 1.06085 4.97082 1.05172 5.03813C1.02328 5.24792 1 5.48384 1 5.67334C1 5.86245 1.02327 6.09811 1.05171 6.30774C1.06086 6.37523 1.07001 6.43616 1.07812 6.48728C2.28774 6.6367 3.22586 7.66956 3.22586 8.91924C3.22586 9.21451 3.14884 9.50143 3.0891 9.67959L4.15946 10.2801C4.31395 10.1286 4.52378 9.95225 4.75468 9.79937C4.9999 9.637 5.45263 9.37464 5.96924 9.37464C6.51664 9.37464 6.98793 9.6635 7.23369 9.83401C7.457 9.98894 7.65299 10.161 7.78996 10.2972L8.91089 9.67941C8.89989 9.64681 8.8883 9.61061 8.87674 9.57153C8.83416 9.42761 8.77416 9.1864 8.77416 8.91925C8.77416 7.66961 9.71223 6.63678 10.9218 6.48731C10.93 6.43574 10.9391 6.37478 10.9482 6.30767C10.9767 6.09796 11 5.86237 11 5.67336C11 5.48394 10.9767 5.24808 10.9482 5.03821C10.9392 4.97149 10.93 4.91062 10.9218 4.85874ZM10.8875 6.67946C10.8875 6.67945 10.8877 6.67871 10.8883 6.67732C10.8878 6.67878 10.8876 6.67948 10.8875 6.67946ZM9.61341 10.4341L8.08652 11.2755C7.98982 11.3171 7.88421 11.3392 7.77267 11.3392C7.53388 11.3392 7.3006 11.239 7.14878 11.0728C6.98421 10.8912 6.41288 10.3746 5.96924 10.3746C5.55997 10.3746 5.00264 10.8361 4.79695 11.0584C4.57428 11.3018 4.16245 11.3892 3.85792 11.2552L3.83544 11.245L2.36285 10.4188C2.06513 10.2109 1.9523 9.80461 2.09946 9.47187L2.09949 9.47182C2.10449 9.45999 2.22586 9.17333 2.22586 8.91924C2.22586 8.11934 1.57523 7.46871 0.775329 7.46871H0.724C0.427963 7.46871 0.196805 7.22482 0.125555 6.84775C0.120245 6.82145 0 6.18398 0 5.67334C0 5.16205 0.120245 4.52436 0.125555 4.49784C0.196805 4.121 0.427963 3.87733 0.714683 3.87733H0.775329C1.57523 3.87733 2.22586 3.22672 2.22586 2.42658C2.22586 2.17388 2.10738 1.89227 2.09931 1.87309L2.09905 1.87245C1.95228 1.54163 2.06595 1.13468 2.36454 0.926641L2.38787 0.911789L3.94232 0.0601258C4.24599 -0.0698708 4.65275 0.0183391 4.87627 0.253311C5.03912 0.423599 5.59896 0.909666 6.03076 0.909666C6.457 0.909666 7.0156 0.433156 7.17763 0.266039C7.40154 0.0327715 7.81254 -0.0505777 8.11283 0.0796433L8.13489 0.0904413L9.63589 0.926192C9.93445 1.13507 10.0477 1.54203 9.90012 1.87413L9.89966 1.87523C9.89033 1.89784 9.77414 2.17918 9.77414 2.42657C9.77414 3.22671 10.4248 3.87732 11.2247 3.87732H11.276C11.572 3.87732 11.8032 4.121 11.8745 4.49782C11.8796 4.52434 12 5.16203 12 5.67336C12 6.184 11.8796 6.82146 11.8745 6.84777C11.8032 7.22484 11.5716 7.46872 11.2845 7.46872H11.2247C10.4248 7.46872 9.77416 8.11935 9.77416 8.91925C9.77416 9.1702 9.891 9.44969 9.90053 9.47251L9.90098 9.47359C10.0481 9.80463 9.93445 10.2109 9.63589 10.4196L9.61341 10.4341ZM1.11241 6.67924C1.11239 6.67926 1.11212 6.67857 1.11167 6.67711L1.11241 6.67924ZM1.11252 4.6661C1.11254 4.66612 1.11232 4.66686 1.11176 4.66825C1.11221 4.66677 1.11249 4.66607 1.11252 4.6661ZM10.8884 4.66885C10.8879 4.66746 10.8877 4.66673 10.8877 4.66672L10.8884 4.66885Z" fill="#EBB30E"/>
<path fill-rule="evenodd" clip-rule="evenodd" d="M5.97352 4.53027C5.34885 4.53027 4.83887 5.04025 4.83887 5.66494C4.83887 6.28964 5.34867 6.7994 5.97352 6.7994C6.59839 6.7994 7.10819 6.28964 7.10819 5.66494C7.10819 5.04026 6.59821 4.53027 5.97352 4.53027ZM3.83887 5.66494C3.83887 4.48797 4.79655 3.53027 5.97352 3.53027C7.15049 3.53027 8.10819 4.48797 8.10819 5.66494C8.10819 6.84211 7.15049 7.7994 5.97352 7.7994C4.79657 7.7994 3.83887 6.84211 3.83887 5.66494Z" fill="#EBB30E"/>
</svg>
