<svg width="12" height="12" viewBox="0 0 12 12" fill="none" xmlns="http://www.w3.org/2000/svg">
<path fill-rule="evenodd" clip-rule="evenodd" d="M10.9218 5.18809C9.71217 5.03864 8.77414 4.00571 8.77414 2.75591C8.77414 2.4902 8.8342 2.24918 8.87601 2.10702C8.88784 2.06682 8.89968 2.02969 8.91086 1.99641L7.80478 1.38055C7.66962 1.50753 7.47438 1.66981 7.25224 1.81571C7.01158 1.97377 6.55466 2.23901 6.03076 2.23901C5.5006 2.23901 5.04042 1.96831 4.79812 1.80685C4.57472 1.65798 4.37926 1.49278 4.24441 1.36421L3.08951 1.99697C3.10039 2.02926 3.11184 2.06503 3.12325 2.1036C3.16584 2.24754 3.22586 2.48876 3.22586 2.75593C3.22586 4.00575 2.28779 5.0387 1.07809 5.18812C1.06998 5.23929 1.06085 5.30016 1.05172 5.36748C1.02328 5.57726 1 5.81319 1 6.00269C1 6.1918 1.02327 6.42746 1.05171 6.63709C1.06086 6.70457 1.07001 6.76551 1.07812 6.81663C2.28774 6.96605 3.22586 7.99891 3.22586 9.24858C3.22586 9.54385 3.14884 9.83077 3.0891 10.0089L4.15946 10.6095C4.31395 10.4579 4.52378 10.2816 4.75468 10.1287C4.9999 9.96635 5.45263 9.70399 5.96924 9.70399C6.51664 9.70399 6.98793 9.99285 7.23369 10.1634C7.457 10.3183 7.65299 10.4903 7.78996 10.6265L8.91089 10.0088C8.89989 9.97615 8.8883 9.93996 8.87674 9.90087C8.83416 9.75696 8.77416 9.51575 8.77416 9.2486C8.77416 7.99895 9.71223 6.96612 10.9218 6.81665C10.93 6.76509 10.9391 6.70413 10.9482 6.63702C10.9767 6.4273 11 6.19171 11 6.0027C11 5.81328 10.9767 5.57742 10.9482 5.36755C10.9392 5.30084 10.93 5.23996 10.9218 5.18809ZM10.8875 7.00881C10.8875 7.00879 10.8877 7.00806 10.8883 7.00667C10.8878 7.00813 10.8876 7.00882 10.8875 7.00881ZM9.61341 10.7634L8.08652 11.6049C7.98982 11.6464 7.88421 11.6685 7.77267 11.6685C7.53388 11.6685 7.3006 11.5684 7.14878 11.4021C6.98421 11.2206 6.41288 10.704 5.96924 10.704C5.55997 10.704 5.00264 11.1655 4.79695 11.3877C4.57428 11.6312 4.16245 11.7185 3.85792 11.5845L3.83544 11.5743L2.36285 10.7481C2.06513 10.5403 1.9523 10.134 2.09946 9.80122L2.09949 9.80117C2.10449 9.78933 2.22586 9.50268 2.22586 9.24858C2.22586 8.44868 1.57523 7.79805 0.775329 7.79805H0.724C0.427963 7.79805 0.196805 7.55417 0.125555 7.1771C0.120245 7.15079 0 6.51333 0 6.00269C0 5.49139 0.120245 4.8537 0.125555 4.82718C0.196805 4.45034 0.427963 4.20668 0.714683 4.20668H0.775329C1.57523 4.20668 2.22586 3.55607 2.22586 2.75593C2.22586 2.50322 2.10738 2.22162 2.09931 2.20244L2.09905 2.2018C1.95228 1.87097 2.06595 1.46402 2.36454 1.25599L2.38787 1.24114L3.94232 0.389472C4.24599 0.259475 4.65275 0.347685 4.87627 0.582657C5.03912 0.752945 5.59896 1.23901 6.03076 1.23901C6.457 1.23901 7.0156 0.762502 7.17763 0.595384C7.40154 0.362117 7.81254 0.278768 8.11283 0.408989L8.13489 0.419787L9.63589 1.25554C9.93445 1.46441 10.0477 1.87138 9.90012 2.20347L9.89966 2.20458C9.89033 2.22718 9.77414 2.50852 9.77414 2.75591C9.77414 3.55605 10.4248 4.20666 11.2247 4.20666H11.276C11.572 4.20666 11.8032 4.45034 11.8745 4.82717C11.8796 4.85369 12 5.49138 12 6.0027C12 6.51334 11.8796 7.15081 11.8745 7.17711C11.8032 7.55418 11.5716 7.79807 11.2845 7.79807H11.2247C10.4248 7.79807 9.77416 8.4487 9.77416 9.2486C9.77416 9.49955 9.891 9.77904 9.90053 9.80185L9.90098 9.80294C10.0481 10.134 9.93445 10.5403 9.63589 10.7489L9.61341 10.7634ZM1.11241 7.00858C1.11239 7.0086 1.11212 7.00791 1.11167 7.00645L1.11241 7.00858ZM1.11252 4.99544C1.11254 4.99546 1.11232 4.9962 1.11176 4.99759C1.11221 4.99612 1.11249 4.99542 1.11252 4.99544ZM10.8884 4.99819C10.8879 4.99681 10.8877 4.99608 10.8877 4.99607L10.8884 4.99819Z" fill="#9E9E9D"/>
<path fill-rule="evenodd" clip-rule="evenodd" d="M5.97352 4.85962C5.34885 4.85962 4.83887 5.3696 4.83887 5.99429C4.83887 6.61899 5.34867 7.12875 5.97352 7.12875C6.59839 7.12875 7.10819 6.61898 7.10819 5.99429C7.10819 5.3696 6.59821 4.85962 5.97352 4.85962ZM3.83887 5.99429C3.83887 4.81732 4.79655 3.85962 5.97352 3.85962C7.15049 3.85962 8.10819 4.81732 8.10819 5.99429C8.10819 7.17145 7.15049 8.12875 5.97352 8.12875C4.79657 8.12875 3.83887 7.17145 3.83887 5.99429Z" fill="#9E9E9D"/>
</svg>
