<svg width="18" height="19" viewBox="0 0 18 19" fill="none" xmlns="http://www.w3.org/2000/svg">
<rect y="0.5" width="18" height="18" rx="3" fill="#F5F5F3"/>
<path fill-rule="evenodd" clip-rule="evenodd" d="M5.25008 5.74996H10.2501V7.83333H11.0834V5.74996C11.0834 5.28972 10.7103 4.91663 10.2501 4.91663H5.25008C4.78984 4.91663 4.41675 5.28972 4.41675 5.74996V10.75C4.41675 11.2102 4.78984 11.5833 5.25008 11.5833H7.33333V10.75H5.25008L5.25008 5.74996Z" fill="#C5C5C4"/>
<path d="M7.33341 8.24996C7.33341 8.01984 7.51996 7.83329 7.75008 7.83329H12.7501C12.9802 7.83329 13.1667 8.01984 13.1667 8.24996V13.25C13.1667 13.4801 12.9802 13.6666 12.7501 13.6666H7.75008C7.51996 13.6666 7.33341 13.4801 7.33341 13.25V8.24996Z" stroke="#C5C5C4" stroke-width="0.833333"/>
</svg>
