<svg width="10" height="10" viewBox="0 0 10 10" fill="none" xmlns="http://www.w3.org/2000/svg">
<g id="&#230;&#142;&#146;&#229;&#186;&#143;&#227;&#128;&#129;&#230;&#142;&#146;&#232;&#161;&#140; 1">
<path id="Vector" d="M2.22727 4.40898H7.72727C7.77273 4.40898 7.86364 4.40898 7.90909 4.36353C7.95455 4.27262 8 4.22716 8 4.13625C8 4.0908 7.90909 3.99989 7.81818 3.90898C7.81818 3.90898 6.22727 2.40898 5.27273 1.45443C5.27273 1.45443 5.18182 1.36353 5 1.36353C4.90909 1.36353 4.81818 1.36353 4.68182 1.49989L2.09091 3.99989C2.04545 4.04534 2 4.13625 2 4.18171C2 4.27262 2.09091 4.40898 2.22727 4.40898ZM7.77273 5.5908H2.27273C2.22727 5.5908 2.13636 5.63625 2.09091 5.63625C2.04545 5.72716 2 5.77262 2 5.86353C2 5.90898 2.09091 5.99989 2.18182 6.0908C2.18182 6.0908 3.77273 7.5908 4.72727 8.54534C4.72727 8.54534 4.81818 8.63625 5 8.63625C5.09091 8.63625 5.18182 8.63625 5.31818 8.49989L7.90909 5.99989C7.95455 5.95443 8 5.86353 8 5.81807C8 5.72716 7.90909 5.5908 7.77273 5.5908Z" fill="#A5A8AC"/>
</g>
</svg>
