<svg width="10" height="10" viewBox="0 0 10 10" fill="none" xmlns="http://www.w3.org/2000/svg">
<g id="&#230;&#142;&#146;&#229;&#186;&#143;&#227;&#128;&#129;&#230;&#142;&#146;&#232;&#161;&#140; 2">
<path id="Vector" d="M2.22727 4.40898H7.72727C7.77273 4.40898 7.86364 4.40898 7.90909 4.36353C7.95455 4.27262 8 4.22716 8 4.13625C8 4.0908 7.90909 3.99989 7.81818 3.90898C7.81818 3.90898 6.22727 2.40898 5.27273 1.45443C5.27273 1.45443 5.18182 1.36353 5 1.36353C4.90909 1.36353 4.81818 1.36353 4.68182 1.49989L2.09091 3.99989C2.04545 4.04534 2 4.13625 2 4.18171C2 4.27262 2.09091 4.40898 2.22727 4.40898Z" fill="#A5A8AC"/>
<path id="Vector_2" d="M7.77273 5.59082H2.27273C2.22727 5.59082 2.13636 5.63627 2.09091 5.63627C2.04545 5.72718 2 5.77264 2 5.86355C2 5.909 2.09091 5.99991 2.18182 6.09082C2.18182 6.09082 3.77273 7.59082 4.72727 8.54537C4.72727 8.54537 4.81818 8.63627 5 8.63627C5.09091 8.63627 5.18182 8.63627 5.31818 8.49991L7.90909 5.99991C7.95455 5.95446 8 5.86355 8 5.81809C8 5.72718 7.90909 5.59082 7.77273 5.59082Z" fill="#07828B"/>
</g>
</svg>
