<svg width="12" height="12" viewBox="0 0 12 12" fill="none" xmlns="http://www.w3.org/2000/svg">
<path fill-rule="evenodd" clip-rule="evenodd" d="M12 6C12 9.31371 9.31371 12 6 12C2.68629 12 0 9.31371 0 6C0 2.68629 2.68629 0 6 0C9.31371 0 12 2.68629 12 6ZM6 5.25C6.41421 5.25 6.75 5.58579 6.75 6V9C6.75 9.41421 6.41421 9.75 6 9.75C5.58579 9.75 5.25 9.41421 5.25 9V6C5.25 5.58579 5.58579 5.25 6 5.25ZM6.75 3C6.75 2.58579 6.41421 2.25 6 2.25C5.58579 2.25 5.25 2.58579 5.25 3V3.5C5.25 3.91421 5.58579 4.25 6 4.25C6.41421 4.25 6.75 3.91421 6.75 3.5V3Z" fill="#FFD30F"/>
</svg>
