<svg width="21" height="20" viewBox="0 0 21 20" fill="none" xmlns="http://www.w3.org/2000/svg">
<path d="M10.2989 2.88469C10.3865 2.68548 10.6691 2.68547 10.7566 2.88469L12.4581 6.7559C12.7182 7.34765 13.2833 7.74784 13.9278 7.79674L18.2411 8.12397C18.4666 8.14108 18.5553 8.42503 18.3796 8.56746L15.1765 11.1639C14.6472 11.593 14.415 12.2904 14.5816 12.9511L15.5743 16.8891C15.6283 17.1034 15.3981 17.2773 15.2067 17.1667L11.4035 14.9684C10.8617 14.6552 10.1939 14.6552 9.65203 14.9684L5.84883 17.1667C5.65749 17.2773 5.42729 17.1034 5.4813 16.8891L6.47396 12.9511C6.64051 12.2904 6.40838 11.593 5.87903 11.1639L2.67598 8.56746C2.50028 8.42503 2.58897 8.14108 2.8145 8.12397L7.12773 7.79674C7.77226 7.74784 8.33735 7.34765 8.59744 6.7559L10.2989 2.88469Z" stroke="#9E9E9D" stroke-width="1.5"/>
</svg>
