<svg width="14" height="14" viewBox="0 0 14 14" fill="none" xmlns="http://www.w3.org/2000/svg">
<g id="icon_Collect">
<path id="Vector" d="M7.56187 9.87434L9.18313 10.7267C9.25029 10.762 9.32722 10.7742 9.40201 10.7613C9.58983 10.7291 9.71597 10.5508 9.68375 10.363L9.37413 8.55766C9.34103 8.36468 9.35535 8.16655 9.41585 7.98034C9.47635 7.79413 9.58123 7.62543 9.72143 7.48876L11.0331 6.21025C11.0874 6.15728 11.1227 6.08788 11.1337 6.01279C11.1611 5.82421 11.0304 5.64912 10.8418 5.62171L9.02922 5.35833C8.83546 5.33018 8.65145 5.25533 8.49304 5.14025C8.33464 5.02516 8.2066 4.87329 8.11994 4.69771L7.30932 3.05521C7.27574 2.98716 7.22067 2.93208 7.15262 2.8985C6.98173 2.81417 6.77484 2.88433 6.69051 3.05521L5.87989 4.69771C5.79324 4.87329 5.6652 5.02516 5.50679 5.14025C5.34839 5.25533 5.16438 5.33018 4.97062 5.35833L3.15802 5.62172C3.08293 5.63263 3.01352 5.66799 2.96055 5.72232C2.82754 5.85879 2.83034 6.07724 2.9668 6.21025L4.27841 7.48876C4.41862 7.62543 4.52349 7.79413 4.58399 7.98035C4.6445 8.16656 4.65882 8.36469 4.62572 8.55767L4.31609 10.363C4.30327 10.4377 4.31545 10.5147 4.35076 10.5818C4.43943 10.7505 4.64805 10.8154 4.81672 10.7267L6.43797 9.87434C6.61127 9.78323 6.80413 9.73562 6.99993 9.73562C7.19573 9.73562 7.38859 9.78323 7.56189 9.87434H7.56187ZM6.83936 10.6378L5.2181 11.4902C4.62777 11.8006 3.89761 11.5736 3.58725 10.9832C3.46366 10.7482 3.42101 10.4789 3.4659 10.2171L3.77554 8.41185C3.785 8.35671 3.7809 8.3001 3.76361 8.2469C3.74633 8.1937 3.71636 8.1455 3.6763 8.10645L2.36469 6.82793C1.88709 6.36239 1.87732 5.59782 2.34285 5.12022C2.52824 4.93003 2.77115 4.80627 3.03397 4.76808L4.84658 4.50469C4.90194 4.49665 4.95451 4.47526 4.99977 4.44238C5.04502 4.4095 5.08161 4.36611 5.10637 4.31595L5.917 2.67345C6.21216 2.07536 6.93629 1.8298 7.53437 2.12498C7.77253 2.24252 7.9653 2.43529 8.08284 2.67345L8.89346 4.31595C8.91822 4.36611 8.9548 4.4095 9.00006 4.44238C9.04532 4.47526 9.09789 4.49665 9.15325 4.50469L10.9659 4.76808C11.6259 4.86399 12.0832 5.47679 11.9873 6.13681C11.9491 6.39964 11.8253 6.64255 11.6351 6.82793L10.3235 8.10645C10.2835 8.1455 10.2535 8.1937 10.2362 8.2469C10.2189 8.3001 10.2148 8.35671 10.2243 8.41185L10.5339 10.2171C10.6467 10.8745 10.2052 11.4988 9.54783 11.6115C9.28607 11.6564 9.0168 11.6138 8.78172 11.4902L7.16048 10.6378C7.11097 10.6118 7.05587 10.5982 6.99992 10.5982C6.94398 10.5982 6.88888 10.6118 6.83936 10.6378Z" fill="#787D83"/>
</g>
</svg>
