<svg width="24" height="24" viewBox="0 0 24 24" fill="none" xmlns="http://www.w3.org/2000/svg">
<path d="M7.85174 21.4834C7.00998 22.0064 5.90921 21.7359 5.39796 20.8844C5.15559 20.4801 5.08027 19.9973 5.18795 19.5384L6.27747 14.8921C6.29044 14.838 6.28853 14.7814 6.27194 14.7283C6.25534 14.6752 6.22469 14.6276 6.18322 14.5906L2.61692 11.483C1.87616 10.838 1.79066 9.70999 2.42392 8.95798C2.5746 8.77857 2.75933 8.63078 2.96745 8.52316C3.17556 8.41555 3.40293 8.35022 3.63643 8.33097L8.31675 7.94971C8.41875 7.94121 8.51 7.87396 8.55175 7.77171L10.355 3.3614C10.7308 2.44264 11.7758 2.00389 12.6876 2.38964C13.1224 2.57444 13.4664 2.92379 13.6446 3.3614L15.4478 7.77146C15.4896 7.87396 15.5808 7.94146 15.6828 7.94971L20.3637 8.33122C21.3452 8.41122 22.0719 9.27948 21.9942 10.2652C21.9577 10.7357 21.7382 11.173 21.3829 11.4835L17.8166 14.5911C17.7336 14.6633 17.6961 14.7803 17.7224 14.8923L18.8119 19.5386C19.0374 20.4999 18.4519 21.4684 17.4961 21.7001C17.2683 21.7554 17.0317 21.7648 16.8002 21.7276C16.5687 21.6904 16.3469 21.6075 16.1479 21.4836L12.1405 18.9936C12.0984 18.9671 12.0496 18.9531 11.9998 18.9531C11.95 18.9531 11.9012 18.9671 11.859 18.9936L7.85149 21.4836L7.85174 21.4834Z" fill="#07828B"/>
</svg>
