<svg width="24" height="24" viewBox="0 0 24 24" fill="none" xmlns="http://www.w3.org/2000/svg">
<path d="M8.26655 20.5352C7.50897 21.0059 6.51828 20.7625 6.05815 19.9961C5.84002 19.6323 5.77223 19.1977 5.86915 18.7847L6.84971 14.603C6.86139 14.5543 6.85967 14.5034 6.84473 14.4556C6.8298 14.4079 6.80221 14.365 6.76488 14.3317L3.55522 11.5349C2.88853 10.9544 2.81158 9.93916 3.38151 9.26235C3.51713 9.10088 3.68339 8.96788 3.87069 8.87102C4.05799 8.77416 4.26263 8.71537 4.47278 8.69804L8.68506 8.35491C8.77686 8.34726 8.85899 8.28674 8.89656 8.19471L10.5195 4.22543C10.8577 3.39855 11.7982 3.00367 12.6188 3.35085C13.0101 3.51717 13.3198 3.83158 13.4801 4.22543L15.103 8.19449C15.1406 8.28674 15.2227 8.34749 15.3145 8.35491L19.5273 8.69827C20.4106 8.77027 21.0647 9.5517 20.9947 10.4389C20.9619 10.8623 20.7644 11.2559 20.4446 11.5353L17.2349 14.3321C17.1602 14.3971 17.1265 14.5024 17.1501 14.6032L18.1307 18.7849C18.3336 19.6501 17.8067 20.5217 16.9465 20.7303C16.7414 20.7801 16.5285 20.7885 16.3202 20.755C16.1118 20.7216 15.9122 20.6469 15.7331 20.5355L12.1265 18.2944C12.0885 18.2706 12.0446 18.258 11.9998 18.258C11.955 18.258 11.9111 18.2706 11.8731 18.2944L8.26633 20.5355L8.26655 20.5352Z" fill="#07828B"/>
</svg>
