<svg width="24" height="24" viewBox="0 0 24 24" fill="none" xmlns="http://www.w3.org/2000/svg">
<path d="M13.1171 18.132L16.3597 19.8367C16.494 19.9073 16.6479 19.9317 16.7974 19.906C17.1731 19.8416 17.4254 19.4848 17.3609 19.1092L16.7417 15.4986C16.6755 15.1127 16.7041 14.7164 16.8251 14.344C16.9461 13.9716 17.1559 13.6342 17.4363 13.3608L20.0595 10.8038C20.1682 10.6979 20.2389 10.5591 20.2607 10.4089C20.3155 10.0317 20.0542 9.68155 19.6771 9.62673L16.0519 9.09997C15.6643 9.04366 15.2963 8.89397 14.9795 8.6638C14.6627 8.43363 14.4066 8.12987 14.2333 7.77872L12.6121 4.49371C12.5449 4.35762 12.4347 4.24746 12.2987 4.18029C11.9569 4.01163 11.5431 4.15196 11.3744 4.49371L9.7532 7.77872C9.57989 8.12987 9.3238 8.43363 9.00699 8.6638C8.69019 8.89397 8.32216 9.04366 7.93464 9.09997L4.30945 9.62675C4.15927 9.64856 4.02046 9.71928 3.91452 9.82795C3.64849 10.1009 3.65408 10.5378 3.927 10.8038L6.55023 13.3608C6.83064 13.6342 7.04039 13.9716 7.1614 14.344C7.28241 14.7164 7.31105 15.1127 7.24485 15.4986L6.62559 19.1092C6.59994 19.2588 6.62431 19.4127 6.69493 19.547C6.87227 19.8843 7.28951 20.014 7.62685 19.8367L10.8693 18.132C11.216 17.9498 11.6017 17.8545 11.9933 17.8545C12.3849 17.8545 12.7706 17.9498 13.1172 18.132H13.1171ZM11.6721 19.659L8.42962 21.3637C7.24895 21.9844 5.78862 21.5305 5.1679 20.3498C4.92073 19.8796 4.83543 19.3411 4.92521 18.8176L5.54449 15.207C5.5634 15.0967 5.55521 14.9835 5.52064 14.8771C5.48606 14.7707 5.42613 14.6743 5.34601 14.5962L2.72278 12.0392C1.76759 11.1081 1.74806 9.57894 2.67912 8.62373C3.04988 8.24337 3.5357 7.99584 4.06135 7.91947L7.68656 7.39269C7.79728 7.3766 7.90243 7.33383 7.99294 7.26807C8.08346 7.20231 8.15662 7.11552 8.20614 7.01519L9.8274 3.73019C10.4177 2.53402 11.866 2.0429 13.0622 2.63326C13.5385 2.86833 13.924 3.25387 14.1591 3.73019L15.7803 7.01519C15.8298 7.11552 15.903 7.20231 15.9935 7.26807C16.084 7.33383 16.1892 7.3766 16.2999 7.39269L19.9252 7.91947C21.2452 8.11129 22.1598 9.33688 21.968 10.6569C21.8916 11.1826 21.6441 11.6684 21.2637 12.0392L18.6405 14.5962C18.5603 14.6743 18.5004 14.7707 18.4658 14.8771C18.4313 14.9835 18.4231 15.0967 18.442 15.207L19.0613 18.8176C19.2868 20.1323 18.4038 21.3809 17.0891 21.6063C16.5655 21.6961 16.027 21.6108 15.5569 21.3637L12.3144 19.659C12.2153 19.6069 12.1051 19.5797 11.9933 19.5797C11.8814 19.5797 11.7712 19.6069 11.6721 19.659Z" fill="#666666"/>
</svg>
