<svg width="20" height="20" viewBox="0 0 20 20" fill="none" xmlns="http://www.w3.org/2000/svg">
<path d="M9.1123 2.58291C9.46253 1.78607 10.593 1.78607 10.9433 2.58291L12.6447 6.45413C12.7933 6.79227 13.1163 7.02095 13.4846 7.04889L17.7978 7.37612C18.6999 7.44456 19.0547 8.58037 18.3519 9.15008L15.1488 11.7465C14.8463 11.9917 14.7137 12.3902 14.8088 12.7678L15.8015 16.7058C16.0176 17.563 15.0967 18.2584 14.3314 17.816L10.5282 15.6177C10.2186 15.4388 9.83697 15.4388 9.52735 15.6177L5.72415 17.816C4.95881 18.2584 4.03799 17.563 4.25405 16.7058L5.24671 12.7678C5.34188 12.3902 5.20923 11.9917 4.90675 11.7465L1.7037 9.15008C1.00089 8.58037 1.35565 7.44456 2.25776 7.37612L6.571 7.04889C6.9393 7.02095 7.26221 6.79227 7.41083 6.45413L9.1123 2.58291Z" fill="#FFD30F"/>
</svg>
