<svg width="41" height="40" viewBox="0 0 41 40" fill="none" xmlns="http://www.w3.org/2000/svg">
<g id="twitter" clip-path="url(#clip0_5153_651)">
<path id="Vector" d="M0.799805 20C0.799805 25.3043 2.90489 30.3914 6.65195 34.1421C10.399 37.8929 15.4811 40 20.7803 40C26.0794 40 31.1616 37.8929 34.9086 34.1421C38.6557 30.3914 40.7608 25.3043 40.7608 20C40.7608 14.6957 38.6557 9.60859 34.9086 5.85786C31.1616 2.10714 26.0794 0 20.7803 0C15.4811 0 10.399 2.10714 6.65195 5.85786C2.90489 9.60859 0.799805 14.6957 0.799805 20Z" fill="#2B2F33"/>
<path id="Vector_2" d="M8.78552 8.30943C8.77509 8.32509 9.59986 9.4508 10.6124 10.8053C11.6249 12.1607 13.7776 15.0437 15.3959 17.209L18.3377 21.1463L18.1491 21.3603C18.0422 21.4778 15.8791 23.8153 13.3448 26.5565C10.8105 29.302 8.72903 31.5639 8.72381 31.5891C8.71338 31.6143 9.15662 31.6352 9.7928 31.63L10.8766 31.6248L11.2329 31.2324C11.431 31.0184 13.2735 29.0263 15.3298 26.8009C17.3861 24.5756 19.126 22.6896 19.1973 22.6087L19.3242 22.4608L20.3419 23.8257C20.9016 24.5748 22.4433 26.6426 23.767 28.4156L26.1796 31.6352H29.8689C32.9377 31.6352 33.5539 31.6248 33.533 31.5691C33.5173 31.5282 32.5813 30.2651 31.4515 28.7522C30.3217 27.2446 29.0293 25.5126 28.5809 24.9114C28.1281 24.3103 26.7992 22.5226 25.619 20.948C24.4379 19.369 23.4715 18.0545 23.4715 18.0345C23.4715 17.9989 29.7107 11.2185 31.833 8.95145L32.4388 8.30421H31.3246L30.2148 8.30943L28.9172 9.71526C28.2046 10.4895 26.4594 12.3842 25.0341 13.918L22.4538 16.7096L19.3242 12.5226L16.1893 8.33031L12.5 8.30508C10.4698 8.28855 8.79508 8.29377 8.78552 8.30943ZM17.5286 12.8227C18.7349 14.4425 20.5974 16.934 21.6664 18.3651C22.7354 19.7918 25.1062 22.9706 26.9392 25.4203C28.7712 27.8753 30.2878 29.9084 30.313 29.9441C30.3434 29.9902 29.9819 30.0049 28.6643 30.0049H26.98L23.641 25.5326C15.9356 15.2272 12.0481 10.0206 12.002 9.94405C11.9716 9.89795 12.3175 9.88316 13.6455 9.88316H15.3298L17.5286 12.8227Z" fill="white"/>
</g>
<defs>
<clipPath id="clip0_5153_651">
<rect width="40" height="40" fill="white" transform="translate(0.799805)"/>
</clipPath>
</defs>
</svg>
