<svg width="32" height="32" viewBox="0 0 32 32" fill="none" xmlns="http://www.w3.org/2000/svg">
<g id="warning-ring-tips 1" clip-path="url(#clip0_1635_8182)">
<path id="Vector" opacity="0.5" d="M16 32C24.8366 32 32 24.8366 32 16C32 7.16344 24.8366 0 16 0C7.16344 0 0 7.16344 0 16C0 24.8366 7.16344 32 16 32Z" fill="#07828B" fill-opacity="0.2"/>
<path id="Vector_2" d="M15.9996 22.6203C19.6561 22.6203 22.6203 19.6561 22.6203 15.9996C22.6203 12.3431 19.6561 9.37891 15.9996 9.37891C12.3431 9.37891 9.37891 12.3431 9.37891 15.9996C9.37891 19.6561 12.3431 22.6203 15.9996 22.6203Z" fill="white"/>
<path id="Vector_3" fill-rule="evenodd" clip-rule="evenodd" d="M7.72363 15.9995C7.72363 11.4289 11.4289 7.72363 15.9995 7.72363C20.5701 7.72363 24.2754 11.4289 24.2754 15.9995C24.2754 20.5702 20.5701 24.2754 15.9995 24.2754C11.4289 24.2754 7.72363 20.5702 7.72363 15.9995ZM15.9995 17.7927C15.6186 17.7927 15.3099 17.4839 15.3099 17.103V12.1375C15.3099 11.7566 15.6186 11.4478 15.9995 11.4478C16.3804 11.4478 16.6892 11.7566 16.6892 12.1375V17.103C16.6892 17.4839 16.3804 17.7927 15.9995 17.7927ZM15.3099 20.0685C15.3099 20.4494 15.6186 20.7582 15.9995 20.7582C16.3804 20.7582 16.6892 20.4494 16.6892 20.0685V19.4133C16.6892 19.0325 16.3804 18.7237 15.9995 18.7237C15.6186 18.7237 15.3099 19.0325 15.3099 19.4133V20.0685Z" fill="#07828B"/>
</g>
<defs>
<clipPath id="clip0_1635_8182">
<rect width="32" height="32" fill="white"/>
</clipPath>
</defs>
</svg>
