<svg width="16" height="17" viewBox="0 0 16 17" fill="none" xmlns="http://www.w3.org/2000/svg">
<g id="&#230;&#143;&#144;&#231;&#164;&#186; 1">
<path id="Vector" d="M8 2.93164C4.69219 2.93164 2 5.62383 2 8.93164C2 12.2395 4.69219 14.9316 8 14.9316C11.3078 14.9316 14 12.2395 14 8.93164C14 5.62383 11.3078 2.93164 8 2.93164ZM8 14.141C5.12812 14.141 2.79063 11.8035 2.79063 8.93164C2.79063 6.05977 5.12812 3.72227 8 3.72227C10.8719 3.72227 13.2094 6.05977 13.2094 8.93164C13.2094 11.8035 10.8719 14.141 8 14.141Z" fill="#F0BA30"/>
<path id="Vector_2" d="M7.99993 7.35068C7.78118 7.35068 7.60461 7.52725 7.60461 7.746V11.3319C7.60461 11.5507 7.78118 11.7272 7.99993 11.7272C8.21868 11.7272 8.39524 11.5507 8.39524 11.3319V7.746C8.39524 7.52725 8.21868 7.35068 7.99993 7.35068ZM7.99993 6.13818C7.78118 6.13818 7.60461 6.31475 7.60461 6.5335C7.60461 6.75225 7.78274 6.92881 7.99993 6.92881C8.21868 6.92881 8.39524 6.75225 8.39524 6.5335C8.39524 6.31475 8.21868 6.13818 7.99993 6.13818Z" fill="#F0BA30"/>
</g>
</svg>
