<svg width="12" height="13" viewBox="0 0 12 13" fill="none" xmlns="http://www.w3.org/2000/svg">
<path fill-rule="evenodd" clip-rule="evenodd" d="M12 6.5C12 9.81371 9.31371 12.5 6 12.5C2.68629 12.5 0 9.81371 0 6.5C0 3.18629 2.68629 0.5 6 0.5C9.31371 0.5 12 3.18629 12 6.5ZM6 5.75C6.41421 5.75 6.75 6.08579 6.75 6.5V9.5C6.75 9.91421 6.41421 10.25 6 10.25C5.58579 10.25 5.25 9.91421 5.25 9.5V6.5C5.25 6.08579 5.58579 5.75 6 5.75ZM6.75 3.5C6.75 3.08579 6.41421 2.75 6 2.75C5.58579 2.75 5.25 3.08579 5.25 3.5V4C5.25 4.41421 5.58579 4.75 6 4.75C6.41421 4.75 6.75 4.41421 6.75 4V3.5Z" fill="#F04E3F"/>
</svg>
