<svg width="64" height="64" viewBox="0 0 64 64" fill="none" xmlns="http://www.w3.org/2000/svg">
<g clip-path="url(#clip0_954_3515)">
<path d="M61.4941 13.6595C61.4941 13.9918 61.6261 14.3104 61.8611 14.5454C62.0961 14.7804 62.4147 14.9124 62.747 14.9124C63.0793 14.9124 63.398 14.7804 63.6329 14.5454C63.8679 14.3104 63.9999 13.9918 63.9999 13.6595C63.9999 13.3272 63.8679 13.0085 63.6329 12.7736C63.398 12.5386 63.0793 12.4066 62.747 12.4066C62.4147 12.4066 62.0961 12.5386 61.8611 12.7736C61.6261 13.0085 61.4941 13.3272 61.4941 13.6595Z" fill="#07828B" stroke="#07828B" stroke-width="0.5"/>
<path d="M38.1934 51.3348H33.3439C32.6521 51.3348 32.0911 51.8958 32.0911 52.5876C32.0911 53.2795 32.6519 53.8405 33.3439 53.8405H38.1934C38.94 53.8405 39.5475 54.4481 39.5475 55.1948C39.5475 55.9414 38.94 56.5489 38.1934 56.5489H25.1393C23.178 56.5489 21.3336 55.684 20.0791 54.1763L16.9575 50.4239C15.2823 48.4104 12.8448 47.231 10.2366 47.1554V39.7789H14.8351C17.1035 39.7789 19.2515 40.6465 20.8835 42.2219L27.6212 48.7256C28.0963 49.1841 28.1184 49.952 27.6706 50.4374C27.2142 50.9319 26.4392 50.9641 25.9432 50.5095L20.6533 45.6604C20.1432 45.1929 19.3508 45.2273 18.8832 45.7373C18.4157 46.2471 18.4501 47.0396 18.9601 47.5073L24.2501 52.3565C24.9641 53.011 25.8676 53.3341 26.7688 53.3341C27.7749 53.3341 28.7783 52.9313 29.5117 52.1368C30.8761 50.6586 30.8086 48.3196 29.3613 46.9226L22.6237 40.419C20.5222 38.3904 17.7561 37.2732 14.8352 37.2732H10.0109C9.55073 36.1363 8.43573 35.3317 7.13574 35.3317H1.25287C0.560874 35.3318 0 35.8928 0 36.5845V45.7233C0 46.415 0.560874 46.9761 1.25287 46.9761C1.94475 46.9761 2.50575 46.4151 2.50575 45.7233V37.8374H7.13586C7.29368 37.8376 7.44499 37.9003 7.55658 38.0119C7.66818 38.1235 7.73094 38.2748 7.73111 38.4327V48.4495C7.73094 48.6073 7.66818 48.7586 7.55658 48.8702C7.44499 48.9818 7.29368 49.0446 7.13586 49.0448H5.83786C5.14599 49.0448 4.58499 49.6058 4.58499 50.2976C4.58499 50.9895 5.14586 51.5505 5.83786 51.5505H7.13574C8.41848 51.5505 9.52186 50.7675 9.99286 49.6544C11.946 49.6609 13.7813 50.5244 15.0311 52.0265L18.1527 55.7789C19.8847 57.8606 22.4312 59.0546 25.1392 59.0546H38.1934C40.3217 59.0546 42.0532 57.3231 42.0532 55.1948C42.0532 53.0661 40.3217 51.3348 38.1934 51.3348ZM46.0474 42.6563C45.5332 42.1933 44.7409 42.235 44.278 42.7494C44.2729 42.7551 44.2678 42.7609 44.2627 42.7667C43.8052 43.2839 43.8542 44.0718 44.37 44.5308C44.5988 44.7347 44.8947 44.8472 45.2012 44.8468C45.378 44.847 45.5529 44.8097 45.7144 44.7376C45.8759 44.6654 46.0203 44.5599 46.1382 44.428L45.2093 43.5874L46.1405 44.4254C46.6034 43.9112 46.5618 43.119 46.0474 42.6563ZM43.4297 45.3815C43.0227 44.822 42.2343 44.7016 41.6744 45.1089C41.1149 45.5158 40.9912 46.2993 41.398 46.8589C41.5143 47.019 41.6668 47.1492 41.8431 47.2389C42.0194 47.3286 42.2145 47.3752 42.4123 47.3749C42.6768 47.3751 42.9345 47.2911 43.1482 47.1351L43.1583 47.1278C43.7179 46.7209 43.8367 45.941 43.4297 45.3815ZM40.3027 47.4768C40.0195 46.8494 39.2828 46.5691 38.654 46.8463C38.0269 47.1165 37.7305 47.8411 37.9921 48.4745C38.0867 48.704 38.2473 48.9001 38.4535 49.0382C38.6598 49.1762 38.9024 49.2499 39.1505 49.2499C39.3325 49.2498 39.5122 49.2101 39.6772 49.1334C40.3075 48.8488 40.587 48.1075 40.3027 47.4768Z" fill="#07828B" stroke="#07828B" stroke-width="0.5"/>
<path d="M36.8001 48.8729C36.6594 48.1984 35.9999 47.7658 35.3258 47.9005C34.6536 48.0297 34.2083 48.6759 34.3293 49.3517C34.4379 49.9582 34.9658 50.3839 35.5611 50.3839C35.6518 50.3839 35.7424 50.3742 35.8311 50.3549C36.5081 50.2133 36.9412 49.55 36.8001 48.8729ZM50.8508 29.3802L49.6205 29.6166L50.8504 29.378C50.7187 28.6987 50.0612 28.2546 49.3819 28.3867C48.7027 28.5185 48.2589 29.176 48.3907 29.8552L48.3967 29.8852C48.4556 30.1673 48.6097 30.4207 48.8331 30.6028C49.0565 30.7849 49.3357 30.8847 49.6239 30.8856C49.7084 30.8856 49.794 30.877 49.8799 30.859C50.557 30.7175 50.9922 30.0575 50.8508 29.3802ZM49.7062 32.1265C49.0165 32.066 48.409 32.5752 48.3482 33.2643C48.3477 33.2705 48.346 33.2888 48.3457 33.2951C48.2949 33.9851 48.8128 34.5896 49.5029 34.6403C49.5344 34.6427 49.5657 34.6437 49.5968 34.6437C50.2467 34.6437 50.7955 34.1452 50.8439 33.4867L49.5962 33.3745L50.844 33.4846C50.9049 32.7955 50.3954 32.1873 49.7062 32.1265ZM48.0143 39.4426C47.4129 39.1011 46.6455 39.3169 46.3037 39.9179C45.9616 40.5194 46.1717 41.2842 46.7729 41.6264C46.917 41.7085 47.0759 41.7611 47.2405 41.7812C47.405 41.8014 47.5719 41.7887 47.7315 41.7438C47.8911 41.699 48.0402 41.6229 48.1702 41.52C48.3002 41.4171 48.4084 41.2894 48.4887 41.1443C48.8297 40.5427 48.6155 39.7841 48.0143 39.4426ZM49.2483 35.8711C48.5862 35.6699 47.8863 36.0453 47.6858 36.7076C47.4794 37.3679 47.8475 38.0707 48.5079 38.2769C48.629 38.315 48.7551 38.3343 48.882 38.3343C49.4155 38.3343 49.9099 37.9909 50.0774 37.4547L50.0843 37.4324C50.2848 36.7703 49.9105 36.0717 49.2483 35.8711ZM16.2062 35.6853C16.0531 35.0149 15.3877 34.5936 14.715 34.7409C14.0394 34.8901 13.6124 35.5586 13.7615 36.2343L13.7702 36.2719C13.909 36.8448 14.4212 37.2284 14.9857 37.2284C15.0834 37.2284 15.1827 37.2169 15.2819 37.1931C15.9525 37.0308 16.3651 36.3558 16.2062 35.6853ZM16.4841 23.7482C15.8539 23.4636 15.1114 23.7437 14.8267 24.3743L14.812 24.4081C14.5395 25.0437 14.8342 25.7785 15.4699 26.0513C15.6255 26.1184 15.7932 26.153 15.9626 26.1531C16.4474 26.1531 16.9091 25.8697 17.1141 25.3973C17.3926 24.7685 17.112 24.0318 16.4841 23.7482ZM15.1024 27.2558C14.4255 27.1147 13.7612 27.5485 13.6197 28.2258L13.6137 28.2558C13.482 28.9351 13.9252 29.5952 14.6045 29.727C14.6854 29.7426 14.7661 29.7502 14.8455 29.7502C15.4329 29.7502 15.9564 29.3367 16.0724 28.7383C16.2139 28.0611 15.7796 27.3972 15.1024 27.2558ZM18.5632 20.606C18.0025 20.2031 17.2199 20.332 16.8154 20.8916L17.8264 21.6313L16.8132 20.8945C16.4062 21.4541 16.53 22.2376 17.0895 22.6446C17.3031 22.8005 17.5609 22.8844 17.8254 22.8842C18.2126 22.8842 18.5945 22.7053 18.8396 22.3682L18.8531 22.3495C19.2545 21.7876 19.124 21.009 18.5632 20.606ZM21.2817 17.9855C20.8188 17.4712 20.0266 17.4295 19.5124 17.8922L19.502 17.9015C18.9884 18.3647 18.952 19.1522 19.415 19.6662C19.5323 19.7964 19.6757 19.9004 19.8359 19.9713C19.996 20.0423 20.1694 20.0788 20.3446 20.0782C20.6456 20.0782 20.948 19.9712 21.1885 19.7547C21.7027 19.2919 21.7445 18.4997 21.2817 17.9855ZM24.4953 16.0114C24.1576 15.4075 23.3942 15.1917 22.7903 15.5295C22.7821 15.5341 22.7738 15.5388 22.7656 15.5436C22.1661 15.889 21.9586 16.656 22.3041 17.2555C22.4139 17.4465 22.5722 17.6051 22.7629 17.7154C22.9537 17.8257 23.1701 17.8836 23.3905 17.8835C23.6093 17.8835 23.8242 17.8258 24.0136 17.7162C24.6173 17.3786 24.8331 16.6152 24.4953 16.0114ZM28.0485 14.737C27.8357 14.0786 27.1328 13.716 26.4746 13.929L26.841 15.1271L26.4725 13.9296C25.8113 14.1331 25.4401 14.8341 25.6436 15.4955C25.8093 16.0341 26.305 16.3802 26.8406 16.3802C26.9626 16.3802 27.0867 16.3624 27.2095 16.3245L27.2381 16.3155C27.8965 16.1027 28.2612 15.3955 28.0485 14.737ZM31.793 14.2877C31.7322 13.5986 31.1245 13.0896 30.435 13.1499L30.4225 13.151C29.7333 13.2117 29.2301 13.8192 29.2908 14.5085C29.3483 15.1602 29.9007 15.6507 30.5435 15.6507C30.5805 15.6507 30.6176 15.6491 30.6552 15.6459C31.3442 15.5851 31.8537 14.977 31.793 14.2877ZM15.7685 32.1935C15.7482 31.502 15.174 30.9542 14.4792 30.974C13.7876 30.9943 13.2434 31.5675 13.2637 32.259L14.5165 32.2427L13.2637 32.2611C13.2739 32.9466 13.8327 33.4954 14.516 33.4954L14.5347 33.4953C15.2265 33.4852 15.7791 32.9161 15.769 32.2242L15.7685 32.1935ZM33.2892 30.6538H30.7106C29.6605 30.6538 28.8061 29.7995 28.8061 28.7492V27.2495C28.8061 26.1992 29.6605 25.3448 30.7106 25.3448H33.5675C34.4642 25.3448 35.1937 26.0743 35.1937 26.9711C35.1937 27.663 35.7546 28.224 36.4466 28.224C37.1386 28.224 37.6994 27.6631 37.6994 26.9711C37.6994 24.6927 35.8459 22.8392 33.5676 22.8392H33.2527V20.974C33.2527 20.2821 32.6918 19.7211 31.9998 19.7211C31.308 19.7211 30.747 20.282 30.747 20.974V22.8392H30.7105C28.2788 22.8393 26.3005 24.8178 26.3005 27.2496V28.7493C26.3005 31.1812 28.279 33.1596 30.7106 33.1596H32.3157L32.3181 33.1595H33.2891C34.3393 33.1595 35.1937 34.0138 35.1937 35.0641V36.5638C35.1937 37.6141 34.3393 38.4684 33.2891 38.4684H30.4322C29.5355 38.4684 28.8061 37.7389 28.8061 36.8422C28.8061 36.1504 28.2452 35.5893 27.5532 35.5893C26.8613 35.5893 26.3003 36.1503 26.3003 36.8422C26.3003 39.1207 28.1538 40.9741 30.4321 40.9741H30.747V42.8392C30.747 43.5309 31.3078 44.0921 31.9998 44.0921C32.6917 44.0921 33.2527 43.5311 33.2527 42.8392V40.9741H33.2892C35.7211 40.9741 37.6994 38.9956 37.6994 36.5638V35.0641C37.6994 32.6322 35.7209 30.6538 33.2892 30.6538Z" fill="#07828B" stroke="#07828B" stroke-width="0.5"/>
<path d="M62.747 16.493C62.0551 16.493 61.4941 17.0538 61.4941 17.7458V26.1201H56.864C56.7061 26.1199 56.5548 26.0571 56.4432 25.9456C56.3316 25.834 56.2689 25.6827 56.2687 25.5248V15.508C56.2689 15.3502 56.3316 15.1989 56.4432 15.0873C56.5548 14.9757 56.7061 14.9129 56.864 14.9127H58.0703C58.7622 14.9127 59.3232 14.3519 59.3232 13.6599C59.3232 12.968 58.7623 12.407 58.0703 12.407H56.864C55.5652 12.407 54.4511 13.2099 53.9901 14.3452C52.0432 14.3339 50.2147 13.4715 48.9686 11.9736L45.8469 8.22112C44.115 6.13937 41.5686 4.94537 38.8604 4.94537H25.8063C23.678 4.94537 21.9465 6.67687 21.9465 8.80512C21.9465 10.9334 23.678 12.6649 25.8063 12.6649H31.1443C31.8361 12.6649 32.3971 12.104 32.3971 11.412C32.3971 10.7201 31.8363 10.1591 31.1443 10.1591H25.8063C25.0597 10.1591 24.4522 9.55161 24.4522 8.80499C24.4522 8.05837 25.0597 7.45087 25.8063 7.45087H38.8605C40.8219 7.45087 42.6662 8.31574 43.9207 9.82349L47.0425 13.5759C48.7175 15.5894 51.1551 16.7687 53.7632 16.8443V24.2208H49.1647C46.8964 24.2208 44.7484 23.3532 43.1164 21.7778L36.3786 15.2741C35.9035 14.8155 35.8814 14.0476 36.3293 13.5622C36.7856 13.0677 37.5606 13.0355 38.0566 13.4901L43.3465 18.3392C43.8565 18.8067 44.649 18.7725 45.1166 18.2623C45.5841 17.7523 45.5497 16.9598 45.0397 16.4922L39.7499 11.6434C38.2388 10.2582 35.8784 10.3567 34.4881 11.863C33.1238 13.341 33.1913 15.6801 34.6385 17.0771L41.3761 23.5808C43.4776 25.6093 46.2437 26.7267 49.1646 26.7267H54.0056C54.476 27.8413 55.58 28.6256 56.8638 28.6256H62.7468C63.4387 28.6256 63.9997 28.0647 63.9997 27.3727V17.7457C63.9998 17.0539 63.4389 16.493 62.747 16.493Z" fill="#07828B" stroke="#07828B" stroke-width="0.5"/>
<path d="M0 50.298C0 50.6303 0.131999 50.949 0.366958 51.184C0.601917 51.4189 0.92059 51.5509 1.25287 51.5509C1.58516 51.5509 1.90383 51.4189 2.13879 51.184C2.37375 50.949 2.50575 50.6303 2.50575 50.298C2.50575 49.9658 2.37375 49.6471 2.13879 49.4121C1.90383 49.1772 1.58516 49.0452 1.25287 49.0452C0.92059 49.0452 0.601917 49.1772 0.366958 49.4121C0.131999 49.6471 0 49.9658 0 50.298Z" fill="#07828B" stroke="#07828B" stroke-width="0.5"/>
</g>
<defs>
<clipPath id="clip0_954_3515">
<rect width="64" height="64" fill="white"/>
</clipPath>
</defs>
</svg>
