<svg width="64" height="64" viewBox="0 0 64 64" fill="none" xmlns="http://www.w3.org/2000/svg">
<path fill-rule="evenodd" clip-rule="evenodd" d="M57.4 33.7C57.4 32.975 57.8875 32.4875 58.6125 32.4875C59.3375 32.4875 59.825 32.975 59.825 33.7V38.5562C59.825 42.5625 56.55 45.8375 52.5437 45.8375H11.2812C7.275 45.8375 4 42.5625 4 38.5562V14.2812C4 10.275 7.275 7 11.2812 7H52.5437C56.55 7 59.825 10.275 59.825 14.2812C59.825 15.0063 59.3375 15.4938 58.6125 15.4938C57.8875 15.4938 57.4 15.0125 57.4 14.2812C57.4 11.6125 55.2125 9.425 52.5437 9.425H11.2812C8.6125 9.425 6.425 11.6125 6.425 14.2812V38.5562C6.425 41.225 8.6125 43.4125 11.2812 43.4125H52.5437C55.2125 43.4125 57.4 41.225 57.4 38.5562V33.7ZM57.4001 23.9938C57.4001 23.2688 57.8876 22.7813 58.6126 22.7813C59.3376 22.7813 59.8251 23.2625 59.8251 23.9938V28.85C59.8251 29.575 59.3376 30.0625 58.6126 30.0625C57.8876 30.0625 57.4001 29.5813 57.4001 28.85V23.9938ZM57.4001 19.1375C57.4001 18.775 57.5188 18.5313 57.7626 18.2875C58.2438 17.8063 58.9751 17.8063 59.4563 18.1625C59.7001 18.4063 59.8188 18.65 59.8188 19.0125V19.2563C59.7001 19.3813 59.7001 19.3813 59.7001 19.5C59.7001 19.625 59.5813 19.7438 59.5813 19.7438C59.5813 19.8071 59.5509 19.8383 59.5208 19.8692C59.4915 19.8992 59.4626 19.9289 59.4626 19.9875C59.2188 20.2313 58.9751 20.35 58.6126 20.35C58.2501 20.35 58.0063 20.2313 57.7626 19.9875C57.5188 19.7438 57.4001 19.5 57.4001 19.1375ZM10.0626 54.4H53.7563C54.4813 54.4 54.9688 54.8875 54.9688 55.6125C54.9688 56.3375 54.4813 56.825 53.7563 56.825H10.0626C9.3376 56.825 8.8501 56.3375 8.8501 55.6125C8.8501 54.8875 9.3376 54.4 10.0626 54.4ZM46.3501 15.5H50.1126C50.8438 15.5 51.3313 15.9813 51.3251 16.7125C51.3251 17.4375 50.8376 17.925 50.1126 17.925H46.3501C45.7438 19.9938 43.9251 21.5688 41.6188 21.5688C39.3126 21.5688 37.3751 19.9875 36.8876 17.925H13.7063C12.9813 17.925 12.4938 17.4375 12.4938 16.7125C12.4938 15.9875 12.9751 15.5 13.7063 15.5H36.8876C37.4938 13.4313 39.3126 11.8563 41.6188 11.8563C43.9251 11.8563 45.8626 13.4375 46.3501 15.5ZM39.1938 16.7125C39.1938 18.0438 40.2813 19.1375 41.6188 19.1375C42.9563 19.1375 44.0438 18.0438 44.0438 16.7125C44.0438 15.3813 42.9563 14.2875 41.6188 14.2875C40.2876 14.2875 39.1938 15.375 39.1938 16.7125ZM26.9376 25.2063H50.1126C50.8438 25.2063 51.3313 25.6938 51.3313 26.4188C51.3313 27.1438 50.8438 27.6313 50.1188 27.6313H26.9376C26.3313 29.7 24.5126 31.275 22.2063 31.275C19.9001 31.275 17.9626 29.6938 17.4751 27.6313H13.7126C12.9876 27.6313 12.5001 27.15 12.5001 26.4188C12.5001 25.6938 12.9813 25.2063 13.7126 25.2063H17.4751C18.0813 23.1375 19.9001 21.5625 22.2063 21.5625C24.5126 21.5625 26.4501 23.1438 26.9376 25.2063ZM19.7751 26.425C19.7751 27.7563 20.8626 28.85 22.2001 28.85C23.5376 28.85 24.6313 27.7563 24.6251 26.425C24.6251 25.0938 23.5376 24 22.2001 24C20.8688 24 19.7751 25.0875 19.7751 26.425ZM46.3501 34.9188H50.1126C50.8438 34.9188 51.3313 35.4 51.3251 36.1313C51.3251 36.8563 50.8376 37.3438 50.1126 37.3438H46.3501C45.7438 39.4125 43.9251 40.9875 41.6188 40.9875C39.3126 40.9875 37.3751 39.4063 36.8876 37.3438H13.7063C12.9813 37.3438 12.4938 36.8563 12.4938 36.1313C12.4938 35.4063 12.9751 34.9188 13.7063 34.9188H36.8876C37.4938 32.85 39.3126 31.275 41.6188 31.275C43.9251 31.275 45.8626 32.8563 46.3501 34.9188ZM39.1938 36.1313C39.1938 37.4625 40.2813 38.5563 41.6188 38.5563C42.9563 38.5563 44.0438 37.4625 44.0438 36.1313C44.0438 34.8 42.9563 33.7063 41.6188 33.7063C40.2876 33.7063 39.1938 34.7938 39.1938 36.1313Z" fill="#07828B"/>
<path d="M57.7626 18.2875L58.1161 18.6411V18.6411L57.7626 18.2875ZM59.4563 18.1625L59.8099 17.809L59.7837 17.7827L59.7538 17.7606L59.4563 18.1625ZM59.8188 19.2563L60.1813 19.6006L60.3188 19.4559V19.2563H59.8188ZM59.5813 19.7438L59.2278 19.3902L59.0813 19.5367V19.7438H59.5813ZM59.5208 19.8692L59.1628 19.5202L59.1628 19.5202L59.5208 19.8692ZM59.4626 19.9875L59.8162 20.3411L59.9626 20.1946V19.9875H59.4626ZM46.3501 15.5L45.8635 15.615L45.9545 16H46.3501V15.5ZM51.3251 16.7125L50.8251 16.7082V16.7125H51.3251ZM46.3501 17.925V17.425H45.9756L45.8703 17.7844L46.3501 17.925ZM36.8876 17.925L37.3742 17.81L37.2832 17.425H36.8876V17.925ZM36.8876 15.5V16H37.2621L37.3674 15.6406L36.8876 15.5ZM26.9376 25.2063L26.451 25.3213L26.542 25.7063H26.9376V25.2063ZM26.9376 27.6313V27.1313H26.5631L26.4578 27.4907L26.9376 27.6313ZM17.4751 27.6313L17.9617 27.5162L17.8707 27.1313H17.4751V27.6313ZM17.4751 25.2063V25.7063H17.8496L17.9549 25.3469L17.4751 25.2063ZM24.6251 26.425H24.1251L24.1251 26.4274L24.6251 26.425ZM46.3501 34.9188L45.8635 35.0338L45.9545 35.4188H46.3501V34.9188ZM51.3251 36.1313L50.8251 36.127V36.1313H51.3251ZM46.3501 37.3438V36.8438H45.9756L45.8703 37.2032L46.3501 37.3438ZM36.8876 37.3438L37.3742 37.2288L37.2832 36.8438H36.8876V37.3438ZM36.8876 34.9188V35.4188H37.2621L37.3674 35.0594L36.8876 34.9188ZM58.6125 31.9875C58.1353 31.9875 57.699 32.1501 57.3808 32.4683C57.0626 32.7865 56.9 33.2228 56.9 33.7H57.9C57.9 33.4522 57.9811 33.2822 58.0879 33.1754C58.1947 33.0686 58.3647 32.9875 58.6125 32.9875V31.9875ZM60.325 33.7C60.325 33.2228 60.1624 32.7865 59.8442 32.4683C59.526 32.1501 59.0897 31.9875 58.6125 31.9875V32.9875C58.8603 32.9875 59.0303 33.0686 59.1371 33.1754C59.2439 33.2822 59.325 33.4522 59.325 33.7H60.325ZM60.325 38.5562V33.7H59.325V38.5562H60.325ZM52.5437 46.3375C56.8261 46.3375 60.325 42.8386 60.325 38.5562H59.325C59.325 42.2864 56.2739 45.3375 52.5437 45.3375V46.3375ZM11.2812 46.3375H52.5437V45.3375H11.2812V46.3375ZM3.5 38.5562C3.5 42.8386 6.99886 46.3375 11.2812 46.3375V45.3375C7.55114 45.3375 4.5 42.2864 4.5 38.5562H3.5ZM3.5 14.2812V38.5562H4.5V14.2812H3.5ZM11.2812 6.5C6.99886 6.5 3.5 9.99886 3.5 14.2812H4.5C4.5 10.5511 7.55114 7.5 11.2812 7.5V6.5ZM52.5437 6.5H11.2812V7.5H52.5437V6.5ZM60.325 14.2812C60.325 9.99886 56.8261 6.5 52.5437 6.5V7.5C56.2739 7.5 59.325 10.5511 59.325 14.2812H60.325ZM58.6125 15.9938C59.0897 15.9938 59.526 15.8311 59.8442 15.5129C60.1624 15.1947 60.325 14.7585 60.325 14.2812H59.325C59.325 14.529 59.2439 14.699 59.1371 14.8058C59.0303 14.9126 58.8603 14.9938 58.6125 14.9938V15.9938ZM56.9 14.2812C56.9 14.7607 57.0621 15.1977 57.3815 15.5159C57.7006 15.8339 58.1371 15.9938 58.6125 15.9938V14.9938C58.3629 14.9938 58.1932 14.913 58.0873 14.8075C57.9817 14.7023 57.9 14.5331 57.9 14.2812H56.9ZM52.5437 9.925C54.9364 9.925 56.9 11.8886 56.9 14.2812H57.9C57.9 11.3364 55.4886 8.925 52.5437 8.925V9.925ZM11.2812 9.925H52.5437V8.925H11.2812V9.925ZM6.925 14.2812C6.925 11.8886 8.88864 9.925 11.2812 9.925V8.925C8.33636 8.925 5.925 11.3364 5.925 14.2812H6.925ZM6.925 38.5562V14.2812H5.925V38.5562H6.925ZM11.2812 42.9125C8.88864 42.9125 6.925 40.9489 6.925 38.5562H5.925C5.925 41.5011 8.33636 43.9125 11.2812 43.9125V42.9125ZM52.5437 42.9125H11.2812V43.9125H52.5437V42.9125ZM56.9 38.5562C56.9 40.9489 54.9364 42.9125 52.5437 42.9125V43.9125C55.4886 43.9125 57.9 41.5011 57.9 38.5562H56.9ZM56.9 33.7V38.5562H57.9V33.7H56.9ZM58.6126 22.2813C58.1354 22.2813 57.6991 22.4439 57.3809 22.7621C57.0627 23.0803 56.9001 23.5166 56.9001 23.9938H57.9001C57.9001 23.746 57.9812 23.576 58.088 23.4692C58.1948 23.3624 58.3648 23.2813 58.6126 23.2813V22.2813ZM60.3251 23.9938C60.3251 23.5143 60.163 23.0773 59.8436 22.7591C59.5245 22.4412 59.088 22.2813 58.6126 22.2813V23.2813C58.8622 23.2813 59.0319 23.362 59.1378 23.4675C59.2434 23.5727 59.3251 23.7419 59.3251 23.9938H60.3251ZM60.3251 28.85V23.9938H59.3251V28.85H60.3251ZM58.6126 30.5625C59.0898 30.5625 59.5261 30.3999 59.8443 30.0817C60.1625 29.7635 60.3251 29.3272 60.3251 28.85H59.3251C59.3251 29.0978 59.244 29.2678 59.1372 29.3746C59.0304 29.4814 58.8604 29.5625 58.6126 29.5625V30.5625ZM56.9001 28.85C56.9001 29.3294 57.0622 29.7665 57.3816 30.0847C57.7007 30.4026 58.1372 30.5625 58.6126 30.5625V29.5625C58.363 29.5625 58.1933 29.4818 58.0874 29.3763C57.9818 29.2711 57.9001 29.1018 57.9001 28.85H56.9001ZM56.9001 23.9938V28.85H57.9001V23.9938H56.9001ZM57.409 17.934C57.2568 18.0863 57.1241 18.258 57.0323 18.4666C56.9397 18.677 56.9001 18.8991 56.9001 19.1375H57.9001C57.9001 19.0135 57.9199 18.9324 57.9476 18.8693C57.9761 18.8045 58.0247 18.7325 58.1161 18.6411L57.409 17.934ZM59.7538 17.7606C59.0897 17.269 58.0793 17.2637 57.409 17.934L58.1161 18.6411C58.4084 18.3488 58.8605 18.3435 59.1589 18.5644L59.7538 17.7606ZM60.3188 19.0125C60.3188 18.7741 60.2792 18.552 60.1867 18.3416C60.0949 18.133 59.9622 17.9613 59.8099 17.809L59.1028 18.5161C59.1943 18.6075 59.2428 18.6795 59.2713 18.7443C59.2991 18.8074 59.3188 18.8885 59.3188 19.0125H60.3188ZM60.3188 19.2563V19.0125H59.3188V19.2563H60.3188ZM60.2001 19.5C60.2001 19.4838 60.2001 19.4762 60.2002 19.4706C60.2003 19.4653 60.2004 19.4697 60.1995 19.4789C60.1985 19.489 60.1961 19.5072 60.1901 19.53C60.1839 19.5537 60.1753 19.5772 60.1644 19.5995C60.1443 19.6407 60.1235 19.6631 60.1294 19.6562C60.1314 19.6539 60.136 19.6487 60.1454 19.6386C60.1548 19.6286 60.166 19.6168 60.1813 19.6006L59.4563 18.9119C59.4302 18.9394 59.3977 18.9734 59.371 19.0045C59.3434 19.0365 59.3004 19.0898 59.2654 19.1615C59.1898 19.3167 59.2001 19.4759 59.2001 19.5H60.2001ZM59.5813 19.7438C59.9349 20.0973 59.935 20.0972 59.9351 20.0971C59.9351 20.0971 59.9352 20.097 59.9353 20.0969C59.9354 20.0968 59.9355 20.0967 59.9357 20.0966C59.9359 20.0963 59.9362 20.096 59.9365 20.0958C59.937 20.0952 59.9376 20.0946 59.9382 20.094C59.9394 20.0927 59.9408 20.0913 59.9423 20.0898C59.9452 20.0867 59.9487 20.0831 59.9526 20.0789C59.9603 20.0706 59.9699 20.06 59.9807 20.0472C60.002 20.0223 60.0301 19.9867 60.059 19.9428C60.1075 19.8687 60.2001 19.708 60.2001 19.5H59.2001C59.2001 19.4171 59.2333 19.3782 59.2225 19.3948C59.2216 19.3961 59.2201 19.3981 59.2191 19.3993C59.2188 19.3996 59.2191 19.3992 59.2203 19.3979C59.221 19.3972 59.2219 19.3963 59.2231 19.395C59.2237 19.3944 59.2244 19.3937 59.2252 19.3929C59.2256 19.3925 59.226 19.392 59.2264 19.3916C59.2266 19.3914 59.2269 19.3912 59.2271 19.3909C59.2272 19.3908 59.2273 19.3907 59.2274 19.3906C59.2275 19.3905 59.2276 19.3904 59.2276 19.3904C59.2277 19.3903 59.2278 19.3902 59.5813 19.7438ZM59.8789 20.2181C59.9178 20.1782 60.0813 20.0205 60.0813 19.7438H59.0813C59.0813 19.7188 59.0844 19.6886 59.0934 19.6554C59.1024 19.6219 59.1156 19.5923 59.13 19.5675C59.1546 19.5252 59.1838 19.4986 59.1628 19.5202L59.8789 20.2181ZM59.9626 19.9875C59.9626 20.0148 59.9591 20.0469 59.9496 20.0814C59.94 20.1162 59.9262 20.1464 59.9116 20.1713C59.8869 20.2132 59.8578 20.2398 59.8789 20.2181L59.1628 19.5202C59.1286 19.5553 58.9626 19.7127 58.9626 19.9875H59.9626ZM58.6126 20.85C58.851 20.85 59.0731 20.8104 59.2835 20.7178C59.4921 20.6261 59.6639 20.4934 59.8162 20.3411L59.109 19.634C59.0176 19.7254 58.9456 19.774 58.8808 19.8025C58.8177 19.8302 58.7367 19.85 58.6126 19.85V20.85ZM57.409 20.3411C57.5613 20.4934 57.7331 20.6261 57.9417 20.7178C58.1521 20.8104 58.3742 20.85 58.6126 20.85V19.85C58.4885 19.85 58.4075 19.8302 58.3444 19.8025C58.2796 19.774 58.2076 19.7254 58.1161 19.634L57.409 20.3411ZM56.9001 19.1375C56.9001 19.376 56.9397 19.598 57.0323 19.8084C57.1241 20.017 57.2568 20.1888 57.409 20.3411L58.1161 19.634C58.0247 19.5425 57.9761 19.4705 57.9476 19.4057C57.9199 19.3427 57.9001 19.2616 57.9001 19.1375H56.9001ZM53.7563 53.9H10.0626V54.9H53.7563V53.9ZM55.4688 55.6125C55.4688 55.1353 55.3062 54.699 54.988 54.3808C54.6698 54.0626 54.2336 53.9 53.7563 53.9V54.9C54.0041 54.9 54.1741 54.9811 54.2809 55.0879C54.3877 55.1947 54.4688 55.3647 54.4688 55.6125H55.4688ZM53.7563 57.325C54.2336 57.325 54.6698 57.1624 54.988 56.8442C55.3062 56.526 55.4688 56.0897 55.4688 55.6125H54.4688C54.4688 55.8603 54.3877 56.0303 54.2809 56.1371C54.1741 56.2439 54.0041 56.325 53.7563 56.325V57.325ZM10.0626 57.325H53.7563V56.325H10.0626V57.325ZM8.3501 55.6125C8.3501 56.0897 8.51271 56.526 8.83092 56.8442C9.14913 57.1624 9.58539 57.325 10.0626 57.325V56.325C9.81481 56.325 9.64482 56.2439 9.53803 56.1371C9.43124 56.0303 9.3501 55.8603 9.3501 55.6125H8.3501ZM10.0626 53.9C9.58539 53.9 9.14913 54.0626 8.83092 54.3808C8.51271 54.699 8.3501 55.1353 8.3501 55.6125H9.3501C9.3501 55.3647 9.43124 55.1947 9.53803 55.0879C9.64482 54.9811 9.81481 54.9 10.0626 54.9V53.9ZM50.1126 15H46.3501V16H50.1126V15ZM51.8251 16.7168C51.8292 16.2362 51.6689 15.7973 51.3483 15.4778C51.0284 15.1591 50.5898 15 50.1126 15V16C50.3667 16 50.5375 16.0816 50.6425 16.1862C50.7469 16.2902 50.8273 16.4576 50.8251 16.7082L51.8251 16.7168ZM50.1126 18.425C50.5898 18.425 51.0261 18.2624 51.3443 17.9442C51.6625 17.626 51.8251 17.1897 51.8251 16.7125H50.8251C50.8251 16.9603 50.744 17.1303 50.6372 17.2371C50.5304 17.3439 50.3604 17.425 50.1126 17.425V18.425ZM46.3501 18.425H50.1126V17.425H46.3501V18.425ZM41.6188 22.0688C44.1715 22.0688 46.1684 20.323 46.8299 18.0656L45.8703 17.7844C45.3193 19.6645 43.6787 21.0688 41.6188 21.0688V22.0688ZM36.401 18.04C36.9428 20.3321 39.0848 22.0688 41.6188 22.0688V21.0688C39.5404 21.0688 37.8074 19.643 37.3742 17.81L36.401 18.04ZM13.7063 18.425H36.8876V17.425H13.7063V18.425ZM11.9938 16.7125C11.9938 17.1897 12.1565 17.626 12.4747 17.9442C12.7929 18.2624 13.2291 18.425 13.7063 18.425V17.425C13.4586 17.425 13.2886 17.3439 13.1818 17.2371C13.075 17.1303 12.9938 16.9603 12.9938 16.7125H11.9938ZM13.7063 15C13.2269 15 12.7899 15.1621 12.4717 15.4815C12.1537 15.8006 11.9938 16.2371 11.9938 16.7125H12.9938C12.9938 16.4629 13.0746 16.2932 13.1801 16.1873C13.2853 16.0817 13.4545 16 13.7063 16V15ZM36.8876 15H13.7063V16H36.8876V15ZM41.6188 11.3563C39.0662 11.3563 37.0693 13.102 36.4078 15.3594L37.3674 15.6406C37.9184 13.7605 39.559 12.3563 41.6188 12.3563V11.3563ZM46.8367 15.385C46.2949 13.093 44.1529 11.3563 41.6188 11.3563V12.3563C43.6973 12.3563 45.4303 13.7821 45.8635 15.615L46.8367 15.385ZM41.6188 18.6375C40.5583 18.6375 39.6938 17.7685 39.6938 16.7125H38.6938C38.6938 18.3191 40.0044 19.6375 41.6188 19.6375V18.6375ZM43.5438 16.7125C43.5438 17.7685 42.6794 18.6375 41.6188 18.6375V19.6375C43.2333 19.6375 44.5438 18.3191 44.5438 16.7125H43.5438ZM41.6188 14.7875C42.6794 14.7875 43.5438 15.6566 43.5438 16.7125H44.5438C44.5438 15.106 43.2333 13.7875 41.6188 13.7875V14.7875ZM39.6938 16.7125C39.6938 15.652 40.5629 14.7875 41.6188 14.7875V13.7875C40.0123 13.7875 38.6938 15.098 38.6938 16.7125H39.6938ZM50.1126 24.7063H26.9376V25.7063H50.1126V24.7063ZM51.8313 26.4188C51.8313 25.9415 51.6687 25.5048 51.3491 25.1864C51.0296 24.8681 50.5918 24.7063 50.1126 24.7063V25.7063C50.3646 25.7063 50.5362 25.7881 50.6433 25.8948C50.7503 26.0014 50.8313 26.171 50.8313 26.4188H51.8313ZM50.1188 28.1313C50.5961 28.1313 51.0323 27.9687 51.3505 27.6504C51.6687 27.3322 51.8313 26.896 51.8313 26.4188H50.8313C50.8313 26.6666 50.7502 26.8365 50.6434 26.9433C50.5366 27.0501 50.3666 27.1313 50.1188 27.1313V28.1313ZM26.9376 28.1313H50.1188V27.1313H26.9376V28.1313ZM22.2063 31.775C24.759 31.775 26.7559 30.0293 27.4174 27.7719L26.4578 27.4907C25.9068 29.3707 24.2662 30.775 22.2063 30.775V31.775ZM16.9885 27.7463C17.5303 30.0383 19.6723 31.775 22.2063 31.775V30.775C20.1279 30.775 18.3949 29.3492 17.9617 27.5162L16.9885 27.7463ZM13.7126 28.1313H17.4751V27.1313H13.7126V28.1313ZM12.0001 26.4188C12.0001 26.8982 12.1622 27.3352 12.4816 27.6534C12.8007 27.9714 13.2372 28.1313 13.7126 28.1313V27.1313C13.463 27.1313 13.2933 27.0505 13.1874 26.945C13.0818 26.8398 13.0001 26.6706 13.0001 26.4188H12.0001ZM13.7126 24.7063C13.2332 24.7063 12.7961 24.8683 12.4779 25.1877C12.16 25.5068 12.0001 25.9434 12.0001 26.4188H13.0001C13.0001 26.1692 13.0808 25.9994 13.1863 25.8935C13.2915 25.7879 13.4608 25.7063 13.7126 25.7063V24.7063ZM17.4751 24.7063H13.7126V25.7063H17.4751V24.7063ZM22.2063 21.0625C19.6537 21.0625 17.6568 22.8082 16.9953 25.0657L17.9549 25.3469C18.5059 23.4668 20.1465 22.0625 22.2063 22.0625V21.0625ZM27.4242 25.0912C26.8824 22.7992 24.7404 21.0625 22.2063 21.0625V22.0625C24.2848 22.0625 26.0178 23.4883 26.451 25.3213L27.4242 25.0912ZM22.2001 28.35C21.1396 28.35 20.2751 27.481 20.2751 26.425H19.2751C19.2751 28.0316 20.5856 29.35 22.2001 29.35V28.35ZM24.1251 26.4274C24.13 27.4793 23.2628 28.35 22.2001 28.35V29.35C23.8124 29.35 25.1327 28.0332 25.1251 26.4227L24.1251 26.4274ZM22.2001 24.5C23.2606 24.5 24.1251 25.3691 24.1251 26.425H25.1251C25.1251 24.8185 23.8146 23.5 22.2001 23.5V24.5ZM20.2751 26.425C20.2751 25.3645 21.1442 24.5 22.2001 24.5V23.5C20.5935 23.5 19.2751 24.8105 19.2751 26.425H20.2751ZM50.1126 34.4188H46.3501V35.4188H50.1126V34.4188ZM51.8251 36.1355C51.8292 35.6549 51.6689 35.216 51.3483 34.8966C51.0284 34.5778 50.5898 34.4188 50.1126 34.4188V35.4188C50.3667 35.4188 50.5375 35.5003 50.6425 35.605C50.7469 35.709 50.8273 35.8764 50.8251 36.127L51.8251 36.1355ZM50.1126 37.8438C50.5898 37.8438 51.0261 37.6812 51.3443 37.3629C51.6625 37.0447 51.8251 36.6085 51.8251 36.1313H50.8251C50.8251 36.3791 50.744 36.549 50.6372 36.6558C50.5304 36.7626 50.3604 36.8438 50.1126 36.8438V37.8438ZM46.3501 37.8438H50.1126V36.8438H46.3501V37.8438ZM41.6188 41.4875C44.1715 41.4875 46.1684 39.7418 46.8299 37.4844L45.8703 37.2032C45.3193 39.0832 43.6787 40.4875 41.6188 40.4875V41.4875ZM36.401 37.4588C36.9428 39.7508 39.0848 41.4875 41.6188 41.4875V40.4875C39.5404 40.4875 37.8074 39.0617 37.3742 37.2288L36.401 37.4588ZM13.7063 37.8438H36.8876V36.8438H13.7063V37.8438ZM11.9938 36.1313C11.9938 36.6085 12.1565 37.0447 12.4747 37.3629C12.7929 37.6812 13.2291 37.8438 13.7063 37.8438V36.8438C13.4586 36.8438 13.2886 36.7626 13.1818 36.6558C13.075 36.549 12.9938 36.3791 12.9938 36.1313H11.9938ZM13.7063 34.4188C13.2269 34.4188 12.7899 34.5808 12.4717 34.9002C12.1537 35.2193 11.9938 35.6559 11.9938 36.1313H12.9938C12.9938 35.8817 13.0746 35.7119 13.1801 35.606C13.2853 35.5004 13.4545 35.4188 13.7063 35.4188V34.4188ZM36.8876 34.4188H13.7063V35.4188H36.8876V34.4188ZM41.6188 30.775C39.0662 30.775 37.0693 32.5207 36.4078 34.7782L37.3674 35.0594C37.9184 33.1793 39.559 31.775 41.6188 31.775V30.775ZM46.8367 34.8037C46.2949 32.5117 44.1529 30.775 41.6188 30.775V31.775C43.6973 31.775 45.4303 33.2008 45.8635 35.0338L46.8367 34.8037ZM41.6188 38.0563C40.5583 38.0563 39.6938 37.1872 39.6938 36.1313H38.6938C38.6938 37.7378 40.0044 39.0563 41.6188 39.0563V38.0563ZM43.5438 36.1313C43.5438 37.1872 42.6794 38.0563 41.6188 38.0563V39.0563C43.2333 39.0563 44.5438 37.7378 44.5438 36.1313H43.5438ZM41.6188 34.2063C42.6794 34.2063 43.5438 35.0753 43.5438 36.1313H44.5438C44.5438 34.5247 43.2333 33.2063 41.6188 33.2063V34.2063ZM39.6938 36.1313C39.6938 35.0707 40.5629 34.2063 41.6188 34.2063V33.2063C40.0123 33.2063 38.6938 34.5168 38.6938 36.1313H39.6938Z" fill="#07828B"/>
</svg>
