<svg width="402" height="490" viewBox="0 0 402 490" fill="none" xmlns="http://www.w3.org/2000/svg">
<rect width="402" height="490" fill="url(#paint0_linear_2954_1134)"/>
<g clip-path="url(#clip0_2954_1134)">
<path d="M309.312 303.221L269.448 312.22L309.312 321.402L348.993 312.22L309.312 303.221Z" stroke="white" stroke-width="0.585447"/>
<path d="M309.369 305.792L284.512 311.428L309.369 317.178L334.112 311.428L309.369 305.792Z" stroke="#07828B" stroke-opacity="0.5" stroke-width="0.585447" stroke-dasharray="1.56 1.56"/>
<path d="M309.312 321.585L269.632 312.22V359.415L309.312 368.965V321.585Z" stroke="url(#paint1_linear_2954_1134)" stroke-width="0.585447"/>
<path d="M309.496 321.585L349.176 312.22V359.415L309.496 368.965V321.585Z" stroke="url(#paint2_linear_2954_1134)" stroke-width="0.585447"/>
<path d="M309.649 318.505C324.307 318.505 336.189 316.559 336.189 314.159V297.441C332.085 295.91 320.517 297.441 309.649 297.441C299.978 297.441 287.748 295.886 283.109 297.151L283.11 301.304L283.109 314.159C283.109 316.559 294.991 318.505 309.649 318.505Z" fill="url(#paint3_linear_2954_1134)"/>
<path d="M309.591 307.547C324.323 307.547 336.266 304.081 336.266 299.805V292.064C332.14 289.336 320.514 292.064 309.591 292.064C299.871 292.064 287.579 289.293 282.917 291.548L282.918 298.945C282.918 298.945 282.917 299.455 282.917 299.805C282.917 304.081 294.859 307.547 309.591 307.547Z" fill="white" stroke="white" stroke-width="0.585447" stroke-miterlimit="10"/>
<path d="M309.591 299.633C324.323 299.633 336.266 296.167 336.266 291.891C336.266 287.616 324.323 284.15 309.591 284.15C294.859 284.15 282.917 287.616 282.917 291.891C282.917 296.167 294.859 299.633 309.591 299.633Z" fill="#07828B" stroke="white" stroke-width="0.585447" stroke-miterlimit="10"/>
<path d="M314.55 289.204C329.126 290.478 340.942 278.761 340.942 263.033C340.942 247.305 329.126 233.521 314.55 232.246C299.975 230.972 288.159 242.689 288.159 258.417C288.159 274.145 299.975 287.929 314.55 289.204Z" fill="white" stroke="#07828B" stroke-width="0.390298" stroke-linecap="round" stroke-linejoin="round"/>
<path d="M310.004 290.222C324.579 291.497 336.396 279.78 336.396 264.052C336.396 248.324 324.579 234.54 310.004 233.265C295.428 231.99 283.612 243.707 283.612 259.435C283.612 275.164 295.428 288.948 310.004 290.222Z" fill="#07828B" stroke="white" stroke-width="0.390298" stroke-linecap="round" stroke-linejoin="round"/>
<path d="M333.246 267.43C333.412 266.224 333.502 264.98 333.502 263.707C333.502 256.835 330.968 250.379 326.857 245.453M293.614 278.417C289.912 274.213 287.387 268.804 286.685 262.942M335.241 272.386L332.148 272.115C328.9 281.648 320.208 287.913 309.996 287.02C304.977 286.581 300.323 284.477 296.508 281.252L293.618 282.674M285.137 249.91L288.214 250.179C291.712 241.216 300.149 235.418 309.996 236.279C315.015 236.718 319.669 238.822 323.484 242.048L326.374 240.831" stroke="white" stroke-width="0.390298" stroke-linecap="round" stroke-linejoin="round"/>
<path d="M290.602 248.614C290.318 249.206 290.055 249.813 289.812 250.431L291.271 250.558L292.045 248.74L290.602 248.614Z" fill="white" stroke="white" stroke-width="0.390298"/>
<path d="M335.236 272.18L332.134 271.908L332.365 270.681L335.52 270.957L335.232 272.179L335.236 272.18Z" fill="#07828B" stroke="white" stroke-width="0.390298" stroke-linecap="round" stroke-linejoin="round"/>
<path d="M286.481 259.907C286.638 259.92 286.765 259.794 286.765 259.625C286.765 259.456 286.638 259.308 286.481 259.294C286.325 259.28 286.198 259.406 286.198 259.576C286.198 259.745 286.325 259.893 286.481 259.907Z" fill="white" stroke="white" stroke-width="0.390298" stroke-linecap="round" stroke-linejoin="round"/>
<path d="M286.481 257.829C286.638 257.843 286.765 257.717 286.765 257.547C286.765 257.378 286.638 257.23 286.481 257.216C286.325 257.203 286.198 257.329 286.198 257.498C286.198 257.667 286.325 257.815 286.481 257.829Z" fill="white" stroke="white" stroke-width="0.390298" stroke-linecap="round" stroke-linejoin="round"/>
<path d="M286.869 255.778C287.023 255.792 287.152 255.667 287.152 255.496C287.152 255.326 287.027 255.179 286.869 255.165C286.711 255.151 286.585 255.276 286.585 255.447C286.585 255.617 286.711 255.764 286.869 255.778Z" fill="white" stroke="white" stroke-width="0.390298" stroke-linecap="round" stroke-linejoin="round"/>
<path d="M318.362 250.475L300.425 247.313C298.847 247.035 297.568 248.108 297.568 249.709V271.468C297.568 273.07 298.847 274.593 300.425 274.872L318.362 278.033C319.94 278.311 321.219 277.238 321.219 275.637V253.878C321.219 252.277 319.94 250.753 318.362 250.475Z" fill="white"/>
<path d="M316.636 255.568L302.29 253.04C301.691 252.934 301.206 253.341 301.206 253.949V254.874C301.206 255.481 301.691 256.059 302.29 256.165L316.636 258.694C317.234 258.799 317.72 258.392 317.72 257.785V256.859C317.72 256.252 317.234 255.674 316.636 255.568Z" fill="#07828B"/>
<path d="M316.636 261.392L302.29 258.864C301.691 258.758 301.206 259.165 301.206 259.773V260.698C301.206 261.305 301.691 261.883 302.29 261.989L316.636 264.518C317.234 264.623 317.72 264.216 317.72 263.609V262.683C317.72 262.076 317.234 261.498 316.636 261.392Z" fill="#07828B"/>
<path d="M316.636 268.353L302.29 265.825C301.691 265.719 301.206 266.126 301.206 266.733V267.659C301.206 268.266 301.691 268.844 302.29 268.95L316.636 271.478C317.234 271.584 317.72 271.177 317.72 270.569V269.644C317.72 269.037 317.234 268.459 316.636 268.353Z" fill="#07828B"/>
<path fill-rule="evenodd" clip-rule="evenodd" d="M304.847 247.172V249.594C304.847 249.981 305.155 250.349 305.536 250.416L313.324 251.788C313.704 251.855 314.013 251.597 314.013 251.21V248.788C314.013 248.511 313.793 248.249 313.521 248.201L312.264 247.979V246.933C312.264 246.491 311.911 246.07 311.476 245.994L307.384 245.273C306.949 245.196 306.596 245.492 306.596 245.934V246.98L305.339 246.759C305.067 246.711 304.847 246.896 304.847 247.172ZM309.393 249.036C310.011 249.145 310.513 248.725 310.513 248.097C310.513 247.47 310.011 246.873 309.393 246.763C308.775 246.655 308.274 247.075 308.274 247.703C308.274 248.33 308.775 248.928 309.393 249.036Z" fill="white"/>
<mask id="mask0_2954_1134" style="mask-type:luminance" maskUnits="userSpaceOnUse" x="303" y="243" width="13" height="11">
<path d="M315.225 243.451H303.694V253.287H315.225V243.451Z" fill="white"/>
<path fill-rule="evenodd" clip-rule="evenodd" d="M304.846 247.172V249.594C304.846 249.981 305.155 250.349 305.536 250.416L313.323 251.788C313.704 251.855 314.013 251.597 314.013 251.21V248.788C314.013 248.511 313.792 248.249 313.52 248.201L312.263 247.979V246.933C312.263 246.491 311.911 246.07 311.475 245.994L307.384 245.273C306.948 245.196 306.596 245.492 306.596 245.934V246.98L305.339 246.759C305.067 246.711 304.846 246.896 304.846 247.172ZM309.393 249.036C310.011 249.145 310.513 248.725 310.513 248.097C310.513 247.47 310.011 246.873 309.393 246.763C308.775 246.655 308.273 247.075 308.273 247.703C308.273 248.33 308.775 248.928 309.393 249.036Z" fill="black"/>
</mask>
<g mask="url(#mask0_2954_1134)">
<path d="M312.264 247.979L311.377 247.823V248.723L312.264 248.879V247.979ZM306.596 246.98V247.88L307.482 248.036V247.136L306.596 246.98ZM305.733 249.75V247.328L303.96 247.015V249.438L305.733 249.75ZM305.536 249.516C305.645 249.535 305.733 249.64 305.733 249.75L303.96 249.438C303.96 250.322 304.666 251.162 305.536 251.316V249.516ZM313.323 250.889L305.536 249.516V251.316L313.323 252.688V250.889ZM313.126 251.054C313.126 250.943 313.214 250.869 313.323 250.889V252.688C314.194 252.842 314.9 252.25 314.9 251.366L313.126 251.054ZM313.126 248.631V251.054L314.9 251.366V248.944L313.126 248.631ZM313.52 249.101C313.303 249.062 313.126 248.852 313.126 248.631L314.9 248.944C314.9 248.171 314.282 247.435 313.52 247.301V249.101ZM312.264 248.879L313.52 249.101V247.301L312.264 247.079V248.879ZM311.377 246.776V247.823L313.15 248.136V247.089L311.377 246.776ZM311.476 246.894C311.421 246.884 311.377 246.832 311.377 246.776L313.15 247.089C313.15 246.15 312.401 245.257 311.476 245.094V246.894ZM307.384 246.172L311.476 246.894V245.094L307.384 244.372V246.172ZM307.482 246.09C307.482 246.145 307.438 246.182 307.384 246.172V244.372C306.459 244.209 305.709 244.838 305.709 245.777L307.482 246.09ZM307.482 247.136V246.09L305.709 245.777V246.824L307.482 247.136ZM305.339 247.659L306.596 247.88V246.08L305.339 245.859V247.659ZM305.733 247.328C305.733 247.549 305.557 247.697 305.339 247.659V245.859C304.577 245.724 303.96 246.243 303.96 247.015L305.733 247.328ZM309.626 247.941C309.626 248.072 309.522 248.159 309.393 248.136V249.937C310.501 250.132 311.399 249.378 311.399 248.254L309.626 247.941ZM309.393 247.664C309.522 247.686 309.626 247.811 309.626 247.941L311.399 248.254C311.399 247.129 310.501 246.059 309.393 245.864V247.664ZM309.16 247.859C309.16 247.728 309.264 247.641 309.393 247.664V245.864C308.285 245.668 307.387 246.422 307.387 247.546L309.16 247.859ZM309.393 248.136C309.264 248.114 309.16 247.99 309.16 247.859L307.387 247.546C307.387 248.671 308.285 249.741 309.393 249.937V248.136Z" fill="#07828B"/>
</g>
<path d="M320.029 281.452C323.623 282.086 326.537 279.642 326.537 275.994C326.537 272.346 323.623 268.875 320.029 268.241C316.435 267.608 313.522 270.052 313.522 273.7C313.522 277.348 316.435 280.819 320.029 281.452Z" fill="#5AB8DB" stroke="#07828B" stroke-width="1.40047"/>
<path d="M316.742 273.699L319.192 276.687C319.269 276.779 319.394 276.803 319.472 276.739L323.389 273.522" stroke="#07828B" stroke-width="1.2004" stroke-linecap="round"/>
<path d="M200.671 341.757L148.286 353.582L200.671 365.648L252.816 353.582L200.671 341.757Z" fill="#E1F0F1" stroke="white" stroke-width="0.585447"/>
<path d="M200.747 345.135L168.081 352.54L200.747 360.097L233.262 352.54L200.747 345.135Z" stroke="#07828B" stroke-opacity="0.5" stroke-width="0.585447" stroke-dasharray="1.56 1.56"/>
<path d="M200.671 365.89L148.527 353.582V415.602L200.671 428.151V365.89Z" stroke="url(#paint4_linear_2954_1134)" stroke-width="0.585447"/>
<path d="M200.912 365.89L253.056 353.582V415.602L200.912 428.151V365.89Z" fill="url(#paint5_linear_2954_1134)" stroke="url(#paint6_linear_2954_1134)" stroke-width="0.585447"/>
<path d="M200.756 362.203C216.276 362.203 228.858 359.493 228.858 356.15V332.865C224.512 330.732 212.263 332.865 200.756 332.865C190.516 332.865 177.567 330.698 172.655 332.461L172.656 338.244L172.655 356.15C172.655 359.493 185.236 362.203 200.756 362.203Z" fill="url(#paint7_linear_2954_1134)"/>
<path d="M200.664 343.075C216.13 343.075 228.667 339.436 228.667 334.948V326.821C224.336 323.957 212.131 326.821 200.664 326.821C190.46 326.821 177.555 323.912 172.661 326.279L172.662 334.045C172.662 334.045 172.661 334.58 172.661 334.948C172.661 339.436 185.198 343.075 200.664 343.075Z" fill="#07828B" stroke="white" stroke-width="0.585447" stroke-miterlimit="10"/>
<path d="M200.664 334.767C216.13 334.767 228.667 331.128 228.667 326.64C228.667 322.151 216.13 318.513 200.664 318.513C185.198 318.513 172.661 322.151 172.661 326.64C172.661 331.128 185.198 334.767 200.664 334.767Z" fill="#6EB6BB" stroke="white" stroke-width="0.585447" stroke-miterlimit="10"/>
<path d="M93.8635 302.73L54.395 311.64L93.8635 320.73L133.15 311.64L93.8635 302.73Z" stroke="white" stroke-width="0.585447"/>
<path d="M93.9191 305.275L69.3081 310.855L93.9191 316.548L118.417 310.855L93.9191 305.275Z" stroke="#07828B" stroke-opacity="0.5" stroke-width="0.585447" stroke-dasharray="1.56 1.56"/>
<path d="M93.8647 320.913L54.5781 311.64V358.367L93.8647 367.822V320.913Z" stroke="url(#paint8_linear_2954_1134)" stroke-width="0.585447"/>
<path d="M94.0459 320.913L133.332 311.64V358.367L94.0459 367.822V320.913Z" stroke="url(#paint9_linear_2954_1134)" stroke-width="0.585447"/>
<path d="M94.4003 318.505C108.95 318.505 120.745 316.247 120.745 313.461V294.056C116.671 292.279 105.188 294.056 94.4003 294.056C84.8001 294.056 72.6599 292.251 68.0552 293.72L68.056 298.539L68.0552 313.461C68.0552 316.247 79.8504 318.505 94.4003 318.505Z" fill="url(#paint10_linear_2954_1134)"/>
<path d="M94.4211 303.958C79.8353 303.958 68.0112 300.526 68.0112 296.293V288.629C72.0957 285.928 83.6067 288.629 94.4211 288.629C104.045 288.629 116.215 285.885 120.831 288.118L120.829 295.441C120.829 295.441 120.831 295.947 120.831 296.293C120.831 300.526 109.007 303.958 94.4211 303.958Z" fill="white" stroke="white" stroke-width="0.585447" stroke-miterlimit="10"/>
<path d="M94.4211 296.123C79.8353 296.123 68.0112 292.691 68.0112 288.458C68.0112 284.225 79.8353 280.794 94.4211 280.794C109.007 280.794 120.831 284.225 120.831 288.458C120.831 292.691 109.007 296.123 94.4211 296.123Z" fill="#07828B" stroke="white" stroke-width="0.585447" stroke-miterlimit="10"/>
<path d="M97.3002 289.331C82.7815 293.125 68.8183 283.309 66.1127 267.406C63.4068 251.503 72.9831 235.534 87.5018 231.739C102.02 227.945 115.984 237.761 118.689 253.664C121.395 269.567 111.819 285.536 97.3002 289.331Z" fill="white" stroke="#07828B" stroke-width="0.390298" stroke-linecap="round" stroke-linejoin="round"/>
<path d="M102.069 289.576C87.5504 293.37 73.5871 283.554 70.8812 267.651C68.1756 251.748 77.7516 235.779 92.2703 231.984C106.789 228.19 120.753 238.006 123.458 253.909C126.164 269.813 116.588 285.781 102.069 289.576Z" fill="#07828B" stroke="white" stroke-width="0.390298" stroke-linecap="round" stroke-linejoin="round"/>
<path d="M74.6474 270.525C74.2719 269.335 73.9675 268.093 73.7485 266.806C72.5663 259.856 74.0179 252.894 77.3268 247.205M116.611 274.822C119.63 269.935 121.254 264.031 120.954 257.983M73.4831 275.879L76.5642 275.074C81.4878 284.154 91.3541 288.995 101.526 286.337C106.525 285.03 110.869 282.102 114.172 278.185L117.339 279.127M120.278 244.54L117.213 245.341C112.134 236.879 102.606 232.467 92.797 235.031C87.7977 236.337 83.4541 239.265 80.1514 243.182L77.0192 242.449" stroke="white" stroke-width="0.390298" stroke-linecap="round" stroke-linejoin="round"/>
<path d="M114.527 244.17C114.916 244.72 115.287 245.289 115.639 245.871L114.185 246.251L113.089 244.546L114.527 244.17Z" fill="white" stroke="white" stroke-width="0.390298"/>
<path d="M73.4562 275.669L76.5454 274.862L76.1005 273.661L72.959 274.482L73.4601 275.668L73.4562 275.669Z" fill="#07828B" stroke="white" stroke-width="0.390298" stroke-linecap="round" stroke-linejoin="round"/>
<path d="M120.638 254.879C120.482 254.92 120.332 254.814 120.303 254.643C120.274 254.472 120.376 254.3 120.533 254.259C120.689 254.218 120.839 254.324 120.868 254.495C120.897 254.666 120.794 254.838 120.638 254.879Z" fill="white" stroke="white" stroke-width="0.390298" stroke-linecap="round" stroke-linejoin="round"/>
<path d="M120.282 252.778C120.125 252.818 119.976 252.713 119.946 252.542C119.917 252.371 120.02 252.199 120.176 252.158C120.332 252.117 120.483 252.223 120.512 252.394C120.541 252.565 120.438 252.737 120.282 252.778Z" fill="white" stroke="white" stroke-width="0.390298" stroke-linecap="round" stroke-linejoin="round"/>
<path d="M119.537 250.771C119.384 250.812 119.231 250.708 119.202 250.536C119.173 250.363 119.274 250.193 119.432 250.152C119.589 250.111 119.738 250.215 119.767 250.388C119.797 250.56 119.695 250.73 119.537 250.771Z" fill="white" stroke="white" stroke-width="0.390298" stroke-linecap="round" stroke-linejoin="round"/>
<path d="M104.837 272.307C99.696 272.855 95.4991 269.101 95.4917 263.948C95.4843 258.795 99.6659 254.146 104.807 253.599C109.977 253.048 114.174 256.801 114.174 261.978C114.174 267.124 109.992 271.75 104.837 272.307ZM105.72 258.196C105.569 257.214 105.35 256.935 104.814 257.006C104.278 257.07 104.067 257.41 103.953 258.381C103.833 258.417 103.712 258.46 103.591 258.495C102.3 258.925 101.41 260.145 101.417 261.451C101.432 262.75 102.361 263.778 103.674 263.852C104.248 263.882 104.852 263.788 105.44 263.734C105.803 263.704 106.112 263.777 106.339 264.041C106.595 264.339 106.648 264.696 106.49 265.09C106.301 265.548 105.946 265.797 105.478 265.854C104.437 265.971 103.387 266.066 102.346 266.191C102.157 266.21 101.938 266.279 101.772 266.394C101.455 266.609 101.327 267.015 101.425 267.353C101.523 267.683 101.825 267.9 102.202 267.876C102.791 267.829 103.372 267.753 103.953 267.692C104.036 268.635 104.263 268.959 104.791 268.903C104.98 268.884 105.252 268.795 105.335 268.658C105.539 268.319 105.652 267.929 105.826 267.488C105.795 267.498 105.871 267.475 105.939 267.453C107.169 267.097 108.105 266.008 108.203 264.812C108.317 263.44 107.622 262.334 106.354 262.112C105.697 262 104.965 262.122 104.263 262.165C103.561 262.209 103.085 261.858 103.078 261.239C103.07 260.62 103.546 260.14 104.248 260.066C105.252 259.953 106.263 259.854 107.267 259.749C107.863 259.686 108.263 259.297 108.263 258.79C108.263 258.284 107.863 257.978 107.275 258.032C106.769 258.078 106.248 258.14 105.72 258.196Z" fill="#5AB8DB"/>
<path d="M108.197 252.018C107.555 251.956 106.944 251.862 106.333 251.851C102.339 251.802 99.0105 253.444 96.376 256.759C95.8628 257.409 95.4932 258.159 95.04 258.856C94.9721 258.969 94.8137 259.099 94.7079 259.103C92.1643 259.188 89.6582 259.051 87.3785 258.044C86.7895 257.781 86.231 257.386 85.7935 256.918C84.9177 255.99 84.9856 254.698 85.8688 253.57C86.5784 252.672 87.5069 252.075 88.4955 251.579C91.3642 250.151 94.3683 249.548 97.4177 249.273C99.8032 249.061 102.151 249.116 104.423 249.648C105.389 249.879 106.317 250.19 107.125 250.755C107.578 251.077 107.963 251.46 108.197 252.018Z" fill="white"/>
<path d="M98.784 272.896C97.4406 273.037 96.1721 273.223 94.904 273.288C92.9264 273.39 90.9788 273.285 89.1069 272.817C88.0652 272.556 87.054 272.209 86.2234 271.54C85.5291 270.978 85.1517 270.255 85.1743 269.285C85.2044 268.194 85.1817 267.101 85.1817 266.005C85.8007 266.317 86.3819 266.657 87.0009 266.902C88.8654 267.643 90.8734 267.87 92.9264 267.919C93.3717 267.933 93.8249 267.915 94.2702 267.937C94.3756 267.941 94.5266 268.023 94.5645 268.117C95.4251 270.12 96.7837 271.67 98.6482 272.759C98.686 272.77 98.7008 272.806 98.784 272.896Z" fill="white"/>
<path d="M85.1966 258.877C87.9064 260.633 91.0393 260.833 94.2624 260.849C93.7492 262.656 93.6586 264.419 93.9908 266.213C93.7414 266.216 93.5376 266.23 93.3265 266.222C91.341 266.174 89.386 265.979 87.5821 265.239C86.7215 264.883 85.9366 264.429 85.4834 263.577C85.3476 263.32 85.2118 263.017 85.2044 262.715C85.1739 261.456 85.1966 260.185 85.1966 258.877Z" fill="white"/>
<mask id="mask1_2954_1134" style="mask-type:luminance" maskUnits="userSpaceOnUse" x="266" y="226" width="11" height="11">
<path d="M271.199 226.28C272.463 228.432 274.439 230.075 276.786 230.925C274.633 232.188 272.99 234.164 272.14 236.51C270.876 234.358 268.9 232.715 266.553 231.866C268.705 230.602 270.349 228.627 271.199 226.28Z" fill="white"/>
</mask>
<g mask="url(#mask1_2954_1134)">
<path d="M345.364 366.053C378.815 346.42 404.351 315.72 417.559 279.26L124.839 173.301C136.346 141.533 158.596 114.784 187.742 97.6782L345.364 366.053ZM406.373 157.727C386.735 124.288 356.024 98.7597 319.551 85.557L213.554 378.174C181.776 366.671 155.017 344.429 137.906 315.293L406.373 157.727ZM197.975 96.7371C164.524 116.37 138.988 147.07 125.78 183.53L418.499 289.49C406.993 321.257 384.742 348.006 355.597 365.112L197.975 96.7371ZM136.964 305.064C156.604 338.503 187.315 364.031 223.788 377.233L329.785 84.616C361.563 96.1195 388.321 118.362 405.432 147.497L136.964 305.064Z" fill="white"/>
</g>
</g>
<defs>
<linearGradient id="paint0_linear_2954_1134" x1="183.831" y1="-318.111" x2="174.274" y2="490.064" gradientUnits="userSpaceOnUse">
<stop stop-color="#07828B"/>
<stop offset="1" stop-color="white" stop-opacity="0.1"/>
</linearGradient>
<linearGradient id="paint1_linear_2954_1134" x1="289.472" y1="312.22" x2="289.472" y2="368.965" gradientUnits="userSpaceOnUse">
<stop stop-color="white"/>
<stop offset="0.755355" stop-color="#999999" stop-opacity="0"/>
</linearGradient>
<linearGradient id="paint2_linear_2954_1134" x1="329.336" y1="312.22" x2="330.621" y2="368.965" gradientUnits="userSpaceOnUse">
<stop stop-color="white"/>
<stop offset="0.792001" stop-color="#999999" stop-opacity="0"/>
</linearGradient>
<linearGradient id="paint3_linear_2954_1134" x1="309.649" y1="306.41" x2="309.196" y2="318.487" gradientUnits="userSpaceOnUse">
<stop stop-color="#07828B"/>
<stop offset="1" stop-color="white" stop-opacity="0"/>
</linearGradient>
<linearGradient id="paint4_linear_2954_1134" x1="174.599" y1="353.582" x2="174.599" y2="428.151" gradientUnits="userSpaceOnUse">
<stop stop-color="white"/>
<stop offset="0.755355" stop-color="#999999" stop-opacity="0"/>
</linearGradient>
<linearGradient id="paint5_linear_2954_1134" x1="226.984" y1="353.582" x2="226.984" y2="428.151" gradientUnits="userSpaceOnUse">
<stop stop-color="#07828B" stop-opacity="0.3"/>
<stop offset="1" stop-color="white" stop-opacity="0"/>
</linearGradient>
<linearGradient id="paint6_linear_2954_1134" x1="226.984" y1="353.582" x2="228.672" y2="428.151" gradientUnits="userSpaceOnUse">
<stop stop-color="white"/>
<stop offset="0.792001" stop-color="#999999" stop-opacity="0"/>
</linearGradient>
<linearGradient id="paint7_linear_2954_1134" x1="199.808" y1="342.304" x2="200.498" y2="357.172" gradientUnits="userSpaceOnUse">
<stop stop-color="#07828B" stop-opacity="0.5"/>
<stop offset="1" stop-color="white" stop-opacity="0"/>
</linearGradient>
<linearGradient id="paint8_linear_2954_1134" x1="74.2214" y1="311.64" x2="74.2214" y2="367.822" gradientUnits="userSpaceOnUse">
<stop stop-color="white"/>
<stop offset="0.755355" stop-color="#999999" stop-opacity="0"/>
</linearGradient>
<linearGradient id="paint9_linear_2954_1134" x1="113.689" y1="311.64" x2="114.961" y2="367.822" gradientUnits="userSpaceOnUse">
<stop stop-color="white"/>
<stop offset="0.792001" stop-color="#999999" stop-opacity="0"/>
</linearGradient>
<linearGradient id="paint10_linear_2954_1134" x1="94.4003" y1="302.313" x2="93.9751" y2="318.493" gradientUnits="userSpaceOnUse">
<stop stop-color="#07828B"/>
<stop offset="1" stop-color="white" stop-opacity="0"/>
</linearGradient>
<clipPath id="clip0_2954_1134">
<rect width="354" height="162.91" fill="white" transform="translate(24 226)"/>
</clipPath>
</defs>
</svg>
