<svg width="1920" height="494" viewBox="0 0 1920 494" fill="none" xmlns="http://www.w3.org/2000/svg">
<rect width="1920" height="489.828" fill="url(#paint0_linear_954_3376)"/>
<g clip-path="url(#clip0_954_3376)">
<mask id="mask0_954_3376" style="mask-type:alpha" maskUnits="userSpaceOnUse" x="-217" y="-148" width="2341" height="637">
<path d="M2124 -147.948H-217V488.829H2124V-147.948Z" fill="white"/>
</mask>
<g mask="url(#mask0_954_3376)">
<path d="M160.676 329.311L-357.395 489.607H2254.57L1777.21 336.111" stroke="#5AB8DB" stroke-opacity="0.15"/>
<path d="M-171.18 489.57L224.199 349.698H1686.24L2077.76 484.187L-171.18 489.57Z" stroke="#5AB8DB" stroke-opacity="0.15"/>
<path d="M-10 489.568L328.74 349.698H1581.16L1920 489.568" stroke="#5AB8DB" stroke-opacity="0.15"/>
<path d="M144.991 489.568L429.269 349.698H1480.12L1761.63 484.188L144.991 489.568Z" stroke="#5AB8DB" stroke-opacity="0.15"/>
<path d="M281.4 489.568L517.755 349.698H1391.17L1625.23 484.188L281.4 489.568Z" stroke="#5AB8DB" stroke-opacity="0.15"/>
<path d="M424.047 489.567L610.297 349.698H1298.17L1482.61 484.189L424.047 489.567Z" stroke="#5AB8DB" stroke-opacity="0.15"/>
<path d="M566.737 489.565L702.884 349.698H1205.12L1339.95 484.191" stroke="#5AB8DB" stroke-opacity="0.15"/>
<path d="M709.493 489.56L795.535 349.698H1111.99L1197.2 484.196" stroke="#5AB8DB" stroke-opacity="0.15"/>
<path d="M871.016 489.526L900.415 349.698H1006.56L1038 489.526" stroke="#5AB8DB" stroke-opacity="0.15"/>
<path d="M-360.033 -163.903L138.024 52.5072L1773 52.5062L2257.17 -163.903H-360.033Z" stroke="#07828B" stroke-opacity="0.3"/>
<path d="M-34.6354 620.782V406.301C-10.273 280.988 602.417 83.6176 1070.17 296.652C1537.93 509.685 1887.85 228.205 1933.65 60.5972V615.487" stroke="url(#paint1_linear_954_3376)"/>
<path d="M1817.67 233.124C1823.56 233.124 1828.33 228.748 1828.33 223.35C1828.33 217.952 1823.56 213.576 1817.67 213.576C1811.78 213.576 1807 217.952 1807 223.35C1807 228.748 1811.78 233.124 1817.67 233.124Z" fill="#07828B"/>
<path d="M158.333 284.676C164.593 284.676 169.667 280.027 169.667 274.292C169.667 268.556 164.593 263.907 158.333 263.907C152.074 263.907 147 268.556 147 274.292C147 280.027 152.074 284.676 158.333 284.676Z" fill="#07828B"/>
<path d="M-36.2559 399.042L1949.65 400.885" stroke="#5AB8DB" stroke-opacity="0.15"/>
<path d="M-186.108 446.642H2105.28" stroke="#5AB8DB" stroke-opacity="0.15"/>
</g>
</g>
<path d="M1473.43 262.435L1405.87 277.686L1473.43 293.249L1540.69 277.686L1473.43 262.435Z" stroke="white" stroke-width="0.992282"/>
<path d="M1473.53 266.792L1431.4 276.344L1473.53 286.09L1515.47 276.344L1473.53 266.792Z" stroke="#07828B" stroke-opacity="0.5" stroke-width="0.992282" stroke-dasharray="2.65 2.65"/>
<path d="M1473.43 293.56L1406.18 277.686V357.679L1473.43 373.865V293.56Z" stroke="url(#paint2_linear_954_3376)" stroke-width="0.992282"/>
<path d="M1473.74 293.56L1541 277.686V357.679L1473.74 373.865V293.56Z" stroke="url(#paint3_linear_954_3376)" stroke-width="0.992282"/>
<path d="M1474 288.339C1498.85 288.339 1518.99 285.042 1518.99 280.974V252.638C1512.03 250.044 1492.42 252.638 1474 252.638C1457.61 252.638 1436.88 250.003 1429.02 252.147L1429.02 259.185L1429.02 280.974C1429.02 285.042 1449.16 288.339 1474 288.339Z" fill="url(#paint4_linear_954_3376)"/>
<path d="M1473.9 269.767C1498.87 269.767 1519.11 263.892 1519.11 256.645V243.524C1512.12 238.901 1492.42 243.524 1473.9 243.524C1457.43 243.524 1436.6 238.827 1428.69 242.649L1428.69 255.187C1428.69 255.187 1428.69 256.052 1428.69 256.645C1428.69 263.892 1448.93 269.767 1473.9 269.767Z" fill="white" stroke="white" stroke-width="0.992282" stroke-miterlimit="10"/>
<path d="M1473.9 256.353C1498.87 256.353 1519.11 250.478 1519.11 243.232C1519.11 235.985 1498.87 230.11 1473.9 230.11C1448.93 230.11 1428.69 235.985 1428.69 243.232C1428.69 250.478 1448.93 256.353 1473.9 256.353Z" fill="#07828B" stroke="white" stroke-width="0.992282" stroke-miterlimit="10"/>
<path d="M1482.31 238.676C1507.01 240.836 1527.04 220.977 1527.04 194.319C1527.04 167.661 1507.01 144.299 1482.31 142.138C1457.6 139.978 1437.58 159.837 1437.58 186.495C1437.58 213.154 1457.6 236.516 1482.31 238.676Z" fill="white" stroke="#07828B" stroke-width="0.661521" stroke-linecap="round" stroke-linejoin="round"/>
<path d="M1474.6 240.403C1499.31 242.564 1519.34 222.705 1519.34 196.046C1519.34 169.388 1499.31 146.026 1474.6 143.865C1449.9 141.704 1429.87 161.564 1429.87 188.222C1429.87 214.88 1449.9 238.242 1474.6 240.403Z" fill="#07828B" stroke="white" stroke-width="0.661521" stroke-linecap="round" stroke-linejoin="round"/>
<path d="M1514 201.771C1514.28 199.727 1514.43 197.62 1514.43 195.462C1514.43 183.814 1510.14 172.872 1503.17 164.522M1446.82 220.394C1440.55 213.269 1436.27 204.1 1435.08 194.165M1517.38 210.171L1512.13 209.713C1506.63 225.869 1491.9 236.489 1474.59 234.975C1466.08 234.231 1458.2 230.664 1451.73 225.198L1446.83 227.609M1432.46 172.078L1437.67 172.533C1443.6 157.341 1457.9 147.514 1474.59 148.973C1483.1 149.717 1490.98 153.284 1497.45 158.751L1502.35 156.688" stroke="white" stroke-width="0.661521" stroke-linecap="round" stroke-linejoin="round"/>
<path d="M1441.72 169.88C1441.24 170.883 1440.79 171.912 1440.38 172.959L1442.85 173.175L1444.16 170.094L1441.72 169.88Z" fill="white" stroke="white" stroke-width="0.661521"/>
<path d="M1517.37 209.822L1512.11 209.362L1512.5 207.283L1517.85 207.75L1517.36 209.822L1517.37 209.822Z" fill="#07828B" stroke="white" stroke-width="0.661521" stroke-linecap="round" stroke-linejoin="round"/>
<path d="M1434.74 189.02C1435 189.043 1435.22 188.83 1435.22 188.543C1435.22 188.256 1435 188.005 1434.74 187.982C1434.47 187.958 1434.25 188.172 1434.25 188.459C1434.25 188.746 1434.47 188.997 1434.74 189.02Z" fill="white" stroke="white" stroke-width="0.661521" stroke-linecap="round" stroke-linejoin="round"/>
<path d="M1434.74 185.498C1435 185.522 1435.22 185.308 1435.22 185.021C1435.22 184.735 1435 184.483 1434.74 184.46C1434.47 184.437 1434.25 184.651 1434.25 184.937C1434.25 185.224 1434.47 185.475 1434.74 185.498Z" fill="white" stroke="white" stroke-width="0.661521" stroke-linecap="round" stroke-linejoin="round"/>
<path d="M1435.39 182.022C1435.65 182.045 1435.87 181.834 1435.87 181.545C1435.87 181.256 1435.66 181.008 1435.39 180.984C1435.12 180.961 1434.91 181.172 1434.91 181.461C1434.91 181.75 1435.12 181.999 1435.39 182.022Z" fill="white" stroke="white" stroke-width="0.661521" stroke-linecap="round" stroke-linejoin="round"/>
<path d="M1488.77 173.034L1458.37 167.675C1455.69 167.204 1453.53 169.022 1453.53 171.737V208.616C1453.53 211.33 1455.69 213.913 1458.37 214.385L1488.77 219.743C1491.44 220.215 1493.61 218.396 1493.61 215.682V178.803C1493.61 176.088 1491.44 173.505 1488.77 173.034Z" fill="white"/>
<path d="M1485.84 181.667L1461.53 177.381C1460.51 177.203 1459.69 177.892 1459.69 178.922V180.49C1459.69 181.52 1460.51 182.5 1461.53 182.678L1485.84 186.964C1486.86 187.143 1487.68 186.453 1487.68 185.424V183.856C1487.68 182.826 1486.86 181.846 1485.84 181.667Z" fill="#07828B"/>
<path d="M1485.84 191.539L1461.53 187.253C1460.51 187.074 1459.69 187.763 1459.69 188.793V190.361C1459.69 191.391 1460.51 192.371 1461.53 192.549L1485.84 196.835C1486.86 197.014 1487.68 196.324 1487.68 195.295V193.727C1487.68 192.697 1486.86 191.717 1485.84 191.539Z" fill="#07828B"/>
<path d="M1485.84 203.337L1461.53 199.051C1460.51 198.872 1459.69 199.562 1459.69 200.591V202.159C1459.69 203.189 1460.51 204.169 1461.53 204.348L1485.84 208.634C1486.86 208.812 1487.68 208.123 1487.68 207.093V205.525C1487.68 204.495 1486.86 203.515 1485.84 203.337Z" fill="#07828B"/>
<path fill-rule="evenodd" clip-rule="evenodd" d="M1465.86 167.436V171.542C1465.86 172.197 1466.39 172.82 1467.03 172.934L1480.23 175.26C1480.88 175.374 1481.4 174.936 1481.4 174.28V170.174C1481.4 169.706 1481.03 169.261 1480.56 169.18L1478.43 168.804V167.031C1478.43 166.281 1477.84 165.569 1477.1 165.439L1470.16 164.217C1469.43 164.086 1468.83 164.588 1468.83 165.337V167.111L1466.7 166.736C1466.24 166.654 1465.86 166.968 1465.86 167.436ZM1473.57 170.596C1474.62 170.781 1475.47 170.069 1475.47 169.004C1475.47 167.94 1474.62 166.929 1473.57 166.744C1472.52 166.559 1471.67 167.272 1471.67 168.335C1471.67 169.399 1472.52 170.412 1473.57 170.596Z" fill="white"/>
<mask id="mask1_954_3376" style="mask-type:luminance" maskUnits="userSpaceOnUse" x="1463" y="161" width="21" height="17">
<path d="M1483.45 161.13H1463.91V177.801H1483.45V161.13Z" fill="white"/>
<path fill-rule="evenodd" clip-rule="evenodd" d="M1465.86 167.436V171.542C1465.86 172.197 1466.39 172.82 1467.03 172.934L1480.23 175.26C1480.88 175.374 1481.4 174.936 1481.4 174.28V170.174C1481.4 169.706 1481.02 169.261 1480.56 169.18L1478.43 168.804V167.031C1478.43 166.281 1477.84 165.569 1477.1 165.439L1470.16 164.217C1469.42 164.087 1468.83 164.588 1468.83 165.337V167.111L1466.7 166.736C1466.24 166.654 1465.86 166.968 1465.86 167.436ZM1473.57 170.596C1474.62 170.781 1475.47 170.069 1475.47 169.005C1475.47 167.941 1474.62 166.929 1473.57 166.744C1472.52 166.559 1471.67 167.272 1471.67 168.335C1471.67 169.399 1472.52 170.412 1473.57 170.596Z" fill="black"/>
</mask>
<g mask="url(#mask1_954_3376)">
<path d="M1478.43 168.804L1476.93 168.54V170.065L1478.43 170.33V168.804ZM1468.83 167.111V168.636L1470.33 168.901V167.376L1468.83 167.111ZM1467.36 171.806V167.701L1464.36 167.171V171.277L1467.36 171.806ZM1467.03 171.409C1467.22 171.441 1467.36 171.619 1467.36 171.806L1464.36 171.277C1464.36 172.775 1465.56 174.2 1467.03 174.46V171.409ZM1480.23 173.735L1467.03 171.409V174.46L1480.23 176.786V173.735ZM1479.9 174.015C1479.9 173.828 1480.04 173.703 1480.23 173.735V176.786C1481.71 177.046 1482.9 176.043 1482.9 174.545L1479.9 174.015ZM1479.9 169.91V174.015L1482.9 174.545V170.44L1479.9 169.91ZM1480.56 170.705C1480.19 170.64 1479.9 170.284 1479.9 169.91L1482.9 170.44C1482.9 169.129 1481.85 167.882 1480.56 167.654V170.705ZM1478.43 170.33L1480.56 170.705V167.654L1478.43 167.279V170.33ZM1476.93 166.765V168.54L1479.94 169.069V167.295L1476.93 166.765ZM1477.1 166.964C1477.01 166.948 1476.93 166.859 1476.93 166.765L1479.94 167.295C1479.94 165.704 1478.67 164.19 1477.1 163.913V166.964ZM1470.16 165.742L1477.1 166.964V163.913L1470.16 162.691V165.742ZM1470.33 165.602C1470.33 165.695 1470.26 165.758 1470.16 165.742V162.691C1468.6 162.415 1467.32 163.481 1467.32 165.072L1470.33 165.602ZM1470.33 167.376V165.602L1467.32 165.072V166.846L1470.33 167.376ZM1466.7 168.261L1468.83 168.636V165.586L1466.7 165.21V168.261ZM1467.36 167.701C1467.36 168.075 1467.07 168.326 1466.7 168.261V165.21C1465.41 164.983 1464.36 165.861 1464.36 167.171L1467.36 167.701ZM1473.96 168.739C1473.96 168.961 1473.79 169.109 1473.57 169.071V172.122C1475.45 172.452 1476.97 171.176 1476.97 169.27L1473.96 168.739ZM1473.57 168.269C1473.79 168.308 1473.96 168.518 1473.96 168.739L1476.97 169.27C1476.97 167.363 1475.45 165.549 1473.57 165.219V168.269ZM1473.17 168.6C1473.17 168.379 1473.35 168.231 1473.57 168.269V165.219C1471.69 164.887 1470.17 166.164 1470.17 168.071L1473.17 168.6ZM1473.57 169.071C1473.35 169.032 1473.17 168.822 1473.17 168.6L1470.17 168.071C1470.17 169.977 1471.69 171.791 1473.57 172.122V169.071Z" fill="#07828B"/>
</g>
<path d="M1491.6 225.539C1497.69 226.612 1502.63 222.47 1502.63 216.287C1502.63 210.104 1497.69 204.221 1491.6 203.147C1485.5 202.073 1480.57 206.215 1480.57 212.399C1480.57 218.582 1485.5 224.465 1491.6 225.539Z" fill="#5AB8DB" stroke="#07828B" stroke-width="2.37368"/>
<path d="M1486.02 212.398L1490.18 217.461C1490.31 217.618 1490.52 217.658 1490.65 217.55L1497.29 212.097" stroke="#07828B" stroke-width="2.03458" stroke-linecap="round"/>
<path d="M1289.29 327.75L1200.5 347.792L1289.29 368.243L1377.67 347.792L1289.29 327.75Z" fill="#E1F0F1" stroke="white" stroke-width="0.992282"/>
<path d="M1289.42 333.475L1234.06 346.026L1289.42 358.834L1344.53 346.026L1289.42 333.475Z" stroke="#07828B" stroke-opacity="0.5" stroke-width="0.992282" stroke-dasharray="2.65 2.65"/>
<path d="M1289.29 368.653L1200.91 347.793V452.911L1289.29 474.18V368.653Z" stroke="url(#paint5_linear_954_3376)" stroke-width="0.992282"/>
<path d="M1289.7 368.653L1378.08 347.793V452.911L1289.7 474.18V368.653Z" fill="url(#paint6_linear_954_3376)" stroke="url(#paint7_linear_954_3376)" stroke-width="0.992282"/>
<path d="M1289.44 362.403C1315.74 362.403 1337.07 357.811 1337.07 352.145V312.678C1329.7 309.063 1308.94 312.678 1289.44 312.678C1272.08 312.678 1250.13 309.006 1241.81 311.994L1241.81 321.796L1241.81 352.145C1241.81 357.811 1263.13 362.403 1289.44 362.403Z" fill="url(#paint8_linear_954_3376)"/>
<path d="M1289.28 329.984C1315.49 329.984 1336.74 323.816 1336.74 316.209V302.434C1329.4 297.58 1308.72 302.434 1289.28 302.434C1271.99 302.434 1250.11 297.504 1241.82 301.516L1241.82 314.678C1241.82 314.678 1241.82 315.586 1241.82 316.209C1241.82 323.816 1263.07 329.984 1289.28 329.984Z" fill="#07828B" stroke="white" stroke-width="0.992282" stroke-miterlimit="10"/>
<path d="M1289.28 315.902C1315.49 315.902 1336.74 309.735 1336.74 302.127C1336.74 294.519 1315.49 288.353 1289.28 288.353C1263.07 288.353 1241.82 294.519 1241.82 302.127C1241.82 309.735 1263.07 315.902 1289.28 315.902Z" fill="#6EB6BB" stroke="white" stroke-width="0.992282" stroke-miterlimit="10"/>
<path d="M1108.26 261.603L1041.37 276.703L1108.26 292.112L1174.85 276.703L1108.26 261.603Z" stroke="white" stroke-width="0.992282"/>
<path d="M1108.36 265.917L1066.64 275.374L1108.36 285.023L1149.88 275.374L1108.36 265.917Z" stroke="#07828B" stroke-opacity="0.5" stroke-width="0.992282" stroke-dasharray="2.65 2.65"/>
<path d="M1108.26 292.42L1041.68 276.704V355.903L1108.26 371.928V292.42Z" stroke="url(#paint9_linear_954_3376)" stroke-width="0.992282"/>
<path d="M1108.57 292.42L1175.16 276.704V355.903L1108.57 371.928V292.42Z" stroke="url(#paint10_linear_954_3376)" stroke-width="0.992282"/>
<path d="M1109.17 288.339C1133.83 288.339 1153.83 284.512 1153.83 279.791V246.901C1146.92 243.889 1127.46 246.901 1109.17 246.901C1092.9 246.901 1072.32 243.841 1064.52 246.331L1064.52 254.499L1064.52 279.791C1064.52 284.512 1084.51 288.339 1109.17 288.339Z" fill="url(#paint11_linear_954_3376)"/>
<path d="M1109.21 263.683C1084.49 263.683 1064.45 257.867 1064.45 250.692V237.702C1071.37 233.124 1090.88 237.702 1109.21 237.702C1125.52 237.702 1146.15 233.052 1153.97 236.836L1153.97 249.249C1153.97 249.249 1153.97 250.105 1153.97 250.692C1153.97 257.867 1133.93 263.683 1109.21 263.683Z" fill="white" stroke="white" stroke-width="0.992282" stroke-miterlimit="10"/>
<path d="M1109.21 250.403C1084.49 250.403 1064.45 244.587 1064.45 237.412C1064.45 230.238 1084.49 224.422 1109.21 224.422C1133.93 224.422 1153.97 230.238 1153.97 237.412C1153.97 244.587 1133.93 250.403 1109.21 250.403Z" fill="#07828B" stroke="white" stroke-width="0.992282" stroke-miterlimit="10"/>
<path d="M1114.09 238.892C1089.48 245.323 1065.81 228.686 1061.23 201.731C1056.64 174.776 1072.87 147.711 1097.48 141.279C1122.09 134.848 1145.76 151.485 1150.34 178.44C1154.93 205.395 1138.7 232.46 1114.09 238.892Z" fill="white" stroke="#07828B" stroke-width="0.661521" stroke-linecap="round" stroke-linejoin="round"/>
<path d="M1122.17 239.307C1097.56 245.739 1073.9 229.101 1069.31 202.146C1064.72 175.192 1080.96 148.126 1105.56 141.695C1130.17 135.263 1153.84 151.9 1158.42 178.855C1163.01 205.81 1146.78 232.875 1122.17 239.307Z" fill="#07828B" stroke="white" stroke-width="0.661521" stroke-linecap="round" stroke-linejoin="round"/>
<path d="M1075.69 207.018C1075.06 205 1074.54 202.895 1074.17 200.713C1072.17 188.935 1074.63 177.134 1080.24 167.493M1146.82 214.3C1151.94 206.017 1154.69 196.011 1154.18 185.76M1073.72 216.092L1078.94 214.727C1087.29 230.118 1104.01 238.323 1121.25 233.817C1129.72 231.602 1137.09 226.64 1142.68 220.001L1148.05 221.597M1153.03 162.976L1147.84 164.333C1139.23 149.99 1123.08 142.513 1106.46 146.858C1097.98 149.073 1090.62 154.035 1085.02 160.674L1079.71 159.43" stroke="white" stroke-width="0.661521" stroke-linecap="round" stroke-linejoin="round"/>
<path d="M1143.29 162.349C1143.95 163.28 1144.57 164.244 1145.17 165.231L1142.71 165.875L1140.85 162.985L1143.29 162.349Z" fill="white" stroke="white" stroke-width="0.661521"/>
<path d="M1073.67 215.737L1078.91 214.368L1078.16 212.333L1072.83 213.725L1073.68 215.735L1073.67 215.737Z" fill="#07828B" stroke="white" stroke-width="0.661521" stroke-linecap="round" stroke-linejoin="round"/>
<path d="M1153.64 180.498C1153.38 180.568 1153.12 180.388 1153.08 180.099C1153.03 179.809 1153.2 179.517 1153.47 179.448C1153.73 179.379 1153.98 179.558 1154.03 179.848C1154.08 180.138 1153.91 180.429 1153.64 180.498Z" fill="white" stroke="white" stroke-width="0.661521" stroke-linecap="round" stroke-linejoin="round"/>
<path d="M1153.04 176.937C1152.77 177.006 1152.52 176.827 1152.47 176.537C1152.42 176.248 1152.6 175.957 1152.86 175.887C1153.13 175.818 1153.38 175.997 1153.43 176.287C1153.48 176.577 1153.3 176.868 1153.04 176.937Z" fill="white" stroke="white" stroke-width="0.661521" stroke-linecap="round" stroke-linejoin="round"/>
<path d="M1151.78 173.537C1151.52 173.605 1151.26 173.43 1151.21 173.137C1151.16 172.844 1151.33 172.556 1151.6 172.487C1151.87 172.417 1152.12 172.594 1152.17 172.886C1152.22 173.179 1152.05 173.467 1151.78 173.537Z" fill="white" stroke="white" stroke-width="0.661521" stroke-linecap="round" stroke-linejoin="round"/>
<path d="M1126.86 210.038C1118.15 210.966 1111.04 204.604 1111.02 195.871C1111.01 187.136 1118.1 179.257 1126.81 178.329C1135.57 177.396 1142.69 183.757 1142.69 192.531C1142.69 201.254 1135.6 209.094 1126.86 210.038ZM1128.36 186.121C1128.1 184.457 1127.73 183.983 1126.82 184.104C1125.92 184.213 1125.56 184.788 1125.37 186.435C1125.16 186.495 1124.96 186.568 1124.75 186.628C1122.56 187.357 1121.05 189.424 1121.07 191.638C1121.09 193.839 1122.67 195.582 1124.89 195.707C1125.86 195.758 1126.89 195.6 1127.89 195.508C1128.5 195.456 1129.02 195.58 1129.41 196.027C1129.84 196.532 1129.93 197.137 1129.66 197.806C1129.34 198.582 1128.74 199.004 1127.95 199.1C1126.18 199.299 1124.41 199.46 1122.64 199.671C1122.32 199.704 1121.95 199.821 1121.67 200.016C1121.13 200.38 1120.91 201.069 1121.08 201.641C1121.25 202.2 1121.76 202.569 1122.4 202.527C1123.39 202.448 1124.38 202.319 1125.37 202.215C1125.51 203.814 1125.89 204.363 1126.79 204.269C1127.1 204.235 1127.57 204.085 1127.71 203.853C1128.05 203.278 1128.24 202.617 1128.54 201.869C1128.49 201.887 1128.62 201.848 1128.73 201.81C1130.82 201.207 1132.4 199.362 1132.57 197.334C1132.76 195.008 1131.58 193.134 1129.43 192.758C1128.32 192.568 1127.08 192.775 1125.89 192.849C1124.7 192.922 1123.89 192.328 1123.88 191.279C1123.87 190.23 1124.67 189.415 1125.86 189.29C1127.57 189.098 1129.28 188.931 1130.98 188.753C1131.99 188.646 1132.67 187.986 1132.67 187.128C1132.67 186.269 1131.99 185.752 1130.99 185.844C1130.14 185.921 1129.25 186.027 1128.36 186.121Z" fill="#5AB8DB"/>
<path d="M1132.56 175.649C1131.47 175.545 1130.43 175.385 1129.4 175.366C1122.63 175.283 1116.99 178.066 1112.52 183.685C1111.65 184.788 1111.03 186.058 1110.26 187.24C1110.14 187.431 1109.87 187.652 1109.69 187.658C1105.38 187.803 1101.14 187.571 1097.27 185.863C1096.27 185.417 1095.33 184.749 1094.59 183.955C1093.1 182.382 1093.22 180.192 1094.71 178.28C1095.92 176.757 1097.49 175.747 1099.17 174.905C1104.03 172.486 1109.12 171.464 1114.29 170.998C1118.33 170.637 1122.31 170.731 1126.16 171.633C1127.8 172.025 1129.37 172.551 1130.74 173.509C1131.51 174.055 1132.16 174.704 1132.56 175.649Z" fill="white"/>
<path d="M1116.6 211.036C1114.33 211.275 1112.18 211.59 1110.03 211.701C1106.68 211.874 1103.37 211.695 1100.2 210.902C1098.44 210.459 1096.72 209.872 1095.31 208.738C1094.14 207.786 1093.5 206.56 1093.54 204.916C1093.59 203.066 1093.55 201.213 1093.55 199.356C1094.6 199.886 1095.58 200.461 1096.63 200.876C1099.79 202.132 1103.2 202.518 1106.68 202.601C1107.43 202.624 1108.2 202.594 1108.95 202.63C1109.13 202.637 1109.39 202.777 1109.45 202.937C1110.91 206.331 1113.21 208.958 1116.37 210.804C1116.44 210.822 1116.46 210.884 1116.6 211.036Z" fill="white"/>
<path d="M1093.57 187.275C1098.17 190.251 1103.48 190.59 1108.94 190.617C1108.07 193.681 1107.92 196.668 1108.48 199.709C1108.06 199.715 1107.71 199.739 1107.35 199.725C1103.99 199.643 1100.67 199.312 1097.62 198.058C1096.16 197.455 1094.83 196.685 1094.06 195.242C1093.83 194.805 1093.6 194.292 1093.59 193.78C1093.54 191.647 1093.57 189.491 1093.57 187.275Z" fill="white"/>
<mask id="mask2_954_3376" style="mask-type:luminance" maskUnits="userSpaceOnUse" x="1400" y="132" width="19" height="18">
<path d="M1408.83 132.027C1410.97 135.674 1414.32 138.458 1418.3 139.899C1414.65 142.04 1411.87 145.389 1410.43 149.365C1408.29 145.718 1404.94 142.933 1400.96 141.494C1404.61 139.352 1407.39 136.004 1408.83 132.027Z" fill="white"/>
</mask>
<g mask="url(#mask2_954_3376)">
<path d="M1534.54 368.93C1591.23 335.654 1634.51 283.619 1656.9 221.823L1160.76 42.2303C1180.27 -11.6126 1217.98 -56.9503 1267.38 -85.9432L1534.54 368.93ZM1637.94 15.8342C1604.66 -40.8426 1552.6 -84.1101 1490.79 -106.487L1311.13 389.474C1257.27 369.976 1211.91 332.278 1182.91 282.896L1637.94 15.8342ZM1284.72 -87.5382C1228.03 -54.2621 1184.75 -2.22768 1162.36 59.5687L1658.49 239.161C1638.99 293.004 1601.28 338.342 1551.88 367.335L1284.72 -87.5382ZM1181.32 265.557C1214.6 322.234 1266.66 365.501 1328.47 387.879L1508.13 -108.083C1561.99 -88.5851 1607.35 -50.8862 1636.35 -1.50423L1181.32 265.557Z" fill="white"/>
</g>
<defs>
<linearGradient id="paint0_linear_954_3376" x1="878" y1="-318" x2="876" y2="490" gradientUnits="userSpaceOnUse">
<stop stop-color="#07828B"/>
<stop offset="1" stop-color="white" stop-opacity="0.1"/>
</linearGradient>
<linearGradient id="paint1_linear_954_3376" x1="2040" y1="163.18" x2="-61.3781" y2="460.181" gradientUnits="userSpaceOnUse">
<stop stop-color="#07828B"/>
<stop offset="0.463847" stop-color="#2495A7" stop-opacity="0"/>
<stop offset="0.519" stop-color="#5AB8DB" stop-opacity="0"/>
<stop offset="1" stop-color="#07828B"/>
</linearGradient>
<linearGradient id="paint2_linear_954_3376" x1="1439.8" y1="277.686" x2="1439.8" y2="373.865" gradientUnits="userSpaceOnUse">
<stop stop-color="white"/>
<stop offset="0.755355" stop-color="#999999" stop-opacity="0"/>
</linearGradient>
<linearGradient id="paint3_linear_954_3376" x1="1507.37" y1="277.686" x2="1509.55" y2="373.865" gradientUnits="userSpaceOnUse">
<stop stop-color="white"/>
<stop offset="0.792001" stop-color="#999999" stop-opacity="0"/>
</linearGradient>
<linearGradient id="paint4_linear_954_3376" x1="1474" y1="267.839" x2="1473.23" y2="288.31" gradientUnits="userSpaceOnUse">
<stop stop-color="#07828B"/>
<stop offset="1" stop-color="white" stop-opacity="0"/>
</linearGradient>
<linearGradient id="paint5_linear_954_3376" x1="1245.1" y1="347.793" x2="1245.1" y2="474.18" gradientUnits="userSpaceOnUse">
<stop stop-color="white"/>
<stop offset="0.755355" stop-color="#999999" stop-opacity="0"/>
</linearGradient>
<linearGradient id="paint6_linear_954_3376" x1="1333.89" y1="347.793" x2="1333.89" y2="474.18" gradientUnits="userSpaceOnUse">
<stop stop-color="#07828B" stop-opacity="0.3"/>
<stop offset="1" stop-color="white" stop-opacity="0"/>
</linearGradient>
<linearGradient id="paint7_linear_954_3376" x1="1333.89" y1="347.793" x2="1336.75" y2="474.181" gradientUnits="userSpaceOnUse">
<stop stop-color="white"/>
<stop offset="0.792001" stop-color="#999999" stop-opacity="0"/>
</linearGradient>
<linearGradient id="paint8_linear_954_3376" x1="1287.83" y1="328.678" x2="1289" y2="353.876" gradientUnits="userSpaceOnUse">
<stop stop-color="#07828B" stop-opacity="0.5"/>
<stop offset="1" stop-color="white" stop-opacity="0"/>
</linearGradient>
<linearGradient id="paint9_linear_954_3376" x1="1074.97" y1="276.704" x2="1074.97" y2="371.928" gradientUnits="userSpaceOnUse">
<stop stop-color="white"/>
<stop offset="0.755355" stop-color="#999999" stop-opacity="0"/>
</linearGradient>
<linearGradient id="paint10_linear_954_3376" x1="1141.87" y1="276.704" x2="1144.02" y2="371.928" gradientUnits="userSpaceOnUse">
<stop stop-color="white"/>
<stop offset="0.792001" stop-color="#999999" stop-opacity="0"/>
</linearGradient>
<linearGradient id="paint11_linear_954_3376" x1="1109.17" y1="260.895" x2="1108.45" y2="288.32" gradientUnits="userSpaceOnUse">
<stop stop-color="#07828B"/>
<stop offset="1" stop-color="white" stop-opacity="0"/>
</linearGradient>
<clipPath id="clip0_954_3376">
<rect width="1920" height="488.829" fill="white"/>
</clipPath>
</defs>
</svg>
