<svg width="64" height="64" viewBox="0 0 64 64" fill="none" xmlns="http://www.w3.org/2000/svg">
<path d="M33.3453 8.45553C33.7662 8.45024 34.1732 8.60633 34.4826 8.89174C34.792 9.17715 34.9804 9.57022 35.0091 9.9902C35.0378 10.4102 34.9046 10.8252 34.6368 11.15C34.369 11.4748 33.987 11.6848 33.5693 11.7368L33.3453 11.752H14.895C13.7164 11.752 12.7287 12.6939 12.6014 13.926L12.5887 14.1932L12.5861 41.1839H51.457L51.4595 32.9999C51.4595 32.1752 52.0679 31.4777 52.8851 31.3657L53.1065 31.3529C53.9313 31.3529 54.6262 31.9613 54.7382 32.7759L54.7535 32.9999V41.1839H58.3784C59.2032 41.1839 59.8981 41.7923 60.0101 42.6094L60.0254 42.8309V45.5598C60.0254 50.9742 55.7616 55.3857 50.4719 55.3857H13.5789C8.28922 55.3882 4.02539 50.9767 4.02539 45.5623V42.8309C4.02539 41.9221 4.76361 41.1839 5.67237 41.1839H9.29472V14.1932C9.29472 11.1589 11.601 8.65663 14.5386 8.46826L14.895 8.45807H33.3453V8.45553ZM56.734 44.4753H7.31936V45.5598C7.31936 49.0523 9.93875 51.8855 13.2124 52.0815L13.5789 52.0942H50.4744C53.9186 52.0942 56.734 49.1796 56.734 45.5598V44.4779V44.4753ZM33.0703 23.1842C33.7016 23.7009 33.8595 24.6021 33.442 25.3021L33.302 25.5032L26.1617 34.2422C26.0209 34.4151 25.8465 34.5576 25.649 34.6612C25.4515 34.7647 25.235 34.827 25.0127 34.8444C24.7904 34.8618 24.5669 34.8338 24.3557 34.7622C24.1445 34.6907 23.95 34.5769 23.7841 34.428L23.6212 34.26L21.6967 31.9588L18.9144 35.2807C18.6608 35.5833 18.3069 35.7848 17.9173 35.8483C17.5276 35.9118 17.128 35.8333 16.7914 35.6269L16.5929 35.4844C16.2903 35.2308 16.0889 34.8769 16.0253 34.4872C15.9618 34.0975 16.0403 33.698 16.2467 33.3614L16.3892 33.1628L20.4367 28.3364C20.5778 28.1682 20.7511 28.03 20.9464 27.9297C21.1417 27.8294 21.355 27.7692 21.5739 27.7526C21.7928 27.736 22.0129 27.7634 22.2211 27.833C22.4292 27.9027 22.6214 28.0133 22.7862 28.1582L22.9644 28.339L24.8685 30.6173L30.7488 23.4184C30.8856 23.2502 31.0543 23.1108 31.2451 23.008C31.436 22.9052 31.6453 22.841 31.8609 22.8193C32.0766 22.7975 32.2945 22.8185 32.502 22.8812C32.7096 22.9438 32.9027 23.0468 33.0703 23.1842ZM46.4015 8.38934C51.0599 8.38934 55.0157 10.3494 55.0157 13.3736V23.3395C55.0157 26.3687 51.0599 28.3237 46.4015 28.3237C41.906 28.3237 38.0597 26.5011 37.8 23.6475L37.7873 23.342V13.3736L37.8 13.0681C38.0597 10.2171 41.906 8.38934 46.4015 8.38934ZM52.1647 22.1405C50.6221 22.9093 48.5907 23.342 46.4015 23.342C44.2123 23.342 42.1784 22.9093 40.6383 22.1405L40.6434 23.3369C40.6434 24.2432 43.1203 25.4701 46.4015 25.4701C49.5326 25.4701 51.9356 24.3526 52.1469 23.4642L52.1621 23.3369V22.1405H52.1647ZM52.1647 17.1563C50.6221 17.9301 48.5907 18.3629 46.4015 18.3629C44.2123 18.3629 42.1784 17.9301 40.6383 17.1563L40.6434 18.3578C40.6434 19.2615 43.1203 20.4884 46.4015 20.4884C49.5326 20.4884 51.9356 19.3684 52.1469 18.4825L52.1621 18.3578V17.1563H52.1647ZM46.4015 11.2455C43.1177 11.2455 40.6434 12.4724 40.6434 13.3736C40.6434 14.2798 43.1203 15.5042 46.4015 15.5042C49.6853 15.5042 52.1621 14.2798 52.1621 13.3736C52.1621 12.4724 49.6827 11.2455 46.4015 11.2455Z" fill="#07828B"/>
</svg>
