<svg width="162" height="116" viewBox="0 0 162 116" fill="none" xmlns="http://www.w3.org/2000/svg">
<path d="M122.877 48.0791C123.455 46.9271 123.833 45.5895 123.833 44.4375V39.0679C123.833 30.253 109.652 23.1597 92.0181 23.1597C74.384 23.1597 60.2037 30.2551 60.2037 39.0722C60.2037 38.6882 60.2037 38.3085 60.3978 37.7325C53.8805 40.6082 49.665 45.0135 49.665 49.613V54.9805C49.665 59.9618 54.0725 64.3735 61.1658 67.245C60.5898 68.3949 60.2058 69.7367 60.2058 70.8866V76.2562C60.2058 78.1677 60.9738 79.8978 62.1237 81.6258C60.9738 83.3517 60.2058 85.069 60.2058 86.989V92.3607C60.2058 101.178 74.3882 108.265 92.0224 108.265C109.659 108.265 123.837 101.178 123.837 92.3607V86.989C123.837 85.0733 123.075 83.3517 121.925 81.6258C122.883 80.2839 123.459 79.1341 123.651 77.5981C130.169 74.7223 134.384 70.509 134.384 65.7175V60.3501C134.378 55.3623 129.968 50.9549 122.877 48.0791ZM92.0202 25.8477C109.268 25.8477 121.153 32.7447 121.153 39.0701C121.153 45.3975 109.273 52.2946 92.0202 52.2946C74.7701 52.2946 62.8874 45.3975 62.8874 39.0701C62.8874 32.7469 74.9621 25.8477 92.0202 25.8477ZM52.3445 49.613C52.3445 46.5474 55.2202 43.2898 60.2037 40.7981V44.4397C60.2037 53.2567 74.3861 60.3479 92.0202 60.3479C94.7061 60.3479 97.1936 60.1559 99.6853 59.9639C94.8938 61.8775 88.5706 63.0317 81.4794 63.0317C64.2293 62.8375 52.3445 55.9383 52.3445 49.613ZM121.151 86.7949C121.151 93.1223 109.268 100.019 92.0181 100.019C74.768 100.019 62.8874 93.1223 62.8874 86.7949C62.8874 85.8391 63.2736 84.6893 64.0373 83.7271C69.4048 88.7106 79.9456 92.1645 92.2144 92.1645C104.481 92.1645 115.018 88.7106 120.195 83.7271C120.769 84.6893 121.151 85.645 121.151 86.7949ZM110.224 81.0455C105.437 82.9591 99.1114 84.1111 92.0181 84.1111C74.7701 84.1111 62.8874 77.2162 62.8874 70.8909C62.8874 69.933 63.2736 69.1629 63.6533 68.2114C66.337 69.1629 69.2106 69.741 72.2784 70.3127C76.3018 76.8322 88.3765 81.6237 102.753 81.6237C105.243 81.4274 107.737 81.2354 110.224 81.0455ZM102.559 73.5725C95.8496 73.5725 89.9082 72.4226 85.1168 70.6946C100.069 69.7367 111.756 63.7975 113.1 56.3223C116.741 54.7885 119.617 52.6829 121.531 50.381C127.858 53.0647 131.884 56.7063 131.884 60.3479C131.694 66.4791 119.809 73.5725 102.559 73.5725ZM97.7696 42.9079C97.7696 42.3298 97.3834 41.9479 96.4256 41.5661C95.4677 41.1799 93.5498 40.9879 90.4864 40.4162C87.7984 40.0301 85.505 39.6503 83.9648 39.2663C82.433 38.8823 81.0912 38.3085 80.1333 37.7325C79.1754 36.9666 78.6016 36.1986 78.6016 35.2407C78.6016 34.0909 79.5594 32.9431 81.2853 31.9853C83.0133 31.0253 85.6928 30.4493 89.5264 30.2573V28.3415H94.5098V30.2573C100.067 30.4471 103.709 31.7933 105.435 34.0909L98.5376 35.2407C97.1914 33.7047 95.088 32.9431 92.2122 32.9431C90.8704 32.9431 89.7205 33.1351 88.7584 33.517C87.9968 33.901 87.4208 34.2829 87.4208 34.8589C87.4208 35.437 87.8026 35.8189 88.7584 36.0087C89.5264 36.2007 91.4421 36.5847 94.1301 36.9666C97.1978 37.3506 99.4976 37.9266 101.217 38.3085C102.945 38.6903 104.285 39.2663 105.245 40.0322C106.203 40.8002 106.781 41.5682 106.781 42.5239C106.781 44.0599 105.823 45.2077 103.713 46.1677C101.603 47.1255 98.5376 47.7037 94.704 47.8957V50.3853H89.7184V47.8957C83.2032 47.7037 79.1818 45.9778 77.4538 43.2962L85.1189 42.5282C85.8848 44.2562 88.1866 45.2119 92.2101 45.2119C94.128 45.2119 95.4677 45.0199 96.4277 44.6359C97.1936 43.8637 97.7696 43.4797 97.7696 42.9079Z" fill="#07828B"/>
<path d="M42.259 104.863C42.259 110.631 33.026 115.314 21.6296 115.314C10.2333 115.314 1 110.639 1 104.863C1 102.53 1.06976 99.0646 1.06976 99.0646C1.06976 99.0646 14.8461 94.4209 21.6296 94.4209C28.576 94.4209 42.259 98.2194 42.259 98.2194C42.259 98.2194 42.259 102.615 42.259 104.863Z" fill="white" stroke="#07828B" stroke-width="0.556713" stroke-miterlimit="10" stroke-linecap="round" stroke-linejoin="round"/>
<path d="M21.6296 108.67C33.0228 108.67 42.259 103.991 42.259 98.2193C42.259 92.4476 33.0228 87.769 21.6296 87.769C10.2362 87.769 1 92.4476 1 98.2193C1 103.991 10.2362 108.67 21.6296 108.67Z" fill="#07828B" stroke="white" stroke-width="0.556713" stroke-miterlimit="10" stroke-linecap="round" stroke-linejoin="round"/>
<path d="M57.8812 97.7384C57.8812 103.507 48.6478 108.189 37.2513 108.189C25.8552 108.189 16.6296 103.514 16.6296 97.7384C16.6296 95.4051 16.6994 91.9396 16.6994 91.9396C16.6994 91.9396 30.4757 87.2959 37.2591 87.2959C44.2055 87.2959 57.8889 91.0947 57.8889 91.0947C57.8889 91.0947 57.8812 95.4902 57.8812 97.7384Z" fill="white" stroke="#07828B" stroke-width="0.556713" stroke-miterlimit="10" stroke-linecap="round" stroke-linejoin="round"/>
<path d="M37.2512 101.545C48.6445 101.545 57.8807 96.8666 57.8807 91.0948C57.8807 85.3235 48.6445 80.6445 37.2512 80.6445C25.8579 80.6445 16.6216 85.3235 16.6216 91.0948C16.6216 96.8666 25.8579 101.545 37.2512 101.545Z" fill="#07828B" stroke="white" stroke-width="0.556713" stroke-miterlimit="10" stroke-linecap="round" stroke-linejoin="round"/>
<path d="M152.247 14.1821C156.125 20.6141 155.081 34.3699 155.081 34.3699C155.081 34.3699 152.442 35.5919 150.863 36.5422C144.839 40.1742 135.699 36.0587 130.438 27.3437C125.177 18.6286 125.805 8.6153 131.821 4.98325C133.323 4.07533 137.532 2.01318 137.532 2.01318C137.532 2.01318 148.309 7.64773 152.247 14.1821Z" fill="white" stroke="#07828B" stroke-width="0.609375" stroke-miterlimit="10" stroke-linecap="round" stroke-linejoin="round"/>
<path d="M156.043 33.8868C162.067 30.2528 162.687 20.2403 157.428 11.524C152.17 2.80742 143.023 -1.31304 137 2.32132C130.976 5.9553 130.356 15.9674 135.614 24.684C140.873 33.4007 150.019 37.5207 156.043 33.8868Z" fill="#07828B" stroke="white" stroke-width="0.609375" stroke-miterlimit="10" stroke-linecap="round" stroke-linejoin="round"/>
</svg>
