<svg width="80" height="81" viewBox="0 0 80 81" fill="none" xmlns="http://www.w3.org/2000/svg">
<path d="M32.3474 50.6384C32.3474 48.9668 32.5883 47.3727 33.0695 45.8571C33.5511 44.3413 34.2309 42.9458 35.109 41.6706C35.9869 40.3955 37.0278 39.2622 38.2316 38.2705C39.4356 37.2789 40.7598 36.4854 42.2043 35.8908C42.2043 35.8908 42.7306 35.1687 42.7989 34.9642C43.0824 34.8792 43.3514 34.7233 43.6062 34.4968C43.833 34.2984 44.0381 34.022 44.2225 33.668C44.4065 33.314 44.5268 32.8253 44.5837 32.2016C44.6403 31.7482 44.6331 31.3657 44.5623 31.0541C44.4915 30.7425 44.3994 30.4876 44.286 30.2891C44.1727 30.0622 44.0172 29.8782 43.8187 29.7364C43.8187 28.5748 43.748 27.4271 43.6062 26.294C43.4649 25.3022 43.2241 24.261 42.884 23.1701C42.5441 22.0795 42.0061 21.0805 41.2696 20.1739C40.9582 19.7771 40.5258 19.3806 39.9738 18.984C39.4214 18.5871 38.7916 18.233 38.0832 17.9212C37.3754 17.6096 36.6175 17.3619 35.8101 17.1776C35.0028 16.9934 34.1887 16.9014 33.3672 16.9014C32.7159 16.9014 32.0433 16.9507 31.3492 17.05C30.6552 17.1494 29.9545 17.3404 29.2465 17.6241C28.5382 17.9071 27.8585 18.2968 27.2069 18.7928C26.5555 19.2886 25.9466 19.9331 25.3799 20.7265C24.7852 21.548 24.3464 22.4832 24.063 23.5316C23.7798 24.58 23.5814 25.5572 23.4682 26.4643C23.3551 27.5372 23.2983 28.6153 23.2983 29.6942C23.0433 29.9774 22.8594 30.275 22.7458 30.5866C22.6042 30.8982 22.5195 31.2526 22.491 31.6494C22.4626 32.046 22.5195 32.4853 22.661 32.9666C22.8026 33.4484 22.9723 33.8169 23.1707 34.0718C23.3689 34.3271 23.553 34.5255 23.723 34.6667C23.9214 34.8087 24.1195 34.9077 24.3179 34.9643C24.7194 35.9082 24.8373 36.1114 25.8472 37.3358C26.3289 37.7323 26.7675 38.1223 27.1644 38.5047C27.561 38.8871 27.7872 39.404 27.8441 40.0556C27.8725 40.5093 27.8866 40.9197 27.8866 41.2881C27.8875 41.6529 27.8152 42.0143 27.6741 42.3507C27.5327 42.6909 27.2987 43.038 26.9731 43.3921C26.6474 43.7461 26.1868 44.1074 25.5924 44.4759C25.0824 44.7876 22.6751 45.6729 22.0239 45.8571C21.3723 46.0412 19.7806 46.8913 19.2708 47.2175C18.7609 47.5434 18.3292 47.9325 17.9749 48.3862C17.6211 48.8391 17.387 49.4202 17.2739 50.1288C16.9907 51.9702 16.9273 53.4789 17.0829 54.6552C17.2389 55.8308 17.4723 56.5318 17.7839 56.7585C17.9536 56.9005 18.3645 57.0423 19.0162 57.1834C19.6674 57.3255 19.6016 57.467 20.5366 57.6087C21.4713 57.7501 22.5121 57.8851 23.6592 58.0126C24.8119 58.1404 25.9663 58.2536 27.1219 58.3524C28.2832 58.4514 29.4091 58.5295 30.4995 58.5861C31.59 58.6428 32.5458 58.6711 33.3671 58.6711H34.5143C33.8346 57.4811 33.3033 56.213 32.9211 54.8671C32.5386 53.5213 32.3474 52.112 32.3474 50.6383V50.6384ZM55.0552 49.1972C54.4239 49.1972 53.856 49.4698 53.4633 49.9038L49.8627 48.1034C50.1688 47.6698 50.333 47.1519 50.3324 46.6211C50.3324 45.1984 49.1791 44.0449 47.7564 44.0449C46.3337 44.0449 45.1802 45.1983 45.1802 46.6211C45.1802 47.2138 45.3811 47.7594 45.7176 48.1946L42.9308 51.9105C42.6892 51.8195 42.433 51.773 42.1748 51.7733C40.9894 51.7733 40.0281 52.7344 40.0281 53.92C40.0281 55.1056 40.9894 56.0666 42.1748 56.0666C43.3604 56.0666 44.3215 55.1056 44.3215 53.92C44.3222 53.4554 44.1715 53.0032 43.8921 52.6319L46.6541 48.9497C46.9986 49.1131 47.3751 49.1977 47.7564 49.1973C48.3139 49.1981 48.8565 49.0172 49.302 48.6819L53.0569 50.5595C52.9586 50.8094 52.9083 51.0755 52.9084 51.3439C52.9084 52.5296 53.8695 53.4906 55.0552 53.4906C56.2408 53.4906 57.2018 52.5295 57.2018 51.3439C57.2019 50.1582 56.2409 49.1971 55.0552 49.1971V49.1972ZM62.6884 61.6039L58.7797 58.5387C59.4349 57.6678 59.9889 56.7136 60.4405 55.6742C61.144 54.0571 61.4952 52.3345 61.4952 50.5065C61.4952 48.6782 61.144 46.9558 60.4405 45.3384C59.7379 43.7215 58.7887 42.3083 57.5931 41.0989C56.3983 39.8895 54.9917 38.9335 53.3747 38.2301C51.7575 37.5272 50.035 37.1754 48.2068 37.1754C46.3506 37.1754 44.6138 37.5272 42.9968 38.2301C41.3799 38.9335 39.9735 39.8895 38.7782 41.0988C37.5831 42.3082 36.6337 43.7215 35.9308 45.3384C35.2275 46.9558 34.8759 48.6782 34.8759 50.5065C34.8759 52.3345 35.2275 54.0571 35.9308 55.6742C36.6337 57.291 37.5831 58.7043 38.7782 59.9135C39.9735 61.1231 41.3798 62.0723 42.9968 62.7614C44.6138 63.4501 46.3506 63.7947 48.2067 63.7947C50.0349 63.7947 51.7575 63.4504 53.3747 62.7614C54.7992 62.1547 56.0601 61.3454 57.1571 60.3344L60.9689 63.3233C61.3842 63.7387 62.0578 63.7387 62.4733 63.3233L62.6884 63.1086C63.1039 62.6931 63.1039 62.0196 62.6884 61.6039ZM48.1858 61.2187C42.2578 61.2187 37.4521 56.4133 37.4521 50.4853C37.4521 44.5572 42.2578 39.7515 48.1858 39.7515C54.1139 39.7515 58.9193 44.5572 58.9193 50.4853C58.9193 56.4133 54.1139 61.2187 48.1858 61.2187Z" fill="#07828B"/>
</svg>
