<svg width="177" height="122" viewBox="0 0 177 122" fill="none" xmlns="http://www.w3.org/2000/svg">
<path d="M130.48 19.0183C125.009 13.5664 117.449 10.1934 109.099 10.1934C92.4004 10.1934 78.863 23.6832 78.863 40.3237V74.7685C78.863 91.4095 92.4004 104.899 109.099 104.899C125.798 104.899 139.335 91.4095 139.335 74.7685V40.3237C139.335 32.0038 135.951 24.4699 130.48 19.0183ZM117.184 75.8942C117.184 80.3443 113.565 83.9516 109.099 83.9516C104.634 83.9516 101.014 80.3443 101.014 75.8942V39.1986C101.014 34.7485 104.634 31.1414 109.099 31.1414C111.332 31.1414 113.352 32.0423 114.816 33.5011C116.28 34.9599 117.184 36.9733 117.184 39.1986V75.8942Z" fill="url(#paint0_linear_6182_802)" stroke="url(#paint1_linear_6182_802)" stroke-width="1.41805" stroke-linejoin="round"/>
<path d="M117.895 39.1985V41.5028C117.895 39.0821 116.911 36.8902 115.319 35.3039C113.727 33.7175 111.528 32.7364 109.099 32.7364C104.24 32.7364 100.302 36.6613 100.302 41.5028V39.1985C100.302 34.3568 104.24 30.4321 109.099 30.4321C111.528 30.4321 113.727 31.4132 115.319 32.9996C116.911 34.5859 117.895 36.7775 117.895 39.1985Z" fill="#07828B"/>
<path d="M119.322 76.6182V78.8673C119.322 84.4929 114.745 89.0538 109.099 89.0538C103.454 89.0538 98.877 84.4929 98.877 78.8673V76.6182C98.877 82.2445 103.454 86.8047 109.099 86.8047C114.745 86.8047 119.322 82.2445 119.322 76.6182Z" fill="#08ACB8"/>
<path d="M136.42 40.7459V43.2933C136.42 35.7748 133.362 28.968 128.418 24.0414C123.474 19.1143 116.643 16.0668 109.098 16.0668C94.0084 16.0668 81.7761 28.2564 81.7761 43.2933V40.7459C81.7761 25.7096 94.0084 13.5195 109.098 13.5195C116.643 13.5195 123.474 16.5671 128.418 21.4943C133.362 26.4214 136.42 33.2275 136.42 40.7459Z" fill="#07828B" stroke="#07828B" stroke-width="0.02619" stroke-miterlimit="10" stroke-linecap="round" stroke-linejoin="round"/>
<path d="M136.42 73.7597V71.2124C136.42 78.731 133.362 85.5377 128.418 90.4643C123.474 95.3914 116.643 98.4389 109.098 98.4389C94.0084 98.4389 81.7761 86.2494 81.7761 71.2124V73.7597C81.7761 88.796 94.0084 100.986 109.098 100.986C116.643 100.986 123.474 97.9387 128.418 93.0116C133.362 88.0844 136.42 81.2782 136.42 73.7597Z" fill="#099CA7" stroke="#07828B" stroke-width="0.02619" stroke-miterlimit="10" stroke-linecap="round" stroke-linejoin="round"/>
<path d="M109.192 107.82H109.005C91.378 107.82 77.0889 93.5814 77.0889 76.016V39.0768C77.0889 25.3236 85.8493 13.6092 98.1126 9.17285" stroke="#07828B" stroke-opacity="0.2" stroke-width="0.40565" stroke-miterlimit="10" stroke-linecap="round" stroke-linejoin="round"/>
<path d="M141.11 39.0767V76.0158" stroke="#07828B" stroke-width="0.33059" stroke-miterlimit="10" stroke-linecap="round" stroke-linejoin="round"/>
<path d="M143.933 78.0347C143.933 96.4117 128.983 111.31 110.541 111.31H107.657C89.2156 111.31 74.2654 96.4117 74.2654 78.0347" stroke="#07828B" stroke-opacity="0.2" stroke-width="0.381366" stroke-miterlimit="10" stroke-linecap="round" stroke-linejoin="round"/>
<path d="M74.2654 45.3354V38.1222C74.2654 19.7451 89.2156 4.84717 107.657 4.84717H110.541C120.165 4.84717 128.838 8.90405 134.932 15.3955" stroke="#07828B" stroke-width="0.198354" stroke-miterlimit="10" stroke-linecap="round" stroke-linejoin="round"/>
<path d="M74.2654 45.3354V38.1222C74.2654 19.7451 89.2156 4.84717 107.657 4.84717H110.541C120.165 4.84717 128.838 8.90405 134.932 15.3955" stroke="#07828B" stroke-opacity="0.2" stroke-width="0.198354" stroke-miterlimit="10" stroke-linecap="round" stroke-linejoin="round"/>
<g filter="url(#filter0_f_6182_802)">
<path d="M107.651 121C86.0152 121 68.4758 103.522 68.4758 81.9617V33.1312C68.4758 23.3669 72.0734 14.4395 78.0199 7.59375" stroke="white" stroke-opacity="0.1" stroke-width="0.198354" stroke-miterlimit="10" stroke-linecap="round" stroke-linejoin="round"/>
</g>
<g filter="url(#filter1_f_6182_802)">
<path d="M132.802 1C143.025 8.04463 149.722 19.8088 149.722 33.131V65.0177" stroke="white" stroke-opacity="0.1" stroke-width="0.198354" stroke-miterlimit="10" stroke-linecap="round" stroke-linejoin="round"/>
</g>
<path d="M68.466 46.2235V70.0062H82.235V87.2522H68.466V107.975H48.7167V87.2522H5.04554V73.4832L40.0937 6.02941H61.2339L27.7156 70.0062H48.7167V46.2235H68.466Z" fill="url(#paint2_linear_6182_802)"/>
<path d="M68.466 46.2235H69.1751C69.1751 45.832 68.8576 45.5145 68.466 45.5145V46.2235ZM68.466 70.0062H67.757C67.757 70.3978 68.0745 70.7153 68.466 70.7153V70.0062ZM82.235 70.0062H82.944C82.944 69.6147 82.6266 69.2972 82.235 69.2972V70.0062ZM82.235 87.2522V87.9612C82.6266 87.9612 82.944 87.6438 82.944 87.2522H82.235ZM68.466 87.2522V86.5431C68.0745 86.5431 67.757 86.8606 67.757 87.2522H68.466ZM68.466 107.975V108.684C68.8576 108.684 69.1751 108.367 69.1751 107.975H68.466ZM48.7167 107.975H48.0077C48.0077 108.367 48.3251 108.684 48.7167 108.684V107.975ZM48.7167 87.2522H49.4257C49.4257 86.8606 49.1083 86.5431 48.7167 86.5431V87.2522ZM5.04554 87.2522H4.33651C4.33651 87.6438 4.65395 87.9612 5.04554 87.9612V87.2522ZM5.04554 73.4832L4.41637 73.1563C4.3639 73.2573 4.33651 73.3694 4.33651 73.4832H5.04554ZM40.0937 6.02941V5.32038C39.8291 5.32038 39.5865 5.46771 39.4646 5.7025L40.0937 6.02941ZM61.2339 6.02941L61.8619 6.35845C61.9771 6.13866 61.969 5.87467 61.8405 5.66238C61.7121 5.45009 61.482 5.32038 61.2339 5.32038V6.02941ZM27.7156 70.0062L27.0875 69.6772C26.9724 69.897 26.9805 70.161 27.109 70.3733C27.2374 70.5856 27.4675 70.7153 27.7156 70.7153V70.0062ZM48.7167 70.0062V70.7153C49.1083 70.7153 49.4257 70.3978 49.4257 70.0062H48.7167ZM48.7167 46.2235V45.5145C48.3251 45.5145 48.0077 45.832 48.0077 46.2235H48.7167ZM68.466 46.2235H67.757V70.0062H68.466H69.1751V46.2235H68.466ZM68.466 70.0062V70.7153H82.235V70.0062V69.2972H68.466V70.0062ZM82.235 70.0062H81.526V87.2522H82.235H82.944V70.0062H82.235ZM82.235 87.2522V86.5431H68.466V87.2522V87.9612H82.235V87.2522ZM68.466 87.2522H67.757V107.975H68.466H69.1751V87.2522H68.466ZM68.466 107.975V107.266H48.7167V107.975V108.684H68.466V107.975ZM48.7167 107.975H49.4257V87.2522H48.7167H48.0077V107.975H48.7167ZM48.7167 87.2522V86.5431H5.04554V87.2522V87.9612H48.7167V87.2522ZM5.04554 87.2522H5.75456V73.4832H5.04554H4.33651V87.2522H5.04554ZM5.04554 73.4832L5.6747 73.8101L40.7229 6.35631L40.0937 6.02941L39.4646 5.7025L4.41637 73.1563L5.04554 73.4832ZM40.0937 6.02941V6.73843H61.2339V6.02941V5.32038H40.0937V6.02941ZM61.2339 6.02941L60.6058 5.70036L27.0875 69.6772L27.7156 70.0062L28.3436 70.3353L61.8619 6.35845L61.2339 6.02941ZM27.7156 70.0062V70.7153H48.7167V70.0062V69.2972H27.7156V70.0062ZM48.7167 70.0062H49.4257V46.2235H48.7167H48.0077V70.0062H48.7167ZM48.7167 46.2235V46.9326H68.466V46.2235V45.5145H48.7167V46.2235Z" fill="url(#paint3_linear_6182_802)"/>
<path d="M46.1777 91.9751H1.17773V69.9088L34.6777 6.4751" stroke="#07828B" stroke-opacity="0.2" stroke-width="0.381366" stroke-miterlimit="10" stroke-linecap="round" stroke-linejoin="round"/>
<path d="M148.306 87.363C148.305 87.3645 148.304 87.366 148.303 87.3675C148.302 87.3696 148.301 87.3714 148.3 87.3735C147.485 88.7698 146.384 89.8328 144.99 90.5759C143.583 91.3258 142.063 91.7016 140.417 91.7016C138.773 91.7016 137.254 91.3263 135.848 90.5774C134.487 89.8341 133.382 88.7681 132.529 87.363C131.689 85.9783 131.26 84.3724 131.26 82.5232C131.26 80.6737 131.689 79.0678 132.529 77.6832C133.38 76.281 134.501 75.2149 135.897 74.4704C135.901 74.4684 135.905 74.4663 135.909 74.4642C137.316 73.6815 138.815 73.292 140.417 73.292C142.057 73.292 143.574 73.6826 144.979 74.4642C144.983 74.4663 144.986 74.4684 144.99 74.4704C146.384 75.2134 147.485 76.2763 148.3 77.6726C148.302 77.6762 148.304 77.6798 148.306 77.6832C149.146 79.0678 149.575 80.6737 149.575 82.5232C149.575 84.3724 149.146 85.9783 148.306 87.363ZM137.671 79.4733L137.669 79.475C136.964 80.2656 136.645 81.2893 136.645 82.4706C136.645 83.6533 136.964 84.6851 137.656 85.5043C137.665 85.5146 137.674 85.5246 137.683 85.5344C138.417 86.3089 139.344 86.7032 140.417 86.7032C141.517 86.7032 142.464 86.3151 143.204 85.5344C143.209 85.5299 143.213 85.5252 143.217 85.5203C143.952 84.7017 144.296 83.6642 144.296 82.4706C144.296 81.2816 143.954 80.2547 143.211 79.4661C142.476 78.6509 141.527 78.2377 140.417 78.2377C139.331 78.2377 138.401 78.6601 137.671 79.4733ZM174.22 107.454C174.218 107.457 174.216 107.461 174.214 107.464C173.399 108.861 172.299 109.923 170.904 110.666C169.497 111.417 167.977 111.792 166.332 111.792C164.686 111.792 163.166 111.417 161.759 110.666C160.362 109.922 159.241 108.856 158.39 107.454C157.55 106.069 157.121 104.463 157.121 102.614C157.121 100.727 157.551 99.1041 158.39 97.7213C159.241 96.3192 160.362 95.2529 161.759 94.5084C163.166 93.7585 164.686 93.3826 166.332 93.3826C167.977 93.3826 169.497 93.7585 170.904 94.5084C172.299 95.2516 173.399 96.3145 174.214 97.7108C174.216 97.7144 174.218 97.7178 174.22 97.7213C175.059 99.1041 175.49 100.727 175.49 102.614C175.49 104.463 175.06 106.069 174.22 107.454ZM163.585 105.611C163.589 105.616 163.593 105.62 163.598 105.625C164.332 106.4 165.258 106.794 166.332 106.794C167.431 106.794 168.378 106.406 169.118 105.625C169.123 105.62 169.127 105.616 169.131 105.611C169.866 104.792 170.21 103.755 170.21 102.561C170.21 101.372 169.869 100.345 169.125 99.5569C168.39 98.7417 167.441 98.3283 166.332 98.3283C165.248 98.3283 164.32 98.7484 163.591 99.5569C162.847 100.345 162.506 101.372 162.506 102.561C162.506 103.755 162.85 104.792 163.585 105.611ZM138.768 111.109L160.983 74.0282H167.981L145.766 111.109H138.768Z" fill="url(#paint4_linear_6182_802)" stroke="url(#paint5_linear_6182_802)" stroke-width="1.41805" stroke-linejoin="round"/>
<rect x="42.5933" y="9.77344" width="1.7385" height="13.0388" transform="rotate(-90 42.5933 9.77344)" fill="#07828B"/>
<defs>
<filter id="filter0_f_6182_802" x="67.7155" y="6.83345" width="40.6961" height="114.927" filterUnits="userSpaceOnUse" color-interpolation-filters="sRGB">
<feFlood flood-opacity="0" result="BackgroundImageFix"/>
<feBlend mode="normal" in="SourceGraphic" in2="BackgroundImageFix" result="shape"/>
<feGaussianBlur stdDeviation="0.33059" result="effect1_foregroundBlur_6182_802"/>
</filter>
<filter id="filter1_f_6182_802" x="132.042" y="0.239699" width="18.4405" height="65.5382" filterUnits="userSpaceOnUse" color-interpolation-filters="sRGB">
<feFlood flood-opacity="0" result="BackgroundImageFix"/>
<feBlend mode="normal" in="SourceGraphic" in2="BackgroundImageFix" result="shape"/>
<feGaussianBlur stdDeviation="0.33059" result="effect1_foregroundBlur_6182_802"/>
</filter>
<linearGradient id="paint0_linear_6182_802" x1="104.051" y1="-5.5395" x2="77.0585" y2="82.0803" gradientUnits="userSpaceOnUse">
<stop stop-color="#FFFCF2"/>
<stop offset="1" stop-color="#07828B"/>
</linearGradient>
<linearGradient id="paint1_linear_6182_802" x1="109.099" y1="10.9024" x2="138.387" y2="78.1122" gradientUnits="userSpaceOnUse">
<stop stop-color="#07828B"/>
<stop offset="0.38" stop-color="#5AB8DB"/>
<stop offset="0.59" stop-color="#07828B"/>
<stop offset="0.905" stop-color="#5AB8DB"/>
</linearGradient>
<linearGradient id="paint2_linear_6182_802" x1="34.8973" y1="-2.92977" x2="16.6757" y2="83.4756" gradientUnits="userSpaceOnUse">
<stop stop-color="#FFFCF2"/>
<stop offset="1" stop-color="#07828B"/>
</linearGradient>
<linearGradient id="paint3_linear_6182_802" x1="41.8347" y1="12.5374" x2="62.4421" y2="81.6213" gradientUnits="userSpaceOnUse">
<stop stop-color="#07828B"/>
<stop offset="0.38" stop-color="#05A7B3"/>
<stop offset="0.59" stop-color="#5AB8DB"/>
<stop offset="0.905" stop-color="#07828B"/>
</linearGradient>
<linearGradient id="paint4_linear_6182_802" x1="156.144" y1="115.705" x2="141.547" y2="56.9877" gradientUnits="userSpaceOnUse">
<stop stop-color="#07828B"/>
<stop offset="1" stop-color="#FFFCF2"/>
</linearGradient>
<linearGradient id="paint5_linear_6182_802" x1="153.375" y1="111.792" x2="153.375" y2="73.292" gradientUnits="userSpaceOnUse">
<stop stop-color="#07828B"/>
<stop offset="1" stop-color="#5AB8DB"/>
</linearGradient>
</defs>
</svg>
