<svg width="80" height="80" viewBox="0 0 80 80" fill="none" xmlns="http://www.w3.org/2000/svg">
<path fill-rule="evenodd" clip-rule="evenodd" d="M40.0134 18.7749C50.8574 18.7749 59.8975 26.1408 62.1791 36.5331C63.3256 37.0932 64.2913 37.9644 64.9662 39.0473C65.6411 40.1302 65.9978 41.381 65.9956 42.6569C65.9956 46.4146 63.0701 49.4637 59.2211 49.4637V36.5687C57.0206 27.8212 49.2615 21.6711 40.0134 21.6711C30.6613 21.6711 22.8339 27.9481 20.7244 36.8449V49.6101C16.9503 49.6101 13.9956 46.4149 13.9956 42.6572C13.9922 41.3727 14.3529 40.1135 15.0358 39.0255C15.7187 37.9376 16.6959 37.0655 17.8542 36.5102C20.1393 26.1343 29.1824 18.7749 40.0134 18.7749ZM22.4566 41.8449C22.4566 33.2505 30.3231 26.2844 40.0197 26.2844C49.726 26.2844 57.5826 33.2472 57.5792 41.8451C57.5792 49.5912 51.2049 56.0112 42.8509 57.2108C41.1897 59.0699 38.7452 60.2531 36.0147 60.2531C35.2214 60.2548 34.4312 60.152 33.6647 59.9476C34.7647 59.1825 35.7044 58.2096 36.4308 57.0837C28.4507 55.6113 22.4566 49.3504 22.4566 41.8449ZM33.977 37.1838C33.977 36.0624 33.0668 35.1489 31.9421 35.1489C30.8174 35.1489 29.9072 36.0658 29.9072 37.1871C29.9072 38.3085 30.8174 39.2155 31.9421 39.2155C33.0668 39.2155 33.977 38.3051 33.977 37.1838ZM39.9383 53.1442C45.3541 53.1442 49.7486 48.7429 49.7486 43.324V43.0054H30.128C30.1215 43.1126 30.1215 43.2169 30.1215 43.324C30.1215 48.7429 34.5163 53.1442 39.9383 53.1442ZM45.9033 37.1835C45.9033 38.3082 46.8104 39.2153 47.9447 39.2153C49.066 39.2153 49.9666 38.3048 49.9666 37.1835C49.9666 36.0622 49.0663 35.1486 47.9447 35.1486C47.6768 35.1475 47.4114 35.1994 47.1637 35.3012C46.9159 35.403 46.6908 35.5527 46.5011 35.7418C46.3114 35.9309 46.1609 36.1556 46.0583 36.403C45.9557 36.6504 45.9031 36.9157 45.9033 37.1835Z" fill="#07828B"/>
</svg>
