<svg width="330" height="260" viewBox="0 0 330 260" fill="none" xmlns="http://www.w3.org/2000/svg">
<g clip-path="url(#clip0_5496_2359)">
<path d="M232.398 40.1805C220.73 28.5327 204.605 21.3262 186.798 21.3262C151.183 21.3262 122.31 50.1471 122.31 85.6993V159.29C122.31 194.844 151.183 223.665 186.798 223.665C222.414 223.665 251.286 194.844 251.286 159.29V85.6993C251.286 67.9238 244.066 51.8279 232.398 40.1805ZM204.041 161.695C204.041 171.203 196.322 178.91 186.798 178.91C177.274 178.91 169.555 171.203 169.555 161.695V83.2955C169.555 73.7879 177.274 66.0814 186.798 66.0814C191.56 66.0814 195.869 68.0061 198.991 71.1229C202.113 74.2397 204.041 78.5413 204.041 83.2955V161.695Z" fill="url(#paint0_linear_5496_2359)" stroke="url(#paint1_linear_5496_2359)" stroke-width="3.02964" stroke-linejoin="round"/>
<path d="M205.558 83.2949V88.2181C205.558 83.0461 203.458 78.3633 200.063 74.9741C196.667 71.5849 191.978 69.4888 186.797 69.4888C176.434 69.4888 168.036 77.8742 168.036 88.2181V83.2949C168.036 72.9507 176.434 64.5657 186.797 64.5657C191.978 64.5657 196.667 66.6617 200.063 70.051C203.458 73.4402 205.558 78.1226 205.558 83.2949Z" fill="#07828B"/>
<path d="M208.6 163.242V168.047C208.6 180.066 198.838 189.81 186.798 189.81C174.757 189.81 164.996 180.066 164.996 168.047V163.242C164.996 175.262 174.757 185.005 186.798 185.005C198.838 185.005 208.6 175.262 208.6 163.242Z" fill="#03A9B5"/>
<path d="M245.068 86.6007V92.0431C245.068 75.9801 238.545 61.4373 228.001 50.9117C217.456 40.3849 202.887 33.8741 186.795 33.8741C154.612 33.8741 128.523 59.917 128.523 92.0431V86.6007C128.523 54.4759 154.612 28.4319 186.795 28.4319C202.887 28.4319 217.456 34.9429 228.001 45.4698C238.545 55.9966 245.068 70.5377 245.068 86.6007Z" fill="#07828B" stroke="#07828B" stroke-width="0.0559546" stroke-miterlimit="10" stroke-linecap="round" stroke-linejoin="round"/>
<path d="M245.068 157.134V151.692C245.068 167.756 238.545 182.298 228.001 192.823C217.456 203.35 202.887 209.861 186.795 209.861C154.612 209.861 128.523 183.819 128.523 151.692V157.134C128.523 189.259 154.612 215.303 186.795 215.303C202.887 215.303 217.456 208.793 228.001 198.266C238.545 187.739 245.068 173.198 245.068 157.134Z" fill="#099CA7" stroke="#07828B" stroke-width="0.0559546" stroke-miterlimit="10" stroke-linecap="round" stroke-linejoin="round"/>
<path d="M186.997 229.905H186.597C149.002 229.905 118.526 199.484 118.526 161.955V83.0355C118.526 53.6518 137.21 28.6242 163.366 19.146" stroke="#07828B" stroke-opacity="0.2" stroke-width="0.866667" stroke-miterlimit="10" stroke-linecap="round" stroke-linejoin="round"/>
<path d="M255.069 83.0349V161.955" stroke="#07828B" stroke-width="0.706301" stroke-miterlimit="10" stroke-linecap="round" stroke-linejoin="round"/>
<path d="M261.091 166.269C261.091 205.531 229.206 237.36 189.873 237.36H183.722C144.39 237.36 112.504 205.531 112.504 166.269" stroke="#07828B" stroke-opacity="0.2" stroke-width="0.814783" stroke-miterlimit="10" stroke-linecap="round" stroke-linejoin="round"/>
<path d="M112.504 96.4073V80.9962C112.504 41.7338 144.39 9.90454 183.722 9.90454H189.873C210.399 9.90454 228.896 18.572 241.893 32.441" stroke="#07828B" stroke-width="0.42378" stroke-miterlimit="10" stroke-linecap="round" stroke-linejoin="round"/>
<path d="M112.504 96.4073V80.9962C112.504 41.7338 144.39 9.90454 183.722 9.90454H189.873C210.399 9.90454 228.896 18.572 241.893 32.441" stroke="#07828B" stroke-opacity="0.2" stroke-width="0.42378" stroke-miterlimit="10" stroke-linecap="round" stroke-linejoin="round"/>
<g filter="url(#filter0_f_5496_2359)">
<path d="M183.71 258.063C137.564 258.063 100.156 220.722 100.156 174.658V70.3322C100.156 49.4708 107.829 30.3977 120.512 15.7717" stroke="white" stroke-opacity="0.1" stroke-width="0.42378" stroke-miterlimit="10" stroke-linecap="round" stroke-linejoin="round"/>
</g>
<g filter="url(#filter1_f_5496_2359)">
<path d="M237.351 1.68433C259.153 16.7351 273.438 41.8691 273.438 70.3319V138.457" stroke="white" stroke-opacity="0.1" stroke-width="0.42378" stroke-miterlimit="10" stroke-linecap="round" stroke-linejoin="round"/>
</g>
<path d="M0.302246 94.2681V78.8567C0.302246 39.5945 32.188 7.76538 71.5204 7.76538H77.671C98.1965 7.76538 116.694 16.4329 129.69 30.3019" stroke="#07828B" stroke-width="0.42378" stroke-miterlimit="10" stroke-linecap="round" stroke-linejoin="round"/>
<path d="M0.302246 94.2681V78.8567C0.302246 39.5945 32.188 7.76538 71.5204 7.76538H77.671C98.1965 7.76538 116.694 16.4329 129.69 30.3019" stroke="#07828B" stroke-opacity="0.2" stroke-width="0.42378" stroke-miterlimit="10" stroke-linecap="round" stroke-linejoin="round"/>
<path d="M0.996582 163.856V233.358H134.696" stroke="#07828B" stroke-opacity="0.2" stroke-width="0.814783" stroke-miterlimit="10" stroke-linecap="round" stroke-linejoin="round"/>
<path d="M44.9411 26.7404C44.9266 26.7477 44.9125 26.7553 44.8985 26.7631C11.0539 45.6634 9.4793 77.072 11.0529 91.2882C11.1379 92.0557 11.7877 92.6367 12.5613 92.6367H50.4968C50.9237 92.6367 51.3309 92.457 51.6183 92.142C51.906 91.827 52.0471 91.4057 52.0077 90.9816C51.115 81.4042 53.8065 73.7057 58.5105 68.7881C63.198 63.8875 70.015 61.6036 77.7425 63.0549C87.0155 64.7963 92.123 72.0069 93.6167 80.3425C95.1228 88.7492 92.861 97.8861 87.815 102.988C79.0927 111.808 63.0501 124.172 47.6743 135.353C32.3292 146.512 17.7534 156.417 12.0273 160.309L11.7072 160.526C11.2922 160.808 11.0438 161.277 11.0438 161.778V217.657C11.0438 218.494 11.7232 219.172 12.5613 219.172H134.464C135.302 219.172 135.981 218.494 135.981 217.657V182.791C135.981 181.954 135.302 181.276 134.464 181.276H50.3662C63.6574 172.238 78.1015 161.69 90.6921 151.95C104.565 141.217 116.279 131.395 121.692 125.64C141.557 104.517 140.463 74.6795 132.633 55.2288C121.067 26.4906 83.2384 6.91778 44.9411 26.7404Z" fill="url(#paint2_linear_5496_2359)" stroke="url(#paint3_linear_5496_2359)" stroke-width="3.02964" stroke-linejoin="round"/>
<path d="M133.501 81.1735V86.6158C133.501 70.5528 126.979 56.01 116.435 45.4848C105.889 34.9579 91.3209 28.4469 75.2289 28.4469C43.0456 28.4469 16.9565 54.4898 16.9565 86.6158V81.1735C16.9565 49.0486 43.0456 23.0046 75.2289 23.0046C91.3209 23.0046 105.889 29.5157 116.435 40.0425C126.979 50.5693 133.501 65.1104 133.501 81.1735Z" fill="#07828B" stroke="#07828B" stroke-width="0.0559546" stroke-miterlimit="10" stroke-linecap="round" stroke-linejoin="round"/>
<path d="M94.6774 80.5238V85.8109C94.6774 80.2566 92.2698 75.2283 88.3765 71.5887C84.4832 67.9491 79.1059 65.6982 73.1651 65.6982C61.2831 65.6982 51.6528 74.7027 51.6528 85.8109V80.5238C51.6528 69.4156 61.2831 60.4111 73.1651 60.4111C79.1059 60.4111 84.4832 62.6621 88.3765 66.3017C92.2698 69.9413 94.6774 74.9699 94.6774 80.5238Z" fill="#07828B"/>
<path d="M270.417 186.198C270.415 186.201 270.413 186.204 270.411 186.208C270.408 186.212 270.406 186.216 270.404 186.22C268.666 189.204 266.319 191.475 263.345 193.062C260.344 194.664 257.101 195.467 253.592 195.467C250.086 195.467 246.845 194.666 243.846 193.066C240.944 191.477 238.587 189.2 236.768 186.198C234.976 183.24 234.061 179.809 234.061 175.858C234.061 171.906 234.976 168.475 236.768 165.517C238.582 162.522 240.973 160.244 243.952 158.653C243.96 158.649 243.968 158.644 243.976 158.64C246.978 156.968 250.175 156.135 253.592 156.135C257.09 156.135 260.324 156.97 263.322 158.64C263.329 158.644 263.337 158.649 263.345 158.653C266.319 160.241 268.666 162.512 270.404 165.495C270.408 165.502 270.412 165.51 270.417 165.517C272.209 168.475 273.125 171.906 273.125 175.858C273.125 179.809 272.209 183.24 270.417 186.198ZM247.734 169.342L247.73 169.345C246.226 171.035 245.546 173.222 245.546 175.745C245.546 178.272 246.228 180.477 247.704 182.227C247.723 182.249 247.742 182.27 247.761 182.291C249.327 183.946 251.304 184.788 253.592 184.788C255.938 184.788 257.958 183.959 259.536 182.291C259.545 182.282 259.555 182.272 259.564 182.261C261.131 180.512 261.864 178.296 261.864 175.745C261.864 173.205 261.136 171.011 259.55 169.326C257.982 167.585 255.959 166.702 253.592 166.702C251.275 166.702 249.291 167.604 247.734 169.342ZM325.686 229.122C325.682 229.129 325.678 229.137 325.673 229.144C323.936 232.127 321.589 234.398 318.615 235.986C315.614 237.588 312.371 238.391 308.862 238.391C305.353 238.391 302.11 237.588 299.109 235.986C296.13 234.395 293.74 232.117 291.925 229.122C290.133 226.163 289.217 222.732 289.217 218.781C289.217 214.749 290.136 211.283 291.925 208.328C293.74 205.333 296.13 203.055 299.109 201.464C302.11 199.862 305.353 199.059 308.862 199.059C312.371 199.059 315.614 199.862 318.615 201.464C321.589 203.052 323.936 205.323 325.673 208.306C325.678 208.314 325.682 208.321 325.686 208.328C327.476 211.283 328.394 214.749 328.394 218.781C328.394 222.732 327.479 226.163 325.686 229.122ZM303.004 225.185C303.012 225.195 303.022 225.205 303.031 225.215C304.597 226.87 306.573 227.712 308.862 227.712C311.207 227.712 313.228 226.883 314.806 225.215C314.815 225.205 314.824 225.195 314.833 225.185C316.401 223.436 317.134 221.219 317.134 218.669C317.134 216.129 316.406 213.935 314.82 212.25C313.252 210.508 311.228 209.625 308.862 209.625C306.551 209.625 304.572 210.523 303.017 212.25C301.431 213.935 300.703 216.129 300.703 218.669C300.703 221.219 301.436 223.436 303.004 225.185ZM250.075 236.93L297.454 157.708H312.38L265.001 236.93H250.075Z" fill="url(#paint4_linear_5496_2359)" stroke="url(#paint5_linear_5496_2359)" stroke-width="3.02964" stroke-linejoin="round"/>
</g>
<defs>
<filter id="filter0_f_5496_2359" x="98.5317" y="14.1472" width="86.8025" height="245.54" filterUnits="userSpaceOnUse" color-interpolation-filters="sRGB">
<feFlood flood-opacity="0" result="BackgroundImageFix"/>
<feBlend mode="normal" in="SourceGraphic" in2="BackgroundImageFix" result="shape"/>
<feGaussianBlur stdDeviation="0.706301" result="effect1_foregroundBlur_5496_2359"/>
</filter>
<filter id="filter1_f_5496_2359" x="235.727" y="0.0598096" width="39.3355" height="140.022" filterUnits="userSpaceOnUse" color-interpolation-filters="sRGB">
<feFlood flood-opacity="0" result="BackgroundImageFix"/>
<feBlend mode="normal" in="SourceGraphic" in2="BackgroundImageFix" result="shape"/>
<feGaussianBlur stdDeviation="0.706301" result="effect1_foregroundBlur_5496_2359"/>
</filter>
<linearGradient id="paint0_linear_5496_2359" x1="176.032" y1="-12.2869" x2="118.279" y2="174.855" gradientUnits="userSpaceOnUse">
<stop stop-color="#FFFCF2"/>
<stop offset="1" stop-color="#07828B"/>
</linearGradient>
<linearGradient id="paint1_linear_5496_2359" x1="186.798" y1="22.841" x2="249.444" y2="166.355" gradientUnits="userSpaceOnUse">
<stop stop-color="#07828B"/>
<stop offset="0.38" stop-color="#5AB8DB"/>
<stop offset="0.59" stop-color="#07828B"/>
<stop offset="0.905" stop-color="#5AB8DB"/>
</linearGradient>
<linearGradient id="paint2_linear_5496_2359" x1="63.2438" y1="-12.2828" x2="6.36621" y2="171.11" gradientUnits="userSpaceOnUse">
<stop stop-color="#FFFCF2"/>
<stop offset="1" stop-color="#07828B"/>
</linearGradient>
<linearGradient id="paint3_linear_5496_2359" x1="73.7516" y1="22.1713" x2="135.404" y2="162.706" gradientUnits="userSpaceOnUse">
<stop stop-color="#07828B"/>
<stop offset="0.38" stop-color="#05A7B3"/>
<stop offset="0.59" stop-color="#5AB8DB"/>
<stop offset="0.905" stop-color="#07828B"/>
</linearGradient>
<linearGradient id="paint4_linear_5496_2359" x1="287.133" y1="246.751" x2="255.901" y2="121.327" gradientUnits="userSpaceOnUse">
<stop stop-color="#07828B"/>
<stop offset="1" stop-color="#FFFCF2"/>
</linearGradient>
<linearGradient id="paint5_linear_5496_2359" x1="281.227" y1="238.391" x2="281.227" y2="156.135" gradientUnits="userSpaceOnUse">
<stop stop-color="#07828B"/>
<stop offset="1" stop-color="#5AB8DB"/>
</linearGradient>
<clipPath id="clip0_5496_2359">
<rect width="330" height="260" fill="white"/>
</clipPath>
</defs>
</svg>
