<svg width="80" height="81" viewBox="0 0 80 81" fill="none" xmlns="http://www.w3.org/2000/svg">
<path fill-rule="evenodd" clip-rule="evenodd" d="M55.2168 63.3608C61.8115 63.3734 67.2084 58.1124 67.3652 51.5187C67.3982 49.9074 67.1097 48.3057 66.5165 46.8071C65.9234 45.3086 65.0375 43.9433 63.9107 42.7911C62.7839 41.6388 61.4388 40.7226 59.9539 40.0962C58.469 39.4697 56.8741 39.1454 55.2625 39.1424C53.6509 39.1393 52.0548 39.4574 50.5675 40.0782C49.0802 40.699 47.7316 41.61 46.6004 42.758C45.4692 43.906 44.5781 45.2679 43.9793 46.7641C43.3804 48.2604 43.0858 49.861 43.1126 51.4724C43.2442 58.0661 48.621 63.3482 55.2168 63.3608ZM51.7631 19.6934C47.6473 17.8703 43.2758 17.3376 38.7894 17.1755C38.0677 17.2499 37.3435 17.3148 36.6189 17.3798L36.6189 17.3798C34.8092 17.5422 32.9964 17.7048 31.2105 18.0145C28.2694 18.525 25.3863 19.3461 22.9779 21.2513C20.4715 23.2313 20.4715 25.6924 23.0126 27.6082C23.8455 28.261 24.7652 28.7949 25.7452 29.1945C33.701 32.2334 41.8063 32.2913 49.9115 29.8429C51.6465 29.2856 53.2734 28.4358 54.7221 27.3303C56.9105 25.6861 56.8873 23.3524 54.8084 21.5808C53.8873 20.8113 52.8621 20.1759 51.7631 19.6934ZM55.7506 58.7993C56.4001 58.7993 56.9266 58.2728 56.9266 57.6233V56.9426C58.5444 56.7167 59.7503 55.3856 59.7503 53.7276V53.4389C59.7859 51.6532 58.2174 50.1197 56.4359 50.1554H55.3582C54.8401 50.1554 54.4024 49.6977 54.4024 49.1558V48.7269C54.4024 48.2004 54.8133 47.8034 55.3582 47.8034H56.3773C56.6768 47.8034 56.9866 48.0039 56.9866 48.3394C56.9866 48.9889 57.5131 49.5154 58.1626 49.5154C58.8122 49.5154 59.3387 48.9889 59.3387 48.3394C59.3387 46.9299 58.298 45.753 56.9266 45.5012V44.7457C56.8645 43.1853 54.6361 43.1865 54.5745 44.7457V45.5418C53.1266 45.8631 52.0252 47.2322 52.0504 48.7269V49.1558C52.0504 51.0039 53.5342 52.5075 55.3582 52.5075H56.4359C56.9755 52.5075 57.3982 52.9166 57.3982 53.4389V53.7276C57.3982 54.2388 56.9845 54.6244 56.4359 54.6244H54.6845C54.3955 54.6244 54.103 54.4426 54.103 54.0952C54.103 53.4456 53.5764 52.9191 52.9269 52.9191C52.2774 52.9191 51.7509 53.4456 51.7509 54.0952C51.7509 55.6746 52.9824 56.9196 54.5745 56.9745V57.6233C54.5745 58.2728 55.1011 58.7993 55.7506 58.7993ZM56.3735 30.136L56.3735 30.1375V30.1378C56.3811 31.4808 56.3879 32.7024 56.3653 33.924C56.3242 35.4524 55.7337 36.084 54.2179 36.2397C51.136 36.5009 48.1873 37.6135 45.7011 39.4534C45.1037 39.8414 44.4146 40.0651 43.7032 40.1019C37.9663 40.5703 32.2695 40.4545 26.7811 38.4345C25.7052 38.0309 24.6715 37.5229 23.6948 36.9176C21.9579 35.8461 20.899 34.364 21.1074 32.1471C21.187 31.3014 21.1619 30.4457 21.1353 29.5436C21.1216 29.0748 21.1074 28.5934 21.1074 28.0945C24.0484 32.245 28.46 33.0555 32.8421 33.7334C39.0137 34.6945 45.1221 34.3587 51.0327 32.1755C53.1232 31.3997 55.0853 30.364 56.359 27.9092L56.3653 27.8566C56.3653 28.6636 56.3695 29.4172 56.3735 30.136ZM41.6878 44.2962C41.8859 43.7896 42.0807 43.2912 42.2737 42.8048L42.2558 42.7764C41.8064 42.7764 41.3307 42.7878 40.8381 42.7995C39.6809 42.8271 38.431 42.857 37.2126 42.7469C36.9285 42.7223 36.644 42.6983 36.3596 42.6742C30.7566 42.2008 25.1345 41.7257 21.1074 36.7669C21.1713 37.8485 21.1713 38.9328 21.1074 40.0143C20.7368 43.0364 22.2821 44.808 24.7895 46.0354C29.3632 48.2701 34.2263 48.8259 39.2053 48.7859C39.391 48.7657 39.5696 48.7029 39.7271 48.6025C39.8846 48.5021 40.0169 48.3668 40.1137 48.2069C40.6724 46.8938 41.1902 45.5693 41.6878 44.2962ZM25.4842 55.2227C30.3821 57.4122 35.5926 57.7596 40.8032 57.5912L39.6042 51.6048C38.9871 51.5638 38.3627 51.5349 37.7344 51.5058C36.3297 51.4408 34.9058 51.3748 33.5021 51.1712C28.9116 50.5164 24.2916 49.8217 21.1063 45.6301C21.1063 46.1444 21.1186 46.6406 21.1306 47.1243C21.1537 48.0562 21.1756 48.942 21.1063 49.8227C21.0287 50.5924 21.1656 51.3686 21.5019 52.0653C21.8382 52.762 22.3607 53.352 23.0116 53.7701C23.7865 54.3337 24.6147 54.8202 25.4842 55.2227Z" fill="#07828B"/>
</svg>
