<svg width="80" height="80" viewBox="0 0 80 80" fill="none" xmlns="http://www.w3.org/2000/svg">
<path d="M62.733 33.7877L52.0108 20.3494C51.804 20.0898 51.5415 19.88 51.2426 19.7357C50.9438 19.5914 50.6163 19.5162 50.2844 19.5156H30.174C29.5034 19.5156 28.8695 19.8218 28.4476 20.3494L17.7175 33.7877C17.3843 34.2074 17.2098 34.7313 17.2248 35.267C17.2398 35.8028 17.4432 36.3161 17.7994 36.7165L38.4129 59.7544C38.62 59.9839 38.8728 60.1674 39.1552 60.2931C39.4376 60.4187 39.7433 60.4837 40.0524 60.4839C40.6748 60.4839 41.2685 60.2194 41.6897 59.7544L62.6374 36.7245C62.9977 36.3252 63.205 35.8112 63.2226 35.2737C63.2403 34.7361 63.0671 34.2097 62.7337 33.7877H62.733ZM48.5501 32.4429L41.8816 44.1455C41.8685 44.1691 41.8536 44.1917 41.837 44.213C41.8111 44.2622 41.7787 44.3076 41.7407 44.3482L41.6444 44.4538L41.5409 44.5516L41.4072 44.6486L41.3404 44.7018H41.2958C41.2486 44.7288 41.199 44.7514 41.1477 44.7693L41.022 44.8218H40.1774L40.0509 44.7693C39.9996 44.7514 39.9501 44.7288 39.9029 44.7018H39.8583L39.7922 44.6486L39.6585 44.5516L39.555 44.4538L39.4882 44.3482C39.4502 44.3076 39.4178 44.2622 39.3918 44.213C39.3753 44.1917 39.3604 44.1691 39.3473 44.1455L32.6781 32.4429C32.5737 32.2604 32.5083 32.0582 32.486 31.8491C32.4637 31.6401 32.4851 31.4286 32.5487 31.2282C32.6115 31.0285 32.7155 30.8441 32.854 30.6871C32.9926 30.5301 33.1626 30.404 33.353 30.3169C33.7038 30.1739 34.0951 30.1654 34.4519 30.293C34.8086 30.4205 35.1058 30.6753 35.2864 31.0083L39.3473 38.1368C39.4761 38.3632 39.6625 38.5516 39.8875 38.6829C40.1125 38.8142 40.3683 38.8836 40.6288 38.8843C41.1578 38.8843 41.6458 38.5997 41.911 38.1368L45.9719 31.0083C46.1526 30.6753 46.4497 30.4205 46.8064 30.293C47.1632 30.1654 47.5545 30.1739 47.9053 30.3169C48.2834 30.4966 48.5695 30.8308 48.6924 31.2354C48.8145 31.6401 48.7635 32.0785 48.5501 32.4429Z" fill="#07828B"/>
</svg>
