<svg width="80" height="81" viewBox="0 0 80 81" fill="none" xmlns="http://www.w3.org/2000/svg">
<path d="M57.9766 33.8355L57.436 33.8723C55.103 34.035 52.7673 34.2003 50.4343 34.35C50.08 34.3709 49.9409 34.4602 49.8753 34.8512C49.1694 39.2601 48.0331 43.5534 46.2747 47.6631C44.7605 51.206 42.8316 54.4995 40.3595 57.4729C39.1078 58.9765 37.7483 60.3387 36.2708 61.5484C34.5204 62.9945 32.5994 64.2253 30.5104 65.2382C29.4764 65.7369 28.4189 66.1725 27.3376 66.5372C26.3168 66.8785 22.0391 69.0592 22.0391 69.0592L20.0183 68.0436C20.0183 68.0436 20.0052 67.978 20 67.9439C21.076 67.4006 22.1729 66.8968 23.2227 66.3089C26.7367 64.3277 29.6443 61.677 31.854 58.2917C34.2842 54.5756 35.5727 50.4554 36.095 46.0676C36.423 43.3042 36.3653 40.5433 36.1133 37.7799C36.0399 36.9848 35.8903 36.1975 35.7696 35.3656C35.7171 35.3682 35.6672 35.3735 35.6121 35.3787C33.5704 35.5728 29.8989 36.9217 29.8989 36.9217L27.8782 35.9062L41.5772 15.0664L43.598 16.0794C43.598 16.082 52.8592 27.9807 57.9766 33.8355Z" fill="white" stroke="#07828B" stroke-width="0.500001" stroke-miterlimit="10" stroke-linecap="round" stroke-linejoin="round"/>
<path d="M22.0208 68.9598C23.0966 68.4166 24.1937 67.9154 25.2433 67.3249C28.7573 65.3461 31.6651 62.6929 33.8774 59.3101C36.3075 55.5915 37.5961 51.4739 38.1183 47.086C38.4463 44.3226 38.3886 41.5619 38.1367 38.7985C38.0631 38.0033 37.9136 37.216 37.7928 36.384C35.1817 36.5626 32.6045 36.7384 29.9015 36.9246C34.4941 29.9387 39.0237 23.0446 43.6005 16.085C49.0696 22.3466 54.4914 28.5504 59.9999 34.8567C59.7585 34.8724 59.6089 34.883 59.4593 34.8935C57.1236 35.0536 54.7906 35.2215 52.455 35.3684C52.1007 35.3921 51.9617 35.4814 51.8986 35.8723C51.1926 40.2811 50.0563 44.572 48.2981 48.6843C46.7812 52.2271 44.8549 55.5206 42.3828 58.4913C39.6483 61.7796 36.3836 64.3961 32.5363 66.2567C30.3791 67.3012 28.1143 68.0676 25.7419 68.4717C24.5112 68.6816 23.2752 68.8679 22.0417 69.0648C22.0338 69.028 22.0286 68.994 22.0208 68.9598Z" fill="#07828B" stroke="#07828B" stroke-width="0.500001" stroke-miterlimit="10" stroke-linecap="round" stroke-linejoin="round"/>
</svg>
