<svg width="402" height="490" viewBox="0 0 402 490" fill="none" xmlns="http://www.w3.org/2000/svg">
<rect width="402" height="490" fill="url(#paint0_linear_2954_1159)"/>
<path d="M250.017 193.222C241.531 184.751 229.804 179.51 216.853 179.51C190.951 179.51 169.953 200.47 169.953 226.327V279.847C169.953 305.704 190.951 326.665 216.853 326.665C242.756 326.665 263.753 305.704 263.753 279.847V226.327C263.753 213.399 258.503 201.693 250.017 193.222ZM229.394 281.596C229.394 288.511 223.78 294.116 216.853 294.116C209.927 294.116 204.313 288.511 204.313 281.596V224.578C204.313 217.664 209.927 212.059 216.853 212.059C220.317 212.059 223.45 213.459 225.721 215.726C227.992 217.992 229.394 221.121 229.394 224.578V281.596Z" fill="url(#paint1_linear_2954_1159)" stroke="url(#paint2_linear_2954_1159)" stroke-width="2.20338" stroke-linejoin="round"/>
<path d="M230.496 224.578V228.159C230.496 224.397 228.969 220.992 226.5 218.527C224.031 216.062 220.62 214.538 216.852 214.538C209.316 214.538 203.208 220.636 203.208 228.159V224.578C203.208 217.055 209.316 210.957 216.852 210.957C220.62 210.957 224.031 212.481 226.5 214.946C228.969 217.411 230.496 220.817 230.496 224.578Z" fill="#07828B"/>
<path d="M232.709 282.721V286.216C232.709 294.957 225.61 302.044 216.853 302.044C208.096 302.044 200.997 294.957 200.997 286.216V282.721C200.997 291.463 208.096 298.549 216.853 298.549C225.61 298.549 232.709 291.463 232.709 282.721Z" fill="#0AACB8"/>
<path d="M259.231 226.982V230.94C259.231 219.258 254.487 208.682 246.819 201.027C239.15 193.371 228.554 188.636 216.851 188.636C193.445 188.636 174.471 207.576 174.471 230.94V226.982C174.471 203.619 193.445 184.678 216.851 184.678C228.554 184.678 239.15 189.413 246.819 197.069C254.487 204.725 259.231 215.3 259.231 226.982Z" fill="#07828B" stroke="#07828B" stroke-width="0.0406942" stroke-miterlimit="10" stroke-linecap="round" stroke-linejoin="round"/>
<path d="M259.231 278.279V274.321C259.231 286.004 254.487 296.58 246.819 304.235C239.15 311.891 228.554 316.626 216.851 316.626C193.445 316.626 174.471 297.686 174.471 274.321V278.279C174.471 301.643 193.445 320.584 216.851 320.584C228.554 320.584 239.15 315.849 246.819 308.193C254.487 300.537 259.231 289.962 259.231 278.279Z" fill="#099CA7" stroke="#07828B" stroke-width="0.0406942" stroke-miterlimit="10" stroke-linecap="round" stroke-linejoin="round"/>
<path d="M216.997 331.204H216.706C189.365 331.204 167.201 309.079 167.201 281.786V224.389C167.201 203.019 180.789 184.818 199.811 177.924" stroke="#07828B" stroke-opacity="0.2" stroke-width="0.630303" stroke-miterlimit="10" stroke-linecap="round" stroke-linejoin="round"/>
<path d="M266.505 224.389V281.786" stroke="#07828B" stroke-width="0.513674" stroke-miterlimit="10" stroke-linecap="round" stroke-linejoin="round"/>
<path d="M270.885 284.922C270.885 313.477 247.695 336.625 219.09 336.625H214.616C186.011 336.625 162.821 313.477 162.821 284.922" stroke="#07828B" stroke-opacity="0.2" stroke-width="0.59257" stroke-miterlimit="10" stroke-linecap="round" stroke-linejoin="round"/>
<path d="M162.821 234.114V222.906C162.821 194.352 186.011 171.203 214.616 171.203H219.09C234.017 171.203 247.47 177.507 256.922 187.593" stroke="#07828B" stroke-width="0.308204" stroke-miterlimit="10" stroke-linecap="round" stroke-linejoin="round"/>
<path d="M162.821 234.114V222.906C162.821 194.352 186.011 171.203 214.616 171.203H219.09C234.017 171.203 247.47 177.507 256.922 187.593" stroke="#07828B" stroke-opacity="0.2" stroke-width="0.308204" stroke-miterlimit="10" stroke-linecap="round" stroke-linejoin="round"/>
<g filter="url(#filter0_f_2954_1159)">
<path d="M214.607 351.682C181.046 351.682 153.841 324.525 153.841 291.024V215.151C153.841 199.979 159.421 186.107 168.645 175.47" stroke="white" stroke-opacity="0.1" stroke-width="0.308204" stroke-miterlimit="10" stroke-linecap="round" stroke-linejoin="round"/>
</g>
<g filter="url(#filter1_f_2954_1159)">
<path d="M253.619 165.225C269.475 176.171 279.864 194.45 279.864 215.151V264.696" stroke="white" stroke-opacity="0.1" stroke-width="0.308204" stroke-miterlimit="10" stroke-linecap="round" stroke-linejoin="round"/>
</g>
<path d="M81.2197 232.559V221.35C81.2197 192.796 104.409 169.647 133.015 169.647H137.488C152.416 169.647 165.868 175.951 175.32 186.038" stroke="#07828B" stroke-width="0.308204" stroke-miterlimit="10" stroke-linecap="round" stroke-linejoin="round"/>
<path d="M81.2197 232.559V221.35C81.2197 192.796 104.409 169.647 133.015 169.647H137.488C152.416 169.647 165.868 175.951 175.32 186.038" stroke="#07828B" stroke-opacity="0.2" stroke-width="0.308204" stroke-miterlimit="10" stroke-linecap="round" stroke-linejoin="round"/>
<path d="M81.7246 283.168V333.715H178.961" stroke="#07828B" stroke-opacity="0.2" stroke-width="0.59257" stroke-miterlimit="10" stroke-linecap="round" stroke-linejoin="round"/>
<path d="M113.684 183.447C113.674 183.453 113.664 183.458 113.653 183.464C89.0392 197.209 87.8941 220.052 89.0385 230.391C89.1003 230.949 89.5729 231.372 90.1355 231.372H117.725C118.035 231.372 118.332 231.241 118.541 231.012C118.75 230.783 118.853 230.477 118.824 230.168C118.175 223.203 120.132 217.604 123.553 214.027C126.962 210.463 131.92 208.802 137.54 209.858C144.284 211.124 147.999 216.368 149.085 222.431C150.18 228.545 148.535 235.19 144.865 238.9C138.522 245.315 126.855 254.306 115.672 262.438C104.512 270.554 93.9116 277.758 89.7471 280.588L89.5144 280.746C89.2125 280.951 89.0319 281.292 89.0319 281.657V322.296C89.0319 322.904 89.526 323.397 90.1355 323.397H178.792C179.401 323.397 179.896 322.904 179.896 322.296V296.938C179.896 296.33 179.401 295.837 178.792 295.837H117.63C127.296 289.263 137.801 281.593 146.958 274.509C157.047 266.703 165.566 259.56 169.503 255.374C183.95 240.012 183.155 218.312 177.461 204.166C169.048 183.266 141.537 169.031 113.684 183.447Z" fill="url(#paint3_linear_2954_1159)" stroke="url(#paint4_linear_2954_1159)" stroke-width="2.20338" stroke-linejoin="round"/>
<path d="M178.092 223.035V226.993C178.092 215.311 173.348 204.734 165.68 197.08C158.01 189.424 147.415 184.688 135.712 184.688C112.306 184.688 93.332 203.629 93.332 226.993V223.035C93.332 199.672 112.306 180.73 135.712 180.73C147.415 180.73 158.01 185.466 165.68 193.122C173.348 200.777 178.092 211.353 178.092 223.035Z" fill="#07828B" stroke="#07828B" stroke-width="0.0406942" stroke-miterlimit="10" stroke-linecap="round" stroke-linejoin="round"/>
<path d="M149.857 222.562V226.408C149.857 222.368 148.106 218.711 145.274 216.064C142.443 213.417 138.532 211.78 134.211 211.78C125.57 211.78 118.566 218.329 118.566 226.408V222.562C118.566 214.484 125.57 207.935 134.211 207.935C138.532 207.935 142.443 209.572 145.274 212.219C148.106 214.866 149.857 218.523 149.857 222.562Z" fill="#07828B"/>
<path d="M277.667 299.416C277.665 299.419 277.664 299.421 277.662 299.423C277.66 299.427 277.659 299.43 277.657 299.433C276.393 301.602 274.686 303.254 272.524 304.409C270.341 305.574 267.983 306.158 265.431 306.158C262.88 306.158 260.524 305.575 258.342 304.411C256.232 303.256 254.517 301.6 253.195 299.416C251.892 297.265 251.226 294.77 251.226 291.896C251.226 289.022 251.892 286.527 253.195 284.376C254.514 282.197 256.253 280.541 258.419 279.384C258.425 279.381 258.431 279.377 258.437 279.374C260.62 278.158 262.946 277.553 265.431 277.553C267.974 277.553 270.326 278.16 272.506 279.374C272.512 279.377 272.518 279.381 272.524 279.384C274.686 280.538 276.393 282.19 277.657 284.359C277.66 284.365 277.663 284.371 277.667 284.376C278.97 286.527 279.636 289.022 279.636 291.896C279.636 294.77 278.97 297.265 277.667 299.416ZM261.17 287.157L261.167 287.16C260.073 288.388 259.579 289.979 259.579 291.815C259.579 293.652 260.074 295.255 261.148 296.528C261.162 296.544 261.176 296.56 261.19 296.575C262.328 297.778 263.766 298.391 265.431 298.391C267.136 298.391 268.606 297.788 269.753 296.575C269.76 296.568 269.767 296.561 269.773 296.553C270.913 295.281 271.446 293.669 271.446 291.815C271.446 289.967 270.917 288.371 269.763 287.146C268.623 285.879 267.152 285.237 265.431 285.237C263.745 285.237 262.302 285.894 261.17 287.157ZM317.863 330.634C317.859 330.639 317.856 330.644 317.853 330.65C316.589 332.82 314.882 334.471 312.72 335.626C310.537 336.791 308.179 337.375 305.627 337.375C303.075 337.375 300.716 336.791 298.534 335.626C296.367 334.469 294.628 332.812 293.309 330.634C292.006 328.482 291.34 325.987 291.34 323.113C291.34 320.181 292.007 317.66 293.309 315.511C294.628 313.333 296.367 311.676 298.534 310.519C300.716 309.354 303.075 308.77 305.627 308.77C308.179 308.77 310.537 309.354 312.72 310.519C314.882 311.674 316.589 313.325 317.853 315.495C317.856 315.5 317.859 315.506 317.863 315.511C319.164 317.66 319.832 320.181 319.832 323.113C319.832 325.987 319.166 328.482 317.863 330.634ZM301.366 327.77C301.372 327.778 301.379 327.785 301.386 327.792C302.525 328.996 303.962 329.608 305.627 329.608C307.332 329.608 308.802 329.005 309.949 327.792C309.956 327.785 309.963 327.778 309.969 327.77C311.11 326.498 311.642 324.886 311.642 323.031C311.642 321.184 311.113 319.589 309.96 318.363C308.819 317.097 307.348 316.454 305.627 316.454C303.946 316.454 302.507 317.107 301.376 318.363C300.222 319.589 299.693 321.184 299.693 323.031C299.693 324.886 300.226 326.498 301.366 327.77ZM262.872 336.312L297.33 278.697H308.185L273.727 336.312H262.872Z" fill="url(#paint5_linear_2954_1159)" stroke="url(#paint6_linear_2954_1159)" stroke-width="2.20338" stroke-linejoin="round"/>
<defs>
<filter id="filter0_f_2954_1159" x="152.659" y="174.289" width="63.1294" height="178.575" filterUnits="userSpaceOnUse" color-interpolation-filters="sRGB">
<feFlood flood-opacity="0" result="BackgroundImageFix"/>
<feBlend mode="normal" in="SourceGraphic" in2="BackgroundImageFix" result="shape"/>
<feGaussianBlur stdDeviation="0.513674" result="effect1_foregroundBlur_2954_1159"/>
</filter>
<filter id="filter1_f_2954_1159" x="252.437" y="164.043" width="28.6079" height="101.834" filterUnits="userSpaceOnUse" color-interpolation-filters="sRGB">
<feFlood flood-opacity="0" result="BackgroundImageFix"/>
<feBlend mode="normal" in="SourceGraphic" in2="BackgroundImageFix" result="shape"/>
<feGaussianBlur stdDeviation="0.513674" result="effect1_foregroundBlur_2954_1159"/>
</filter>
<linearGradient id="paint0_linear_2954_1159" x1="183.831" y1="-318.111" x2="174.274" y2="490.064" gradientUnits="userSpaceOnUse">
<stop stop-color="#07828B"/>
<stop offset="1" stop-opacity="0"/>
</linearGradient>
<linearGradient id="paint1_linear_2954_1159" x1="209.023" y1="155.064" x2="167.022" y2="291.167" gradientUnits="userSpaceOnUse">
<stop stop-color="#FFFCF2"/>
<stop offset="1" stop-color="#07828B"/>
</linearGradient>
<linearGradient id="paint2_linear_2954_1159" x1="216.853" y1="180.611" x2="262.414" y2="284.985" gradientUnits="userSpaceOnUse">
<stop stop-color="#07828B"/>
<stop offset="0.38" stop-color="#5AB8DB"/>
<stop offset="0.59" stop-color="#07828B"/>
<stop offset="0.905" stop-color="#5AB8DB"/>
</linearGradient>
<linearGradient id="paint3_linear_2954_1159" x1="126.996" y1="155.067" x2="85.63" y2="288.443" gradientUnits="userSpaceOnUse">
<stop stop-color="#FFFCF2"/>
<stop offset="1" stop-color="#07828B"/>
</linearGradient>
<linearGradient id="paint4_linear_2954_1159" x1="134.638" y1="180.124" x2="179.475" y2="282.332" gradientUnits="userSpaceOnUse">
<stop stop-color="#07828B"/>
<stop offset="0.38" stop-color="#05A7B3"/>
<stop offset="0.59" stop-color="#5AB8DB"/>
<stop offset="0.905" stop-color="#07828B"/>
</linearGradient>
<linearGradient id="paint5_linear_2954_1159" x1="289.824" y1="343.455" x2="267.109" y2="252.237" gradientUnits="userSpaceOnUse">
<stop stop-color="#07828B"/>
<stop offset="1" stop-color="#FFFCF2"/>
</linearGradient>
<linearGradient id="paint6_linear_2954_1159" x1="285.529" y1="337.375" x2="285.529" y2="277.553" gradientUnits="userSpaceOnUse">
<stop stop-color="#07828B"/>
<stop offset="1" stop-color="#5AB8DB"/>
</linearGradient>
</defs>
</svg>
