<svg width="1920" height="490" viewBox="0 0 1920 490" fill="none" xmlns="http://www.w3.org/2000/svg">
<rect width="1920" height="489.828" fill="url(#paint0_linear_3150_1877)"/>
<g clip-path="url(#clip0_3150_1877)">
<mask id="mask0_3150_1877" style="mask-type:alpha" maskUnits="userSpaceOnUse" x="-217" y="-148" width="2341" height="637">
<path d="M2124 -147.948H-217V488.829H2124V-147.948Z" fill="white"/>
</mask>
<g mask="url(#mask0_3150_1877)">
<path d="M160.676 329.311L-357.395 489.607H2254.57L1777.21 336.111" stroke="#5AB8DB" stroke-opacity="0.15"/>
<path d="M-171.18 489.57L224.199 349.698H1686.24L2077.76 484.187L-171.18 489.57Z" stroke="#5AB8DB" stroke-opacity="0.15"/>
<path d="M-10 489.568L328.74 349.698H1581.16L1920 489.568" stroke="#5AB8DB" stroke-opacity="0.15"/>
<path d="M144.991 489.568L429.269 349.698H1480.12L1761.63 484.188L144.991 489.568Z" stroke="#5AB8DB" stroke-opacity="0.15"/>
<path d="M281.4 489.568L517.755 349.698H1391.17L1625.23 484.188L281.4 489.568Z" stroke="#5AB8DB" stroke-opacity="0.15"/>
<path d="M424.047 489.567L610.298 349.698H1298.17L1482.61 484.189L424.047 489.567Z" stroke="#5AB8DB" stroke-opacity="0.15"/>
<path d="M566.737 489.565L702.884 349.698H1205.12L1339.95 484.191" stroke="#5AB8DB" stroke-opacity="0.15"/>
<path d="M709.494 489.56L795.535 349.698H1111.99L1197.2 484.196" stroke="#5AB8DB" stroke-opacity="0.15"/>
<path d="M871.016 489.526L900.415 349.698H1006.56L1038 489.526" stroke="#5AB8DB" stroke-opacity="0.15"/>
<path d="M-360.033 -163.903L138.024 52.5072L1773 52.5062L2257.17 -163.903H-360.033Z" stroke="#07828B" stroke-opacity="0.3"/>
<path d="M-34.6353 620.782V406.301C-10.2729 280.988 602.418 83.6175 1070.17 296.652C1537.93 509.685 1887.85 228.205 1933.65 60.5972V615.487" stroke="url(#paint1_linear_3150_1877)"/>
<path d="M1817.67 233.124C1823.56 233.124 1828.33 228.748 1828.33 223.35C1828.33 217.952 1823.56 213.576 1817.67 213.576C1811.78 213.576 1807 217.952 1807 223.35C1807 228.748 1811.78 233.124 1817.67 233.124Z" fill="#07828B"/>
<path d="M158.333 286.676C164.593 286.676 169.667 282.027 169.667 276.291C169.667 270.556 164.593 265.907 158.333 265.907C152.074 265.907 147 270.556 147 276.291C147 282.027 152.074 286.676 158.333 286.676Z" fill="#07828B"/>
<path d="M-36.2559 399.042L1949.65 400.885" stroke="#5AB8DB" stroke-opacity="0.15"/>
<path d="M-186.108 446.642H2105.28" stroke="#5AB8DB" stroke-opacity="0.15"/>
</g>
</g>
<g clip-path="url(#clip1_3150_1877)">
<path d="M1412.4 201.484C1400.73 189.836 1384.61 182.63 1366.8 182.63C1331.18 182.63 1302.31 211.451 1302.31 247.003V320.594C1302.31 356.147 1331.18 384.968 1366.8 384.968C1402.41 384.968 1431.29 356.147 1431.29 320.594V247.003C1431.29 229.227 1424.07 213.131 1412.4 201.484ZM1384.04 322.999C1384.04 332.506 1376.32 340.213 1366.8 340.213C1357.27 340.213 1349.55 332.506 1349.55 322.999V244.599C1349.55 235.091 1357.27 227.385 1366.8 227.385C1371.56 227.385 1375.87 229.31 1378.99 232.426C1382.11 235.543 1384.04 239.845 1384.04 244.599V322.999Z" fill="url(#paint2_linear_3150_1877)" stroke="url(#paint3_linear_3150_1877)" stroke-width="3.02964" stroke-linejoin="round"/>
<path d="M1385.56 244.598V249.522C1385.56 244.35 1383.46 239.667 1380.06 236.278C1376.67 232.888 1371.98 230.792 1366.8 230.792C1356.43 230.792 1348.04 239.178 1348.04 249.522V244.598C1348.04 234.254 1356.43 225.869 1366.8 225.869C1371.98 225.869 1376.67 227.965 1380.06 231.354C1383.46 234.744 1385.56 239.426 1385.56 244.598Z" fill="#07828B"/>
<path d="M1388.6 324.545V329.35C1388.6 341.369 1378.84 351.114 1366.8 351.114C1354.76 351.114 1345 341.369 1345 329.35V324.545C1345 336.566 1354.76 346.309 1366.8 346.309C1378.84 346.309 1388.6 336.566 1388.6 324.545Z" fill="#03A9B5"/>
<path d="M1425.07 247.904V253.347C1425.07 237.284 1418.55 222.741 1408 212.215C1397.46 201.688 1382.89 195.178 1366.8 195.178C1334.61 195.178 1308.52 221.221 1308.52 253.347V247.904C1308.52 215.779 1334.61 189.735 1366.8 189.735C1382.89 189.735 1397.46 196.246 1408 206.773C1418.55 217.3 1425.07 231.841 1425.07 247.904Z" fill="#07828B" stroke="#07828B" stroke-width="0.0559546" stroke-miterlimit="10" stroke-linecap="round" stroke-linejoin="round"/>
<path d="M1425.07 318.438V312.996C1425.07 329.059 1418.55 343.601 1408 354.127C1397.46 364.654 1382.89 371.165 1366.8 371.165C1334.61 371.165 1308.52 345.122 1308.52 312.996V318.438C1308.52 350.563 1334.61 376.607 1366.8 376.607C1382.89 376.607 1397.46 370.096 1408 359.569C1418.55 349.043 1425.07 334.501 1425.07 318.438Z" fill="#099CA7" stroke="#07828B" stroke-width="0.0559546" stroke-miterlimit="10" stroke-linecap="round" stroke-linejoin="round"/>
<path d="M1367 391.209H1366.6C1329 391.209 1298.53 360.787 1298.53 323.259V244.339C1298.53 214.955 1317.21 189.928 1343.37 180.449" stroke="#07828B" stroke-opacity="0.2" stroke-width="0.866667" stroke-miterlimit="10" stroke-linecap="round" stroke-linejoin="round"/>
<path d="M1435.07 244.338V323.258" stroke="#07828B" stroke-width="0.706301" stroke-miterlimit="10" stroke-linecap="round" stroke-linejoin="round"/>
<path d="M1441.09 327.572C1441.09 366.834 1409.21 398.664 1369.87 398.664H1363.72C1324.39 398.664 1292.5 366.834 1292.5 327.572" stroke="#07828B" stroke-opacity="0.2" stroke-width="0.814783" stroke-miterlimit="10" stroke-linecap="round" stroke-linejoin="round"/>
<path d="M1292.5 257.711V242.3C1292.5 203.037 1324.39 171.208 1363.72 171.208H1369.87C1390.4 171.208 1408.9 179.875 1421.89 193.744" stroke="#07828B" stroke-width="0.42378" stroke-miterlimit="10" stroke-linecap="round" stroke-linejoin="round"/>
<path d="M1292.5 257.711V242.3C1292.5 203.037 1324.39 171.208 1363.72 171.208H1369.87C1390.4 171.208 1408.9 179.875 1421.89 193.744" stroke="#07828B" stroke-opacity="0.2" stroke-width="0.42378" stroke-miterlimit="10" stroke-linecap="round" stroke-linejoin="round"/>
<g filter="url(#filter0_f_3150_1877)">
<path d="M1363.71 419.366C1317.56 419.366 1280.16 382.025 1280.16 335.961V231.636C1280.16 210.774 1287.83 191.701 1300.51 177.075" stroke="white" stroke-opacity="0.1" stroke-width="0.42378" stroke-miterlimit="10" stroke-linecap="round" stroke-linejoin="round"/>
</g>
<g filter="url(#filter1_f_3150_1877)">
<path d="M1417.35 162.988C1439.15 178.039 1453.44 203.173 1453.44 231.635V299.761" stroke="white" stroke-opacity="0.1" stroke-width="0.42378" stroke-miterlimit="10" stroke-linecap="round" stroke-linejoin="round"/>
</g>
<path d="M1180.3 255.572V240.16C1180.3 200.898 1212.19 169.069 1251.52 169.069H1257.67C1278.2 169.069 1296.69 177.736 1309.69 191.605" stroke="#07828B" stroke-width="0.42378" stroke-miterlimit="10" stroke-linecap="round" stroke-linejoin="round"/>
<path d="M1180.3 255.572V240.16C1180.3 200.898 1212.19 169.069 1251.52 169.069H1257.67C1278.2 169.069 1296.69 177.736 1309.69 191.605" stroke="#07828B" stroke-opacity="0.2" stroke-width="0.42378" stroke-miterlimit="10" stroke-linecap="round" stroke-linejoin="round"/>
<path d="M1181 325.16V394.662H1314.7" stroke="#07828B" stroke-opacity="0.2" stroke-width="0.814783" stroke-miterlimit="10" stroke-linecap="round" stroke-linejoin="round"/>
<path d="M1224.94 188.044C1224.93 188.051 1224.91 188.059 1224.9 188.067C1191.05 206.967 1189.48 238.376 1191.05 252.592C1191.14 253.359 1191.79 253.94 1192.56 253.94H1230.5C1230.92 253.94 1231.33 253.76 1231.62 253.445C1231.91 253.131 1232.05 252.709 1232.01 252.285C1231.11 242.708 1233.81 235.009 1238.51 230.092C1243.2 225.191 1250.01 222.907 1257.74 224.358C1267.02 226.1 1272.12 233.31 1273.62 241.646C1275.12 250.053 1272.86 259.19 1267.81 264.292C1259.09 273.112 1243.05 285.475 1227.67 296.656C1212.33 307.815 1197.75 317.721 1192.03 321.612L1191.71 321.829C1191.29 322.112 1191.04 322.581 1191.04 323.082V378.96C1191.04 379.797 1191.72 380.475 1192.56 380.475H1314.46C1315.3 380.475 1315.98 379.797 1315.98 378.96V344.094C1315.98 343.257 1315.3 342.579 1314.46 342.579H1230.37C1243.66 333.541 1258.1 322.994 1270.69 313.253C1284.56 302.521 1296.28 292.699 1301.69 286.943C1321.56 265.82 1320.46 235.983 1312.63 216.532C1301.07 187.794 1263.24 168.221 1224.94 188.044Z" fill="url(#paint4_linear_3150_1877)" stroke="url(#paint5_linear_3150_1877)" stroke-width="3.02964" stroke-linejoin="round"/>
<path d="M1313.5 242.477V247.919C1313.5 231.856 1306.98 217.313 1296.43 206.788C1285.89 196.261 1271.32 189.75 1255.23 189.75C1223.05 189.75 1196.96 215.793 1196.96 247.919V242.477C1196.96 210.352 1223.05 184.308 1255.23 184.308C1271.32 184.308 1285.89 190.819 1296.43 201.346C1306.98 211.873 1313.5 226.414 1313.5 242.477Z" fill="#07828B" stroke="#07828B" stroke-width="0.0559546" stroke-miterlimit="10" stroke-linecap="round" stroke-linejoin="round"/>
<path d="M1274.68 241.827V247.114C1274.68 241.56 1272.27 236.532 1268.38 232.892C1264.48 229.253 1259.11 227.002 1253.17 227.002C1241.28 227.002 1231.65 236.006 1231.65 247.114V241.827C1231.65 230.719 1241.28 221.715 1253.17 221.715C1259.11 221.715 1264.48 223.966 1268.38 227.605C1272.27 231.245 1274.68 236.273 1274.68 241.827Z" fill="#07828B"/>
<path d="M1450.42 347.501C1450.41 347.505 1450.41 347.508 1450.41 347.511C1450.41 347.516 1450.41 347.52 1450.4 347.524C1448.67 350.507 1446.32 352.778 1443.35 354.366C1440.34 355.968 1437.1 356.771 1433.59 356.771C1430.09 356.771 1426.85 355.969 1423.85 354.369C1420.94 352.781 1418.59 350.504 1416.77 347.501C1414.98 344.543 1414.06 341.112 1414.06 337.161C1414.06 333.21 1414.98 329.779 1416.77 326.821C1418.58 323.825 1420.97 321.547 1423.95 319.957C1423.96 319.952 1423.97 319.948 1423.98 319.943C1426.98 318.271 1430.18 317.439 1433.59 317.439C1437.09 317.439 1440.32 318.274 1443.32 319.943C1443.33 319.948 1443.34 319.952 1443.35 319.957C1446.32 321.544 1448.67 323.815 1450.4 326.798C1450.41 326.806 1450.41 326.813 1450.42 326.821C1452.21 329.779 1453.12 333.21 1453.12 337.161C1453.12 341.112 1452.21 344.543 1450.42 347.501ZM1427.73 330.645L1427.73 330.649C1426.23 332.338 1425.55 334.525 1425.55 337.049C1425.55 339.576 1426.23 341.78 1427.7 343.53C1427.72 343.553 1427.74 343.574 1427.76 343.595C1429.33 345.249 1431.3 346.092 1433.59 346.092C1435.94 346.092 1437.96 345.263 1439.54 343.595C1439.55 343.585 1439.55 343.575 1439.56 343.565C1441.13 341.816 1441.86 339.599 1441.86 337.049C1441.86 334.509 1441.14 332.315 1439.55 330.63C1437.98 328.888 1435.96 328.005 1433.59 328.005C1431.28 328.005 1429.29 328.908 1427.73 330.645ZM1505.69 390.425C1505.68 390.432 1505.68 390.44 1505.67 390.447C1503.94 393.431 1501.59 395.701 1498.61 397.289C1495.61 398.892 1492.37 399.694 1488.86 399.694C1485.35 399.694 1482.11 398.892 1479.11 397.289C1476.13 395.699 1473.74 393.421 1471.93 390.425C1470.13 387.466 1469.22 384.036 1469.22 380.085C1469.22 376.053 1470.14 372.586 1471.93 369.632C1473.74 366.636 1476.13 364.358 1479.11 362.768C1482.11 361.166 1485.35 360.362 1488.86 360.362C1492.37 360.362 1495.61 361.166 1498.61 362.768C1501.59 364.355 1503.94 366.626 1505.67 369.609C1505.68 369.617 1505.68 369.624 1505.69 369.632C1507.48 372.586 1508.39 376.053 1508.39 380.085C1508.39 384.036 1507.48 387.466 1505.69 390.425ZM1483 386.488C1483.01 386.498 1483.02 386.508 1483.03 386.518C1484.6 388.173 1486.57 389.016 1488.86 389.016C1491.21 389.016 1493.23 388.186 1494.81 386.518C1494.81 386.508 1494.82 386.498 1494.83 386.488C1496.4 384.739 1497.13 382.522 1497.13 379.972C1497.13 377.432 1496.41 375.238 1494.82 373.554C1493.25 371.812 1491.23 370.929 1488.86 370.929C1486.55 370.929 1484.57 371.826 1483.02 373.554C1481.43 375.238 1480.7 377.432 1480.7 379.972C1480.7 382.522 1481.44 384.739 1483 386.488ZM1430.07 398.234L1477.45 319.012H1492.38L1445 398.234H1430.07Z" fill="url(#paint6_linear_3150_1877)" stroke="url(#paint7_linear_3150_1877)" stroke-width="3.02964" stroke-linejoin="round"/>
</g>
<defs>
<filter id="filter0_f_3150_1877" x="1278.53" y="175.451" width="86.8027" height="245.54" filterUnits="userSpaceOnUse" color-interpolation-filters="sRGB">
<feFlood flood-opacity="0" result="BackgroundImageFix"/>
<feBlend mode="normal" in="SourceGraphic" in2="BackgroundImageFix" result="shape"/>
<feGaussianBlur stdDeviation="0.706301" result="effect1_foregroundBlur_3150_1877"/>
</filter>
<filter id="filter1_f_3150_1877" x="1415.73" y="161.363" width="39.3359" height="140.022" filterUnits="userSpaceOnUse" color-interpolation-filters="sRGB">
<feFlood flood-opacity="0" result="BackgroundImageFix"/>
<feBlend mode="normal" in="SourceGraphic" in2="BackgroundImageFix" result="shape"/>
<feGaussianBlur stdDeviation="0.706301" result="effect1_foregroundBlur_3150_1877"/>
</filter>
<linearGradient id="paint0_linear_3150_1877" x1="878" y1="-318" x2="876" y2="490" gradientUnits="userSpaceOnUse">
<stop stop-color="#07828B"/>
<stop offset="1" stop-opacity="0"/>
</linearGradient>
<linearGradient id="paint1_linear_3150_1877" x1="2040" y1="163.18" x2="-61.378" y2="460.181" gradientUnits="userSpaceOnUse">
<stop stop-color="#07828B"/>
<stop offset="0.632936" stop-color="#2495A7" stop-opacity="0"/>
<stop offset="0.662002" stop-color="#5AB8DB" stop-opacity="0"/>
<stop offset="1" stop-color="#07828B"/>
</linearGradient>
<linearGradient id="paint2_linear_3150_1877" x1="1356.03" y1="149.017" x2="1298.28" y2="336.159" gradientUnits="userSpaceOnUse">
<stop stop-color="#FFFCF2"/>
<stop offset="1" stop-color="#07828B"/>
</linearGradient>
<linearGradient id="paint3_linear_3150_1877" x1="1366.8" y1="184.144" x2="1429.44" y2="327.658" gradientUnits="userSpaceOnUse">
<stop stop-color="#07828B"/>
<stop offset="0.38" stop-color="#5AB8DB"/>
<stop offset="0.59" stop-color="#07828B"/>
<stop offset="0.905" stop-color="#5AB8DB"/>
</linearGradient>
<linearGradient id="paint4_linear_3150_1877" x1="1243.24" y1="149.021" x2="1186.37" y2="332.414" gradientUnits="userSpaceOnUse">
<stop stop-color="#FFFCF2"/>
<stop offset="1" stop-color="#07828B"/>
</linearGradient>
<linearGradient id="paint5_linear_3150_1877" x1="1253.75" y1="183.475" x2="1315.4" y2="324.01" gradientUnits="userSpaceOnUse">
<stop stop-color="#07828B"/>
<stop offset="0.38" stop-color="#05A7B3"/>
<stop offset="0.59" stop-color="#5AB8DB"/>
<stop offset="0.905" stop-color="#07828B"/>
</linearGradient>
<linearGradient id="paint6_linear_3150_1877" x1="1467.13" y1="408.055" x2="1435.9" y2="282.63" gradientUnits="userSpaceOnUse">
<stop stop-color="#07828B"/>
<stop offset="1" stop-color="#FFFCF2"/>
</linearGradient>
<linearGradient id="paint7_linear_3150_1877" x1="1461.23" y1="399.694" x2="1461.23" y2="317.439" gradientUnits="userSpaceOnUse">
<stop stop-color="#07828B"/>
<stop offset="1" stop-color="#5AB8DB"/>
</linearGradient>
<clipPath id="clip0_3150_1877">
<rect width="1920" height="488.829" fill="white"/>
</clipPath>
<clipPath id="clip1_3150_1877">
<rect width="330" height="260" fill="white" transform="translate(1180 161.303)"/>
</clipPath>
</defs>
</svg>
