<svg width="426" height="233" viewBox="0 0 426 233" fill="none" xmlns="http://www.w3.org/2000/svg">
<rect width="426" height="233" rx="24" fill="#CDE6E8"/>
<path d="M37.48 55V48.02L37.62 49L31.96 41H35.42L39.74 47.2L38.38 47.14L42.28 41H45.62L40.2 49.22L40.5 47.86V55H37.48ZM47.3942 55V41H50.1342L55.2342 49.3L53.4342 49.28L58.5942 41H61.2142V55H58.2742V50.2C58.2742 49 58.3009 47.92 58.3542 46.96C58.4209 46 58.5276 45.0467 58.6742 44.1L59.0342 45.04L54.9342 51.4H53.6142L49.5942 45.08L49.9342 44.1C50.0809 44.9933 50.1809 45.9133 50.2342 46.86C50.3009 47.7933 50.3342 48.9067 50.3342 50.2V55H47.3942ZM64.8552 55V41H74.3152V43.64H67.7952V52.36H74.4552V55H64.8552ZM66.2552 49.14V46.58H73.3552V49.14H66.2552ZM85.8705 55L81.5305 48.72L75.9705 41H79.6505L83.8905 47.2L89.5505 55H85.8705ZM75.8705 55L81.2105 47.38L83.4905 48.96L79.3505 55H75.8705ZM84.2105 48.5L81.9505 46.98L85.8705 41H89.3505L84.2105 48.5ZM103.788 55.2C102.761 55.2 101.815 55.0267 100.948 54.68C100.095 54.32 99.3481 53.82 98.7081 53.18C98.0815 52.5267 97.5948 51.76 97.2481 50.88C96.9015 49.9867 96.7281 49.0133 96.7281 47.96C96.7281 46.9333 96.9081 45.9867 97.2681 45.12C97.6281 44.24 98.1348 43.48 98.7881 42.84C99.4415 42.1867 100.208 41.68 101.088 41.32C101.968 40.96 102.921 40.78 103.948 40.78C104.615 40.78 105.268 40.8733 105.908 41.06C106.561 41.2333 107.155 41.4933 107.688 41.84C108.235 42.1867 108.701 42.6 109.088 43.08L107.208 45.16C106.901 44.84 106.575 44.5667 106.228 44.34C105.881 44.1 105.515 43.92 105.128 43.8C104.755 43.6667 104.355 43.6 103.928 43.6C103.355 43.6 102.815 43.7067 102.308 43.92C101.815 44.1333 101.381 44.4333 101.008 44.82C100.635 45.1933 100.335 45.6533 100.108 46.2C99.8948 46.7333 99.7881 47.3267 99.7881 47.98C99.7881 48.6467 99.8948 49.2533 100.108 49.8C100.321 50.3333 100.621 50.7933 101.008 51.18C101.395 51.5533 101.855 51.8467 102.388 52.06C102.935 52.26 103.535 52.36 104.188 52.36C104.615 52.36 105.028 52.3 105.428 52.18C105.828 52.06 106.195 51.8933 106.528 51.68C106.875 51.4667 107.181 51.22 107.448 50.94L108.928 53.28C108.595 53.64 108.155 53.9667 107.608 54.26C107.075 54.5533 106.475 54.7867 105.808 54.96C105.141 55.12 104.468 55.2 103.788 55.2ZM115.957 55.2C114.877 55.2 113.911 54.9667 113.057 54.5C112.217 54.02 111.551 53.3667 111.057 52.54C110.577 51.7133 110.337 50.7667 110.337 49.7C110.337 48.6333 110.577 47.6867 111.057 46.86C111.551 46.0333 112.217 45.3867 113.057 44.92C113.911 44.44 114.877 44.2 115.957 44.2C117.024 44.2 117.977 44.44 118.817 44.92C119.671 45.3867 120.337 46.0333 120.817 46.86C121.297 47.6867 121.537 48.6333 121.537 49.7C121.537 50.7667 121.297 51.7133 120.817 52.54C120.337 53.3667 119.671 54.02 118.817 54.5C117.977 54.9667 117.024 55.2 115.957 55.2ZM115.957 52.72C116.477 52.72 116.944 52.5933 117.357 52.34C117.771 52.0733 118.091 51.7133 118.317 51.26C118.557 50.7933 118.671 50.2733 118.657 49.7C118.671 49.1133 118.557 48.5933 118.317 48.14C118.091 47.6733 117.771 47.3133 117.357 47.06C116.944 46.7933 116.477 46.66 115.957 46.66C115.424 46.66 114.951 46.7933 114.537 47.06C114.124 47.3267 113.797 47.6867 113.557 48.14C113.317 48.5933 113.204 49.1133 113.217 49.7C113.204 50.2733 113.317 50.7933 113.557 51.26C113.797 51.7133 114.124 52.0733 114.537 52.34C114.951 52.5933 115.424 52.72 115.957 52.72ZM123.693 59.4V44.42H126.433L126.513 46.8L125.993 46.62C126.087 46.1933 126.313 45.8 126.673 45.44C127.047 45.08 127.507 44.7867 128.053 44.56C128.6 44.3333 129.173 44.22 129.773 44.22C130.693 44.22 131.513 44.46 132.233 44.94C132.953 45.4067 133.52 46.0533 133.933 46.88C134.347 47.6933 134.553 48.6333 134.553 49.7C134.553 50.7533 134.347 51.6933 133.933 52.52C133.52 53.3467 132.953 54 132.233 54.48C131.513 54.9467 130.693 55.18 129.773 55.18C129.16 55.18 128.573 55.0667 128.013 54.84C127.467 54.6 127 54.2867 126.613 53.9C126.24 53.5133 126 53.1 125.893 52.66L126.553 52.38V59.4H123.693ZM129.133 52.74C129.653 52.74 130.113 52.6133 130.513 52.36C130.913 52.1067 131.227 51.7533 131.453 51.3C131.68 50.8333 131.793 50.3 131.793 49.7C131.793 49.1 131.68 48.5733 131.453 48.12C131.227 47.6667 130.913 47.3133 130.513 47.06C130.127 46.8067 129.667 46.68 129.133 46.68C128.6 46.68 128.133 46.8067 127.733 47.06C127.333 47.3 127.02 47.6533 126.793 48.12C126.567 48.5733 126.453 49.1 126.453 49.7C126.453 50.3 126.567 50.8333 126.793 51.3C127.02 51.7533 127.333 52.1067 127.733 52.36C128.133 52.6133 128.6 52.74 129.133 52.74ZM137.791 59.6L140.111 54.16L140.151 55.8L134.991 44.42H138.211L140.791 50.52C140.897 50.7467 140.997 51.0133 141.091 51.32C141.197 51.6133 141.284 51.8933 141.351 52.16L140.871 52.38C140.964 52.1533 141.057 51.8933 141.151 51.6C141.257 51.3067 141.364 50.9933 141.471 50.66L143.691 44.42H146.931L142.491 55L140.671 59.6H137.791ZM157.912 55V43.7H153.832V41H165.112V43.7H160.912V55H157.912ZM165.998 55V44.42H168.738L168.838 47.82L168.358 47.12C168.518 46.5733 168.778 46.08 169.138 45.64C169.498 45.1867 169.918 44.8333 170.398 44.58C170.891 44.3267 171.405 44.2 171.938 44.2C172.165 44.2 172.385 44.22 172.598 44.26C172.811 44.3 172.991 44.3467 173.138 44.4L172.378 47.52C172.231 47.44 172.038 47.3733 171.798 47.32C171.571 47.2533 171.338 47.22 171.098 47.22C170.778 47.22 170.478 47.28 170.198 47.4C169.931 47.5067 169.698 47.6667 169.498 47.88C169.298 48.08 169.138 48.32 169.018 48.6C168.911 48.88 168.858 49.1867 168.858 49.52V55H165.998ZM178.278 55.2C177.398 55.2 176.605 54.96 175.898 54.48C175.192 54 174.632 53.3467 174.218 52.52C173.805 51.6933 173.598 50.7467 173.598 49.68C173.598 48.6133 173.805 47.6667 174.218 46.84C174.645 46.0133 175.218 45.3667 175.938 44.9C176.658 44.4333 177.478 44.2 178.398 44.2C178.918 44.2 179.392 44.28 179.818 44.44C180.258 44.5867 180.638 44.7933 180.958 45.06C181.292 45.3267 181.572 45.6333 181.798 45.98C182.025 46.3267 182.185 46.7 182.278 47.1L181.678 47V44.42H184.498V55H181.638V52.46L182.278 52.4C182.172 52.7733 181.998 53.1267 181.758 53.46C181.518 53.7933 181.218 54.0933 180.858 54.36C180.512 54.6133 180.118 54.82 179.678 54.98C179.238 55.1267 178.772 55.2 178.278 55.2ZM179.058 52.74C179.592 52.74 180.058 52.6133 180.458 52.36C180.858 52.1067 181.165 51.7533 181.378 51.3C181.605 50.8333 181.718 50.2933 181.718 49.68C181.718 49.08 181.605 48.5533 181.378 48.1C181.165 47.6467 180.858 47.2933 180.458 47.04C180.058 46.7733 179.592 46.64 179.058 46.64C178.538 46.64 178.078 46.7733 177.678 47.04C177.292 47.2933 176.985 47.6467 176.758 48.1C176.532 48.5533 176.418 49.08 176.418 49.68C176.418 50.2933 176.532 50.8333 176.758 51.3C176.985 51.7533 177.292 52.1067 177.678 52.36C178.078 52.6133 178.538 52.74 179.058 52.74ZM191.486 55.2C190.552 55.2 189.719 54.9667 188.986 54.5C188.266 54.02 187.692 53.3733 187.266 52.56C186.852 51.7333 186.646 50.78 186.646 49.7C186.646 48.6467 186.852 47.7067 187.266 46.88C187.692 46.04 188.266 45.3867 188.986 44.92C189.719 44.44 190.552 44.2 191.486 44.2C191.979 44.2 192.452 44.28 192.906 44.44C193.372 44.5867 193.786 44.7933 194.146 45.06C194.519 45.3267 194.819 45.6267 195.046 45.96C195.272 46.28 195.399 46.6133 195.426 46.96L194.706 47.1V40.2H197.566V55H194.866L194.746 52.56L195.306 52.62C195.279 52.9533 195.159 53.2733 194.946 53.58C194.732 53.8867 194.446 54.1667 194.086 54.42C193.739 54.66 193.339 54.8533 192.886 55C192.446 55.1333 191.979 55.2 191.486 55.2ZM192.126 52.84C192.659 52.84 193.126 52.7067 193.526 52.44C193.926 52.1733 194.239 51.8067 194.466 51.34C194.692 50.8733 194.806 50.3267 194.806 49.7C194.806 49.0867 194.692 48.5467 194.466 48.08C194.239 47.6133 193.926 47.2467 193.526 46.98C193.126 46.7133 192.659 46.58 192.126 46.58C191.592 46.58 191.126 46.7133 190.726 46.98C190.339 47.2467 190.032 47.6133 189.806 48.08C189.592 48.5467 189.486 49.0867 189.486 49.7C189.486 50.3267 189.592 50.8733 189.806 51.34C190.032 51.8067 190.339 52.1733 190.726 52.44C191.126 52.7067 191.592 52.84 192.126 52.84ZM200.555 55V44.42H203.395V55H200.555ZM201.955 42.26C201.408 42.26 200.981 42.1267 200.675 41.86C200.368 41.58 200.215 41.1933 200.215 40.7C200.215 40.2467 200.368 39.88 200.675 39.6C200.995 39.3067 201.421 39.16 201.955 39.16C202.501 39.16 202.928 39.3 203.235 39.58C203.541 39.8467 203.695 40.22 203.695 40.7C203.695 41.1533 203.535 41.5267 203.215 41.82C202.908 42.1133 202.488 42.26 201.955 42.26ZM206.428 55V44.42H209.148L209.228 46.58L208.668 46.82C208.814 46.34 209.074 45.9067 209.448 45.52C209.834 45.12 210.294 44.8 210.828 44.56C211.361 44.32 211.921 44.2 212.508 44.2C213.308 44.2 213.974 44.36 214.508 44.68C215.054 45 215.461 45.4867 215.728 46.14C216.008 46.78 216.148 47.5733 216.148 48.52V55H213.308V48.74C213.308 48.26 213.241 47.86 213.108 47.54C212.974 47.22 212.768 46.9867 212.488 46.84C212.221 46.6933 211.888 46.6267 211.488 46.64C211.168 46.64 210.868 46.6933 210.588 46.8C210.321 46.8933 210.088 47.0333 209.888 47.22C209.701 47.4067 209.548 47.62 209.428 47.86C209.321 48.1 209.268 48.36 209.268 48.64V55H207.868C207.561 55 207.288 55 207.048 55C206.808 55 206.601 55 206.428 55ZM223.689 59.6C222.849 59.6 222.023 59.4733 221.209 59.22C220.396 58.98 219.729 58.66 219.209 58.26L220.229 56.24C220.496 56.4267 220.803 56.5933 221.149 56.74C221.496 56.8867 221.856 57 222.229 57.08C222.616 57.16 223.009 57.2 223.409 57.2C224.103 57.2 224.669 57.0933 225.109 56.88C225.563 56.6667 225.903 56.3467 226.129 55.92C226.356 55.4933 226.469 54.96 226.469 54.32V52.48L226.949 52.58C226.869 53.02 226.643 53.4267 226.269 53.8C225.909 54.16 225.456 54.4533 224.909 54.68C224.376 54.8933 223.816 55 223.229 55C222.256 55 221.389 54.7733 220.629 54.32C219.869 53.8667 219.269 53.24 218.829 52.44C218.389 51.64 218.169 50.7133 218.169 49.66C218.169 48.6067 218.383 47.6733 218.809 46.86C219.249 46.0333 219.843 45.3867 220.589 44.92C221.349 44.44 222.209 44.2 223.169 44.2C223.569 44.2 223.949 44.2467 224.309 44.34C224.683 44.4333 225.023 44.5667 225.329 44.74C225.649 44.9 225.929 45.0867 226.169 45.3C226.423 45.5 226.629 45.72 226.789 45.96C226.949 46.2 227.049 46.44 227.089 46.68L226.509 46.84L226.589 44.42H229.309V54.2C229.309 55.0667 229.183 55.8333 228.929 56.5C228.676 57.1667 228.303 57.7267 227.809 58.18C227.329 58.6467 226.736 59 226.029 59.24C225.336 59.48 224.556 59.6 223.689 59.6ZM223.769 52.72C224.329 52.72 224.816 52.5933 225.229 52.34C225.656 52.0867 225.983 51.7333 226.209 51.28C226.436 50.8267 226.549 50.2933 226.549 49.68C226.549 49.08 226.436 48.5533 226.209 48.1C225.983 47.6333 225.656 47.2733 225.229 47.02C224.816 46.7667 224.329 46.64 223.769 46.64C223.223 46.64 222.743 46.7733 222.329 47.04C221.916 47.2933 221.589 47.6533 221.349 48.12C221.123 48.5733 221.009 49.0933 221.009 49.68C221.009 50.28 221.123 50.8133 221.349 51.28C221.589 51.7333 221.916 52.0867 222.329 52.34C222.743 52.5933 223.223 52.72 223.769 52.72ZM36.74 85V73.7H32.66V71H43.94V73.7H39.74V85H36.74ZM44.8263 85V74.42H47.5663L47.6663 77.82L47.1863 77.12C47.3463 76.5733 47.6063 76.08 47.9663 75.64C48.3263 75.1867 48.7463 74.8333 49.2263 74.58C49.7196 74.3267 50.2329 74.2 50.7663 74.2C50.9929 74.2 51.2129 74.22 51.4263 74.26C51.6396 74.3 51.8196 74.3467 51.9663 74.4L51.2063 77.52C51.0596 77.44 50.8663 77.3733 50.6263 77.32C50.3996 77.2533 50.1663 77.22 49.9263 77.22C49.6063 77.22 49.3063 77.28 49.0263 77.4C48.7596 77.5067 48.5263 77.6667 48.3263 77.88C48.1263 78.08 47.9663 78.32 47.8463 78.6C47.7396 78.88 47.6863 79.1867 47.6863 79.52V85H44.8263ZM57.1066 85.2C56.2266 85.2 55.4332 84.96 54.7266 84.48C54.0199 84 53.4599 83.3467 53.0466 82.52C52.6332 81.6933 52.4266 80.7467 52.4266 79.68C52.4266 78.6133 52.6332 77.6667 53.0466 76.84C53.4732 76.0133 54.0466 75.3667 54.7666 74.9C55.4866 74.4333 56.3066 74.2 57.2266 74.2C57.7466 74.2 58.2199 74.28 58.6466 74.44C59.0866 74.5867 59.4666 74.7933 59.7866 75.06C60.1199 75.3267 60.3999 75.6333 60.6266 75.98C60.8532 76.3267 61.0132 76.7 61.1066 77.1L60.5066 77V74.42H63.3266V85H60.4666V82.46L61.1066 82.4C60.9999 82.7733 60.8266 83.1267 60.5866 83.46C60.3466 83.7933 60.0466 84.0933 59.6866 84.36C59.3399 84.6133 58.9466 84.82 58.5066 84.98C58.0666 85.1267 57.5999 85.2 57.1066 85.2ZM57.8866 82.74C58.4199 82.74 58.8866 82.6133 59.2866 82.36C59.6866 82.1067 59.9932 81.7533 60.2066 81.3C60.4332 80.8333 60.5466 80.2933 60.5466 79.68C60.5466 79.08 60.4332 78.5533 60.2066 78.1C59.9932 77.6467 59.6866 77.2933 59.2866 77.04C58.8866 76.7733 58.4199 76.64 57.8866 76.64C57.3666 76.64 56.9066 76.7733 56.5066 77.04C56.1199 77.2933 55.8132 77.6467 55.5866 78.1C55.3599 78.5533 55.2466 79.08 55.2466 79.68C55.2466 80.2933 55.3599 80.8333 55.5866 81.3C55.8132 81.7533 56.1199 82.1067 56.5066 82.36C56.9066 82.6133 57.3666 82.74 57.8866 82.74ZM70.3139 85.2C69.3806 85.2 68.5472 84.9667 67.8139 84.5C67.0939 84.02 66.5206 83.3733 66.0939 82.56C65.6806 81.7333 65.4739 80.78 65.4739 79.7C65.4739 78.6467 65.6806 77.7067 66.0939 76.88C66.5206 76.04 67.0939 75.3867 67.8139 74.92C68.5472 74.44 69.3806 74.2 70.3139 74.2C70.8072 74.2 71.2806 74.28 71.7339 74.44C72.2006 74.5867 72.6139 74.7933 72.9739 75.06C73.3472 75.3267 73.6472 75.6267 73.8739 75.96C74.1006 76.28 74.2272 76.6133 74.2539 76.96L73.5339 77.1V70.2H76.3939V85H73.6939L73.5739 82.56L74.1339 82.62C74.1072 82.9533 73.9872 83.2733 73.7739 83.58C73.5606 83.8867 73.2739 84.1667 72.9139 84.42C72.5672 84.66 72.1672 84.8533 71.7139 85C71.2739 85.1333 70.8072 85.2 70.3139 85.2ZM70.9539 82.84C71.4872 82.84 71.9539 82.7067 72.3539 82.44C72.7539 82.1733 73.0672 81.8067 73.2939 81.34C73.5206 80.8733 73.6339 80.3267 73.6339 79.7C73.6339 79.0867 73.5206 78.5467 73.2939 78.08C73.0672 77.6133 72.7539 77.2467 72.3539 76.98C71.9539 76.7133 71.4872 76.58 70.9539 76.58C70.4206 76.58 69.9539 76.7133 69.5539 76.98C69.1672 77.2467 68.8606 77.6133 68.6339 78.08C68.4206 78.5467 68.3139 79.0867 68.3139 79.7C68.3139 80.3267 68.4206 80.8733 68.6339 81.34C68.8606 81.8067 69.1672 82.1733 69.5539 82.44C69.9539 82.7067 70.4206 82.84 70.9539 82.84ZM79.3827 85V74.42H82.2227V85H79.3827ZM80.7827 72.26C80.236 72.26 79.8093 72.1267 79.5027 71.86C79.196 71.58 79.0427 71.1933 79.0427 70.7C79.0427 70.2467 79.196 69.88 79.5027 69.6C79.8227 69.3067 80.2493 69.16 80.7827 69.16C81.3293 69.16 81.756 69.3 82.0627 69.58C82.3693 69.8467 82.5227 70.22 82.5227 70.7C82.5227 71.1533 82.3627 71.5267 82.0427 71.82C81.736 72.1133 81.316 72.26 80.7827 72.26ZM85.2559 85V74.42H87.9759L88.0559 76.58L87.4959 76.82C87.6426 76.34 87.9026 75.9067 88.2759 75.52C88.6626 75.12 89.1226 74.8 89.6559 74.56C90.1893 74.32 90.7493 74.2 91.3359 74.2C92.1359 74.2 92.8026 74.36 93.3359 74.68C93.8826 75 94.2893 75.4867 94.5559 76.14C94.8359 76.78 94.9759 77.5733 94.9759 78.52V85H92.1359V78.74C92.1359 78.26 92.0693 77.86 91.9359 77.54C91.8026 77.22 91.5959 76.9867 91.3159 76.84C91.0493 76.6933 90.7159 76.6267 90.3159 76.64C89.9959 76.64 89.6959 76.6933 89.4159 76.8C89.1493 76.8933 88.9159 77.0333 88.7159 77.22C88.5293 77.4067 88.3759 77.62 88.2559 77.86C88.1493 78.1 88.0959 78.36 88.0959 78.64V85H86.6959C86.3893 85 86.1159 85 85.8759 85C85.6359 85 85.4293 85 85.2559 85ZM102.517 89.6C101.677 89.6 100.851 89.4733 100.037 89.22C99.224 88.98 98.5573 88.66 98.0373 88.26L99.0573 86.24C99.324 86.4267 99.6307 86.5933 99.9773 86.74C100.324 86.8867 100.684 87 101.057 87.08C101.444 87.16 101.837 87.2 102.237 87.2C102.931 87.2 103.497 87.0933 103.937 86.88C104.391 86.6667 104.731 86.3467 104.957 85.92C105.184 85.4933 105.297 84.96 105.297 84.32V82.48L105.777 82.58C105.697 83.02 105.471 83.4267 105.097 83.8C104.737 84.16 104.284 84.4533 103.737 84.68C103.204 84.8933 102.644 85 102.057 85C101.084 85 100.217 84.7733 99.4573 84.32C98.6973 83.8667 98.0973 83.24 97.6573 82.44C97.2173 81.64 96.9973 80.7133 96.9973 79.66C96.9973 78.6067 97.2107 77.6733 97.6373 76.86C98.0773 76.0333 98.6707 75.3867 99.4173 74.92C100.177 74.44 101.037 74.2 101.997 74.2C102.397 74.2 102.777 74.2467 103.137 74.34C103.511 74.4333 103.851 74.5667 104.157 74.74C104.477 74.9 104.757 75.0867 104.997 75.3C105.251 75.5 105.457 75.72 105.617 75.96C105.777 76.2 105.877 76.44 105.917 76.68L105.337 76.84L105.417 74.42H108.137V84.2C108.137 85.0667 108.011 85.8333 107.757 86.5C107.504 87.1667 107.131 87.7267 106.637 88.18C106.157 88.6467 105.564 89 104.857 89.24C104.164 89.48 103.384 89.6 102.517 89.6ZM102.597 82.72C103.157 82.72 103.644 82.5933 104.057 82.34C104.484 82.0867 104.811 81.7333 105.037 81.28C105.264 80.8267 105.377 80.2933 105.377 79.68C105.377 79.08 105.264 78.5533 105.037 78.1C104.811 77.6333 104.484 77.2733 104.057 77.02C103.644 76.7667 103.157 76.64 102.597 76.64C102.051 76.64 101.571 76.7733 101.157 77.04C100.744 77.2933 100.417 77.6533 100.177 78.12C99.9507 78.5733 99.8373 79.0933 99.8373 79.68C99.8373 80.28 99.9507 80.8133 100.177 81.28C100.417 81.7333 100.744 82.0867 101.157 82.34C101.571 82.5933 102.051 82.72 102.597 82.72ZM117.332 85V74.42H120.172V85H117.332ZM118.732 72.26C118.185 72.26 117.759 72.1267 117.452 71.86C117.145 71.58 116.992 71.1933 116.992 70.7C116.992 70.2467 117.145 69.88 117.452 69.6C117.772 69.3067 118.199 69.16 118.732 69.16C119.279 69.16 119.705 69.3 120.012 69.58C120.319 69.8467 120.472 70.22 120.472 70.7C120.472 71.1533 120.312 71.5267 119.992 71.82C119.685 72.1133 119.265 72.26 118.732 72.26ZM126.765 85.2C125.778 85.2 124.898 85.04 124.125 84.72C123.365 84.3867 122.752 83.9333 122.285 83.36L124.065 81.84C124.465 82.28 124.918 82.6 125.425 82.8C125.932 82.9867 126.438 83.08 126.945 83.08C127.145 83.08 127.325 83.06 127.485 83.02C127.658 82.9667 127.805 82.9 127.925 82.82C128.045 82.7267 128.132 82.62 128.185 82.5C128.252 82.3667 128.285 82.2267 128.285 82.08C128.285 81.7867 128.165 81.56 127.925 81.4C127.792 81.32 127.585 81.2333 127.305 81.14C127.025 81.0333 126.665 80.92 126.225 80.8C125.545 80.6267 124.965 80.4267 124.485 80.2C124.018 79.96 123.645 79.6933 123.365 79.4C123.125 79.12 122.938 78.82 122.805 78.5C122.685 78.1667 122.625 77.8 122.625 77.4C122.625 76.92 122.732 76.4867 122.945 76.1C123.158 75.7 123.452 75.36 123.825 75.08C124.212 74.8 124.652 74.5867 125.145 74.44C125.638 74.28 126.158 74.2 126.705 74.2C127.252 74.2 127.785 74.2667 128.305 74.4C128.825 74.5333 129.305 74.7267 129.745 74.98C130.198 75.22 130.592 75.5067 130.925 75.84L129.405 77.52C129.165 77.2933 128.892 77.0867 128.585 76.9C128.292 76.7133 127.985 76.5667 127.665 76.46C127.345 76.3533 127.058 76.3 126.805 76.3C126.578 76.3 126.372 76.32 126.185 76.36C126.012 76.4 125.865 76.4667 125.745 76.56C125.625 76.64 125.532 76.74 125.465 76.86C125.412 76.98 125.385 77.1133 125.385 77.26C125.385 77.4067 125.418 77.5467 125.485 77.68C125.565 77.8133 125.672 77.9267 125.805 78.02C125.952 78.1 126.165 78.1933 126.445 78.3C126.738 78.4067 127.132 78.5267 127.625 78.66C128.265 78.8333 128.805 79.0267 129.245 79.24C129.698 79.4533 130.058 79.7 130.325 79.98C130.552 80.22 130.718 80.4933 130.825 80.8C130.932 81.1067 130.985 81.4467 130.985 81.82C130.985 82.4733 130.798 83.0533 130.425 83.56C130.065 84.0667 129.565 84.4667 128.925 84.76C128.285 85.0533 127.565 85.2 126.765 85.2ZM142.703 85.2C141.716 85.2 140.836 85.04 140.063 84.72C139.303 84.3867 138.689 83.9333 138.223 83.36L140.003 81.84C140.403 82.28 140.856 82.6 141.363 82.8C141.869 82.9867 142.376 83.08 142.883 83.08C143.083 83.08 143.263 83.06 143.423 83.02C143.596 82.9667 143.743 82.9 143.863 82.82C143.983 82.7267 144.069 82.62 144.123 82.5C144.189 82.3667 144.223 82.2267 144.223 82.08C144.223 81.7867 144.103 81.56 143.863 81.4C143.729 81.32 143.523 81.2333 143.243 81.14C142.963 81.0333 142.603 80.92 142.163 80.8C141.483 80.6267 140.903 80.4267 140.423 80.2C139.956 79.96 139.583 79.6933 139.303 79.4C139.063 79.12 138.876 78.82 138.743 78.5C138.623 78.1667 138.563 77.8 138.563 77.4C138.563 76.92 138.669 76.4867 138.883 76.1C139.096 75.7 139.389 75.36 139.763 75.08C140.149 74.8 140.589 74.5867 141.083 74.44C141.576 74.28 142.096 74.2 142.643 74.2C143.189 74.2 143.723 74.2667 144.243 74.4C144.763 74.5333 145.243 74.7267 145.683 74.98C146.136 75.22 146.529 75.5067 146.863 75.84L145.343 77.52C145.103 77.2933 144.829 77.0867 144.523 76.9C144.229 76.7133 143.923 76.5667 143.603 76.46C143.283 76.3533 142.996 76.3 142.743 76.3C142.516 76.3 142.309 76.32 142.123 76.36C141.949 76.4 141.803 76.4667 141.683 76.56C141.563 76.64 141.469 76.74 141.403 76.86C141.349 76.98 141.323 77.1133 141.323 77.26C141.323 77.4067 141.356 77.5467 141.423 77.68C141.503 77.8133 141.609 77.9267 141.743 78.02C141.889 78.1 142.103 78.1933 142.383 78.3C142.676 78.4067 143.069 78.5267 143.563 78.66C144.203 78.8333 144.743 79.0267 145.183 79.24C145.636 79.4533 145.996 79.7 146.263 79.98C146.489 80.22 146.656 80.4933 146.763 80.8C146.869 81.1067 146.923 81.4467 146.923 81.82C146.923 82.4733 146.736 83.0533 146.363 83.56C146.003 84.0667 145.503 84.4667 144.863 84.76C144.223 85.0533 143.503 85.2 142.703 85.2ZM153.867 85.2C152.787 85.2 151.821 84.9667 150.967 84.5C150.127 84.02 149.461 83.3667 148.967 82.54C148.487 81.7133 148.247 80.7667 148.247 79.7C148.247 78.6333 148.487 77.6867 148.967 76.86C149.461 76.0333 150.127 75.3867 150.967 74.92C151.821 74.44 152.787 74.2 153.867 74.2C154.934 74.2 155.887 74.44 156.727 74.92C157.581 75.3867 158.247 76.0333 158.727 76.86C159.207 77.6867 159.447 78.6333 159.447 79.7C159.447 80.7667 159.207 81.7133 158.727 82.54C158.247 83.3667 157.581 84.02 156.727 84.5C155.887 84.9667 154.934 85.2 153.867 85.2ZM153.867 82.72C154.387 82.72 154.854 82.5933 155.267 82.34C155.681 82.0733 156.001 81.7133 156.227 81.26C156.467 80.7933 156.581 80.2733 156.567 79.7C156.581 79.1133 156.467 78.5933 156.227 78.14C156.001 77.6733 155.681 77.3133 155.267 77.06C154.854 76.7933 154.387 76.66 153.867 76.66C153.334 76.66 152.861 76.7933 152.447 77.06C152.034 77.3267 151.707 77.6867 151.467 78.14C151.227 78.5933 151.114 79.1133 151.127 79.7C151.114 80.2733 151.227 80.7933 151.467 81.26C151.707 81.7133 152.034 82.0733 152.447 82.34C152.861 82.5933 153.334 82.72 153.867 82.72ZM171.296 85.2C170.31 85.2 169.43 85.04 168.656 84.72C167.896 84.3867 167.283 83.9333 166.816 83.36L168.596 81.84C168.996 82.28 169.45 82.6 169.956 82.8C170.463 82.9867 170.97 83.08 171.476 83.08C171.676 83.08 171.856 83.06 172.016 83.02C172.19 82.9667 172.336 82.9 172.456 82.82C172.576 82.7267 172.663 82.62 172.716 82.5C172.783 82.3667 172.816 82.2267 172.816 82.08C172.816 81.7867 172.696 81.56 172.456 81.4C172.323 81.32 172.116 81.2333 171.836 81.14C171.556 81.0333 171.196 80.92 170.756 80.8C170.076 80.6267 169.496 80.4267 169.016 80.2C168.55 79.96 168.176 79.6933 167.896 79.4C167.656 79.12 167.47 78.82 167.336 78.5C167.216 78.1667 167.156 77.8 167.156 77.4C167.156 76.92 167.263 76.4867 167.476 76.1C167.69 75.7 167.983 75.36 168.356 75.08C168.743 74.8 169.183 74.5867 169.676 74.44C170.17 74.28 170.69 74.2 171.236 74.2C171.783 74.2 172.316 74.2667 172.836 74.4C173.356 74.5333 173.836 74.7267 174.276 74.98C174.73 75.22 175.123 75.5067 175.456 75.84L173.936 77.52C173.696 77.2933 173.423 77.0867 173.116 76.9C172.823 76.7133 172.516 76.5667 172.196 76.46C171.876 76.3533 171.59 76.3 171.336 76.3C171.11 76.3 170.903 76.32 170.716 76.36C170.543 76.4 170.396 76.4667 170.276 76.56C170.156 76.64 170.063 76.74 169.996 76.86C169.943 76.98 169.916 77.1133 169.916 77.26C169.916 77.4067 169.95 77.5467 170.016 77.68C170.096 77.8133 170.203 77.9267 170.336 78.02C170.483 78.1 170.696 78.1933 170.976 78.3C171.27 78.4067 171.663 78.5267 172.156 78.66C172.796 78.8333 173.336 79.0267 173.776 79.24C174.23 79.4533 174.59 79.7 174.856 79.98C175.083 80.22 175.25 80.4933 175.356 80.8C175.463 81.1067 175.516 81.4467 175.516 81.82C175.516 82.4733 175.33 83.0533 174.956 83.56C174.596 84.0667 174.096 84.4667 173.456 84.76C172.816 85.0533 172.096 85.2 171.296 85.2ZM177.781 85V74.42H180.621V85H177.781ZM179.181 72.26C178.634 72.26 178.208 72.1267 177.901 71.86C177.594 71.58 177.441 71.1933 177.441 70.7C177.441 70.2467 177.594 69.88 177.901 69.6C178.221 69.3067 178.648 69.16 179.181 69.16C179.728 69.16 180.154 69.3 180.461 69.58C180.768 69.8467 180.921 70.22 180.921 70.7C180.921 71.1533 180.761 71.5267 180.441 71.82C180.134 72.1133 179.714 72.26 179.181 72.26ZM183.634 85V74.42H186.374L186.434 76.44L186.014 76.52C186.161 76.1733 186.354 75.86 186.594 75.58C186.848 75.3 187.134 75.06 187.454 74.86C187.774 74.66 188.114 74.5067 188.474 74.4C188.834 74.28 189.194 74.22 189.554 74.22C190.101 74.22 190.594 74.3067 191.034 74.48C191.474 74.6533 191.848 74.9267 192.154 75.3C192.461 75.66 192.701 76.14 192.874 76.74L192.434 76.7L192.574 76.38C192.748 76.06 192.968 75.7667 193.234 75.5C193.501 75.2333 193.801 75.0067 194.134 74.82C194.468 74.6333 194.814 74.4867 195.174 74.38C195.534 74.2733 195.888 74.22 196.234 74.22C197.061 74.22 197.748 74.3867 198.294 74.72C198.841 75.04 199.248 75.5267 199.514 76.18C199.794 76.8333 199.934 77.6333 199.934 78.58V85H197.094V78.78C197.094 78.3 197.028 77.9067 196.894 77.6C196.761 77.2933 196.568 77.0667 196.314 76.92C196.061 76.76 195.734 76.68 195.334 76.68C195.028 76.68 194.741 76.7333 194.474 76.84C194.221 76.9333 193.994 77.0733 193.794 77.26C193.608 77.4333 193.461 77.6467 193.354 77.9C193.248 78.14 193.194 78.4 193.194 78.68V85H190.334V78.76C190.334 78.32 190.268 77.9467 190.134 77.64C190.001 77.32 189.808 77.08 189.554 76.92C189.301 76.76 188.988 76.68 188.614 76.68C188.308 76.68 188.021 76.7333 187.754 76.84C187.501 76.9333 187.281 77.0733 187.094 77.26C186.908 77.4333 186.761 77.64 186.654 77.88C186.548 78.12 186.494 78.38 186.494 78.66V85H183.634ZM202.639 89.4V74.42H205.379L205.459 76.8L204.939 76.62C205.032 76.1933 205.259 75.8 205.619 75.44C205.992 75.08 206.452 74.7867 206.999 74.56C207.545 74.3333 208.119 74.22 208.719 74.22C209.639 74.22 210.459 74.46 211.179 74.94C211.899 75.4067 212.465 76.0533 212.879 76.88C213.292 77.6933 213.499 78.6333 213.499 79.7C213.499 80.7533 213.292 81.6933 212.879 82.52C212.465 83.3467 211.899 84 211.179 84.48C210.459 84.9467 209.639 85.18 208.719 85.18C208.105 85.18 207.519 85.0667 206.959 84.84C206.412 84.6 205.945 84.2867 205.559 83.9C205.185 83.5133 204.945 83.1 204.839 82.66L205.499 82.38V89.4H202.639ZM208.079 82.74C208.599 82.74 209.059 82.6133 209.459 82.36C209.859 82.1067 210.172 81.7533 210.399 81.3C210.625 80.8333 210.739 80.3 210.739 79.7C210.739 79.1 210.625 78.5733 210.399 78.12C210.172 77.6667 209.859 77.3133 209.459 77.06C209.072 76.8067 208.612 76.68 208.079 76.68C207.545 76.68 207.079 76.8067 206.679 77.06C206.279 77.3 205.965 77.6533 205.739 78.12C205.512 78.5733 205.399 79.1 205.399 79.7C205.399 80.3 205.512 80.8333 205.739 81.3C205.965 81.7533 206.279 82.1067 206.679 82.36C207.079 82.6133 207.545 82.74 208.079 82.74ZM215.667 85V70.2H218.507V85H215.667ZM226.213 85.2C225.067 85.2 224.06 84.9667 223.193 84.5C222.34 84.0333 221.673 83.3933 221.193 82.58C220.727 81.7667 220.493 80.8333 220.493 79.78C220.493 78.9533 220.627 78.2 220.893 77.52C221.16 76.84 221.533 76.2533 222.013 75.76C222.493 75.2533 223.06 74.8667 223.713 74.6C224.38 74.32 225.1 74.18 225.873 74.18C226.593 74.18 227.26 74.3133 227.873 74.58C228.487 74.8467 229.013 75.22 229.453 75.7C229.907 76.1667 230.253 76.7267 230.493 77.38C230.733 78.02 230.84 78.7133 230.813 79.46L230.793 80.34H222.293L221.833 78.6H228.453L228.133 78.96V78.52C228.107 78.16 227.987 77.84 227.773 77.56C227.573 77.2667 227.313 77.04 226.993 76.88C226.673 76.7067 226.313 76.62 225.913 76.62C225.327 76.62 224.827 76.7333 224.413 76.96C224.013 77.1867 223.707 77.52 223.493 77.96C223.28 78.4 223.173 78.9333 223.173 79.56C223.173 80.2 223.307 80.7533 223.573 81.22C223.853 81.6867 224.24 82.0533 224.733 82.32C225.24 82.5733 225.833 82.7 226.513 82.7C226.98 82.7 227.407 82.6267 227.793 82.48C228.18 82.3333 228.593 82.08 229.033 81.72L230.393 83.62C230.007 83.9667 229.58 84.26 229.113 84.5C228.647 84.7267 228.167 84.9 227.673 85.02C227.18 85.14 226.693 85.2 226.213 85.2Z" fill="black"/>
<path d="M246.676 89.1026L246.676 89.1023C240.69 81.847 240.459 72.3695 245.938 67.8456L245.939 67.8449C246.459 67.4122 247.436 66.7391 248.294 66.1674C248.72 65.8832 249.114 65.6265 249.401 65.4408C249.544 65.348 249.661 65.273 249.742 65.2212C249.756 65.2124 249.768 65.2042 249.78 65.1968C249.791 65.1983 249.803 65.2 249.815 65.2018C249.905 65.2148 250.039 65.2346 250.211 65.262C250.555 65.3169 251.053 65.402 251.666 65.5226C252.892 65.7638 254.578 66.1466 256.416 66.7129C260.107 67.85 264.351 69.7097 266.756 72.6003C267.961 74.0658 268.765 76.0281 269.287 78.1679C269.808 80.3055 270.044 82.6013 270.125 84.7171C270.206 86.8318 270.133 88.7596 270.039 90.1593C269.992 90.859 269.94 91.426 269.9 91.8175C269.88 92.0131 269.863 92.1652 269.851 92.2679C269.85 92.278 269.849 92.2878 269.847 92.2971L269.841 92.3011L269.542 92.5016C269.294 92.6679 268.962 92.8903 268.627 93.1148C267.966 93.5589 267.271 94.0254 267.214 94.069L267.213 94.0696C261.678 98.3132 252.557 96.2394 246.676 89.1026Z" fill="url(#paint0_linear_6104_4501)" stroke="#07828B" stroke-width="0.565537"/>
<path d="M270.833 91.9248C276.492 87.2738 276.187 77.5776 270.151 70.2679C264.115 62.9582 254.634 60.803 248.974 65.4542C243.314 70.1054 243.62 79.8016 249.656 87.1114C255.692 94.421 265.173 96.5761 270.833 91.9248Z" fill="url(#paint1_linear_6104_4501)" stroke="#07828B" stroke-width="0.552119" stroke-miterlimit="10" stroke-linejoin="round"/>
<path d="M261.518 71.1465L258.577 74.0508L258.473 74.1533L258.576 74.2559L260.205 75.8994L260.301 75.9961L260.403 75.9053C261.704 74.7582 262.963 73.883 263.981 73.3857C264.491 73.1367 264.933 72.9864 265.285 72.9404C265.596 72.8998 265.813 72.9428 265.953 73.0449L266.008 73.0918C266.142 73.2271 266.202 73.4608 266.152 73.8145C266.102 74.165 265.947 74.6043 265.692 75.1104C265.183 76.1209 264.292 77.3674 263.129 78.6523L263.036 78.7549L263.133 78.8516L268.259 84.0205L266.295 85.958L261.168 80.7881L261.072 80.6914L260.969 80.7812C259.673 81.9223 258.418 82.793 257.404 83.2871C256.896 83.5344 256.456 83.684 256.105 83.7295C255.795 83.7696 255.578 83.726 255.439 83.624L255.385 83.5771C255.251 83.4422 255.19 83.2094 255.24 82.8574C255.289 82.5084 255.444 82.0713 255.697 81.5674C256.203 80.5606 257.089 79.3176 258.247 78.0361L258.339 77.9346L258.242 77.8369L256.612 76.1934L256.51 76.0908L256.407 76.1924L253.465 79.0957L251.175 76.7871L259.229 68.8379L261.518 71.1465ZM265.134 73.6562C264.96 73.4809 264.688 73.4668 264.403 73.5264C264.11 73.5876 263.756 73.7352 263.36 73.9502C262.567 74.3816 261.578 75.1018 260.541 76.0156L260.426 76.1172L260.533 76.2266L261.947 77.6533C261.817 77.7978 261.684 77.9456 261.544 78.0928L261.005 78.6416C260.661 78.9804 260.317 79.2971 259.983 79.5889L258.574 78.168L258.466 78.0596L258.363 78.1729C257.44 79.1946 256.713 80.1687 256.275 80.9521C256.057 81.3428 255.905 81.6941 255.842 81.9844C255.787 82.2316 255.789 82.4698 255.907 82.6426L255.964 82.7129H255.965C256.138 82.8871 256.408 82.9006 256.691 82.8418C256.983 82.7813 257.336 82.6354 257.73 82.4219C258.421 82.0472 259.26 81.4526 260.151 80.7012L260.536 80.3691H260.537L260.67 80.252L260.675 80.2461L260.684 80.2373L260.807 80.126L260.812 80.1221L260.825 80.1094L260.824 80.1084L261.097 79.8584L261.103 79.8525L261.227 79.7363L261.23 79.7344L261.262 79.7021L261.359 79.6094L261.361 79.6074L261.964 79.0127L261.966 79.0107L262.058 78.917L262.057 78.916L262.089 78.8857L262.092 78.8838L262.198 78.7715L262.199 78.7725L262.211 78.7598L262.214 78.7568C262.343 78.6221 262.469 78.4879 262.592 78.3545L262.597 78.3486L262.719 78.2148V78.2139C263.647 77.1888 264.379 76.211 264.82 75.4238C265.04 75.0312 265.191 74.6784 265.256 74.3867C265.311 74.1382 265.309 73.8991 265.191 73.7256L265.134 73.6562Z" fill="white" stroke="#07828B" stroke-width="0.289735"/>
<path d="M383.045 77.7251C385.136 77.6156 387.539 78.1446 389.967 79.2563L390.452 79.4858C395.378 81.8964 398.356 85.972 397.696 89.6968C397.528 90.1664 397.384 90.595 397.217 90.9956L397.037 91.395C396.053 93.3968 394.016 94.7855 391.499 95.3296C389.142 95.8392 386.384 95.6005 383.744 94.4409L383.218 94.1968C377.768 91.5291 374.916 86.3529 376.906 81.5015L377.114 81.0337C377.148 80.9617 377.175 80.9363 377.19 80.9243C377.217 80.9022 377.234 80.8968 377.319 80.8511C377.396 80.8092 377.495 80.7479 377.591 80.6362C377.674 80.5392 377.742 80.4169 377.803 80.2612C378.989 78.6684 380.833 77.841 383.045 77.7251Z" fill="white" stroke="#07828B" stroke-width="0.650697"/>
<path d="M384.307 92.5398C378.609 89.7508 375.64 84.1319 377.677 79.9897C379.714 75.8475 385.984 74.7506 391.682 77.5396C397.381 80.3286 400.349 85.9475 398.312 90.0897C396.276 94.2319 390.005 95.3288 384.307 92.5398Z" fill="url(#paint2_linear_6104_4501)" stroke="#07828B" stroke-width="0.552119" stroke-miterlimit="10" stroke-linejoin="round"/>
<path d="M390.01 85.5281L392.102 88.3328L390.378 89.0408L388.242 86.1755L388.208 86.1306C388.451 86.0384 388.701 85.941 388.958 85.8367L388.969 85.8357L388.989 85.8269C389.321 85.6911 389.635 85.5554 389.932 85.4226L390.01 85.5281ZM383.676 86.9314C383.666 86.9713 383.666 87.0156 383.681 87.0603L383.671 87.0515C383.656 87.0311 383.649 87.0074 383.661 86.9646C383.664 86.9541 383.67 86.9436 383.676 86.9314ZM391.11 81.7361L388.277 82.8972L388.104 82.9685L388.217 83.1179L388.884 84.0105L388.947 84.0964L388.998 84.0779L389.072 84.1785L389.684 85.0066C389.561 85.0647 389.438 85.1253 389.311 85.1804L388.761 85.4089L388.76 85.4099L387.933 85.7449L387.262 84.8396L387.193 84.7449L387.186 84.7468L387.114 84.6501L386.446 83.7566L386.379 83.6667L386.275 83.7097L383.339 84.9099L382.462 83.7361L390.232 80.5613L391.11 81.7361Z" fill="white" stroke="#07828B" stroke-width="0.289735"/>
<path d="M272.129 157.62L277.545 167.453L295.661 180.317L340.191 196.913L356.048 209C365.749 203.364 371.047 194.076 369.801 179.462C369.801 179.462 355.697 169.124 355.619 166.676C353.165 162.867 354.412 156.454 352.931 150.78C352.113 147.632 350.477 145.65 350.477 145.65C347.126 135.933 342.646 127.538 336.296 121.126C336.296 121.126 327.179 116.462 330.179 126.411C330.179 126.411 333.724 127.927 333.14 134.534C332.945 136.905 332.867 141.569 331.62 143.24C330.763 144.367 329.672 144.911 328.66 145.183C327.023 145.572 319.777 145.222 315.92 143.667C308.557 140.675 299.206 134.534 290.168 128.899C290.168 128.899 285.999 123.147 281.869 117.667C277.467 111.798 272.987 106.279 268.272 110.826L281.207 133.873L294.96 145.416L294.492 146.932C287.986 142.851 281.83 139.703 276.259 137.954C276.259 137.954 272.09 133.368 267.416 128.238C262.351 122.641 256.624 116.54 252.611 119.765L256.156 128.588C256.156 128.588 254.13 129.754 254.169 131.153C254.208 131.93 258.182 141.297 263.13 148.37C269.753 159.058 272.129 157.62 272.129 157.62Z" stroke="url(#paint3_linear_6104_4501)" stroke-width="0.650697"/>
<path fill-rule="evenodd" clip-rule="evenodd" d="M256.156 128.51C256.214 128.945 256.214 128.945 256.214 128.945L256.221 128.944C256.228 128.943 256.24 128.942 256.257 128.94C256.29 128.937 256.341 128.933 256.408 128.93C256.542 128.922 256.739 128.918 256.985 128.931C257.477 128.955 258.157 129.045 258.902 129.308C260.378 129.827 262.145 131.031 263.225 133.835C263.669 135.008 264.314 136.205 265.064 137.372C265.043 137.401 265.02 137.433 264.994 137.468C264.889 137.612 264.761 137.777 264.636 137.936C264.511 138.094 264.391 138.242 264.302 138.352C264.257 138.406 264.22 138.451 264.195 138.482L264.165 138.518L264.158 138.527L264.156 138.529L264.156 138.53L264.494 138.81C264.833 139.089 264.833 139.089 264.833 139.089L264.833 139.089L264.834 139.088L264.836 139.086L264.844 139.076L264.874 139.039C264.901 139.007 264.938 138.961 264.984 138.905C265.075 138.794 265.198 138.641 265.326 138.479C265.411 138.371 265.499 138.259 265.581 138.15C266.647 139.699 267.863 141.171 268.992 142.43C269.863 143.401 270.688 144.252 271.364 144.923C270.979 144.824 270.581 144.752 270.167 144.712C269.322 144.629 268.419 144.798 267.71 145.217C266.99 145.641 266.447 146.343 266.431 147.295C266.416 148.148 266.673 149.216 267.423 150.53C268.476 152.379 269.549 154.208 270.358 155.574C270.763 156.258 271.101 156.826 271.339 157.223C271.458 157.421 271.552 157.577 271.616 157.683L271.688 157.805L271.707 157.836L271.712 157.844L271.713 157.846L271.714 157.846C271.714 157.846 271.714 157.846 272.09 157.62C272.467 157.394 272.467 157.394 272.467 157.394V157.394L272.467 157.393L272.465 157.391L272.461 157.384L272.442 157.353L272.37 157.232C272.306 157.126 272.213 156.971 272.094 156.773C271.857 156.377 271.519 155.81 271.115 155.128C270.307 153.764 269.237 151.94 268.187 150.097C267.495 148.883 267.299 147.969 267.31 147.31C267.32 146.728 267.639 146.278 268.157 145.972C268.685 145.66 269.397 145.518 270.082 145.585C272.088 145.781 273.74 146.81 275.203 148.284C276.469 149.559 277.57 151.142 278.619 152.759C278.593 152.786 278.558 152.819 278.512 152.856C278.324 153.01 278.037 153.174 277.718 153.33C277.404 153.483 277.081 153.617 276.835 153.713C276.712 153.76 276.61 153.798 276.538 153.824C276.524 153.83 276.51 153.834 276.498 153.839C276.481 153.845 276.467 153.85 276.456 153.854L276.435 153.861L276.43 153.862L276.429 153.863C276.429 153.863 276.429 153.863 276.572 154.278C276.714 154.693 276.714 154.693 276.714 154.693H276.715L276.717 154.692L276.724 154.689L276.748 154.681C276.769 154.674 276.8 154.663 276.838 154.649C276.915 154.621 277.024 154.58 277.154 154.53C277.413 154.429 277.76 154.285 278.104 154.118C278.442 153.953 278.8 153.754 279.068 153.536L279.081 153.525C279.085 153.522 279.09 153.518 279.095 153.514C279.097 153.512 279.099 153.51 279.101 153.509L279.121 153.541C280.263 155.35 281.477 157.105 282.378 158.37C282.902 159.106 283.514 159.769 284.197 160.349C284.198 160.364 284.198 160.386 284.198 160.412C284.198 160.475 284.196 160.569 284.189 160.685C284.175 160.918 284.14 161.236 284.057 161.579C283.889 162.279 283.543 162.999 282.863 163.378L283.292 164.144C284.287 163.59 284.72 162.581 284.912 161.784C284.981 161.498 285.022 161.228 285.045 161C285.345 161.207 285.656 161.4 285.977 161.578C287.764 162.568 290.474 164.025 293.133 165.284C295.276 166.316 296.141 167.74 296.487 168.882C296.662 169.46 296.707 169.975 296.708 170.344C296.708 170.528 296.698 170.674 296.688 170.772C296.683 170.821 296.678 170.858 296.675 170.882C296.673 170.893 296.671 170.901 296.671 170.906L296.67 170.909C296.67 170.909 296.67 170.909 297.102 170.99C297.534 171.071 297.534 171.071 297.534 171.071V171.07L297.535 171.068L297.536 171.064L297.538 171.051C297.54 171.041 297.542 171.027 297.545 171.009C297.55 170.974 297.556 170.924 297.562 170.862C297.576 170.736 297.588 170.559 297.587 170.341C297.586 169.906 297.533 169.304 297.328 168.628C296.985 167.496 296.222 166.184 294.616 165.117C294.862 163.376 294.731 162.239 294.508 161.51C294.391 161.127 294.249 160.86 294.126 160.68C294.065 160.59 294.009 160.523 293.964 160.475C293.941 160.451 293.922 160.432 293.906 160.418C293.897 160.41 293.891 160.404 293.884 160.399L293.881 160.396L293.876 160.392L293.872 160.389L293.871 160.387L293.87 160.387C293.869 160.386 293.869 160.386 293.596 160.73C293.323 161.073 293.322 161.073 293.322 161.073L293.321 161.072L293.32 161.071L293.317 161.069L293.314 161.066C293.312 161.064 293.311 161.064 293.311 161.064C293.311 161.064 293.315 161.068 293.323 161.075C293.337 161.091 293.365 161.122 293.4 161.174C293.471 161.278 293.575 161.464 293.667 161.766C293.83 162.299 293.958 163.197 293.792 164.632C293.701 164.585 293.609 164.539 293.514 164.493L293.512 164.492C290.876 163.245 288.184 161.798 286.404 160.811C285.093 160.085 283.963 159.081 283.095 157.862C282.199 156.604 280.994 154.863 279.865 153.072L279.863 153.07C279.755 152.9 279.645 152.73 279.535 152.559C279.533 152.548 279.53 152.538 279.528 152.528L279.517 152.531C278.981 151.699 278.423 150.857 277.831 150.05C281.485 151.487 285.082 152.943 288.609 154.432C290.61 155.276 292.875 153.959 293.098 151.797L292.224 151.707C292.062 153.276 290.414 154.241 288.952 153.624C284.969 151.943 280.899 150.304 276.762 148.688C276.461 148.333 276.15 147.991 275.828 147.667C275.148 146.982 274.415 146.373 273.613 145.885L273.629 145.866L273.628 145.865L273.625 145.862L273.609 145.848C273.596 145.836 273.575 145.818 273.548 145.793C273.494 145.744 273.413 145.671 273.31 145.575C273.104 145.384 272.805 145.104 272.44 144.749C271.71 144.04 270.712 143.033 269.647 141.845C267.506 139.457 265.127 136.378 264.047 133.524L264.046 133.522C262.867 130.459 260.894 129.078 259.195 128.48C258.353 128.184 257.586 128.082 257.029 128.055C256.75 128.041 256.522 128.045 256.362 128.053C256.282 128.058 256.218 128.063 256.173 128.067C256.151 128.069 256.133 128.071 256.121 128.073L256.105 128.074L256.1 128.075L256.099 128.075H256.098C256.098 128.075 256.097 128.075 256.156 128.51ZM289.848 128.559C289.848 128.559 289.848 128.559 290.168 128.86C290.487 129.161 290.487 129.161 290.487 129.161L290.486 129.162L290.483 129.166L290.467 129.183C290.453 129.198 290.432 129.22 290.406 129.249C290.352 129.308 290.276 129.393 290.184 129.499C289.999 129.711 289.754 130.003 289.512 130.327C289.268 130.653 289.034 131.001 288.865 131.325C288.688 131.664 288.614 131.917 288.62 132.07L287.741 132.102C287.727 131.711 287.893 131.288 288.085 130.92C288.284 130.537 288.549 130.147 288.807 129.802C289.066 129.456 289.326 129.146 289.52 128.923C289.617 128.812 289.698 128.721 289.756 128.659C289.785 128.627 289.807 128.603 289.823 128.586L289.841 128.566L289.846 128.561L289.848 128.559L289.848 128.559ZM294.959 145.378C295.386 145.484 295.386 145.484 295.386 145.484L295.386 145.484L295.387 145.48L295.391 145.462C295.396 145.446 295.402 145.422 295.411 145.39C295.43 145.326 295.457 145.234 295.494 145.121C295.569 144.895 295.68 144.593 295.828 144.284C295.977 143.973 296.156 143.671 296.361 143.434C296.567 143.195 296.773 143.054 296.972 143.006L296.765 142.153C296.321 142.261 295.967 142.546 295.695 142.861C295.421 143.178 295.203 143.556 295.035 143.906C294.866 144.258 294.742 144.597 294.659 144.847C294.618 144.972 294.587 145.076 294.566 145.15C294.555 145.187 294.547 145.216 294.542 145.237L294.539 145.249L294.535 145.261L294.534 145.268L294.533 145.27L294.533 145.271V145.271C294.533 145.271 294.533 145.271 294.959 145.378ZM276.647 138.084L275.166 140.844L274.391 140.429L275.871 137.67L276.647 138.084ZM328.945 144.81C328.945 144.809 328.945 144.809 329.361 144.95C329.777 145.091 329.777 145.091 329.777 145.091V145.092L329.777 145.094L329.773 145.104L329.767 145.123L329.76 145.143C329.749 145.178 329.731 145.231 329.709 145.301C329.664 145.44 329.599 145.646 329.52 145.91C329.362 146.438 329.146 147.198 328.917 148.126C328.457 149.982 327.947 152.498 327.735 155.148C327.523 157.803 327.613 160.564 328.336 162.924C329.055 165.274 330.391 167.2 332.664 168.261L332.292 169.055C329.734 167.862 328.265 165.698 327.495 163.18C326.727 160.671 326.642 157.787 326.858 155.079C327.075 152.366 327.597 149.8 328.063 147.915C328.296 146.972 328.516 146.198 328.678 145.658C328.759 145.388 328.825 145.177 328.872 145.033C328.895 144.961 328.913 144.905 328.925 144.868C328.932 144.849 328.936 144.834 328.94 144.825L328.944 144.813L328.945 144.81L328.945 144.81ZM350.095 177.546C352.459 175.595 354.399 171.716 356.037 166.775L355.202 166.499C353.568 171.43 351.689 175.091 349.534 176.87L350.095 177.546Z" fill="url(#paint4_linear_6104_4501)"/>
<path d="M336.692 74.9781C336.778 74.9524 336.847 74.9322 336.899 74.9172L337.072 75.0119L337.814 75.4176C338.44 75.7595 339.302 76.2305 340.246 76.7466C342.135 77.7789 344.352 78.9916 345.67 79.7136C360.492 87.8386 364.556 109.015 354.619 127.11C344.681 145.206 324.601 153.197 309.78 145.109C308.549 144.431 306.87 143.327 305.492 142.388C304.805 141.919 304.195 141.493 303.756 141.184C303.537 141.03 303.361 140.904 303.24 140.818C303.191 140.783 303.151 140.754 303.121 140.733L303.12 140.731C303.1 140.677 303.071 140.598 303.034 140.494C302.958 140.285 302.849 139.976 302.712 139.577C302.439 138.78 302.058 137.624 301.627 136.188C300.763 133.316 299.699 129.331 298.894 124.875C297.28 115.942 296.724 105.195 300.832 97.7128C304.907 90.2955 313.921 84.587 321.97 80.7248C325.987 78.7976 329.747 77.3374 332.504 76.359C333.882 75.8698 335.009 75.5013 335.79 75.2551C336.181 75.1321 336.486 75.0397 336.692 74.9781Z" fill="url(#paint5_linear_6104_4501)" stroke="#07828B" stroke-width="0.552119"/>
<path d="M347.706 123.007C357.688 104.816 353.637 83.4375 338.657 75.2567C323.676 67.0759 303.44 75.191 293.458 93.3823C283.475 111.574 287.527 132.952 302.507 141.133C317.487 149.314 337.723 141.199 347.706 123.007Z" fill="url(#paint6_linear_6104_4501)" stroke="#07828B" stroke-width="0.552119" stroke-miterlimit="10" stroke-linejoin="round"/>
<path d="M343.988 102.078L339.56 108.652L330.57 102.622L330.45 102.541L330.369 102.661L327.368 107.116L327.291 107.231L327.401 107.313C330.956 109.973 333.835 112.639 335.659 114.881C336.572 116.003 337.214 117.012 337.547 117.856C337.882 118.705 337.89 119.351 337.599 119.783C337.307 120.216 336.705 120.453 335.79 120.464C334.881 120.475 333.702 120.262 332.316 119.842C329.547 119.003 325.986 117.35 322.175 115.071L322.057 114.999L321.98 115.114L312.433 129.283L306.183 125.092L315.728 110.925L315.805 110.811L315.694 110.729C312.124 108.062 309.23 105.387 307.396 103.137C306.478 102.011 305.83 100.999 305.495 100.152C305.179 99.3523 305.152 98.7328 305.391 98.301L305.441 98.217C305.734 97.7831 306.339 97.5465 307.258 97.5364C308.171 97.5264 309.355 97.7415 310.746 98.1643C313.527 99.0094 317.102 100.674 320.926 102.966L321.043 103.037L321.12 102.923L324.119 98.4709L324.2 98.3508L324.08 98.2698L315.089 92.2415L319.519 85.6663L343.988 102.078ZM309.786 99.0354C309.129 98.9944 308.598 99.1026 308.314 99.4426L308.261 99.5139C307.993 99.9106 308.087 100.474 308.393 101.106C308.703 101.748 309.257 102.515 310.009 103.365C311.326 104.855 313.269 106.621 315.63 108.456L316.667 109.246L317.04 109.524L317.043 109.527L317.048 109.53V109.529L318.199 110.361L318.202 110.363L318.236 110.385V110.386L318.567 110.619L318.571 110.621L318.667 110.685V110.686L318.945 110.879L318.947 110.88L320.751 112.089L320.753 112.091L321.04 112.278L321.141 112.345L321.144 112.347L321.51 112.58V112.579L321.524 112.589V112.59L321.527 112.592C321.799 112.765 322.07 112.933 322.338 113.098V113.099L322.382 113.128L322.744 113.35V113.349L322.78 113.374L322.787 113.378L323.176 113.613C326.194 115.417 328.972 116.773 331.109 117.516C332.177 117.887 333.093 118.107 333.803 118.151C334.456 118.191 334.985 118.082 335.268 117.743L335.321 117.672C335.587 117.277 335.494 116.716 335.191 116.088C334.883 115.449 334.332 114.686 333.584 113.839C332.087 112.144 329.779 110.089 326.962 107.98L326.84 107.888L326.755 108.015L324.057 112.018C323.289 111.565 322.496 111.076 321.692 110.554L320.843 109.993C319.765 109.271 318.746 108.543 317.804 107.829L320.512 103.812L320.598 103.685L320.466 103.607C317.434 101.792 314.642 100.426 312.493 99.677C311.42 99.3031 310.499 99.08 309.786 99.0354Z" fill="white" stroke="#07828B" stroke-width="0.289735"/>
<path d="M319.564 191.064C319.564 191.064 338.756 191.205 347.652 183.458L354.552 193.908C354.552 193.908 344.233 202.175 323.084 202.008L319.564 191.064Z" fill="#07828B"/>
<path d="M324.05 201.129L320.983 191.698C322.576 192.894 328.438 191.788 329.841 191.691C331.244 191.595 329.603 192.612 329.979 193.691C330.356 194.77 338.71 193.291 338.972 194.177C339.235 195.063 331.575 196.393 332.08 197.865C332.584 199.337 337.559 198.493 335.745 199.923C334.294 201.068 327.344 201.204 324.05 201.129Z" fill="#88D8DB"/>
<path d="M353.604 181.729C363.959 174.937 368.934 164.819 370.788 151.746L386.442 157.164C382.605 172.236 374.977 181.975 361.911 191.529L353.612 181.729L353.604 181.729Z" fill="url(#paint7_linear_6104_4501)"/>
<path d="M362.661 177.071C361.5 177.728 361.413 176.667 361.515 176.055L355.134 181.856L362.451 189.589C363.225 189.693 371.111 182.194 373.848 180.268C373.887 180.046 374.324 179.786 374.425 178.42C374.552 176.712 371.189 179.594 370.269 177.662C369.35 175.73 365.548 179.934 365.949 177.272C366.35 174.61 364.113 176.249 362.661 177.071Z" fill="#07828B"/>
<path d="M373.624 122.987L394.143 123.75C395.953 139.663 393.206 151.815 383.131 160.199L361.879 158.029C371.122 148.689 373.624 139.797 373.624 122.987Z" fill="url(#paint8_linear_6104_4501)" stroke="url(#paint9_linear_6104_4501)" stroke-width="0.57947" stroke-miterlimit="10" stroke-linejoin="round"/>
<mask id="mask0_6104_4501" style="mask-type:alpha" maskUnits="userSpaceOnUse" x="362" y="123" width="32" height="37">
<path d="M372.448 124.104L392.878 124.588C395.315 139.538 392.076 151.537 383.006 159.242L363.45 157.292C372.182 148.468 375.899 137.763 372.448 124.104Z" fill="#D9D9D9" stroke="white" stroke-width="0.57947" stroke-miterlimit="10"/>
</mask>
<g mask="url(#mask0_6104_4501)">
<path d="M369.647 146.714C368.261 149.377 366.803 147.468 366.247 146.181L358.445 161.944L384.648 164.613C386.234 163.867 393.874 146.88 396.683 139.886C396.484 139.418 395.718 137.801 394.242 135.083C392.397 131.686 388.8 141.112 384.71 138.564C380.619 136.015 378.584 148.634 376.091 143.089C373.597 137.544 371.38 143.384 369.647 146.714Z" fill="#88D8DB"/>
</g>
<mask id="path-21-inside-1_6104_4501" fill="white">
<path d="M376.079 128.104L376.577 128.135L376.528 128.918L377.309 128.967L377.278 129.46L376.497 129.411L376.448 130.195L375.95 130.164L375.999 129.38L375.214 129.332L375.245 128.839L376.03 128.888L376.079 128.104ZM377.861 128.823L377.896 128.261L378.835 127.805L379.292 127.833L379.108 130.794L378.513 130.757L378.657 128.442L377.861 128.823ZM380.907 130.391L382.093 130.464L382.061 130.977L380.017 130.85L380.041 130.471L380.998 129.524C381.162 129.362 381.277 129.234 381.343 129.14C381.411 129.045 381.448 128.944 381.455 128.839C381.462 128.723 381.436 128.628 381.375 128.555C381.315 128.48 381.229 128.44 381.119 128.433C381.005 128.426 380.903 128.462 380.811 128.54C380.72 128.615 380.646 128.727 380.591 128.875L380.146 128.579C380.231 128.344 380.37 128.169 380.561 128.054C380.753 127.936 380.969 127.885 381.209 127.899C381.398 127.911 381.559 127.96 381.691 128.047C381.827 128.131 381.927 128.243 381.992 128.382C382.059 128.521 382.087 128.677 382.076 128.849C382.066 129.019 382.014 129.175 381.921 129.318C381.831 129.459 381.673 129.64 381.448 129.861L380.907 130.391ZM383.711 129.19C383.895 129.202 384.056 129.252 384.194 129.342C384.332 129.429 384.436 129.546 384.505 129.693C384.574 129.841 384.603 130.007 384.592 130.189C384.58 130.381 384.522 130.549 384.418 130.694C384.317 130.839 384.183 130.948 384.016 131.022C383.851 131.095 383.675 131.126 383.486 131.114C383.291 131.102 383.117 131.05 382.963 130.956C382.809 130.86 382.691 130.733 382.609 130.573C382.527 130.414 382.492 130.234 382.505 130.032C382.514 129.881 382.551 129.738 382.617 129.605C382.682 129.468 382.793 129.291 382.951 129.074L383.653 128.104L384.289 128.143L383.654 128.996C383.604 129.066 383.549 129.135 383.491 129.205C383.557 129.19 383.63 129.185 383.711 129.19ZM383.514 130.589C383.641 130.597 383.746 130.561 383.83 130.483C383.914 130.402 383.96 130.294 383.968 130.159C383.976 130.024 383.944 129.913 383.871 129.824C383.798 129.734 383.698 129.684 383.571 129.676C383.442 129.668 383.335 129.705 383.252 129.786C383.168 129.865 383.122 129.971 383.114 130.106C383.105 130.243 383.137 130.356 383.21 130.445C383.286 130.533 383.387 130.581 383.514 130.589ZM385.208 131.229C385.116 131.224 385.04 131.185 384.98 131.114C384.919 131.042 384.892 130.96 384.898 130.866C384.903 130.771 384.941 130.692 385.01 130.629C385.079 130.566 385.159 130.537 385.251 130.543C385.345 130.549 385.423 130.587 385.484 130.659C385.547 130.73 385.576 130.813 385.57 130.907C385.564 131.001 385.525 131.08 385.453 131.143C385.384 131.207 385.303 131.235 385.208 131.229ZM387.554 129.769C387.714 129.842 387.834 129.941 387.913 130.067C387.992 130.191 388.026 130.342 388.015 130.52C388.003 130.703 387.946 130.857 387.843 130.984C387.744 131.107 387.612 131.199 387.448 131.259C387.288 131.317 387.111 131.34 386.92 131.327C386.674 131.312 386.463 131.241 386.287 131.114C386.113 130.987 385.996 130.811 385.934 130.585L386.416 130.348C386.451 130.49 386.515 130.601 386.611 130.68C386.706 130.756 386.816 130.798 386.94 130.806C387.062 130.813 387.165 130.784 387.25 130.72C387.339 130.655 387.386 130.561 387.394 130.436C387.411 130.165 387.212 130.016 386.796 129.99L386.687 129.983L386.717 129.498L386.875 129.508C387.029 129.518 387.149 129.489 387.234 129.421C387.322 129.351 387.37 129.261 387.377 129.15C387.383 129.048 387.354 128.963 387.291 128.897C387.227 128.831 387.142 128.795 387.034 128.788C386.917 128.781 386.814 128.813 386.723 128.882C386.635 128.95 386.563 129.051 386.509 129.185L386.079 128.903C386.164 128.682 386.297 128.517 386.48 128.409C386.663 128.299 386.875 128.251 387.115 128.266C387.301 128.278 387.462 128.323 387.598 128.402C387.737 128.478 387.842 128.58 387.912 128.709C387.983 128.838 388.013 128.983 388.003 129.144C387.994 129.295 387.95 129.424 387.873 129.53C387.799 129.636 387.692 129.716 387.554 129.769ZM389.832 129.173C389.823 129.318 389.783 129.446 389.711 129.555C389.639 129.661 389.547 129.74 389.432 129.793C389.318 129.845 389.194 129.867 389.062 129.859C388.933 129.851 388.814 129.814 388.707 129.748C388.601 129.682 388.517 129.591 388.456 129.477C388.398 129.36 388.374 129.228 388.383 129.083C388.392 128.937 388.433 128.812 388.504 128.705C388.579 128.599 388.673 128.52 388.787 128.467C388.902 128.412 389.024 128.389 389.153 128.397C389.286 128.405 389.405 128.444 389.512 128.512C389.619 128.578 389.701 128.669 389.759 128.783C389.817 128.897 389.842 129.028 389.832 129.173ZM390.689 128.545L391.263 128.581L389.31 131.427L388.735 131.392L390.689 128.545ZM389.379 129.145C389.385 129.053 389.363 128.979 389.316 128.922C389.268 128.862 389.205 128.83 389.127 128.825C389.051 128.82 388.986 128.845 388.931 128.898C388.876 128.948 388.846 129.02 388.841 129.111C388.835 129.2 388.856 129.275 388.904 129.334C388.952 129.394 389.013 129.426 389.089 129.431C389.167 129.436 389.234 129.411 389.289 129.358C389.343 129.305 389.373 129.234 389.379 129.145ZM391.615 130.885C391.606 131.031 391.566 131.158 391.494 131.267C391.422 131.373 391.329 131.453 391.215 131.505C391.101 131.557 390.978 131.579 390.845 131.571C390.715 131.563 390.597 131.526 390.49 131.46C390.383 131.394 390.3 131.304 390.239 131.189C390.181 131.072 390.157 130.941 390.166 130.795C390.175 130.65 390.215 130.524 390.287 130.417C390.362 130.311 390.456 130.232 390.57 130.18C390.685 130.125 390.807 130.101 390.936 130.109C391.069 130.117 391.188 130.156 391.295 130.225C391.402 130.291 391.484 130.381 391.542 130.495C391.6 130.61 391.624 130.74 391.615 130.885ZM391.162 130.857C391.168 130.765 391.145 130.691 391.095 130.634C391.047 130.574 390.985 130.542 390.91 130.537C390.834 130.533 390.769 130.557 390.714 130.61C390.659 130.661 390.629 130.732 390.624 130.824C390.618 130.913 390.639 130.987 390.687 131.046C390.735 131.106 390.796 131.138 390.872 131.143C390.947 131.148 391.012 131.123 391.067 131.07C391.125 131.017 391.157 130.946 391.162 130.857Z"/>
</mask>
<path d="M376.079 128.104L376.577 128.135L376.528 128.918L377.309 128.967L377.278 129.46L376.497 129.411L376.448 130.195L375.95 130.164L375.999 129.38L375.214 129.332L375.245 128.839L376.03 128.888L376.079 128.104ZM377.861 128.823L377.896 128.261L378.835 127.805L379.292 127.833L379.108 130.794L378.513 130.757L378.657 128.442L377.861 128.823ZM380.907 130.391L382.093 130.464L382.061 130.977L380.017 130.85L380.041 130.471L380.998 129.524C381.162 129.362 381.277 129.234 381.343 129.14C381.411 129.045 381.448 128.944 381.455 128.839C381.462 128.723 381.436 128.628 381.375 128.555C381.315 128.48 381.229 128.44 381.119 128.433C381.005 128.426 380.903 128.462 380.811 128.54C380.72 128.615 380.646 128.727 380.591 128.875L380.146 128.579C380.231 128.344 380.37 128.169 380.561 128.054C380.753 127.936 380.969 127.885 381.209 127.899C381.398 127.911 381.559 127.96 381.691 128.047C381.827 128.131 381.927 128.243 381.992 128.382C382.059 128.521 382.087 128.677 382.076 128.849C382.066 129.019 382.014 129.175 381.921 129.318C381.831 129.459 381.673 129.64 381.448 129.861L380.907 130.391ZM383.711 129.19C383.895 129.202 384.056 129.252 384.194 129.342C384.332 129.429 384.436 129.546 384.505 129.693C384.574 129.841 384.603 130.007 384.592 130.189C384.58 130.381 384.522 130.549 384.418 130.694C384.317 130.839 384.183 130.948 384.016 131.022C383.851 131.095 383.675 131.126 383.486 131.114C383.291 131.102 383.117 131.05 382.963 130.956C382.809 130.86 382.691 130.733 382.609 130.573C382.527 130.414 382.492 130.234 382.505 130.032C382.514 129.881 382.551 129.738 382.617 129.605C382.682 129.468 382.793 129.291 382.951 129.074L383.653 128.104L384.289 128.143L383.654 128.996C383.604 129.066 383.549 129.135 383.491 129.205C383.557 129.19 383.63 129.185 383.711 129.19ZM383.514 130.589C383.641 130.597 383.746 130.561 383.83 130.483C383.914 130.402 383.96 130.294 383.968 130.159C383.976 130.024 383.944 129.913 383.871 129.824C383.798 129.734 383.698 129.684 383.571 129.676C383.442 129.668 383.335 129.705 383.252 129.786C383.168 129.865 383.122 129.971 383.114 130.106C383.105 130.243 383.137 130.356 383.21 130.445C383.286 130.533 383.387 130.581 383.514 130.589ZM385.208 131.229C385.116 131.224 385.04 131.185 384.98 131.114C384.919 131.042 384.892 130.96 384.898 130.866C384.903 130.771 384.941 130.692 385.01 130.629C385.079 130.566 385.159 130.537 385.251 130.543C385.345 130.549 385.423 130.587 385.484 130.659C385.547 130.73 385.576 130.813 385.57 130.907C385.564 131.001 385.525 131.08 385.453 131.143C385.384 131.207 385.303 131.235 385.208 131.229ZM387.554 129.769C387.714 129.842 387.834 129.941 387.913 130.067C387.992 130.191 388.026 130.342 388.015 130.52C388.003 130.703 387.946 130.857 387.843 130.984C387.744 131.107 387.612 131.199 387.448 131.259C387.288 131.317 387.111 131.34 386.92 131.327C386.674 131.312 386.463 131.241 386.287 131.114C386.113 130.987 385.996 130.811 385.934 130.585L386.416 130.348C386.451 130.49 386.515 130.601 386.611 130.68C386.706 130.756 386.816 130.798 386.94 130.806C387.062 130.813 387.165 130.784 387.25 130.72C387.339 130.655 387.386 130.561 387.394 130.436C387.411 130.165 387.212 130.016 386.796 129.99L386.687 129.983L386.717 129.498L386.875 129.508C387.029 129.518 387.149 129.489 387.234 129.421C387.322 129.351 387.37 129.261 387.377 129.15C387.383 129.048 387.354 128.963 387.291 128.897C387.227 128.831 387.142 128.795 387.034 128.788C386.917 128.781 386.814 128.813 386.723 128.882C386.635 128.95 386.563 129.051 386.509 129.185L386.079 128.903C386.164 128.682 386.297 128.517 386.48 128.409C386.663 128.299 386.875 128.251 387.115 128.266C387.301 128.278 387.462 128.323 387.598 128.402C387.737 128.478 387.842 128.58 387.912 128.709C387.983 128.838 388.013 128.983 388.003 129.144C387.994 129.295 387.95 129.424 387.873 129.53C387.799 129.636 387.692 129.716 387.554 129.769ZM389.832 129.173C389.823 129.318 389.783 129.446 389.711 129.555C389.639 129.661 389.547 129.74 389.432 129.793C389.318 129.845 389.194 129.867 389.062 129.859C388.933 129.851 388.814 129.814 388.707 129.748C388.601 129.682 388.517 129.591 388.456 129.477C388.398 129.36 388.374 129.228 388.383 129.083C388.392 128.937 388.433 128.812 388.504 128.705C388.579 128.599 388.673 128.52 388.787 128.467C388.902 128.412 389.024 128.389 389.153 128.397C389.286 128.405 389.405 128.444 389.512 128.512C389.619 128.578 389.701 128.669 389.759 128.783C389.817 128.897 389.842 129.028 389.832 129.173ZM390.689 128.545L391.263 128.581L389.31 131.427L388.735 131.392L390.689 128.545ZM389.379 129.145C389.385 129.053 389.363 128.979 389.316 128.922C389.268 128.862 389.205 128.83 389.127 128.825C389.051 128.82 388.986 128.845 388.931 128.898C388.876 128.948 388.846 129.02 388.841 129.111C388.835 129.2 388.856 129.275 388.904 129.334C388.952 129.394 389.013 129.426 389.089 129.431C389.167 129.436 389.234 129.411 389.289 129.358C389.343 129.305 389.373 129.234 389.379 129.145ZM391.615 130.885C391.606 131.031 391.566 131.158 391.494 131.267C391.422 131.373 391.329 131.453 391.215 131.505C391.101 131.557 390.978 131.579 390.845 131.571C390.715 131.563 390.597 131.526 390.49 131.46C390.383 131.394 390.3 131.304 390.239 131.189C390.181 131.072 390.157 130.941 390.166 130.795C390.175 130.65 390.215 130.524 390.287 130.417C390.362 130.311 390.456 130.232 390.57 130.18C390.685 130.125 390.807 130.101 390.936 130.109C391.069 130.117 391.188 130.156 391.295 130.225C391.402 130.291 391.484 130.381 391.542 130.495C391.6 130.61 391.624 130.74 391.615 130.885ZM391.162 130.857C391.168 130.765 391.145 130.691 391.095 130.634C391.047 130.574 390.985 130.542 390.91 130.537C390.834 130.533 390.769 130.557 390.714 130.61C390.659 130.661 390.629 130.732 390.624 130.824C390.618 130.913 390.639 130.987 390.687 131.046C390.735 131.106 390.796 131.138 390.872 131.143C390.947 131.148 391.012 131.123 391.067 131.07C391.125 131.017 391.157 130.946 391.162 130.857Z" fill="white" stroke="#07828B" stroke-width="0.57947" mask="url(#path-21-inside-1_6104_4501)"/>
<path d="M372.315 151.621L372.564 151.649L383.153 153.199C384.356 153.376 384.94 154.744 384.273 155.727L384.205 155.821V155.822L384.167 155.868C383.358 156.903 382.084 157.457 380.784 157.355L380.524 157.325L370.128 155.807C368.992 155.641 368.398 154.406 368.915 153.433L369.033 153.242L369.128 153.109C369.86 152.086 371.071 151.527 372.315 151.621Z" fill="white" stroke="#07828B" stroke-width="0.289735"/>
<path d="M371.891 152.539L373.437 152.715L373.279 153.098L372.203 152.975L371.97 153.537L372.933 153.647L372.776 154.027L371.813 153.917L371.45 154.795L370.98 154.742L371.891 152.539ZM372.973 154.153C373.041 153.99 373.139 153.851 373.268 153.736C373.399 153.621 373.545 153.538 373.704 153.486C373.864 153.433 374.021 153.415 374.174 153.433C374.325 153.45 374.452 153.5 374.553 153.583C374.657 153.665 374.723 153.772 374.749 153.905C374.778 154.039 374.758 154.187 374.691 154.349C374.624 154.512 374.525 154.65 374.393 154.766C374.264 154.881 374.12 154.965 373.96 155.016C373.803 155.067 373.649 155.084 373.498 155.067C373.345 155.049 373.216 155 373.111 154.919C373.007 154.837 372.94 154.73 372.912 154.597C372.886 154.463 372.906 154.315 372.973 154.153ZM373.44 154.206C373.383 154.345 373.374 154.459 373.413 154.55C373.456 154.638 373.533 154.69 373.646 154.702C373.758 154.715 373.867 154.686 373.974 154.614C374.082 154.54 374.164 154.434 374.221 154.295C374.279 154.157 374.287 154.042 374.248 153.952C374.209 153.861 374.133 153.81 374.02 153.797C373.908 153.784 373.797 153.814 373.687 153.888C373.58 153.962 373.497 154.068 373.44 154.206ZM375.145 155.217L374.695 155.166L375.642 152.876L376.093 152.927L375.145 155.217ZM376.013 155.316L375.562 155.265L376.509 152.975L376.96 153.026L376.013 155.316ZM376.655 154.573C376.722 154.411 376.82 154.272 376.949 154.156C377.081 154.041 377.226 153.958 377.385 153.907C377.545 153.853 377.702 153.836 377.855 153.853C378.007 153.87 378.133 153.921 378.235 154.003C378.339 154.085 378.404 154.192 378.431 154.325C378.459 154.459 378.44 154.607 378.373 154.769C378.305 154.932 378.206 155.07 378.075 155.186C377.945 155.301 377.801 155.385 377.642 155.436C377.485 155.487 377.331 155.504 377.18 155.487C377.026 155.469 376.897 155.42 376.793 155.339C376.688 155.258 376.622 155.15 376.593 155.017C376.567 154.883 376.587 154.736 376.655 154.573ZM377.121 154.626C377.064 154.765 377.055 154.879 377.095 154.97C377.137 155.059 377.215 155.11 377.327 155.122C377.439 155.135 377.549 155.106 377.655 155.034C377.763 154.96 377.845 154.854 377.903 154.716C377.96 154.577 377.969 154.463 377.929 154.372C377.89 154.281 377.814 154.23 377.702 154.217C377.589 154.204 377.478 154.235 377.368 154.308C377.261 154.382 377.179 154.488 377.121 154.626ZM380.249 154.167L380.196 155.179L380.929 154.245L381.367 154.295L380.111 155.781L379.79 155.744L379.799 154.752L379.041 155.658L378.717 155.622L378.725 153.993L379.189 154.046L379.135 155.07L379.873 154.124L380.249 154.167Z" fill="#07828B"/>
<defs>
<linearGradient id="paint0_linear_6104_4501" x1="281.659" y1="58.9153" x2="268.708" y2="116.196" gradientUnits="userSpaceOnUse">
<stop stop-color="#33F39A"/>
<stop offset="0.31638" stop-color="#7FE2B3"/>
<stop offset="0.655" stop-color="white"/>
<stop offset="1" stop-color="#EEEEEE"/>
</linearGradient>
<linearGradient id="paint1_linear_6104_4501" x1="264.528" y1="63.3848" x2="250.093" y2="93.4719" gradientUnits="userSpaceOnUse">
<stop stop-color="#006647"/>
<stop offset="1" stop-color="#07828B"/>
</linearGradient>
<linearGradient id="paint2_linear_6104_4501" x1="388.407" y1="76.1648" x2="385.917" y2="94.6925" gradientUnits="userSpaceOnUse">
<stop stop-color="#006647"/>
<stop offset="1" stop-color="#07828B"/>
</linearGradient>
<linearGradient id="paint3_linear_6104_4501" x1="231.795" y1="109.032" x2="323.339" y2="150.345" gradientUnits="userSpaceOnUse">
<stop stop-color="white"/>
<stop offset="0.436664" stop-color="#006647"/>
<stop offset="1" stop-color="#07828B"/>
</linearGradient>
<linearGradient id="paint4_linear_6104_4501" x1="246.733" y1="113.892" x2="373.2" y2="129.2" gradientUnits="userSpaceOnUse">
<stop stop-color="white"/>
<stop offset="0.28" stop-color="#006647"/>
<stop offset="1" stop-color="#07828B"/>
</linearGradient>
<linearGradient id="paint5_linear_6104_4501" x1="395.748" y1="74.8006" x2="344.894" y2="195.55" gradientUnits="userSpaceOnUse">
<stop stop-color="#33F39A"/>
<stop offset="0.31638" stop-color="#509775"/>
<stop offset="0.655" stop-color="white"/>
<stop offset="1"/>
</linearGradient>
<linearGradient id="paint6_linear_6104_4501" x1="330.644" y1="72.9563" x2="296.245" y2="140.712" gradientUnits="userSpaceOnUse">
<stop stop-color="#006647"/>
<stop offset="1" stop-color="#07828B"/>
</linearGradient>
<linearGradient id="paint7_linear_6104_4501" x1="368.809" y1="151.882" x2="371.491" y2="190.87" gradientUnits="userSpaceOnUse">
<stop stop-color="#07828B" stop-opacity="0.5"/>
<stop offset="1" stop-color="#07828B" stop-opacity="0.2"/>
</linearGradient>
<linearGradient id="paint8_linear_6104_4501" x1="412.603" y1="100.117" x2="412.194" y2="149.573" gradientUnits="userSpaceOnUse">
<stop stop-color="#07828B"/>
<stop offset="0.265" stop-color="#5AB8DB"/>
<stop offset="0.765" stop-color="#07828B"/>
</linearGradient>
<linearGradient id="paint9_linear_6104_4501" x1="381.078" y1="160.518" x2="375.166" y2="122.504" gradientUnits="userSpaceOnUse">
<stop stop-color="#07828B"/>
<stop offset="1" stop-color="white"/>
</linearGradient>
</defs>
</svg>
