<svg width="426" height="233" viewBox="0 0 426 233" fill="none" xmlns="http://www.w3.org/2000/svg">
<rect width="426" height="233" rx="24" fill="#07828B" fill-opacity="0.1"/>
<g clip-path="url(#clip0_3849_2989)">
<path d="M357.354 98.6358C351.06 92.364 342.363 88.4835 332.758 88.4835C313.547 88.4835 297.973 104.002 297.973 123.146V162.772C297.973 181.916 313.547 197.435 332.758 197.435C351.968 197.435 367.542 181.916 367.542 162.772V123.146C367.542 113.575 363.648 104.908 357.354 98.6358ZM342.059 164.067C342.059 169.186 337.895 173.336 332.758 173.336C327.62 173.336 323.457 169.186 323.457 164.067V121.852C323.457 116.732 327.62 112.582 332.758 112.582C335.326 112.582 337.65 113.619 339.334 115.297C341.019 116.975 342.059 119.292 342.059 121.852V164.067Z" fill="url(#paint0_linear_3849_2989)" stroke="url(#paint1_linear_3849_2989)" stroke-width="1.63135" stroke-linejoin="round"/>
<path d="M342.877 121.851V124.502C342.877 121.717 341.744 119.196 339.913 117.371C338.081 115.546 335.552 114.417 332.757 114.417C327.168 114.417 322.637 118.932 322.637 124.502V121.851C322.637 116.281 327.168 111.766 332.757 111.766C335.552 111.766 338.081 112.895 339.913 114.72C341.744 116.545 342.877 119.066 342.877 121.851Z" fill="#07828B"/>
<path d="M344.518 164.899V167.487C344.518 173.959 339.252 179.206 332.757 179.206C326.263 179.206 320.998 173.959 320.998 167.487V164.899C320.998 171.372 326.263 176.618 332.757 176.618C339.252 176.618 344.518 171.372 344.518 164.899Z" fill="#08ACB8"/>
<path d="M364.188 123.631V126.562C364.188 117.912 360.67 110.082 354.983 104.414C349.294 98.7458 341.436 95.24 332.756 95.24C315.397 95.24 301.325 109.263 301.325 126.562V123.631C301.325 106.333 315.397 92.3096 332.756 92.3096C341.436 92.3096 349.294 95.8155 354.983 101.484C360.67 107.152 364.188 114.982 364.188 123.631Z" fill="#07828B" stroke="#07828B" stroke-width="0.0301294" stroke-miterlimit="10" stroke-linecap="round" stroke-linejoin="round"/>
<path d="M364.188 161.611V158.68C364.188 167.33 360.67 175.16 354.983 180.828C349.294 186.496 341.436 190.002 332.756 190.002C315.397 190.002 301.325 175.979 301.325 158.68V161.611C301.325 178.909 315.397 192.933 332.756 192.933C341.436 192.933 349.294 189.427 354.983 183.759C360.67 178.09 364.188 170.26 364.188 161.611Z" fill="#099CA7" stroke="#07828B" stroke-width="0.0301294" stroke-miterlimit="10" stroke-linecap="round" stroke-linejoin="round"/>
<path d="M332.865 200.795H332.649C312.371 200.795 295.932 184.414 295.932 164.207V121.711C295.932 105.889 306.011 92.413 320.119 87.3093" stroke="#07828B" stroke-opacity="0.2" stroke-width="0.466667" stroke-miterlimit="10" stroke-linecap="round" stroke-linejoin="round"/>
<path d="M369.583 121.711V164.207" stroke="#07828B" stroke-width="0.380316" stroke-miterlimit="10" stroke-linecap="round" stroke-linejoin="round"/>
<path d="M372.831 166.529C372.831 187.671 355.632 204.809 334.417 204.809H331.099C309.883 204.809 292.684 187.671 292.684 166.529" stroke="#07828B" stroke-opacity="0.2" stroke-width="0.438729" stroke-miterlimit="10" stroke-linecap="round" stroke-linejoin="round"/>
<path d="M292.684 128.912V120.613C292.684 99.472 309.883 82.3331 331.099 82.3331H334.417C345.488 82.3331 355.465 87.0002 362.476 94.4681" stroke="#07828B" stroke-width="0.228189" stroke-miterlimit="10" stroke-linecap="round" stroke-linejoin="round"/>
<path d="M292.684 128.912V120.613C292.684 99.472 309.883 82.3331 331.099 82.3331H334.417C345.488 82.3331 355.465 87.0002 362.476 94.4681" stroke="#07828B" stroke-opacity="0.2" stroke-width="0.228189" stroke-miterlimit="10" stroke-linecap="round" stroke-linejoin="round"/>
<g filter="url(#filter0_f_3849_2989)">
<path d="M331.092 215.957C306.201 215.957 286.024 195.85 286.024 171.047V114.871C286.024 103.638 290.162 93.3681 297.003 85.4926" stroke="white" stroke-opacity="0.1" stroke-width="0.228189" stroke-miterlimit="10" stroke-linecap="round" stroke-linejoin="round"/>
</g>
<g filter="url(#filter1_f_3849_2989)">
<path d="M360.026 77.907C371.786 86.0112 379.491 99.5449 379.491 114.871V151.554" stroke="white" stroke-opacity="0.1" stroke-width="0.228189" stroke-miterlimit="10" stroke-linecap="round" stroke-linejoin="round"/>
</g>
<path d="M232.163 127.76V119.461C232.163 98.32 249.362 81.1813 270.578 81.1813H273.895C284.967 81.1813 294.944 85.8484 301.954 93.3163" stroke="#07828B" stroke-width="0.228189" stroke-miterlimit="10" stroke-linecap="round" stroke-linejoin="round"/>
<path d="M232.163 127.76V119.461C232.163 98.32 249.362 81.1813 270.578 81.1813H273.895C284.967 81.1813 294.944 85.8484 301.954 93.3163" stroke="#07828B" stroke-opacity="0.2" stroke-width="0.228189" stroke-miterlimit="10" stroke-linecap="round" stroke-linejoin="round"/>
<path d="M232.538 165.23V202.654H304.654" stroke="#07828B" stroke-opacity="0.2" stroke-width="0.438729" stroke-miterlimit="10" stroke-linecap="round" stroke-linejoin="round"/>
<path d="M256.241 91.3988C256.233 91.4027 256.226 91.4068 256.218 91.411C237.962 101.588 237.113 118.5 237.962 126.155C238.008 126.569 238.358 126.881 238.776 126.881H259.238C259.468 126.881 259.688 126.785 259.843 126.615C259.998 126.445 260.074 126.219 260.053 125.99C259.571 120.833 261.023 116.688 263.56 114.04C266.089 111.401 269.766 110.171 273.934 110.953C278.936 111.89 281.691 115.773 282.496 120.261C283.309 124.788 282.089 129.708 279.367 132.455C274.662 137.204 266.009 143.862 257.715 149.882C249.438 155.891 241.576 161.225 238.487 163.32L238.315 163.437C238.091 163.589 237.957 163.842 237.957 164.111V194.2C237.957 194.65 238.323 195.016 238.776 195.016H304.529C304.981 195.016 305.348 194.65 305.348 194.2V175.426C305.348 174.975 304.981 174.61 304.529 174.61H259.167C266.336 169.743 274.128 164.064 280.919 158.819C288.402 153.04 294.72 147.751 297.64 144.652C308.355 133.278 307.765 117.212 303.542 106.739C297.303 91.2643 276.898 80.7251 256.241 91.3988Z" fill="url(#paint2_linear_3849_2989)" stroke="url(#paint3_linear_3849_2989)" stroke-width="1.63135" stroke-linejoin="round"/>
<path d="M304.01 120.709V123.639C304.01 114.99 300.492 107.159 294.804 101.492C289.116 95.8237 281.258 92.3178 272.578 92.3178C255.218 92.3178 241.146 106.341 241.146 123.639V120.709C241.146 103.411 255.218 89.3873 272.578 89.3873C281.258 89.3873 289.116 92.8933 294.804 98.5615C300.492 104.23 304.01 112.06 304.01 120.709Z" fill="#07828B" stroke="#07828B" stroke-width="0.0301294" stroke-miterlimit="10" stroke-linecap="round" stroke-linejoin="round"/>
<path d="M283.069 120.359V123.206C283.069 120.215 281.77 117.508 279.67 115.548C277.57 113.588 274.669 112.376 271.465 112.376C265.056 112.376 259.861 117.225 259.861 123.206V120.359C259.861 114.378 265.056 109.529 271.465 109.529C274.669 109.529 277.57 110.741 279.67 112.701C281.77 114.661 283.069 117.368 283.069 120.359Z" fill="#07828B"/>
<path d="M377.861 177.26C377.86 177.262 377.859 177.264 377.858 177.266C377.857 177.268 377.855 177.27 377.854 177.272C376.917 178.879 375.651 180.102 374.047 180.957C372.428 181.819 370.679 182.252 368.786 182.252C366.895 182.252 365.147 181.82 363.529 180.958C361.964 180.103 360.692 178.877 359.711 177.26C358.745 175.667 358.251 173.82 358.251 171.693C358.251 169.565 358.745 167.717 359.711 166.125C360.69 164.512 361.98 163.285 363.586 162.429C363.591 162.426 363.595 162.424 363.599 162.421C365.219 161.521 366.943 161.073 368.786 161.073C370.673 161.073 372.417 161.522 374.034 162.421C374.038 162.424 374.043 162.426 374.047 162.429C375.651 163.283 376.917 164.506 377.854 166.112C377.857 166.117 377.859 166.121 377.861 166.125C378.828 167.717 379.322 169.565 379.322 171.693C379.322 173.82 378.828 175.667 377.861 177.26ZM365.626 168.184L365.624 168.186C364.813 169.095 364.446 170.273 364.446 171.632C364.446 172.993 364.814 174.18 365.61 175.122C365.62 175.134 365.63 175.145 365.641 175.157C366.486 176.048 367.552 176.501 368.786 176.501C370.051 176.501 371.141 176.055 371.992 175.157C371.997 175.152 372.002 175.146 372.007 175.141C372.853 174.199 373.248 173.005 373.248 171.632C373.248 170.264 372.855 169.083 372 168.176C371.154 167.238 370.063 166.763 368.786 166.763C367.536 166.763 366.466 167.248 365.626 168.184ZM407.673 200.373C407.671 200.377 407.669 200.381 407.666 200.385C406.729 201.992 405.463 203.214 403.859 204.069C402.24 204.932 400.491 205.364 398.598 205.364C396.706 205.364 394.956 204.932 393.338 204.069C391.731 203.213 390.441 201.986 389.463 200.373C388.496 198.78 388.002 196.933 388.002 194.805C388.002 192.634 388.498 190.768 389.463 189.177C390.441 187.564 391.731 186.337 393.338 185.481C394.956 184.618 396.706 184.185 398.598 184.185C400.491 184.185 402.24 184.618 403.859 185.481C405.463 186.336 406.729 187.558 407.666 189.165C407.669 189.169 407.671 189.173 407.673 189.177C408.639 190.768 409.134 192.634 409.134 194.805C409.134 196.933 408.64 198.78 407.673 200.373ZM395.438 198.253C395.443 198.259 395.448 198.264 395.453 198.269C396.298 199.16 397.364 199.614 398.598 199.614C399.864 199.614 400.953 199.168 401.804 198.269C401.809 198.264 401.814 198.259 401.819 198.253C402.665 197.311 403.06 196.118 403.06 194.745C403.06 193.377 402.668 192.196 401.812 191.288C400.966 190.351 399.875 189.875 398.598 189.875C397.352 189.875 396.284 190.358 395.446 191.288C394.59 192.196 394.198 193.377 394.198 194.745C394.198 196.118 394.593 197.311 395.438 198.253ZM366.889 204.578L392.445 161.92H400.496L374.94 204.578H366.889Z" fill="url(#paint4_linear_3849_2989)" stroke="url(#paint5_linear_3849_2989)" stroke-width="1.63135" stroke-linejoin="round"/>
</g>
<path d="M42.48 46.4C44.0933 46.9733 44.9 48.1 44.9 49.78C44.9 51.1 44.4133 52.1333 43.44 52.88C42.48 53.6267 41.1267 54 39.38 54H33.54V39.36H38.84C40.4 39.36 41.6667 39.72 42.64 40.44C43.6267 41.1467 44.12 42.1467 44.12 43.44C44.12 44.7867 43.5733 45.7733 42.48 46.4ZM36.38 41.88V45.34H38.56C39.3467 45.34 39.9667 45.18 40.42 44.86C40.8867 44.5267 41.12 44.0867 41.12 43.54C41.12 43.0067 40.8933 42.6 40.44 42.32C39.9867 42.0267 39.36 41.88 38.56 41.88H36.38ZM39.14 51.48C40.02 51.48 40.6933 51.32 41.16 51C41.64 50.68 41.88 50.2267 41.88 49.64C41.88 49.0533 41.64 48.5933 41.16 48.26C40.6933 47.9267 40.0133 47.76 39.12 47.76H36.38V51.48H39.14ZM51.4938 43.38C52.4138 43.38 53.2271 43.5867 53.9338 44C54.6538 44.4 55.2071 44.9733 55.5938 45.72C55.9938 46.4533 56.1938 47.3 56.1938 48.26C56.1938 48.6867 56.1538 49.12 56.0738 49.56H49.1938C49.3138 50.3333 49.5938 50.92 50.0338 51.32C50.4738 51.7067 51.0204 51.9 51.6738 51.9C52.1404 51.9 52.5538 51.8 52.9138 51.6C53.2871 51.3867 53.5738 51.0733 53.7738 50.66L55.8138 51.86C55.5338 52.62 54.9938 53.2067 54.1938 53.62C53.4071 54.0333 52.5271 54.24 51.5538 54.24C50.6204 54.24 49.7538 54.0333 48.9538 53.62C48.1538 53.2067 47.5071 52.5867 47.0138 51.76C46.5338 50.9333 46.2938 49.94 46.2938 48.78C46.2938 47.6333 46.5338 46.6533 47.0138 45.84C47.5071 45.0267 48.1471 44.4133 48.9338 44C49.7204 43.5867 50.5738 43.38 51.4938 43.38ZM51.4138 45.64C50.8671 45.64 50.4004 45.8133 50.0138 46.16C49.6271 46.5067 49.3671 46.9933 49.2338 47.62H53.3538C53.3004 46.98 53.0938 46.4933 52.7338 46.16C52.3871 45.8133 51.9471 45.64 51.4138 45.64ZM62.6866 51.82C63.4866 51.82 64.1266 51.4267 64.6066 50.64L66.7266 51.88C66.3932 52.6533 65.8666 53.24 65.1466 53.64C64.4266 54.04 63.6066 54.24 62.6866 54.24C61.7666 54.24 60.9066 54.0333 60.1066 53.62C59.3066 53.1933 58.6599 52.5733 58.1666 51.76C57.6732 50.9333 57.4266 49.9533 57.4266 48.82C57.4266 47.6733 57.6732 46.6933 58.1666 45.88C58.6599 45.0533 59.3066 44.4333 60.1066 44.02C60.9066 43.5933 61.7666 43.38 62.6866 43.38C63.6066 43.38 64.4266 43.58 65.1466 43.98C65.8666 44.38 66.3932 44.9667 66.7266 45.74L64.6066 46.98C64.1399 46.2067 63.4999 45.82 62.6866 45.82C61.9666 45.82 61.3866 46.0933 60.9466 46.64C60.5199 47.1733 60.3066 47.9 60.3066 48.82C60.3066 49.7267 60.5266 50.4533 60.9666 51C61.4066 51.5467 61.9799 51.82 62.6866 51.82ZM67.407 48.82C67.407 47.74 67.647 46.7867 68.127 45.96C68.6204 45.1333 69.2737 44.5 70.087 44.06C70.9004 43.6067 71.7804 43.38 72.727 43.38C73.6604 43.38 74.527 43.6067 75.327 44.06C76.1404 44.5 76.787 45.1333 77.267 45.96C77.7604 46.7867 78.007 47.74 78.007 48.82C78.007 49.9 77.7604 50.8533 77.267 51.68C76.787 52.5067 76.1404 53.14 75.327 53.58C74.527 54.02 73.6604 54.24 72.727 54.24C71.7804 54.24 70.9004 54.02 70.087 53.58C69.2737 53.14 68.6204 52.5067 68.127 51.68C67.647 50.8533 67.407 49.9 67.407 48.82ZM70.287 48.82C70.287 49.74 70.5137 50.4733 70.967 51.02C71.4337 51.5533 72.0137 51.82 72.707 51.82C73.4004 51.82 73.9737 51.5533 74.427 51.02C74.8804 50.4733 75.107 49.74 75.107 48.82C75.107 47.9 74.8804 47.1667 74.427 46.62C73.9737 46.0733 73.4004 45.8 72.707 45.8C72.0137 45.8 71.4337 46.0733 70.967 46.62C70.5137 47.1667 70.287 47.9 70.287 48.82ZM91.6788 43.38C92.6788 43.38 93.4921 43.76 94.1188 44.52C94.7454 45.2667 95.0588 46.3467 95.0588 47.76V54H92.3388V48.7C92.3388 46.8067 91.8121 45.86 90.7588 45.86C90.1854 45.86 89.7254 46.12 89.3788 46.64C89.0454 47.16 88.8788 47.88 88.8788 48.8V54H86.1788V48.7C86.1788 46.8067 85.6521 45.86 84.5987 45.86C84.0254 45.86 83.5721 46.12 83.2388 46.64C82.9054 47.16 82.7388 47.88 82.7388 48.8V54H80.0188V43.64H82.3988C82.4654 44.4 82.5188 44.9067 82.5588 45.16C83.2388 43.9733 84.2254 43.38 85.5188 43.38C86.2121 43.38 86.8188 43.56 87.3388 43.92C87.8588 44.28 88.2521 44.8133 88.5188 45.52C88.8521 44.7867 89.2921 44.2467 89.8388 43.9C90.3854 43.5533 90.9988 43.38 91.6788 43.38ZM102.099 43.38C103.019 43.38 103.833 43.5867 104.539 44C105.259 44.4 105.813 44.9733 106.199 45.72C106.599 46.4533 106.799 47.3 106.799 48.26C106.799 48.6867 106.759 49.12 106.679 49.56H99.7992C99.9192 50.3333 100.199 50.92 100.639 51.32C101.079 51.7067 101.626 51.9 102.279 51.9C102.746 51.9 103.159 51.8 103.519 51.6C103.893 51.3867 104.179 51.0733 104.379 50.66L106.419 51.86C106.139 52.62 105.599 53.2067 104.799 53.62C104.013 54.0333 103.133 54.24 102.159 54.24C101.226 54.24 100.359 54.0333 99.5592 53.62C98.7592 53.2067 98.1126 52.5867 97.6192 51.76C97.1392 50.9333 96.8992 49.94 96.8992 48.78C96.8992 47.6333 97.1392 46.6533 97.6192 45.84C98.1126 45.0267 98.7526 44.4133 99.5392 44C100.326 43.5867 101.179 43.38 102.099 43.38ZM102.019 45.64C101.473 45.64 101.006 45.8133 100.619 46.16C100.233 46.5067 99.9726 46.9933 99.8392 47.62H103.959C103.906 46.98 103.699 46.4933 103.339 46.16C102.993 45.8133 102.553 45.64 102.019 45.64ZM118.403 43.38C119.803 43.38 120.896 43.78 121.683 44.58C122.469 45.3667 122.863 46.4933 122.863 47.96V54H120.523C120.509 53.8933 120.489 53.72 120.463 53.48C120.449 53.2267 120.423 53.0067 120.383 52.82C120.076 53.3 119.676 53.66 119.183 53.9C118.703 54.1267 118.116 54.24 117.423 54.24C116.703 54.24 116.043 54.1133 115.443 53.86C114.856 53.6067 114.389 53.24 114.043 52.76C113.696 52.2667 113.523 51.6867 113.523 51.02C113.523 50.3267 113.716 49.7267 114.103 49.22C114.503 48.7 115.036 48.3 115.703 48.02C116.369 47.74 117.103 47.6 117.903 47.6C118.623 47.6 119.363 47.72 120.123 47.96C120.083 46.4267 119.429 45.66 118.163 45.66C117.149 45.66 116.409 46.1133 115.943 47.02L113.963 45.88C114.336 45.1067 114.909 44.5 115.683 44.06C116.456 43.6067 117.363 43.38 118.403 43.38ZM120.123 49.8C119.456 49.64 118.876 49.56 118.383 49.56C117.729 49.56 117.223 49.68 116.863 49.92C116.503 50.1467 116.323 50.4733 116.323 50.9C116.323 51.2867 116.463 51.5867 116.743 51.8C117.036 52.0133 117.409 52.12 117.863 52.12C118.463 52.12 118.989 51.9533 119.443 51.62C119.896 51.2733 120.123 50.8 120.123 50.2V49.8ZM137.202 51.58C137.909 51.58 138.516 51.3933 139.022 51.02C139.542 50.6467 139.956 50.1267 140.262 49.46L142.682 50.86C142.322 51.8467 141.662 52.66 140.702 53.3C139.742 53.9267 138.596 54.24 137.262 54.24C135.969 54.24 134.789 53.9267 133.722 53.3C132.656 52.6733 131.809 51.7867 131.182 50.64C130.556 49.48 130.242 48.1533 130.242 46.66C130.242 45.1667 130.549 43.8467 131.162 42.7C131.789 41.5533 132.636 40.6667 133.702 40.04C134.782 39.4133 135.969 39.1 137.262 39.1C138.596 39.1 139.742 39.42 140.702 40.06C141.662 40.6867 142.322 41.4933 142.682 42.48L140.262 43.88C139.956 43.2133 139.542 42.6933 139.022 42.32C138.516 41.9467 137.909 41.76 137.202 41.76C136.456 41.76 135.789 41.96 135.202 42.36C134.616 42.76 134.149 43.3333 133.802 44.08C133.469 44.8133 133.302 45.6733 133.302 46.66C133.302 47.6467 133.469 48.5133 133.802 49.26C134.149 50.0067 134.616 50.58 135.202 50.98C135.789 51.38 136.456 51.58 137.202 51.58ZM143.716 48.82C143.716 47.74 143.956 46.7867 144.436 45.96C144.929 45.1333 145.582 44.5 146.396 44.06C147.209 43.6067 148.089 43.38 149.036 43.38C149.969 43.38 150.836 43.6067 151.636 44.06C152.449 44.5 153.096 45.1333 153.576 45.96C154.069 46.7867 154.316 47.74 154.316 48.82C154.316 49.9 154.069 50.8533 153.576 51.68C153.096 52.5067 152.449 53.14 151.636 53.58C150.836 54.02 149.969 54.24 149.036 54.24C148.089 54.24 147.209 54.02 146.396 53.58C145.582 53.14 144.929 52.5067 144.436 51.68C143.956 50.8533 143.716 49.9 143.716 48.82ZM146.596 48.82C146.596 49.74 146.822 50.4733 147.276 51.02C147.742 51.5533 148.322 51.82 149.016 51.82C149.709 51.82 150.282 51.5533 150.736 51.02C151.189 50.4733 151.416 49.74 151.416 48.82C151.416 47.9 151.189 47.1667 150.736 46.62C150.282 46.0733 149.709 45.8 149.016 45.8C148.322 45.8 147.742 46.0733 147.276 46.62C146.822 47.1667 146.596 47.9 146.596 48.82ZM162.267 43.38C163.414 43.38 164.321 43.76 164.987 44.52C165.654 45.2667 165.987 46.36 165.987 47.8V54H163.207V48.7C163.207 46.8067 162.581 45.86 161.327 45.86C160.661 45.86 160.121 46.12 159.707 46.64C159.307 47.1467 159.107 47.8667 159.107 48.8V54H156.327V43.64H158.767C158.834 44.4533 158.894 45.0067 158.947 45.3C159.614 44.02 160.721 43.38 162.267 43.38ZM175.539 53.4C174.859 53.96 173.912 54.24 172.699 54.24C171.579 54.24 170.672 53.9467 169.979 53.36C169.299 52.76 168.959 51.6933 168.959 50.16V45.98H167.119V43.64H168.959V40.46H171.739V43.64H174.859V45.98H171.739V49.7C171.739 50.3933 171.859 50.92 172.099 51.28C172.339 51.64 172.726 51.82 173.259 51.82C173.726 51.82 174.166 51.68 174.579 51.4L175.539 53.4ZM182.296 43.38C182.696 43.38 183.069 43.44 183.416 43.56C183.763 43.68 184.029 43.8333 184.216 44.02L183.136 46.16C182.789 45.92 182.396 45.8 181.956 45.8C181.236 45.8 180.656 46.1 180.216 46.7C179.789 47.3 179.576 48.1267 179.576 49.18V54H176.796V43.64H179.236C179.303 44.44 179.363 44.9867 179.416 45.28C179.723 44.6533 180.123 44.18 180.616 43.86C181.109 43.54 181.669 43.38 182.296 43.38ZM188.95 43.38C190.35 43.38 191.443 43.78 192.23 44.58C193.016 45.3667 193.41 46.4933 193.41 47.96V54H191.07C191.056 53.8933 191.036 53.72 191.01 53.48C190.996 53.2267 190.97 53.0067 190.93 52.82C190.623 53.3 190.223 53.66 189.73 53.9C189.25 54.1267 188.663 54.24 187.97 54.24C187.25 54.24 186.59 54.1133 185.99 53.86C185.403 53.6067 184.936 53.24 184.59 52.76C184.243 52.2667 184.07 51.6867 184.07 51.02C184.07 50.3267 184.263 49.7267 184.65 49.22C185.05 48.7 185.583 48.3 186.25 48.02C186.916 47.74 187.65 47.6 188.45 47.6C189.17 47.6 189.91 47.72 190.67 47.96C190.63 46.4267 189.976 45.66 188.71 45.66C187.696 45.66 186.956 46.1133 186.49 47.02L184.51 45.88C184.883 45.1067 185.456 44.5 186.23 44.06C187.003 43.6067 187.91 43.38 188.95 43.38ZM190.67 49.8C190.003 49.64 189.423 49.56 188.93 49.56C188.276 49.56 187.77 49.68 187.41 49.92C187.05 50.1467 186.87 50.4733 186.87 50.9C186.87 51.2867 187.01 51.5867 187.29 51.8C187.583 52.0133 187.956 52.12 188.41 52.12C189.01 52.12 189.536 51.9533 189.99 51.62C190.443 51.2733 190.67 50.8 190.67 50.2V49.8ZM200.519 51.82C201.319 51.82 201.959 51.4267 202.439 50.64L204.559 51.88C204.225 52.6533 203.699 53.24 202.979 53.64C202.259 54.04 201.439 54.24 200.519 54.24C199.599 54.24 198.739 54.0333 197.939 53.62C197.139 53.1933 196.492 52.5733 195.999 51.76C195.505 50.9333 195.259 49.9533 195.259 48.82C195.259 47.6733 195.505 46.6933 195.999 45.88C196.492 45.0533 197.139 44.4333 197.939 44.02C198.739 43.5933 199.599 43.38 200.519 43.38C201.439 43.38 202.259 43.58 202.979 43.98C203.699 44.38 204.225 44.9667 204.559 45.74L202.439 46.98C201.972 46.2067 201.332 45.82 200.519 45.82C199.799 45.82 199.219 46.0933 198.779 46.64C198.352 47.1733 198.139 47.9 198.139 48.82C198.139 49.7267 198.359 50.4533 198.799 51C199.239 51.5467 199.812 51.82 200.519 51.82ZM213.625 53.4C212.945 53.96 211.998 54.24 210.785 54.24C209.665 54.24 208.758 53.9467 208.065 53.36C207.385 52.76 207.045 51.6933 207.045 50.16V45.98H205.205V43.64H207.045V40.46H209.825V43.64H212.945V45.98H209.825V49.7C209.825 50.3933 209.945 50.92 210.185 51.28C210.425 51.64 210.812 51.82 211.345 51.82C211.812 51.82 212.252 51.68 212.665 51.4L213.625 53.4ZM218.527 39.36H230.327V41.94H225.887V54H222.967V41.94H218.527V39.36ZM235.402 43.38C235.802 43.38 236.175 43.44 236.522 43.56C236.868 43.68 237.135 43.8333 237.322 44.02L236.242 46.16C235.895 45.92 235.502 45.8 235.062 45.8C234.342 45.8 233.762 46.1 233.322 46.7C232.895 47.3 232.682 48.1267 232.682 49.18V54H229.902V43.64H232.342C232.408 44.44 232.468 44.9867 232.522 45.28C232.828 44.6533 233.228 44.18 233.722 43.86C234.215 43.54 234.775 43.38 235.402 43.38ZM242.055 43.38C243.455 43.38 244.548 43.78 245.335 44.58C246.122 45.3667 246.515 46.4933 246.515 47.96V54H244.175C244.162 53.8933 244.142 53.72 244.115 53.48C244.102 53.2267 244.075 53.0067 244.035 52.82C243.728 53.3 243.328 53.66 242.835 53.9C242.355 54.1267 241.768 54.24 241.075 54.24C240.355 54.24 239.695 54.1133 239.095 53.86C238.508 53.6067 238.042 53.24 237.695 52.76C237.348 52.2667 237.175 51.6867 237.175 51.02C237.175 50.3267 237.368 49.7267 237.755 49.22C238.155 48.7 238.688 48.3 239.355 48.02C240.022 47.74 240.755 47.6 241.555 47.6C242.275 47.6 243.015 47.72 243.775 47.96C243.735 46.4267 243.082 45.66 241.815 45.66C240.802 45.66 240.062 46.1133 239.595 47.02L237.615 45.88C237.988 45.1067 238.562 44.5 239.335 44.06C240.108 43.6067 241.015 43.38 242.055 43.38ZM243.775 49.8C243.108 49.64 242.528 49.56 242.035 49.56C241.382 49.56 240.875 49.68 240.515 49.92C240.155 50.1467 239.975 50.4733 239.975 50.9C239.975 51.2867 240.115 51.5867 240.395 51.8C240.688 52.0133 241.062 52.12 241.515 52.12C242.115 52.12 242.642 51.9533 243.095 51.62C243.548 51.2733 243.775 50.8 243.775 50.2V49.8ZM256.164 38.78H258.944V54H256.504C256.437 53.2267 256.384 52.7067 256.344 52.44C255.984 53.04 255.511 53.4933 254.924 53.8C254.351 54.0933 253.724 54.24 253.044 54.24C252.191 54.24 251.411 54.0267 250.704 53.6C249.997 53.1733 249.431 52.5533 249.004 51.74C248.577 50.9133 248.364 49.94 248.364 48.82C248.364 47.6867 248.577 46.7133 249.004 45.9C249.431 45.0733 249.997 44.4467 250.704 44.02C251.411 43.5933 252.191 43.38 253.044 43.38C253.671 43.38 254.251 43.5067 254.784 43.76C255.331 44.0133 255.791 44.4 256.164 44.92V38.78ZM253.684 51.86C254.377 51.86 254.964 51.6067 255.444 51.1C255.924 50.5933 256.164 49.8333 256.164 48.82C256.164 47.82 255.924 47.08 255.444 46.6C254.964 46.1067 254.377 45.86 253.684 45.86C252.951 45.86 252.357 46.12 251.904 46.64C251.464 47.16 251.244 47.8867 251.244 48.82C251.244 49.7533 251.464 50.4933 251.904 51.04C252.357 51.5867 252.951 51.86 253.684 51.86ZM266.142 43.38C267.062 43.38 267.876 43.5867 268.582 44C269.302 44.4 269.856 44.9733 270.242 45.72C270.642 46.4533 270.842 47.3 270.842 48.26C270.842 48.6867 270.802 49.12 270.722 49.56H263.842C263.962 50.3333 264.242 50.92 264.682 51.32C265.122 51.7067 265.669 51.9 266.322 51.9C266.789 51.9 267.202 51.8 267.562 51.6C267.936 51.3867 268.222 51.0733 268.422 50.66L270.462 51.86C270.182 52.62 269.642 53.2067 268.842 53.62C268.056 54.0333 267.176 54.24 266.202 54.24C265.269 54.24 264.402 54.0333 263.602 53.62C262.802 53.2067 262.156 52.5867 261.662 51.76C261.182 50.9333 260.942 49.94 260.942 48.78C260.942 47.6333 261.182 46.6533 261.662 45.84C262.156 45.0267 262.796 44.4133 263.582 44C264.369 43.5867 265.222 43.38 266.142 43.38ZM266.062 45.64C265.516 45.64 265.049 45.8133 264.662 46.16C264.276 46.5067 264.016 46.9933 263.882 47.62H268.002C267.949 46.98 267.742 46.4933 267.382 46.16C267.036 45.8133 266.596 45.64 266.062 45.64ZM278.175 43.38C278.575 43.38 278.948 43.44 279.295 43.56C279.642 43.68 279.908 43.8333 280.095 44.02L279.015 46.16C278.668 45.92 278.275 45.8 277.835 45.8C277.115 45.8 276.535 46.1 276.095 46.7C275.668 47.3 275.455 48.1267 275.455 49.18V54H272.675V43.64H275.115C275.182 44.44 275.242 44.9867 275.295 45.28C275.602 44.6533 276.002 44.18 276.495 43.86C276.988 43.54 277.548 43.38 278.175 43.38ZM42.38 77.82H36.44V81.46H43.3V84H33.54V69.36H43.08V71.88H36.44V75.32H42.38V77.82ZM51.408 73.38C52.5546 73.38 53.4613 73.76 54.128 74.52C54.7946 75.2667 55.128 76.36 55.128 77.8V84H52.348V78.7C52.348 76.8067 51.7213 75.86 50.468 75.86C49.8013 75.86 49.2613 76.12 48.848 76.64C48.448 77.1467 48.248 77.8667 48.248 78.8V84H45.468V73.64H47.908C47.9746 74.4533 48.0346 75.0067 48.088 75.3C48.7546 74.02 49.8613 73.38 51.408 73.38ZM58.8783 72.32C58.4383 72.32 58.0583 72.1533 57.7383 71.82C57.4183 71.4733 57.2583 71.0733 57.2583 70.62C57.2583 70.1533 57.4183 69.7533 57.7383 69.42C58.0583 69.0867 58.4383 68.92 58.8783 68.92C59.3449 68.92 59.7383 69.0867 60.0583 69.42C60.3916 69.7533 60.5583 70.1533 60.5583 70.62C60.5583 71.0733 60.3916 71.4733 60.0583 71.82C59.7383 72.1533 59.3449 72.32 58.8783 72.32ZM56.1983 88.88C55.6383 88.88 55.0983 88.78 54.5783 88.58C54.0449 88.3933 53.6116 88.12 53.2783 87.76L54.7783 85.86C55.1116 86.26 55.5116 86.46 55.9783 86.46C56.4983 86.46 56.8849 86.2667 57.1383 85.88C57.4049 85.4933 57.5383 84.88 57.5383 84.04V73.64H60.3183V84.26C60.3183 85.3 60.1249 86.1667 59.7383 86.86C59.3649 87.5533 58.8649 88.06 58.2383 88.38C57.6116 88.7133 56.9316 88.88 56.1983 88.88ZM62.2703 78.82C62.2703 77.74 62.5103 76.7867 62.9903 75.96C63.4836 75.1333 64.137 74.5 64.9503 74.06C65.7636 73.6067 66.6436 73.38 67.5903 73.38C68.5236 73.38 69.3903 73.6067 70.1903 74.06C71.0036 74.5 71.6503 75.1333 72.1303 75.96C72.6236 76.7867 72.8703 77.74 72.8703 78.82C72.8703 79.9 72.6236 80.8533 72.1303 81.68C71.6503 82.5067 71.0036 83.14 70.1903 83.58C69.3903 84.02 68.5236 84.24 67.5903 84.24C66.6436 84.24 65.7636 84.02 64.9503 83.58C64.137 83.14 63.4836 82.5067 62.9903 81.68C62.5103 80.8533 62.2703 79.9 62.2703 78.82ZM65.1503 78.82C65.1503 79.74 65.377 80.4733 65.8303 81.02C66.297 81.5533 66.877 81.82 67.5703 81.82C68.2636 81.82 68.837 81.5533 69.2903 81.02C69.7436 80.4733 69.9703 79.74 69.9703 78.82C69.9703 77.9 69.7436 77.1667 69.2903 76.62C68.837 76.0733 68.2636 75.8 67.5703 75.8C66.877 75.8 66.297 76.0733 65.8303 76.62C65.377 77.1667 65.1503 77.9 65.1503 78.82ZM81.3766 73.64H84.2766L79.6166 85.36C79.1232 86.6 78.5432 87.4933 77.8766 88.04C77.2232 88.6 76.4032 88.88 75.4166 88.88C74.9366 88.88 74.4832 88.8067 74.0566 88.66C73.6432 88.5267 73.2832 88.34 72.9766 88.1L74.0766 85.98C74.4766 86.2733 74.9166 86.42 75.3966 86.42C75.7032 86.42 75.9632 86.3533 76.1766 86.22C76.4032 86.1 76.6166 85.88 76.8166 85.56C77.0166 85.2533 77.2499 84.7933 77.5166 84.18L73.0166 73.64H76.1366L78.8766 80.78L81.3766 73.64ZM97.7539 73.64H100.534V84H98.0739C98.0206 83.2 97.9672 82.66 97.9139 82.38C97.5672 83.0067 97.1139 83.4733 96.5539 83.78C95.9939 84.0867 95.3539 84.24 94.6339 84.24C93.4739 84.24 92.5606 83.8667 91.8939 83.12C91.2272 82.3733 90.8939 81.28 90.8939 79.84V73.64H93.6739V78.92C93.6739 80.8267 94.2872 81.78 95.5139 81.78C96.1806 81.78 96.7206 81.52 97.1339 81C97.5472 80.48 97.7539 79.7533 97.7539 78.82V73.64ZM109.044 73.38C109.884 73.38 110.658 73.5933 111.364 74.02C112.084 74.4467 112.651 75.0733 113.064 75.9C113.491 76.7267 113.704 77.7 113.704 78.82C113.704 79.94 113.491 80.9133 113.064 81.74C112.651 82.5533 112.084 83.1733 111.364 83.6C110.658 84.0267 109.884 84.24 109.044 84.24C108.404 84.24 107.811 84.1133 107.264 83.86C106.718 83.6067 106.264 83.22 105.904 82.7V88.64H103.124V73.64H105.564L105.624 74.32C105.638 74.4533 105.651 74.5933 105.664 74.74C105.678 74.8867 105.698 75.04 105.724 75.2C106.084 74.5867 106.551 74.1333 107.124 73.84C107.711 73.5333 108.351 73.38 109.044 73.38ZM108.404 81.78C109.124 81.78 109.704 81.52 110.144 81C110.598 80.4667 110.824 79.74 110.824 78.82C110.824 77.8733 110.604 77.1267 110.164 76.58C109.724 76.0333 109.138 75.76 108.404 75.76C107.711 75.76 107.118 76.02 106.624 76.54C106.144 77.0467 105.904 77.8067 105.904 78.82C105.904 79.82 106.144 80.5667 106.624 81.06C107.104 81.54 107.698 81.78 108.404 81.78ZM128.313 83.4C127.633 83.96 126.686 84.24 125.473 84.24C124.353 84.24 123.446 83.9467 122.752 83.36C122.073 82.76 121.733 81.6933 121.733 80.16V75.98H119.893V73.64H121.733V70.46H124.513V73.64H127.633V75.98H124.513V79.7C124.513 80.3933 124.633 80.92 124.873 81.28C125.113 81.64 125.499 81.82 126.033 81.82C126.499 81.82 126.939 81.68 127.353 81.4L128.313 83.4ZM128.794 78.82C128.794 77.74 129.034 76.7867 129.514 75.96C130.007 75.1333 130.66 74.5 131.474 74.06C132.287 73.6067 133.167 73.38 134.114 73.38C135.047 73.38 135.914 73.6067 136.714 74.06C137.527 74.5 138.174 75.1333 138.654 75.96C139.147 76.7867 139.394 77.74 139.394 78.82C139.394 79.9 139.147 80.8533 138.654 81.68C138.174 82.5067 137.527 83.14 136.714 83.58C135.914 84.02 135.047 84.24 134.114 84.24C133.167 84.24 132.287 84.02 131.474 83.58C130.66 83.14 130.007 82.5067 129.514 81.68C129.034 80.8533 128.794 79.9 128.794 78.82ZM131.674 78.82C131.674 79.74 131.9 80.4733 132.354 81.02C132.82 81.5533 133.4 81.82 134.094 81.82C134.787 81.82 135.36 81.5533 135.814 81.02C136.267 80.4733 136.494 79.74 136.494 78.82C136.494 77.9 136.267 77.1667 135.814 76.62C135.36 76.0733 134.787 75.8 134.094 75.8C133.4 75.8 132.82 76.0733 132.354 76.62C131.9 77.1667 131.674 77.9 131.674 78.82ZM37.22 111.46H43.08V114H32.98V112.12L37.4 107.16C38.16 106.307 38.6867 105.64 38.98 105.16C39.2867 104.667 39.44 104.16 39.44 103.64C39.44 103.067 39.28 102.607 38.96 102.26C38.64 101.913 38.2067 101.74 37.66 101.74C37.1 101.74 36.6067 101.947 36.18 102.36C35.7533 102.76 35.4267 103.333 35.2 104.08L32.92 102.76C33.2667 101.573 33.8933 100.667 34.8 100.04C35.7067 99.4 36.7533 99.08 37.94 99.08C38.8733 99.08 39.68 99.2733 40.36 99.66C41.0533 100.033 41.58 100.553 41.94 101.22C42.3133 101.887 42.5 102.647 42.5 103.5C42.5 104.34 42.2933 105.127 41.88 105.86C41.48 106.58 40.76 107.52 39.72 108.68L37.22 111.46ZM55.1917 106.68C55.1917 109.147 54.7451 111.027 53.8517 112.32C52.9584 113.6 51.6851 114.24 50.0317 114.24C48.3784 114.24 47.0984 113.6 46.1917 112.32C45.2984 111.027 44.8517 109.147 44.8517 106.68C44.8517 104.2 45.2984 102.313 46.1917 101.02C47.0984 99.7267 48.3784 99.08 50.0317 99.08C51.6851 99.08 52.9584 99.7267 53.8517 101.02C54.7451 102.313 55.1917 104.2 55.1917 106.68ZM47.9317 106.68C47.9317 108.333 48.0984 109.567 48.4317 110.38C48.7784 111.18 49.3117 111.58 50.0317 111.58C50.7517 111.58 51.2784 111.18 51.6117 110.38C51.9451 109.567 52.1117 108.333 52.1117 106.68C52.1117 105.013 51.9451 103.773 51.6117 102.96C51.2784 102.147 50.7517 101.74 50.0317 101.74C49.3117 101.74 48.7784 102.147 48.4317 102.96C48.0984 103.76 47.9317 105 47.9317 106.68ZM63.5034 102.72C63.5034 103.44 63.3434 104.08 63.0234 104.64C62.7034 105.187 62.2701 105.607 61.7234 105.9C61.1768 106.193 60.5768 106.34 59.9234 106.34C59.2834 106.34 58.6901 106.193 58.1434 105.9C57.5968 105.607 57.1568 105.187 56.8234 104.64C56.5034 104.08 56.3434 103.44 56.3434 102.72C56.3434 102 56.5034 101.367 56.8234 100.82C57.1568 100.273 57.5968 99.8533 58.1434 99.56C58.6901 99.2533 59.2834 99.1 59.9234 99.1C60.5768 99.1 61.1768 99.2533 61.7234 99.56C62.2701 99.8533 62.7034 100.273 63.0234 100.82C63.3434 101.367 63.5034 102 63.5034 102.72ZM67.5234 99.36H70.3634L61.6234 114H58.7834L67.5234 99.36ZM61.2634 102.72C61.2634 102.267 61.1368 101.907 60.8834 101.64C60.6301 101.36 60.3101 101.22 59.9234 101.22C59.5501 101.22 59.2368 101.36 58.9834 101.64C58.7301 101.907 58.6034 102.267 58.6034 102.72C58.6034 103.16 58.7301 103.52 58.9834 103.8C59.2368 104.08 59.5501 104.22 59.9234 104.22C60.3101 104.22 60.6301 104.08 60.8834 103.8C61.1368 103.52 61.2634 103.16 61.2634 102.72ZM72.8034 110.62C72.8034 111.34 72.6434 111.98 72.3234 112.54C72.0034 113.087 71.5701 113.507 71.0234 113.8C70.4768 114.093 69.8768 114.24 69.2234 114.24C68.5834 114.24 67.9901 114.093 67.4434 113.8C66.8968 113.507 66.4568 113.087 66.1234 112.54C65.8034 111.98 65.6434 111.34 65.6434 110.62C65.6434 109.9 65.8034 109.267 66.1234 108.72C66.4568 108.173 66.8968 107.753 67.4434 107.46C67.9901 107.153 68.5834 107 69.2234 107C69.8768 107 70.4768 107.153 71.0234 107.46C71.5701 107.753 72.0034 108.173 72.3234 108.72C72.6434 109.267 72.8034 109.9 72.8034 110.62ZM70.5634 110.62C70.5634 110.167 70.4301 109.807 70.1634 109.54C69.9101 109.26 69.5968 109.12 69.2234 109.12C68.8501 109.12 68.5368 109.26 68.2834 109.54C68.0301 109.807 67.9034 110.167 67.9034 110.62C67.9034 111.06 68.0301 111.42 68.2834 111.7C68.5368 111.98 68.8501 112.12 69.2234 112.12C69.5968 112.12 69.9101 111.98 70.1634 111.7C70.4301 111.42 70.5634 111.06 70.5634 110.62ZM85.7434 103.38C86.5834 103.38 87.3568 103.593 88.0634 104.02C88.7834 104.447 89.3501 105.073 89.7634 105.9C90.1901 106.727 90.4034 107.7 90.4034 108.82C90.4034 109.94 90.1901 110.913 89.7634 111.74C89.3501 112.553 88.7834 113.173 88.0634 113.6C87.3568 114.027 86.5834 114.24 85.7434 114.24C85.1034 114.24 84.5101 114.113 83.9634 113.86C83.4168 113.607 82.9634 113.22 82.6034 112.7V118.64H79.8234V103.64H82.2634L82.3234 104.32C82.3368 104.453 82.3501 104.593 82.3634 104.74C82.3768 104.887 82.3968 105.04 82.4234 105.2C82.7834 104.587 83.2501 104.133 83.8234 103.84C84.4101 103.533 85.0501 103.38 85.7434 103.38ZM85.1034 111.78C85.8234 111.78 86.4034 111.52 86.8434 111C87.2968 110.467 87.5234 109.74 87.5234 108.82C87.5234 107.873 87.3034 107.127 86.8634 106.58C86.4234 106.033 85.8368 105.76 85.1034 105.76C84.4101 105.76 83.8168 106.02 83.3234 106.54C82.8434 107.047 82.6034 107.807 82.6034 108.82C82.6034 109.82 82.8434 110.567 83.3234 111.06C83.8034 111.54 84.3968 111.78 85.1034 111.78ZM97.9211 103.38C98.3211 103.38 98.6944 103.44 99.0411 103.56C99.3878 103.68 99.6544 103.833 99.8411 104.02L98.7611 106.16C98.4144 105.92 98.0211 105.8 97.5811 105.8C96.8611 105.8 96.2811 106.1 95.8411 106.7C95.4144 107.3 95.2011 108.127 95.2011 109.18V114H92.4211V103.64H94.8611C94.9278 104.44 94.9878 104.987 95.0411 105.28C95.3478 104.653 95.7478 104.18 96.2411 103.86C96.7344 103.54 97.2944 103.38 97.9211 103.38ZM99.7313 108.82C99.7313 107.74 99.9713 106.787 100.451 105.96C100.945 105.133 101.598 104.5 102.411 104.06C103.225 103.607 104.105 103.38 105.051 103.38C105.985 103.38 106.851 103.607 107.651 104.06C108.465 104.5 109.111 105.133 109.591 105.96C110.085 106.787 110.331 107.74 110.331 108.82C110.331 109.9 110.085 110.853 109.591 111.68C109.111 112.507 108.465 113.14 107.651 113.58C106.851 114.02 105.985 114.24 105.051 114.24C104.105 114.24 103.225 114.02 102.411 113.58C101.598 113.14 100.945 112.507 100.451 111.68C99.9713 110.853 99.7313 109.9 99.7313 108.82ZM102.611 108.82C102.611 109.74 102.838 110.473 103.291 111.02C103.758 111.553 104.338 111.82 105.031 111.82C105.725 111.82 106.298 111.553 106.751 111.02C107.205 110.473 107.431 109.74 107.431 108.82C107.431 107.9 107.205 107.167 106.751 106.62C106.298 106.073 105.725 105.8 105.031 105.8C104.338 105.8 103.758 106.073 103.291 106.62C102.838 107.167 102.611 107.9 102.611 108.82ZM112.847 103.14C112.847 101.567 113.2 100.407 113.907 99.66C114.613 98.9 115.58 98.52 116.807 98.52C117.433 98.52 118 98.62 118.507 98.82V101.24C118.107 101.04 117.707 100.94 117.307 100.94C116.747 100.94 116.327 101.127 116.047 101.5C115.767 101.873 115.627 102.487 115.627 103.34V103.64H118.207V105.96H115.627V114H112.847V105.96H111.067V103.64H112.847V103.14ZM121.027 102.32C120.587 102.32 120.2 102.153 119.867 101.82C119.547 101.473 119.387 101.073 119.387 100.62C119.387 100.153 119.547 99.7533 119.867 99.42C120.187 99.0867 120.573 98.92 121.027 98.92C121.48 98.92 121.873 99.0933 122.207 99.44C122.54 99.7733 122.707 100.167 122.707 100.62C122.707 101.073 122.54 101.473 122.207 101.82C121.873 102.153 121.48 102.32 121.027 102.32ZM122.447 114H119.667V103.64H122.447V114ZM132.219 113.4C131.539 113.96 130.592 114.24 129.379 114.24C128.259 114.24 127.352 113.947 126.659 113.36C125.979 112.76 125.639 111.693 125.639 110.16V105.98H123.799V103.64H125.639V100.46H128.419V103.64H131.539V105.98H128.419V109.7C128.419 110.393 128.539 110.92 128.779 111.28C129.019 111.64 129.405 111.82 129.939 111.82C130.405 111.82 130.845 111.68 131.259 111.4L132.219 113.4ZM146.546 110.92C146.546 111.947 146.146 112.76 145.346 113.36C144.56 113.947 143.533 114.24 142.266 114.24C141.173 114.24 140.226 114.007 139.426 113.54C138.64 113.073 138.106 112.427 137.826 111.6L139.846 110.42C140.046 110.913 140.36 111.3 140.786 111.58C141.213 111.847 141.713 111.98 142.286 111.98C142.713 111.98 143.053 111.9 143.306 111.74C143.56 111.58 143.686 111.353 143.686 111.06C143.686 110.727 143.52 110.473 143.186 110.3C142.853 110.113 142.333 109.92 141.626 109.72C140.92 109.507 140.34 109.3 139.886 109.1C139.446 108.9 139.06 108.613 138.726 108.24C138.406 107.853 138.246 107.353 138.246 106.74C138.246 106.047 138.433 105.447 138.806 104.94C139.193 104.433 139.706 104.047 140.346 103.78C140.986 103.513 141.686 103.38 142.446 103.38C143.486 103.38 144.366 103.607 145.086 104.06C145.806 104.5 146.26 105.087 146.446 105.82L144.426 106.96C144.026 106.093 143.353 105.66 142.406 105.66C142.006 105.66 141.686 105.74 141.446 105.9C141.206 106.047 141.086 106.26 141.086 106.54C141.086 106.86 141.246 107.107 141.566 107.28C141.886 107.44 142.386 107.613 143.066 107.8C143.786 108 144.38 108.2 144.846 108.4C145.313 108.6 145.713 108.907 146.046 109.32C146.38 109.72 146.546 110.253 146.546 110.92ZM154.162 103.38C155.295 103.38 156.195 103.76 156.862 104.52C157.542 105.267 157.882 106.36 157.882 107.8V114H155.102V108.7C155.102 106.807 154.475 105.86 153.222 105.86C152.555 105.86 152.015 106.12 151.602 106.64C151.202 107.147 151.002 107.867 151.002 108.8V114H148.222V98.78H151.002V105.02C151.669 103.927 152.722 103.38 154.162 103.38ZM164.672 103.38C166.072 103.38 167.166 103.78 167.952 104.58C168.739 105.367 169.132 106.493 169.132 107.96V114H166.792C166.779 113.893 166.759 113.72 166.732 113.48C166.719 113.227 166.692 113.007 166.652 112.82C166.346 113.3 165.946 113.66 165.452 113.9C164.972 114.127 164.386 114.24 163.692 114.24C162.972 114.24 162.312 114.113 161.712 113.86C161.126 113.607 160.659 113.24 160.312 112.76C159.966 112.267 159.792 111.687 159.792 111.02C159.792 110.327 159.986 109.727 160.372 109.22C160.772 108.7 161.306 108.3 161.972 108.02C162.639 107.74 163.372 107.6 164.172 107.6C164.892 107.6 165.632 107.72 166.392 107.96C166.352 106.427 165.699 105.66 164.432 105.66C163.419 105.66 162.679 106.113 162.212 107.02L160.232 105.88C160.606 105.107 161.179 104.5 161.952 104.06C162.726 103.607 163.632 103.38 164.672 103.38ZM166.392 109.8C165.726 109.64 165.146 109.56 164.652 109.56C163.999 109.56 163.492 109.68 163.132 109.92C162.772 110.147 162.592 110.473 162.592 110.9C162.592 111.287 162.732 111.587 163.012 111.8C163.306 112.013 163.679 112.12 164.132 112.12C164.732 112.12 165.259 111.953 165.712 111.62C166.166 111.273 166.392 110.8 166.392 110.2V109.8ZM177.081 103.38C177.481 103.38 177.855 103.44 178.201 103.56C178.548 103.68 178.815 103.833 179.001 104.02L177.921 106.16C177.575 105.92 177.181 105.8 176.741 105.8C176.021 105.8 175.441 106.1 175.001 106.7C174.575 107.3 174.361 108.127 174.361 109.18V114H171.581V103.64H174.021C174.088 104.44 174.148 104.987 174.201 105.28C174.508 104.653 174.908 104.18 175.401 103.86C175.895 103.54 176.455 103.38 177.081 103.38ZM181.535 102.32C181.095 102.32 180.708 102.153 180.375 101.82C180.055 101.473 179.895 101.073 179.895 100.62C179.895 100.153 180.055 99.7533 180.375 99.42C180.695 99.0867 181.082 98.92 181.535 98.92C181.988 98.92 182.382 99.0933 182.715 99.44C183.048 99.7733 183.215 100.167 183.215 100.62C183.215 101.073 183.048 101.473 182.715 101.82C182.382 102.153 181.988 102.32 181.535 102.32ZM182.955 114H180.175V103.64H182.955V114ZM191.467 103.38C192.613 103.38 193.52 103.76 194.187 104.52C194.853 105.267 195.187 106.36 195.187 107.8V114H192.407V108.7C192.407 106.807 191.78 105.86 190.527 105.86C189.86 105.86 189.32 106.12 188.907 106.64C188.507 107.147 188.307 107.867 188.307 108.8V114H185.527V103.64H187.967C188.033 104.453 188.093 105.007 188.147 105.3C188.813 104.02 189.92 103.38 191.467 103.38ZM207.577 103.64V112.94C207.577 115.033 207.05 116.547 205.997 117.48C204.944 118.413 203.637 118.88 202.077 118.88C200.944 118.88 199.944 118.64 199.077 118.16C198.224 117.68 197.617 117.013 197.257 116.16L199.397 114.94C199.917 115.94 200.81 116.44 202.077 116.44C203.064 116.44 203.757 116.147 204.157 115.56C204.57 114.987 204.784 114.053 204.797 112.76C204.104 113.747 203.104 114.24 201.797 114.24C200.957 114.24 200.17 114.027 199.437 113.6C198.704 113.16 198.11 112.533 197.657 111.72C197.217 110.893 196.997 109.927 196.997 108.82C196.997 107.7 197.217 106.733 197.657 105.92C198.11 105.093 198.704 104.467 199.437 104.04C200.17 103.6 200.957 103.38 201.797 103.38C202.477 103.38 203.09 103.527 203.637 103.82C204.184 104.113 204.63 104.56 204.977 105.16C205.07 104.613 205.124 104.107 205.137 103.64H207.577ZM202.317 111.86C203.01 111.86 203.597 111.607 204.077 111.1C204.557 110.593 204.797 109.833 204.797 108.82C204.797 107.82 204.557 107.08 204.077 106.6C203.597 106.107 203.01 105.86 202.317 105.86C201.584 105.86 200.99 106.12 200.537 106.64C200.097 107.16 199.877 107.887 199.877 108.82C199.877 109.753 200.097 110.493 200.537 111.04C200.99 111.587 201.584 111.86 202.317 111.86Z" fill="white"/>
<defs>
<filter id="filter0_f_3849_2989" x="285.149" y="84.6178" width="46.8177" height="132.214" filterUnits="userSpaceOnUse" color-interpolation-filters="sRGB">
<feFlood flood-opacity="0" result="BackgroundImageFix"/>
<feBlend mode="normal" in="SourceGraphic" in2="BackgroundImageFix" result="shape"/>
<feGaussianBlur stdDeviation="0.380316" result="effect1_foregroundBlur_3849_2989"/>
</filter>
<filter id="filter1_f_3849_2989" x="359.151" y="77.0322" width="21.2143" height="75.3966" filterUnits="userSpaceOnUse" color-interpolation-filters="sRGB">
<feFlood flood-opacity="0" result="BackgroundImageFix"/>
<feBlend mode="normal" in="SourceGraphic" in2="BackgroundImageFix" result="shape"/>
<feGaussianBlur stdDeviation="0.380316" result="effect1_foregroundBlur_3849_2989"/>
</filter>
<linearGradient id="paint0_linear_3849_2989" x1="326.95" y1="70.3842" x2="295.897" y2="171.183" gradientUnits="userSpaceOnUse">
<stop stop-color="#FFFCF2"/>
<stop offset="1" stop-color="#07828B"/>
</linearGradient>
<linearGradient id="paint1_linear_3849_2989" x1="332.758" y1="89.2992" x2="366.45" y2="166.619" gradientUnits="userSpaceOnUse">
<stop stop-color="#07828B"/>
<stop offset="0.38" stop-color="#5AB8DB"/>
<stop offset="0.59" stop-color="#07828B"/>
<stop offset="0.905" stop-color="#5AB8DB"/>
</linearGradient>
<linearGradient id="paint2_linear_3849_2989" x1="266.113" y1="70.3863" x2="235.531" y2="169.166" gradientUnits="userSpaceOnUse">
<stop stop-color="#FFFCF2"/>
<stop offset="1" stop-color="#07828B"/>
</linearGradient>
<linearGradient id="paint3_linear_3849_2989" x1="271.781" y1="88.9385" x2="304.94" y2="164.653" gradientUnits="userSpaceOnUse">
<stop stop-color="#07828B"/>
<stop offset="0.38" stop-color="#05A7B3"/>
<stop offset="0.59" stop-color="#5AB8DB"/>
<stop offset="0.905" stop-color="#07828B"/>
</linearGradient>
<linearGradient id="paint4_linear_3849_2989" x1="386.878" y1="209.866" x2="370.086" y2="142.316" gradientUnits="userSpaceOnUse">
<stop stop-color="#07828B"/>
<stop offset="1" stop-color="#FFFCF2"/>
</linearGradient>
<linearGradient id="paint5_linear_3849_2989" x1="383.693" y1="205.364" x2="383.693" y2="161.073" gradientUnits="userSpaceOnUse">
<stop stop-color="#07828B"/>
<stop offset="1" stop-color="#5AB8DB"/>
</linearGradient>
<clipPath id="clip0_3849_2989">
<rect width="178" height="140" fill="white" transform="translate(232 77)"/>
</clipPath>
</defs>
</svg>
