<svg width="426" height="233" viewBox="0 0 426 233" fill="none" xmlns="http://www.w3.org/2000/svg">
<rect width="426" height="233" rx="24" fill="#CDE6E8"/>
<path d="M33.82 55V41H39.9C40.8333 41 41.62 41.14 42.26 41.42C42.9133 41.6867 43.4067 42.08 43.74 42.6C44.0733 43.12 44.24 43.74 44.24 44.46C44.24 45.26 44.04 45.9267 43.64 46.46C43.24 46.9933 42.6667 47.36 41.92 47.56L41.9 47.16C42.5267 47.3067 43.0667 47.5467 43.52 47.88C43.9867 48.2133 44.3467 48.6267 44.6 49.12C44.8533 49.6133 44.98 50.1733 44.98 50.8C44.98 51.4933 44.8667 52.1067 44.64 52.64C44.4133 53.16 44.08 53.5933 43.64 53.94C43.2 54.2867 42.68 54.5533 42.08 54.74C41.4933 54.9133 40.8333 55 40.1 55H33.82ZM36.7 52.4H39.98C40.4067 52.4 40.7667 52.34 41.06 52.22C41.3667 52.0867 41.6 51.8867 41.76 51.62C41.92 51.3533 42 51.04 42 50.68C42 50.3333 41.9133 50.04 41.74 49.8C41.5667 49.56 41.32 49.38 41 49.26C40.6933 49.1267 40.32 49.06 39.88 49.06H36.7V52.4ZM36.7 46.68H39.54C39.9 46.68 40.2133 46.6133 40.48 46.48C40.7467 46.3467 40.9467 46.1667 41.08 45.94C41.2267 45.7133 41.3 45.4467 41.3 45.14C41.3 44.6467 41.14 44.2667 40.82 44C40.5 43.7333 40.0133 43.6 39.36 43.6H36.7V46.68ZM52.3072 55.2C51.1605 55.2 50.1539 54.9667 49.2872 54.5C48.4339 54.0333 47.7672 53.3933 47.2872 52.58C46.8205 51.7667 46.5872 50.8333 46.5872 49.78C46.5872 48.9533 46.7205 48.2 46.9872 47.52C47.2539 46.84 47.6272 46.2533 48.1072 45.76C48.5872 45.2533 49.1539 44.8667 49.8072 44.6C50.4739 44.32 51.1939 44.18 51.9672 44.18C52.6872 44.18 53.3539 44.3133 53.9672 44.58C54.5805 44.8467 55.1072 45.22 55.5472 45.7C56.0005 46.1667 56.3472 46.7267 56.5872 47.38C56.8272 48.02 56.9339 48.7133 56.9072 49.46L56.8872 50.34H48.3872L47.9272 48.6H54.5472L54.2272 48.96V48.52C54.2005 48.16 54.0805 47.84 53.8672 47.56C53.6672 47.2667 53.4072 47.04 53.0872 46.88C52.7672 46.7067 52.4072 46.62 52.0072 46.62C51.4205 46.62 50.9205 46.7333 50.5072 46.96C50.1072 47.1867 49.8005 47.52 49.5872 47.96C49.3739 48.4 49.2672 48.9333 49.2672 49.56C49.2672 50.2 49.4005 50.7533 49.6672 51.22C49.9472 51.6867 50.3339 52.0533 50.8272 52.32C51.3339 52.5733 51.9272 52.7 52.6072 52.7C53.0739 52.7 53.5005 52.6267 53.8872 52.48C54.2739 52.3333 54.6872 52.08 55.1272 51.72L56.4872 53.62C56.1005 53.9667 55.6739 54.26 55.2072 54.5C54.7405 54.7267 54.2605 54.9 53.7672 55.02C53.2739 55.14 52.7872 55.2 52.3072 55.2ZM63.6059 55.2C62.5926 55.2 61.6859 54.96 60.8859 54.48C60.0859 54 59.4526 53.3467 58.9859 52.52C58.5326 51.6933 58.3059 50.7533 58.3059 49.7C58.3059 48.6467 58.5326 47.7067 58.9859 46.88C59.4526 46.0533 60.0859 45.4 60.8859 44.92C61.6859 44.44 62.5926 44.2 63.6059 44.2C64.5526 44.2 65.4193 44.3733 66.2059 44.72C66.9926 45.0667 67.6059 45.5467 68.0459 46.16L66.4859 48.04C66.2993 47.7867 66.0659 47.56 65.7859 47.36C65.5059 47.1467 65.1993 46.98 64.8659 46.86C64.5459 46.74 64.2126 46.68 63.8659 46.68C63.3193 46.68 62.8326 46.8133 62.4059 47.08C61.9926 47.3333 61.6659 47.6867 61.4259 48.14C61.1859 48.5933 61.0659 49.1133 61.0659 49.7C61.0659 50.26 61.1859 50.7667 61.4259 51.22C61.6793 51.6733 62.0193 52.0333 62.4459 52.3C62.8726 52.5667 63.3526 52.7 63.8859 52.7C64.2326 52.7 64.5593 52.6533 64.8659 52.56C65.1726 52.4667 65.4593 52.32 65.7259 52.12C66.0059 51.92 66.2593 51.68 66.4859 51.4L68.0259 53.28C67.5859 53.8533 66.9593 54.32 66.1459 54.68C65.3459 55.0267 64.4993 55.2 63.6059 55.2ZM74.7658 55.2C73.6858 55.2 72.7191 54.9667 71.8658 54.5C71.0258 54.02 70.3591 53.3667 69.8658 52.54C69.3858 51.7133 69.1458 50.7667 69.1458 49.7C69.1458 48.6333 69.3858 47.6867 69.8658 46.86C70.3591 46.0333 71.0258 45.3867 71.8658 44.92C72.7191 44.44 73.6858 44.2 74.7658 44.2C75.8324 44.2 76.7858 44.44 77.6258 44.92C78.4791 45.3867 79.1458 46.0333 79.6258 46.86C80.1058 47.6867 80.3458 48.6333 80.3458 49.7C80.3458 50.7667 80.1058 51.7133 79.6258 52.54C79.1458 53.3667 78.4791 54.02 77.6258 54.5C76.7858 54.9667 75.8324 55.2 74.7658 55.2ZM74.7658 52.72C75.2858 52.72 75.7524 52.5933 76.1658 52.34C76.5791 52.0733 76.8991 51.7133 77.1258 51.26C77.3658 50.7933 77.4791 50.2733 77.4658 49.7C77.4791 49.1133 77.3658 48.5933 77.1258 48.14C76.8991 47.6733 76.5791 47.3133 76.1658 47.06C75.7524 46.7933 75.2858 46.66 74.7658 46.66C74.2324 46.66 73.7591 46.7933 73.3458 47.06C72.9324 47.3267 72.6058 47.6867 72.3658 48.14C72.1258 48.5933 72.0124 49.1133 72.0258 49.7C72.0124 50.2733 72.1258 50.7933 72.3658 51.26C72.6058 51.7133 72.9324 52.0733 73.3458 52.34C73.7591 52.5933 74.2324 52.72 74.7658 52.72ZM82.482 55V44.42H85.222L85.282 46.44L84.862 46.52C85.0087 46.1733 85.202 45.86 85.442 45.58C85.6954 45.3 85.982 45.06 86.302 44.86C86.622 44.66 86.962 44.5067 87.322 44.4C87.682 44.28 88.042 44.22 88.402 44.22C88.9487 44.22 89.442 44.3067 89.882 44.48C90.322 44.6533 90.6954 44.9267 91.002 45.3C91.3087 45.66 91.5487 46.14 91.722 46.74L91.282 46.7L91.422 46.38C91.5954 46.06 91.8154 45.7667 92.082 45.5C92.3487 45.2333 92.6487 45.0067 92.982 44.82C93.3154 44.6333 93.662 44.4867 94.022 44.38C94.382 44.2733 94.7354 44.22 95.082 44.22C95.9087 44.22 96.5954 44.3867 97.142 44.72C97.6887 45.04 98.0954 45.5267 98.362 46.18C98.642 46.8333 98.782 47.6333 98.782 48.58V55H95.942V48.78C95.942 48.3 95.8754 47.9067 95.742 47.6C95.6087 47.2933 95.4154 47.0667 95.162 46.92C94.9087 46.76 94.582 46.68 94.182 46.68C93.8754 46.68 93.5887 46.7333 93.322 46.84C93.0687 46.9333 92.842 47.0733 92.642 47.26C92.4554 47.4333 92.3087 47.6467 92.202 47.9C92.0954 48.14 92.042 48.4 92.042 48.68V55H89.182V48.76C89.182 48.32 89.1154 47.9467 88.982 47.64C88.8487 47.32 88.6554 47.08 88.402 46.92C88.1487 46.76 87.8354 46.68 87.462 46.68C87.1554 46.68 86.8687 46.7333 86.602 46.84C86.3487 46.9333 86.1287 47.0733 85.942 47.26C85.7554 47.4333 85.6087 47.64 85.502 47.88C85.3954 48.12 85.342 48.38 85.342 48.66V55H82.482ZM106.506 55.2C105.36 55.2 104.353 54.9667 103.486 54.5C102.633 54.0333 101.966 53.3933 101.486 52.58C101.02 51.7667 100.786 50.8333 100.786 49.78C100.786 48.9533 100.92 48.2 101.186 47.52C101.453 46.84 101.826 46.2533 102.306 45.76C102.786 45.2533 103.353 44.8667 104.006 44.6C104.673 44.32 105.393 44.18 106.166 44.18C106.886 44.18 107.553 44.3133 108.166 44.58C108.78 44.8467 109.306 45.22 109.746 45.7C110.2 46.1667 110.546 46.7267 110.786 47.38C111.026 48.02 111.133 48.7133 111.106 49.46L111.086 50.34H102.586L102.126 48.6H108.746L108.426 48.96V48.52C108.4 48.16 108.28 47.84 108.066 47.56C107.866 47.2667 107.606 47.04 107.286 46.88C106.966 46.7067 106.606 46.62 106.206 46.62C105.62 46.62 105.12 46.7333 104.706 46.96C104.306 47.1867 104 47.52 103.786 47.96C103.573 48.4 103.466 48.9333 103.466 49.56C103.466 50.2 103.6 50.7533 103.866 51.22C104.146 51.6867 104.533 52.0533 105.026 52.32C105.533 52.5733 106.126 52.7 106.806 52.7C107.273 52.7 107.7 52.6267 108.086 52.48C108.473 52.3333 108.886 52.08 109.326 51.72L110.686 53.62C110.3 53.9667 109.873 54.26 109.406 54.5C108.94 54.7267 108.46 54.9 107.966 55.02C107.473 55.14 106.986 55.2 106.506 55.2ZM123.298 55.2C122.418 55.2 121.625 54.96 120.918 54.48C120.211 54 119.651 53.3467 119.238 52.52C118.825 51.6933 118.618 50.7467 118.618 49.68C118.618 48.6133 118.825 47.6667 119.238 46.84C119.665 46.0133 120.238 45.3667 120.958 44.9C121.678 44.4333 122.498 44.2 123.418 44.2C123.938 44.2 124.411 44.28 124.838 44.44C125.278 44.5867 125.658 44.7933 125.978 45.06C126.311 45.3267 126.591 45.6333 126.818 45.98C127.045 46.3267 127.205 46.7 127.298 47.1L126.698 47V44.42H129.518V55H126.658V52.46L127.298 52.4C127.191 52.7733 127.018 53.1267 126.778 53.46C126.538 53.7933 126.238 54.0933 125.878 54.36C125.531 54.6133 125.138 54.82 124.698 54.98C124.258 55.1267 123.791 55.2 123.298 55.2ZM124.078 52.74C124.611 52.74 125.078 52.6133 125.478 52.36C125.878 52.1067 126.185 51.7533 126.398 51.3C126.625 50.8333 126.738 50.2933 126.738 49.68C126.738 49.08 126.625 48.5533 126.398 48.1C126.185 47.6467 125.878 47.2933 125.478 47.04C125.078 46.7733 124.611 46.64 124.078 46.64C123.558 46.64 123.098 46.7733 122.698 47.04C122.311 47.2933 122.005 47.6467 121.778 48.1C121.551 48.5533 121.438 49.08 121.438 49.68C121.438 50.2933 121.551 50.8333 121.778 51.3C122.005 51.7533 122.311 52.1067 122.698 52.36C123.098 52.6133 123.558 52.74 124.078 52.74ZM145.038 55.2C144.011 55.2 143.065 55.0267 142.198 54.68C141.345 54.32 140.598 53.82 139.958 53.18C139.331 52.5267 138.845 51.76 138.498 50.88C138.151 49.9867 137.978 49.0133 137.978 47.96C137.978 46.9333 138.158 45.9867 138.518 45.12C138.878 44.24 139.385 43.48 140.038 42.84C140.691 42.1867 141.458 41.68 142.338 41.32C143.218 40.96 144.171 40.78 145.198 40.78C145.865 40.78 146.518 40.8733 147.158 41.06C147.811 41.2333 148.405 41.4933 148.938 41.84C149.485 42.1867 149.951 42.6 150.338 43.08L148.458 45.16C148.151 44.84 147.825 44.5667 147.478 44.34C147.131 44.1 146.765 43.92 146.378 43.8C146.005 43.6667 145.605 43.6 145.178 43.6C144.605 43.6 144.065 43.7067 143.558 43.92C143.065 44.1333 142.631 44.4333 142.258 44.82C141.885 45.1933 141.585 45.6533 141.358 46.2C141.145 46.7333 141.038 47.3267 141.038 47.98C141.038 48.6467 141.145 49.2533 141.358 49.8C141.571 50.3333 141.871 50.7933 142.258 51.18C142.645 51.5533 143.105 51.8467 143.638 52.06C144.185 52.26 144.785 52.36 145.438 52.36C145.865 52.36 146.278 52.3 146.678 52.18C147.078 52.06 147.445 51.8933 147.778 51.68C148.125 51.4667 148.431 51.22 148.698 50.94L150.178 53.28C149.845 53.64 149.405 53.9667 148.858 54.26C148.325 54.5533 147.725 54.7867 147.058 54.96C146.391 55.12 145.718 55.2 145.038 55.2ZM157.207 55.2C156.127 55.2 155.161 54.9667 154.307 54.5C153.467 54.02 152.801 53.3667 152.307 52.54C151.827 51.7133 151.587 50.7667 151.587 49.7C151.587 48.6333 151.827 47.6867 152.307 46.86C152.801 46.0333 153.467 45.3867 154.307 44.92C155.161 44.44 156.127 44.2 157.207 44.2C158.274 44.2 159.227 44.44 160.067 44.92C160.921 45.3867 161.587 46.0333 162.067 46.86C162.547 47.6867 162.787 48.6333 162.787 49.7C162.787 50.7667 162.547 51.7133 162.067 52.54C161.587 53.3667 160.921 54.02 160.067 54.5C159.227 54.9667 158.274 55.2 157.207 55.2ZM157.207 52.72C157.727 52.72 158.194 52.5933 158.607 52.34C159.021 52.0733 159.341 51.7133 159.567 51.26C159.807 50.7933 159.921 50.2733 159.907 49.7C159.921 49.1133 159.807 48.5933 159.567 48.14C159.341 47.6733 159.021 47.3133 158.607 47.06C158.194 46.7933 157.727 46.66 157.207 46.66C156.674 46.66 156.201 46.7933 155.787 47.06C155.374 47.3267 155.047 47.6867 154.807 48.14C154.567 48.5933 154.454 49.1133 154.467 49.7C154.454 50.2733 154.567 50.7933 154.807 51.26C155.047 51.7133 155.374 52.0733 155.787 52.34C156.201 52.5933 156.674 52.72 157.207 52.72ZM164.943 55V44.42H167.663L167.743 46.58L167.183 46.82C167.33 46.34 167.59 45.9067 167.963 45.52C168.35 45.12 168.81 44.8 169.343 44.56C169.877 44.32 170.437 44.2 171.023 44.2C171.823 44.2 172.49 44.36 173.023 44.68C173.57 45 173.977 45.4867 174.243 46.14C174.523 46.78 174.663 47.5733 174.663 48.52V55H171.823V48.74C171.823 48.26 171.757 47.86 171.623 47.54C171.49 47.22 171.283 46.9867 171.003 46.84C170.737 46.6933 170.403 46.6267 170.003 46.64C169.683 46.64 169.383 46.6933 169.103 46.8C168.837 46.8933 168.603 47.0333 168.403 47.22C168.217 47.4067 168.063 47.62 167.943 47.86C167.837 48.1 167.783 48.36 167.783 48.64V55H166.383C166.077 55 165.803 55 165.563 55C165.323 55 165.117 55 164.943 55ZM178.405 55V41.74H181.245V55H178.405ZM176.425 46.96V44.42H183.425V46.96H176.425ZM185.256 55V44.42H187.996L188.096 47.82L187.616 47.12C187.776 46.5733 188.036 46.08 188.396 45.64C188.756 45.1867 189.176 44.8333 189.656 44.58C190.149 44.3267 190.663 44.2 191.196 44.2C191.423 44.2 191.643 44.22 191.856 44.26C192.069 44.3 192.249 44.3467 192.396 44.4L191.636 47.52C191.489 47.44 191.296 47.3733 191.056 47.32C190.829 47.2533 190.596 47.22 190.356 47.22C190.036 47.22 189.736 47.28 189.456 47.4C189.189 47.5067 188.956 47.6667 188.756 47.88C188.556 48.08 188.396 48.32 188.276 48.6C188.169 48.88 188.116 49.1867 188.116 49.52V55H185.256ZM197.536 55.2C196.656 55.2 195.863 54.96 195.156 54.48C194.45 54 193.89 53.3467 193.476 52.52C193.063 51.6933 192.856 50.7467 192.856 49.68C192.856 48.6133 193.063 47.6667 193.476 46.84C193.903 46.0133 194.476 45.3667 195.196 44.9C195.916 44.4333 196.736 44.2 197.656 44.2C198.176 44.2 198.65 44.28 199.076 44.44C199.516 44.5867 199.896 44.7933 200.216 45.06C200.55 45.3267 200.83 45.6333 201.056 45.98C201.283 46.3267 201.443 46.7 201.536 47.1L200.936 47V44.42H203.756V55H200.896V52.46L201.536 52.4C201.43 52.7733 201.256 53.1267 201.016 53.46C200.776 53.7933 200.476 54.0933 200.116 54.36C199.77 54.6133 199.376 54.82 198.936 54.98C198.496 55.1267 198.03 55.2 197.536 55.2ZM198.316 52.74C198.85 52.74 199.316 52.6133 199.716 52.36C200.116 52.1067 200.423 51.7533 200.636 51.3C200.863 50.8333 200.976 50.2933 200.976 49.68C200.976 49.08 200.863 48.5533 200.636 48.1C200.423 47.6467 200.116 47.2933 199.716 47.04C199.316 46.7733 198.85 46.64 198.316 46.64C197.796 46.64 197.336 46.7733 196.936 47.04C196.55 47.2933 196.243 47.6467 196.016 48.1C195.79 48.5533 195.676 49.08 195.676 49.68C195.676 50.2933 195.79 50.8333 196.016 51.3C196.243 51.7533 196.55 52.1067 196.936 52.36C197.336 52.6133 197.796 52.74 198.316 52.74ZM211.204 55.2C210.19 55.2 209.284 54.96 208.484 54.48C207.684 54 207.05 53.3467 206.584 52.52C206.13 51.6933 205.904 50.7533 205.904 49.7C205.904 48.6467 206.13 47.7067 206.584 46.88C207.05 46.0533 207.684 45.4 208.484 44.92C209.284 44.44 210.19 44.2 211.204 44.2C212.15 44.2 213.017 44.3733 213.804 44.72C214.59 45.0667 215.204 45.5467 215.644 46.16L214.084 48.04C213.897 47.7867 213.664 47.56 213.384 47.36C213.104 47.1467 212.797 46.98 212.464 46.86C212.144 46.74 211.81 46.68 211.464 46.68C210.917 46.68 210.43 46.8133 210.004 47.08C209.59 47.3333 209.264 47.6867 209.024 48.14C208.784 48.5933 208.664 49.1133 208.664 49.7C208.664 50.26 208.784 50.7667 209.024 51.22C209.277 51.6733 209.617 52.0333 210.044 52.3C210.47 52.5667 210.95 52.7 211.484 52.7C211.83 52.7 212.157 52.6533 212.464 52.56C212.77 52.4667 213.057 52.32 213.324 52.12C213.604 51.92 213.857 51.68 214.084 51.4L215.624 53.28C215.184 53.8533 214.557 54.32 213.744 54.68C212.944 55.0267 212.097 55.2 211.204 55.2ZM218.463 55V41.74H221.303V55H218.463ZM216.483 46.96V44.42H223.483V46.96H216.483ZM234.767 55V43.7H230.687V41H241.967V43.7H237.767V55H234.767ZM242.854 55V44.42H245.594L245.694 47.82L245.214 47.12C245.374 46.5733 245.634 46.08 245.994 45.64C246.354 45.1867 246.774 44.8333 247.254 44.58C247.747 44.3267 248.26 44.2 248.794 44.2C249.02 44.2 249.24 44.22 249.454 44.26C249.667 44.3 249.847 44.3467 249.994 44.4L249.234 47.52C249.087 47.44 248.894 47.3733 248.654 47.32C248.427 47.2533 248.194 47.22 247.954 47.22C247.634 47.22 247.334 47.28 247.054 47.4C246.787 47.5067 246.554 47.6667 246.354 47.88C246.154 48.08 245.994 48.32 245.874 48.6C245.767 48.88 245.714 49.1867 245.714 49.52V55H242.854ZM255.134 55.2C254.254 55.2 253.461 54.96 252.754 54.48C252.047 54 251.487 53.3467 251.074 52.52C250.661 51.6933 250.454 50.7467 250.454 49.68C250.454 48.6133 250.661 47.6667 251.074 46.84C251.501 46.0133 252.074 45.3667 252.794 44.9C253.514 44.4333 254.334 44.2 255.254 44.2C255.774 44.2 256.247 44.28 256.674 44.44C257.114 44.5867 257.494 44.7933 257.814 45.06C258.147 45.3267 258.427 45.6333 258.654 45.98C258.881 46.3267 259.041 46.7 259.134 47.1L258.534 47V44.42H261.354V55H258.494V52.46L259.134 52.4C259.027 52.7733 258.854 53.1267 258.614 53.46C258.374 53.7933 258.074 54.0933 257.714 54.36C257.367 54.6133 256.974 54.82 256.534 54.98C256.094 55.1267 255.627 55.2 255.134 55.2ZM255.914 52.74C256.447 52.74 256.914 52.6133 257.314 52.36C257.714 52.1067 258.021 51.7533 258.234 51.3C258.461 50.8333 258.574 50.2933 258.574 49.68C258.574 49.08 258.461 48.5533 258.234 48.1C258.021 47.6467 257.714 47.2933 257.314 47.04C256.914 46.7733 256.447 46.64 255.914 46.64C255.394 46.64 254.934 46.7733 254.534 47.04C254.147 47.2933 253.841 47.6467 253.614 48.1C253.387 48.5533 253.274 49.08 253.274 49.68C253.274 50.2933 253.387 50.8333 253.614 51.3C253.841 51.7533 254.147 52.1067 254.534 52.36C254.934 52.6133 255.394 52.74 255.914 52.74ZM268.341 55.2C267.408 55.2 266.575 54.9667 265.841 54.5C265.121 54.02 264.548 53.3733 264.121 52.56C263.708 51.7333 263.501 50.78 263.501 49.7C263.501 48.6467 263.708 47.7067 264.121 46.88C264.548 46.04 265.121 45.3867 265.841 44.92C266.575 44.44 267.408 44.2 268.341 44.2C268.835 44.2 269.308 44.28 269.761 44.44C270.228 44.5867 270.641 44.7933 271.001 45.06C271.375 45.3267 271.675 45.6267 271.901 45.96C272.128 46.28 272.255 46.6133 272.281 46.96L271.561 47.1V40.2H274.421V55H271.721L271.601 52.56L272.161 52.62C272.135 52.9533 272.015 53.2733 271.801 53.58C271.588 53.8867 271.301 54.1667 270.941 54.42C270.595 54.66 270.195 54.8533 269.741 55C269.301 55.1333 268.835 55.2 268.341 55.2ZM268.981 52.84C269.515 52.84 269.981 52.7067 270.381 52.44C270.781 52.1733 271.095 51.8067 271.321 51.34C271.548 50.8733 271.661 50.3267 271.661 49.7C271.661 49.0867 271.548 48.5467 271.321 48.08C271.095 47.6133 270.781 47.2467 270.381 46.98C269.981 46.7133 269.515 46.58 268.981 46.58C268.448 46.58 267.981 46.7133 267.581 46.98C267.195 47.2467 266.888 47.6133 266.661 48.08C266.448 48.5467 266.341 49.0867 266.341 49.7C266.341 50.3267 266.448 50.8733 266.661 51.34C266.888 51.8067 267.195 52.1733 267.581 52.44C267.981 52.7067 268.448 52.84 268.981 52.84ZM282.19 55.2C281.043 55.2 280.037 54.9667 279.17 54.5C278.317 54.0333 277.65 53.3933 277.17 52.58C276.703 51.7667 276.47 50.8333 276.47 49.78C276.47 48.9533 276.603 48.2 276.87 47.52C277.137 46.84 277.51 46.2533 277.99 45.76C278.47 45.2533 279.037 44.8667 279.69 44.6C280.357 44.32 281.077 44.18 281.85 44.18C282.57 44.18 283.237 44.3133 283.85 44.58C284.463 44.8467 284.99 45.22 285.43 45.7C285.883 46.1667 286.23 46.7267 286.47 47.38C286.71 48.02 286.817 48.7133 286.79 49.46L286.77 50.34H278.27L277.81 48.6H284.43L284.11 48.96V48.52C284.083 48.16 283.963 47.84 283.75 47.56C283.55 47.2667 283.29 47.04 282.97 46.88C282.65 46.7067 282.29 46.62 281.89 46.62C281.303 46.62 280.803 46.7333 280.39 46.96C279.99 47.1867 279.683 47.52 279.47 47.96C279.257 48.4 279.15 48.9333 279.15 49.56C279.15 50.2 279.283 50.7533 279.55 51.22C279.83 51.6867 280.217 52.0533 280.71 52.32C281.217 52.5733 281.81 52.7 282.49 52.7C282.957 52.7 283.383 52.6267 283.77 52.48C284.157 52.3333 284.57 52.08 285.01 51.72L286.37 53.62C285.983 53.9667 285.557 54.26 285.09 54.5C284.623 54.7267 284.143 54.9 283.65 55.02C283.157 55.14 282.67 55.2 282.19 55.2ZM288.889 55V44.42H291.629L291.729 47.82L291.249 47.12C291.409 46.5733 291.669 46.08 292.029 45.64C292.389 45.1867 292.809 44.8333 293.289 44.58C293.782 44.3267 294.295 44.2 294.829 44.2C295.055 44.2 295.275 44.22 295.489 44.26C295.702 44.3 295.882 44.3467 296.029 44.4L295.269 47.52C295.122 47.44 294.929 47.3733 294.689 47.32C294.462 47.2533 294.229 47.22 293.989 47.22C293.669 47.22 293.369 47.28 293.089 47.4C292.822 47.5067 292.589 47.6667 292.389 47.88C292.189 48.08 292.029 48.32 291.909 48.6C291.802 48.88 291.749 49.1867 291.749 49.52V55H288.889ZM33.82 85V71H43.28V73.64H36.76V82.36H43.42V85H33.82ZM35.22 79.14V76.58H42.32V79.14H35.22ZM46.1153 85V74.42H48.8353L48.9153 76.58L48.3553 76.82C48.502 76.34 48.762 75.9067 49.1353 75.52C49.522 75.12 49.982 74.8 50.5153 74.56C51.0486 74.32 51.6086 74.2 52.1953 74.2C52.9953 74.2 53.662 74.36 54.1953 74.68C54.742 75 55.1486 75.4867 55.4153 76.14C55.6953 76.78 55.8353 77.5733 55.8353 78.52V85H52.9953V78.74C52.9953 78.26 52.9286 77.86 52.7953 77.54C52.662 77.22 52.4553 76.9867 52.1753 76.84C51.9086 76.6933 51.5753 76.6267 51.1753 76.64C50.8553 76.64 50.5553 76.6933 50.2753 76.8C50.0086 76.8933 49.7753 77.0333 49.5753 77.22C49.3886 77.4067 49.2353 77.62 49.1153 77.86C49.0086 78.1 48.9553 78.36 48.9553 78.64V85H47.5553C47.2486 85 46.9753 85 46.7353 85C46.4953 85 46.2886 85 46.1153 85ZM57.4967 89.12L56.4367 86.92C57.0101 86.92 57.4701 86.84 57.8167 86.68C58.1634 86.52 58.4101 86.2533 58.5567 85.88C58.7167 85.52 58.7967 85.04 58.7967 84.44V74.42H61.6367V85.12C61.6367 85.9867 61.4701 86.7133 61.1367 87.3C60.8167 87.9 60.3501 88.3533 59.7367 88.66C59.1234 88.9667 58.3767 89.12 57.4967 89.12ZM60.2767 72.26C59.7301 72.26 59.3034 72.1267 58.9967 71.86C58.6901 71.58 58.5367 71.1933 58.5367 70.7C58.5367 70.2467 58.6901 69.88 58.9967 69.6C59.3167 69.3067 59.7434 69.16 60.2767 69.16C60.8234 69.16 61.2501 69.3 61.5567 69.58C61.8634 69.8467 62.0167 70.22 62.0167 70.7C62.0167 71.1533 61.8567 71.5267 61.5367 71.82C61.2301 72.1133 60.8101 72.26 60.2767 72.26ZM69.4533 85.2C68.3733 85.2 67.4066 84.9667 66.5533 84.5C65.7133 84.02 65.0466 83.3667 64.5533 82.54C64.0733 81.7133 63.8333 80.7667 63.8333 79.7C63.8333 78.6333 64.0733 77.6867 64.5533 76.86C65.0466 76.0333 65.7133 75.3867 66.5533 74.92C67.4066 74.44 68.3733 74.2 69.4533 74.2C70.5199 74.2 71.4733 74.44 72.3133 74.92C73.1666 75.3867 73.8333 76.0333 74.3133 76.86C74.7933 77.6867 75.0333 78.6333 75.0333 79.7C75.0333 80.7667 74.7933 81.7133 74.3133 82.54C73.8333 83.3667 73.1666 84.02 72.3133 84.5C71.4733 84.9667 70.5199 85.2 69.4533 85.2ZM69.4533 82.72C69.9733 82.72 70.4399 82.5933 70.8533 82.34C71.2666 82.0733 71.5866 81.7133 71.8133 81.26C72.0533 80.7933 72.1666 80.2733 72.1533 79.7C72.1666 79.1133 72.0533 78.5933 71.8133 78.14C71.5866 77.6733 71.2666 77.3133 70.8533 77.06C70.4399 76.7933 69.9733 76.66 69.4533 76.66C68.9199 76.66 68.4466 76.7933 68.0333 77.06C67.6199 77.3267 67.2933 77.6867 67.0533 78.14C66.8133 78.5933 66.6999 79.1133 66.7133 79.7C66.6999 80.2733 66.8133 80.7933 67.0533 81.26C67.2933 81.7133 67.6199 82.0733 68.0333 82.34C68.4466 82.5933 68.9199 82.72 69.4533 82.72ZM78.2789 89.6L80.5989 84.16L80.6389 85.8L75.4789 74.42H78.6989L81.2789 80.52C81.3856 80.7467 81.4856 81.0133 81.5789 81.32C81.6856 81.6133 81.7722 81.8933 81.8389 82.16L81.3589 82.38C81.4522 82.1533 81.5456 81.8933 81.6389 81.6C81.7456 81.3067 81.8522 80.9933 81.9589 80.66L84.1789 74.42H87.4189L82.9789 85L81.1589 89.6H78.2789ZM98.7202 85.2C97.9468 85.2 97.2802 85.0333 96.7202 84.7C96.1735 84.3533 95.7468 83.8667 95.4402 83.24C95.1468 82.6 95.0002 81.8333 95.0002 80.94V74.42H97.8402V80.48C97.8402 80.96 97.9202 81.38 98.0802 81.74C98.2402 82.0867 98.4668 82.3533 98.7602 82.54C99.0535 82.7267 99.4135 82.82 99.8402 82.82C100.147 82.82 100.427 82.7733 100.68 82.68C100.947 82.5733 101.173 82.4267 101.36 82.24C101.56 82.0533 101.713 81.8333 101.82 81.58C101.927 81.3267 101.98 81.0533 101.98 80.76V74.42H104.82V85H102.12L102.02 82.82L102.54 82.58C102.38 83.0733 102.113 83.52 101.74 83.92C101.367 84.32 100.92 84.6333 100.4 84.86C99.8802 85.0867 99.3202 85.2 98.7202 85.2ZM107.678 89.4V74.42H110.418L110.498 76.8L109.978 76.62C110.071 76.1933 110.298 75.8 110.658 75.44C111.031 75.08 111.491 74.7867 112.038 74.56C112.584 74.3333 113.158 74.22 113.758 74.22C114.678 74.22 115.498 74.46 116.218 74.94C116.938 75.4067 117.504 76.0533 117.918 76.88C118.331 77.6933 118.538 78.6333 118.538 79.7C118.538 80.7533 118.331 81.6933 117.918 82.52C117.504 83.3467 116.938 84 116.218 84.48C115.498 84.9467 114.678 85.18 113.758 85.18C113.144 85.18 112.558 85.0667 111.998 84.84C111.451 84.6 110.984 84.2867 110.598 83.9C110.224 83.5133 109.984 83.1 109.878 82.66L110.538 82.38V89.4H107.678ZM113.118 82.74C113.638 82.74 114.098 82.6133 114.498 82.36C114.898 82.1067 115.211 81.7533 115.438 81.3C115.664 80.8333 115.778 80.3 115.778 79.7C115.778 79.1 115.664 78.5733 115.438 78.12C115.211 77.6667 114.898 77.3133 114.498 77.06C114.111 76.8067 113.651 76.68 113.118 76.68C112.584 76.68 112.118 76.8067 111.718 77.06C111.318 77.3 111.004 77.6533 110.778 78.12C110.551 78.5733 110.438 79.1 110.438 79.7C110.438 80.3 110.551 80.8333 110.778 81.3C111.004 81.7533 111.318 82.1067 111.718 82.36C112.118 82.6133 112.584 82.74 113.118 82.74ZM127.838 85V71.74H130.678V85H127.838ZM125.858 76.96V74.42H132.858V76.96H125.858ZM139.512 85.2C138.432 85.2 137.465 84.9667 136.612 84.5C135.772 84.02 135.105 83.3667 134.612 82.54C134.132 81.7133 133.892 80.7667 133.892 79.7C133.892 78.6333 134.132 77.6867 134.612 76.86C135.105 76.0333 135.772 75.3867 136.612 74.92C137.465 74.44 138.432 74.2 139.512 74.2C140.579 74.2 141.532 74.44 142.372 74.92C143.225 75.3867 143.892 76.0333 144.372 76.86C144.852 77.6867 145.092 78.6333 145.092 79.7C145.092 80.7667 144.852 81.7133 144.372 82.54C143.892 83.3667 143.225 84.02 142.372 84.5C141.532 84.9667 140.579 85.2 139.512 85.2ZM139.512 82.72C140.032 82.72 140.499 82.5933 140.912 82.34C141.325 82.0733 141.645 81.7133 141.872 81.26C142.112 80.7933 142.225 80.2733 142.212 79.7C142.225 79.1133 142.112 78.5933 141.872 78.14C141.645 77.6733 141.325 77.3133 140.912 77.06C140.499 76.7933 140.032 76.66 139.512 76.66C138.979 76.66 138.505 76.7933 138.092 77.06C137.679 77.3267 137.352 77.6867 137.112 78.14C136.872 78.5933 136.759 79.1133 136.772 79.7C136.759 80.2733 136.872 80.7933 137.112 81.26C137.352 81.7133 137.679 82.0733 138.092 82.34C138.505 82.5933 138.979 82.72 139.512 82.72ZM39 115V103.68L40.4 103.76L35.48 109.78L35.14 109.3H44.22V111.82H33.68L32.44 109.46L39.5 100.92H41.9V115H39ZM51.4888 115.2C50.2888 115.2 49.2621 114.913 48.4088 114.34C47.5688 113.767 46.9221 112.947 46.4688 111.88C46.0288 110.8 45.8088 109.507 45.8088 108C45.8088 106.493 46.0288 105.207 46.4688 104.14C46.9221 103.06 47.5688 102.233 48.4088 101.66C49.2621 101.087 50.2888 100.8 51.4888 100.8C52.6888 100.8 53.7154 101.087 54.5688 101.66C55.4221 102.233 56.0688 103.06 56.5088 104.14C56.9621 105.207 57.1888 106.493 57.1888 108C57.1888 109.507 56.9621 110.8 56.5088 111.88C56.0688 112.947 55.4221 113.767 54.5688 114.34C53.7154 114.913 52.6888 115.2 51.4888 115.2ZM51.4888 112.62C52.3954 112.62 53.0888 112.22 53.5688 111.42C54.0621 110.62 54.3088 109.48 54.3088 108C54.3088 106.493 54.0621 105.333 53.5688 104.52C53.0888 103.707 52.3954 103.3 51.4888 103.3C50.5821 103.3 49.8821 103.707 49.3888 104.52C48.9088 105.333 48.6688 106.493 48.6688 108C48.6688 109.48 48.9088 110.62 49.3888 111.42C49.8821 112.22 50.5821 112.62 51.4888 112.62ZM61.1752 115L70.4352 101H73.1352L63.7752 115H61.1752ZM62.2152 108.42C61.5618 108.42 60.9752 108.253 60.4552 107.92C59.9485 107.587 59.5485 107.133 59.2552 106.56C58.9752 105.973 58.8352 105.307 58.8352 104.56C58.8352 103.813 58.9752 103.147 59.2552 102.56C59.5485 101.96 59.9485 101.5 60.4552 101.18C60.9752 100.847 61.5618 100.68 62.2152 100.68C62.8818 100.68 63.4618 100.847 63.9552 101.18C64.4618 101.5 64.8552 101.96 65.1352 102.56C65.4285 103.147 65.5752 103.813 65.5752 104.56C65.5752 105.293 65.4285 105.953 65.1352 106.54C64.8418 107.113 64.4418 107.573 63.9352 107.92C63.4285 108.253 62.8552 108.42 62.2152 108.42ZM62.2152 106.54C62.4552 106.54 62.6618 106.46 62.8352 106.3C63.0085 106.14 63.1418 105.913 63.2352 105.62C63.3285 105.313 63.3752 104.96 63.3752 104.56C63.3752 104.16 63.3285 103.807 63.2352 103.5C63.1418 103.193 63.0085 102.96 62.8352 102.8C62.6618 102.64 62.4552 102.56 62.2152 102.56C61.9752 102.56 61.7618 102.647 61.5752 102.82C61.4018 102.98 61.2685 103.213 61.1752 103.52C61.0818 103.813 61.0352 104.16 61.0352 104.56C61.0352 104.96 61.0818 105.313 61.1752 105.62C61.2685 105.913 61.4018 106.14 61.5752 106.3C61.7618 106.46 61.9752 106.54 62.2152 106.54ZM72.2952 115.18C71.6418 115.18 71.0552 115.013 70.5352 114.68C70.0285 114.347 69.6285 113.893 69.3352 113.32C69.0418 112.733 68.8952 112.067 68.8952 111.32C68.8952 110.573 69.0352 109.907 69.3152 109.32C69.6085 108.733 70.0085 108.273 70.5152 107.94C71.0352 107.607 71.6285 107.44 72.2952 107.44C72.9485 107.44 73.5285 107.607 74.0352 107.94C74.5418 108.273 74.9352 108.733 75.2152 109.32C75.4952 109.907 75.6352 110.573 75.6352 111.32C75.6352 112.053 75.4885 112.713 75.1952 113.3C74.9152 113.887 74.5218 114.347 74.0152 114.68C73.5085 115.013 72.9352 115.18 72.2952 115.18ZM72.2952 113.32C72.5352 113.32 72.7418 113.24 72.9152 113.08C73.0885 112.907 73.2218 112.673 73.3152 112.38C73.4085 112.087 73.4552 111.733 73.4552 111.32C73.4552 110.92 73.4085 110.573 73.3152 110.28C73.2218 109.973 73.0885 109.74 72.9152 109.58C72.7418 109.407 72.5352 109.32 72.2952 109.32C72.0418 109.32 71.8285 109.407 71.6552 109.58C71.4818 109.74 71.3418 109.973 71.2352 110.28C71.1418 110.573 71.0952 110.92 71.0952 111.32C71.0952 111.733 71.1418 112.087 71.2352 112.38C71.3285 112.673 71.4618 112.907 71.6352 113.08C71.8218 113.24 72.0418 113.32 72.2952 113.32ZM84.1231 119.4V104.42H86.8631L86.9431 106.8L86.4231 106.62C86.5165 106.193 86.7431 105.8 87.1031 105.44C87.4765 105.08 87.9365 104.787 88.4831 104.56C89.0298 104.333 89.6031 104.22 90.2031 104.22C91.1231 104.22 91.9431 104.46 92.6631 104.94C93.3831 105.407 93.9498 106.053 94.3631 106.88C94.7765 107.693 94.9831 108.633 94.9831 109.7C94.9831 110.753 94.7765 111.693 94.3631 112.52C93.9498 113.347 93.3831 114 92.6631 114.48C91.9431 114.947 91.1231 115.18 90.2031 115.18C89.5898 115.18 89.0031 115.067 88.4431 114.84C87.8965 114.6 87.4298 114.287 87.0431 113.9C86.6698 113.513 86.4298 113.1 86.3231 112.66L86.9831 112.38V119.4H84.1231ZM89.5631 112.74C90.0831 112.74 90.5431 112.613 90.9431 112.36C91.3431 112.107 91.6565 111.753 91.8831 111.3C92.1098 110.833 92.2231 110.3 92.2231 109.7C92.2231 109.1 92.1098 108.573 91.8831 108.12C91.6565 107.667 91.3431 107.313 90.9431 107.06C90.5565 106.807 90.0965 106.68 89.5631 106.68C89.0298 106.68 88.5631 106.807 88.1631 107.06C87.7631 107.3 87.4498 107.653 87.2231 108.12C86.9965 108.573 86.8831 109.1 86.8831 109.7C86.8831 110.3 86.9965 110.833 87.2231 111.3C87.4498 111.753 87.7631 112.107 88.1631 112.36C88.5631 112.613 89.0298 112.74 89.5631 112.74ZM97.1309 115V104.42H99.8709L99.9709 107.82L99.4909 107.12C99.6509 106.573 99.9109 106.08 100.271 105.64C100.631 105.187 101.051 104.833 101.531 104.58C102.024 104.327 102.538 104.2 103.071 104.2C103.298 104.2 103.518 104.22 103.731 104.26C103.944 104.3 104.124 104.347 104.271 104.4L103.511 107.52C103.364 107.44 103.171 107.373 102.931 107.32C102.704 107.253 102.471 107.22 102.231 107.22C101.911 107.22 101.611 107.28 101.331 107.4C101.064 107.507 100.831 107.667 100.631 107.88C100.431 108.08 100.271 108.32 100.151 108.6C100.044 108.88 99.9909 109.187 99.9909 109.52V115H97.1309ZM110.371 115.2C109.291 115.2 108.325 114.967 107.471 114.5C106.631 114.02 105.965 113.367 105.471 112.54C104.991 111.713 104.751 110.767 104.751 109.7C104.751 108.633 104.991 107.687 105.471 106.86C105.965 106.033 106.631 105.387 107.471 104.92C108.325 104.44 109.291 104.2 110.371 104.2C111.438 104.2 112.391 104.44 113.231 104.92C114.085 105.387 114.751 106.033 115.231 106.86C115.711 107.687 115.951 108.633 115.951 109.7C115.951 110.767 115.711 111.713 115.231 112.54C114.751 113.367 114.085 114.02 113.231 114.5C112.391 114.967 111.438 115.2 110.371 115.2ZM110.371 112.72C110.891 112.72 111.358 112.593 111.771 112.34C112.185 112.073 112.505 111.713 112.731 111.26C112.971 110.793 113.085 110.273 113.071 109.7C113.085 109.113 112.971 108.593 112.731 108.14C112.505 107.673 112.185 107.313 111.771 107.06C111.358 106.793 110.891 106.66 110.371 106.66C109.838 106.66 109.365 106.793 108.951 107.06C108.538 107.327 108.211 107.687 107.971 108.14C107.731 108.593 107.618 109.113 107.631 109.7C107.618 110.273 107.731 110.793 107.971 111.26C108.211 111.713 108.538 112.073 108.951 112.34C109.365 112.593 109.838 112.72 110.371 112.72ZM118.537 115V103.68C118.537 103.027 118.684 102.433 118.977 101.9C119.27 101.367 119.67 100.947 120.177 100.64C120.697 100.333 121.304 100.18 121.997 100.18C122.464 100.18 122.904 100.26 123.317 100.42C123.73 100.567 124.084 100.767 124.377 101.02L123.537 103.12C123.364 103.013 123.184 102.927 122.997 102.86C122.824 102.78 122.664 102.74 122.517 102.74C122.264 102.74 122.05 102.787 121.877 102.88C121.717 102.96 121.597 103.087 121.517 103.26C121.437 103.42 121.397 103.627 121.397 103.88V115H119.977C119.67 115 119.397 115 119.157 115C118.917 115 118.71 115 118.537 115ZM116.957 107.08V104.68H123.677V107.08H116.957ZM125.817 115V104.42H128.657V115H125.817ZM127.217 102.26C126.67 102.26 126.244 102.127 125.937 101.86C125.63 101.58 125.477 101.193 125.477 100.7C125.477 100.247 125.63 99.88 125.937 99.6C126.257 99.3067 126.684 99.16 127.217 99.16C127.764 99.16 128.19 99.3 128.497 99.58C128.804 99.8467 128.957 100.22 128.957 100.7C128.957 101.153 128.797 101.527 128.477 101.82C128.17 102.113 127.75 102.26 127.217 102.26ZM132.721 115V101.74H135.561V115H132.721ZM130.741 106.96V104.42H137.741V106.96H130.741ZM149.265 115.2C148.278 115.2 147.398 115.04 146.625 114.72C145.865 114.387 145.252 113.933 144.785 113.36L146.565 111.84C146.965 112.28 147.418 112.6 147.925 112.8C148.432 112.987 148.938 113.08 149.445 113.08C149.645 113.08 149.825 113.06 149.985 113.02C150.158 112.967 150.305 112.9 150.425 112.82C150.545 112.727 150.632 112.62 150.685 112.5C150.752 112.367 150.785 112.227 150.785 112.08C150.785 111.787 150.665 111.56 150.425 111.4C150.292 111.32 150.085 111.233 149.805 111.14C149.525 111.033 149.165 110.92 148.725 110.8C148.045 110.627 147.465 110.427 146.985 110.2C146.518 109.96 146.145 109.693 145.865 109.4C145.625 109.12 145.438 108.82 145.305 108.5C145.185 108.167 145.125 107.8 145.125 107.4C145.125 106.92 145.232 106.487 145.445 106.1C145.658 105.7 145.952 105.36 146.325 105.08C146.712 104.8 147.152 104.587 147.645 104.44C148.138 104.28 148.658 104.2 149.205 104.2C149.752 104.2 150.285 104.267 150.805 104.4C151.325 104.533 151.805 104.727 152.245 104.98C152.698 105.22 153.092 105.507 153.425 105.84L151.905 107.52C151.665 107.293 151.392 107.087 151.085 106.9C150.792 106.713 150.485 106.567 150.165 106.46C149.845 106.353 149.558 106.3 149.305 106.3C149.078 106.3 148.872 106.32 148.685 106.36C148.512 106.4 148.365 106.467 148.245 106.56C148.125 106.64 148.032 106.74 147.965 106.86C147.912 106.98 147.885 107.113 147.885 107.26C147.885 107.407 147.918 107.547 147.985 107.68C148.065 107.813 148.172 107.927 148.305 108.02C148.452 108.1 148.665 108.193 148.945 108.3C149.238 108.407 149.632 108.527 150.125 108.66C150.765 108.833 151.305 109.027 151.745 109.24C152.198 109.453 152.558 109.7 152.825 109.98C153.052 110.22 153.218 110.493 153.325 110.8C153.432 111.107 153.485 111.447 153.485 111.82C153.485 112.473 153.298 113.053 152.925 113.56C152.565 114.067 152.065 114.467 151.425 114.76C150.785 115.053 150.065 115.2 149.265 115.2ZM155.51 115V100.2H158.31V106.58L157.75 106.82C157.897 106.34 158.157 105.907 158.53 105.52C158.917 105.12 159.377 104.8 159.91 104.56C160.443 104.32 161.003 104.2 161.59 104.2C162.39 104.2 163.057 104.36 163.59 104.68C164.137 105 164.543 105.487 164.81 106.14C165.09 106.78 165.23 107.573 165.23 108.52V115H162.39V108.74C162.39 108.26 162.323 107.86 162.19 107.54C162.057 107.22 161.85 106.987 161.57 106.84C161.303 106.693 160.97 106.627 160.57 106.64C160.25 106.64 159.95 106.693 159.67 106.8C159.403 106.893 159.17 107.033 158.97 107.22C158.783 107.407 158.63 107.62 158.51 107.86C158.403 108.1 158.35 108.36 158.35 108.64V115H156.95C156.643 115 156.37 115 156.13 115C155.89 115 155.683 115 155.51 115ZM171.911 115.2C171.031 115.2 170.238 114.96 169.531 114.48C168.825 114 168.265 113.347 167.851 112.52C167.438 111.693 167.231 110.747 167.231 109.68C167.231 108.613 167.438 107.667 167.851 106.84C168.278 106.013 168.851 105.367 169.571 104.9C170.291 104.433 171.111 104.2 172.031 104.2C172.551 104.2 173.025 104.28 173.451 104.44C173.891 104.587 174.271 104.793 174.591 105.06C174.925 105.327 175.205 105.633 175.431 105.98C175.658 106.327 175.818 106.7 175.911 107.1L175.311 107V104.42H178.131V115H175.271V112.46L175.911 112.4C175.805 112.773 175.631 113.127 175.391 113.46C175.151 113.793 174.851 114.093 174.491 114.36C174.145 114.613 173.751 114.82 173.311 114.98C172.871 115.127 172.405 115.2 171.911 115.2ZM172.691 112.74C173.225 112.74 173.691 112.613 174.091 112.36C174.491 112.107 174.798 111.753 175.011 111.3C175.238 110.833 175.351 110.293 175.351 109.68C175.351 109.08 175.238 108.553 175.011 108.1C174.798 107.647 174.491 107.293 174.091 107.04C173.691 106.773 173.225 106.64 172.691 106.64C172.171 106.64 171.711 106.773 171.311 107.04C170.925 107.293 170.618 107.647 170.391 108.1C170.165 108.553 170.051 109.08 170.051 109.68C170.051 110.293 170.165 110.833 170.391 111.3C170.618 111.753 170.925 112.107 171.311 112.36C171.711 112.613 172.171 112.74 172.691 112.74ZM180.979 115V104.42H183.719L183.819 107.82L183.339 107.12C183.499 106.573 183.759 106.08 184.119 105.64C184.479 105.187 184.899 104.833 185.379 104.58C185.872 104.327 186.385 104.2 186.919 104.2C187.145 104.2 187.365 104.22 187.579 104.26C187.792 104.3 187.972 104.347 188.119 104.4L187.359 107.52C187.212 107.44 187.019 107.373 186.779 107.32C186.552 107.253 186.319 107.22 186.079 107.22C185.759 107.22 185.459 107.28 185.179 107.4C184.912 107.507 184.679 107.667 184.479 107.88C184.279 108.08 184.119 108.32 183.999 108.6C183.892 108.88 183.839 109.187 183.839 109.52V115H180.979ZM189.988 115V104.42H192.828V115H189.988ZM191.388 102.26C190.841 102.26 190.415 102.127 190.108 101.86C189.801 101.58 189.648 101.193 189.648 100.7C189.648 100.247 189.801 99.88 190.108 99.6C190.428 99.3067 190.855 99.16 191.388 99.16C191.935 99.16 192.361 99.3 192.668 99.58C192.975 99.8467 193.128 100.22 193.128 100.7C193.128 101.153 192.968 101.527 192.648 101.82C192.341 102.113 191.921 102.26 191.388 102.26ZM195.861 115V104.42H198.581L198.661 106.58L198.101 106.82C198.248 106.34 198.508 105.907 198.881 105.52C199.268 105.12 199.728 104.8 200.261 104.56C200.795 104.32 201.355 104.2 201.941 104.2C202.741 104.2 203.408 104.36 203.941 104.68C204.488 105 204.895 105.487 205.161 106.14C205.441 106.78 205.581 107.573 205.581 108.52V115H202.741V108.74C202.741 108.26 202.675 107.86 202.541 107.54C202.408 107.22 202.201 106.987 201.921 106.84C201.655 106.693 201.321 106.627 200.921 106.64C200.601 106.64 200.301 106.693 200.021 106.8C199.755 106.893 199.521 107.033 199.321 107.22C199.135 107.407 198.981 107.62 198.861 107.86C198.755 108.1 198.701 108.36 198.701 108.64V115H197.301C196.995 115 196.721 115 196.481 115C196.241 115 196.035 115 195.861 115ZM213.123 119.6C212.283 119.6 211.456 119.473 210.643 119.22C209.829 118.98 209.163 118.66 208.643 118.26L209.663 116.24C209.929 116.427 210.236 116.593 210.583 116.74C210.929 116.887 211.289 117 211.663 117.08C212.049 117.16 212.443 117.2 212.843 117.2C213.536 117.2 214.103 117.093 214.543 116.88C214.996 116.667 215.336 116.347 215.563 115.92C215.789 115.493 215.903 114.96 215.903 114.32V112.48L216.383 112.58C216.303 113.02 216.076 113.427 215.703 113.8C215.343 114.16 214.889 114.453 214.343 114.68C213.809 114.893 213.249 115 212.663 115C211.689 115 210.823 114.773 210.063 114.32C209.303 113.867 208.703 113.24 208.263 112.44C207.823 111.64 207.603 110.713 207.603 109.66C207.603 108.607 207.816 107.673 208.243 106.86C208.683 106.033 209.276 105.387 210.023 104.92C210.783 104.44 211.643 104.2 212.603 104.2C213.003 104.2 213.383 104.247 213.743 104.34C214.116 104.433 214.456 104.567 214.763 104.74C215.083 104.9 215.363 105.087 215.603 105.3C215.856 105.5 216.063 105.72 216.223 105.96C216.383 106.2 216.483 106.44 216.523 106.68L215.943 106.84L216.023 104.42H218.743V114.2C218.743 115.067 218.616 115.833 218.363 116.5C218.109 117.167 217.736 117.727 217.243 118.18C216.763 118.647 216.169 119 215.463 119.24C214.769 119.48 213.989 119.6 213.123 119.6ZM213.203 112.72C213.763 112.72 214.249 112.593 214.663 112.34C215.089 112.087 215.416 111.733 215.643 111.28C215.869 110.827 215.983 110.293 215.983 109.68C215.983 109.08 215.869 108.553 215.643 108.1C215.416 107.633 215.089 107.273 214.663 107.02C214.249 106.767 213.763 106.64 213.203 106.64C212.656 106.64 212.176 106.773 211.763 107.04C211.349 107.293 211.023 107.653 210.783 108.12C210.556 108.573 210.443 109.093 210.443 109.68C210.443 110.28 210.556 110.813 210.783 111.28C211.023 111.733 211.349 112.087 211.763 112.34C212.176 112.593 212.656 112.72 213.203 112.72Z" fill="black"/>
<path d="M356.302 114.043C350.831 108.591 343.271 105.218 334.922 105.218C318.223 105.218 304.685 118.708 304.685 135.349V169.793C304.685 186.434 318.223 199.924 334.922 199.924C351.621 199.924 365.158 186.434 365.158 169.793V135.349C365.158 127.029 361.773 119.495 356.302 114.043ZM343.006 170.919C343.006 175.369 339.387 178.976 334.922 178.976C330.456 178.976 326.837 175.369 326.837 170.919V134.224C326.837 129.773 330.456 126.166 334.922 126.166C337.155 126.166 339.174 127.067 340.638 128.526C342.102 129.985 343.006 131.998 343.006 134.224V170.919Z" fill="url(#paint0_linear_6104_4589)" stroke="url(#paint1_linear_6104_4589)" stroke-width="1.41805" stroke-linejoin="round"/>
<path d="M343.717 134.223V136.528C343.717 134.107 342.733 131.915 341.141 130.329C339.549 128.742 337.35 127.761 334.921 127.761C330.062 127.761 326.125 131.686 326.125 136.528V134.223C326.125 129.382 330.062 125.457 334.921 125.457C337.35 125.457 339.549 126.438 341.141 128.024C342.733 129.611 343.717 131.802 343.717 134.223Z" fill="#07828B"/>
<path d="M345.144 171.643V173.892C345.144 179.518 340.567 184.079 334.922 184.079C329.276 184.079 324.699 179.518 324.699 173.892V171.643C324.699 177.269 329.276 181.83 334.922 181.83C340.567 181.83 345.144 177.269 345.144 171.643Z" fill="#08ACB8"/>
<path d="M362.243 135.771V138.318C362.243 130.8 359.184 123.993 354.241 119.066C349.296 114.139 342.465 111.092 334.921 111.092C319.831 111.092 307.598 123.281 307.598 138.318V135.771C307.598 120.735 319.831 108.544 334.921 108.544C342.465 108.544 349.296 111.592 354.241 116.519C359.184 121.446 362.243 128.252 362.243 135.771Z" fill="#07828B" stroke="#07828B" stroke-width="0.02619" stroke-miterlimit="10" stroke-linecap="round" stroke-linejoin="round"/>
<path d="M362.243 168.785V166.237C362.243 173.756 359.184 180.563 354.241 185.489C349.296 190.416 342.465 193.464 334.921 193.464C319.831 193.464 307.598 181.274 307.598 166.237V168.785C307.598 183.821 319.831 196.011 334.921 196.011C342.465 196.011 349.296 192.964 354.241 188.036C359.184 183.109 362.243 176.303 362.243 168.785Z" fill="#099CA7" stroke="#07828B" stroke-width="0.02619" stroke-miterlimit="10" stroke-linecap="round" stroke-linejoin="round"/>
<path d="M335.015 202.845H334.827C317.2 202.845 302.911 188.606 302.911 171.041V134.102C302.911 120.348 311.672 108.634 323.935 104.198" stroke="#07828B" stroke-opacity="0.2" stroke-width="0.40565" stroke-miterlimit="10" stroke-linecap="round" stroke-linejoin="round"/>
<path d="M366.932 134.102V171.041" stroke="#07828B" stroke-width="0.33059" stroke-miterlimit="10" stroke-linecap="round" stroke-linejoin="round"/>
<path d="M369.755 173.06C369.755 191.437 354.805 206.335 336.364 206.335H333.48C315.038 206.335 300.088 191.437 300.088 173.06" stroke="#07828B" stroke-opacity="0.2" stroke-width="0.381366" stroke-miterlimit="10" stroke-linecap="round" stroke-linejoin="round"/>
<path d="M300.088 140.36V133.147C300.088 114.77 315.038 99.8721 333.48 99.8721H336.364C345.987 99.8721 354.66 103.929 360.754 110.42" stroke="#07828B" stroke-width="0.198354" stroke-miterlimit="10" stroke-linecap="round" stroke-linejoin="round"/>
<path d="M300.088 140.36V133.147C300.088 114.77 315.038 99.8721 333.48 99.8721H336.364C345.987 99.8721 354.66 103.929 360.754 110.42" stroke="#07828B" stroke-opacity="0.2" stroke-width="0.198354" stroke-miterlimit="10" stroke-linecap="round" stroke-linejoin="round"/>
<g filter="url(#filter0_f_6104_4589)">
<path d="M333.474 216.025C311.837 216.025 294.298 198.547 294.298 176.987V128.156C294.298 118.392 297.896 109.464 303.842 102.619" stroke="white" stroke-opacity="0.1" stroke-width="0.198354" stroke-miterlimit="10" stroke-linecap="round" stroke-linejoin="round"/>
</g>
<g filter="url(#filter1_f_6104_4589)">
<path d="M358.625 96.0249C368.847 103.07 375.544 114.834 375.544 128.156V160.043" stroke="white" stroke-opacity="0.1" stroke-width="0.198354" stroke-miterlimit="10" stroke-linecap="round" stroke-linejoin="round"/>
</g>
<path d="M294.288 141.248V165.031H308.057V182.277H294.288V203H274.539V182.277H230.868V168.508L265.916 101.054H287.056L253.538 165.031H274.539V141.248H294.288Z" fill="url(#paint2_linear_6104_4589)"/>
<path d="M294.288 141.248H294.997C294.997 140.857 294.68 140.539 294.288 140.539V141.248ZM294.288 165.031H293.579C293.579 165.423 293.897 165.74 294.288 165.74V165.031ZM308.057 165.031H308.766C308.766 164.64 308.449 164.322 308.057 164.322V165.031ZM308.057 182.277V182.986C308.449 182.986 308.766 182.669 308.766 182.277H308.057ZM294.288 182.277V181.568C293.897 181.568 293.579 181.885 293.579 182.277H294.288ZM294.288 203V203.709C294.68 203.709 294.997 203.392 294.997 203H294.288ZM274.539 203H273.83C273.83 203.392 274.147 203.709 274.539 203.709V203ZM274.539 182.277H275.248C275.248 181.885 274.931 181.568 274.539 181.568V182.277ZM230.868 182.277H230.159C230.159 182.669 230.476 182.986 230.868 182.986V182.277ZM230.868 168.508L230.239 168.181C230.186 168.282 230.159 168.394 230.159 168.508H230.868ZM265.916 101.054V100.345C265.651 100.345 265.409 100.493 265.287 100.727L265.916 101.054ZM287.056 101.054L287.684 101.383C287.799 101.164 287.791 100.9 287.663 100.687C287.534 100.475 287.304 100.345 287.056 100.345V101.054ZM253.538 165.031L252.91 164.702C252.795 164.922 252.803 165.186 252.931 165.398C253.06 165.61 253.29 165.74 253.538 165.74V165.031ZM274.539 165.031V165.74C274.931 165.74 275.248 165.423 275.248 165.031H274.539ZM274.539 141.248V140.539C274.147 140.539 273.83 140.857 273.83 141.248H274.539ZM294.288 141.248H293.579V165.031H294.288H294.997V141.248H294.288ZM294.288 165.031V165.74H308.057V165.031V164.322H294.288V165.031ZM308.057 165.031H307.348V182.277H308.057H308.766V165.031H308.057ZM308.057 182.277V181.568H294.288V182.277V182.986H308.057V182.277ZM294.288 182.277H293.579V203H294.288H294.997V182.277H294.288ZM294.288 203V202.291H274.539V203V203.709H294.288V203ZM274.539 203H275.248V182.277H274.539H273.83V203H274.539ZM274.539 182.277V181.568H230.868V182.277V182.986H274.539V182.277ZM230.868 182.277H231.577V168.508H230.868H230.159V182.277H230.868ZM230.868 168.508L231.497 168.835L266.545 101.381L265.916 101.054L265.287 100.727L230.239 168.181L230.868 168.508ZM265.916 101.054V101.763H287.056V101.054V100.345H265.916V101.054ZM287.056 101.054L286.428 100.725L252.91 164.702L253.538 165.031L254.166 165.36L287.684 101.383L287.056 101.054ZM253.538 165.031V165.74H274.539V165.031V164.322H253.538V165.031ZM274.539 165.031H275.248V141.248H274.539H273.83V165.031H274.539ZM274.539 141.248V141.957H294.288V141.248V140.539H274.539V141.248Z" fill="url(#paint3_linear_6104_4589)"/>
<path d="M272 187H227V164.934L260.5 101.5" stroke="#07828B" stroke-opacity="0.2" stroke-width="0.381366" stroke-miterlimit="10" stroke-linecap="round" stroke-linejoin="round"/>
<path d="M374.128 182.388C374.127 182.389 374.126 182.391 374.125 182.392C374.124 182.394 374.123 182.396 374.122 182.398C373.307 183.795 372.207 184.858 370.812 185.601C369.405 186.351 367.885 186.726 366.24 186.726C364.596 186.726 363.076 186.351 361.67 185.602C360.309 184.859 359.204 183.793 358.351 182.388C357.511 181.003 357.082 179.397 357.082 177.548C357.082 175.699 357.511 174.093 358.351 172.708C359.202 171.306 360.323 170.24 361.72 169.495C361.723 169.493 361.727 169.491 361.731 169.489C363.138 168.706 364.638 168.317 366.24 168.317C367.879 168.317 369.396 168.708 370.801 169.489C370.805 169.491 370.809 169.493 370.812 169.495C372.207 170.238 373.307 171.301 374.122 172.698C374.124 172.701 374.126 172.705 374.128 172.708C374.968 174.093 375.398 175.699 375.398 177.548C375.398 179.397 374.968 181.003 374.128 182.388ZM363.493 174.498L363.491 174.5C362.786 175.291 362.467 176.314 362.467 177.495C362.467 178.678 362.787 179.71 363.479 180.529C363.488 180.54 363.496 180.55 363.506 180.559C364.24 181.334 365.167 181.728 366.24 181.728C367.339 181.728 368.287 181.34 369.026 180.559C369.031 180.555 369.035 180.55 369.039 180.545C369.774 179.727 370.118 178.689 370.118 177.495C370.118 176.307 369.777 175.28 369.033 174.491C368.298 173.676 367.349 173.263 366.24 173.263C365.153 173.263 364.223 173.685 363.493 174.498ZM400.042 202.479C400.04 202.482 400.038 202.486 400.036 202.489C399.221 203.885 398.121 204.948 396.727 205.691C395.32 206.441 393.799 206.817 392.154 206.817C390.509 206.817 388.988 206.441 387.581 205.691C386.184 204.947 385.063 203.881 384.213 202.479C383.372 201.094 382.943 199.488 382.943 197.639C382.943 195.752 383.374 194.129 384.213 192.746C385.063 191.344 386.184 190.278 387.581 189.533C388.988 188.783 390.509 188.407 392.154 188.407C393.799 188.407 395.32 188.783 396.727 189.533C398.121 190.276 399.221 191.339 400.036 192.736C400.038 192.739 400.04 192.743 400.042 192.746C400.881 194.129 401.312 195.752 401.312 197.639C401.312 199.488 400.883 201.094 400.042 202.479ZM389.407 200.636C389.411 200.641 389.416 200.645 389.42 200.65C390.154 201.425 391.081 201.819 392.154 201.819C393.254 201.819 394.201 201.431 394.941 200.65C394.945 200.645 394.949 200.641 394.954 200.636C395.689 199.817 396.032 198.78 396.032 197.586C396.032 196.397 395.691 195.37 394.947 194.582C394.212 193.767 393.263 193.353 392.154 193.353C391.07 193.353 390.142 193.773 389.413 194.582C388.67 195.37 388.328 196.397 388.328 197.586C388.328 198.78 388.672 199.817 389.407 200.636ZM364.59 206.133L386.805 169.053H393.803L371.589 206.133H364.59Z" fill="url(#paint4_linear_6104_4589)" stroke="url(#paint5_linear_6104_4589)" stroke-width="1.41805" stroke-linejoin="round"/>
<rect x="268.416" y="104.798" width="1.7385" height="13.0388" transform="rotate(-90 268.416 104.798)" fill="#07828B"/>
<defs>
<filter id="filter0_f_6104_4589" x="293.538" y="101.858" width="40.6961" height="114.927" filterUnits="userSpaceOnUse" color-interpolation-filters="sRGB">
<feFlood flood-opacity="0" result="BackgroundImageFix"/>
<feBlend mode="normal" in="SourceGraphic" in2="BackgroundImageFix" result="shape"/>
<feGaussianBlur stdDeviation="0.33059" result="effect1_foregroundBlur_6104_4589"/>
</filter>
<filter id="filter1_f_6104_4589" x="357.864" y="95.2646" width="18.4405" height="65.5382" filterUnits="userSpaceOnUse" color-interpolation-filters="sRGB">
<feFlood flood-opacity="0" result="BackgroundImageFix"/>
<feBlend mode="normal" in="SourceGraphic" in2="BackgroundImageFix" result="shape"/>
<feGaussianBlur stdDeviation="0.33059" result="effect1_foregroundBlur_6104_4589"/>
</filter>
<linearGradient id="paint0_linear_6104_4589" x1="329.874" y1="89.4854" x2="302.881" y2="177.105" gradientUnits="userSpaceOnUse">
<stop stop-color="#FFFCF2"/>
<stop offset="1" stop-color="#07828B"/>
</linearGradient>
<linearGradient id="paint1_linear_6104_4589" x1="334.922" y1="105.927" x2="364.209" y2="173.137" gradientUnits="userSpaceOnUse">
<stop stop-color="#07828B"/>
<stop offset="0.38" stop-color="#5AB8DB"/>
<stop offset="0.59" stop-color="#07828B"/>
<stop offset="0.905" stop-color="#5AB8DB"/>
</linearGradient>
<linearGradient id="paint2_linear_6104_4589" x1="260.72" y1="92.0951" x2="242.498" y2="178.501" gradientUnits="userSpaceOnUse">
<stop stop-color="#FFFCF2"/>
<stop offset="1" stop-color="#07828B"/>
</linearGradient>
<linearGradient id="paint3_linear_6104_4589" x1="267.657" y1="107.562" x2="288.264" y2="176.646" gradientUnits="userSpaceOnUse">
<stop stop-color="#07828B"/>
<stop offset="0.38" stop-color="#05A7B3"/>
<stop offset="0.59" stop-color="#5AB8DB"/>
<stop offset="0.905" stop-color="#07828B"/>
</linearGradient>
<linearGradient id="paint4_linear_6104_4589" x1="381.966" y1="210.73" x2="367.37" y2="152.013" gradientUnits="userSpaceOnUse">
<stop stop-color="#07828B"/>
<stop offset="1" stop-color="#FFFCF2"/>
</linearGradient>
<linearGradient id="paint5_linear_6104_4589" x1="379.197" y1="206.817" x2="379.197" y2="168.317" gradientUnits="userSpaceOnUse">
<stop stop-color="#07828B"/>
<stop offset="1" stop-color="#5AB8DB"/>
</linearGradient>
</defs>
</svg>
