<svg width="370" height="160" viewBox="0 0 370 160" fill="none" xmlns="http://www.w3.org/2000/svg">
<rect width="370" height="160" rx="16" fill="#02272A"/>
<path d="M17.456 34V22.8H22.32C23.0667 22.8 23.696 22.912 24.208 23.136C24.7307 23.3493 25.1253 23.664 25.392 24.08C25.6587 24.496 25.792 24.992 25.792 25.568C25.792 26.208 25.632 26.7413 25.312 27.168C24.992 27.5947 24.5333 27.888 23.936 28.048L23.92 27.728C24.4213 27.8453 24.8533 28.0373 25.216 28.304C25.5893 28.5707 25.8773 28.9013 26.08 29.296C26.2827 29.6907 26.384 30.1387 26.384 30.64C26.384 31.1947 26.2933 31.6853 26.112 32.112C25.9307 32.528 25.664 32.8747 25.312 33.152C24.96 33.4293 24.544 33.6427 24.064 33.792C23.5947 33.9307 23.0667 34 22.48 34H17.456ZM19.76 31.92H22.384C22.7253 31.92 23.0133 31.872 23.248 31.776C23.4933 31.6693 23.68 31.5093 23.808 31.296C23.936 31.0827 24 30.832 24 30.544C24 30.2667 23.9307 30.032 23.792 29.84C23.6533 29.648 23.456 29.504 23.2 29.408C22.9547 29.3013 22.656 29.248 22.304 29.248H19.76V31.92ZM19.76 27.344H22.032C22.32 27.344 22.5707 27.2907 22.784 27.184C22.9973 27.0773 23.1573 26.9333 23.264 26.752C23.3813 26.5707 23.44 26.3573 23.44 26.112C23.44 25.7173 23.312 25.4133 23.056 25.2C22.8 24.9867 22.4107 24.88 21.888 24.88H19.76V27.344ZM32.2458 34.16C31.3284 34.16 30.5231 33.9733 29.8298 33.6C29.1471 33.2267 28.6138 32.7147 28.2298 32.064C27.8564 31.4133 27.6698 30.6667 27.6698 29.824C27.6698 29.1627 27.7764 28.56 27.9898 28.016C28.2031 27.472 28.5018 27.0027 28.8858 26.608C29.2698 26.2027 29.7231 25.8933 30.2458 25.68C30.7791 25.456 31.3551 25.344 31.9738 25.344C32.5498 25.344 33.0831 25.4507 33.5738 25.664C34.0644 25.8773 34.4858 26.176 34.8378 26.56C35.2004 26.9333 35.4778 27.3813 35.6698 27.904C35.8618 28.416 35.9471 28.9707 35.9258 29.568L35.9097 30.272H29.1098L28.7418 28.88H34.0378L33.7818 29.168V28.816C33.7604 28.528 33.6644 28.272 33.4938 28.048C33.3338 27.8133 33.1258 27.632 32.8698 27.504C32.6138 27.3653 32.3258 27.296 32.0058 27.296C31.5364 27.296 31.1364 27.3867 30.8058 27.568C30.4858 27.7493 30.2404 28.016 30.0698 28.368C29.8991 28.72 29.8138 29.1467 29.8138 29.648C29.8138 30.16 29.9204 30.6027 30.1338 30.976C30.3578 31.3493 30.6671 31.6427 31.0618 31.856C31.4671 32.0587 31.9418 32.16 32.4858 32.16C32.8591 32.16 33.2004 32.1013 33.5098 31.984C33.8191 31.8667 34.1498 31.664 34.5018 31.376L35.5898 32.896C35.2804 33.1733 34.9391 33.408 34.5658 33.6C34.1924 33.7813 33.8084 33.92 33.4138 34.016C33.0191 34.112 32.6298 34.16 32.2458 34.16ZM41.2848 34.16C40.4741 34.16 39.7488 33.968 39.1088 33.584C38.4688 33.2 37.9621 32.6773 37.5888 32.016C37.2261 31.3547 37.0448 30.6027 37.0448 29.76C37.0448 28.9173 37.2261 28.1653 37.5888 27.504C37.9621 26.8427 38.4688 26.32 39.1088 25.936C39.7488 25.552 40.4741 25.36 41.2848 25.36C42.0421 25.36 42.7354 25.4987 43.3648 25.776C43.9941 26.0533 44.4848 26.4373 44.8368 26.928L43.5888 28.432C43.4394 28.2293 43.2528 28.048 43.0288 27.888C42.8048 27.7173 42.5594 27.584 42.2928 27.488C42.0368 27.392 41.7701 27.344 41.4928 27.344C41.0554 27.344 40.6661 27.4507 40.3248 27.664C39.9941 27.8667 39.7328 28.1493 39.5408 28.512C39.3488 28.8747 39.2528 29.2907 39.2528 29.76C39.2528 30.208 39.3488 30.6133 39.5408 30.976C39.7434 31.3387 40.0154 31.6267 40.3568 31.84C40.6981 32.0533 41.0821 32.16 41.5088 32.16C41.7861 32.16 42.0474 32.1227 42.2928 32.048C42.5381 31.9733 42.7674 31.856 42.9808 31.696C43.2048 31.536 43.4074 31.344 43.5888 31.12L44.8208 32.624C44.4688 33.0827 43.9674 33.456 43.3168 33.744C42.6768 34.0213 41.9994 34.16 41.2848 34.16ZM50.2126 34.16C49.3486 34.16 48.5753 33.9733 47.8926 33.6C47.2206 33.216 46.6873 32.6933 46.2926 32.032C45.9086 31.3707 45.7166 30.6133 45.7166 29.76C45.7166 28.9067 45.9086 28.1493 46.2926 27.488C46.6873 26.8267 47.2206 26.3093 47.8926 25.936C48.5753 25.552 49.3486 25.36 50.2126 25.36C51.066 25.36 51.8286 25.552 52.5006 25.936C53.1833 26.3093 53.7166 26.8267 54.1006 27.488C54.4846 28.1493 54.6766 28.9067 54.6766 29.76C54.6766 30.6133 54.4846 31.3707 54.1006 32.032C53.7166 32.6933 53.1833 33.216 52.5006 33.6C51.8286 33.9733 51.066 34.16 50.2126 34.16ZM50.2126 32.176C50.6286 32.176 51.002 32.0747 51.3326 31.872C51.6633 31.6587 51.9193 31.3707 52.1006 31.008C52.2926 30.6347 52.3833 30.2187 52.3726 29.76C52.3833 29.2907 52.2926 28.8747 52.1006 28.512C51.9193 28.1387 51.6633 27.8507 51.3326 27.648C51.002 27.4347 50.6286 27.328 50.2126 27.328C49.786 27.328 49.4073 27.4347 49.0766 27.648C48.746 27.8613 48.4846 28.1493 48.2926 28.512C48.1006 28.8747 48.01 29.2907 48.0206 29.76C48.01 30.2187 48.1006 30.6347 48.2926 31.008C48.4846 31.3707 48.746 31.6587 49.0766 31.872C49.4073 32.0747 49.786 32.176 50.2126 32.176ZM56.3856 34V25.536H58.5776L58.6256 27.152L58.2896 27.216C58.407 26.9387 58.5616 26.688 58.7536 26.464C58.9563 26.24 59.1856 26.048 59.4416 25.888C59.6976 25.728 59.9696 25.6053 60.2576 25.52C60.5456 25.424 60.8336 25.376 61.1216 25.376C61.559 25.376 61.9536 25.4453 62.3056 25.584C62.6576 25.7227 62.9563 25.9413 63.2016 26.24C63.447 26.528 63.639 26.912 63.7776 27.392L63.4256 27.36L63.5376 27.104C63.6763 26.848 63.8523 26.6133 64.0656 26.4C64.279 26.1867 64.519 26.0053 64.7856 25.856C65.0523 25.7067 65.3296 25.5893 65.6176 25.504C65.9056 25.4187 66.1883 25.376 66.4656 25.376C67.127 25.376 67.6763 25.5093 68.1136 25.776C68.551 26.032 68.8763 26.4213 69.0896 26.944C69.3136 27.4667 69.4256 28.1067 69.4256 28.864V34H67.1536V29.024C67.1536 28.64 67.1003 28.3253 66.9936 28.08C66.887 27.8347 66.7323 27.6533 66.5296 27.536C66.327 27.408 66.0656 27.344 65.7456 27.344C65.5003 27.344 65.271 27.3867 65.0576 27.472C64.855 27.5467 64.6736 27.6587 64.5136 27.808C64.3643 27.9467 64.247 28.1173 64.1616 28.32C64.0763 28.512 64.0336 28.72 64.0336 28.944V34H61.7456V29.008C61.7456 28.656 61.6923 28.3573 61.5856 28.112C61.479 27.856 61.3243 27.664 61.1216 27.536C60.919 27.408 60.6683 27.344 60.3696 27.344C60.1243 27.344 59.895 27.3867 59.6816 27.472C59.479 27.5467 59.303 27.6587 59.1536 27.808C59.0043 27.9467 58.887 28.112 58.8016 28.304C58.7163 28.496 58.6736 28.704 58.6736 28.928V34H56.3856ZM75.6051 34.16C74.6878 34.16 73.8825 33.9733 73.1891 33.6C72.5065 33.2267 71.9731 32.7147 71.5891 32.064C71.2158 31.4133 71.0291 30.6667 71.0291 29.824C71.0291 29.1627 71.1358 28.56 71.3491 28.016C71.5625 27.472 71.8611 27.0027 72.2451 26.608C72.6291 26.2027 73.0825 25.8933 73.6051 25.68C74.1385 25.456 74.7145 25.344 75.3331 25.344C75.9091 25.344 76.4425 25.4507 76.9331 25.664C77.4238 25.8773 77.8451 26.176 78.1971 26.56C78.5598 26.9333 78.8371 27.3813 79.0291 27.904C79.2211 28.416 79.3065 28.9707 79.2851 29.568L79.2691 30.272H72.4691L72.1011 28.88H77.3971L77.1411 29.168V28.816C77.1198 28.528 77.0238 28.272 76.8531 28.048C76.6931 27.8133 76.4851 27.632 76.2291 27.504C75.9731 27.3653 75.6851 27.296 75.3651 27.296C74.8958 27.296 74.4958 27.3867 74.1651 27.568C73.8451 27.7493 73.5998 28.016 73.4291 28.368C73.2585 28.72 73.1731 29.1467 73.1731 29.648C73.1731 30.16 73.2798 30.6027 73.4931 30.976C73.7171 31.3493 74.0265 31.6427 74.4211 31.856C74.8265 32.0587 75.3011 32.16 75.8451 32.16C76.2185 32.16 76.5598 32.1013 76.8691 31.984C77.1785 31.8667 77.5091 31.664 77.8611 31.376L78.9491 32.896C78.6398 33.1733 78.2985 33.408 77.9251 33.6C77.5518 33.7813 77.1678 33.92 76.7731 34.016C76.3785 34.112 75.9891 34.16 75.6051 34.16ZM89.0384 34.16C88.3344 34.16 87.6997 33.968 87.1344 33.584C86.569 33.2 86.121 32.6773 85.7904 32.016C85.4597 31.3547 85.2944 30.5973 85.2944 29.744C85.2944 28.8907 85.4597 28.1333 85.7904 27.472C86.1317 26.8107 86.5904 26.2933 87.1664 25.92C87.7424 25.5467 88.3984 25.36 89.1344 25.36C89.5504 25.36 89.929 25.424 90.2704 25.552C90.6224 25.6693 90.9264 25.8347 91.1824 26.048C91.449 26.2613 91.673 26.5067 91.8544 26.784C92.0357 27.0613 92.1637 27.36 92.2384 27.68L91.7584 27.6V25.536H94.0144V34H91.7264V31.968L92.2384 31.92C92.153 32.2187 92.0144 32.5013 91.8224 32.768C91.6304 33.0347 91.3904 33.2747 91.1024 33.488C90.825 33.6907 90.5104 33.856 90.1584 33.984C89.8064 34.1013 89.433 34.16 89.0384 34.16ZM89.6624 32.192C90.089 32.192 90.4624 32.0907 90.7824 31.888C91.1024 31.6853 91.3477 31.4027 91.5184 31.04C91.6997 30.6667 91.7904 30.2347 91.7904 29.744C91.7904 29.264 91.6997 28.8427 91.5184 28.48C91.3477 28.1173 91.1024 27.8347 90.7824 27.632C90.4624 27.4187 90.089 27.312 89.6624 27.312C89.2464 27.312 88.8784 27.4187 88.5584 27.632C88.249 27.8347 88.0037 28.1173 87.8224 28.48C87.641 28.8427 87.5504 29.264 87.5504 29.744C87.5504 30.2347 87.641 30.6667 87.8224 31.04C88.0037 31.4027 88.249 31.6853 88.5584 31.888C88.8784 32.0907 89.2464 32.192 89.6624 32.192ZM106.431 34.16C105.609 34.16 104.852 34.0213 104.159 33.744C103.476 33.456 102.879 33.056 102.367 32.544C101.865 32.0213 101.476 31.408 101.199 30.704C100.921 29.9893 100.783 29.2107 100.783 28.368C100.783 27.5467 100.927 26.7893 101.215 26.096C101.503 25.392 101.908 24.784 102.431 24.272C102.953 23.7493 103.567 23.344 104.271 23.056C104.975 22.768 105.737 22.624 106.559 22.624C107.092 22.624 107.615 22.6987 108.127 22.848C108.649 22.9867 109.124 23.1947 109.551 23.472C109.988 23.7493 110.361 24.08 110.671 24.464L109.167 26.128C108.921 25.872 108.66 25.6533 108.383 25.472C108.105 25.28 107.812 25.136 107.503 25.04C107.204 24.9333 106.884 24.88 106.543 24.88C106.084 24.88 105.652 24.9653 105.247 25.136C104.852 25.3067 104.505 25.5467 104.207 25.856C103.908 26.1547 103.668 26.5227 103.487 26.96C103.316 27.3867 103.231 27.8613 103.231 28.384C103.231 28.9173 103.316 29.4027 103.487 29.84C103.657 30.2667 103.897 30.6347 104.207 30.944C104.516 31.2427 104.884 31.4773 105.311 31.648C105.748 31.808 106.228 31.888 106.751 31.888C107.092 31.888 107.423 31.84 107.743 31.744C108.063 31.648 108.356 31.5147 108.623 31.344C108.9 31.1733 109.145 30.976 109.359 30.752L110.543 32.624C110.276 32.912 109.924 33.1733 109.487 33.408C109.06 33.6427 108.58 33.8293 108.047 33.968C107.513 34.096 106.975 34.16 106.431 34.16ZM116.166 34.16C115.302 34.16 114.528 33.9733 113.846 33.6C113.174 33.216 112.64 32.6933 112.246 32.032C111.862 31.3707 111.67 30.6133 111.67 29.76C111.67 28.9067 111.862 28.1493 112.246 27.488C112.64 26.8267 113.174 26.3093 113.846 25.936C114.528 25.552 115.302 25.36 116.166 25.36C117.019 25.36 117.782 25.552 118.454 25.936C119.136 26.3093 119.67 26.8267 120.054 27.488C120.438 28.1493 120.63 28.9067 120.63 29.76C120.63 30.6133 120.438 31.3707 120.054 32.032C119.67 32.6933 119.136 33.216 118.454 33.6C117.782 33.9733 117.019 34.16 116.166 34.16ZM116.166 32.176C116.582 32.176 116.955 32.0747 117.286 31.872C117.616 31.6587 117.872 31.3707 118.054 31.008C118.246 30.6347 118.336 30.2187 118.326 29.76C118.336 29.2907 118.246 28.8747 118.054 28.512C117.872 28.1387 117.616 27.8507 117.286 27.648C116.955 27.4347 116.582 27.328 116.166 27.328C115.739 27.328 115.36 27.4347 115.03 27.648C114.699 27.8613 114.438 28.1493 114.246 28.512C114.054 28.8747 113.963 29.2907 113.974 29.76C113.963 30.2187 114.054 30.6347 114.246 31.008C114.438 31.3707 114.699 31.6587 115.03 31.872C115.36 32.0747 115.739 32.176 116.166 32.176ZM122.355 34V25.536H124.531L124.595 27.264L124.147 27.456C124.264 27.072 124.472 26.7253 124.771 26.416C125.08 26.096 125.448 25.84 125.875 25.648C126.301 25.456 126.749 25.36 127.219 25.36C127.859 25.36 128.392 25.488 128.819 25.744C129.256 26 129.581 26.3893 129.795 26.912C130.019 27.424 130.131 28.0587 130.131 28.816V34H127.859V28.992C127.859 28.608 127.805 28.288 127.699 28.032C127.592 27.776 127.427 27.5893 127.203 27.472C126.989 27.3547 126.723 27.3013 126.403 27.312C126.147 27.312 125.907 27.3547 125.683 27.44C125.469 27.5147 125.283 27.6267 125.123 27.776C124.973 27.9253 124.851 28.096 124.755 28.288C124.669 28.48 124.627 28.688 124.627 28.912V34H123.507C123.261 34 123.043 34 122.851 34C122.659 34 122.493 34 122.355 34ZM133.124 34V23.392H135.396V34H133.124ZM131.54 27.568V25.536H137.14V27.568H131.54ZM138.605 34V25.536H140.797L140.877 28.256L140.493 27.696C140.621 27.2587 140.829 26.864 141.117 26.512C141.405 26.1493 141.741 25.8667 142.125 25.664C142.519 25.4613 142.93 25.36 143.357 25.36C143.538 25.36 143.714 25.376 143.885 25.408C144.055 25.44 144.199 25.4773 144.317 25.52L143.709 28.016C143.591 27.952 143.437 27.8987 143.245 27.856C143.063 27.8027 142.877 27.776 142.685 27.776C142.429 27.776 142.189 27.824 141.965 27.92C141.751 28.0053 141.565 28.1333 141.405 28.304C141.245 28.464 141.117 28.656 141.021 28.88C140.935 29.104 140.893 29.3493 140.893 29.616V34H138.605ZM148.429 34.16C147.725 34.16 147.09 33.968 146.525 33.584C145.96 33.2 145.512 32.6773 145.181 32.016C144.85 31.3547 144.685 30.5973 144.685 29.744C144.685 28.8907 144.85 28.1333 145.181 27.472C145.522 26.8107 145.981 26.2933 146.557 25.92C147.133 25.5467 147.789 25.36 148.525 25.36C148.941 25.36 149.32 25.424 149.661 25.552C150.013 25.6693 150.317 25.8347 150.573 26.048C150.84 26.2613 151.064 26.5067 151.245 26.784C151.426 27.0613 151.554 27.36 151.629 27.68L151.149 27.6V25.536H153.405V34H151.117V31.968L151.629 31.92C151.544 32.2187 151.405 32.5013 151.213 32.768C151.021 33.0347 150.781 33.2747 150.493 33.488C150.216 33.6907 149.901 33.856 149.549 33.984C149.197 34.1013 148.824 34.16 148.429 34.16ZM149.053 32.192C149.48 32.192 149.853 32.0907 150.173 31.888C150.493 31.6853 150.738 31.4027 150.909 31.04C151.09 30.6667 151.181 30.2347 151.181 29.744C151.181 29.264 151.09 28.8427 150.909 28.48C150.738 28.1173 150.493 27.8347 150.173 27.632C149.853 27.4187 149.48 27.312 149.053 27.312C148.637 27.312 148.269 27.4187 147.949 27.632C147.64 27.8347 147.394 28.1173 147.213 28.48C147.032 28.8427 146.941 29.264 146.941 29.744C146.941 30.2347 147.032 30.6667 147.213 31.04C147.394 31.4027 147.64 31.6853 147.949 31.888C148.269 32.0907 148.637 32.192 149.053 32.192ZM159.363 34.16C158.552 34.16 157.827 33.968 157.187 33.584C156.547 33.2 156.04 32.6773 155.667 32.016C155.304 31.3547 155.123 30.6027 155.123 29.76C155.123 28.9173 155.304 28.1653 155.667 27.504C156.04 26.8427 156.547 26.32 157.187 25.936C157.827 25.552 158.552 25.36 159.363 25.36C160.12 25.36 160.814 25.4987 161.443 25.776C162.072 26.0533 162.563 26.4373 162.915 26.928L161.667 28.432C161.518 28.2293 161.331 28.048 161.107 27.888C160.883 27.7173 160.638 27.584 160.371 27.488C160.115 27.392 159.848 27.344 159.571 27.344C159.134 27.344 158.744 27.4507 158.403 27.664C158.072 27.8667 157.811 28.1493 157.619 28.512C157.427 28.8747 157.331 29.2907 157.331 29.76C157.331 30.208 157.427 30.6133 157.619 30.976C157.822 31.3387 158.094 31.6267 158.435 31.84C158.776 32.0533 159.16 32.16 159.587 32.16C159.864 32.16 160.126 32.1227 160.371 32.048C160.616 31.9733 160.846 31.856 161.059 31.696C161.283 31.536 161.486 31.344 161.667 31.12L162.899 32.624C162.547 33.0827 162.046 33.456 161.395 33.744C160.755 34.0213 160.078 34.16 159.363 34.16ZM165.171 34V23.392H167.443V34H165.171ZM163.587 27.568V25.536H169.187V27.568H163.587ZM178.214 34V24.96H174.95V22.8H183.974V24.96H180.614V34H178.214ZM184.683 34V25.536H186.875L186.955 28.256L186.571 27.696C186.699 27.2587 186.907 26.864 187.195 26.512C187.483 26.1493 187.819 25.8667 188.203 25.664C188.598 25.4613 189.008 25.36 189.435 25.36C189.616 25.36 189.792 25.376 189.963 25.408C190.134 25.44 190.278 25.4773 190.395 25.52L189.787 28.016C189.67 27.952 189.515 27.8987 189.323 27.856C189.142 27.8027 188.955 27.776 188.763 27.776C188.507 27.776 188.267 27.824 188.043 27.92C187.83 28.0053 187.643 28.1333 187.483 28.304C187.323 28.464 187.195 28.656 187.099 28.88C187.014 29.104 186.971 29.3493 186.971 29.616V34H184.683ZM194.507 34.16C193.803 34.16 193.168 33.968 192.603 33.584C192.038 33.2 191.59 32.6773 191.259 32.016C190.928 31.3547 190.763 30.5973 190.763 29.744C190.763 28.8907 190.928 28.1333 191.259 27.472C191.6 26.8107 192.059 26.2933 192.635 25.92C193.211 25.5467 193.867 25.36 194.603 25.36C195.019 25.36 195.398 25.424 195.739 25.552C196.091 25.6693 196.395 25.8347 196.651 26.048C196.918 26.2613 197.142 26.5067 197.323 26.784C197.504 27.0613 197.632 27.36 197.707 27.68L197.227 27.6V25.536H199.483V34H197.195V31.968L197.707 31.92C197.622 32.2187 197.483 32.5013 197.291 32.768C197.099 33.0347 196.859 33.2747 196.571 33.488C196.294 33.6907 195.979 33.856 195.627 33.984C195.275 34.1013 194.902 34.16 194.507 34.16ZM195.131 32.192C195.558 32.192 195.931 32.0907 196.251 31.888C196.571 31.6853 196.816 31.4027 196.987 31.04C197.168 30.6667 197.259 30.2347 197.259 29.744C197.259 29.264 197.168 28.8427 196.987 28.48C196.816 28.1173 196.571 27.8347 196.251 27.632C195.931 27.4187 195.558 27.312 195.131 27.312C194.715 27.312 194.347 27.4187 194.027 27.632C193.718 27.8347 193.472 28.1173 193.291 28.48C193.11 28.8427 193.019 29.264 193.019 29.744C193.019 30.2347 193.11 30.6667 193.291 31.04C193.472 31.4027 193.718 31.6853 194.027 31.888C194.347 32.0907 194.715 32.192 195.131 32.192ZM205.073 34.16C204.326 34.16 203.66 33.9733 203.073 33.6C202.497 33.216 202.038 32.6987 201.697 32.048C201.366 31.3867 201.201 30.624 201.201 29.76C201.201 28.9173 201.366 28.1653 201.697 27.504C202.038 26.832 202.497 26.3093 203.073 25.936C203.66 25.552 204.326 25.36 205.073 25.36C205.468 25.36 205.846 25.424 206.209 25.552C206.582 25.6693 206.913 25.8347 207.201 26.048C207.5 26.2613 207.74 26.5013 207.921 26.768C208.102 27.024 208.204 27.2907 208.225 27.568L207.649 27.68V22.16H209.937V34H207.777L207.681 32.048L208.129 32.096C208.108 32.3627 208.012 32.6187 207.841 32.864C207.67 33.1093 207.441 33.3333 207.153 33.536C206.876 33.728 206.556 33.8827 206.193 34C205.841 34.1067 205.468 34.16 205.073 34.16ZM205.585 32.272C206.012 32.272 206.385 32.1653 206.705 31.952C207.025 31.7387 207.276 31.4453 207.457 31.072C207.638 30.6987 207.729 30.2613 207.729 29.76C207.729 29.2693 207.638 28.8373 207.457 28.464C207.276 28.0907 207.025 27.7973 206.705 27.584C206.385 27.3707 206.012 27.264 205.585 27.264C205.158 27.264 204.785 27.3707 204.465 27.584C204.156 27.7973 203.91 28.0907 203.729 28.464C203.558 28.8373 203.473 29.2693 203.473 29.76C203.473 30.2613 203.558 30.6987 203.729 31.072C203.91 31.4453 204.156 31.7387 204.465 31.952C204.785 32.1653 205.158 32.272 205.585 32.272ZM216.152 34.16C215.235 34.16 214.429 33.9733 213.736 33.6C213.053 33.2267 212.52 32.7147 212.136 32.064C211.763 31.4133 211.576 30.6667 211.576 29.824C211.576 29.1627 211.683 28.56 211.896 28.016C212.109 27.472 212.408 27.0027 212.792 26.608C213.176 26.2027 213.629 25.8933 214.152 25.68C214.685 25.456 215.261 25.344 215.88 25.344C216.456 25.344 216.989 25.4507 217.48 25.664C217.971 25.8773 218.392 26.176 218.744 26.56C219.107 26.9333 219.384 27.3813 219.576 27.904C219.768 28.416 219.853 28.9707 219.832 29.568L219.816 30.272H213.016L212.648 28.88H217.944L217.688 29.168V28.816C217.667 28.528 217.571 28.272 217.4 28.048C217.24 27.8133 217.032 27.632 216.776 27.504C216.52 27.3653 216.232 27.296 215.912 27.296C215.443 27.296 215.043 27.3867 214.712 27.568C214.392 27.7493 214.147 28.016 213.976 28.368C213.805 28.72 213.72 29.1467 213.72 29.648C213.72 30.16 213.827 30.6027 214.04 30.976C214.264 31.3493 214.573 31.6427 214.968 31.856C215.373 32.0587 215.848 32.16 216.392 32.16C216.765 32.16 217.107 32.1013 217.416 31.984C217.725 31.8667 218.056 31.664 218.408 31.376L219.496 32.896C219.187 33.1733 218.845 33.408 218.472 33.6C218.099 33.7813 217.715 33.92 217.32 34.016C216.925 34.112 216.536 34.16 216.152 34.16ZM221.511 34V25.536H223.703L223.783 28.256L223.399 27.696C223.527 27.2587 223.735 26.864 224.023 26.512C224.311 26.1493 224.647 25.8667 225.031 25.664C225.426 25.4613 225.836 25.36 226.263 25.36C226.444 25.36 226.62 25.376 226.791 25.408C226.962 25.44 227.106 25.4773 227.223 25.52L226.615 28.016C226.498 27.952 226.343 27.8987 226.151 27.856C225.97 27.8027 225.783 27.776 225.591 27.776C225.335 27.776 225.095 27.824 224.871 27.92C224.658 28.0053 224.471 28.1333 224.311 28.304C224.151 28.464 224.023 28.656 223.927 28.88C223.842 29.104 223.799 29.3493 223.799 29.616V34H221.511ZM17.456 58V46.8H25.024V48.912H19.808V55.888H25.136V58H17.456ZM18.576 53.312V51.264H24.256V53.312H18.576ZM27.2923 58V49.536H29.4683L29.5323 51.264L29.0843 51.456C29.2016 51.072 29.4096 50.7253 29.7083 50.416C30.0176 50.096 30.3856 49.84 30.8123 49.648C31.2389 49.456 31.6869 49.36 32.1563 49.36C32.7963 49.36 33.3296 49.488 33.7563 49.744C34.1936 50 34.5189 50.3893 34.7323 50.912C34.9563 51.424 35.0683 52.0587 35.0683 52.816V58H32.7963V52.992C32.7963 52.608 32.7429 52.288 32.6363 52.032C32.5296 51.776 32.3643 51.5893 32.1403 51.472C31.9269 51.3547 31.6603 51.3013 31.3403 51.312C31.0843 51.312 30.8443 51.3547 30.6203 51.44C30.4069 51.5147 30.2203 51.6267 30.0603 51.776C29.9109 51.9253 29.7883 52.096 29.6923 52.288C29.6069 52.48 29.5643 52.688 29.5643 52.912V58H28.4443C28.1989 58 27.9803 58 27.7883 58C27.5963 58 27.4309 58 27.2923 58ZM36.3974 61.296L35.5494 59.536C36.008 59.536 36.376 59.472 36.6534 59.344C36.9307 59.216 37.128 59.0027 37.2454 58.704C37.3734 58.416 37.4374 58.032 37.4374 57.552V49.536H39.7094V58.096C39.7094 58.7893 39.576 59.3707 39.3094 59.84C39.0534 60.32 38.68 60.6827 38.1894 60.928C37.6987 61.1733 37.1014 61.296 36.3974 61.296ZM38.6214 47.808C38.184 47.808 37.8427 47.7013 37.5974 47.488C37.352 47.264 37.2294 46.9547 37.2294 46.56C37.2294 46.1973 37.352 45.904 37.5974 45.68C37.8534 45.4453 38.1947 45.328 38.6214 45.328C39.0587 45.328 39.4 45.44 39.6454 45.664C39.8907 45.8773 40.0134 46.176 40.0134 46.56C40.0134 46.9227 39.8854 47.2213 39.6294 47.456C39.384 47.6907 39.048 47.808 38.6214 47.808ZM45.9626 58.16C45.0986 58.16 44.3253 57.9733 43.6426 57.6C42.9706 57.216 42.4373 56.6933 42.0426 56.032C41.6586 55.3707 41.4666 54.6133 41.4666 53.76C41.4666 52.9067 41.6586 52.1493 42.0426 51.488C42.4373 50.8267 42.9706 50.3093 43.6426 49.936C44.3253 49.552 45.0986 49.36 45.9626 49.36C46.816 49.36 47.5786 49.552 48.2506 49.936C48.9333 50.3093 49.4666 50.8267 49.8506 51.488C50.2346 52.1493 50.4266 52.9067 50.4266 53.76C50.4266 54.6133 50.2346 55.3707 49.8506 56.032C49.4666 56.6933 48.9333 57.216 48.2506 57.6C47.5786 57.9733 46.816 58.16 45.9626 58.16ZM45.9626 56.176C46.3786 56.176 46.752 56.0747 47.0826 55.872C47.4133 55.6587 47.6693 55.3707 47.8506 55.008C48.0426 54.6347 48.1333 54.2187 48.1226 53.76C48.1333 53.2907 48.0426 52.8747 47.8506 52.512C47.6693 52.1387 47.4133 51.8507 47.0826 51.648C46.752 51.4347 46.3786 51.328 45.9626 51.328C45.536 51.328 45.1573 51.4347 44.8266 51.648C44.496 51.8613 44.2346 52.1493 44.0426 52.512C43.8506 52.8747 43.76 53.2907 43.7706 53.76C43.76 54.2187 43.8506 54.6347 44.0426 55.008C44.2346 55.3707 44.496 55.6587 44.8266 55.872C45.1573 56.0747 45.536 56.176 45.9626 56.176ZM53.0231 61.68L54.8791 57.328L54.9111 58.64L50.7831 49.536H53.3591L55.4231 54.416C55.5085 54.5973 55.5885 54.8107 55.6631 55.056C55.7485 55.2907 55.8178 55.5147 55.8711 55.728L55.4871 55.904C55.5618 55.7227 55.6365 55.5147 55.7111 55.28C55.7965 55.0453 55.8818 54.7947 55.9671 54.528L57.7431 49.536H60.3351L56.7831 58L55.3271 61.68H53.0231ZM69.3761 58.16C68.7575 58.16 68.2241 58.0267 67.7761 57.76C67.3388 57.4827 66.9975 57.0933 66.7521 56.592C66.5175 56.08 66.4001 55.4667 66.4001 54.752V49.536H68.6721V54.384C68.6721 54.768 68.7361 55.104 68.8641 55.392C68.9921 55.6693 69.1735 55.8827 69.4081 56.032C69.6428 56.1813 69.9308 56.256 70.2721 56.256C70.5175 56.256 70.7415 56.2187 70.9441 56.144C71.1575 56.0587 71.3388 55.9413 71.4881 55.792C71.6481 55.6427 71.7708 55.4667 71.8561 55.264C71.9415 55.0613 71.9841 54.8427 71.9841 54.608V49.536H74.2561V58H72.0961L72.0161 56.256L72.4321 56.064C72.3041 56.4587 72.0908 56.816 71.7921 57.136C71.4935 57.456 71.1361 57.7067 70.7201 57.888C70.3041 58.0693 69.8561 58.16 69.3761 58.16ZM76.5423 61.52V49.536H78.7343L78.7983 51.44L78.3823 51.296C78.4569 50.9547 78.6383 50.64 78.9263 50.352C79.2249 50.064 79.5929 49.8293 80.0303 49.648C80.4676 49.4667 80.9263 49.376 81.4063 49.376C82.1423 49.376 82.7983 49.568 83.3743 49.952C83.9503 50.3253 84.4036 50.8427 84.7343 51.504C85.0649 52.1547 85.2303 52.9067 85.2303 53.76C85.2303 54.6027 85.0649 55.3547 84.7343 56.016C84.4036 56.6773 83.9503 57.2 83.3743 57.584C82.7983 57.9573 82.1423 58.144 81.4063 58.144C80.9156 58.144 80.4463 58.0533 79.9983 57.872C79.5609 57.68 79.1876 57.4293 78.8783 57.12C78.5796 56.8107 78.3876 56.48 78.3023 56.128L78.8303 55.904V61.52H76.5423ZM80.8943 56.192C81.3103 56.192 81.6783 56.0907 81.9983 55.888C82.3183 55.6853 82.5689 55.4027 82.7503 55.04C82.9316 54.6667 83.0223 54.24 83.0223 53.76C83.0223 53.28 82.9316 52.8587 82.7503 52.496C82.5689 52.1333 82.3183 51.8507 81.9983 51.648C81.6889 51.4453 81.3209 51.344 80.8943 51.344C80.4676 51.344 80.0943 51.4453 79.7743 51.648C79.4543 51.84 79.2036 52.1227 79.0223 52.496C78.8409 52.8587 78.7503 53.28 78.7503 53.76C78.7503 54.24 78.8409 54.6667 79.0223 55.04C79.2036 55.4027 79.4543 55.6853 79.7743 55.888C80.0943 56.0907 80.4676 56.192 80.8943 56.192ZM92.6708 58V47.392H94.9427V58H92.6708ZM91.0868 51.568V49.536H96.6868V51.568H91.0868ZM102.01 58.16C101.146 58.16 100.372 57.9733 99.6895 57.6C99.0175 57.216 98.4842 56.6933 98.0895 56.032C97.7055 55.3707 97.5135 54.6133 97.5135 53.76C97.5135 52.9067 97.7055 52.1493 98.0895 51.488C98.4842 50.8267 99.0175 50.3093 99.6895 49.936C100.372 49.552 101.146 49.36 102.01 49.36C102.863 49.36 103.626 49.552 104.298 49.936C104.98 50.3093 105.514 50.8267 105.898 51.488C106.282 52.1493 106.474 52.9067 106.474 53.76C106.474 54.6133 106.282 55.3707 105.898 56.032C105.514 56.6933 104.98 57.216 104.298 57.6C103.626 57.9733 102.863 58.16 102.01 58.16ZM102.01 56.176C102.426 56.176 102.799 56.0747 103.13 55.872C103.46 55.6587 103.716 55.3707 103.898 55.008C104.09 54.6347 104.18 54.2187 104.17 53.76C104.18 53.2907 104.09 52.8747 103.898 52.512C103.716 52.1387 103.46 51.8507 103.13 51.648C102.799 51.4347 102.426 51.328 102.01 51.328C101.583 51.328 101.204 51.4347 100.874 51.648C100.543 51.8613 100.282 52.1493 100.09 52.512C99.8975 52.8747 99.8068 53.2907 99.8175 53.76C99.8068 54.2187 99.8975 54.6347 100.09 55.008C100.282 55.3707 100.543 55.6587 100.874 55.872C101.204 56.0747 101.583 56.176 102.01 56.176ZM21.6 82V72.944L22.72 73.008L18.784 77.824L18.512 77.44H25.776V79.456H17.344L16.352 77.568L22 70.736H23.92V82H21.6ZM31.591 82.16C30.631 82.16 29.8097 81.9307 29.127 81.472C28.455 81.0133 27.9377 80.3573 27.575 79.504C27.223 78.64 27.047 77.6053 27.047 76.4C27.047 75.1947 27.223 74.1653 27.575 73.312C27.9377 72.448 28.455 71.7867 29.127 71.328C29.8097 70.8693 30.631 70.64 31.591 70.64C32.551 70.64 33.3723 70.8693 34.055 71.328C34.7377 71.7867 35.255 72.448 35.607 73.312C35.9697 74.1653 36.151 75.1947 36.151 76.4C36.151 77.6053 35.9697 78.64 35.607 79.504C35.255 80.3573 34.7377 81.0133 34.055 81.472C33.3723 81.9307 32.551 82.16 31.591 82.16ZM31.591 80.096C32.3163 80.096 32.871 79.776 33.255 79.136C33.6497 78.496 33.847 77.584 33.847 76.4C33.847 75.1947 33.6497 74.2667 33.255 73.616C32.871 72.9653 32.3163 72.64 31.591 72.64C30.8657 72.64 30.3057 72.9653 29.911 73.616C29.527 74.2667 29.335 75.1947 29.335 76.4C29.335 77.584 29.527 78.496 29.911 79.136C30.3057 79.776 30.8657 80.096 31.591 80.096ZM39.3401 82L46.7481 70.8H48.9081L41.4201 82H39.3401ZM40.1721 76.736C39.6495 76.736 39.1801 76.6027 38.7641 76.336C38.3588 76.0693 38.0388 75.7067 37.8041 75.248C37.5801 74.7787 37.4681 74.2453 37.4681 73.648C37.4681 73.0507 37.5801 72.5173 37.8041 72.048C38.0388 71.568 38.3588 71.2 38.7641 70.944C39.1801 70.6773 39.6495 70.544 40.1721 70.544C40.7055 70.544 41.1695 70.6773 41.5641 70.944C41.9695 71.2 42.2841 71.568 42.5081 72.048C42.7428 72.5173 42.8601 73.0507 42.8601 73.648C42.8601 74.2347 42.7428 74.7627 42.5081 75.232C42.2735 75.6907 41.9535 76.0587 41.5481 76.336C41.1428 76.6027 40.6841 76.736 40.1721 76.736ZM40.1721 75.232C40.3641 75.232 40.5295 75.168 40.6681 75.04C40.8068 74.912 40.9135 74.7307 40.9881 74.496C41.0628 74.2507 41.1001 73.968 41.1001 73.648C41.1001 73.328 41.0628 73.0453 40.9881 72.8C40.9135 72.5547 40.8068 72.368 40.6681 72.24C40.5295 72.112 40.3641 72.048 40.1721 72.048C39.9801 72.048 39.8095 72.1173 39.6601 72.256C39.5215 72.384 39.4148 72.5707 39.3401 72.816C39.2655 73.0507 39.2281 73.328 39.2281 73.648C39.2281 73.968 39.2655 74.2507 39.3401 74.496C39.4148 74.7307 39.5215 74.912 39.6601 75.04C39.8095 75.168 39.9801 75.232 40.1721 75.232ZM48.2361 82.144C47.7135 82.144 47.2441 82.0107 46.8281 81.744C46.4228 81.4773 46.1028 81.1147 45.8681 80.656C45.6335 80.1867 45.5161 79.6533 45.5161 79.056C45.5161 78.4587 45.6281 77.9253 45.8521 77.456C46.0868 76.9867 46.4068 76.6187 46.8121 76.352C47.2281 76.0853 47.7028 75.952 48.2361 75.952C48.7588 75.952 49.2228 76.0853 49.6281 76.352C50.0335 76.6187 50.3481 76.9867 50.5721 77.456C50.7961 77.9253 50.9081 78.4587 50.9081 79.056C50.9081 79.6427 50.7908 80.1707 50.5561 80.64C50.3321 81.1093 50.0175 81.4773 49.6121 81.744C49.2068 82.0107 48.7481 82.144 48.2361 82.144ZM48.2361 80.656C48.4281 80.656 48.5935 80.592 48.7321 80.464C48.8708 80.3253 48.9775 80.1387 49.0521 79.904C49.1268 79.6693 49.1641 79.3867 49.1641 79.056C49.1641 78.736 49.1268 78.4587 49.0521 78.224C48.9775 77.9787 48.8708 77.792 48.7321 77.664C48.5935 77.5253 48.4281 77.456 48.2361 77.456C48.0335 77.456 47.8628 77.5253 47.7241 77.664C47.5855 77.792 47.4735 77.9787 47.3881 78.224C47.3135 78.4587 47.2761 78.736 47.2761 79.056C47.2761 79.3867 47.3135 79.6693 47.3881 79.904C47.4628 80.1387 47.5695 80.3253 47.7081 80.464C47.8575 80.592 48.0335 80.656 48.2361 80.656ZM57.6985 85.52V73.536H59.8905L59.9545 75.44L59.5385 75.296C59.6132 74.9547 59.7945 74.64 60.0825 74.352C60.3812 74.064 60.7492 73.8293 61.1865 73.648C61.6238 73.4667 62.0825 73.376 62.5625 73.376C63.2985 73.376 63.9545 73.568 64.5305 73.952C65.1065 74.3253 65.5598 74.8427 65.8905 75.504C66.2212 76.1547 66.3865 76.9067 66.3865 77.76C66.3865 78.6027 66.2212 79.3547 65.8905 80.016C65.5598 80.6773 65.1065 81.2 64.5305 81.584C63.9545 81.9573 63.2985 82.144 62.5625 82.144C62.0718 82.144 61.6025 82.0533 61.1545 81.872C60.7172 81.68 60.3438 81.4293 60.0345 81.12C59.7358 80.8107 59.5438 80.48 59.4585 80.128L59.9865 79.904V85.52H57.6985ZM62.0505 80.192C62.4665 80.192 62.8345 80.0907 63.1545 79.888C63.4745 79.6853 63.7252 79.4027 63.9065 79.04C64.0878 78.6667 64.1785 78.24 64.1785 77.76C64.1785 77.28 64.0878 76.8587 63.9065 76.496C63.7252 76.1333 63.4745 75.8507 63.1545 75.648C62.8452 75.4453 62.4772 75.344 62.0505 75.344C61.6238 75.344 61.2505 75.4453 60.9305 75.648C60.6105 75.84 60.3598 76.1227 60.1785 76.496C59.9972 76.8587 59.9065 77.28 59.9065 77.76C59.9065 78.24 59.9972 78.6667 60.1785 79.04C60.3598 79.4027 60.6105 79.6853 60.9305 79.888C61.2505 80.0907 61.6238 80.192 62.0505 80.192ZM68.1048 82V73.536H70.2968L70.3768 76.256L69.9928 75.696C70.1208 75.2587 70.3288 74.864 70.6168 74.512C70.9048 74.1493 71.2408 73.8667 71.6248 73.664C72.0194 73.4613 72.4301 73.36 72.8568 73.36C73.0381 73.36 73.2141 73.376 73.3848 73.408C73.5554 73.44 73.6994 73.4773 73.8168 73.52L73.2088 76.016C73.0914 75.952 72.9368 75.8987 72.7448 75.856C72.5634 75.8027 72.3768 75.776 72.1848 75.776C71.9288 75.776 71.6888 75.824 71.4648 75.92C71.2514 76.0053 71.0648 76.1333 70.9048 76.304C70.7448 76.464 70.6168 76.656 70.5208 76.88C70.4354 77.104 70.3928 77.3493 70.3928 77.616V82H68.1048ZM78.697 82.16C77.833 82.16 77.0597 81.9733 76.377 81.6C75.705 81.216 75.1717 80.6933 74.777 80.032C74.393 79.3707 74.201 78.6133 74.201 77.76C74.201 76.9067 74.393 76.1493 74.777 75.488C75.1717 74.8267 75.705 74.3093 76.377 73.936C77.0597 73.552 77.833 73.36 78.697 73.36C79.5503 73.36 80.313 73.552 80.985 73.936C81.6677 74.3093 82.201 74.8267 82.585 75.488C82.969 76.1493 83.161 76.9067 83.161 77.76C83.161 78.6133 82.969 79.3707 82.585 80.032C82.201 80.6933 81.6677 81.216 80.985 81.6C80.313 81.9733 79.5503 82.16 78.697 82.16ZM78.697 80.176C79.113 80.176 79.4863 80.0747 79.817 79.872C80.1477 79.6587 80.4037 79.3707 80.585 79.008C80.777 78.6347 80.8677 78.2187 80.857 77.76C80.8677 77.2907 80.777 76.8747 80.585 76.512C80.4037 76.1387 80.1477 75.8507 79.817 75.648C79.4863 75.4347 79.113 75.328 78.697 75.328C78.2703 75.328 77.8917 75.4347 77.561 75.648C77.2303 75.8613 76.969 76.1493 76.777 76.512C76.585 76.8747 76.4943 77.2907 76.505 77.76C76.4943 78.2187 76.585 78.6347 76.777 79.008C76.969 79.3707 77.2303 79.6587 77.561 79.872C77.8917 80.0747 78.2703 80.176 78.697 80.176ZM85.2295 82V72.944C85.2295 72.4213 85.3468 71.9467 85.5815 71.52C85.8162 71.0933 86.1362 70.7573 86.5415 70.512C86.9575 70.2667 87.4428 70.144 87.9975 70.144C88.3708 70.144 88.7228 70.208 89.0535 70.336C89.3842 70.4533 89.6668 70.6133 89.9015 70.816L89.2295 72.496C89.0908 72.4107 88.9468 72.3413 88.7975 72.288C88.6588 72.224 88.5308 72.192 88.4135 72.192C88.2108 72.192 88.0402 72.2293 87.9015 72.304C87.7735 72.368 87.6775 72.4693 87.6135 72.608C87.5495 72.736 87.5175 72.9013 87.5175 73.104V82H86.3815C86.1362 82 85.9175 82 85.7255 82C85.5335 82 85.3682 82 85.2295 82ZM83.9655 75.664V73.744H89.3415V75.664H83.9655ZM91.0535 82V73.536H93.3255V82H91.0535ZM92.1735 71.808C91.7362 71.808 91.3948 71.7013 91.1495 71.488C90.9042 71.264 90.7815 70.9547 90.7815 70.56C90.7815 70.1973 90.9042 69.904 91.1495 69.68C91.4055 69.4453 91.7468 69.328 92.1735 69.328C92.6108 69.328 92.9522 69.44 93.1975 69.664C93.4428 69.8773 93.5655 70.176 93.5655 70.56C93.5655 70.9227 93.4375 71.2213 93.1815 71.456C92.9362 71.6907 92.6002 71.808 92.1735 71.808ZM96.577 82V71.392H98.849V82H96.577ZM94.993 75.568V73.536H100.593V75.568H94.993ZM109.812 82.16C109.023 82.16 108.319 82.032 107.7 81.776C107.092 81.5093 106.601 81.1467 106.228 80.688L107.652 79.472C107.972 79.824 108.335 80.08 108.74 80.24C109.145 80.3893 109.551 80.464 109.956 80.464C110.116 80.464 110.26 80.448 110.388 80.416C110.527 80.3733 110.644 80.32 110.74 80.256C110.836 80.1813 110.905 80.096 110.948 80C111.001 79.8933 111.028 79.7813 111.028 79.664C111.028 79.4293 110.932 79.248 110.74 79.12C110.633 79.056 110.468 78.9867 110.244 78.912C110.02 78.8267 109.732 78.736 109.38 78.64C108.836 78.5013 108.372 78.3413 107.988 78.16C107.615 77.968 107.316 77.7547 107.092 77.52C106.9 77.296 106.751 77.056 106.644 76.8C106.548 76.5333 106.5 76.24 106.5 75.92C106.5 75.536 106.585 75.1893 106.756 74.88C106.927 74.56 107.161 74.288 107.46 74.064C107.769 73.84 108.121 73.6693 108.516 73.552C108.911 73.424 109.327 73.36 109.764 73.36C110.201 73.36 110.628 73.4133 111.044 73.52C111.46 73.6267 111.844 73.7813 112.196 73.984C112.559 74.176 112.873 74.4053 113.14 74.672L111.924 76.016C111.732 75.8347 111.513 75.6693 111.268 75.52C111.033 75.3707 110.788 75.2533 110.532 75.168C110.276 75.0827 110.047 75.04 109.844 75.04C109.663 75.04 109.497 75.056 109.348 75.088C109.209 75.12 109.092 75.1733 108.996 75.248C108.9 75.312 108.825 75.392 108.772 75.488C108.729 75.584 108.708 75.6907 108.708 75.808C108.708 75.9253 108.735 76.0373 108.788 76.144C108.852 76.2507 108.937 76.3413 109.044 76.416C109.161 76.48 109.332 76.5547 109.556 76.64C109.791 76.7253 110.105 76.8213 110.5 76.928C111.012 77.0667 111.444 77.2213 111.796 77.392C112.159 77.5627 112.447 77.76 112.66 77.984C112.841 78.176 112.975 78.3947 113.06 78.64C113.145 78.8853 113.188 79.1573 113.188 79.456C113.188 79.9787 113.039 80.4427 112.74 80.848C112.452 81.2533 112.052 81.5733 111.54 81.808C111.028 82.0427 110.452 82.16 109.812 82.16ZM114.808 82V70.16H117.048V75.264L116.6 75.456C116.717 75.072 116.925 74.7253 117.224 74.416C117.533 74.096 117.901 73.84 118.328 73.648C118.755 73.456 119.203 73.36 119.672 73.36C120.312 73.36 120.845 73.488 121.272 73.744C121.709 74 122.035 74.3893 122.248 74.912C122.472 75.424 122.584 76.0587 122.584 76.816V82H120.312V76.992C120.312 76.608 120.259 76.288 120.152 76.032C120.045 75.776 119.88 75.5893 119.656 75.472C119.443 75.3547 119.176 75.3013 118.856 75.312C118.6 75.312 118.36 75.3547 118.136 75.44C117.923 75.5147 117.736 75.6267 117.576 75.776C117.427 75.9253 117.304 76.096 117.208 76.288C117.123 76.48 117.08 76.688 117.08 76.912V82H115.96C115.715 82 115.496 82 115.304 82C115.112 82 114.947 82 114.808 82ZM127.929 82.16C127.225 82.16 126.59 81.968 126.025 81.584C125.46 81.2 125.012 80.6773 124.681 80.016C124.35 79.3547 124.185 78.5973 124.185 77.744C124.185 76.8907 124.35 76.1333 124.681 75.472C125.022 74.8107 125.481 74.2933 126.057 73.92C126.633 73.5467 127.289 73.36 128.025 73.36C128.441 73.36 128.82 73.424 129.161 73.552C129.513 73.6693 129.817 73.8347 130.073 74.048C130.34 74.2613 130.564 74.5067 130.745 74.784C130.926 75.0613 131.054 75.36 131.129 75.68L130.649 75.6V73.536H132.905V82H130.617V79.968L131.129 79.92C131.044 80.2187 130.905 80.5013 130.713 80.768C130.521 81.0347 130.281 81.2747 129.993 81.488C129.716 81.6907 129.401 81.856 129.049 81.984C128.697 82.1013 128.324 82.16 127.929 82.16ZM128.553 80.192C128.98 80.192 129.353 80.0907 129.673 79.888C129.993 79.6853 130.238 79.4027 130.409 79.04C130.59 78.6667 130.681 78.2347 130.681 77.744C130.681 77.264 130.59 76.8427 130.409 76.48C130.238 76.1173 129.993 75.8347 129.673 75.632C129.353 75.4187 128.98 75.312 128.553 75.312C128.137 75.312 127.769 75.4187 127.449 75.632C127.14 75.8347 126.894 76.1173 126.713 76.48C126.532 76.8427 126.441 77.264 126.441 77.744C126.441 78.2347 126.532 78.6667 126.713 79.04C126.894 79.4027 127.14 79.6853 127.449 79.888C127.769 80.0907 128.137 80.192 128.553 80.192ZM135.183 82V73.536H137.375L137.455 76.256L137.071 75.696C137.199 75.2587 137.407 74.864 137.695 74.512C137.983 74.1493 138.319 73.8667 138.703 73.664C139.098 73.4613 139.508 73.36 139.935 73.36C140.116 73.36 140.292 73.376 140.463 73.408C140.634 73.44 140.778 73.4773 140.895 73.52L140.287 76.016C140.17 75.952 140.015 75.8987 139.823 75.856C139.642 75.8027 139.455 75.776 139.263 75.776C139.007 75.776 138.767 75.824 138.543 75.92C138.33 76.0053 138.143 76.1333 137.983 76.304C137.823 76.464 137.695 76.656 137.599 76.88C137.514 77.104 137.471 77.3493 137.471 77.616V82H135.183ZM142.391 82V73.536H144.663V82H142.391ZM143.511 71.808C143.073 71.808 142.732 71.7013 142.487 71.488C142.241 71.264 142.118 70.9547 142.118 70.56C142.118 70.1973 142.241 69.904 142.487 69.68C142.743 69.4453 143.084 69.328 143.511 69.328C143.948 69.328 144.289 69.44 144.535 69.664C144.78 69.8773 144.903 70.176 144.903 70.56C144.903 70.9227 144.775 71.2213 144.519 71.456C144.273 71.6907 143.937 71.808 143.511 71.808ZM147.089 82V73.536H149.265L149.329 75.264L148.881 75.456C148.998 75.072 149.206 74.7253 149.505 74.416C149.814 74.096 150.182 73.84 150.609 73.648C151.036 73.456 151.484 73.36 151.953 73.36C152.593 73.36 153.126 73.488 153.553 73.744C153.99 74 154.316 74.3893 154.529 74.912C154.753 75.424 154.865 76.0587 154.865 76.816V82H152.593V76.992C152.593 76.608 152.54 76.288 152.433 76.032C152.326 75.776 152.161 75.5893 151.937 75.472C151.724 75.3547 151.457 75.3013 151.137 75.312C150.881 75.312 150.641 75.3547 150.417 75.44C150.204 75.5147 150.017 75.6267 149.857 75.776C149.708 75.9253 149.585 76.096 149.489 76.288C149.404 76.48 149.361 76.688 149.361 76.912V82H148.241C147.996 82 147.777 82 147.585 82C147.393 82 147.228 82 147.089 82ZM160.898 85.68C160.226 85.68 159.565 85.5787 158.914 85.376C158.264 85.184 157.73 84.928 157.314 84.608L158.13 82.992C158.344 83.1413 158.589 83.2747 158.866 83.392C159.144 83.5093 159.432 83.6 159.73 83.664C160.04 83.728 160.354 83.76 160.674 83.76C161.229 83.76 161.682 83.6747 162.034 83.504C162.397 83.3333 162.669 83.0773 162.85 82.736C163.032 82.3947 163.122 81.968 163.122 81.456V79.984L163.506 80.064C163.442 80.416 163.261 80.7413 162.962 81.04C162.674 81.328 162.312 81.5627 161.874 81.744C161.448 81.9147 161 82 160.53 82C159.752 82 159.058 81.8187 158.45 81.456C157.842 81.0933 157.362 80.592 157.01 79.952C156.658 79.312 156.482 78.5707 156.482 77.728C156.482 76.8853 156.653 76.1387 156.994 75.488C157.346 74.8267 157.821 74.3093 158.418 73.936C159.026 73.552 159.714 73.36 160.482 73.36C160.802 73.36 161.106 73.3973 161.394 73.472C161.693 73.5467 161.965 73.6533 162.21 73.792C162.466 73.92 162.69 74.0693 162.882 74.24C163.085 74.4 163.25 74.576 163.378 74.768C163.506 74.96 163.586 75.152 163.618 75.344L163.154 75.472L163.218 73.536H165.394V81.36C165.394 82.0533 165.293 82.6667 165.09 83.2C164.888 83.7333 164.589 84.1813 164.194 84.544C163.81 84.9173 163.336 85.2 162.77 85.392C162.216 85.584 161.592 85.68 160.898 85.68ZM160.962 80.176C161.41 80.176 161.8 80.0747 162.13 79.872C162.472 79.6693 162.733 79.3867 162.914 79.024C163.096 78.6613 163.186 78.2347 163.186 77.744C163.186 77.264 163.096 76.8427 162.914 76.48C162.733 76.1067 162.472 75.8187 162.13 75.616C161.8 75.4133 161.41 75.312 160.962 75.312C160.525 75.312 160.141 75.4187 159.81 75.632C159.48 75.8347 159.218 76.1227 159.026 76.496C158.845 76.8587 158.754 77.2747 158.754 77.744C158.754 78.224 158.845 78.6507 159.026 79.024C159.218 79.3867 159.48 79.6693 159.81 79.872C160.141 80.0747 160.525 80.176 160.962 80.176Z" fill="white"/>
<path d="M320.11 71.5137C316.006 67.4248 310.336 64.895 304.074 64.895C291.55 64.895 281.397 75.0124 281.397 87.4928V113.326C281.397 125.807 291.55 135.925 304.074 135.925C316.599 135.925 326.752 125.807 326.752 113.326V87.4928C326.752 81.2528 324.213 75.6024 320.11 71.5137ZM310.138 114.171C310.138 117.508 307.424 120.214 304.074 120.214C300.725 120.214 298.011 117.508 298.011 114.171V86.6489C298.011 83.3113 300.725 80.606 304.074 80.606C305.749 80.606 307.264 81.2817 308.362 82.3758C309.46 83.4699 310.138 84.98 310.138 86.6489V114.171Z" fill="url(#paint0_linear_6165_628)" stroke="url(#paint1_linear_6165_628)" stroke-width="1.06354" stroke-linejoin="round"/>
<path d="M310.671 86.6485V88.3767C310.671 86.5612 309.933 84.9173 308.739 83.7275C307.545 82.5378 305.896 81.802 304.074 81.802C300.43 81.802 297.477 84.7456 297.477 88.3767V86.6485C297.477 83.0172 300.43 80.0737 304.074 80.0737C305.896 80.0737 307.545 80.8095 308.739 81.9993C309.933 83.1891 310.671 84.8328 310.671 86.6485Z" fill="#07828B"/>
<path d="M311.741 114.714V116.401C311.741 120.62 308.309 124.041 304.074 124.041C299.84 124.041 296.408 120.62 296.408 116.401V114.714C296.408 118.934 299.84 122.354 304.074 122.354C308.309 122.354 311.741 118.934 311.741 114.714Z" fill="#08ACB8"/>
<path d="M324.565 87.8094V89.7199C324.565 84.0811 322.271 78.976 318.564 75.2811C314.855 71.5857 309.732 69.3001 304.074 69.3001C292.756 69.3001 283.582 78.4423 283.582 89.7199V87.8094C283.582 76.5322 292.756 67.3896 304.074 67.3896C309.732 67.3896 314.855 69.6753 318.564 73.3707C322.271 77.0661 324.565 82.1706 324.565 87.8094Z" fill="#07828B" stroke="#07828B" stroke-width="0.0196425" stroke-miterlimit="10" stroke-linecap="round" stroke-linejoin="round"/>
<path d="M324.565 112.57V110.659C324.565 116.298 322.271 121.403 318.564 125.098C314.855 128.793 309.732 131.079 304.074 131.079C292.756 131.079 283.582 121.937 283.582 110.659V112.57C283.582 123.847 292.756 132.99 304.074 132.99C309.732 132.99 314.855 130.704 318.564 127.009C322.271 123.313 324.565 118.208 324.565 112.57Z" fill="#099CA7" stroke="#07828B" stroke-width="0.0196425" stroke-miterlimit="10" stroke-linecap="round" stroke-linejoin="round"/>
<path d="M304.144 138.115H304.004C290.783 138.115 280.067 127.436 280.067 114.262V86.5574C280.067 76.2424 286.637 67.4566 295.834 64.1294" stroke="#07828B" stroke-opacity="0.2" stroke-width="0.304238" stroke-miterlimit="10" stroke-linecap="round" stroke-linejoin="round"/>
<path d="M328.082 86.5571V114.261" stroke="#07828B" stroke-width="0.247942" stroke-miterlimit="10" stroke-linecap="round" stroke-linejoin="round"/>
<path d="M330.2 115.776C330.2 129.559 318.987 140.733 305.156 140.733H302.993C289.162 140.733 277.949 129.559 277.949 115.776" stroke="#07828B" stroke-opacity="0.2" stroke-width="0.286024" stroke-miterlimit="10" stroke-linecap="round" stroke-linejoin="round"/>
<path d="M277.949 91.2515V85.8415C277.949 72.0587 289.162 60.8853 302.993 60.8853H305.156C312.374 60.8853 318.878 63.9279 323.449 68.7965" stroke="#07828B" stroke-width="0.148765" stroke-miterlimit="10" stroke-linecap="round" stroke-linejoin="round"/>
<path d="M277.949 91.2515V85.8415C277.949 72.0587 289.162 60.8853 302.993 60.8853H305.156C312.374 60.8853 318.878 63.9279 323.449 68.7965" stroke="#07828B" stroke-opacity="0.2" stroke-width="0.148765" stroke-miterlimit="10" stroke-linecap="round" stroke-linejoin="round"/>
<g filter="url(#filter0_f_6165_628)">
<path d="M302.988 148C286.761 148 273.607 134.892 273.607 118.721V82.0984C273.607 74.7751 276.305 68.0796 280.765 62.9453" stroke="white" stroke-opacity="0.1" stroke-width="0.148765" stroke-miterlimit="10" stroke-linecap="round" stroke-linejoin="round"/>
</g>
<g filter="url(#filter1_f_6165_628)">
<path d="M321.852 58C329.518 63.2835 334.541 72.1066 334.541 82.0983V106.013" stroke="white" stroke-opacity="0.1" stroke-width="0.148765" stroke-miterlimit="10" stroke-linecap="round" stroke-linejoin="round"/>
</g>
<path d="M273.6 92.1678V110.005H283.926V122.939H273.6V138.481H258.788V122.939H226.034V112.613L252.32 62.0222H268.175L243.037 110.005H258.788V92.1678H273.6Z" fill="url(#paint2_linear_6165_628)"/>
<path d="M273.6 92.1678H274.131C274.131 91.8741 273.893 91.636 273.6 91.636V92.1678ZM273.6 110.005H273.068C273.068 110.298 273.306 110.537 273.6 110.537V110.005ZM283.926 110.005H284.458C284.458 109.711 284.22 109.473 283.926 109.473V110.005ZM283.926 122.939V123.471C284.22 123.471 284.458 123.233 284.458 122.939H283.926ZM273.6 122.939V122.407C273.306 122.407 273.068 122.646 273.068 122.939H273.6ZM273.6 138.481V139.013C273.893 139.013 274.131 138.775 274.131 138.481H273.6ZM258.788 138.481H258.256C258.256 138.775 258.494 139.013 258.788 139.013V138.481ZM258.788 122.939H259.319C259.319 122.646 259.081 122.407 258.788 122.407V122.939ZM226.034 122.939H225.502C225.502 123.233 225.74 123.471 226.034 123.471V122.939ZM226.034 112.613L225.562 112.367C225.523 112.443 225.502 112.527 225.502 112.613H226.034ZM252.32 62.0222V61.4904C252.122 61.4904 251.94 61.6009 251.848 61.777L252.32 62.0222ZM268.175 62.0222L268.646 62.269C268.733 62.1041 268.727 61.9061 268.63 61.7469C268.534 61.5877 268.362 61.4904 268.175 61.4904V62.0222ZM243.037 110.005L242.566 109.758C242.479 109.923 242.485 110.121 242.582 110.28C242.678 110.439 242.851 110.537 243.037 110.537V110.005ZM258.788 110.005V110.537C259.081 110.537 259.319 110.298 259.319 110.005H258.788ZM258.788 92.1678V91.636C258.494 91.636 258.256 91.8741 258.256 92.1678H258.788ZM273.6 92.1678H273.068V110.005H273.6H274.131V92.1678H273.6ZM273.6 110.005V110.537H283.926V110.005V109.473H273.6V110.005ZM283.926 110.005H283.394V122.939H283.926H284.458V110.005H283.926ZM283.926 122.939V122.407H273.6V122.939V123.471H283.926V122.939ZM273.6 122.939H273.068V138.481H273.6H274.131V122.939H273.6ZM273.6 138.481V137.95H258.788V138.481V139.013H273.6V138.481ZM258.788 138.481H259.319V122.939H258.788H258.256V138.481H258.788ZM258.788 122.939V122.407H226.034V122.939V123.471H258.788V122.939ZM226.034 122.939H226.566V112.613H226.034H225.502V122.939H226.034ZM226.034 112.613L226.506 112.858L252.792 62.2674L252.32 62.0222L251.848 61.777L225.562 112.367L226.034 112.613ZM252.32 62.0222V62.5539H268.175V62.0222V61.4904H252.32V62.0222ZM268.175 62.0222L267.704 61.7754L242.566 109.758L243.037 110.005L243.508 110.252L268.646 62.269L268.175 62.0222ZM243.037 110.005V110.537H258.788V110.005V109.473H243.037V110.005ZM258.788 110.005H259.319V92.1678H258.788H258.256V110.005H258.788ZM258.788 92.1678V92.6996H273.6V92.1678V91.636H258.788V92.1678Z" fill="url(#paint3_linear_6165_628)"/>
<path d="M256.883 126.231H223.133V109.682L248.258 62.1064" stroke="#07828B" stroke-opacity="0.2" stroke-width="0.286024" stroke-miterlimit="10" stroke-linecap="round" stroke-linejoin="round"/>
<path d="M333.479 122.772C333.479 122.773 333.478 122.774 333.477 122.775C333.476 122.777 333.475 122.778 333.475 122.78C332.864 123.827 332.038 124.624 330.993 125.182C329.937 125.744 328.797 126.026 327.563 126.026C326.33 126.026 325.19 125.745 324.136 125.183C323.115 124.625 322.286 123.826 321.647 122.772C321.017 121.734 320.695 120.529 320.695 119.142C320.695 117.755 321.017 116.551 321.647 115.512C322.285 114.461 323.125 113.661 324.173 113.103C324.176 113.101 324.179 113.099 324.181 113.098C325.237 112.511 326.361 112.219 327.563 112.219C328.793 112.219 329.93 112.512 330.984 113.098C330.987 113.099 330.99 113.101 330.993 113.103C332.038 113.66 332.864 114.457 333.475 115.504C333.476 115.507 333.478 115.51 333.479 115.512C334.11 116.551 334.432 117.755 334.432 119.142C334.432 120.529 334.11 121.734 333.479 122.772ZM325.503 116.855L325.502 116.856C324.973 117.449 324.734 118.217 324.734 119.103C324.734 119.99 324.973 120.764 325.492 121.378C325.499 121.386 325.506 121.393 325.512 121.401C326.063 121.981 326.758 122.277 327.563 122.277C328.388 122.277 329.098 121.986 329.653 121.401C329.656 121.397 329.66 121.394 329.663 121.39C330.214 120.776 330.472 119.998 330.472 119.103C330.472 118.211 330.216 117.441 329.658 116.849C329.107 116.238 328.395 115.928 327.563 115.928C326.748 115.928 326.05 116.245 325.503 116.855ZM352.915 137.84C352.913 137.843 352.912 137.845 352.91 137.848C352.299 138.895 351.474 139.692 350.428 140.25C349.373 140.812 348.233 141.094 346.999 141.094C345.765 141.094 344.624 140.812 343.569 140.25C342.521 139.691 341.681 138.892 341.043 137.84C340.413 136.801 340.09 135.597 340.09 134.21C340.09 132.795 340.413 131.578 341.043 130.541C341.681 129.489 342.521 128.689 343.569 128.131C344.624 127.569 345.765 127.287 346.999 127.287C348.233 127.287 349.373 127.569 350.428 128.131C351.474 128.688 352.299 129.486 352.91 130.533C352.912 130.536 352.913 130.538 352.915 130.541C353.544 131.578 353.867 132.795 353.867 134.21C353.867 135.597 353.545 136.801 352.915 137.84ZM344.939 136.458C344.942 136.462 344.945 136.465 344.948 136.469C345.499 137.049 346.194 137.345 346.999 137.345C347.823 137.345 348.534 137.054 349.089 136.469C349.092 136.465 349.095 136.462 349.098 136.458C349.65 135.844 349.907 135.066 349.907 134.171C349.907 133.279 349.651 132.509 349.094 131.917C348.542 131.306 347.831 130.996 346.999 130.996C346.186 130.996 345.49 131.311 344.943 131.917C344.385 132.509 344.13 133.279 344.13 134.171C344.13 135.066 344.387 135.844 344.939 136.458ZM326.326 140.581L342.987 112.771H348.236L331.575 140.581H326.326Z" fill="url(#paint4_linear_6165_628)" stroke="url(#paint5_linear_6165_628)" stroke-width="1.06354" stroke-linejoin="round"/>
<rect x="254.195" y="64.5801" width="1.30388" height="9.77907" transform="rotate(-90 254.195 64.5801)" fill="#07828B"/>
<defs>
<filter id="filter0_f_6165_628" x="273.036" y="62.3752" width="30.5223" height="86.1949" filterUnits="userSpaceOnUse" color-interpolation-filters="sRGB">
<feFlood flood-opacity="0" result="BackgroundImageFix"/>
<feBlend mode="normal" in="SourceGraphic" in2="BackgroundImageFix" result="shape"/>
<feGaussianBlur stdDeviation="0.247942" result="effect1_foregroundBlur_6165_628"/>
</filter>
<filter id="filter1_f_6165_628" x="321.281" y="57.4299" width="13.8304" height="49.1539" filterUnits="userSpaceOnUse" color-interpolation-filters="sRGB">
<feFlood flood-opacity="0" result="BackgroundImageFix"/>
<feBlend mode="normal" in="SourceGraphic" in2="BackgroundImageFix" result="shape"/>
<feGaussianBlur stdDeviation="0.247942" result="effect1_foregroundBlur_6165_628"/>
</filter>
<linearGradient id="paint0_linear_6165_628" x1="300.288" y1="53.0954" x2="280.044" y2="118.81" gradientUnits="userSpaceOnUse">
<stop stop-color="#FFFCF2"/>
<stop offset="1" stop-color="#07828B"/>
</linearGradient>
<linearGradient id="paint1_linear_6165_628" x1="304.074" y1="65.4268" x2="326.04" y2="115.834" gradientUnits="userSpaceOnUse">
<stop stop-color="#07828B"/>
<stop offset="0.38" stop-color="#5AB8DB"/>
<stop offset="0.59" stop-color="#07828B"/>
<stop offset="0.905" stop-color="#5AB8DB"/>
</linearGradient>
<linearGradient id="paint2_linear_6165_628" x1="248.423" y1="55.0528" x2="234.757" y2="119.857" gradientUnits="userSpaceOnUse">
<stop stop-color="#FFFCF2"/>
<stop offset="1" stop-color="#07828B"/>
</linearGradient>
<linearGradient id="paint3_linear_6165_628" x1="253.626" y1="66.6532" x2="269.082" y2="118.466" gradientUnits="userSpaceOnUse">
<stop stop-color="#07828B"/>
<stop offset="0.38" stop-color="#05A7B3"/>
<stop offset="0.59" stop-color="#5AB8DB"/>
<stop offset="0.905" stop-color="#07828B"/>
</linearGradient>
<linearGradient id="paint4_linear_6165_628" x1="339.358" y1="144.029" x2="328.41" y2="99.9905" gradientUnits="userSpaceOnUse">
<stop stop-color="#07828B"/>
<stop offset="1" stop-color="#FFFCF2"/>
</linearGradient>
<linearGradient id="paint5_linear_6165_628" x1="337.281" y1="141.094" x2="337.281" y2="112.219" gradientUnits="userSpaceOnUse">
<stop stop-color="#07828B"/>
<stop offset="1" stop-color="#5AB8DB"/>
</linearGradient>
</defs>
</svg>
