<svg width="426" height="233" viewBox="0 0 426 233" fill="none" xmlns="http://www.w3.org/2000/svg">
<rect width="426" height="233" rx="24" fill="#02272A"/>
<path d="M51.54 50.24C51.38 51.08 51.1867 51.9667 50.96 52.9C50.7333 53.94 50.4 54.6533 49.96 55.04C49.5333 55.44 49 55.64 48.36 55.64C47.7867 55.64 47.28 55.4467 46.84 55.06C46.4 54.6867 45.8733 54.02 45.26 53.06C45.1933 52.9667 45.1067 52.8133 45 52.6C43.9467 53.7067 42.78 54.7133 41.5 55.62L39.9 53.82C41.5533 52.66 42.92 51.4733 44 50.26C43.3333 48.2067 42.8333 45.5667 42.5 42.34H36.68V44.58H41.82C41.7667 46.3 41.6333 48.2733 41.42 50.5C41.3533 51.1533 41.2133 51.6733 41 52.06C40.8 52.4333 40.48 52.7067 40.04 52.88C39.6 53.0533 39.0067 53.14 38.26 53.14C37.9533 53.14 37.4933 53.1133 36.88 53.06L36.42 50.92C37.02 50.9867 37.56 51.02 38.04 51.02C38.4 51.02 38.6467 50.94 38.78 50.78C38.9267 50.62 39.0333 50.32 39.1 49.88C39.26 48.6667 39.3467 47.6133 39.36 46.72H36.68C36.64 48.64 36.4733 50.2667 36.18 51.6C35.8867 52.92 35.4 54.2733 34.72 55.66L32.36 54.56C32.8933 53.6133 33.2933 52.7533 33.56 51.98C33.84 51.2067 34.04 50.3333 34.16 49.36C34.28 48.3733 34.34 47.1133 34.34 45.58V40.06H42.3C42.2733 39.8067 42.2467 39.4133 42.22 38.88L42.08 37.22H44.5L44.7 40.06H47.52C46.76 39.2733 46.16 38.6867 45.72 38.3L47.3 36.74C47.8067 37.2067 48.6333 38.0133 49.78 39.16L48.86 40.06H50.98V42.34H44.9C45.1267 44.6067 45.42 46.48 45.78 47.96C46.6733 46.5333 47.4133 44.9267 48 43.14L50.12 44.02C49.2267 46.5667 48.0667 48.78 46.64 50.66C46.8933 51.2467 47.18 51.78 47.5 52.26C47.7 52.5533 47.8733 52.76 48.02 52.88C48.18 52.9867 48.3267 53.0267 48.46 53C48.58 53 48.6933 52.9133 48.8 52.74C48.9067 52.5533 49.0133 52.2267 49.12 51.76C49.1867 51.52 49.28 50.9933 49.4 50.18L49.5 49.54L51.54 50.24ZM70.24 41.46V42.06C70.24 43.9933 70.1933 45.88 70.1 47.72C70.0067 49.5467 69.8533 51.12 69.64 52.44C69.52 53.16 69.3333 53.72 69.08 54.12C68.8267 54.5333 68.46 54.8333 67.98 55.02C67.5133 55.2067 66.8733 55.3 66.06 55.3C64.8733 55.3 63.7533 55.2267 62.7 55.08L62.2 52.66C62.6933 52.7267 63.22 52.7867 63.78 52.84C64.3533 52.8933 64.9267 52.9267 65.5 52.94C65.9133 52.94 66.2267 52.9 66.44 52.82C66.6533 52.7267 66.82 52.5667 66.94 52.34C67.06 52.1133 67.1667 51.76 67.26 51.28C67.38 50.6 67.48 49.62 67.56 48.34C67.6533 47.0467 67.7 45.8733 67.7 44.82C67.7 44.38 67.6933 44.0667 67.68 43.88H62C61.7333 45.6267 61.3267 47.1667 60.78 48.5C60.2467 49.82 59.48 51.0667 58.48 52.24C57.4933 53.4133 56.1867 54.5933 54.56 55.78L52.82 53.82C54.2333 52.8467 55.3733 51.8733 56.24 50.9C57.12 49.9267 57.8 48.8867 58.28 47.78C58.7733 46.66 59.1467 45.36 59.4 43.88H53.58V41.46H57C56.64 41.0333 56.1933 40.5333 55.66 39.96C55.14 39.3867 54.74 38.9667 54.46 38.7L56.24 37.2C56.5733 37.5067 56.9933 37.9267 57.5 38.46C58.0067 38.9933 58.48 39.52 58.92 40.04L57.3 41.46H59.72C59.7867 40.74 59.8467 39.9533 59.9 39.1C59.9667 38.2333 60.0067 37.6133 60.02 37.24H62.54C62.54 38.0267 62.4467 39.4333 62.26 41.46H70.24ZM64.8 50.38C64.4667 49.8867 63.9933 49.2667 63.38 48.52C62.7667 47.7733 62.2667 47.2 61.88 46.8L63.66 45.28C64.0733 45.6933 64.5733 46.24 65.16 46.92C65.76 47.5867 66.26 48.2 66.66 48.76L64.8 50.38ZM82.92 36.88C83.8133 38.28 85 39.5667 86.48 40.74C87.9733 41.9133 89.6733 42.9133 91.58 43.74L90.34 46.12C89.0733 45.4933 87.9467 44.8533 86.96 44.2V45.3H76.94V44.24C75.86 44.96 74.72 45.6133 73.52 46.2L72.4 43.76C74.2533 42.9333 75.9533 41.9067 77.5 40.68C79.06 39.44 80.2467 38.1733 81.06 36.88H82.92ZM85.34 43.04C84.0067 42.0267 82.8933 40.96 82 39.84C81.1333 40.9067 80.0067 41.9733 78.62 43.04H85.34ZM77.6 55.58H75.08V47.1H88.82V55.58H86.36V54.64H77.6V55.58ZM86.36 52.4V49.32H77.6V52.4H86.36ZM110.44 39.98C110.413 44.2467 110.247 48.4867 109.94 52.7C109.887 53.38 109.767 53.9133 109.58 54.3C109.393 54.6867 109.1 54.9667 108.7 55.14C108.313 55.3133 107.76 55.4067 107.04 55.42C105.907 55.42 104.967 55.38 104.22 55.3L103.74 52.88C104.38 52.9733 105.173 53.0333 106.12 53.06C106.48 53.06 106.753 53.02 106.94 52.94C107.127 52.86 107.26 52.7267 107.34 52.54C107.42 52.34 107.48 52.0333 107.52 51.62C107.787 48.46 107.92 45.3933 107.92 42.42H103.74C103.3 43.3667 102.807 44.2933 102.26 45.2L100.18 44.04C101.487 41.9733 102.493 39.6333 103.2 37.02L105.5 37.62C105.327 38.2867 105.073 39.0733 104.74 39.98H110.44ZM93.24 45.46L92.72 43.2C92.9467 43.12 93.1133 43.0467 93.22 42.98C93.3267 42.9 93.42 42.8067 93.5 42.7C94.5667 41.2333 95.62 39.36 96.66 37.08L98.74 38.16C97.78 40.1333 96.8067 41.7933 95.82 43.14L97.76 42.76C98.2667 41.92 98.7 41.16 99.06 40.48L100.98 41.54C99.6867 43.82 98.3133 45.9333 96.86 47.88L100.22 47.1L100.26 49.32L98.74 49.62C96.9533 49.9933 95.6133 50.28 94.72 50.48L93.66 50.7L93.16 48.34C93.76 48.22 94.22 47.94 94.54 47.5C95.0067 46.8867 95.62 46.02 96.38 44.9C95.66 45.0333 95.12 45.1267 94.76 45.18L93.24 45.46ZM104.34 50.46C103.953 49.8333 103.5 49.1333 102.98 48.36C102.473 47.5733 102.027 46.9267 101.64 46.42L103.48 45.14C104.4 46.3267 105.333 47.6667 106.28 49.16L104.34 50.46ZM92.88 52.82C95.0133 52.4067 97.6133 51.8333 100.68 51.1L100.86 53.56C97.94 54.24 95.42 54.7733 93.3 55.16L92.88 52.82ZM127.72 37.3V39.18H130.78V41.32H127.72V42.88H125.48V41.32H123.1V42.88H120.88V41.32H118.48V42.88H116.28V41.32H113.2V39.18H116.28V37.3H118.48V39.18H120.88V37.3H123.1V39.18H125.48V37.3H127.72ZM115.76 47.36H113.54V43.48H130.48V47.36H128.22V45.62H115.76V47.36ZM128.7 47.68V51.88C128.713 52.5467 128.66 53.06 128.54 53.42C128.433 53.7667 128.22 54.02 127.9 54.18C127.58 54.34 127.093 54.42 126.44 54.42C125.72 54.42 125.04 54.38 124.4 54.3L123.98 52.26C124.647 52.3667 125.22 52.42 125.7 52.42C126.007 52.42 126.213 52.3667 126.32 52.26C126.427 52.14 126.48 51.9333 126.48 51.64V49.76H123.08V55.42H120.9V49.76H117.56V54.36H115.36V47.68H120.9V46.18H123.08V47.68H128.7ZM151.04 50.58V52.84H143.2V55.6H140.82V52.84H132.96V50.58H140.82V49.1H134.5V39.86H138.1L137.02 38.38L136.74 38L138.86 36.92C139.1 37.2133 139.393 37.6067 139.74 38.1C140.1 38.58 140.387 38.9867 140.6 39.32L139.58 39.86H143.14C143.593 39.3 144.293 38.34 145.24 36.98L147.48 37.84C147.12 38.36 146.64 39.0333 146.04 39.86H149.54V49.1H143.2V50.58H151.04ZM140.82 43.52V42.02H136.94V43.52H140.82ZM143.2 43.52H147.1V42.02H143.2V43.52ZM136.94 45.46V46.96H140.82V45.46H136.94ZM143.2 45.46V46.96H147.1V45.46H143.2ZM153.34 46.12C154.313 45.4933 155.253 44.8 156.16 44.04C157.08 43.2667 157.907 42.4867 158.64 41.7H153.38V39.28H160.74C160.527 38.64 160.287 38.02 160.02 37.42L162.76 36.92C163.08 37.8533 163.333 38.64 163.52 39.28H170.6V41.7H164.92C165.587 42.1133 166.52 42.7667 167.72 43.66C168.92 44.54 169.893 45.2867 170.64 45.9L169.16 47.96C168.36 47.28 167.36 46.4733 166.16 45.54C164.96 44.5933 164.047 43.9067 163.42 43.48L164.86 41.7H158.86L160.56 43.2C159.773 44.0533 158.873 44.92 157.86 45.8C156.847 46.68 155.813 47.4933 154.76 48.24L153.34 46.12ZM170.36 55.62C168.413 55.1267 166.773 54.6133 165.44 54.08C164.107 53.56 162.953 52.96 161.98 52.28C161.007 52.96 159.853 53.58 158.52 54.14C157.187 54.7133 155.6 55.26 153.76 55.78L152.64 53.36C154.293 52.96 155.72 52.5467 156.92 52.12C158.12 51.68 159.16 51.1867 160.04 50.64C159.16 49.72 158.267 48.4933 157.36 46.96L159.36 45.66C160.213 47.1133 161.093 48.2667 162 49.12C162.88 48.2533 163.673 47.1267 164.38 45.74L166.58 46.92C165.82 48.36 164.947 49.5933 163.96 50.62C164.853 51.1533 165.887 51.6133 167.06 52C168.247 52.3867 169.673 52.74 171.34 53.06L170.36 55.62ZM190.12 46.76C190.04 48.6933 189.84 50.72 189.52 52.84C189.36 53.8 189.053 54.4667 188.6 54.84C188.16 55.2267 187.46 55.4267 186.5 55.44C185.487 55.44 184.533 55.3867 183.64 55.28L183.2 53.12C184.067 53.2533 184.893 53.32 185.68 53.32C186.187 53.32 186.54 53.2333 186.74 53.06C186.953 52.8733 187.113 52.5267 187.22 52.02C187.447 50.9933 187.607 49.8933 187.7 48.72H185.82C185.273 50.2667 184.487 51.6067 183.46 52.74C182.433 53.8733 181.007 54.9333 179.18 55.92L177.66 54.12C179.3 53.2667 180.54 52.4467 181.38 51.66C182.22 50.86 182.873 49.88 183.34 48.72H181.5C180.74 49.9867 179.787 51.08 178.64 52C177.493 52.9067 175.98 53.78 174.1 54.62L172.86 52.74C174.327 52.18 175.547 51.5667 176.52 50.9C177.493 50.2333 178.273 49.5067 178.86 48.72H176.86C175.98 49.4933 175.1 50.1933 174.22 50.82L172.8 49.1C173.507 48.6733 174.233 48.1467 174.98 47.52C175.727 46.88 176.387 46.2333 176.96 45.58H175.1V37.82H189.1V45.58H179.78C179.58 45.86 179.267 46.2533 178.84 46.76H190.12ZM186.78 40.92V39.78H177.42V40.92H186.78ZM177.42 42.6V43.66H186.78V42.6H177.42ZM195.48 37.76H208.56V43.4H195.48V37.76ZM198 41.38H206.06V39.9H198V41.38ZM206.74 46.84H197.32V51.48H194.88V44.58H209.16V51.36H206.74V46.84ZM209.56 55.78C206.84 54.4467 204.32 53.26 202 52.22C200.68 53.82 198.007 55.0067 193.98 55.78L193.16 53.52C194.907 53.2133 196.287 52.8733 197.3 52.5C198.327 52.1267 199.093 51.6933 199.6 51.2C200.107 50.6933 200.44 50.0733 200.6 49.34C200.733 48.62 200.82 48.02 200.86 47.54H203.36C203.293 48.4067 203.147 49.34 202.92 50.34C205.48 51.34 208.08 52.4133 210.72 53.56L209.56 55.78ZM50.72 68.8V70.64H33.24V68.8H40.96C40.76 68.36 40.52 67.8933 40.24 67.4L42.78 66.9C43.06 67.4333 43.3467 68.0667 43.64 68.8H50.72ZM48.76 71.58V75.68H35.24V71.58H48.76ZM46.46 73.12H37.5V74.18H46.46V73.12ZM51.1 79.94V81.94H43.38V83.2C43.38 84.0933 43.2067 84.7267 42.86 85.1C42.5133 85.4733 41.9067 85.6667 41.04 85.68C40.2 85.6933 39.2333 85.6467 38.14 85.54L37.7 83.34C38.6067 83.4733 39.4133 83.54 40.12 83.54C40.4533 83.54 40.68 83.46 40.8 83.3C40.9333 83.1267 41 82.8533 41 82.48V81.94H32.88V79.94H41V79.52L44.46 78.42H34.58V76.6H49.16V78.42L44.72 79.94H51.1ZM55.42 75.02V77.28H53.24V72.92H56.5C56.0867 72.16 55.6933 71.4933 55.32 70.92L56.66 70.22L54.36 70.3L54.04 68.3C56.44 68.22 59.14 68.0933 62.14 67.92C65.14 67.7333 67.5 67.5467 69.22 67.36L69.72 69.4L69.04 69.46L67.06 69.6L68.8 70.2C68.3467 71.2 67.9 72.1067 67.46 72.92H70.68V77.28H68.52V75.02H55.42ZM64.96 72.92C65.2267 72.4667 65.52 71.9267 65.84 71.3C66.16 70.66 66.4267 70.1067 66.64 69.64C65.72 69.7067 64.3267 69.7933 62.46 69.9C62.5533 70.0733 62.8467 70.6133 63.34 71.52C63.4333 71.6933 63.5133 71.8533 63.58 72C63.66 72.1333 63.7267 72.2467 63.78 72.34L62.56 72.92H64.96ZM57.48 70.18C57.6667 70.46 57.96 70.9333 58.36 71.6L58.84 72.4L57.76 72.92H61.52C61.1467 72.2 60.76 71.4867 60.36 70.78L62.1 69.92L57.48 70.18ZM70.36 85.76C68.6133 85.4 67.0667 85 65.72 84.56C64.3733 84.1333 63.1667 83.64 62.1 83.08C59.9533 84.1733 57.1133 85.1 53.58 85.86L52.78 83.54C55.6333 83.0333 57.98 82.4067 59.82 81.66C58.74 80.86 57.68 79.82 56.64 78.54H56.04V76.4H67.8V78.54C66.7333 79.78 65.6067 80.8267 64.42 81.68C66.2467 82.4267 68.5 83.0133 71.18 83.44L70.36 85.76ZM59.6 78.54C60.3467 79.2867 61.18 79.9467 62.1 80.52C62.9667 80 63.82 79.34 64.66 78.54H59.6ZM75.2 67.74H88.84V73.78H75.2V67.74ZM86.58 70.14V69.36H77.46V70.14H86.58ZM77.46 71.44V72.24H86.58V71.44H77.46ZM90.38 85.8C88.98 85.2267 87.7733 84.5467 86.76 83.76C85.7467 84.56 84.5867 85.24 83.28 85.8L82.28 83.88C82.3333 83.8533 82.3733 83.84 82.4 83.84L81.86 83.9V85.8H79.7V84.18C75.86 84.66 73.7067 84.94 73.24 85.02L73.06 83.16L74.48 82.98V76.34H72.96V74.54H91.06V76.34H81.86V82.04C82.1133 82.0133 82.3133 81.9933 82.46 81.98C82.62 81.9533 82.74 81.9333 82.82 81.92L82.92 83.6C83.7067 83.2533 84.48 82.8267 85.24 82.32C84.4267 81.4267 83.76 80.3467 83.24 79.08H82.6V77.3H90.38V79.18C89.78 80.3667 89.1 81.3933 88.34 82.26C89.14 82.74 90.14 83.2133 91.34 83.68L90.38 85.8ZM79.7 77.42V76.34H76.7V77.42H79.7ZM79.7 78.96H76.7V80.08H79.7V78.96ZM85.42 79.08C85.7933 79.8133 86.2467 80.4533 86.78 81C87.3 80.4667 87.74 79.8267 88.1 79.08H85.42ZM76.7 81.48V82.7L79.7 82.32V81.48H76.7ZM110.9 68.68V70.58H93.16V68.68H100.84L100.28 67.38L102.86 66.88C103.007 67.1733 103.273 67.7733 103.66 68.68H110.9ZM95.62 75.6V71.48H108.46V75.6H95.62ZM97.98 74H106.06V73H97.98V74ZM93.98 85.56V76.42H110.1V83.08C110.1 84 109.92 84.64 109.56 85C109.213 85.3733 108.587 85.5733 107.68 85.6C106.947 85.6133 106.16 85.58 105.32 85.5L104.92 83.58H97.74V79.3H106.32V83.58H106.8C107.16 83.5933 107.407 83.5267 107.54 83.38C107.687 83.22 107.76 82.94 107.76 82.54V78.34H96.3V85.56H93.98ZM100.02 82H104.04V80.86H100.02V82ZM118.98 84V72.68L120.8 72.72L115.74 78.92L115.26 78.32H124.54V81.12H113.74L112.38 78.5L119.52 69.88H122.26V84H118.98ZM131.982 84.2C130.729 84.2 129.656 83.9133 128.762 83.34C127.882 82.7667 127.209 81.9467 126.742 80.88C126.276 79.8 126.042 78.5067 126.042 77C126.042 75.4933 126.276 74.2067 126.742 73.14C127.209 72.06 127.882 71.2333 128.762 70.66C129.656 70.0867 130.729 69.8 131.982 69.8C133.236 69.8 134.309 70.0867 135.202 70.66C136.096 71.2333 136.776 72.06 137.242 73.14C137.709 74.2067 137.942 75.4933 137.942 77C137.942 78.5067 137.709 79.8 137.242 80.88C136.776 81.9467 136.096 82.7667 135.202 83.34C134.309 83.9133 133.236 84.2 131.982 84.2ZM131.982 81.32C132.849 81.32 133.516 80.9467 133.982 80.2C134.462 79.4533 134.702 78.3867 134.702 77C134.702 75.5733 134.462 74.48 133.982 73.72C133.516 72.9467 132.849 72.56 131.982 72.56C131.116 72.56 130.442 72.9467 129.962 73.72C129.496 74.48 129.262 75.5733 129.262 77C129.262 78.3867 129.496 79.4533 129.962 80.2C130.442 80.9467 131.116 81.32 131.982 81.32ZM142.158 84L151.418 70H154.398L145.038 84H142.158ZM143.058 77.42C142.378 77.42 141.772 77.2533 141.238 76.92C140.705 76.5733 140.285 76.1067 139.978 75.52C139.685 74.9333 139.538 74.2667 139.538 73.52C139.538 72.76 139.685 72.0867 139.978 71.5C140.285 70.9 140.705 70.4333 141.238 70.1C141.772 69.7667 142.378 69.6 143.058 69.6C143.752 69.6 144.358 69.7667 144.878 70.1C145.412 70.4333 145.825 70.9 146.118 71.5C146.412 72.0867 146.558 72.76 146.558 73.52C146.558 74.2667 146.405 74.9333 146.098 75.52C145.792 76.1067 145.372 76.5733 144.838 76.92C144.318 77.2533 143.725 77.42 143.058 77.42ZM143.058 75.36C143.285 75.36 143.472 75.2867 143.618 75.14C143.778 74.9933 143.898 74.78 143.978 74.5C144.058 74.22 144.098 73.8933 144.098 73.52C144.098 73.1467 144.058 72.82 143.978 72.54C143.898 72.26 143.778 72.0467 143.618 71.9C143.472 71.74 143.285 71.66 143.058 71.66C142.845 71.66 142.658 71.74 142.498 71.9C142.338 72.0467 142.212 72.26 142.118 72.54C142.038 72.82 141.998 73.1467 141.998 73.52C141.998 73.8933 142.038 74.22 142.118 74.5C142.198 74.78 142.318 74.9933 142.478 75.14C142.652 75.2867 142.845 75.36 143.058 75.36ZM153.718 84.2C153.038 84.2 152.432 84.0267 151.898 83.68C151.365 83.3333 150.945 82.8733 150.638 82.3C150.345 81.7133 150.198 81.0467 150.198 80.3C150.198 79.54 150.345 78.8667 150.638 78.28C150.932 77.68 151.345 77.2133 151.878 76.88C152.412 76.5467 153.025 76.38 153.718 76.38C154.412 76.38 155.018 76.5467 155.538 76.88C156.072 77.2133 156.485 77.68 156.778 78.28C157.072 78.8667 157.218 79.54 157.218 80.3C157.218 81.0333 157.065 81.6933 156.758 82.28C156.452 82.8667 156.032 83.3333 155.498 83.68C154.978 84.0267 154.385 84.2 153.718 84.2ZM153.718 82.14C153.945 82.14 154.132 82.0667 154.278 81.92C154.438 81.76 154.558 81.5467 154.638 81.28C154.718 81 154.758 80.6733 154.758 80.3C154.758 79.9267 154.718 79.6 154.638 79.32C154.558 79.04 154.438 78.8267 154.278 78.68C154.132 78.52 153.945 78.44 153.718 78.44C153.492 78.44 153.298 78.5133 153.138 78.66C152.978 78.8067 152.852 79.0267 152.758 79.32C152.678 79.6 152.638 79.9267 152.638 80.3C152.638 80.6733 152.678 81 152.758 81.28C152.852 81.5467 152.978 81.76 153.138 81.92C153.298 82.0667 153.492 82.14 153.718 82.14ZM176.234 77.02C175.314 76.4067 174.6 75.8867 174.094 75.46C173.974 77.7 173.767 80 173.474 82.36C173.367 83.12 173.194 83.7133 172.954 84.14C172.727 84.5667 172.394 84.88 171.954 85.08C171.514 85.28 170.92 85.3867 170.174 85.4C169.067 85.4267 167.96 85.3867 166.854 85.28L166.374 82.92C167.267 83.0267 168.26 83.08 169.354 83.08C169.9 83.08 170.287 82.9733 170.514 82.76C170.754 82.5333 170.92 82.0933 171.014 81.44C171.24 80.0667 171.394 78.58 171.474 76.98H166.554L166.494 77.7C166.4 78.9933 166.187 80.08 165.854 80.96C165.52 81.84 164.96 82.6733 164.174 83.46C163.387 84.2467 162.26 85.0667 160.794 85.92L158.994 83.92C160.287 83.2667 161.267 82.6533 161.934 82.08C162.614 81.4933 163.094 80.8733 163.374 80.22C163.667 79.5533 163.88 78.7067 164.014 77.68C164.04 77.5333 164.067 77.3 164.094 76.98H161.734V75.52C161.174 76 160.574 76.48 159.934 76.96L158.614 74.6C160.014 73.7333 161.254 72.6667 162.334 71.4C163.427 70.12 164.307 68.7333 164.974 67.24L167.254 68.14C166.694 69.4067 166.047 70.56 165.314 71.6C164.594 72.6267 163.74 73.62 162.754 74.58H173.094C172.147 73.6867 171.334 72.7 170.654 71.62C169.987 70.54 169.38 69.2667 168.834 67.8L171.094 66.98C171.734 68.74 172.547 70.2067 173.534 71.38C174.52 72.54 175.867 73.6133 177.574 74.6L176.234 77.02ZM186.914 71.44C186.62 71.04 186.207 70.54 185.674 69.94C185.154 69.34 184.7 68.8467 184.314 68.46L185.994 66.92C186.38 67.28 186.84 67.7467 187.374 68.32C187.92 68.88 188.387 69.3933 188.774 69.86L186.914 71.44ZM182.634 71.88C182.234 71.52 181.694 71.0667 181.014 70.52C180.347 69.9733 179.82 69.56 179.434 69.28L180.734 67.42C181.174 67.7 181.72 68.0867 182.374 68.58C183.027 69.06 183.587 69.5 184.054 69.9L182.634 71.88ZM189.294 68.16H196.694V82.78C196.694 83.5933 196.607 84.2 196.434 84.6C196.26 85.0133 195.96 85.2933 195.534 85.44C195.107 85.5867 194.48 85.66 193.654 85.66C193.214 85.66 192.694 85.6267 192.094 85.56L191.594 83.24C192.18 83.32 192.774 83.36 193.374 83.36C193.68 83.36 193.9 83.3333 194.034 83.28C194.18 83.2267 194.28 83.1267 194.334 82.98C194.387 82.82 194.414 82.5733 194.414 82.24V70.4H189.294V68.16ZM186.014 85.58H183.774V71.24H186.014V85.58ZM191.234 80.14H193.794V82.32H186.694V80.14H189.134V78.08H187.094V75.88H189.134V74.1H186.894V71.92H193.514V74.1H191.234V75.88H193.274V78.08H191.234V80.14ZM179.954 71.98C180.42 72.2867 180.987 72.6933 181.654 73.2C182.334 73.7067 182.887 74.1467 183.314 74.52L181.894 76.48C181.4 76.0267 180.84 75.5533 180.214 75.06C179.587 74.5533 179.06 74.16 178.634 73.88L179.954 71.98ZM178.854 84.86C179.2 83.8067 179.567 82.5867 179.954 81.2C180.354 79.8133 180.667 78.64 180.894 77.68L183.074 78.28C182.86 79.2667 182.567 80.4533 182.194 81.84C181.82 83.2133 181.474 84.42 181.154 85.46L178.854 84.86Z" fill="white"/>
<path d="M356.302 114.043C350.831 108.591 343.271 105.218 334.922 105.218C318.223 105.218 304.685 118.708 304.685 135.349V169.793C304.685 186.434 318.223 199.924 334.922 199.924C351.621 199.924 365.158 186.434 365.158 169.793V135.349C365.158 127.029 361.773 119.495 356.302 114.043ZM343.006 170.919C343.006 175.369 339.387 178.976 334.922 178.976C330.456 178.976 326.837 175.369 326.837 170.919V134.224C326.837 129.773 330.456 126.166 334.922 126.166C337.155 126.166 339.174 127.067 340.638 128.526C342.102 129.985 343.006 131.998 343.006 134.224V170.919Z" fill="url(#paint0_linear_6165_583)" stroke="url(#paint1_linear_6165_583)" stroke-width="1.41805" stroke-linejoin="round"/>
<path d="M343.717 134.223V136.528C343.717 134.107 342.733 131.915 341.141 130.329C339.549 128.742 337.35 127.761 334.921 127.761C330.062 127.761 326.125 131.686 326.125 136.528V134.223C326.125 129.382 330.062 125.457 334.921 125.457C337.35 125.457 339.549 126.438 341.141 128.024C342.733 129.611 343.717 131.802 343.717 134.223Z" fill="#07828B"/>
<path d="M345.144 171.643V173.892C345.144 179.518 340.567 184.079 334.922 184.079C329.276 184.079 324.699 179.518 324.699 173.892V171.643C324.699 177.269 329.276 181.83 334.922 181.83C340.567 181.83 345.144 177.269 345.144 171.643Z" fill="#08ACB8"/>
<path d="M362.243 135.771V138.318C362.243 130.8 359.184 123.993 354.241 119.066C349.296 114.139 342.465 111.092 334.921 111.092C319.831 111.092 307.598 123.281 307.598 138.318V135.771C307.598 120.735 319.831 108.544 334.921 108.544C342.465 108.544 349.296 111.592 354.241 116.519C359.184 121.446 362.243 128.252 362.243 135.771Z" fill="#07828B" stroke="#07828B" stroke-width="0.02619" stroke-miterlimit="10" stroke-linecap="round" stroke-linejoin="round"/>
<path d="M362.243 168.785V166.237C362.243 173.756 359.184 180.563 354.241 185.489C349.296 190.416 342.465 193.464 334.921 193.464C319.831 193.464 307.598 181.274 307.598 166.237V168.785C307.598 183.821 319.831 196.011 334.921 196.011C342.465 196.011 349.296 192.964 354.241 188.036C359.184 183.109 362.243 176.303 362.243 168.785Z" fill="#099CA7" stroke="#07828B" stroke-width="0.02619" stroke-miterlimit="10" stroke-linecap="round" stroke-linejoin="round"/>
<path d="M335.015 202.845H334.827C317.2 202.845 302.911 188.606 302.911 171.041V134.102C302.911 120.348 311.672 108.634 323.935 104.198" stroke="#07828B" stroke-opacity="0.2" stroke-width="0.40565" stroke-miterlimit="10" stroke-linecap="round" stroke-linejoin="round"/>
<path d="M366.932 134.102V171.041" stroke="#07828B" stroke-width="0.33059" stroke-miterlimit="10" stroke-linecap="round" stroke-linejoin="round"/>
<path d="M369.755 173.06C369.755 191.437 354.805 206.335 336.364 206.335H333.48C315.038 206.335 300.088 191.437 300.088 173.06" stroke="#07828B" stroke-opacity="0.2" stroke-width="0.381366" stroke-miterlimit="10" stroke-linecap="round" stroke-linejoin="round"/>
<path d="M300.088 140.36V133.147C300.088 114.77 315.038 99.8721 333.48 99.8721H336.364C345.987 99.8721 354.66 103.929 360.754 110.42" stroke="#07828B" stroke-width="0.198354" stroke-miterlimit="10" stroke-linecap="round" stroke-linejoin="round"/>
<path d="M300.088 140.36V133.147C300.088 114.77 315.038 99.8721 333.48 99.8721H336.364C345.987 99.8721 354.66 103.929 360.754 110.42" stroke="#07828B" stroke-opacity="0.2" stroke-width="0.198354" stroke-miterlimit="10" stroke-linecap="round" stroke-linejoin="round"/>
<g filter="url(#filter0_f_6165_583)">
<path d="M333.474 216.025C311.837 216.025 294.298 198.547 294.298 176.987V128.156C294.298 118.392 297.896 109.464 303.842 102.619" stroke="white" stroke-opacity="0.1" stroke-width="0.198354" stroke-miterlimit="10" stroke-linecap="round" stroke-linejoin="round"/>
</g>
<g filter="url(#filter1_f_6165_583)">
<path d="M358.625 96.0249C368.847 103.07 375.544 114.834 375.544 128.156V160.043" stroke="white" stroke-opacity="0.1" stroke-width="0.198354" stroke-miterlimit="10" stroke-linecap="round" stroke-linejoin="round"/>
</g>
<path d="M294.288 141.248V165.031H308.057V182.277H294.288V203H274.539V182.277H230.868V168.508L265.916 101.054H287.056L253.538 165.031H274.539V141.248H294.288Z" fill="url(#paint2_linear_6165_583)"/>
<path d="M294.288 141.248H294.997C294.997 140.857 294.68 140.539 294.288 140.539V141.248ZM294.288 165.031H293.579C293.579 165.423 293.897 165.74 294.288 165.74V165.031ZM308.057 165.031H308.766C308.766 164.64 308.449 164.322 308.057 164.322V165.031ZM308.057 182.277V182.986C308.449 182.986 308.766 182.669 308.766 182.277H308.057ZM294.288 182.277V181.568C293.897 181.568 293.579 181.885 293.579 182.277H294.288ZM294.288 203V203.709C294.68 203.709 294.997 203.392 294.997 203H294.288ZM274.539 203H273.83C273.83 203.392 274.147 203.709 274.539 203.709V203ZM274.539 182.277H275.248C275.248 181.885 274.931 181.568 274.539 181.568V182.277ZM230.868 182.277H230.159C230.159 182.669 230.476 182.986 230.868 182.986V182.277ZM230.868 168.508L230.239 168.181C230.186 168.282 230.159 168.394 230.159 168.508H230.868ZM265.916 101.054V100.345C265.651 100.345 265.409 100.493 265.287 100.727L265.916 101.054ZM287.056 101.054L287.684 101.383C287.799 101.164 287.791 100.9 287.663 100.687C287.534 100.475 287.304 100.345 287.056 100.345V101.054ZM253.538 165.031L252.91 164.702C252.795 164.922 252.803 165.186 252.931 165.398C253.06 165.61 253.29 165.74 253.538 165.74V165.031ZM274.539 165.031V165.74C274.931 165.74 275.248 165.423 275.248 165.031H274.539ZM274.539 141.248V140.539C274.147 140.539 273.83 140.857 273.83 141.248H274.539ZM294.288 141.248H293.579V165.031H294.288H294.997V141.248H294.288ZM294.288 165.031V165.74H308.057V165.031V164.322H294.288V165.031ZM308.057 165.031H307.348V182.277H308.057H308.766V165.031H308.057ZM308.057 182.277V181.568H294.288V182.277V182.986H308.057V182.277ZM294.288 182.277H293.579V203H294.288H294.997V182.277H294.288ZM294.288 203V202.291H274.539V203V203.709H294.288V203ZM274.539 203H275.248V182.277H274.539H273.83V203H274.539ZM274.539 182.277V181.568H230.868V182.277V182.986H274.539V182.277ZM230.868 182.277H231.577V168.508H230.868H230.159V182.277H230.868ZM230.868 168.508L231.497 168.835L266.545 101.381L265.916 101.054L265.287 100.727L230.239 168.181L230.868 168.508ZM265.916 101.054V101.763H287.056V101.054V100.345H265.916V101.054ZM287.056 101.054L286.428 100.725L252.91 164.702L253.538 165.031L254.166 165.36L287.684 101.383L287.056 101.054ZM253.538 165.031V165.74H274.539V165.031V164.322H253.538V165.031ZM274.539 165.031H275.248V141.248H274.539H273.83V165.031H274.539ZM274.539 141.248V141.957H294.288V141.248V140.539H274.539V141.248Z" fill="url(#paint3_linear_6165_583)"/>
<path d="M272 187H227V164.934L260.5 101.5" stroke="#07828B" stroke-opacity="0.2" stroke-width="0.381366" stroke-miterlimit="10" stroke-linecap="round" stroke-linejoin="round"/>
<path d="M374.128 182.388C374.127 182.389 374.126 182.391 374.125 182.392C374.124 182.394 374.123 182.396 374.122 182.398C373.307 183.795 372.207 184.858 370.812 185.601C369.405 186.351 367.885 186.726 366.24 186.726C364.596 186.726 363.076 186.351 361.67 185.602C360.309 184.859 359.204 183.793 358.351 182.388C357.511 181.003 357.082 179.397 357.082 177.548C357.082 175.699 357.511 174.093 358.351 172.708C359.202 171.306 360.323 170.24 361.72 169.495C361.723 169.493 361.727 169.491 361.731 169.489C363.138 168.706 364.638 168.317 366.24 168.317C367.879 168.317 369.396 168.708 370.801 169.489C370.805 169.491 370.809 169.493 370.812 169.495C372.207 170.238 373.307 171.301 374.122 172.698C374.124 172.701 374.126 172.705 374.128 172.708C374.968 174.093 375.398 175.699 375.398 177.548C375.398 179.397 374.968 181.003 374.128 182.388ZM363.493 174.498L363.491 174.5C362.786 175.291 362.467 176.314 362.467 177.495C362.467 178.678 362.787 179.71 363.479 180.529C363.488 180.54 363.496 180.55 363.506 180.559C364.24 181.334 365.167 181.728 366.24 181.728C367.339 181.728 368.287 181.34 369.026 180.559C369.031 180.555 369.035 180.55 369.039 180.545C369.774 179.727 370.118 178.689 370.118 177.495C370.118 176.307 369.777 175.28 369.033 174.491C368.298 173.676 367.349 173.263 366.24 173.263C365.153 173.263 364.223 173.685 363.493 174.498ZM400.042 202.479C400.04 202.482 400.038 202.486 400.036 202.489C399.221 203.885 398.121 204.948 396.727 205.691C395.32 206.441 393.799 206.817 392.154 206.817C390.509 206.817 388.988 206.441 387.581 205.691C386.184 204.947 385.063 203.881 384.213 202.479C383.372 201.094 382.943 199.488 382.943 197.639C382.943 195.752 383.374 194.129 384.213 192.746C385.063 191.344 386.184 190.278 387.581 189.533C388.988 188.783 390.509 188.407 392.154 188.407C393.799 188.407 395.32 188.783 396.727 189.533C398.121 190.276 399.221 191.339 400.036 192.736C400.038 192.739 400.04 192.743 400.042 192.746C400.881 194.129 401.312 195.752 401.312 197.639C401.312 199.488 400.883 201.094 400.042 202.479ZM389.407 200.636C389.411 200.641 389.416 200.645 389.42 200.65C390.154 201.425 391.081 201.819 392.154 201.819C393.254 201.819 394.201 201.431 394.941 200.65C394.945 200.645 394.949 200.641 394.954 200.636C395.689 199.817 396.032 198.78 396.032 197.586C396.032 196.397 395.691 195.37 394.947 194.582C394.212 193.767 393.263 193.353 392.154 193.353C391.07 193.353 390.142 193.773 389.413 194.582C388.67 195.37 388.328 196.397 388.328 197.586C388.328 198.78 388.672 199.817 389.407 200.636ZM364.59 206.133L386.805 169.053H393.803L371.589 206.133H364.59Z" fill="url(#paint4_linear_6165_583)" stroke="url(#paint5_linear_6165_583)" stroke-width="1.41805" stroke-linejoin="round"/>
<rect x="268.416" y="104.798" width="1.7385" height="13.0388" transform="rotate(-90 268.416 104.798)" fill="#07828B"/>
<defs>
<filter id="filter0_f_6165_583" x="293.538" y="101.858" width="40.6961" height="114.927" filterUnits="userSpaceOnUse" color-interpolation-filters="sRGB">
<feFlood flood-opacity="0" result="BackgroundImageFix"/>
<feBlend mode="normal" in="SourceGraphic" in2="BackgroundImageFix" result="shape"/>
<feGaussianBlur stdDeviation="0.33059" result="effect1_foregroundBlur_6165_583"/>
</filter>
<filter id="filter1_f_6165_583" x="357.864" y="95.2646" width="18.4405" height="65.5382" filterUnits="userSpaceOnUse" color-interpolation-filters="sRGB">
<feFlood flood-opacity="0" result="BackgroundImageFix"/>
<feBlend mode="normal" in="SourceGraphic" in2="BackgroundImageFix" result="shape"/>
<feGaussianBlur stdDeviation="0.33059" result="effect1_foregroundBlur_6165_583"/>
</filter>
<linearGradient id="paint0_linear_6165_583" x1="329.874" y1="89.4854" x2="302.881" y2="177.105" gradientUnits="userSpaceOnUse">
<stop stop-color="#FFFCF2"/>
<stop offset="1" stop-color="#07828B"/>
</linearGradient>
<linearGradient id="paint1_linear_6165_583" x1="334.922" y1="105.927" x2="364.209" y2="173.137" gradientUnits="userSpaceOnUse">
<stop stop-color="#07828B"/>
<stop offset="0.38" stop-color="#5AB8DB"/>
<stop offset="0.59" stop-color="#07828B"/>
<stop offset="0.905" stop-color="#5AB8DB"/>
</linearGradient>
<linearGradient id="paint2_linear_6165_583" x1="260.72" y1="92.0951" x2="242.498" y2="178.501" gradientUnits="userSpaceOnUse">
<stop stop-color="#FFFCF2"/>
<stop offset="1" stop-color="#07828B"/>
</linearGradient>
<linearGradient id="paint3_linear_6165_583" x1="267.657" y1="107.562" x2="288.264" y2="176.646" gradientUnits="userSpaceOnUse">
<stop stop-color="#07828B"/>
<stop offset="0.38" stop-color="#05A7B3"/>
<stop offset="0.59" stop-color="#5AB8DB"/>
<stop offset="0.905" stop-color="#07828B"/>
</linearGradient>
<linearGradient id="paint4_linear_6165_583" x1="381.966" y1="210.73" x2="367.37" y2="152.013" gradientUnits="userSpaceOnUse">
<stop stop-color="#07828B"/>
<stop offset="1" stop-color="#FFFCF2"/>
</linearGradient>
<linearGradient id="paint5_linear_6165_583" x1="379.197" y1="206.817" x2="379.197" y2="168.317" gradientUnits="userSpaceOnUse">
<stop stop-color="#07828B"/>
<stop offset="1" stop-color="#5AB8DB"/>
</linearGradient>
</defs>
</svg>
