<svg width="426" height="233" viewBox="0 0 426 233" fill="none" xmlns="http://www.w3.org/2000/svg">
<rect width="426" height="233" rx="24" fill="#CDE6E8"/>
<path d="M38.98 45.36L42.3 39.36H45.44L40.34 48.24V54H37.44V48.22L32.12 39.36H35.54L38.98 45.36ZM59.3747 39.36H61.5747V54H58.8147V44.56L55.0947 50.1H53.5747L49.8347 44.52V54H47.0947V39.36H49.3947L54.3947 46.94L59.3747 39.36ZM73.4933 47.82H67.5533V51.46H74.4133V54H64.6533V39.36H74.1933V41.88H67.5533V45.32H73.4933V47.82ZM89.2413 39.36L84.1013 46.5L89.4813 54H85.8813L82.3213 48.86L78.7413 54H75.3813L80.7413 46.56L75.6213 39.36H79.1613L82.5213 44.2L85.8813 39.36H89.2413ZM95.8581 51.9L97.5781 51.6L97.7181 53.76L94.1381 54.42C93.0315 54.6333 91.8448 54.8533 90.5781 55.08L90.2381 52.88L91.0181 52.76V46H92.8581V52.44C93.2315 52.36 93.5381 52.3067 93.7781 52.28V44.86H91.3181V37.98H97.5581V44.86H95.8581V47.1H97.6581V49.2H95.8581V51.9ZM105.638 51.06C106.425 51.9133 107.558 52.6733 109.038 53.34L107.518 55.26C106.385 54.6067 105.438 53.92 104.678 53.2C103.931 52.48 103.305 51.6533 102.798 50.72C102.291 49.7867 101.865 48.6667 101.518 47.36H100.658V52.62L102.818 51.56L103.298 53.8C102.165 54.2533 101.105 54.7267 100.118 55.22C99.6781 55.4467 99.3048 55.6467 98.9981 55.82L97.9181 53.68C98.1848 53.5733 98.3515 53.46 98.4181 53.34C98.4981 53.22 98.5381 52.9933 98.5381 52.66V38H107.518V47.36H103.658C103.925 48.16 104.225 48.88 104.558 49.52C105.411 48.8133 106.205 48.0933 106.938 47.36L108.258 48.96C107.445 49.6667 106.571 50.3667 105.638 51.06ZM105.298 41.66V40.1H100.658V41.66H105.298ZM95.5381 40.14H93.3781V42.72H95.5381V40.14ZM105.298 43.72H100.658V45.26H105.298V43.72ZM111.678 37.76H118.938V42.48H111.678V37.76ZM120.098 37.76H127.478V42.48H120.098V37.76ZM113.998 40.8H116.638V39.62H113.998V40.8ZM122.418 40.8H125.158V39.62H122.418V40.8ZM120.758 51.76H128.618V53.64H120.758V55.72H118.378V53.64H110.518V51.76H118.378V50.82H112.538V43.38H126.618V50.82H120.758V51.76ZM118.378 46.24V45.1H114.878V46.24H118.378ZM120.758 46.24H124.258V45.1H120.758V46.24ZM114.878 47.86V49.02H118.378V47.86H114.878ZM120.758 47.86V49.02H124.258V47.86H120.758ZM33.34 76.12C34.3133 75.4933 35.2533 74.8 36.16 74.04C37.08 73.2667 37.9067 72.4867 38.64 71.7H33.38V69.28H40.74C40.5267 68.64 40.2867 68.02 40.02 67.42L42.76 66.92C43.08 67.8533 43.3333 68.64 43.52 69.28H50.6V71.7H44.92C45.5867 72.1133 46.52 72.7667 47.72 73.66C48.92 74.54 49.8933 75.2867 50.64 75.9L49.16 77.96C48.36 77.28 47.36 76.4733 46.16 75.54C44.96 74.5933 44.0467 73.9067 43.42 73.48L44.86 71.7H38.86L40.56 73.2C39.7733 74.0533 38.8733 74.92 37.86 75.8C36.8467 76.68 35.8133 77.4933 34.76 78.24L33.34 76.12ZM50.36 85.62C48.4133 85.1267 46.7733 84.6133 45.44 84.08C44.1067 83.56 42.9533 82.96 41.98 82.28C41.0067 82.96 39.8533 83.58 38.52 84.14C37.1867 84.7133 35.6 85.26 33.76 85.78L32.64 83.36C34.2933 82.96 35.72 82.5467 36.92 82.12C38.12 81.68 39.16 81.1867 40.04 80.64C39.16 79.72 38.2667 78.4933 37.36 76.96L39.36 75.66C40.2133 77.1133 41.0933 78.2667 42 79.12C42.88 78.2533 43.6733 77.1267 44.38 75.74L46.58 76.92C45.82 78.36 44.9467 79.5933 43.96 80.62C44.8533 81.1533 45.8867 81.6133 47.06 82C48.2467 82.3867 49.6733 82.74 51.34 83.06L50.36 85.62ZM70.12 76.76C70.04 78.6933 69.84 80.72 69.52 82.84C69.36 83.8 69.0533 84.4667 68.6 84.84C68.16 85.2267 67.46 85.4267 66.5 85.44C65.4867 85.44 64.5333 85.3867 63.64 85.28L63.2 83.12C64.0667 83.2533 64.8933 83.32 65.68 83.32C66.1867 83.32 66.54 83.2333 66.74 83.06C66.9533 82.8733 67.1133 82.5267 67.22 82.02C67.4467 80.9933 67.6067 79.8933 67.7 78.72H65.82C65.2733 80.2667 64.4867 81.6067 63.46 82.74C62.4333 83.8733 61.0067 84.9333 59.18 85.92L57.66 84.12C59.3 83.2667 60.54 82.4467 61.38 81.66C62.22 80.86 62.8733 79.88 63.34 78.72H61.5C60.74 79.9867 59.7867 81.08 58.64 82C57.4933 82.9067 55.98 83.78 54.1 84.62L52.86 82.74C54.3267 82.18 55.5467 81.5667 56.52 80.9C57.4933 80.2333 58.2733 79.5067 58.86 78.72H56.86C55.98 79.4933 55.1 80.1933 54.22 80.82L52.8 79.1C53.5067 78.6733 54.2333 78.1467 54.98 77.52C55.7267 76.88 56.3867 76.2333 56.96 75.58H55.1V67.82H69.1V75.58H59.78C59.58 75.86 59.2667 76.2533 58.84 76.76H70.12ZM66.78 70.92V69.78H57.42V70.92H66.78ZM57.42 72.6V73.66H66.78V72.6H57.42ZM81.54 72.8C81.3133 74.7733 81.0533 76.3533 80.76 77.54C80.48 78.7267 80.0667 79.7867 79.52 80.72L82.04 82.86L80.48 84.92C79.6 84.1067 78.78 83.3733 78.02 82.72C77.1533 83.6533 75.94 84.6933 74.38 85.84L72.52 84.08C74.2 82.96 75.44 82 76.24 81.2C75.2133 80.3333 74.24 79.5733 73.32 78.92C73.8667 77.0133 74.3267 75.0133 74.7 72.92H72.8V70.5H75.06C75.1667 69.6733 75.28 68.5533 75.4 67.14L77.84 67.38C77.76 68.2733 77.6467 69.3133 77.5 70.5H81.54V72.8ZM82.68 85.28V69.22H90.28V85.16H88.02V83.48H84.94V85.28H82.68ZM84.94 71.6V81.04H88.02V71.6H84.94ZM76 77.94C76.6267 78.4067 77.2 78.8467 77.72 79.26C78.12 78.5133 78.4267 77.66 78.64 76.7C78.8533 75.74 79.04 74.48 79.2 72.92H77.14C76.8067 74.9467 76.4267 76.62 76 77.94ZM111.34 79.54C111.327 79.8067 111.26 80.76 111.14 82.4C111.087 83.1067 110.967 83.6533 110.78 84.04C110.593 84.44 110.32 84.7267 109.96 84.9C109.613 85.0733 109.133 85.18 108.52 85.22C107.96 85.2467 107.533 85.26 107.24 85.26C106.947 85.26 106.52 85.2467 105.96 85.22C105.347 85.18 104.86 85.06 104.5 84.86C104.14 84.6733 103.873 84.3667 103.7 83.94C103.54 83.5 103.46 82.8933 103.46 82.12V67.26H105.86V73.5C106.46 73.0467 107.087 72.5333 107.74 71.96C108.407 71.3733 108.973 70.84 109.44 70.36L111.06 72.36C110.433 72.9733 109.647 73.66 108.7 74.42C107.753 75.1667 106.807 75.8733 105.86 76.54V81.72C105.86 82.1067 105.92 82.38 106.04 82.54C106.173 82.6867 106.38 82.7733 106.66 82.8C106.98 82.8267 107.227 82.84 107.4 82.84C107.56 82.84 107.8 82.8267 108.12 82.8C108.413 82.76 108.607 82.6667 108.7 82.52C108.793 82.36 108.86 82.0333 108.9 81.54C108.953 80.8733 108.98 80.1867 108.98 79.48C108.993 79.3867 109 79.2467 109 79.06L111.34 79.54ZM100.52 80.8L102.06 80.42L102.54 80.3L102.78 82.86C101.1 83.26 98.2867 83.9467 94.34 84.92L93.18 85.2L92.82 82.66L94.22 82.34V70.68H96.56V81.78L98.18 81.38V67.58H100.52V72.58H102.64V75H100.52V80.8ZM121.4 77.36H116.16V85.64H113.88V71.9L112.76 70.92C114.36 69.3733 115.467 68.06 116.08 66.98L118.54 67.34C118.367 67.62 118.147 67.9667 117.88 68.38H121.76V70.1H119.7C119.927 70.4467 120.12 70.78 120.28 71.1L118.28 71.62C118.067 71.1933 117.76 70.6867 117.36 70.1H116.56C116.147 70.62 115.647 71.1733 115.06 71.76H121.4V77.36ZM131.02 68.38V70.1H128.3C128.513 70.4067 128.72 70.7467 128.92 71.12L126.8 71.6C126.493 70.9867 126.207 70.4867 125.94 70.1H124.8C124.44 70.6867 124.067 71.24 123.68 71.76H130.08V82.94C130.08 83.62 130.007 84.1467 129.86 84.52C129.727 84.9067 129.473 85.1867 129.1 85.36C128.74 85.5333 128.22 85.62 127.54 85.62C126.793 85.62 125.907 85.5733 124.88 85.48L124.58 83.78H117.82V78.1H126.14V83.64L126.68 83.66C127.147 83.66 127.46 83.5667 127.62 83.38C127.793 83.1933 127.88 82.86 127.88 82.38V77.36H122.68V71.76H123.16L121.5 70.84C121.993 70.3067 122.413 69.7467 122.76 69.16C123.12 68.56 123.473 67.86 123.82 67.06L126.24 67.32L125.74 68.38H131.02ZM119.3 73.98V73.26H116.16V73.98H119.3ZM127.88 73.98V73.26H124.8V73.98H127.88ZM116.16 75.2V76.02H119.3V75.2H116.16ZM124.8 75.2V76.02H127.88V75.2H124.8ZM123.88 80.28V79.5H120.08V80.28H123.88ZM120.08 81.6V82.38H123.88V81.6H120.08ZM134.1 67.76H141.36V72.48H134.1V67.76ZM142.52 67.76H149.9V72.48H142.52V67.76ZM136.42 70.8H139.06V69.62H136.42V70.8ZM144.84 70.8H147.58V69.62H144.84V70.8ZM143.18 81.76H151.04V83.64H143.18V85.72H140.8V83.64H132.94V81.76H140.8V80.82H134.96V73.38H149.04V80.82H143.18V81.76ZM140.8 76.24V75.1H137.3V76.24H140.8ZM143.18 76.24H146.68V75.1H143.18V76.24ZM137.3 77.86V79.02H140.8V77.86H137.3ZM143.18 77.86V79.02H146.68V77.86H143.18Z" fill="black"/>
<path d="M246.676 89.1026L246.676 89.1023C240.69 81.847 240.459 72.3695 245.938 67.8456L245.939 67.8449C246.459 67.4122 247.436 66.7391 248.294 66.1674C248.72 65.8832 249.114 65.6265 249.401 65.4408C249.544 65.348 249.661 65.273 249.742 65.2212C249.756 65.2124 249.768 65.2042 249.78 65.1968C249.791 65.1983 249.803 65.2 249.815 65.2018C249.905 65.2148 250.039 65.2346 250.211 65.262C250.555 65.3169 251.053 65.402 251.666 65.5226C252.892 65.7638 254.578 66.1466 256.416 66.7129C260.107 67.85 264.351 69.7097 266.756 72.6003C267.961 74.0658 268.765 76.0281 269.287 78.1679C269.808 80.3055 270.044 82.6013 270.125 84.7171C270.206 86.8318 270.133 88.7596 270.039 90.1593C269.992 90.859 269.94 91.426 269.9 91.8175C269.88 92.0131 269.863 92.1652 269.851 92.2679C269.85 92.278 269.849 92.2878 269.847 92.2971L269.841 92.3011L269.542 92.5016C269.294 92.6679 268.962 92.8903 268.627 93.1148C267.966 93.5589 267.271 94.0254 267.214 94.069L267.213 94.0696C261.678 98.3132 252.557 96.2394 246.676 89.1026Z" fill="url(#paint0_linear_6104_4531)" stroke="#07828B" stroke-width="0.565537"/>
<path d="M270.833 91.9248C276.492 87.2738 276.187 77.5776 270.151 70.2679C264.115 62.9582 254.634 60.803 248.974 65.4542C243.314 70.1054 243.62 79.8016 249.656 87.1114C255.692 94.421 265.173 96.5761 270.833 91.9248Z" fill="url(#paint1_linear_6104_4531)" stroke="#07828B" stroke-width="0.552119" stroke-miterlimit="10" stroke-linejoin="round"/>
<path d="M261.518 71.1465L258.577 74.0508L258.473 74.1533L258.576 74.2559L260.205 75.8994L260.301 75.9961L260.403 75.9053C261.704 74.7582 262.963 73.883 263.981 73.3857C264.491 73.1367 264.933 72.9864 265.285 72.9404C265.596 72.8998 265.813 72.9428 265.953 73.0449L266.008 73.0918C266.142 73.2271 266.202 73.4608 266.152 73.8145C266.102 74.165 265.947 74.6043 265.692 75.1104C265.183 76.1209 264.292 77.3674 263.129 78.6523L263.036 78.7549L263.133 78.8516L268.259 84.0205L266.295 85.958L261.168 80.7881L261.072 80.6914L260.969 80.7812C259.673 81.9223 258.418 82.793 257.404 83.2871C256.896 83.5344 256.456 83.684 256.105 83.7295C255.795 83.7696 255.578 83.726 255.439 83.624L255.385 83.5771C255.251 83.4422 255.19 83.2094 255.24 82.8574C255.289 82.5084 255.444 82.0713 255.697 81.5674C256.203 80.5606 257.089 79.3176 258.247 78.0361L258.339 77.9346L258.242 77.8369L256.612 76.1934L256.51 76.0908L256.407 76.1924L253.465 79.0957L251.175 76.7871L259.229 68.8379L261.518 71.1465ZM265.134 73.6562C264.96 73.4809 264.688 73.4668 264.403 73.5264C264.11 73.5876 263.756 73.7352 263.36 73.9502C262.567 74.3816 261.578 75.1018 260.541 76.0156L260.426 76.1172L260.533 76.2266L261.947 77.6533C261.817 77.7978 261.684 77.9456 261.544 78.0928L261.005 78.6416C260.661 78.9804 260.317 79.2971 259.983 79.5889L258.574 78.168L258.466 78.0596L258.363 78.1729C257.44 79.1946 256.713 80.1687 256.275 80.9521C256.057 81.3428 255.905 81.6941 255.842 81.9844C255.787 82.2316 255.789 82.4698 255.907 82.6426L255.964 82.7129H255.965C256.138 82.8871 256.408 82.9006 256.691 82.8418C256.983 82.7813 257.336 82.6354 257.73 82.4219C258.421 82.0472 259.26 81.4526 260.151 80.7012L260.536 80.3691H260.537L260.67 80.252L260.675 80.2461L260.684 80.2373L260.807 80.126L260.812 80.1221L260.825 80.1094L260.824 80.1084L261.097 79.8584L261.103 79.8525L261.227 79.7363L261.23 79.7344L261.262 79.7021L261.359 79.6094L261.361 79.6074L261.964 79.0127L261.966 79.0107L262.058 78.917L262.057 78.916L262.089 78.8857L262.092 78.8838L262.198 78.7715L262.199 78.7725L262.211 78.7598L262.214 78.7568C262.343 78.6221 262.469 78.4879 262.592 78.3545L262.597 78.3486L262.719 78.2148V78.2139C263.647 77.1888 264.379 76.211 264.82 75.4238C265.04 75.0312 265.191 74.6784 265.256 74.3867C265.311 74.1382 265.309 73.8991 265.191 73.7256L265.134 73.6562Z" fill="white" stroke="#07828B" stroke-width="0.289735"/>
<path d="M383.045 77.7251C385.136 77.6156 387.539 78.1446 389.967 79.2563L390.452 79.4858C395.378 81.8964 398.356 85.972 397.696 89.6968C397.528 90.1664 397.384 90.595 397.217 90.9956L397.037 91.395C396.053 93.3968 394.016 94.7855 391.499 95.3296C389.142 95.8392 386.384 95.6005 383.744 94.4409L383.218 94.1968C377.768 91.5291 374.916 86.3529 376.906 81.5015L377.114 81.0337C377.148 80.9617 377.175 80.9363 377.19 80.9243C377.217 80.9022 377.234 80.8968 377.319 80.8511C377.396 80.8092 377.495 80.7479 377.591 80.6362C377.674 80.5392 377.742 80.4169 377.803 80.2612C378.989 78.6684 380.833 77.841 383.045 77.7251Z" fill="white" stroke="#07828B" stroke-width="0.650697"/>
<path d="M384.307 92.5398C378.609 89.7508 375.64 84.1319 377.677 79.9897C379.714 75.8475 385.984 74.7506 391.682 77.5396C397.381 80.3286 400.349 85.9475 398.312 90.0897C396.276 94.2319 390.005 95.3288 384.307 92.5398Z" fill="url(#paint2_linear_6104_4531)" stroke="#07828B" stroke-width="0.552119" stroke-miterlimit="10" stroke-linejoin="round"/>
<path d="M390.01 85.5281L392.102 88.3328L390.378 89.0408L388.242 86.1755L388.208 86.1306C388.451 86.0384 388.701 85.941 388.958 85.8367L388.969 85.8357L388.989 85.8269C389.321 85.6911 389.635 85.5554 389.932 85.4226L390.01 85.5281ZM383.676 86.9314C383.666 86.9713 383.666 87.0156 383.681 87.0603L383.671 87.0515C383.656 87.0311 383.649 87.0074 383.661 86.9646C383.664 86.9541 383.67 86.9436 383.676 86.9314ZM391.11 81.7361L388.277 82.8972L388.104 82.9685L388.217 83.1179L388.884 84.0105L388.947 84.0964L388.998 84.0779L389.072 84.1785L389.684 85.0066C389.561 85.0647 389.438 85.1253 389.311 85.1804L388.761 85.4089L388.76 85.4099L387.933 85.7449L387.262 84.8396L387.193 84.7449L387.186 84.7468L387.114 84.6501L386.446 83.7566L386.379 83.6667L386.275 83.7097L383.339 84.9099L382.462 83.7361L390.232 80.5613L391.11 81.7361Z" fill="white" stroke="#07828B" stroke-width="0.289735"/>
<path d="M272.129 157.62L277.545 167.453L295.661 180.317L340.191 196.913L356.048 209C365.749 203.364 371.047 194.076 369.801 179.462C369.801 179.462 355.697 169.124 355.619 166.676C353.165 162.867 354.412 156.454 352.931 150.78C352.113 147.632 350.477 145.65 350.477 145.65C347.126 135.933 342.646 127.538 336.296 121.126C336.296 121.126 327.179 116.462 330.179 126.411C330.179 126.411 333.724 127.927 333.14 134.534C332.945 136.905 332.867 141.569 331.62 143.24C330.763 144.367 329.672 144.911 328.66 145.183C327.023 145.572 319.777 145.222 315.92 143.667C308.557 140.675 299.206 134.534 290.168 128.899C290.168 128.899 285.999 123.147 281.869 117.667C277.467 111.798 272.987 106.279 268.272 110.826L281.207 133.873L294.96 145.416L294.492 146.932C287.986 142.851 281.83 139.703 276.259 137.954C276.259 137.954 272.09 133.368 267.416 128.238C262.351 122.641 256.624 116.54 252.611 119.765L256.156 128.588C256.156 128.588 254.13 129.754 254.169 131.153C254.208 131.93 258.182 141.297 263.13 148.37C269.753 159.058 272.129 157.62 272.129 157.62Z" stroke="url(#paint3_linear_6104_4531)" stroke-width="0.650697"/>
<path fill-rule="evenodd" clip-rule="evenodd" d="M256.156 128.51C256.214 128.945 256.214 128.945 256.214 128.945L256.221 128.944C256.228 128.943 256.24 128.942 256.257 128.94C256.29 128.937 256.341 128.933 256.408 128.93C256.542 128.922 256.739 128.918 256.985 128.931C257.477 128.955 258.157 129.045 258.902 129.308C260.378 129.827 262.145 131.031 263.225 133.835C263.669 135.008 264.314 136.205 265.064 137.372C265.043 137.401 265.02 137.433 264.994 137.468C264.889 137.612 264.761 137.777 264.636 137.936C264.511 138.094 264.391 138.242 264.302 138.352C264.257 138.406 264.22 138.451 264.195 138.482L264.165 138.518L264.158 138.527L264.156 138.529L264.156 138.53L264.494 138.81C264.833 139.089 264.833 139.089 264.833 139.089L264.833 139.089L264.834 139.088L264.836 139.086L264.844 139.076L264.874 139.039C264.901 139.007 264.938 138.961 264.984 138.905C265.075 138.794 265.198 138.641 265.326 138.479C265.411 138.371 265.499 138.259 265.581 138.15C266.647 139.699 267.863 141.171 268.992 142.43C269.863 143.401 270.688 144.252 271.364 144.923C270.979 144.824 270.581 144.752 270.167 144.712C269.322 144.629 268.419 144.798 267.71 145.217C266.99 145.641 266.447 146.343 266.431 147.295C266.416 148.148 266.673 149.216 267.423 150.53C268.476 152.379 269.549 154.208 270.358 155.574C270.763 156.258 271.101 156.826 271.339 157.223C271.458 157.421 271.552 157.577 271.616 157.683L271.688 157.805L271.707 157.836L271.712 157.844L271.713 157.846L271.714 157.846C271.714 157.846 271.714 157.846 272.09 157.62C272.467 157.394 272.467 157.394 272.467 157.394V157.394L272.467 157.393L272.465 157.391L272.461 157.384L272.442 157.353L272.37 157.232C272.306 157.126 272.213 156.971 272.094 156.773C271.857 156.377 271.519 155.81 271.115 155.128C270.307 153.764 269.237 151.94 268.187 150.097C267.495 148.883 267.299 147.969 267.31 147.31C267.32 146.728 267.639 146.278 268.157 145.972C268.685 145.66 269.397 145.518 270.082 145.585C272.088 145.781 273.74 146.81 275.203 148.284C276.469 149.559 277.57 151.142 278.619 152.759C278.593 152.786 278.558 152.819 278.512 152.856C278.324 153.01 278.037 153.174 277.718 153.33C277.404 153.483 277.081 153.617 276.835 153.713C276.712 153.76 276.61 153.798 276.538 153.824C276.524 153.83 276.51 153.834 276.498 153.839C276.481 153.845 276.467 153.85 276.456 153.854L276.435 153.861L276.43 153.862L276.429 153.863C276.429 153.863 276.429 153.863 276.572 154.278C276.714 154.693 276.714 154.693 276.714 154.693H276.715L276.717 154.692L276.724 154.689L276.748 154.681C276.769 154.674 276.8 154.663 276.838 154.649C276.915 154.621 277.024 154.58 277.154 154.53C277.413 154.429 277.76 154.285 278.104 154.118C278.442 153.953 278.8 153.754 279.068 153.536L279.081 153.525C279.085 153.522 279.09 153.518 279.095 153.514C279.097 153.512 279.099 153.51 279.101 153.509L279.121 153.541C280.263 155.35 281.477 157.105 282.378 158.37C282.902 159.106 283.514 159.769 284.197 160.349C284.198 160.364 284.198 160.386 284.198 160.412C284.198 160.475 284.196 160.569 284.189 160.685C284.175 160.918 284.14 161.236 284.057 161.579C283.889 162.279 283.543 162.999 282.863 163.378L283.292 164.144C284.287 163.59 284.72 162.581 284.912 161.784C284.981 161.498 285.022 161.228 285.045 161C285.345 161.207 285.656 161.4 285.977 161.578C287.764 162.568 290.474 164.025 293.133 165.284C295.276 166.316 296.141 167.74 296.487 168.882C296.662 169.46 296.707 169.975 296.708 170.344C296.708 170.528 296.698 170.674 296.688 170.772C296.683 170.821 296.678 170.858 296.675 170.882C296.673 170.893 296.671 170.901 296.671 170.906L296.67 170.909C296.67 170.909 296.67 170.909 297.102 170.99C297.534 171.071 297.534 171.071 297.534 171.071V171.07L297.535 171.068L297.536 171.064L297.538 171.051C297.54 171.041 297.542 171.027 297.545 171.009C297.55 170.974 297.556 170.924 297.562 170.862C297.576 170.736 297.588 170.559 297.587 170.341C297.586 169.906 297.533 169.304 297.328 168.628C296.985 167.496 296.222 166.184 294.616 165.117C294.862 163.376 294.731 162.239 294.508 161.51C294.391 161.127 294.249 160.86 294.126 160.68C294.065 160.59 294.009 160.523 293.964 160.475C293.941 160.451 293.922 160.432 293.906 160.418C293.897 160.41 293.891 160.404 293.884 160.399L293.881 160.396L293.876 160.392L293.872 160.389L293.871 160.387L293.87 160.387C293.869 160.386 293.869 160.386 293.596 160.73C293.323 161.073 293.322 161.073 293.322 161.073L293.321 161.072L293.32 161.071L293.317 161.069L293.314 161.066C293.312 161.064 293.311 161.064 293.311 161.064C293.311 161.064 293.315 161.068 293.323 161.075C293.337 161.091 293.365 161.122 293.4 161.174C293.471 161.278 293.575 161.464 293.667 161.766C293.83 162.299 293.958 163.197 293.792 164.632C293.701 164.585 293.609 164.539 293.514 164.493L293.512 164.492C290.876 163.245 288.184 161.798 286.404 160.811C285.093 160.085 283.963 159.081 283.095 157.862C282.199 156.604 280.994 154.863 279.865 153.072L279.863 153.07C279.755 152.9 279.645 152.73 279.535 152.559C279.533 152.548 279.53 152.538 279.528 152.528L279.517 152.531C278.981 151.699 278.423 150.857 277.831 150.05C281.485 151.487 285.082 152.943 288.609 154.432C290.61 155.276 292.875 153.959 293.098 151.797L292.224 151.707C292.062 153.276 290.414 154.241 288.952 153.624C284.969 151.943 280.899 150.304 276.762 148.688C276.461 148.333 276.15 147.991 275.828 147.667C275.148 146.982 274.415 146.373 273.613 145.885L273.629 145.866L273.628 145.865L273.625 145.862L273.609 145.848C273.596 145.836 273.575 145.818 273.548 145.793C273.494 145.744 273.413 145.671 273.31 145.575C273.104 145.384 272.805 145.104 272.44 144.749C271.71 144.04 270.712 143.033 269.647 141.845C267.506 139.457 265.127 136.378 264.047 133.524L264.046 133.522C262.867 130.459 260.894 129.078 259.195 128.48C258.353 128.184 257.586 128.082 257.029 128.055C256.75 128.041 256.522 128.045 256.362 128.053C256.282 128.058 256.218 128.063 256.173 128.067C256.151 128.069 256.133 128.071 256.121 128.073L256.105 128.074L256.1 128.075L256.099 128.075H256.098C256.098 128.075 256.097 128.075 256.156 128.51ZM289.848 128.559C289.848 128.559 289.848 128.559 290.168 128.86C290.487 129.161 290.487 129.161 290.487 129.161L290.486 129.162L290.483 129.166L290.467 129.183C290.453 129.198 290.432 129.22 290.406 129.249C290.352 129.308 290.276 129.393 290.184 129.499C289.999 129.711 289.754 130.003 289.512 130.327C289.268 130.653 289.034 131.001 288.865 131.325C288.688 131.664 288.614 131.917 288.62 132.07L287.741 132.102C287.727 131.711 287.893 131.288 288.085 130.92C288.284 130.537 288.549 130.147 288.807 129.802C289.066 129.456 289.326 129.146 289.52 128.923C289.617 128.812 289.698 128.721 289.756 128.659C289.785 128.627 289.807 128.603 289.823 128.586L289.841 128.566L289.846 128.561L289.848 128.559L289.848 128.559ZM294.959 145.378C295.386 145.484 295.386 145.484 295.386 145.484L295.386 145.484L295.387 145.48L295.391 145.462C295.396 145.446 295.402 145.422 295.411 145.39C295.43 145.326 295.457 145.234 295.494 145.121C295.569 144.895 295.68 144.593 295.828 144.284C295.977 143.973 296.156 143.671 296.361 143.434C296.567 143.195 296.773 143.054 296.972 143.006L296.765 142.153C296.321 142.261 295.967 142.546 295.695 142.861C295.421 143.178 295.203 143.556 295.035 143.906C294.866 144.258 294.742 144.597 294.659 144.847C294.618 144.972 294.587 145.076 294.566 145.15C294.555 145.187 294.547 145.216 294.542 145.237L294.539 145.249L294.535 145.261L294.534 145.268L294.533 145.27L294.533 145.271V145.271C294.533 145.271 294.533 145.271 294.959 145.378ZM276.647 138.084L275.166 140.844L274.391 140.429L275.871 137.67L276.647 138.084ZM328.945 144.81C328.945 144.809 328.945 144.809 329.361 144.95C329.777 145.091 329.777 145.091 329.777 145.091V145.092L329.777 145.094L329.773 145.104L329.767 145.123L329.76 145.143C329.749 145.178 329.731 145.231 329.709 145.301C329.664 145.44 329.599 145.646 329.52 145.91C329.362 146.438 329.146 147.198 328.917 148.126C328.457 149.982 327.947 152.498 327.735 155.148C327.523 157.803 327.613 160.564 328.336 162.924C329.055 165.274 330.391 167.2 332.664 168.261L332.292 169.055C329.734 167.862 328.265 165.698 327.495 163.18C326.727 160.671 326.642 157.787 326.858 155.079C327.075 152.366 327.597 149.8 328.063 147.915C328.296 146.972 328.516 146.198 328.678 145.658C328.759 145.388 328.825 145.177 328.872 145.033C328.895 144.961 328.913 144.905 328.925 144.868C328.932 144.849 328.936 144.834 328.94 144.825L328.944 144.813L328.945 144.81L328.945 144.81ZM350.095 177.546C352.459 175.595 354.399 171.716 356.037 166.775L355.202 166.499C353.568 171.43 351.689 175.091 349.534 176.87L350.095 177.546Z" fill="url(#paint4_linear_6104_4531)"/>
<path d="M336.692 74.9781C336.778 74.9524 336.847 74.9322 336.899 74.9172L337.072 75.0119L337.814 75.4176C338.44 75.7595 339.302 76.2305 340.246 76.7466C342.135 77.7789 344.352 78.9916 345.67 79.7136C360.492 87.8386 364.556 109.015 354.619 127.11C344.681 145.206 324.601 153.197 309.78 145.109C308.549 144.431 306.87 143.327 305.492 142.388C304.805 141.919 304.195 141.493 303.756 141.184C303.537 141.03 303.361 140.904 303.24 140.818C303.191 140.783 303.151 140.754 303.121 140.733L303.12 140.731C303.1 140.677 303.071 140.598 303.034 140.494C302.958 140.285 302.849 139.976 302.712 139.577C302.439 138.78 302.058 137.624 301.627 136.188C300.763 133.316 299.699 129.331 298.894 124.875C297.28 115.942 296.724 105.195 300.832 97.7128C304.907 90.2955 313.921 84.587 321.97 80.7248C325.987 78.7976 329.747 77.3374 332.504 76.359C333.882 75.8698 335.009 75.5013 335.79 75.2551C336.181 75.1321 336.486 75.0397 336.692 74.9781Z" fill="url(#paint5_linear_6104_4531)" stroke="#07828B" stroke-width="0.552119"/>
<path d="M347.706 123.007C357.688 104.816 353.637 83.4375 338.657 75.2567C323.676 67.0759 303.44 75.191 293.458 93.3823C283.475 111.574 287.527 132.952 302.507 141.133C317.487 149.314 337.723 141.199 347.706 123.007Z" fill="url(#paint6_linear_6104_4531)" stroke="#07828B" stroke-width="0.552119" stroke-miterlimit="10" stroke-linejoin="round"/>
<path d="M343.988 102.078L339.56 108.652L330.57 102.622L330.45 102.541L330.369 102.661L327.368 107.116L327.291 107.231L327.401 107.313C330.956 109.973 333.835 112.639 335.659 114.881C336.572 116.003 337.214 117.012 337.547 117.856C337.882 118.705 337.89 119.351 337.599 119.783C337.307 120.216 336.705 120.453 335.79 120.464C334.881 120.475 333.702 120.262 332.316 119.842C329.547 119.003 325.986 117.35 322.175 115.071L322.057 114.999L321.98 115.114L312.433 129.283L306.183 125.092L315.728 110.925L315.805 110.811L315.694 110.729C312.124 108.062 309.23 105.387 307.396 103.137C306.478 102.011 305.83 100.999 305.495 100.152C305.179 99.3523 305.152 98.7328 305.391 98.301L305.441 98.217C305.734 97.7831 306.339 97.5465 307.258 97.5364C308.171 97.5264 309.355 97.7415 310.746 98.1643C313.527 99.0094 317.102 100.674 320.926 102.966L321.043 103.037L321.12 102.923L324.119 98.4709L324.2 98.3508L324.08 98.2698L315.089 92.2415L319.519 85.6663L343.988 102.078ZM309.786 99.0354C309.129 98.9944 308.598 99.1026 308.314 99.4426L308.261 99.5139C307.993 99.9106 308.087 100.474 308.393 101.106C308.703 101.748 309.257 102.515 310.009 103.365C311.326 104.855 313.269 106.621 315.63 108.456L316.667 109.246L317.04 109.524L317.043 109.527L317.048 109.53V109.529L318.199 110.361L318.202 110.363L318.236 110.385V110.386L318.567 110.619L318.571 110.621L318.667 110.685V110.686L318.945 110.879L318.947 110.88L320.751 112.089L320.753 112.091L321.04 112.278L321.141 112.345L321.144 112.347L321.51 112.58V112.579L321.524 112.589V112.59L321.527 112.592C321.799 112.765 322.07 112.933 322.338 113.098V113.099L322.382 113.128L322.744 113.35V113.349L322.78 113.374L322.787 113.378L323.176 113.613C326.194 115.417 328.972 116.773 331.109 117.516C332.177 117.887 333.093 118.107 333.803 118.151C334.456 118.191 334.985 118.082 335.268 117.743L335.321 117.672C335.587 117.277 335.494 116.716 335.191 116.088C334.883 115.449 334.332 114.686 333.584 113.839C332.087 112.144 329.779 110.089 326.962 107.98L326.84 107.888L326.755 108.015L324.057 112.018C323.289 111.565 322.496 111.076 321.692 110.554L320.843 109.993C319.765 109.271 318.746 108.543 317.804 107.829L320.512 103.812L320.598 103.685L320.466 103.607C317.434 101.792 314.642 100.426 312.493 99.677C311.42 99.3031 310.499 99.08 309.786 99.0354Z" fill="white" stroke="#07828B" stroke-width="0.289735"/>
<path d="M319.564 191.064C319.564 191.064 338.756 191.205 347.652 183.458L354.552 193.908C354.552 193.908 344.233 202.175 323.084 202.008L319.564 191.064Z" fill="#07828B"/>
<path d="M324.05 201.129L320.983 191.698C322.576 192.894 328.438 191.788 329.841 191.691C331.244 191.595 329.603 192.612 329.979 193.691C330.356 194.77 338.71 193.291 338.972 194.177C339.235 195.063 331.575 196.393 332.08 197.865C332.584 199.337 337.559 198.493 335.745 199.923C334.294 201.068 327.344 201.204 324.05 201.129Z" fill="#88D8DB"/>
<path d="M353.604 181.729C363.959 174.937 368.934 164.819 370.788 151.746L386.442 157.164C382.605 172.236 374.977 181.975 361.911 191.529L353.612 181.729L353.604 181.729Z" fill="url(#paint7_linear_6104_4531)"/>
<path d="M362.661 177.071C361.5 177.728 361.413 176.667 361.515 176.055L355.134 181.856L362.451 189.589C363.225 189.693 371.111 182.194 373.848 180.268C373.887 180.046 374.324 179.786 374.425 178.42C374.552 176.712 371.189 179.594 370.269 177.662C369.35 175.73 365.548 179.934 365.949 177.272C366.35 174.61 364.113 176.249 362.661 177.071Z" fill="#07828B"/>
<path d="M373.624 122.987L394.143 123.75C395.953 139.663 393.206 151.815 383.131 160.199L361.879 158.029C371.122 148.689 373.624 139.797 373.624 122.987Z" fill="url(#paint8_linear_6104_4531)" stroke="url(#paint9_linear_6104_4531)" stroke-width="0.57947" stroke-miterlimit="10" stroke-linejoin="round"/>
<mask id="mask0_6104_4531" style="mask-type:alpha" maskUnits="userSpaceOnUse" x="362" y="123" width="32" height="37">
<path d="M372.448 124.104L392.878 124.588C395.315 139.538 392.076 151.537 383.006 159.242L363.45 157.292C372.182 148.468 375.899 137.763 372.448 124.104Z" fill="#D9D9D9" stroke="white" stroke-width="0.57947" stroke-miterlimit="10"/>
</mask>
<g mask="url(#mask0_6104_4531)">
<path d="M369.647 146.714C368.261 149.377 366.803 147.468 366.247 146.181L358.445 161.944L384.648 164.613C386.234 163.867 393.874 146.88 396.683 139.886C396.484 139.418 395.718 137.801 394.242 135.083C392.397 131.686 388.8 141.112 384.71 138.564C380.619 136.015 378.584 148.634 376.091 143.089C373.597 137.544 371.38 143.384 369.647 146.714Z" fill="#88D8DB"/>
</g>
<mask id="path-21-inside-1_6104_4531" fill="white">
<path d="M376.079 128.104L376.577 128.135L376.528 128.918L377.309 128.967L377.278 129.46L376.497 129.411L376.448 130.195L375.95 130.164L375.999 129.38L375.214 129.332L375.245 128.839L376.03 128.888L376.079 128.104ZM377.861 128.823L377.896 128.261L378.835 127.805L379.292 127.833L379.108 130.794L378.513 130.757L378.657 128.442L377.861 128.823ZM380.907 130.391L382.093 130.464L382.061 130.977L380.017 130.85L380.041 130.471L380.998 129.524C381.162 129.362 381.277 129.234 381.343 129.14C381.411 129.045 381.448 128.944 381.455 128.839C381.462 128.723 381.436 128.628 381.375 128.555C381.315 128.48 381.229 128.44 381.119 128.433C381.005 128.426 380.903 128.462 380.811 128.54C380.72 128.615 380.646 128.727 380.591 128.875L380.146 128.579C380.231 128.344 380.37 128.169 380.561 128.054C380.753 127.936 380.969 127.885 381.209 127.899C381.398 127.911 381.559 127.96 381.691 128.047C381.827 128.131 381.927 128.243 381.992 128.382C382.059 128.521 382.087 128.677 382.076 128.849C382.066 129.019 382.014 129.175 381.921 129.318C381.831 129.459 381.673 129.64 381.448 129.861L380.907 130.391ZM383.711 129.19C383.895 129.202 384.056 129.252 384.194 129.342C384.332 129.429 384.436 129.546 384.505 129.693C384.574 129.841 384.603 130.007 384.592 130.189C384.58 130.381 384.522 130.549 384.418 130.694C384.317 130.839 384.183 130.948 384.016 131.022C383.851 131.095 383.675 131.126 383.486 131.114C383.291 131.102 383.117 131.05 382.963 130.956C382.809 130.86 382.691 130.733 382.609 130.573C382.527 130.414 382.492 130.234 382.505 130.032C382.514 129.881 382.551 129.738 382.617 129.605C382.682 129.468 382.793 129.291 382.951 129.074L383.653 128.104L384.289 128.143L383.654 128.996C383.604 129.066 383.549 129.135 383.491 129.205C383.557 129.19 383.63 129.185 383.711 129.19ZM383.514 130.589C383.641 130.597 383.746 130.561 383.83 130.483C383.914 130.402 383.96 130.294 383.968 130.159C383.976 130.024 383.944 129.913 383.871 129.824C383.798 129.734 383.698 129.684 383.571 129.676C383.442 129.668 383.335 129.705 383.252 129.786C383.168 129.865 383.122 129.971 383.114 130.106C383.105 130.243 383.137 130.356 383.21 130.445C383.286 130.533 383.387 130.581 383.514 130.589ZM385.208 131.229C385.116 131.224 385.04 131.185 384.98 131.114C384.919 131.042 384.892 130.96 384.898 130.866C384.903 130.771 384.941 130.692 385.01 130.629C385.079 130.566 385.159 130.537 385.251 130.543C385.345 130.549 385.423 130.587 385.484 130.659C385.547 130.73 385.576 130.813 385.57 130.907C385.564 131.001 385.525 131.08 385.453 131.143C385.384 131.207 385.303 131.235 385.208 131.229ZM387.554 129.769C387.714 129.842 387.834 129.941 387.913 130.067C387.992 130.191 388.026 130.342 388.015 130.52C388.003 130.703 387.946 130.857 387.843 130.984C387.744 131.107 387.612 131.199 387.448 131.259C387.288 131.317 387.111 131.34 386.92 131.327C386.674 131.312 386.463 131.241 386.287 131.114C386.113 130.987 385.996 130.811 385.934 130.585L386.416 130.348C386.451 130.49 386.515 130.601 386.611 130.68C386.706 130.756 386.816 130.798 386.94 130.806C387.062 130.813 387.165 130.784 387.25 130.72C387.339 130.655 387.386 130.561 387.394 130.436C387.411 130.165 387.212 130.016 386.796 129.99L386.687 129.983L386.717 129.498L386.875 129.508C387.029 129.518 387.149 129.489 387.234 129.421C387.322 129.351 387.37 129.261 387.377 129.15C387.383 129.048 387.354 128.963 387.291 128.897C387.227 128.831 387.142 128.795 387.034 128.788C386.917 128.781 386.814 128.813 386.723 128.882C386.635 128.95 386.563 129.051 386.509 129.185L386.079 128.903C386.164 128.682 386.297 128.517 386.48 128.409C386.663 128.299 386.875 128.251 387.115 128.266C387.301 128.278 387.462 128.323 387.598 128.402C387.737 128.478 387.842 128.58 387.912 128.709C387.983 128.838 388.013 128.983 388.003 129.144C387.994 129.295 387.95 129.424 387.873 129.53C387.799 129.636 387.692 129.716 387.554 129.769ZM389.832 129.173C389.823 129.318 389.783 129.446 389.711 129.555C389.639 129.661 389.547 129.74 389.432 129.793C389.318 129.845 389.194 129.867 389.062 129.859C388.933 129.851 388.814 129.814 388.707 129.748C388.601 129.682 388.517 129.591 388.456 129.477C388.398 129.36 388.374 129.228 388.383 129.083C388.392 128.937 388.433 128.812 388.504 128.705C388.579 128.599 388.673 128.52 388.787 128.467C388.902 128.412 389.024 128.389 389.153 128.397C389.286 128.405 389.405 128.444 389.512 128.512C389.619 128.578 389.701 128.669 389.759 128.783C389.817 128.897 389.842 129.028 389.832 129.173ZM390.689 128.545L391.263 128.581L389.31 131.427L388.735 131.392L390.689 128.545ZM389.379 129.145C389.385 129.053 389.363 128.979 389.316 128.922C389.268 128.862 389.205 128.83 389.127 128.825C389.051 128.82 388.986 128.845 388.931 128.898C388.876 128.948 388.846 129.02 388.841 129.111C388.835 129.2 388.856 129.275 388.904 129.334C388.952 129.394 389.013 129.426 389.089 129.431C389.167 129.436 389.234 129.411 389.289 129.358C389.343 129.305 389.373 129.234 389.379 129.145ZM391.615 130.885C391.606 131.031 391.566 131.158 391.494 131.267C391.422 131.373 391.329 131.453 391.215 131.505C391.101 131.557 390.978 131.579 390.845 131.571C390.715 131.563 390.597 131.526 390.49 131.46C390.383 131.394 390.3 131.304 390.239 131.189C390.181 131.072 390.157 130.941 390.166 130.795C390.175 130.65 390.215 130.524 390.287 130.417C390.362 130.311 390.456 130.232 390.57 130.18C390.685 130.125 390.807 130.101 390.936 130.109C391.069 130.117 391.188 130.156 391.295 130.225C391.402 130.291 391.484 130.381 391.542 130.495C391.6 130.61 391.624 130.74 391.615 130.885ZM391.162 130.857C391.168 130.765 391.145 130.691 391.095 130.634C391.047 130.574 390.985 130.542 390.91 130.537C390.834 130.533 390.769 130.557 390.714 130.61C390.659 130.661 390.629 130.732 390.624 130.824C390.618 130.913 390.639 130.987 390.687 131.046C390.735 131.106 390.796 131.138 390.872 131.143C390.947 131.148 391.012 131.123 391.067 131.07C391.125 131.017 391.157 130.946 391.162 130.857Z"/>
</mask>
<path d="M376.079 128.104L376.577 128.135L376.528 128.918L377.309 128.967L377.278 129.46L376.497 129.411L376.448 130.195L375.95 130.164L375.999 129.38L375.214 129.332L375.245 128.839L376.03 128.888L376.079 128.104ZM377.861 128.823L377.896 128.261L378.835 127.805L379.292 127.833L379.108 130.794L378.513 130.757L378.657 128.442L377.861 128.823ZM380.907 130.391L382.093 130.464L382.061 130.977L380.017 130.85L380.041 130.471L380.998 129.524C381.162 129.362 381.277 129.234 381.343 129.14C381.411 129.045 381.448 128.944 381.455 128.839C381.462 128.723 381.436 128.628 381.375 128.555C381.315 128.48 381.229 128.44 381.119 128.433C381.005 128.426 380.903 128.462 380.811 128.54C380.72 128.615 380.646 128.727 380.591 128.875L380.146 128.579C380.231 128.344 380.37 128.169 380.561 128.054C380.753 127.936 380.969 127.885 381.209 127.899C381.398 127.911 381.559 127.96 381.691 128.047C381.827 128.131 381.927 128.243 381.992 128.382C382.059 128.521 382.087 128.677 382.076 128.849C382.066 129.019 382.014 129.175 381.921 129.318C381.831 129.459 381.673 129.64 381.448 129.861L380.907 130.391ZM383.711 129.19C383.895 129.202 384.056 129.252 384.194 129.342C384.332 129.429 384.436 129.546 384.505 129.693C384.574 129.841 384.603 130.007 384.592 130.189C384.58 130.381 384.522 130.549 384.418 130.694C384.317 130.839 384.183 130.948 384.016 131.022C383.851 131.095 383.675 131.126 383.486 131.114C383.291 131.102 383.117 131.05 382.963 130.956C382.809 130.86 382.691 130.733 382.609 130.573C382.527 130.414 382.492 130.234 382.505 130.032C382.514 129.881 382.551 129.738 382.617 129.605C382.682 129.468 382.793 129.291 382.951 129.074L383.653 128.104L384.289 128.143L383.654 128.996C383.604 129.066 383.549 129.135 383.491 129.205C383.557 129.19 383.63 129.185 383.711 129.19ZM383.514 130.589C383.641 130.597 383.746 130.561 383.83 130.483C383.914 130.402 383.96 130.294 383.968 130.159C383.976 130.024 383.944 129.913 383.871 129.824C383.798 129.734 383.698 129.684 383.571 129.676C383.442 129.668 383.335 129.705 383.252 129.786C383.168 129.865 383.122 129.971 383.114 130.106C383.105 130.243 383.137 130.356 383.21 130.445C383.286 130.533 383.387 130.581 383.514 130.589ZM385.208 131.229C385.116 131.224 385.04 131.185 384.98 131.114C384.919 131.042 384.892 130.96 384.898 130.866C384.903 130.771 384.941 130.692 385.01 130.629C385.079 130.566 385.159 130.537 385.251 130.543C385.345 130.549 385.423 130.587 385.484 130.659C385.547 130.73 385.576 130.813 385.57 130.907C385.564 131.001 385.525 131.08 385.453 131.143C385.384 131.207 385.303 131.235 385.208 131.229ZM387.554 129.769C387.714 129.842 387.834 129.941 387.913 130.067C387.992 130.191 388.026 130.342 388.015 130.52C388.003 130.703 387.946 130.857 387.843 130.984C387.744 131.107 387.612 131.199 387.448 131.259C387.288 131.317 387.111 131.34 386.92 131.327C386.674 131.312 386.463 131.241 386.287 131.114C386.113 130.987 385.996 130.811 385.934 130.585L386.416 130.348C386.451 130.49 386.515 130.601 386.611 130.68C386.706 130.756 386.816 130.798 386.94 130.806C387.062 130.813 387.165 130.784 387.25 130.72C387.339 130.655 387.386 130.561 387.394 130.436C387.411 130.165 387.212 130.016 386.796 129.99L386.687 129.983L386.717 129.498L386.875 129.508C387.029 129.518 387.149 129.489 387.234 129.421C387.322 129.351 387.37 129.261 387.377 129.15C387.383 129.048 387.354 128.963 387.291 128.897C387.227 128.831 387.142 128.795 387.034 128.788C386.917 128.781 386.814 128.813 386.723 128.882C386.635 128.95 386.563 129.051 386.509 129.185L386.079 128.903C386.164 128.682 386.297 128.517 386.48 128.409C386.663 128.299 386.875 128.251 387.115 128.266C387.301 128.278 387.462 128.323 387.598 128.402C387.737 128.478 387.842 128.58 387.912 128.709C387.983 128.838 388.013 128.983 388.003 129.144C387.994 129.295 387.95 129.424 387.873 129.53C387.799 129.636 387.692 129.716 387.554 129.769ZM389.832 129.173C389.823 129.318 389.783 129.446 389.711 129.555C389.639 129.661 389.547 129.74 389.432 129.793C389.318 129.845 389.194 129.867 389.062 129.859C388.933 129.851 388.814 129.814 388.707 129.748C388.601 129.682 388.517 129.591 388.456 129.477C388.398 129.36 388.374 129.228 388.383 129.083C388.392 128.937 388.433 128.812 388.504 128.705C388.579 128.599 388.673 128.52 388.787 128.467C388.902 128.412 389.024 128.389 389.153 128.397C389.286 128.405 389.405 128.444 389.512 128.512C389.619 128.578 389.701 128.669 389.759 128.783C389.817 128.897 389.842 129.028 389.832 129.173ZM390.689 128.545L391.263 128.581L389.31 131.427L388.735 131.392L390.689 128.545ZM389.379 129.145C389.385 129.053 389.363 128.979 389.316 128.922C389.268 128.862 389.205 128.83 389.127 128.825C389.051 128.82 388.986 128.845 388.931 128.898C388.876 128.948 388.846 129.02 388.841 129.111C388.835 129.2 388.856 129.275 388.904 129.334C388.952 129.394 389.013 129.426 389.089 129.431C389.167 129.436 389.234 129.411 389.289 129.358C389.343 129.305 389.373 129.234 389.379 129.145ZM391.615 130.885C391.606 131.031 391.566 131.158 391.494 131.267C391.422 131.373 391.329 131.453 391.215 131.505C391.101 131.557 390.978 131.579 390.845 131.571C390.715 131.563 390.597 131.526 390.49 131.46C390.383 131.394 390.3 131.304 390.239 131.189C390.181 131.072 390.157 130.941 390.166 130.795C390.175 130.65 390.215 130.524 390.287 130.417C390.362 130.311 390.456 130.232 390.57 130.18C390.685 130.125 390.807 130.101 390.936 130.109C391.069 130.117 391.188 130.156 391.295 130.225C391.402 130.291 391.484 130.381 391.542 130.495C391.6 130.61 391.624 130.74 391.615 130.885ZM391.162 130.857C391.168 130.765 391.145 130.691 391.095 130.634C391.047 130.574 390.985 130.542 390.91 130.537C390.834 130.533 390.769 130.557 390.714 130.61C390.659 130.661 390.629 130.732 390.624 130.824C390.618 130.913 390.639 130.987 390.687 131.046C390.735 131.106 390.796 131.138 390.872 131.143C390.947 131.148 391.012 131.123 391.067 131.07C391.125 131.017 391.157 130.946 391.162 130.857Z" fill="white" stroke="#07828B" stroke-width="0.57947" mask="url(#path-21-inside-1_6104_4531)"/>
<path d="M372.315 151.621L372.564 151.649L383.153 153.199C384.356 153.376 384.94 154.744 384.273 155.727L384.205 155.821V155.822L384.167 155.868C383.358 156.903 382.084 157.457 380.784 157.355L380.524 157.325L370.128 155.807C368.992 155.641 368.398 154.406 368.915 153.433L369.033 153.242L369.128 153.109C369.86 152.086 371.071 151.527 372.315 151.621Z" fill="white" stroke="#07828B" stroke-width="0.289735"/>
<path d="M371.891 152.539L373.437 152.715L373.279 153.098L372.203 152.975L371.97 153.537L372.933 153.647L372.776 154.027L371.813 153.917L371.45 154.795L370.98 154.742L371.891 152.539ZM372.973 154.153C373.041 153.99 373.139 153.851 373.268 153.736C373.399 153.621 373.545 153.538 373.704 153.486C373.864 153.433 374.021 153.415 374.174 153.433C374.325 153.45 374.452 153.5 374.553 153.583C374.657 153.665 374.723 153.772 374.749 153.905C374.778 154.039 374.758 154.187 374.691 154.349C374.624 154.512 374.525 154.65 374.393 154.766C374.264 154.881 374.12 154.965 373.96 155.016C373.803 155.067 373.649 155.084 373.498 155.067C373.345 155.049 373.216 155 373.111 154.919C373.007 154.837 372.94 154.73 372.912 154.597C372.886 154.463 372.906 154.315 372.973 154.153ZM373.44 154.206C373.383 154.345 373.374 154.459 373.413 154.55C373.456 154.638 373.533 154.69 373.646 154.702C373.758 154.715 373.867 154.686 373.974 154.614C374.082 154.54 374.164 154.434 374.221 154.295C374.279 154.157 374.287 154.042 374.248 153.952C374.209 153.861 374.133 153.81 374.02 153.797C373.908 153.784 373.797 153.814 373.687 153.888C373.58 153.962 373.497 154.068 373.44 154.206ZM375.145 155.217L374.695 155.166L375.642 152.876L376.093 152.927L375.145 155.217ZM376.013 155.316L375.562 155.265L376.509 152.975L376.96 153.026L376.013 155.316ZM376.655 154.573C376.722 154.411 376.82 154.272 376.949 154.156C377.081 154.041 377.226 153.958 377.385 153.907C377.545 153.853 377.702 153.836 377.855 153.853C378.007 153.87 378.133 153.921 378.235 154.003C378.339 154.085 378.404 154.192 378.431 154.325C378.459 154.459 378.44 154.607 378.373 154.769C378.305 154.932 378.206 155.07 378.075 155.186C377.945 155.301 377.801 155.385 377.642 155.436C377.485 155.487 377.331 155.504 377.18 155.487C377.026 155.469 376.897 155.42 376.793 155.339C376.688 155.258 376.622 155.15 376.593 155.017C376.567 154.883 376.587 154.736 376.655 154.573ZM377.121 154.626C377.064 154.765 377.055 154.879 377.095 154.97C377.137 155.059 377.215 155.11 377.327 155.122C377.439 155.135 377.549 155.106 377.655 155.034C377.763 154.96 377.845 154.854 377.903 154.716C377.96 154.577 377.969 154.463 377.929 154.372C377.89 154.281 377.814 154.23 377.702 154.217C377.589 154.204 377.478 154.235 377.368 154.308C377.261 154.382 377.179 154.488 377.121 154.626ZM380.249 154.167L380.196 155.179L380.929 154.245L381.367 154.295L380.111 155.781L379.79 155.744L379.799 154.752L379.041 155.658L378.717 155.622L378.725 153.993L379.189 154.046L379.135 155.07L379.873 154.124L380.249 154.167Z" fill="#07828B"/>
<defs>
<linearGradient id="paint0_linear_6104_4531" x1="281.659" y1="58.9153" x2="268.708" y2="116.196" gradientUnits="userSpaceOnUse">
<stop stop-color="#33F39A"/>
<stop offset="0.31638" stop-color="#7FE2B3"/>
<stop offset="0.655" stop-color="white"/>
<stop offset="1" stop-color="#EEEEEE"/>
</linearGradient>
<linearGradient id="paint1_linear_6104_4531" x1="264.528" y1="63.3848" x2="250.093" y2="93.4719" gradientUnits="userSpaceOnUse">
<stop stop-color="#006647"/>
<stop offset="1" stop-color="#07828B"/>
</linearGradient>
<linearGradient id="paint2_linear_6104_4531" x1="388.407" y1="76.1648" x2="385.917" y2="94.6925" gradientUnits="userSpaceOnUse">
<stop stop-color="#006647"/>
<stop offset="1" stop-color="#07828B"/>
</linearGradient>
<linearGradient id="paint3_linear_6104_4531" x1="231.795" y1="109.032" x2="323.339" y2="150.345" gradientUnits="userSpaceOnUse">
<stop stop-color="white"/>
<stop offset="0.436664" stop-color="#006647"/>
<stop offset="1" stop-color="#07828B"/>
</linearGradient>
<linearGradient id="paint4_linear_6104_4531" x1="246.733" y1="113.892" x2="373.2" y2="129.2" gradientUnits="userSpaceOnUse">
<stop stop-color="white"/>
<stop offset="0.28" stop-color="#006647"/>
<stop offset="1" stop-color="#07828B"/>
</linearGradient>
<linearGradient id="paint5_linear_6104_4531" x1="395.748" y1="74.8006" x2="344.894" y2="195.55" gradientUnits="userSpaceOnUse">
<stop stop-color="#33F39A"/>
<stop offset="0.31638" stop-color="#509775"/>
<stop offset="0.655" stop-color="white"/>
<stop offset="1"/>
</linearGradient>
<linearGradient id="paint6_linear_6104_4531" x1="330.644" y1="72.9563" x2="296.245" y2="140.712" gradientUnits="userSpaceOnUse">
<stop stop-color="#006647"/>
<stop offset="1" stop-color="#07828B"/>
</linearGradient>
<linearGradient id="paint7_linear_6104_4531" x1="368.809" y1="151.882" x2="371.491" y2="190.87" gradientUnits="userSpaceOnUse">
<stop stop-color="#07828B" stop-opacity="0.5"/>
<stop offset="1" stop-color="#07828B" stop-opacity="0.2"/>
</linearGradient>
<linearGradient id="paint8_linear_6104_4531" x1="412.603" y1="100.117" x2="412.194" y2="149.573" gradientUnits="userSpaceOnUse">
<stop stop-color="#07828B"/>
<stop offset="0.265" stop-color="#5AB8DB"/>
<stop offset="0.765" stop-color="#07828B"/>
</linearGradient>
<linearGradient id="paint9_linear_6104_4531" x1="381.078" y1="160.518" x2="375.166" y2="122.504" gradientUnits="userSpaceOnUse">
<stop stop-color="#07828B"/>
<stop offset="1" stop-color="white"/>
</linearGradient>
</defs>
</svg>
