<svg width="370" height="160" viewBox="0 0 370 160" fill="none" xmlns="http://www.w3.org/2000/svg">
<rect width="370" height="160" rx="16" fill="#CDE6E8"/>
<path d="M20.384 34V28.416L20.496 29.2L15.968 22.8H18.736L22.192 27.76L21.104 27.712L24.224 22.8H26.896L22.56 29.376L22.8 28.288V34H20.384ZM28.3154 34V22.8H30.5074L34.5874 29.44L33.1474 29.424L37.2754 22.8H39.3714V34H37.0194V30.16C37.0194 29.2 37.0407 28.336 37.0834 27.568C37.1367 26.8 37.222 26.0373 37.3394 25.28L37.6274 26.032L34.3474 31.12H33.2914L30.0754 26.064L30.3474 25.28C30.4647 25.9947 30.5447 26.7307 30.5874 27.488C30.6407 28.2347 30.6674 29.1253 30.6674 30.16V34H28.3154ZM42.2841 34V22.8H49.8521V24.912H44.6361V31.888H49.9641V34H42.2841ZM43.4041 29.312V27.264H49.0841V29.312H43.4041ZM59.0964 34L55.6244 28.976L51.1764 22.8H54.1204L57.5124 27.76L62.0404 34H59.0964ZM51.0964 34L55.3684 27.904L57.1924 29.168L53.8804 34H51.0964ZM57.7684 28.8L55.9604 27.584L59.0964 22.8H61.8804L57.7684 28.8ZM73.4305 34.16C72.6092 34.16 71.8518 34.0213 71.1585 33.744C70.4758 33.456 69.8785 33.056 69.3665 32.544C68.8652 32.0213 68.4758 31.408 68.1985 30.704C67.9212 29.9893 67.7825 29.2107 67.7825 28.368C67.7825 27.5467 67.9265 26.7893 68.2145 26.096C68.5025 25.392 68.9078 24.784 69.4305 24.272C69.9532 23.7493 70.5665 23.344 71.2705 23.056C71.9745 22.768 72.7372 22.624 73.5585 22.624C74.0918 22.624 74.6145 22.6987 75.1265 22.848C75.6492 22.9867 76.1238 23.1947 76.5505 23.472C76.9878 23.7493 77.3612 24.08 77.6705 24.464L76.1665 26.128C75.9212 25.872 75.6598 25.6533 75.3825 25.472C75.1052 25.28 74.8118 25.136 74.5025 25.04C74.2038 24.9333 73.8838 24.88 73.5425 24.88C73.0838 24.88 72.6518 24.9653 72.2465 25.136C71.8518 25.3067 71.5052 25.5467 71.2065 25.856C70.9078 26.1547 70.6678 26.5227 70.4865 26.96C70.3158 27.3867 70.2305 27.8613 70.2305 28.384C70.2305 28.9173 70.3158 29.4027 70.4865 29.84C70.6572 30.2667 70.8972 30.6347 71.2065 30.944C71.5158 31.2427 71.8838 31.4773 72.3105 31.648C72.7478 31.808 73.2278 31.888 73.7505 31.888C74.0918 31.888 74.4225 31.84 74.7425 31.744C75.0625 31.648 75.3558 31.5147 75.6225 31.344C75.8998 31.1733 76.1452 30.976 76.3585 30.752L77.5425 32.624C77.2758 32.912 76.9238 33.1733 76.4865 33.408C76.0598 33.6427 75.5798 33.8293 75.0465 33.968C74.5132 34.096 73.9745 34.16 73.4305 34.16ZM83.1658 34.16C82.3018 34.16 81.5284 33.9733 80.8458 33.6C80.1738 33.216 79.6404 32.6933 79.2458 32.032C78.8618 31.3707 78.6698 30.6133 78.6698 29.76C78.6698 28.9067 78.8618 28.1493 79.2458 27.488C79.6404 26.8267 80.1738 26.3093 80.8458 25.936C81.5284 25.552 82.3018 25.36 83.1658 25.36C84.0191 25.36 84.7818 25.552 85.4538 25.936C86.1364 26.3093 86.6698 26.8267 87.0538 27.488C87.4378 28.1493 87.6298 28.9067 87.6298 29.76C87.6298 30.6133 87.4378 31.3707 87.0538 32.032C86.6698 32.6933 86.1364 33.216 85.4538 33.6C84.7818 33.9733 84.0191 34.16 83.1658 34.16ZM83.1658 32.176C83.5818 32.176 83.9551 32.0747 84.2858 31.872C84.6164 31.6587 84.8724 31.3707 85.0538 31.008C85.2458 30.6347 85.3364 30.2187 85.3258 29.76C85.3364 29.2907 85.2458 28.8747 85.0538 28.512C84.8724 28.1387 84.6164 27.8507 84.2858 27.648C83.9551 27.4347 83.5818 27.328 83.1658 27.328C82.7391 27.328 82.3604 27.4347 82.0298 27.648C81.6991 27.8613 81.4378 28.1493 81.2458 28.512C81.0538 28.8747 80.9631 29.2907 80.9738 29.76C80.9631 30.2187 81.0538 30.6347 81.2458 31.008C81.4378 31.3707 81.6991 31.6587 82.0298 31.872C82.3604 32.0747 82.7391 32.176 83.1658 32.176ZM89.3548 37.52V25.536H91.5468L91.6108 27.44L91.1948 27.296C91.2694 26.9547 91.4508 26.64 91.7388 26.352C92.0374 26.064 92.4054 25.8293 92.8428 25.648C93.2801 25.4667 93.7388 25.376 94.2188 25.376C94.9548 25.376 95.6108 25.568 96.1868 25.952C96.7628 26.3253 97.2161 26.8427 97.5468 27.504C97.8774 28.1547 98.0428 28.9067 98.0428 29.76C98.0428 30.6027 97.8774 31.3547 97.5468 32.016C97.2161 32.6773 96.7628 33.2 96.1868 33.584C95.6108 33.9573 94.9548 34.144 94.2188 34.144C93.7281 34.144 93.2588 34.0533 92.8108 33.872C92.3734 33.68 92.0001 33.4293 91.6908 33.12C91.3921 32.8107 91.2001 32.48 91.1148 32.128L91.6428 31.904V37.52H89.3548ZM93.7068 32.192C94.1228 32.192 94.4908 32.0907 94.8108 31.888C95.1308 31.6853 95.3814 31.4027 95.5628 31.04C95.7441 30.6667 95.8348 30.24 95.8348 29.76C95.8348 29.28 95.7441 28.8587 95.5628 28.496C95.3814 28.1333 95.1308 27.8507 94.8108 27.648C94.5014 27.4453 94.1334 27.344 93.7068 27.344C93.2801 27.344 92.9068 27.4453 92.5868 27.648C92.2668 27.84 92.0161 28.1227 91.8348 28.496C91.6534 28.8587 91.5628 29.28 91.5628 29.76C91.5628 30.24 91.6534 30.6667 91.8348 31.04C92.0161 31.4027 92.2668 31.6853 92.5868 31.888C92.9068 32.0907 93.2801 32.192 93.7068 32.192ZM100.633 37.68L102.489 33.328L102.521 34.64L98.3925 25.536H100.969L103.033 30.416C103.118 30.5973 103.198 30.8107 103.273 31.056C103.358 31.2907 103.427 31.5147 103.481 31.728L103.097 31.904C103.171 31.7227 103.246 31.5147 103.321 31.28C103.406 31.0453 103.491 30.7947 103.577 30.528L105.353 25.536H107.945L104.393 34L102.937 37.68H100.633ZM116.73 34V24.96H113.465V22.8H122.49V24.96H119.13V34H116.73ZM123.199 34V25.536H125.391L125.471 28.256L125.087 27.696C125.215 27.2587 125.423 26.864 125.711 26.512C125.999 26.1493 126.335 25.8667 126.719 25.664C127.113 25.4613 127.524 25.36 127.951 25.36C128.132 25.36 128.308 25.376 128.479 25.408C128.649 25.44 128.793 25.4773 128.911 25.52L128.303 28.016C128.185 27.952 128.031 27.8987 127.839 27.856C127.657 27.8027 127.471 27.776 127.279 27.776C127.023 27.776 126.783 27.824 126.559 27.92C126.345 28.0053 126.159 28.1333 125.999 28.304C125.839 28.464 125.711 28.656 125.615 28.88C125.529 29.104 125.487 29.3493 125.487 29.616V34H123.199ZM133.023 34.16C132.319 34.16 131.684 33.968 131.119 33.584C130.553 33.2 130.105 32.6773 129.775 32.016C129.444 31.3547 129.279 30.5973 129.279 29.744C129.279 28.8907 129.444 28.1333 129.775 27.472C130.116 26.8107 130.575 26.2933 131.151 25.92C131.727 25.5467 132.383 25.36 133.119 25.36C133.535 25.36 133.913 25.424 134.255 25.552C134.607 25.6693 134.911 25.8347 135.167 26.048C135.433 26.2613 135.657 26.5067 135.839 26.784C136.02 27.0613 136.148 27.36 136.223 27.68L135.743 27.6V25.536H137.999V34H135.711V31.968L136.223 31.92C136.137 32.2187 135.999 32.5013 135.807 32.768C135.615 33.0347 135.375 33.2747 135.087 33.488C134.809 33.6907 134.495 33.856 134.143 33.984C133.791 34.1013 133.417 34.16 133.023 34.16ZM133.647 32.192C134.073 32.192 134.447 32.0907 134.767 31.888C135.087 31.6853 135.332 31.4027 135.503 31.04C135.684 30.6667 135.775 30.2347 135.775 29.744C135.775 29.264 135.684 28.8427 135.503 28.48C135.332 28.1173 135.087 27.8347 134.767 27.632C134.447 27.4187 134.073 27.312 133.647 27.312C133.231 27.312 132.863 27.4187 132.543 27.632C132.233 27.8347 131.988 28.1173 131.807 28.48C131.625 28.8427 131.535 29.264 131.535 29.744C131.535 30.2347 131.625 30.6667 131.807 31.04C131.988 31.4027 132.233 31.6853 132.543 31.888C132.863 32.0907 133.231 32.192 133.647 32.192ZM143.589 34.16C142.842 34.16 142.175 33.9733 141.589 33.6C141.013 33.216 140.554 32.6987 140.213 32.048C139.882 31.3867 139.717 30.624 139.717 29.76C139.717 28.9173 139.882 28.1653 140.213 27.504C140.554 26.832 141.013 26.3093 141.589 25.936C142.175 25.552 142.842 25.36 143.589 25.36C143.983 25.36 144.362 25.424 144.725 25.552C145.098 25.6693 145.429 25.8347 145.717 26.048C146.015 26.2613 146.255 26.5013 146.437 26.768C146.618 27.024 146.719 27.2907 146.741 27.568L146.165 27.68V22.16H148.453V34H146.293L146.197 32.048L146.645 32.096C146.623 32.3627 146.527 32.6187 146.357 32.864C146.186 33.1093 145.957 33.3333 145.669 33.536C145.391 33.728 145.071 33.8827 144.709 34C144.357 34.1067 143.983 34.16 143.589 34.16ZM144.101 32.272C144.527 32.272 144.901 32.1653 145.221 31.952C145.541 31.7387 145.791 31.4453 145.973 31.072C146.154 30.6987 146.245 30.2613 146.245 29.76C146.245 29.2693 146.154 28.8373 145.973 28.464C145.791 28.0907 145.541 27.7973 145.221 27.584C144.901 27.3707 144.527 27.264 144.101 27.264C143.674 27.264 143.301 27.3707 142.981 27.584C142.671 27.7973 142.426 28.0907 142.245 28.464C142.074 28.8373 141.989 29.2693 141.989 29.76C141.989 30.2613 142.074 30.6987 142.245 31.072C142.426 31.4453 142.671 31.7387 142.981 31.952C143.301 32.1653 143.674 32.272 144.101 32.272ZM150.844 34V25.536H153.116V34H150.844ZM151.964 23.808C151.526 23.808 151.185 23.7013 150.94 23.488C150.694 23.264 150.572 22.9547 150.572 22.56C150.572 22.1973 150.694 21.904 150.94 21.68C151.196 21.4453 151.537 21.328 151.964 21.328C152.401 21.328 152.742 21.44 152.988 21.664C153.233 21.8773 153.356 22.176 153.356 22.56C153.356 22.9227 153.228 23.2213 152.972 23.456C152.726 23.6907 152.39 23.808 151.964 23.808ZM155.542 34V25.536H157.718L157.782 27.264L157.334 27.456C157.452 27.072 157.66 26.7253 157.958 26.416C158.268 26.096 158.636 25.84 159.062 25.648C159.489 25.456 159.937 25.36 160.406 25.36C161.046 25.36 161.58 25.488 162.006 25.744C162.444 26 162.769 26.3893 162.982 26.912C163.206 27.424 163.318 28.0587 163.318 28.816V34H161.046V28.992C161.046 28.608 160.993 28.288 160.886 28.032C160.78 27.776 160.614 27.5893 160.39 27.472C160.177 27.3547 159.91 27.3013 159.59 27.312C159.334 27.312 159.094 27.3547 158.87 27.44C158.657 27.5147 158.47 27.6267 158.31 27.776C158.161 27.9253 158.038 28.096 157.942 28.288C157.857 28.48 157.814 28.688 157.814 28.912V34H156.694C156.449 34 156.23 34 156.038 34C155.846 34 155.681 34 155.542 34ZM169.351 37.68C168.679 37.68 168.018 37.5787 167.367 37.376C166.717 37.184 166.183 36.928 165.767 36.608L166.583 34.992C166.797 35.1413 167.042 35.2747 167.319 35.392C167.597 35.5093 167.885 35.6 168.183 35.664C168.493 35.728 168.807 35.76 169.127 35.76C169.682 35.76 170.135 35.6747 170.487 35.504C170.85 35.3333 171.122 35.0773 171.303 34.736C171.485 34.3947 171.575 33.968 171.575 33.456V31.984L171.959 32.064C171.895 32.416 171.714 32.7413 171.415 33.04C171.127 33.328 170.765 33.5627 170.327 33.744C169.901 33.9147 169.453 34 168.983 34C168.205 34 167.511 33.8187 166.903 33.456C166.295 33.0933 165.815 32.592 165.463 31.952C165.111 31.312 164.935 30.5707 164.935 29.728C164.935 28.8853 165.106 28.1387 165.447 27.488C165.799 26.8267 166.274 26.3093 166.871 25.936C167.479 25.552 168.167 25.36 168.935 25.36C169.255 25.36 169.559 25.3973 169.847 25.472C170.146 25.5467 170.418 25.6533 170.663 25.792C170.919 25.92 171.143 26.0693 171.335 26.24C171.538 26.4 171.703 26.576 171.831 26.768C171.959 26.96 172.039 27.152 172.071 27.344L171.607 27.472L171.671 25.536H173.847V33.36C173.847 34.0533 173.746 34.6667 173.543 35.2C173.341 35.7333 173.042 36.1813 172.647 36.544C172.263 36.9173 171.789 37.2 171.223 37.392C170.669 37.584 170.045 37.68 169.351 37.68ZM169.415 32.176C169.863 32.176 170.253 32.0747 170.583 31.872C170.925 31.6693 171.186 31.3867 171.367 31.024C171.549 30.6613 171.639 30.2347 171.639 29.744C171.639 29.264 171.549 28.8427 171.367 28.48C171.186 28.1067 170.925 27.8187 170.583 27.616C170.253 27.4133 169.863 27.312 169.415 27.312C168.978 27.312 168.594 27.4187 168.263 27.632C167.933 27.8347 167.671 28.1227 167.479 28.496C167.298 28.8587 167.207 29.2747 167.207 29.744C167.207 30.224 167.298 30.6507 167.479 31.024C167.671 31.3867 167.933 31.6693 168.263 31.872C168.594 32.0747 168.978 32.176 169.415 32.176ZM19.792 58V48.96H16.528V46.8H25.552V48.96H22.192V58H19.792ZM26.261 58V49.536H28.453L28.533 52.256L28.149 51.696C28.277 51.2587 28.485 50.864 28.773 50.512C29.061 50.1493 29.397 49.8667 29.781 49.664C30.1757 49.4613 30.5863 49.36 31.013 49.36C31.1943 49.36 31.3703 49.376 31.541 49.408C31.7117 49.44 31.8557 49.4773 31.973 49.52L31.365 52.016C31.2477 51.952 31.093 51.8987 30.901 51.856C30.7197 51.8027 30.533 51.776 30.341 51.776C30.085 51.776 29.845 51.824 29.621 51.92C29.4077 52.0053 29.221 52.1333 29.061 52.304C28.901 52.464 28.773 52.656 28.677 52.88C28.5917 53.104 28.549 53.3493 28.549 53.616V58H26.261ZM36.0853 58.16C35.3813 58.16 34.7466 57.968 34.1813 57.584C33.6159 57.2 33.1679 56.6773 32.8372 56.016C32.5066 55.3547 32.3413 54.5973 32.3413 53.744C32.3413 52.8907 32.5066 52.1333 32.8372 51.472C33.1786 50.8107 33.6373 50.2933 34.2133 49.92C34.7893 49.5467 35.4453 49.36 36.1813 49.36C36.5973 49.36 36.9759 49.424 37.3173 49.552C37.6693 49.6693 37.9733 49.8347 38.2293 50.048C38.4959 50.2613 38.7199 50.5067 38.9013 50.784C39.0826 51.0613 39.2106 51.36 39.2853 51.68L38.8053 51.6V49.536H41.0613V58H38.7733V55.968L39.2853 55.92C39.1999 56.2187 39.0613 56.5013 38.8693 56.768C38.6773 57.0347 38.4373 57.2747 38.1493 57.488C37.8719 57.6907 37.5573 57.856 37.2053 57.984C36.8533 58.1013 36.4799 58.16 36.0853 58.16ZM36.7093 56.192C37.1359 56.192 37.5093 56.0907 37.8293 55.888C38.1493 55.6853 38.3946 55.4027 38.5653 55.04C38.7466 54.6667 38.8373 54.2347 38.8373 53.744C38.8373 53.264 38.7466 52.8427 38.5653 52.48C38.3946 52.1173 38.1493 51.8347 37.8293 51.632C37.5093 51.4187 37.1359 51.312 36.7093 51.312C36.2933 51.312 35.9253 51.4187 35.6053 51.632C35.2959 51.8347 35.0506 52.1173 34.8693 52.48C34.6879 52.8427 34.5973 53.264 34.5973 53.744C34.5973 54.2347 34.6879 54.6667 34.8693 55.04C35.0506 55.4027 35.2959 55.6853 35.6053 55.888C35.9253 56.0907 36.2933 56.192 36.7093 56.192ZM46.6511 58.16C45.9045 58.16 45.2378 57.9733 44.6511 57.6C44.0751 57.216 43.6165 56.6987 43.2751 56.048C42.9445 55.3867 42.7791 54.624 42.7791 53.76C42.7791 52.9173 42.9445 52.1653 43.2751 51.504C43.6165 50.832 44.0751 50.3093 44.6511 49.936C45.2378 49.552 45.9045 49.36 46.6511 49.36C47.0458 49.36 47.4245 49.424 47.7871 49.552C48.1605 49.6693 48.4911 49.8347 48.7791 50.048C49.0778 50.2613 49.3178 50.5013 49.4991 50.768C49.6805 51.024 49.7818 51.2907 49.8031 51.568L49.2271 51.68V46.16H51.5151V58H49.3551L49.2591 56.048L49.7071 56.096C49.6858 56.3627 49.5898 56.6187 49.4191 56.864C49.2485 57.1093 49.0191 57.3333 48.7311 57.536C48.4538 57.728 48.1338 57.8827 47.7711 58C47.4191 58.1067 47.0458 58.16 46.6511 58.16ZM47.1631 56.272C47.5898 56.272 47.9631 56.1653 48.2831 55.952C48.6031 55.7387 48.8538 55.4453 49.0351 55.072C49.2165 54.6987 49.3071 54.2613 49.3071 53.76C49.3071 53.2693 49.2165 52.8373 49.0351 52.464C48.8538 52.0907 48.6031 51.7973 48.2831 51.584C47.9631 51.3707 47.5898 51.264 47.1631 51.264C46.7365 51.264 46.3631 51.3707 46.0431 51.584C45.7338 51.7973 45.4885 52.0907 45.3071 52.464C45.1365 52.8373 45.0511 53.2693 45.0511 53.76C45.0511 54.2613 45.1365 54.6987 45.3071 55.072C45.4885 55.4453 45.7338 55.7387 46.0431 55.952C46.3631 56.1653 46.7365 56.272 47.1631 56.272ZM53.9061 58V49.536H56.1781V58H53.9061ZM55.0261 47.808C54.5888 47.808 54.2475 47.7013 54.0021 47.488C53.7568 47.264 53.6341 46.9547 53.6341 46.56C53.6341 46.1973 53.7568 45.904 54.0021 45.68C54.2581 45.4453 54.5995 45.328 55.0261 45.328C55.4635 45.328 55.8048 45.44 56.0501 45.664C56.2955 45.8773 56.4181 46.176 56.4181 46.56C56.4181 46.9227 56.2901 47.2213 56.0341 47.456C55.7888 47.6907 55.4528 47.808 55.0261 47.808ZM58.6048 58V49.536H60.7808L60.8448 51.264L60.3968 51.456C60.5141 51.072 60.7221 50.7253 61.0208 50.416C61.3301 50.096 61.6981 49.84 62.1248 49.648C62.5514 49.456 62.9994 49.36 63.4688 49.36C64.1088 49.36 64.6421 49.488 65.0688 49.744C65.5061 50 65.8314 50.3893 66.0448 50.912C66.2688 51.424 66.3808 52.0587 66.3808 52.816V58H64.1088V52.992C64.1088 52.608 64.0554 52.288 63.9488 52.032C63.8421 51.776 63.6768 51.5893 63.4528 51.472C63.2394 51.3547 62.9728 51.3013 62.6528 51.312C62.3968 51.312 62.1568 51.3547 61.9328 51.44C61.7194 51.5147 61.5328 51.6267 61.3728 51.776C61.2234 51.9253 61.1008 52.096 61.0048 52.288C60.9194 52.48 60.8768 52.688 60.8768 52.912V58H59.7568C59.5114 58 59.2928 58 59.1008 58C58.9088 58 58.7434 58 58.6048 58ZM72.4139 61.68C71.7419 61.68 71.0805 61.5787 70.4299 61.376C69.7792 61.184 69.2459 60.928 68.8299 60.608L69.6459 58.992C69.8592 59.1413 70.1045 59.2747 70.3819 59.392C70.6592 59.5093 70.9472 59.6 71.2459 59.664C71.5552 59.728 71.8699 59.76 72.1899 59.76C72.7445 59.76 73.1979 59.6747 73.5499 59.504C73.9125 59.3333 74.1845 59.0773 74.3659 58.736C74.5472 58.3947 74.6379 57.968 74.6379 57.456V55.984L75.0219 56.064C74.9579 56.416 74.7765 56.7413 74.4779 57.04C74.1899 57.328 73.8272 57.5627 73.3899 57.744C72.9632 57.9147 72.5152 58 72.0459 58C71.2672 58 70.5739 57.8187 69.9659 57.456C69.3579 57.0933 68.8779 56.592 68.5259 55.952C68.1739 55.312 67.9979 54.5707 67.9979 53.728C67.9979 52.8853 68.1685 52.1387 68.5099 51.488C68.8619 50.8267 69.3365 50.3093 69.9339 49.936C70.5419 49.552 71.2299 49.36 71.9979 49.36C72.3179 49.36 72.6219 49.3973 72.9099 49.472C73.2085 49.5467 73.4805 49.6533 73.7259 49.792C73.9819 49.92 74.2059 50.0693 74.3979 50.24C74.6005 50.4 74.7659 50.576 74.8939 50.768C75.0219 50.96 75.1019 51.152 75.1339 51.344L74.6699 51.472L74.7339 49.536H76.9099V57.36C76.9099 58.0533 76.8085 58.6667 76.6059 59.2C76.4032 59.7333 76.1045 60.1813 75.7099 60.544C75.3259 60.9173 74.8512 61.2 74.2859 61.392C73.7312 61.584 73.1072 61.68 72.4139 61.68ZM72.4779 56.176C72.9259 56.176 73.3152 56.0747 73.6459 55.872C73.9872 55.6693 74.2485 55.3867 74.4299 55.024C74.6112 54.6613 74.7019 54.2347 74.7019 53.744C74.7019 53.264 74.6112 52.8427 74.4299 52.48C74.2485 52.1067 73.9872 51.8187 73.6459 51.616C73.3152 51.4133 72.9259 51.312 72.4779 51.312C72.0405 51.312 71.6565 51.4187 71.3259 51.632C70.9952 51.8347 70.7339 52.1227 70.5419 52.496C70.3605 52.8587 70.2699 53.2747 70.2699 53.744C70.2699 54.224 70.3605 54.6507 70.5419 55.024C70.7339 55.3867 70.9952 55.6693 71.3259 55.872C71.6565 56.0747 72.0405 56.176 72.4779 56.176ZM84.2655 58V49.536H86.5375V58H84.2655ZM85.3855 47.808C84.9482 47.808 84.6068 47.7013 84.3615 47.488C84.1162 47.264 83.9935 46.9547 83.9935 46.56C83.9935 46.1973 84.1162 45.904 84.3615 45.68C84.6175 45.4453 84.9588 45.328 85.3855 45.328C85.8228 45.328 86.1642 45.44 86.4095 45.664C86.6548 45.8773 86.7775 46.176 86.7775 46.56C86.7775 46.9227 86.6495 47.2213 86.3935 47.456C86.1482 47.6907 85.8122 47.808 85.3855 47.808ZM91.8121 58.16C91.0228 58.16 90.3188 58.032 89.7001 57.776C89.0921 57.5093 88.6015 57.1467 88.2281 56.688L89.6521 55.472C89.9721 55.824 90.3348 56.08 90.7401 56.24C91.1455 56.3893 91.5508 56.464 91.9561 56.464C92.1161 56.464 92.2601 56.448 92.3881 56.416C92.5268 56.3733 92.6441 56.32 92.7401 56.256C92.8361 56.1813 92.9055 56.096 92.9481 56C93.0015 55.8933 93.0281 55.7813 93.0281 55.664C93.0281 55.4293 92.9321 55.248 92.7401 55.12C92.6335 55.056 92.4681 54.9867 92.2441 54.912C92.0201 54.8267 91.7321 54.736 91.3801 54.64C90.8361 54.5013 90.3721 54.3413 89.9881 54.16C89.6148 53.968 89.3161 53.7547 89.0921 53.52C88.9001 53.296 88.7508 53.056 88.6441 52.8C88.5481 52.5333 88.5001 52.24 88.5001 51.92C88.5001 51.536 88.5855 51.1893 88.7561 50.88C88.9268 50.56 89.1615 50.288 89.4601 50.064C89.7695 49.84 90.1215 49.6693 90.5161 49.552C90.9108 49.424 91.3268 49.36 91.7641 49.36C92.2015 49.36 92.6281 49.4133 93.0441 49.52C93.4601 49.6267 93.8441 49.7813 94.1961 49.984C94.5588 50.176 94.8735 50.4053 95.1401 50.672L93.9241 52.016C93.7321 51.8347 93.5135 51.6693 93.2681 51.52C93.0335 51.3707 92.7881 51.2533 92.5321 51.168C92.2761 51.0827 92.0468 51.04 91.8441 51.04C91.6628 51.04 91.4975 51.056 91.3481 51.088C91.2095 51.12 91.0921 51.1733 90.9961 51.248C90.9001 51.312 90.8255 51.392 90.7721 51.488C90.7295 51.584 90.7081 51.6907 90.7081 51.808C90.7081 51.9253 90.7348 52.0373 90.7881 52.144C90.8521 52.2507 90.9375 52.3413 91.0441 52.416C91.1615 52.48 91.3321 52.5547 91.5561 52.64C91.7908 52.7253 92.1055 52.8213 92.5001 52.928C93.0121 53.0667 93.4441 53.2213 93.7961 53.392C94.1588 53.5627 94.4468 53.76 94.6601 53.984C94.8415 54.176 94.9748 54.3947 95.0601 54.64C95.1455 54.8853 95.1881 55.1573 95.1881 55.456C95.1881 55.9787 95.0388 56.4427 94.7401 56.848C94.4521 57.2533 94.0521 57.5733 93.5401 57.808C93.0281 58.0427 92.4521 58.16 91.8121 58.16ZM104.562 58.16C103.773 58.16 103.069 58.032 102.45 57.776C101.842 57.5093 101.351 57.1467 100.978 56.688L102.402 55.472C102.722 55.824 103.085 56.08 103.49 56.24C103.895 56.3893 104.301 56.464 104.706 56.464C104.866 56.464 105.01 56.448 105.138 56.416C105.277 56.3733 105.394 56.32 105.49 56.256C105.586 56.1813 105.655 56.096 105.698 56C105.751 55.8933 105.778 55.7813 105.778 55.664C105.778 55.4293 105.682 55.248 105.49 55.12C105.383 55.056 105.218 54.9867 104.994 54.912C104.77 54.8267 104.482 54.736 104.13 54.64C103.586 54.5013 103.122 54.3413 102.738 54.16C102.365 53.968 102.066 53.7547 101.842 53.52C101.65 53.296 101.501 53.056 101.394 52.8C101.298 52.5333 101.25 52.24 101.25 51.92C101.25 51.536 101.335 51.1893 101.506 50.88C101.677 50.56 101.911 50.288 102.21 50.064C102.519 49.84 102.871 49.6693 103.266 49.552C103.661 49.424 104.077 49.36 104.514 49.36C104.951 49.36 105.378 49.4133 105.794 49.52C106.21 49.6267 106.594 49.7813 106.946 49.984C107.309 50.176 107.623 50.4053 107.89 50.672L106.674 52.016C106.482 51.8347 106.263 51.6693 106.018 51.52C105.783 51.3707 105.538 51.2533 105.282 51.168C105.026 51.0827 104.797 51.04 104.594 51.04C104.413 51.04 104.247 51.056 104.098 51.088C103.959 51.12 103.842 51.1733 103.746 51.248C103.65 51.312 103.575 51.392 103.522 51.488C103.479 51.584 103.458 51.6907 103.458 51.808C103.458 51.9253 103.485 52.0373 103.538 52.144C103.602 52.2507 103.687 52.3413 103.794 52.416C103.911 52.48 104.082 52.5547 104.306 52.64C104.541 52.7253 104.855 52.8213 105.25 52.928C105.762 53.0667 106.194 53.2213 106.546 53.392C106.909 53.5627 107.197 53.76 107.41 53.984C107.591 54.176 107.725 54.3947 107.81 54.64C107.895 54.8853 107.938 55.1573 107.938 55.456C107.938 55.9787 107.789 56.4427 107.49 56.848C107.202 57.2533 106.802 57.5733 106.29 57.808C105.778 58.0427 105.202 58.16 104.562 58.16ZM113.494 58.16C112.63 58.16 111.857 57.9733 111.174 57.6C110.502 57.216 109.969 56.6933 109.574 56.032C109.19 55.3707 108.998 54.6133 108.998 53.76C108.998 52.9067 109.19 52.1493 109.574 51.488C109.969 50.8267 110.502 50.3093 111.174 49.936C111.857 49.552 112.63 49.36 113.494 49.36C114.347 49.36 115.11 49.552 115.782 49.936C116.465 50.3093 116.998 50.8267 117.382 51.488C117.766 52.1493 117.958 52.9067 117.958 53.76C117.958 54.6133 117.766 55.3707 117.382 56.032C116.998 56.6933 116.465 57.216 115.782 57.6C115.11 57.9733 114.347 58.16 113.494 58.16ZM113.494 56.176C113.91 56.176 114.283 56.0747 114.614 55.872C114.945 55.6587 115.201 55.3707 115.382 55.008C115.574 54.6347 115.665 54.2187 115.654 53.76C115.665 53.2907 115.574 52.8747 115.382 52.512C115.201 52.1387 114.945 51.8507 114.614 51.648C114.283 51.4347 113.91 51.328 113.494 51.328C113.067 51.328 112.689 51.4347 112.358 51.648C112.027 51.8613 111.766 52.1493 111.574 52.512C111.382 52.8747 111.291 53.2907 111.302 53.76C111.291 54.2187 111.382 54.6347 111.574 55.008C111.766 55.3707 112.027 55.6587 112.358 55.872C112.689 56.0747 113.067 56.176 113.494 56.176ZM127.437 58.16C126.648 58.16 125.944 58.032 125.325 57.776C124.717 57.5093 124.226 57.1467 123.853 56.688L125.277 55.472C125.597 55.824 125.96 56.08 126.365 56.24C126.77 56.3893 127.176 56.464 127.581 56.464C127.741 56.464 127.885 56.448 128.013 56.416C128.152 56.3733 128.269 56.32 128.365 56.256C128.461 56.1813 128.53 56.096 128.573 56C128.626 55.8933 128.653 55.7813 128.653 55.664C128.653 55.4293 128.557 55.248 128.365 55.12C128.258 55.056 128.093 54.9867 127.869 54.912C127.645 54.8267 127.357 54.736 127.005 54.64C126.461 54.5013 125.997 54.3413 125.613 54.16C125.24 53.968 124.941 53.7547 124.717 53.52C124.525 53.296 124.376 53.056 124.269 52.8C124.173 52.5333 124.125 52.24 124.125 51.92C124.125 51.536 124.21 51.1893 124.381 50.88C124.552 50.56 124.786 50.288 125.085 50.064C125.394 49.84 125.746 49.6693 126.141 49.552C126.536 49.424 126.952 49.36 127.389 49.36C127.826 49.36 128.253 49.4133 128.669 49.52C129.085 49.6267 129.469 49.7813 129.821 49.984C130.184 50.176 130.498 50.4053 130.765 50.672L129.549 52.016C129.357 51.8347 129.138 51.6693 128.893 51.52C128.658 51.3707 128.413 51.2533 128.157 51.168C127.901 51.0827 127.672 51.04 127.469 51.04C127.288 51.04 127.122 51.056 126.973 51.088C126.834 51.12 126.717 51.1733 126.621 51.248C126.525 51.312 126.45 51.392 126.397 51.488C126.354 51.584 126.333 51.6907 126.333 51.808C126.333 51.9253 126.36 52.0373 126.413 52.144C126.477 52.2507 126.562 52.3413 126.669 52.416C126.786 52.48 126.957 52.5547 127.181 52.64C127.416 52.7253 127.73 52.8213 128.125 52.928C128.637 53.0667 129.069 53.2213 129.421 53.392C129.784 53.5627 130.072 53.76 130.285 53.984C130.466 54.176 130.6 54.3947 130.685 54.64C130.77 54.8853 130.813 55.1573 130.813 55.456C130.813 55.9787 130.664 56.4427 130.365 56.848C130.077 57.2533 129.677 57.5733 129.165 57.808C128.653 58.0427 128.077 58.16 127.437 58.16ZM132.625 58V49.536H134.897V58H132.625ZM133.745 47.808C133.308 47.808 132.966 47.7013 132.721 47.488C132.476 47.264 132.353 46.9547 132.353 46.56C132.353 46.1973 132.476 45.904 132.721 45.68C132.977 45.4453 133.318 45.328 133.745 45.328C134.182 45.328 134.524 45.44 134.769 45.664C135.014 45.8773 135.137 46.176 135.137 46.56C135.137 46.9227 135.009 47.2213 134.753 47.456C134.508 47.6907 134.172 47.808 133.745 47.808ZM137.308 58V49.536H139.5L139.548 51.152L139.212 51.216C139.329 50.9387 139.484 50.688 139.676 50.464C139.878 50.24 140.108 50.048 140.364 49.888C140.62 49.728 140.892 49.6053 141.18 49.52C141.468 49.424 141.756 49.376 142.044 49.376C142.481 49.376 142.876 49.4453 143.228 49.584C143.58 49.7227 143.878 49.9413 144.124 50.24C144.369 50.528 144.561 50.912 144.7 51.392L144.348 51.36L144.46 51.104C144.598 50.848 144.774 50.6133 144.988 50.4C145.201 50.1867 145.441 50.0053 145.708 49.856C145.974 49.7067 146.252 49.5893 146.54 49.504C146.828 49.4187 147.11 49.376 147.388 49.376C148.049 49.376 148.598 49.5093 149.036 49.776C149.473 50.032 149.798 50.4213 150.012 50.944C150.236 51.4667 150.348 52.1067 150.348 52.864V58H148.076V53.024C148.076 52.64 148.022 52.3253 147.916 52.08C147.809 51.8347 147.654 51.6533 147.452 51.536C147.249 51.408 146.988 51.344 146.668 51.344C146.422 51.344 146.193 51.3867 145.98 51.472C145.777 51.5467 145.596 51.6587 145.436 51.808C145.286 51.9467 145.169 52.1173 145.084 52.32C144.998 52.512 144.956 52.72 144.956 52.944V58H142.668V53.008C142.668 52.656 142.614 52.3573 142.508 52.112C142.401 51.856 142.246 51.664 142.044 51.536C141.841 51.408 141.59 51.344 141.292 51.344C141.046 51.344 140.817 51.3867 140.604 51.472C140.401 51.5467 140.225 51.6587 140.076 51.808C139.926 51.9467 139.809 52.112 139.724 52.304C139.638 52.496 139.596 52.704 139.596 52.928V58H137.308ZM152.511 61.52V49.536H154.703L154.767 51.44L154.351 51.296C154.426 50.9547 154.607 50.64 154.895 50.352C155.194 50.064 155.562 49.8293 155.999 49.648C156.436 49.4667 156.895 49.376 157.375 49.376C158.111 49.376 158.767 49.568 159.343 49.952C159.919 50.3253 160.372 50.8427 160.703 51.504C161.034 52.1547 161.199 52.9067 161.199 53.76C161.199 54.6027 161.034 55.3547 160.703 56.016C160.372 56.6773 159.919 57.2 159.343 57.584C158.767 57.9573 158.111 58.144 157.375 58.144C156.884 58.144 156.415 58.0533 155.967 57.872C155.53 57.68 155.156 57.4293 154.847 57.12C154.548 56.8107 154.356 56.48 154.271 56.128L154.799 55.904V61.52H152.511ZM156.863 56.192C157.279 56.192 157.647 56.0907 157.967 55.888C158.287 55.6853 158.538 55.4027 158.719 55.04C158.9 54.6667 158.991 54.24 158.991 53.76C158.991 53.28 158.9 52.8587 158.719 52.496C158.538 52.1333 158.287 51.8507 157.967 51.648C157.658 51.4453 157.29 51.344 156.863 51.344C156.436 51.344 156.063 51.4453 155.743 51.648C155.423 51.84 155.172 52.1227 154.991 52.496C154.81 52.8587 154.719 53.28 154.719 53.76C154.719 54.24 154.81 54.6667 154.991 55.04C155.172 55.4027 155.423 55.6853 155.743 55.888C156.063 56.0907 156.436 56.192 156.863 56.192ZM162.933 58V46.16H165.205V58H162.933ZM171.371 58.16C170.453 58.16 169.648 57.9733 168.955 57.6C168.272 57.2267 167.739 56.7147 167.355 56.064C166.981 55.4133 166.795 54.6667 166.795 53.824C166.795 53.1627 166.901 52.56 167.115 52.016C167.328 51.472 167.627 51.0027 168.011 50.608C168.395 50.2027 168.848 49.8933 169.371 49.68C169.904 49.456 170.48 49.344 171.099 49.344C171.675 49.344 172.208 49.4507 172.699 49.664C173.189 49.8773 173.611 50.176 173.963 50.56C174.325 50.9333 174.603 51.3813 174.795 51.904C174.987 52.416 175.072 52.9707 175.051 53.568L175.035 54.272H168.235L167.867 52.88H173.163L172.907 53.168V52.816C172.885 52.528 172.789 52.272 172.619 52.048C172.459 51.8133 172.251 51.632 171.995 51.504C171.739 51.3653 171.451 51.296 171.131 51.296C170.661 51.296 170.261 51.3867 169.931 51.568C169.611 51.7493 169.365 52.016 169.195 52.368C169.024 52.72 168.939 53.1467 168.939 53.648C168.939 54.16 169.045 54.6027 169.259 54.976C169.483 55.3493 169.792 55.6427 170.187 55.856C170.592 56.0587 171.067 56.16 171.611 56.16C171.984 56.16 172.325 56.1013 172.635 55.984C172.944 55.8667 173.275 55.664 173.627 55.376L174.715 56.896C174.405 57.1733 174.064 57.408 173.691 57.6C173.317 57.7813 172.933 57.92 172.539 58.016C172.144 58.112 171.755 58.16 171.371 58.16Z" fill="black"/>
<path d="M229.507 61.7019L229.507 61.7016C225.017 56.2601 224.845 49.152 228.954 45.7591L228.954 45.7586C229.344 45.434 230.077 44.9292 230.72 44.5004C231.04 44.2872 231.336 44.0947 231.551 43.9555C231.658 43.8859 231.746 43.8297 231.806 43.7908C231.817 43.7842 231.826 43.778 231.835 43.7725C231.843 43.7736 231.852 43.7748 231.861 43.7762C231.929 43.7859 232.029 43.8009 232.158 43.8214C232.416 43.8626 232.79 43.9264 233.249 44.0168C234.169 44.1977 235.434 44.4848 236.812 44.9096C239.58 45.7624 242.764 47.1572 244.567 49.3251C245.471 50.4242 246.074 51.896 246.465 53.5008C246.856 55.104 247.033 56.8259 247.094 58.4127C247.155 59.9987 247.1 61.4446 247.029 62.4943C246.994 63.0191 246.955 63.4444 246.925 63.738C246.91 63.8847 246.897 63.9988 246.888 64.0758C246.887 64.0834 246.886 64.0908 246.886 64.0977L246.881 64.1007L246.657 64.2511C246.47 64.3758 246.221 64.5426 245.97 64.711C245.474 65.044 244.953 65.394 244.911 65.4266L244.91 65.4271C240.758 68.6097 233.918 67.0544 229.507 61.7019Z" fill="url(#paint0_linear_6104_4946)" stroke="#07828B" stroke-width="0.424153"/>
<path d="M247.624 63.8186C251.869 60.3304 251.64 53.0582 247.113 47.5759C242.586 42.0936 235.475 40.4772 231.231 43.9656C226.986 47.454 227.215 54.7262 231.742 60.2085C236.269 65.6907 243.38 67.3071 247.624 63.8186Z" fill="url(#paint1_linear_6104_4946)" stroke="#07828B" stroke-width="0.414089" stroke-miterlimit="10" stroke-linejoin="round"/>
<path d="M234.598 54.3513L232.728 52.4653L238.923 46.3506L240.793 48.2365L238.509 50.4909L239.73 51.723C241.69 49.9943 243.54 49.0705 244.083 49.6179C244.626 50.1652 243.68 52.0012 241.927 53.9377L245.848 57.8918L244.221 59.498L240.299 55.5429C238.345 57.2627 236.502 58.1803 235.961 57.6347C235.42 57.0889 236.36 55.2607 238.104 53.3296L236.882 52.0967L234.598 54.3513ZM236.55 56.8331C236.907 57.193 238.287 56.428 239.83 55.0709L239.93 54.9828L239.94 54.9724L240.033 54.8891L240.042 54.8797C240.111 54.8176 240.18 54.7543 240.249 54.6896L240.253 54.6853L240.346 54.5984L240.372 54.5731L240.444 54.5038L240.896 54.0576L240.966 53.9867L240.99 53.9625L241.073 53.877L241.082 53.8678C241.179 53.7664 241.274 53.6653 241.366 53.5648L241.367 53.5636L241.459 53.463C242.844 51.9324 243.632 50.5554 243.273 50.1937C242.914 49.832 241.527 50.6038 239.977 51.9685L241.111 53.1124C240.873 53.3803 240.611 53.6567 240.33 53.9341C240.045 54.2158 239.759 54.4793 239.483 54.7176L238.353 53.5779C236.975 55.1038 236.193 56.4731 236.55 56.8331Z" fill="white"/>
<path d="M331.784 53.1689C333.352 53.0868 335.155 53.4836 336.975 54.3174L337.34 54.4893C341.034 56.2974 343.267 59.3547 342.771 62.1484C342.645 62.5001 342.538 62.821 342.413 63.1211L342.278 63.4209C341.54 64.9222 340.012 65.964 338.125 66.3721C336.357 66.7543 334.288 66.5757 332.308 65.7061L331.914 65.5225C327.826 63.5217 325.687 59.6396 327.179 56.001L327.335 55.6504C327.36 55.5964 327.381 55.5774 327.392 55.5684C327.413 55.5518 327.426 55.5479 327.489 55.5137C327.547 55.4823 327.621 55.4362 327.693 55.3525C327.756 55.2794 327.808 55.187 327.853 55.0693C328.743 53.8757 330.126 53.2558 331.784 53.1689Z" fill="white" stroke="#07828B" stroke-width="0.488022"/>
<path d="M332.73 64.28C328.456 62.1883 326.23 57.9741 327.758 54.8675C329.285 51.7608 333.988 50.9381 338.262 53.0299C342.535 55.1217 344.762 59.3358 343.234 62.4425C341.707 65.5491 337.004 66.3718 332.73 64.28Z" fill="url(#paint2_linear_6104_4946)" stroke="#07828B" stroke-width="0.414089" stroke-miterlimit="10" stroke-linejoin="round"/>
<path d="M339.542 57.2143C339.28 56.8584 337.66 57.3204 336.25 57.8181L335.749 57.1485L338.004 56.2247L337.212 55.1641L331.176 57.6298L331.968 58.6904L334.248 57.7577L334.748 58.4273C333.388 59.0347 331.889 59.8545 332.166 60.228C332.443 60.6015 334.174 60.096 335.594 59.5719L337.247 61.7883L338.748 61.1726L337.095 58.9562C338.416 58.3401 339.798 57.571 339.536 57.215L339.542 57.2143ZM336.194 59.1455C334.05 60.0194 332.498 60.3213 332.37 60.1492C332.251 59.9893 333.174 59.3314 334.86 58.569L335.413 59.3161L336.112 59.0328C336.39 58.9209 336.667 58.8028 336.931 58.6731L336.392 57.9438C338.08 57.3342 339.269 57.1278 339.382 57.2821C339.485 57.4693 338.313 58.2806 336.201 59.1449L336.194 59.1455Z" fill="white"/>
<path d="M248.597 113.09L252.658 120.465L266.246 130.113L299.643 142.56L311.536 151.625C318.811 147.398 322.785 140.432 321.85 129.472C321.85 129.472 311.273 121.718 311.214 119.882C309.374 117.025 310.309 112.215 309.198 107.96C308.585 105.599 307.357 104.112 307.357 104.112C304.845 96.8248 301.484 90.5287 296.722 85.7191C296.722 85.7191 289.884 82.2211 292.134 89.6832C292.134 89.6832 294.793 90.82 294.355 95.7755C294.209 97.5534 294.15 101.051 293.215 102.305C292.572 103.15 291.754 103.558 290.995 103.762C289.767 104.054 284.333 103.791 281.44 102.625C275.917 100.381 268.905 95.7755 262.126 91.5488C262.126 91.5488 258.999 87.2348 255.902 83.1248C252.6 78.7233 249.24 74.5841 245.704 77.9945L255.405 95.2799L265.72 103.937L265.369 105.074C260.489 102.013 255.873 99.6521 251.694 98.3405C251.694 98.3405 248.568 94.901 245.062 91.0533C241.263 86.8559 236.968 82.2795 233.958 84.6987L236.617 91.3156C236.617 91.3156 235.098 92.19 235.127 93.2394C235.156 93.8224 238.136 100.847 241.847 106.152C246.815 114.168 248.597 113.09 248.597 113.09Z" stroke="url(#paint3_linear_6104_4946)" stroke-width="0.488022"/>
<path fill-rule="evenodd" clip-rule="evenodd" d="M236.617 91.258C236.661 91.5841 236.661 91.5841 236.661 91.5841L236.666 91.5835C236.671 91.5828 236.68 91.5818 236.693 91.5807C236.717 91.5783 236.756 91.5753 236.806 91.5727C236.906 91.5673 237.055 91.5642 237.239 91.5733C237.608 91.5917 238.118 91.6594 238.677 91.8562C239.783 92.2455 241.109 93.1485 241.919 95.252C242.252 96.1313 242.736 97.0291 243.298 97.9043C243.282 97.9263 243.265 97.9504 243.246 97.9765C243.167 98.0841 243.071 98.2083 242.977 98.3271C242.883 98.4457 242.793 98.5572 242.726 98.6392C242.693 98.6803 242.665 98.7138 242.646 98.737L242.624 98.7636L242.618 98.7705L242.617 98.7723L242.617 98.7727L242.871 98.9826C243.125 99.1923 243.125 99.1923 243.125 99.1923L243.125 99.1921L243.125 99.1917L243.127 99.1897L243.133 99.1824L243.156 99.1547C243.175 99.1306 243.204 99.0962 243.238 99.0545C243.306 98.9707 243.399 98.8562 243.495 98.7344C243.558 98.6539 243.624 98.5695 243.686 98.4877C244.486 99.65 245.398 100.754 246.244 101.698C246.897 102.426 247.516 103.065 248.023 103.568C247.734 103.493 247.435 103.44 247.126 103.409C246.492 103.348 245.815 103.474 245.282 103.788C244.743 104.106 244.335 104.632 244.323 105.346C244.312 105.986 244.505 106.787 245.067 107.773C245.857 109.16 246.662 110.532 247.269 111.556C247.572 112.069 247.826 112.495 248.004 112.792C248.094 112.941 248.164 113.058 248.212 113.138L248.266 113.229L248.281 113.252L248.284 113.258L248.285 113.26L248.285 113.26C248.285 113.26 248.285 113.26 248.568 113.091C248.85 112.921 248.85 112.921 248.85 112.921V112.921L248.85 112.92L248.849 112.919L248.846 112.913L248.832 112.89L248.777 112.799C248.73 112.72 248.659 112.604 248.571 112.455C248.393 112.158 248.139 111.733 247.836 111.222C247.231 110.199 246.428 108.83 245.64 107.448C245.122 106.538 244.974 105.852 244.982 105.358C244.99 104.921 245.229 104.584 245.618 104.354C246.014 104.12 246.548 104.014 247.061 104.064C248.566 104.211 249.805 104.983 250.903 106.089C251.852 107.044 252.677 108.232 253.464 109.445C253.445 109.465 253.419 109.49 253.384 109.517C253.243 109.633 253.028 109.756 252.788 109.873C252.553 109.988 252.311 110.088 252.126 110.16C252.034 110.196 251.957 110.224 251.904 110.244C251.893 110.248 251.883 110.251 251.874 110.254C251.861 110.259 251.85 110.263 251.842 110.266L251.826 110.271L251.823 110.272L251.822 110.273C251.822 110.273 251.822 110.273 251.929 110.584C252.036 110.895 252.036 110.895 252.036 110.895H252.036L252.038 110.894L252.043 110.893L252.061 110.886C252.077 110.881 252.1 110.872 252.129 110.862C252.186 110.841 252.268 110.811 252.366 110.773C252.56 110.697 252.82 110.59 253.078 110.464C253.331 110.34 253.6 110.191 253.801 110.027L253.811 110.02C253.814 110.017 253.818 110.014 253.821 110.011C253.823 110.009 253.824 110.008 253.826 110.007L253.841 110.031C254.697 111.388 255.608 112.704 256.284 113.653C256.677 114.205 257.135 114.703 257.648 115.137C257.648 115.149 257.648 115.165 257.648 115.184C257.648 115.232 257.647 115.302 257.642 115.389C257.631 115.564 257.605 115.803 257.543 116.06C257.417 116.584 257.158 117.125 256.647 117.409L256.969 117.983C257.715 117.568 258.04 116.811 258.184 116.213C258.236 115.999 258.266 115.796 258.284 115.625C258.509 115.781 258.742 115.926 258.983 116.059C260.323 116.802 262.356 117.895 264.35 118.838C265.957 119.612 266.606 120.681 266.865 121.537C266.997 121.97 267.03 122.357 267.031 122.633C267.031 122.771 267.024 122.881 267.016 122.955C267.012 122.992 267.009 123.019 267.006 123.037C267.005 123.045 267.004 123.051 267.003 123.055L267.003 123.057C267.003 123.057 267.003 123.057 267.327 123.118C267.651 123.179 267.651 123.179 267.651 123.178V123.178L267.651 123.177L267.652 123.173L267.653 123.164C267.655 123.156 267.657 123.145 267.658 123.132C267.662 123.106 267.667 123.068 267.672 123.022C267.682 122.928 267.691 122.795 267.69 122.631C267.689 122.305 267.65 121.853 267.496 121.347C267.239 120.497 266.667 119.514 265.462 118.713C265.647 117.408 265.548 116.554 265.381 116.008C265.293 115.721 265.187 115.52 265.095 115.385C265.049 115.318 265.007 115.268 264.973 115.232C264.956 115.214 264.941 115.2 264.929 115.189C264.923 115.183 264.918 115.178 264.913 115.175L264.911 115.172L264.907 115.169L264.904 115.167L264.903 115.166L264.902 115.165C264.902 115.165 264.902 115.165 264.697 115.423C264.492 115.68 264.492 115.68 264.492 115.68L264.491 115.68L264.49 115.679L264.488 115.677L264.485 115.675C264.484 115.674 264.483 115.673 264.483 115.673C264.484 115.673 264.487 115.676 264.492 115.682C264.503 115.693 264.524 115.717 264.55 115.756C264.603 115.834 264.681 115.974 264.751 116.2C264.873 116.6 264.969 117.273 264.844 118.349C264.776 118.314 264.707 118.279 264.636 118.245L264.634 118.244C262.657 117.309 260.638 116.224 259.303 115.484C258.32 114.939 257.472 114.186 256.821 113.272C256.149 112.328 255.246 111.023 254.399 109.68L254.398 109.678C254.316 109.551 254.234 109.423 254.152 109.294C254.15 109.287 254.148 109.279 254.146 109.272L254.138 109.274C253.736 108.65 253.318 108.018 252.873 107.413C255.613 108.491 258.311 109.583 260.957 110.699C262.458 111.332 264.156 110.345 264.324 108.723L263.668 108.655C263.546 109.832 262.311 110.556 261.214 110.093C258.227 108.833 255.175 107.604 252.071 106.392C251.845 106.125 251.612 105.869 251.371 105.626C250.861 105.112 250.311 104.655 249.709 104.289L249.722 104.275L249.721 104.274L249.719 104.272L249.707 104.262C249.697 104.253 249.681 104.239 249.661 104.22C249.62 104.183 249.56 104.128 249.483 104.057C249.328 103.913 249.104 103.704 248.83 103.438C248.282 102.905 247.534 102.15 246.735 101.259C245.129 99.468 243.346 97.1592 242.536 95.0187L242.535 95.0168C241.65 92.7194 240.171 91.6841 238.896 91.2357C238.264 91.0133 237.69 90.9371 237.272 90.9163C237.062 90.9059 236.892 90.9094 236.771 90.9154C236.711 90.9187 236.664 90.9226 236.63 90.9256C236.613 90.9273 236.6 90.9286 236.59 90.9299L236.579 90.9312L236.575 90.9317L236.574 90.9319H236.574C236.573 90.9319 236.573 90.9319 236.617 91.258ZM261.886 91.2946C261.886 91.2946 261.886 91.2944 262.126 91.5205C262.365 91.7464 262.365 91.7464 262.365 91.7464L262.365 91.7471L262.362 91.7501L262.35 91.7627C262.34 91.7737 262.324 91.7906 262.304 91.8124C262.264 91.8564 262.207 91.9202 262.138 91.9994C261.999 92.1585 261.816 92.3779 261.634 92.6209C261.451 92.8653 261.275 93.1262 261.148 93.3695C261.016 93.6235 260.961 93.8131 260.965 93.928L260.306 93.9516C260.296 93.6584 260.42 93.3416 260.564 93.0656C260.713 92.7785 260.912 92.4859 261.106 92.2273C261.3 91.9674 261.494 91.735 261.64 91.5679C261.713 91.4842 261.774 91.4164 261.817 91.3695C261.838 91.3459 261.855 91.3275 261.867 91.3147L261.881 91.3L261.885 91.2961L261.886 91.295L261.886 91.2946ZM265.72 103.909C266.039 103.989 266.039 103.989 266.039 103.989L266.04 103.988L266.04 103.985L266.044 103.972C266.047 103.96 266.052 103.942 266.059 103.918C266.072 103.87 266.093 103.801 266.121 103.716C266.177 103.547 266.26 103.32 266.371 103.088C266.483 102.855 266.617 102.628 266.771 102.451C266.925 102.272 267.08 102.166 267.229 102.13L267.074 101.49C266.741 101.571 266.475 101.785 266.271 102.021C266.066 102.259 265.902 102.542 265.776 102.805C265.65 103.069 265.556 103.323 265.494 103.511C265.463 103.605 265.44 103.683 265.424 103.738C265.417 103.766 265.411 103.788 265.406 103.803L265.404 103.812L265.402 103.821L265.4 103.826L265.4 103.828L265.4 103.828V103.829C265.4 103.829 265.4 103.829 265.72 103.909ZM251.985 98.4384L250.875 100.508L250.293 100.198L251.404 98.1278L251.985 98.4384ZM291.209 103.483C291.209 103.482 291.209 103.482 291.521 103.588C291.833 103.694 291.833 103.694 291.833 103.694V103.694L291.833 103.696L291.83 103.703L291.825 103.717L291.82 103.733C291.811 103.759 291.798 103.799 291.782 103.851C291.748 103.955 291.7 104.11 291.64 104.308C291.521 104.704 291.359 105.274 291.187 105.97C290.843 107.362 290.46 109.249 290.301 111.237C290.142 113.228 290.21 115.299 290.752 117.068C291.291 118.831 292.293 120.275 293.998 121.071L293.719 121.667C291.801 120.772 290.699 119.149 290.121 117.26C289.545 115.379 289.482 113.216 289.644 111.184C289.806 109.15 290.198 107.225 290.547 105.812C290.722 105.105 290.887 104.524 291.009 104.119C291.069 103.917 291.119 103.758 291.154 103.65C291.171 103.596 291.185 103.554 291.194 103.526C291.199 103.512 291.202 103.501 291.205 103.494L291.208 103.485L291.209 103.483L291.209 103.483ZM307.071 128.035C308.844 126.571 310.299 123.662 311.528 119.956L310.902 119.75C309.676 123.448 308.267 126.194 306.651 127.528L307.071 128.035Z" fill="url(#paint4_linear_6104_4946)"/>
<path d="M297.019 51.1086C297.084 51.0894 297.136 51.0742 297.174 51.063L297.304 51.134L297.861 51.4383C298.33 51.6947 298.977 52.048 299.685 52.435C301.101 53.2092 302.764 54.1187 303.753 54.6603C314.869 60.754 317.917 76.6365 310.464 90.2079C303.011 103.779 287.951 109.773 276.835 103.707C275.912 103.199 274.653 102.371 273.619 101.666C273.104 101.315 272.646 100.995 272.317 100.763C272.153 100.647 272.021 100.553 271.93 100.488C271.893 100.462 271.863 100.441 271.841 100.425L271.84 100.423C271.825 100.383 271.804 100.324 271.775 100.245C271.719 100.089 271.637 99.8572 271.534 99.5582C271.33 98.9602 271.044 98.0929 270.72 97.016C270.073 94.8624 269.274 91.8734 268.671 88.531C267.46 81.8315 267.043 73.7717 270.124 68.1596C273.181 62.5967 279.941 58.3153 285.978 55.4187C288.99 53.9733 291.811 52.8781 293.878 52.1443C294.912 51.7774 295.757 51.501 296.343 51.3164C296.636 51.2241 296.865 51.1548 297.019 51.1086Z" fill="url(#paint5_linear_6104_4946)" stroke="#07828B" stroke-width="0.414089"/>
<path d="M305.279 87.1306C312.766 73.4872 309.728 57.4531 298.492 51.3175C287.257 45.1819 272.08 51.2683 264.593 64.9117C257.106 78.5553 260.145 94.5892 271.38 100.725C282.615 106.86 297.793 100.774 305.279 87.1306Z" fill="url(#paint6_linear_6104_4946)" stroke="#07828B" stroke-width="0.414089" stroke-miterlimit="10" stroke-linejoin="round"/>
<path d="M299.2 76.5147L302.643 71.4041L284.11 58.9746L280.666 64.0852L287.499 68.6679L285.25 72.0066C279.506 68.5631 274.49 66.9942 273.491 68.4774C272.492 69.9607 275.841 74.0016 281.206 78.0084L273.987 88.7237L278.854 91.9884L286.075 81.2709C291.801 84.6951 296.793 86.2521 297.789 84.7734C298.785 83.2947 295.456 79.2698 290.116 75.2728L292.367 71.9317L299.2 76.5147ZM295.901 83.0686C295.243 84.0441 291.458 82.6933 286.938 79.9913L286.646 79.8158L286.615 79.7946L286.343 79.6282L286.314 79.6089C286.112 79.4847 285.909 79.3574 285.704 79.2272L285.691 79.2185L285.416 79.0434L285.339 78.9921L285.124 78.8519L283.771 77.945L283.562 77.8L283.488 77.7508L283.24 77.5756L283.212 77.5569C282.918 77.349 282.63 77.1408 282.349 76.9335L282.345 76.9309L282.065 76.7229C277.827 73.5556 275.125 70.5515 275.786 69.5714C276.446 68.5913 280.253 69.9555 284.794 72.6731L282.705 75.7729C283.437 76.3288 284.231 76.8965 285.072 77.4604C285.926 78.033 286.769 78.5624 287.575 79.035L289.656 75.9467C293.875 79.1049 296.558 82.0928 295.901 83.0686Z" fill="white"/>
<path d="M284.173 138.173C284.173 138.173 298.567 138.279 305.239 132.469L310.414 140.306C310.414 140.306 302.675 146.506 286.813 146.381L284.173 138.173Z" fill="#07828B"/>
<path d="M287.538 145.722L285.237 138.649C286.432 139.546 290.829 138.716 291.881 138.643C292.933 138.571 291.702 139.334 291.985 140.143C292.267 140.952 298.532 139.843 298.729 140.508C298.926 141.172 293.182 142.17 293.56 143.274C293.938 144.378 297.67 143.744 296.309 144.817C295.221 145.676 290.008 145.778 287.538 145.722Z" fill="#88D8DB"/>
<path d="M309.703 131.172C317.469 126.077 321.201 118.489 322.591 108.684L334.332 112.748C331.454 124.052 325.733 131.356 315.933 138.522L309.709 131.171L309.703 131.172Z" fill="url(#paint7_linear_6104_4946)"/>
<path d="M316.496 127.678C315.625 128.171 315.56 127.375 315.637 126.916L310.85 131.267L316.338 137.067C316.919 137.145 322.834 131.52 324.887 130.076C324.915 129.909 325.243 129.714 325.319 128.69C325.414 127.409 322.892 129.57 322.202 128.121C321.513 126.672 318.662 129.826 318.962 127.829C319.263 125.832 317.585 127.062 316.496 127.678Z" fill="#07828B"/>
<path d="M324.718 87.1152L340.107 87.6874C341.465 99.6224 339.405 108.736 331.848 115.024L315.909 113.397C322.842 106.392 324.718 99.7226 324.718 87.1152Z" fill="url(#paint8_linear_6104_4946)" stroke="url(#paint9_linear_6104_4946)" stroke-width="0.434603" stroke-miterlimit="10" stroke-linejoin="round"/>
<mask id="mask0_6104_4946" style="mask-type:alpha" maskUnits="userSpaceOnUse" x="316" y="87" width="24" height="28">
<path d="M323.836 87.9531L339.159 88.3163C340.986 99.5287 338.557 108.528 331.754 114.307L317.087 112.844C323.637 106.226 326.424 98.1973 323.836 87.9531Z" fill="#D9D9D9" stroke="white" stroke-width="0.434603" stroke-miterlimit="10"/>
</mask>
<g mask="url(#mask0_6104_4946)">
<path d="M321.735 104.91C320.696 106.908 319.602 105.476 319.185 104.511L313.334 116.333L332.986 118.335C334.176 117.775 339.905 105.035 342.012 99.7899C341.863 99.4385 341.289 98.2257 340.182 96.1874C338.798 93.6392 336.1 100.709 333.032 98.7979C329.964 96.8866 328.438 106.35 326.568 102.192C324.698 98.0334 323.035 102.413 321.735 104.91Z" fill="#88D8DB"/>
</g>
<path d="M326.559 90.9529L326.932 90.9761L326.896 91.5638L327.482 91.6002L327.459 91.9698L326.873 91.9335L326.836 92.5212L326.462 92.4978L326.499 91.9103L325.91 91.8737L325.933 91.5041L326.522 91.5407L326.559 90.9529ZM327.896 91.4922L327.922 91.0711L328.626 90.7285L328.969 90.7499L328.83 92.9705L328.384 92.9428L328.493 91.2068L327.896 91.4922ZM330.18 92.6679L331.07 92.7231L331.046 93.1079L329.512 93.0127L329.53 92.7279L330.248 92.0183C330.372 91.8962 330.458 91.8002 330.507 91.7303C330.558 91.6584 330.586 91.5831 330.591 91.5043C330.596 91.4175 330.577 91.3464 330.531 91.291C330.486 91.2353 330.422 91.205 330.339 91.1998C330.254 91.1947 330.177 91.2213 330.108 91.2797C330.04 91.3364 329.985 91.4202 329.943 91.5312L329.61 91.3096C329.673 91.1332 329.777 91.0018 329.921 90.9153C330.064 90.827 330.226 90.7885 330.406 90.7995C330.548 90.8084 330.669 90.8452 330.768 90.9103C330.87 90.9733 330.945 91.057 330.993 91.1613C331.044 91.2659 331.065 91.3827 331.057 91.5121C331.049 91.6394 331.01 91.7564 330.94 91.8636C330.873 91.969 330.755 92.1046 330.586 92.2704L330.18 92.6679ZM332.283 91.7677C332.421 91.7761 332.542 91.814 332.645 91.8813C332.749 91.9464 332.826 92.0345 332.878 92.1451C332.931 92.2559 332.952 92.3799 332.944 92.5171C332.935 92.6606 332.891 92.7865 332.813 92.8954C332.737 93.0042 332.637 93.086 332.512 93.1412C332.388 93.1964 332.256 93.2196 332.114 93.2107C331.968 93.2016 331.838 93.1622 331.722 93.0921C331.607 93.02 331.518 92.9244 331.457 92.8049C331.395 92.6857 331.369 92.5502 331.378 92.3987C331.385 92.2856 331.413 92.1789 331.462 92.0785C331.511 91.9761 331.595 91.8434 331.713 91.6805L332.24 90.9529L332.716 90.9826L332.241 91.6221C332.203 91.6744 332.162 91.7266 332.118 91.7787C332.167 91.7675 332.223 91.7638 332.283 91.7677ZM332.136 92.8168C332.231 92.8227 332.31 92.7961 332.372 92.7372C332.435 92.6762 332.469 92.5952 332.476 92.4942C332.482 92.3933 332.458 92.3096 332.403 92.2434C332.348 92.1752 332.274 92.138 332.178 92.1321C332.081 92.1261 332.001 92.1535 331.938 92.2146C331.876 92.2734 331.841 92.3535 331.835 92.4544C331.829 92.5574 331.853 92.642 331.908 92.7084C331.964 92.7746 332.04 92.8108 332.136 92.8168ZM333.406 93.297C333.337 93.2927 333.28 93.2639 333.234 93.2105C333.189 93.1568 333.168 93.0947 333.173 93.0241C333.177 92.9534 333.205 92.8943 333.257 92.8469C333.309 92.7993 333.369 92.7779 333.438 92.782C333.509 92.7865 333.567 92.8153 333.612 92.869C333.66 92.9227 333.681 92.9848 333.677 93.0553C333.673 93.1261 333.643 93.1852 333.59 93.2325C333.538 93.2799 333.477 93.3014 333.406 93.297ZM335.165 92.202C335.285 92.2561 335.375 92.3306 335.434 92.4256C335.494 92.5184 335.519 92.6316 335.511 92.7649C335.502 92.9021 335.459 93.0181 335.382 93.1127C335.308 93.2053 335.209 93.2741 335.086 93.3193C334.965 93.3624 334.833 93.3797 334.69 93.3706C334.505 93.3591 334.347 93.3059 334.215 93.2105C334.085 93.1153 333.997 92.983 333.95 92.8138L334.312 92.6357C334.338 92.7426 334.386 92.8257 334.458 92.885C334.529 92.9421 334.612 92.9735 334.705 92.9794C334.796 92.985 334.873 92.9633 334.937 92.9147C335.004 92.8662 335.039 92.7954 335.045 92.7024C335.058 92.4985 334.908 92.3868 334.597 92.3674L334.515 92.3624L334.538 91.9988L334.656 92.0062C334.771 92.0133 334.861 91.9915 334.925 91.9408C334.991 91.8882 335.027 91.8205 335.032 91.7376C335.037 91.6608 335.016 91.5976 334.968 91.548C334.92 91.4985 334.856 91.4712 334.775 91.4662C334.688 91.4608 334.61 91.4844 334.542 91.5368C334.476 91.5874 334.422 91.6632 334.381 91.764L334.059 91.5526C334.123 91.3862 334.223 91.2626 334.36 91.1819C334.497 91.0992 334.656 91.0635 334.836 91.0745C334.976 91.0832 335.096 91.1172 335.198 91.1763C335.303 91.2334 335.381 91.3102 335.434 91.4067C335.487 91.5032 335.509 91.6121 335.502 91.7333C335.495 91.8465 335.463 91.9428 335.405 92.0222C335.349 92.1018 335.269 92.1618 335.165 92.202ZM336.874 91.7547C336.867 91.8638 336.837 91.9592 336.783 92.041C336.729 92.1207 336.66 92.1802 336.574 92.2196C336.488 92.2587 336.395 92.2754 336.296 92.2691C336.199 92.2633 336.11 92.2354 336.03 92.1858C335.95 92.1362 335.887 92.0685 335.842 91.9826C335.799 91.8947 335.78 91.7963 335.787 91.6872C335.794 91.5781 335.824 91.4838 335.878 91.4039C335.934 91.3243 336.004 91.2648 336.09 91.2254C336.176 91.1843 336.268 91.1665 336.365 91.1726C336.464 91.1786 336.554 91.2076 336.634 91.2591C336.714 91.3087 336.776 91.3764 336.819 91.4623C336.862 91.548 336.881 91.6456 336.874 91.7547ZM337.516 91.2836L337.947 91.3104L336.482 93.4455L336.051 93.4187L337.516 91.2836ZM336.534 91.7335C336.538 91.6649 336.522 91.6091 336.487 91.5664C336.451 91.5216 336.404 91.4974 336.345 91.4937C336.288 91.4903 336.239 91.5084 336.198 91.5485C336.157 91.5863 336.135 91.6398 336.13 91.7084C336.126 91.7751 336.142 91.8309 336.178 91.8757C336.214 91.9205 336.26 91.9445 336.316 91.9482C336.375 91.9516 336.425 91.9335 336.466 91.8934C336.507 91.8536 336.53 91.8002 336.534 91.7335ZM338.211 93.0389C338.204 93.1479 338.174 93.2434 338.12 93.3252C338.066 93.405 337.997 93.4645 337.911 93.5037C337.825 93.5431 337.733 93.5595 337.634 93.5535C337.536 93.5474 337.448 93.5197 337.368 93.4702C337.287 93.4204 337.224 93.3527 337.179 93.2667C337.136 93.1789 337.118 93.0804 337.124 92.9713C337.131 92.8623 337.161 92.7679 337.215 92.6881C337.271 92.6084 337.342 92.5489 337.427 92.5098C337.513 92.4684 337.605 92.4509 337.702 92.4569C337.801 92.463 337.891 92.4918 337.971 92.5435C338.051 92.5931 338.113 92.6608 338.156 92.7465C338.2 92.8324 338.218 92.9298 338.211 93.0389ZM337.871 93.0179C337.876 92.9491 337.859 92.8934 337.821 92.8504C337.785 92.8056 337.739 92.7816 337.682 92.7779C337.625 92.7744 337.576 92.7926 337.535 92.8326C337.494 92.8707 337.472 92.924 337.467 92.9928C337.463 93.0594 337.479 93.115 337.515 93.1598C337.551 93.2046 337.597 93.2289 337.654 93.2323C337.71 93.2358 337.759 93.2176 337.8 93.1776C337.843 93.1378 337.867 93.0845 337.871 93.0179Z" fill="white"/>
<path d="M331.88 109.667L323.938 108.504C322.902 108.352 321.867 108.792 321.258 109.643L321.186 109.743C320.605 110.555 321.091 111.693 322.08 111.837L329.877 112.976C330.957 113.134 332.039 112.702 332.711 111.843L332.739 111.807C333.37 111.001 332.894 109.816 331.88 109.667Z" fill="white"/>
<path d="M323.418 109.279L324.578 109.412L324.459 109.698L323.652 109.606L323.477 110.028L324.199 110.111L324.082 110.395L323.36 110.312L323.087 110.971L322.735 110.931L323.418 109.279ZM324.23 110.49C324.28 110.368 324.354 110.264 324.451 110.177C324.549 110.091 324.658 110.028 324.778 109.99C324.898 109.95 325.015 109.937 325.13 109.95C325.244 109.963 325.339 110 325.415 110.062C325.493 110.123 325.542 110.204 325.562 110.304C325.583 110.404 325.569 110.515 325.518 110.637C325.468 110.759 325.393 110.863 325.295 110.949C325.198 111.036 325.09 111.098 324.97 111.137C324.852 111.175 324.737 111.188 324.623 111.175C324.508 111.162 324.412 111.125 324.333 111.064C324.255 111.003 324.205 110.922 324.184 110.822C324.164 110.723 324.179 110.611 324.23 110.49ZM324.58 110.53C324.537 110.634 324.53 110.719 324.56 110.787C324.592 110.854 324.65 110.892 324.734 110.902C324.818 110.911 324.9 110.889 324.98 110.835C325.061 110.78 325.123 110.7 325.166 110.597C325.209 110.493 325.215 110.407 325.186 110.339C325.156 110.271 325.099 110.232 325.015 110.222C324.931 110.213 324.847 110.236 324.765 110.291C324.685 110.346 324.623 110.426 324.58 110.53ZM325.859 111.288L325.521 111.249L326.231 109.532L326.569 109.57L325.859 111.288ZM326.509 111.362L326.171 111.323L326.882 109.606L327.22 109.645L326.509 111.362ZM326.991 110.805C327.041 110.683 327.115 110.579 327.212 110.492C327.31 110.406 327.419 110.343 327.539 110.305C327.659 110.265 327.776 110.252 327.891 110.265C328.005 110.278 328.1 110.315 328.176 110.378C328.254 110.439 328.303 110.519 328.323 110.619C328.344 110.719 328.33 110.83 328.279 110.952C328.229 111.074 328.154 111.178 328.056 111.264C327.959 111.351 327.851 111.413 327.731 111.452C327.614 111.49 327.498 111.503 327.384 111.49C327.269 111.477 327.173 111.44 327.094 111.379C327.016 111.318 326.966 111.238 326.945 111.138C326.925 111.038 326.94 110.927 326.991 110.805ZM327.341 110.845C327.298 110.949 327.291 111.035 327.321 111.103C327.353 111.169 327.411 111.207 327.495 111.217C327.579 111.227 327.661 111.204 327.741 111.151C327.822 111.095 327.884 111.016 327.927 110.912C327.97 110.808 327.976 110.722 327.947 110.654C327.917 110.586 327.86 110.547 327.776 110.538C327.692 110.528 327.609 110.551 327.526 110.606C327.446 110.661 327.384 110.741 327.341 110.845ZM329.686 110.5L329.647 111.259L330.197 110.559L330.525 110.596L329.583 111.71L329.342 111.683L329.349 110.939L328.781 111.619L328.538 111.591L328.544 110.37L328.891 110.41L328.851 111.178L329.404 110.468L329.686 110.5Z" fill="#07828B"/>
<defs>
<linearGradient id="paint0_linear_6104_4946" x1="255.744" y1="39.0613" x2="246.031" y2="82.0217" gradientUnits="userSpaceOnUse">
<stop stop-color="#33F39A"/>
<stop offset="0.31638" stop-color="#7FE2B3"/>
<stop offset="0.655" stop-color="white"/>
<stop offset="1" stop-color="#EEEEEE"/>
</linearGradient>
<linearGradient id="paint1_linear_6104_4946" x1="242.896" y1="42.4136" x2="232.07" y2="64.9789" gradientUnits="userSpaceOnUse">
<stop stop-color="#006647"/>
<stop offset="1" stop-color="#07828B"/>
</linearGradient>
<linearGradient id="paint2_linear_6104_4946" x1="335.805" y1="51.9988" x2="333.938" y2="65.8946" gradientUnits="userSpaceOnUse">
<stop stop-color="#006647"/>
<stop offset="1" stop-color="#07828B"/>
</linearGradient>
<linearGradient id="paint3_linear_6104_4946" x1="218.346" y1="76.6488" x2="287.004" y2="107.634" gradientUnits="userSpaceOnUse">
<stop stop-color="white"/>
<stop offset="0.436664" stop-color="#006647"/>
<stop offset="1" stop-color="#07828B"/>
</linearGradient>
<linearGradient id="paint4_linear_6104_4946" x1="229.55" y1="80.2946" x2="324.4" y2="91.7757" gradientUnits="userSpaceOnUse">
<stop stop-color="white"/>
<stop offset="0.28" stop-color="#006647"/>
<stop offset="1" stop-color="#07828B"/>
</linearGradient>
<linearGradient id="paint5_linear_6104_4946" x1="341.311" y1="50.9755" x2="303.17" y2="141.538" gradientUnits="userSpaceOnUse">
<stop stop-color="#33F39A"/>
<stop offset="0.31638" stop-color="#509775"/>
<stop offset="0.655" stop-color="white"/>
<stop offset="1"/>
</linearGradient>
<linearGradient id="paint6_linear_6104_4946" x1="292.483" y1="49.5922" x2="266.683" y2="100.409" gradientUnits="userSpaceOnUse">
<stop stop-color="#006647"/>
<stop offset="1" stop-color="#07828B"/>
</linearGradient>
<linearGradient id="paint7_linear_6104_4946" x1="321.107" y1="108.786" x2="323.119" y2="138.028" gradientUnits="userSpaceOnUse">
<stop stop-color="#07828B" stop-opacity="0.5"/>
<stop offset="1" stop-color="#07828B" stop-opacity="0.2"/>
</linearGradient>
<linearGradient id="paint8_linear_6104_4946" x1="353.952" y1="69.9627" x2="353.646" y2="107.055" gradientUnits="userSpaceOnUse">
<stop stop-color="#07828B"/>
<stop offset="0.265" stop-color="#5AB8DB"/>
<stop offset="0.765" stop-color="#07828B"/>
</linearGradient>
<linearGradient id="paint9_linear_6104_4946" x1="330.308" y1="115.263" x2="325.874" y2="86.7529" gradientUnits="userSpaceOnUse">
<stop stop-color="#07828B"/>
<stop offset="1" stop-color="white"/>
</linearGradient>
</defs>
</svg>
