<svg width="370" height="160" viewBox="0 0 370 160" fill="none" xmlns="http://www.w3.org/2000/svg">
<rect width="370" height="160" rx="16" fill="#02272A"/>
<path d="M22.282 28.224L25.27 22.824H28.096L23.506 30.816V36H20.896V30.798L16.108 22.824H19.186L22.282 28.224ZM40.6372 22.824H42.6172V36H40.1332V27.504L36.7852 32.49H35.4172L32.0512 27.468V36H29.5852V22.824H31.6552L36.1552 29.646L40.6372 22.824ZM53.344 30.438H47.998V33.714H54.172V36H45.388V22.824H53.974V25.092H47.998V28.188H53.344V30.438ZM67.5171 22.824L62.8911 29.25L67.7331 36H64.4931L61.2891 31.374L58.0671 36H55.0431L59.8671 29.304L55.2591 22.824H58.4451L61.4691 27.18L64.4931 22.824H67.5171ZM73.4723 34.11L75.0203 33.84L75.1463 35.784L71.9243 36.378C70.9283 36.57 69.8603 36.768 68.7203 36.972L68.4143 34.992L69.1163 34.884V28.8H70.7723V34.596C71.1083 34.524 71.3843 34.476 71.6003 34.452V27.774H69.3863V21.582H75.0023V27.774H73.4723V29.79H75.0923V31.68H73.4723V34.11ZM82.2743 33.354C82.9823 34.122 84.0023 34.806 85.3343 35.406L83.9663 37.134C82.9463 36.546 82.0943 35.928 81.4103 35.28C80.7383 34.632 80.1743 33.888 79.7183 33.048C79.2623 32.208 78.8783 31.2 78.5663 30.024H77.7923V34.758L79.7363 33.804L80.1683 35.82C79.1483 36.228 78.1943 36.654 77.3063 37.098C76.9103 37.302 76.5743 37.482 76.2983 37.638L75.3263 35.712C75.5663 35.616 75.7163 35.514 75.7763 35.406C75.8483 35.298 75.8843 35.094 75.8843 34.794V21.6H83.9663V30.024H80.4923C80.7323 30.744 81.0023 31.392 81.3023 31.968C82.0703 31.332 82.7843 30.684 83.4443 30.024L84.6323 31.464C83.9003 32.1 83.1143 32.73 82.2743 33.354ZM81.9683 24.894V23.49H77.7923V24.894H81.9683ZM73.1843 23.526H71.2403V25.848H73.1843V23.526ZM81.9683 26.748H77.7923V28.134H81.9683V26.748ZM102.956 32.922V34.956H95.9003V37.44H93.7583V34.956H86.6843V32.922H93.7583V31.59H88.0703V23.274H91.3103L90.3383 21.942L90.0863 21.6L91.9943 20.628C92.2103 20.892 92.4743 21.246 92.7863 21.69C93.1103 22.122 93.3683 22.488 93.5603 22.788L92.6423 23.274H95.8463C96.2543 22.77 96.8843 21.906 97.7363 20.682L99.7523 21.456C99.4283 21.924 98.9963 22.53 98.4563 23.274H101.606V31.59H95.9003V32.922H102.956ZM93.7583 26.568V25.218H90.2663V26.568H93.7583ZM95.9003 26.568H99.4103V25.218H95.9003V26.568ZM90.2663 28.314V29.664H93.7583V28.314H90.2663ZM95.9003 28.314V29.664H99.4103V28.314H95.9003ZM17.206 55.908C18.082 55.344 18.928 54.72 19.744 54.036C20.572 53.34 21.316 52.638 21.976 51.93H17.242V49.752H23.866C23.674 49.176 23.458 48.618 23.218 48.078L25.684 47.628C25.972 48.468 26.2 49.176 26.368 49.752H32.74V51.93H27.628C28.228 52.302 29.068 52.89 30.148 53.694C31.228 54.486 32.104 55.158 32.776 55.71L31.444 57.564C30.724 56.952 29.824 56.226 28.744 55.386C27.664 54.534 26.842 53.916 26.278 53.532L27.574 51.93H22.174L23.704 53.28C22.996 54.048 22.186 54.828 21.274 55.62C20.362 56.412 19.432 57.144 18.484 57.816L17.206 55.908ZM32.524 64.458C30.772 64.014 29.296 63.552 28.096 63.072C26.896 62.604 25.858 62.064 24.982 61.452C24.106 62.064 23.068 62.622 21.868 63.126C20.668 63.642 19.24 64.134 17.584 64.602L16.576 62.424C18.064 62.064 19.348 61.692 20.428 61.308C21.508 60.912 22.444 60.468 23.236 59.976C22.444 59.148 21.64 58.044 20.824 56.664L22.624 55.494C23.392 56.802 24.184 57.84 25 58.608C25.792 57.828 26.506 56.814 27.142 55.566L29.122 56.628C28.438 57.924 27.652 59.034 26.764 59.958C27.568 60.438 28.498 60.852 29.554 61.2C30.622 61.548 31.906 61.866 33.406 62.154L32.524 64.458ZM50.308 56.484C50.236 58.224 50.056 60.048 49.768 61.956C49.624 62.82 49.348 63.42 48.94 63.756C48.544 64.104 47.914 64.284 47.05 64.296C46.138 64.296 45.28 64.248 44.476 64.152L44.08 62.208C44.86 62.328 45.604 62.388 46.312 62.388C46.768 62.388 47.086 62.31 47.266 62.154C47.458 61.986 47.602 61.674 47.698 61.218C47.902 60.294 48.046 59.304 48.13 58.248H46.438C45.946 59.64 45.238 60.846 44.314 61.866C43.39 62.886 42.106 63.84 40.462 64.728L39.094 63.108C40.57 62.34 41.686 61.602 42.442 60.894C43.198 60.174 43.786 59.292 44.206 58.248H42.55C41.866 59.388 41.008 60.372 39.976 61.2C38.944 62.016 37.582 62.802 35.89 63.558L34.774 61.866C36.094 61.362 37.192 60.81 38.068 60.21C38.944 59.61 39.646 58.956 40.174 58.248H38.374C37.582 58.944 36.79 59.574 35.998 60.138L34.72 58.59C35.356 58.206 36.01 57.732 36.682 57.168C37.354 56.592 37.948 56.01 38.464 55.422H36.79V48.438H49.39V55.422H41.002C40.822 55.674 40.54 56.028 40.156 56.484H50.308ZM47.302 51.228V50.202H38.878V51.228H47.302ZM38.878 52.74V53.694H47.302V52.74H38.878ZM60.586 52.92C60.382 54.696 60.148 56.118 59.884 57.186C59.632 58.254 59.26 59.208 58.768 60.048L61.036 61.974L59.632 63.828C58.84 63.096 58.102 62.436 57.418 61.848C56.638 62.688 55.546 63.624 54.142 64.656L52.468 63.072C53.98 62.064 55.096 61.2 55.816 60.48C54.892 59.7 54.016 59.016 53.188 58.428C53.68 56.712 54.094 54.912 54.43 53.028H52.72V50.85H54.754C54.85 50.106 54.952 49.098 55.06 47.826L57.256 48.042C57.184 48.846 57.082 49.782 56.95 50.85H60.586V52.92ZM61.612 64.152V49.698H68.452V64.044H66.418V62.532H63.646V64.152H61.612ZM63.646 51.84V60.336H66.418V51.84H63.646ZM55.6 57.546C56.164 57.966 56.68 58.362 57.148 58.734C57.508 58.062 57.784 57.294 57.976 56.43C58.168 55.566 58.336 54.432 58.48 53.028H56.626C56.326 54.852 55.984 56.358 55.6 57.546ZM87.406 58.986C87.394 59.226 87.334 60.084 87.226 61.56C87.178 62.196 87.07 62.688 86.902 63.036C86.734 63.396 86.488 63.654 86.164 63.81C85.852 63.966 85.42 64.062 84.868 64.098C84.364 64.122 83.98 64.134 83.716 64.134C83.452 64.134 83.068 64.122 82.564 64.098C82.012 64.062 81.574 63.954 81.25 63.774C80.926 63.606 80.686 63.33 80.53 62.946C80.386 62.55 80.314 62.004 80.314 61.308V47.934H82.474V53.55C83.014 53.142 83.578 52.68 84.166 52.164C84.766 51.636 85.276 51.156 85.696 50.724L87.154 52.524C86.59 53.076 85.882 53.694 85.03 54.378C84.178 55.05 83.326 55.686 82.474 56.286V60.948C82.474 61.296 82.528 61.542 82.636 61.686C82.756 61.818 82.942 61.896 83.194 61.92C83.482 61.944 83.704 61.956 83.86 61.956C84.004 61.956 84.22 61.944 84.508 61.92C84.772 61.884 84.946 61.8 85.03 61.668C85.114 61.524 85.174 61.23 85.21 60.786C85.258 60.186 85.282 59.568 85.282 58.932C85.294 58.848 85.3 58.722 85.3 58.554L87.406 58.986ZM77.668 60.12L79.054 59.778L79.486 59.67L79.702 61.974C78.19 62.334 75.658 62.952 72.106 63.828L71.062 64.08L70.738 61.794L71.998 61.506V51.012H74.104V61.002L75.562 60.642V48.222H77.668V52.722H79.576V54.9H77.668V60.12ZM104.902 49.032V50.922H102.67C102.79 51.114 102.958 51.402 103.174 51.786L101.23 52.542C100.966 52.002 100.672 51.462 100.348 50.922H99.178C98.914 51.414 98.572 51.966 98.152 52.578L96.226 51.588L96.712 50.922H94.876C95.02 51.162 95.194 51.504 95.398 51.948L93.67 52.668C93.466 52.14 93.19 51.558 92.842 50.922H92.014C91.414 51.81 90.814 52.578 90.214 53.226L88.54 51.984C89.116 51.42 89.698 50.712 90.286 49.86C90.874 49.008 91.318 48.252 91.618 47.592L93.76 47.97C93.652 48.198 93.466 48.552 93.202 49.032H96.856V50.724C97.54 49.716 98.092 48.678 98.512 47.61L100.582 48.006C100.39 48.462 100.24 48.804 100.132 49.032H104.902ZM91.888 52.092C92.62 52.692 93.286 53.292 93.886 53.892L92.626 55.314C91.906 54.594 91.24 53.988 90.628 53.496L91.888 52.092ZM94.516 54.504V52.668H104.254V61.92C104.254 62.628 104.176 63.156 104.02 63.504C103.864 63.852 103.588 64.092 103.192 64.224C102.796 64.356 102.202 64.422 101.41 64.422C100.906 64.422 100.336 64.392 99.7 64.332L99.286 62.748C99.934 62.844 100.54 62.892 101.104 62.892C101.38 62.892 101.584 62.862 101.716 62.802C101.86 62.73 101.962 62.598 102.022 62.406C102.082 62.214 102.112 61.926 102.112 61.542V54.504H94.516ZM91.906 64.35H89.782V55.134H91.906V64.35ZM93.328 55.476H100.672V62.352H93.328V55.476ZM98.746 58.14V57.15H95.254V58.14H98.746ZM95.254 59.706V60.696H98.746V59.706H95.254ZM123.136 59.922V61.956H116.08V64.44H113.938V61.956H106.864V59.922H113.938V58.59H108.25V50.274H111.49L110.518 48.942L110.266 48.6L112.174 47.628C112.39 47.892 112.654 48.246 112.966 48.69C113.29 49.122 113.548 49.488 113.74 49.788L112.822 50.274H116.026C116.434 49.77 117.064 48.906 117.916 47.682L119.932 48.456C119.608 48.924 119.176 49.53 118.636 50.274H121.786V58.59H116.08V59.922H123.136ZM113.938 53.568V52.218H110.446V53.568H113.938ZM116.08 53.568H119.59V52.218H116.08V53.568ZM110.446 55.314V56.664H113.938V55.314H110.446ZM116.08 55.314V56.664H119.59V55.314H116.08Z" fill="white"/>
<path d="M229.507 61.7019L229.507 61.7016C225.017 56.2601 224.845 49.152 228.954 45.7591L228.954 45.7586C229.344 45.434 230.077 44.9292 230.72 44.5004C231.04 44.2872 231.336 44.0947 231.551 43.9555C231.658 43.8859 231.746 43.8297 231.806 43.7908C231.817 43.7842 231.826 43.778 231.835 43.7725C231.843 43.7736 231.852 43.7748 231.861 43.7762C231.929 43.7859 232.029 43.8009 232.158 43.8214C232.416 43.8626 232.79 43.9264 233.249 44.0168C234.169 44.1977 235.434 44.4848 236.812 44.9096C239.58 45.7624 242.764 47.1572 244.567 49.3251C245.471 50.4242 246.074 51.896 246.465 53.5008C246.856 55.104 247.033 56.8259 247.094 58.4127C247.155 59.9987 247.1 61.4446 247.029 62.4943C246.994 63.0191 246.955 63.4444 246.925 63.738C246.91 63.8847 246.897 63.9988 246.888 64.0758C246.887 64.0834 246.886 64.0908 246.886 64.0977L246.881 64.1007L246.657 64.2511C246.47 64.3758 246.221 64.5426 245.97 64.711C245.474 65.044 244.953 65.394 244.911 65.4266L244.91 65.4271C240.758 68.6097 233.918 67.0544 229.507 61.7019Z" fill="url(#paint0_linear_6165_722)" stroke="#07828B" stroke-width="0.424153"/>
<path d="M247.624 63.8186C251.869 60.3304 251.64 53.0582 247.113 47.5759C242.586 42.0936 235.475 40.4772 231.231 43.9656C226.986 47.454 227.215 54.7262 231.742 60.2085C236.269 65.6907 243.38 67.3071 247.624 63.8186Z" fill="url(#paint1_linear_6165_722)" stroke="#07828B" stroke-width="0.414089" stroke-miterlimit="10" stroke-linejoin="round"/>
<path d="M234.598 54.3513L232.728 52.4653L238.923 46.3506L240.793 48.2365L238.509 50.4909L239.731 51.723C241.69 49.9943 243.541 49.0705 244.083 49.6179C244.626 50.1652 243.68 52.0012 241.927 53.9377L245.848 57.8918L244.221 59.498L240.299 55.5429C238.345 57.2627 236.503 58.1803 235.962 57.6347C235.421 57.0889 236.36 55.2607 238.104 53.3296L236.882 52.0967L234.598 54.3513ZM236.55 56.8331C236.907 57.193 238.288 56.428 239.831 55.0709L239.93 54.9828L239.941 54.9724L240.033 54.8891L240.043 54.8797C240.111 54.8176 240.18 54.7543 240.249 54.6896L240.254 54.6853L240.346 54.5984L240.372 54.5731L240.445 54.5038L240.897 54.0576L240.966 53.9867L240.991 53.9625L241.073 53.877L241.082 53.8678C241.179 53.7664 241.274 53.6653 241.367 53.5648L241.368 53.5636L241.459 53.463C242.845 51.9324 243.632 50.5554 243.273 50.1937C242.915 49.832 241.527 50.6038 239.977 51.9685L241.112 53.1124C240.873 53.3803 240.611 53.6567 240.33 53.9341C240.045 54.2158 239.759 54.4793 239.483 54.7176L238.353 53.5779C236.975 55.1038 236.193 56.4731 236.55 56.8331Z" fill="white"/>
<path d="M331.784 53.1689C333.352 53.0868 335.155 53.4836 336.976 54.3174L337.34 54.4893C341.034 56.2974 343.267 59.3547 342.771 62.1484C342.646 62.5001 342.538 62.821 342.413 63.1211L342.278 63.4209C341.54 64.9222 340.013 65.964 338.125 66.3721C336.357 66.7543 334.288 66.5757 332.309 65.7061L331.914 65.5225C327.827 63.5217 325.687 59.6396 327.18 56.001L327.335 55.6504C327.361 55.5964 327.381 55.5774 327.393 55.5684C327.413 55.5518 327.426 55.5479 327.489 55.5137C327.547 55.4823 327.621 55.4362 327.693 55.3525C327.756 55.2794 327.808 55.187 327.854 55.0693C328.743 53.8757 330.126 53.2558 331.784 53.1689Z" fill="white" stroke="#07828B" stroke-width="0.488022"/>
<path d="M332.73 64.28C328.456 62.1883 326.23 57.9741 327.758 54.8675C329.285 51.7608 333.988 50.9381 338.262 53.0299C342.535 55.1217 344.762 59.3358 343.234 62.4425C341.707 65.5491 337.004 66.3718 332.73 64.28Z" fill="url(#paint2_linear_6165_722)" stroke="#07828B" stroke-width="0.414089" stroke-miterlimit="10" stroke-linejoin="round"/>
<path d="M339.542 57.2143C339.28 56.8584 337.66 57.3204 336.25 57.8181L335.749 57.1485L338.004 56.2247L337.212 55.1641L331.176 57.6298L331.968 58.6904L334.248 57.7577L334.748 58.4273C333.388 59.0347 331.889 59.8545 332.166 60.228C332.443 60.6015 334.174 60.096 335.594 59.5719L337.247 61.7883L338.748 61.1726L337.095 58.9562C338.416 58.3401 339.798 57.571 339.536 57.215L339.542 57.2143ZM336.194 59.1455C334.05 60.0194 332.498 60.3213 332.37 60.1492C332.251 59.9893 333.174 59.3314 334.86 58.569L335.413 59.3161L336.112 59.0328C336.39 58.9209 336.667 58.8028 336.931 58.6731L336.392 57.9438C338.08 57.3342 339.269 57.1278 339.382 57.2821C339.485 57.4693 338.313 58.2806 336.201 59.1449L336.194 59.1455Z" fill="white"/>
<path d="M248.597 113.09L252.658 120.465L266.246 130.113L299.643 142.56L311.536 151.625C318.811 147.398 322.785 140.432 321.85 129.472C321.85 129.472 311.273 121.718 311.214 119.882C309.374 117.025 310.309 112.215 309.198 107.96C308.585 105.599 307.357 104.112 307.357 104.112C304.845 96.8248 301.484 90.5287 296.722 85.7191C296.722 85.7191 289.884 82.2211 292.134 89.6832C292.134 89.6832 294.793 90.82 294.355 95.7755C294.209 97.5534 294.15 101.051 293.215 102.305C292.572 103.15 291.754 103.558 290.995 103.762C289.767 104.054 284.333 103.791 281.44 102.625C275.917 100.381 268.905 95.7755 262.126 91.5488C262.126 91.5488 258.999 87.2348 255.902 83.1248C252.6 78.7233 249.24 74.5841 245.704 77.9945L255.405 95.2799L265.72 103.937L265.369 105.074C260.489 102.013 255.873 99.6521 251.694 98.3405C251.694 98.3405 248.568 94.901 245.062 91.0533C241.263 86.8559 236.968 82.2795 233.958 84.6987L236.617 91.3156C236.617 91.3156 235.098 92.19 235.127 93.2394C235.156 93.8224 238.136 100.847 241.847 106.152C246.815 114.168 248.597 113.09 248.597 113.09Z" stroke="url(#paint3_linear_6165_722)" stroke-width="0.488022"/>
<path fill-rule="evenodd" clip-rule="evenodd" d="M236.617 91.258C236.661 91.5841 236.66 91.5841 236.66 91.5841L236.666 91.5835C236.671 91.5828 236.68 91.5818 236.692 91.5807C236.717 91.5783 236.755 91.5753 236.806 91.5727C236.906 91.5673 237.054 91.5642 237.239 91.5733C237.608 91.5917 238.118 91.6594 238.677 91.8562C239.783 92.2455 241.109 93.1485 241.919 95.252C242.252 96.1313 242.735 97.0291 243.298 97.9043C243.282 97.9263 243.265 97.9504 243.245 97.9765C243.166 98.0841 243.071 98.2083 242.977 98.3271C242.883 98.4457 242.793 98.5572 242.726 98.6392C242.693 98.6803 242.665 98.7138 242.646 98.737L242.624 98.7636L242.618 98.7705L242.617 98.7723L242.616 98.7727L242.87 98.9826C243.124 99.1923 243.124 99.1923 243.124 99.1923L243.125 99.1921L243.125 99.1917L243.127 99.1897L243.133 99.1824L243.156 99.1547C243.175 99.1306 243.203 99.0962 243.238 99.0545C243.306 98.9707 243.398 98.8562 243.495 98.7344C243.558 98.6539 243.624 98.5695 243.686 98.4877C244.485 99.65 245.397 100.754 246.244 101.698C246.897 102.426 247.516 103.065 248.023 103.568C247.734 103.493 247.435 103.44 247.125 103.409C246.492 103.348 245.814 103.474 245.282 103.788C244.742 104.106 244.335 104.632 244.323 105.346C244.312 105.986 244.505 106.787 245.067 107.773C245.857 109.16 246.662 110.532 247.268 111.556C247.572 112.069 247.826 112.495 248.004 112.792C248.093 112.941 248.164 113.058 248.212 113.138L248.266 113.229L248.28 113.252L248.284 113.258L248.285 113.26L248.285 113.26C248.285 113.26 248.285 113.26 248.568 113.091C248.85 112.921 248.85 112.921 248.85 112.921V112.921L248.85 112.92L248.849 112.919L248.845 112.913L248.831 112.89L248.777 112.799C248.729 112.72 248.659 112.604 248.57 112.455C248.392 112.158 248.139 111.733 247.836 111.222C247.23 110.199 246.428 108.83 245.64 107.448C245.121 106.538 244.974 105.852 244.982 105.358C244.99 104.921 245.229 104.584 245.618 104.354C246.014 104.12 246.547 104.014 247.061 104.064C248.566 104.211 249.805 104.983 250.902 106.089C251.851 107.044 252.677 108.232 253.464 109.445C253.444 109.465 253.418 109.49 253.384 109.517C253.243 109.633 253.028 109.756 252.788 109.873C252.553 109.988 252.31 110.088 252.126 110.16C252.034 110.196 251.957 110.224 251.904 110.244C251.893 110.248 251.883 110.251 251.874 110.254C251.861 110.259 251.85 110.263 251.842 110.266L251.826 110.271L251.822 110.272L251.822 110.273C251.822 110.273 251.822 110.273 251.929 110.584C252.035 110.895 252.035 110.895 252.035 110.895H252.036L252.037 110.894L252.043 110.893L252.061 110.886C252.077 110.881 252.1 110.872 252.129 110.862C252.186 110.841 252.268 110.811 252.366 110.773C252.56 110.697 252.82 110.59 253.078 110.464C253.331 110.34 253.6 110.191 253.801 110.027L253.81 110.02C253.814 110.017 253.817 110.014 253.821 110.011C253.822 110.009 253.824 110.008 253.825 110.007L253.841 110.031C254.697 111.388 255.607 112.704 256.283 113.653C256.676 114.205 257.135 114.703 257.648 115.137C257.648 115.149 257.648 115.165 257.648 115.184C257.648 115.232 257.647 115.302 257.642 115.389C257.631 115.564 257.605 115.803 257.543 116.06C257.416 116.584 257.157 117.125 256.647 117.409L256.969 117.983C257.715 117.568 258.04 116.811 258.184 116.213C258.236 115.999 258.266 115.796 258.284 115.625C258.509 115.781 258.742 115.926 258.983 116.059C260.323 116.802 262.355 117.895 264.35 118.838C265.957 119.612 266.605 120.681 266.865 121.537C266.996 121.97 267.03 122.357 267.031 122.633C267.031 122.771 267.023 122.881 267.016 122.955C267.012 122.992 267.008 123.019 267.006 123.037C267.005 123.045 267.003 123.051 267.003 123.055L267.003 123.057C267.003 123.057 267.003 123.057 267.327 123.118C267.651 123.179 267.651 123.179 267.651 123.178V123.178L267.651 123.177L267.652 123.173L267.653 123.164C267.655 123.156 267.656 123.145 267.658 123.132C267.662 123.106 267.667 123.068 267.672 123.022C267.681 122.928 267.691 122.795 267.69 122.631C267.689 122.305 267.65 121.853 267.496 121.347C267.239 120.497 266.666 119.514 265.461 118.713C265.646 117.408 265.548 116.554 265.381 116.008C265.293 115.721 265.187 115.52 265.094 115.385C265.049 115.318 265.006 115.268 264.973 115.232C264.956 115.214 264.941 115.2 264.929 115.189C264.923 115.183 264.918 115.178 264.913 115.175L264.91 115.172L264.907 115.169L264.904 115.167L264.903 115.166L264.902 115.165C264.902 115.165 264.901 115.165 264.697 115.423C264.492 115.68 264.492 115.68 264.491 115.68L264.491 115.68L264.49 115.679L264.488 115.677L264.485 115.675C264.484 115.674 264.483 115.673 264.483 115.673C264.483 115.673 264.486 115.676 264.492 115.682C264.503 115.693 264.523 115.717 264.55 115.756C264.603 115.834 264.681 115.974 264.75 116.2C264.872 116.6 264.968 117.273 264.844 118.349C264.776 118.314 264.706 118.279 264.636 118.245L264.634 118.244C262.657 117.309 260.638 116.224 259.303 115.484C258.319 114.939 257.472 114.186 256.821 113.272C256.149 112.328 255.246 111.023 254.398 109.68L254.397 109.678C254.316 109.551 254.234 109.423 254.151 109.294C254.149 109.287 254.148 109.279 254.145 109.272L254.138 109.274C253.736 108.65 253.317 108.018 252.873 107.413C255.613 108.491 258.311 109.583 260.957 110.699C262.457 111.332 264.156 110.345 264.324 108.723L263.668 108.655C263.546 109.832 262.311 110.556 261.214 110.093C258.226 108.833 255.174 107.604 252.071 106.392C251.845 106.125 251.612 105.869 251.371 105.626C250.861 105.112 250.311 104.655 249.709 104.289L249.722 104.275L249.721 104.274L249.718 104.272L249.707 104.262C249.697 104.253 249.681 104.239 249.661 104.22C249.62 104.183 249.56 104.128 249.482 104.057C249.327 103.913 249.104 103.704 248.83 103.438C248.282 102.905 247.534 102.15 246.735 101.259C245.129 99.468 243.345 97.1592 242.535 95.0187L242.535 95.0168C241.65 92.7194 240.171 91.6841 238.896 91.2357C238.264 91.0133 237.689 90.9371 237.271 90.9163C237.062 90.9059 236.891 90.9094 236.771 90.9154C236.711 90.9187 236.663 90.9226 236.63 90.9256C236.613 90.9273 236.6 90.9286 236.59 90.9299L236.579 90.9312L236.575 90.9317L236.574 90.9319H236.573C236.573 90.9319 236.573 90.9319 236.617 91.258ZM261.886 91.2946C261.886 91.2946 261.886 91.2944 262.126 91.5205C262.365 91.7464 262.365 91.7464 262.365 91.7464L262.364 91.7471L262.362 91.7501L262.35 91.7627C262.34 91.7737 262.324 91.7906 262.304 91.8124C262.264 91.8564 262.206 91.9202 262.138 91.9994C261.999 92.1585 261.815 92.3779 261.634 92.6209C261.451 92.8653 261.275 93.1262 261.148 93.3695C261.016 93.6235 260.961 93.8131 260.965 93.928L260.306 93.9516C260.295 93.6584 260.419 93.3416 260.563 93.0656C260.713 92.7785 260.912 92.4859 261.105 92.2273C261.3 91.9674 261.494 91.735 261.64 91.5679C261.713 91.4842 261.774 91.4164 261.817 91.3695C261.838 91.3459 261.855 91.3275 261.867 91.3147L261.881 91.3L261.884 91.2961L261.885 91.295L261.886 91.2946ZM265.719 103.909C266.039 103.989 266.039 103.989 266.039 103.989L266.039 103.988L266.04 103.985L266.043 103.972C266.047 103.96 266.052 103.942 266.058 103.918C266.072 103.87 266.093 103.801 266.121 103.716C266.177 103.547 266.26 103.32 266.371 103.088C266.483 102.855 266.617 102.628 266.77 102.451C266.925 102.272 267.08 102.166 267.229 102.13L267.073 101.49C266.74 101.571 266.475 101.785 266.271 102.021C266.065 102.259 265.902 102.542 265.776 102.805C265.65 103.069 265.556 103.323 265.494 103.511C265.463 103.605 265.44 103.683 265.424 103.738C265.416 103.766 265.41 103.788 265.406 103.803L265.404 103.812L265.401 103.821L265.4 103.826L265.4 103.828L265.399 103.828V103.829C265.399 103.829 265.399 103.829 265.719 103.909ZM251.985 98.4384L250.875 100.508L250.293 100.198L251.403 98.1278L251.985 98.4384ZM291.209 103.483C291.209 103.482 291.209 103.482 291.521 103.588C291.833 103.694 291.833 103.694 291.833 103.694V103.694L291.832 103.696L291.83 103.703L291.825 103.717L291.82 103.733C291.811 103.759 291.798 103.799 291.782 103.851C291.748 103.955 291.699 104.11 291.64 104.308C291.521 104.704 291.359 105.274 291.187 105.97C290.843 107.362 290.46 109.249 290.301 111.237C290.142 113.228 290.21 115.299 290.751 117.068C291.291 118.831 292.293 120.275 293.998 121.071L293.719 121.667C291.801 120.772 290.699 119.149 290.121 117.26C289.545 115.379 289.481 113.216 289.644 111.184C289.806 109.15 290.197 107.225 290.547 105.812C290.722 105.105 290.887 104.524 291.008 104.119C291.069 103.917 291.119 103.758 291.154 103.65C291.171 103.596 291.185 103.554 291.194 103.526C291.199 103.512 291.202 103.501 291.205 103.494L291.208 103.485L291.208 103.483L291.209 103.483ZM307.071 128.035C308.844 126.571 310.299 123.662 311.527 119.956L310.901 119.75C309.675 123.448 308.267 126.194 306.65 127.528L307.071 128.035Z" fill="url(#paint4_linear_6165_722)"/>
<path d="M297.019 51.1086C297.084 51.0894 297.135 51.0742 297.174 51.063L297.304 51.134L297.861 51.4383C298.33 51.6947 298.976 52.048 299.685 52.435C301.101 53.2092 302.764 54.1187 303.753 54.6603C314.869 60.754 317.917 76.6365 310.464 90.2079C303.011 103.779 287.95 109.773 276.835 103.707C275.911 103.199 274.652 102.371 273.619 101.666C273.103 101.315 272.646 100.995 272.317 100.763C272.153 100.647 272.021 100.553 271.93 100.488C271.893 100.462 271.863 100.441 271.84 100.425L271.84 100.423C271.825 100.383 271.803 100.324 271.775 100.245C271.719 100.089 271.637 99.8572 271.534 99.5582C271.329 98.9602 271.043 98.0929 270.72 97.016C270.072 94.8624 269.274 91.8734 268.67 88.531C267.46 81.8315 267.043 73.7717 270.124 68.1596C273.18 62.5967 279.941 58.3153 285.978 55.4187C288.99 53.9733 291.81 52.8781 293.878 52.1443C294.911 51.7774 295.756 51.501 296.343 51.3164C296.636 51.2241 296.864 51.1548 297.019 51.1086Z" fill="url(#paint5_linear_6165_722)" stroke="#07828B" stroke-width="0.414089"/>
<path d="M305.279 87.1306C312.766 73.4872 309.727 57.4531 298.492 51.3175C287.257 45.1819 272.08 51.2683 264.593 64.9117C257.106 78.5553 260.145 94.5892 271.38 100.725C282.615 106.86 297.792 100.774 305.279 87.1306Z" fill="url(#paint6_linear_6165_722)" stroke="#07828B" stroke-width="0.414089" stroke-miterlimit="10" stroke-linejoin="round"/>
<path d="M299.2 76.5147L302.643 71.4041L284.11 58.9746L280.667 64.0852L287.5 68.6679L285.25 72.0066C279.506 68.5631 274.491 66.9942 273.491 68.4774C272.492 69.9607 275.842 74.0016 281.206 78.0084L273.987 88.7237L278.855 91.9884L286.075 81.2709C291.801 84.6951 296.793 86.2521 297.79 84.7734C298.786 83.2947 295.456 79.2698 290.116 75.2728L292.367 71.9317L299.2 76.5147ZM295.901 83.0686C295.244 84.0441 291.458 82.6933 286.938 79.9913L286.647 79.8158L286.615 79.7946L286.343 79.6282L286.314 79.6089C286.113 79.4847 285.909 79.3574 285.704 79.2272L285.691 79.2185L285.416 79.0434L285.34 78.9921L285.124 78.8519L283.771 77.945L283.562 77.8L283.489 77.7508L283.24 77.5756L283.213 77.5569C282.918 77.349 282.63 77.1408 282.349 76.9335L282.345 76.9309L282.066 76.7229C277.827 73.5556 275.125 70.5515 275.786 69.5714C276.446 68.5913 280.253 69.9555 284.794 72.6731L282.706 75.7729C283.437 76.3288 284.231 76.8965 285.072 77.4604C285.926 78.033 286.77 78.5624 287.576 79.035L289.656 75.9467C293.875 79.1049 296.558 82.0928 295.901 83.0686Z" fill="white"/>
<path d="M284.173 138.173C284.173 138.173 298.567 138.279 305.239 132.469L310.414 140.306C310.414 140.306 302.675 146.506 286.813 146.381L284.173 138.173Z" fill="#07828B"/>
<path d="M287.538 145.722L285.237 138.649C286.432 139.546 290.829 138.716 291.881 138.643C292.933 138.571 291.702 139.334 291.985 140.143C292.267 140.952 298.532 139.843 298.729 140.508C298.926 141.172 293.182 142.17 293.56 143.274C293.938 144.378 297.67 143.744 296.309 144.817C295.221 145.676 290.008 145.778 287.538 145.722Z" fill="#88D8DB"/>
<path d="M309.703 131.172C317.469 126.077 321.201 118.489 322.591 108.684L334.332 112.748C331.454 124.052 325.733 131.356 315.933 138.522L309.709 131.171L309.703 131.172Z" fill="url(#paint7_linear_6165_722)"/>
<path d="M316.496 127.678C315.625 128.171 315.56 127.375 315.636 126.916L310.85 131.267L316.338 137.067C316.918 137.145 322.834 131.52 324.886 130.076C324.915 129.909 325.243 129.714 325.319 128.69C325.414 127.409 322.891 129.57 322.202 128.121C321.512 126.672 318.661 129.826 318.962 127.829C319.263 125.832 317.585 127.062 316.496 127.678Z" fill="#07828B"/>
<path d="M324.718 87.1152L340.108 87.6874C341.465 99.6224 339.405 108.736 331.848 115.024L315.909 113.397C322.842 106.392 324.718 99.7226 324.718 87.1152Z" fill="url(#paint8_linear_6165_722)" stroke="url(#paint9_linear_6165_722)" stroke-width="0.434603" stroke-miterlimit="10" stroke-linejoin="round"/>
<mask id="mask0_6165_722" style="mask-type:alpha" maskUnits="userSpaceOnUse" x="316" y="87" width="24" height="28">
<path d="M323.836 87.9531L339.159 88.3163C340.986 99.5287 338.557 108.528 331.754 114.307L317.087 112.844C323.637 106.226 326.424 98.1973 323.836 87.9531Z" fill="#D9D9D9" stroke="white" stroke-width="0.434603" stroke-miterlimit="10"/>
</mask>
<g mask="url(#mask0_6165_722)">
<path d="M321.736 104.91C320.696 106.908 319.602 105.476 319.185 104.511L313.334 116.333L332.986 118.335C334.176 117.775 339.906 105.035 342.012 99.7899C341.863 99.4385 341.289 98.2257 340.182 96.1874C338.798 93.6392 336.1 100.709 333.032 98.7979C329.964 96.8866 328.438 106.35 326.568 102.192C324.698 98.0334 323.035 102.413 321.736 104.91Z" fill="#88D8DB"/>
</g>
<path d="M326.559 90.9529L326.932 90.9761L326.896 91.5638L327.482 91.6002L327.459 91.9698L326.873 91.9335L326.836 92.5212L326.462 92.4978L326.499 91.9103L325.91 91.8737L325.933 91.5041L326.522 91.5407L326.559 90.9529ZM327.896 91.4922L327.922 91.0711L328.626 90.7285L328.969 90.7499L328.83 92.9705L328.384 92.9428L328.493 91.2068L327.896 91.4922ZM330.18 92.6679L331.07 92.7231L331.046 93.1079L329.512 93.0127L329.53 92.7279L330.248 92.0183C330.372 91.8962 330.458 91.8002 330.507 91.7303C330.558 91.6584 330.586 91.5831 330.591 91.5043C330.596 91.4175 330.577 91.3464 330.531 91.291C330.486 91.2353 330.422 91.205 330.339 91.1998C330.254 91.1947 330.177 91.2213 330.108 91.2797C330.04 91.3364 329.985 91.4202 329.943 91.5312L329.61 91.3096C329.673 91.1332 329.777 91.0018 329.921 90.9153C330.064 90.827 330.226 90.7885 330.406 90.7995C330.548 90.8084 330.669 90.8452 330.768 90.9103C330.87 90.9733 330.945 91.057 330.993 91.1613C331.044 91.2659 331.065 91.3827 331.057 91.5121C331.049 91.6394 331.01 91.7564 330.94 91.8636C330.873 91.969 330.755 92.1046 330.586 92.2704L330.18 92.6679ZM332.283 91.7677C332.421 91.7761 332.542 91.814 332.645 91.8813C332.749 91.9464 332.826 92.0345 332.878 92.1451C332.931 92.2559 332.952 92.3799 332.944 92.5171C332.935 92.6606 332.891 92.7865 332.813 92.8954C332.737 93.0042 332.637 93.086 332.512 93.1412C332.388 93.1964 332.256 93.2196 332.114 93.2107C331.968 93.2016 331.838 93.1622 331.722 93.0921C331.607 93.02 331.518 92.9244 331.457 92.8049C331.395 92.6857 331.369 92.5502 331.378 92.3987C331.385 92.2856 331.413 92.1789 331.462 92.0785C331.511 91.9761 331.595 91.8434 331.713 91.6805L332.24 90.9529L332.716 90.9826L332.241 91.6221C332.203 91.6744 332.162 91.7266 332.118 91.7787C332.167 91.7675 332.223 91.7638 332.283 91.7677ZM332.136 92.8168C332.231 92.8227 332.31 92.7961 332.372 92.7372C332.435 92.6762 332.469 92.5952 332.476 92.4942C332.482 92.3933 332.458 92.3096 332.403 92.2434C332.348 92.1752 332.274 92.138 332.178 92.1321C332.081 92.1261 332.001 92.1535 331.938 92.2146C331.876 92.2734 331.841 92.3535 331.835 92.4544C331.829 92.5574 331.853 92.642 331.908 92.7084C331.964 92.7746 332.04 92.8108 332.136 92.8168ZM333.406 93.297C333.337 93.2927 333.28 93.2639 333.234 93.2105C333.189 93.1568 333.168 93.0947 333.173 93.0241C333.177 92.9534 333.205 92.8943 333.257 92.8469C333.309 92.7993 333.369 92.7779 333.438 92.782C333.509 92.7865 333.567 92.8153 333.612 92.869C333.66 92.9227 333.681 92.9848 333.677 93.0553C333.673 93.1261 333.643 93.1852 333.59 93.2325C333.538 93.2799 333.477 93.3014 333.406 93.297ZM335.165 92.202C335.285 92.2561 335.375 92.3306 335.434 92.4256C335.494 92.5184 335.519 92.6316 335.511 92.7649C335.502 92.9021 335.459 93.0181 335.382 93.1127C335.308 93.2053 335.209 93.2741 335.086 93.3193C334.965 93.3624 334.833 93.3797 334.69 93.3706C334.505 93.3591 334.347 93.3059 334.215 93.2105C334.085 93.1153 333.997 92.983 333.95 92.8138L334.312 92.6357C334.338 92.7426 334.386 92.8257 334.458 92.885C334.529 92.9421 334.612 92.9735 334.705 92.9794C334.796 92.985 334.873 92.9633 334.937 92.9147C335.004 92.8662 335.039 92.7954 335.045 92.7024C335.058 92.4985 334.908 92.3868 334.597 92.3674L334.515 92.3624L334.538 91.9988L334.656 92.0062C334.771 92.0133 334.861 91.9915 334.925 91.9408C334.991 91.8882 335.027 91.8205 335.032 91.7376C335.037 91.6608 335.016 91.5976 334.968 91.548C334.92 91.4985 334.856 91.4712 334.775 91.4662C334.688 91.4608 334.61 91.4844 334.542 91.5368C334.476 91.5874 334.422 91.6632 334.381 91.764L334.059 91.5526C334.123 91.3862 334.223 91.2626 334.36 91.1819C334.497 91.0992 334.656 91.0635 334.836 91.0745C334.976 91.0832 335.096 91.1172 335.198 91.1763C335.303 91.2334 335.381 91.3102 335.434 91.4067C335.487 91.5032 335.509 91.6121 335.502 91.7333C335.495 91.8465 335.463 91.9428 335.405 92.0222C335.349 92.1018 335.269 92.1618 335.165 92.202ZM336.874 91.7547C336.867 91.8638 336.837 91.9592 336.783 92.041C336.729 92.1207 336.66 92.1802 336.574 92.2196C336.488 92.2587 336.395 92.2754 336.296 92.2691C336.199 92.2633 336.11 92.2354 336.03 92.1858C335.95 92.1362 335.887 92.0685 335.842 91.9826C335.799 91.8947 335.78 91.7963 335.787 91.6872C335.794 91.5781 335.824 91.4838 335.878 91.4039C335.934 91.3243 336.004 91.2648 336.09 91.2254C336.176 91.1843 336.268 91.1665 336.365 91.1726C336.464 91.1786 336.554 91.2076 336.634 91.2591C336.714 91.3087 336.776 91.3764 336.819 91.4623C336.862 91.548 336.881 91.6456 336.874 91.7547ZM337.516 91.2836L337.947 91.3104L336.482 93.4455L336.051 93.4187L337.516 91.2836ZM336.534 91.7335C336.538 91.6649 336.522 91.6091 336.487 91.5664C336.451 91.5216 336.404 91.4974 336.345 91.4937C336.288 91.4903 336.239 91.5084 336.198 91.5485C336.157 91.5863 336.135 91.6398 336.13 91.7084C336.126 91.7751 336.142 91.8309 336.178 91.8757C336.214 91.9205 336.26 91.9445 336.316 91.9482C336.375 91.9516 336.425 91.9335 336.466 91.8934C336.507 91.8536 336.53 91.8002 336.534 91.7335ZM338.211 93.0389C338.204 93.1479 338.174 93.2434 338.12 93.3252C338.066 93.405 337.997 93.4645 337.911 93.5037C337.825 93.5431 337.733 93.5595 337.634 93.5535C337.536 93.5474 337.448 93.5197 337.368 93.4702C337.287 93.4204 337.224 93.3527 337.179 93.2667C337.136 93.1789 337.118 93.0804 337.124 92.9713C337.131 92.8623 337.161 92.7679 337.215 92.6881C337.271 92.6084 337.342 92.5489 337.427 92.5098C337.513 92.4684 337.605 92.4509 337.702 92.4569C337.801 92.463 337.891 92.4918 337.971 92.5435C338.051 92.5931 338.113 92.6608 338.156 92.7465C338.2 92.8324 338.218 92.9298 338.211 93.0389ZM337.871 93.0179C337.876 92.9491 337.859 92.8934 337.821 92.8504C337.785 92.8056 337.739 92.7816 337.682 92.7779C337.625 92.7744 337.576 92.7926 337.535 92.8326C337.494 92.8707 337.472 92.924 337.467 92.9928C337.463 93.0594 337.479 93.115 337.515 93.1598C337.551 93.2046 337.597 93.2289 337.654 93.2323C337.71 93.2358 337.759 93.2176 337.8 93.1776C337.843 93.1378 337.867 93.0845 337.871 93.0179Z" fill="white"/>
<path d="M331.88 109.667L323.938 108.504C322.902 108.352 321.867 108.792 321.258 109.643L321.186 109.743C320.605 110.555 321.091 111.693 322.08 111.837L329.877 112.976C330.957 113.134 332.039 112.702 332.711 111.843L332.739 111.807C333.37 111.001 332.894 109.816 331.88 109.667Z" fill="white"/>
<path d="M323.418 109.279L324.577 109.412L324.459 109.698L323.652 109.606L323.477 110.028L324.199 110.111L324.081 110.395L323.359 110.312L323.087 110.971L322.734 110.931L323.418 109.279ZM324.23 110.49C324.28 110.368 324.354 110.264 324.451 110.177C324.549 110.091 324.658 110.028 324.778 109.99C324.898 109.95 325.015 109.937 325.13 109.95C325.244 109.963 325.338 110 325.414 110.062C325.493 110.123 325.542 110.204 325.562 110.304C325.583 110.404 325.568 110.515 325.518 110.637C325.468 110.759 325.393 110.863 325.295 110.949C325.198 111.036 325.089 111.098 324.97 111.137C324.852 111.175 324.737 111.188 324.623 111.175C324.508 111.162 324.411 111.125 324.333 111.064C324.255 111.003 324.205 110.922 324.184 110.822C324.164 110.723 324.179 110.611 324.23 110.49ZM324.58 110.53C324.537 110.634 324.53 110.719 324.56 110.787C324.591 110.854 324.649 110.892 324.734 110.902C324.818 110.911 324.9 110.889 324.98 110.835C325.061 110.78 325.123 110.7 325.166 110.597C325.209 110.493 325.215 110.407 325.186 110.339C325.156 110.271 325.099 110.232 325.015 110.222C324.93 110.213 324.847 110.236 324.765 110.291C324.684 110.346 324.622 110.426 324.58 110.53ZM325.859 111.288L325.521 111.249L326.231 109.532L326.569 109.57L325.859 111.288ZM326.509 111.362L326.171 111.323L326.882 109.606L327.22 109.645L326.509 111.362ZM326.991 110.805C327.041 110.683 327.115 110.579 327.212 110.492C327.31 110.406 327.419 110.343 327.538 110.305C327.659 110.265 327.776 110.252 327.891 110.265C328.005 110.278 328.099 110.315 328.176 110.378C328.254 110.439 328.303 110.519 328.323 110.619C328.344 110.719 328.329 110.83 328.279 110.952C328.229 111.074 328.154 111.178 328.056 111.264C327.959 111.351 327.85 111.413 327.731 111.452C327.613 111.49 327.498 111.503 327.384 111.49C327.269 111.477 327.172 111.44 327.094 111.379C327.016 111.318 326.966 111.238 326.945 111.138C326.925 111.038 326.94 110.927 326.991 110.805ZM327.341 110.845C327.298 110.949 327.291 111.035 327.32 111.103C327.352 111.169 327.41 111.207 327.495 111.217C327.579 111.227 327.661 111.204 327.741 111.151C327.822 111.095 327.884 111.016 327.926 110.912C327.969 110.808 327.976 110.722 327.946 110.654C327.917 110.586 327.86 110.547 327.776 110.538C327.691 110.528 327.608 110.551 327.526 110.606C327.445 110.661 327.384 110.741 327.341 110.845ZM329.686 110.5L329.647 111.259L330.197 110.559L330.525 110.596L329.583 111.71L329.342 111.683L329.349 110.939L328.78 111.619L328.537 111.591L328.543 110.37L328.891 110.41L328.851 111.178L329.404 110.468L329.686 110.5Z" fill="#07828B"/>
<defs>
<linearGradient id="paint0_linear_6165_722" x1="255.744" y1="39.0613" x2="246.031" y2="82.0217" gradientUnits="userSpaceOnUse">
<stop stop-color="#33F39A"/>
<stop offset="0.31638" stop-color="#7FE2B3"/>
<stop offset="0.655" stop-color="white"/>
<stop offset="1" stop-color="#EEEEEE"/>
</linearGradient>
<linearGradient id="paint1_linear_6165_722" x1="242.896" y1="42.4136" x2="232.07" y2="64.9789" gradientUnits="userSpaceOnUse">
<stop stop-color="#006647"/>
<stop offset="1" stop-color="#07828B"/>
</linearGradient>
<linearGradient id="paint2_linear_6165_722" x1="335.805" y1="51.9988" x2="333.938" y2="65.8946" gradientUnits="userSpaceOnUse">
<stop stop-color="#006647"/>
<stop offset="1" stop-color="#07828B"/>
</linearGradient>
<linearGradient id="paint3_linear_6165_722" x1="218.346" y1="76.6488" x2="287.004" y2="107.634" gradientUnits="userSpaceOnUse">
<stop stop-color="white"/>
<stop offset="0.436664" stop-color="#006647"/>
<stop offset="1" stop-color="#07828B"/>
</linearGradient>
<linearGradient id="paint4_linear_6165_722" x1="229.549" y1="80.2946" x2="324.4" y2="91.7757" gradientUnits="userSpaceOnUse">
<stop stop-color="white"/>
<stop offset="0.28" stop-color="#006647"/>
<stop offset="1" stop-color="#07828B"/>
</linearGradient>
<linearGradient id="paint5_linear_6165_722" x1="341.311" y1="50.9755" x2="303.17" y2="141.538" gradientUnits="userSpaceOnUse">
<stop stop-color="#33F39A"/>
<stop offset="0.31638" stop-color="#509775"/>
<stop offset="0.655" stop-color="white"/>
<stop offset="1"/>
</linearGradient>
<linearGradient id="paint6_linear_6165_722" x1="292.483" y1="49.5922" x2="266.683" y2="100.409" gradientUnits="userSpaceOnUse">
<stop stop-color="#006647"/>
<stop offset="1" stop-color="#07828B"/>
</linearGradient>
<linearGradient id="paint7_linear_6165_722" x1="321.107" y1="108.786" x2="323.119" y2="138.028" gradientUnits="userSpaceOnUse">
<stop stop-color="#07828B" stop-opacity="0.5"/>
<stop offset="1" stop-color="#07828B" stop-opacity="0.2"/>
</linearGradient>
<linearGradient id="paint8_linear_6165_722" x1="353.952" y1="69.9627" x2="353.646" y2="107.055" gradientUnits="userSpaceOnUse">
<stop stop-color="#07828B"/>
<stop offset="0.265" stop-color="#5AB8DB"/>
<stop offset="0.765" stop-color="#07828B"/>
</linearGradient>
<linearGradient id="paint9_linear_6165_722" x1="330.308" y1="115.263" x2="325.875" y2="86.7529" gradientUnits="userSpaceOnUse">
<stop stop-color="#07828B"/>
<stop offset="1" stop-color="white"/>
</linearGradient>
</defs>
</svg>
