<svg width="370" height="160" viewBox="0 0 370 160" fill="none" xmlns="http://www.w3.org/2000/svg">
<rect width="370" height="160" rx="16" fill="#CDE6E8"/>
<path d="M33.586 32.616C33.442 33.372 33.268 34.17 33.064 35.01C32.86 35.946 32.56 36.588 32.164 36.936C31.78 37.296 31.3 37.476 30.724 37.476C30.208 37.476 29.752 37.302 29.356 36.954C28.96 36.618 28.486 36.018 27.934 35.154C27.874 35.07 27.796 34.932 27.7 34.74C26.752 35.736 25.702 36.642 24.55 37.458L23.11 35.838C24.598 34.794 25.828 33.726 26.8 32.634C26.2 30.786 25.75 28.41 25.45 25.506H20.212V27.522H24.838C24.79 29.07 24.67 30.846 24.478 32.85C24.418 33.438 24.292 33.906 24.1 34.254C23.92 34.59 23.632 34.836 23.236 34.992C22.84 35.148 22.306 35.226 21.634 35.226C21.358 35.226 20.944 35.202 20.392 35.154L19.978 33.228C20.518 33.288 21.004 33.318 21.436 33.318C21.76 33.318 21.982 33.246 22.102 33.102C22.234 32.958 22.33 32.688 22.39 32.292C22.534 31.2 22.612 30.252 22.624 29.448H20.212C20.176 31.176 20.026 32.64 19.762 33.84C19.498 35.028 19.06 36.246 18.448 37.494L16.324 36.504C16.804 35.652 17.164 34.878 17.404 34.182C17.656 33.486 17.836 32.7 17.944 31.824C18.052 30.936 18.106 29.802 18.106 28.422V23.454H25.27C25.246 23.226 25.222 22.872 25.198 22.392L25.072 20.898H27.25L27.43 23.454H29.968C29.284 22.746 28.744 22.218 28.348 21.87L29.77 20.466C30.226 20.886 30.97 21.612 32.002 22.644L31.174 23.454H33.082V25.506H27.61C27.814 27.546 28.078 29.232 28.402 30.564C29.206 29.28 29.872 27.834 30.4 26.226L32.308 27.018C31.504 29.31 30.46 31.302 29.176 32.994C29.404 33.522 29.662 34.002 29.95 34.434C30.13 34.698 30.286 34.884 30.418 34.992C30.562 35.088 30.694 35.124 30.814 35.1C30.922 35.1 31.024 35.022 31.12 34.866C31.216 34.698 31.312 34.404 31.408 33.984C31.468 33.768 31.552 33.294 31.66 32.562L31.75 31.986L33.586 32.616ZM50.416 24.714V25.254C50.416 26.994 50.374 28.692 50.29 30.348C50.206 31.992 50.068 33.408 49.876 34.596C49.768 35.244 49.6 35.748 49.372 36.108C49.144 36.48 48.814 36.75 48.382 36.918C47.962 37.086 47.386 37.17 46.654 37.17C45.586 37.17 44.578 37.104 43.63 36.972L43.18 34.794C43.624 34.854 44.098 34.908 44.602 34.956C45.118 35.004 45.634 35.034 46.15 35.046C46.522 35.046 46.804 35.01 46.996 34.938C47.188 34.854 47.338 34.71 47.446 34.506C47.554 34.302 47.65 33.984 47.734 33.552C47.842 32.94 47.932 32.058 48.004 30.906C48.088 29.742 48.13 28.686 48.13 27.738C48.13 27.342 48.124 27.06 48.112 26.892H43C42.76 28.464 42.394 29.85 41.902 31.05C41.422 32.238 40.732 33.36 39.832 34.416C38.944 35.472 37.768 36.534 36.304 37.602L34.738 35.838C36.01 34.962 37.036 34.086 37.816 33.21C38.608 32.334 39.22 31.398 39.652 30.402C40.096 29.394 40.432 28.224 40.66 26.892H35.422V24.714H38.5C38.176 24.33 37.774 23.88 37.294 23.364C36.826 22.848 36.466 22.47 36.214 22.23L37.816 20.88C38.116 21.156 38.494 21.534 38.95 22.014C39.406 22.494 39.832 22.968 40.228 23.436L38.77 24.714H40.948C41.008 24.066 41.062 23.358 41.11 22.59C41.17 21.81 41.206 21.252 41.218 20.916H43.486C43.486 21.624 43.402 22.89 43.234 24.714H50.416ZM45.52 32.742C45.22 32.298 44.794 31.74 44.242 31.068C43.69 30.396 43.24 29.88 42.892 29.52L44.494 28.152C44.866 28.524 45.316 29.016 45.844 29.628C46.384 30.228 46.834 30.78 47.194 31.284L45.52 32.742ZM61.828 20.592C62.632 21.852 63.7 23.01 65.032 24.066C66.376 25.122 67.906 26.022 69.622 26.766L68.506 28.908C67.366 28.344 66.352 27.768 65.464 27.18V28.17H56.446V27.216C55.474 27.864 54.448 28.452 53.368 28.98L52.36 26.784C54.028 26.04 55.558 25.116 56.95 24.012C58.354 22.896 59.422 21.756 60.154 20.592H61.828ZM64.006 26.136C62.806 25.224 61.804 24.264 61 23.256C60.22 24.216 59.206 25.176 57.958 26.136H64.006ZM57.04 37.422H54.772V29.79H67.138V37.422H64.924V36.576H57.04V37.422ZM64.924 34.56V31.788H57.04V34.56H64.924ZM86.596 23.382C86.572 27.222 86.422 31.038 86.146 34.83C86.098 35.442 85.99 35.922 85.822 36.27C85.654 36.618 85.39 36.87 85.03 37.026C84.682 37.182 84.184 37.266 83.536 37.278C82.516 37.278 81.67 37.242 80.998 37.17L80.566 34.992C81.142 35.076 81.856 35.13 82.708 35.154C83.032 35.154 83.278 35.118 83.446 35.046C83.614 34.974 83.734 34.854 83.806 34.686C83.878 34.506 83.932 34.23 83.968 33.858C84.208 31.014 84.328 28.254 84.328 25.578H80.566C80.17 26.43 79.726 27.264 79.234 28.08L77.362 27.036C78.538 25.176 79.444 23.07 80.08 20.718L82.15 21.258C81.994 21.858 81.766 22.566 81.466 23.382H86.596ZM71.116 28.314L70.648 26.28C70.852 26.208 71.002 26.142 71.098 26.082C71.194 26.01 71.278 25.926 71.35 25.83C72.31 24.51 73.258 22.824 74.194 20.772L76.066 21.744C75.202 23.52 74.326 25.014 73.438 26.226L75.184 25.884C75.64 25.128 76.03 24.444 76.354 23.832L78.082 24.786C76.918 26.838 75.682 28.74 74.374 30.492L77.398 29.79L77.434 31.788L76.066 32.058C74.458 32.394 73.252 32.652 72.448 32.832L71.494 33.03L71.044 30.906C71.584 30.798 71.998 30.546 72.286 30.15C72.706 29.598 73.258 28.818 73.942 27.81C73.294 27.93 72.808 28.014 72.484 28.062L71.116 28.314ZM81.106 32.814C80.758 32.25 80.35 31.62 79.882 30.924C79.426 30.216 79.024 29.634 78.676 29.178L80.332 28.026C81.16 29.094 82 30.3 82.852 31.644L81.106 32.814ZM70.792 34.938C72.712 34.566 75.052 34.05 77.812 33.39L77.974 35.604C75.346 36.216 73.078 36.696 71.17 37.044L70.792 34.938ZM102.148 20.97V22.662H104.902V24.588H102.148V25.992H100.132V24.588H97.99V25.992H95.992V24.588H93.832V25.992H91.852V24.588H89.08V22.662H91.852V20.97H93.832V22.662H95.992V20.97H97.99V22.662H100.132V20.97H102.148ZM91.384 30.024H89.386V26.532H104.632V30.024H102.598V28.458H91.384V30.024ZM103.03 30.312V34.092C103.042 34.692 102.994 35.154 102.886 35.478C102.79 35.79 102.598 36.018 102.31 36.162C102.022 36.306 101.584 36.378 100.996 36.378C100.348 36.378 99.736 36.342 99.16 36.27L98.782 34.434C99.382 34.53 99.898 34.578 100.33 34.578C100.606 34.578 100.792 34.53 100.888 34.434C100.984 34.326 101.032 34.14 101.032 33.876V32.184H97.972V37.278H96.01V32.184H93.004V36.324H91.024V30.312H96.01V28.962H97.972V30.312H103.03ZM123.136 32.922V34.956H116.08V37.44H113.938V34.956H106.864V32.922H113.938V31.59H108.25V23.274H111.49L110.518 21.942L110.266 21.6L112.174 20.628C112.39 20.892 112.654 21.246 112.966 21.69C113.29 22.122 113.548 22.488 113.74 22.788L112.822 23.274H116.026C116.434 22.77 117.064 21.906 117.916 20.682L119.932 21.456C119.608 21.924 119.176 22.53 118.636 23.274H121.786V31.59H116.08V32.922H123.136ZM113.938 26.568V25.218H110.446V26.568H113.938ZM116.08 26.568H119.59V25.218H116.08V26.568ZM110.446 28.314V29.664H113.938V28.314H110.446ZM116.08 28.314V29.664H119.59V28.314H116.08ZM125.206 28.908C126.082 28.344 126.928 27.72 127.744 27.036C128.572 26.34 129.316 25.638 129.976 24.93H125.242V22.752H131.866C131.674 22.176 131.458 21.618 131.218 21.078L133.684 20.628C133.972 21.468 134.2 22.176 134.368 22.752H140.74V24.93H135.628C136.228 25.302 137.068 25.89 138.148 26.694C139.228 27.486 140.104 28.158 140.776 28.71L139.444 30.564C138.724 29.952 137.824 29.226 136.744 28.386C135.664 27.534 134.842 26.916 134.278 26.532L135.574 24.93H130.174L131.704 26.28C130.996 27.048 130.186 27.828 129.274 28.62C128.362 29.412 127.432 30.144 126.484 30.816L125.206 28.908ZM140.524 37.458C138.772 37.014 137.296 36.552 136.096 36.072C134.896 35.604 133.858 35.064 132.982 34.452C132.106 35.064 131.068 35.622 129.868 36.126C128.668 36.642 127.24 37.134 125.584 37.602L124.576 35.424C126.064 35.064 127.348 34.692 128.428 34.308C129.508 33.912 130.444 33.468 131.236 32.976C130.444 32.148 129.64 31.044 128.824 29.664L130.624 28.494C131.392 29.802 132.184 30.84 133 31.608C133.792 30.828 134.506 29.814 135.142 28.566L137.122 29.628C136.438 30.924 135.652 32.034 134.764 32.958C135.568 33.438 136.498 33.852 137.554 34.2C138.622 34.548 139.906 34.866 141.406 35.154L140.524 37.458ZM158.308 29.484C158.236 31.224 158.056 33.048 157.768 34.956C157.624 35.82 157.348 36.42 156.94 36.756C156.544 37.104 155.914 37.284 155.05 37.296C154.138 37.296 153.28 37.248 152.476 37.152L152.08 35.208C152.86 35.328 153.604 35.388 154.312 35.388C154.768 35.388 155.086 35.31 155.266 35.154C155.458 34.986 155.602 34.674 155.698 34.218C155.902 33.294 156.046 32.304 156.13 31.248H154.438C153.946 32.64 153.238 33.846 152.314 34.866C151.39 35.886 150.106 36.84 148.462 37.728L147.094 36.108C148.57 35.34 149.686 34.602 150.442 33.894C151.198 33.174 151.786 32.292 152.206 31.248H150.55C149.866 32.388 149.008 33.372 147.976 34.2C146.944 35.016 145.582 35.802 143.89 36.558L142.774 34.866C144.094 34.362 145.192 33.81 146.068 33.21C146.944 32.61 147.646 31.956 148.174 31.248H146.374C145.582 31.944 144.79 32.574 143.998 33.138L142.72 31.59C143.356 31.206 144.01 30.732 144.682 30.168C145.354 29.592 145.948 29.01 146.464 28.422H144.79V21.438H157.39V28.422H149.002C148.822 28.674 148.54 29.028 148.156 29.484H158.308ZM155.302 24.228V23.202H146.878V24.228H155.302ZM146.878 25.74V26.694H155.302V25.74H146.878ZM163.132 21.384H174.904V26.46H163.132V21.384ZM165.4 24.642H172.654V23.31H165.4V24.642ZM173.266 29.556H164.788V33.732H162.592V27.522H175.444V33.624H173.266V29.556ZM175.804 37.602C173.356 36.402 171.088 35.334 169 34.398C167.812 35.838 165.406 36.906 161.782 37.602L161.044 35.568C162.616 35.292 163.858 34.986 164.77 34.65C165.694 34.314 166.384 33.924 166.84 33.48C167.296 33.024 167.596 32.466 167.74 31.806C167.86 31.158 167.938 30.618 167.974 30.186H170.224C170.164 30.966 170.032 31.806 169.828 32.706C172.132 33.606 174.472 34.572 176.848 35.604L175.804 37.602ZM32.848 49.32V50.976H17.116V49.32H24.064C23.884 48.924 23.668 48.504 23.416 48.06L25.702 47.61C25.954 48.09 26.212 48.66 26.476 49.32H32.848ZM31.084 51.822V55.512H18.916V51.822H31.084ZM29.014 53.208H20.95V54.162H29.014V53.208ZM33.19 59.346V61.146H26.242V62.28C26.242 63.084 26.086 63.654 25.774 63.99C25.462 64.326 24.916 64.5 24.136 64.512C23.38 64.524 22.51 64.482 21.526 64.386L21.13 62.406C21.946 62.526 22.672 62.586 23.308 62.586C23.608 62.586 23.812 62.514 23.92 62.37C24.04 62.214 24.1 61.968 24.1 61.632V61.146H16.792V59.346H24.1V58.968L27.214 57.978H18.322V56.34H31.444V57.978L27.448 59.346H33.19ZM37.078 54.918V56.952H35.116V53.028H38.05C37.678 52.344 37.324 51.744 36.988 51.228L38.194 50.598L36.124 50.67L35.836 48.87C37.996 48.798 40.426 48.684 43.126 48.528C45.826 48.36 47.95 48.192 49.498 48.024L49.948 49.86L49.336 49.914L47.554 50.04L49.12 50.58C48.712 51.48 48.31 52.296 47.914 53.028H50.812V56.952H48.868V54.918H37.078ZM45.664 53.028C45.904 52.62 46.168 52.134 46.456 51.57C46.744 50.994 46.984 50.496 47.176 50.076C46.348 50.136 45.094 50.214 43.414 50.31C43.498 50.466 43.762 50.952 44.206 51.768C44.29 51.924 44.362 52.068 44.422 52.2C44.494 52.32 44.554 52.422 44.602 52.506L43.504 53.028H45.664ZM38.932 50.562C39.1 50.814 39.364 51.24 39.724 51.84L40.156 52.56L39.184 53.028H42.568C42.232 52.38 41.884 51.738 41.524 51.102L43.09 50.328L38.932 50.562ZM50.524 64.584C48.952 64.26 47.56 63.9 46.348 63.504C45.136 63.12 44.05 62.676 43.09 62.172C41.158 63.156 38.602 63.99 35.422 64.674L34.702 62.586C37.27 62.13 39.382 61.566 41.038 60.894C40.066 60.174 39.112 59.238 38.176 58.086H37.636V56.16H48.22V58.086C47.26 59.202 46.246 60.144 45.178 60.912C46.822 61.584 48.85 62.112 51.262 62.496L50.524 64.584ZM40.84 58.086C41.512 58.758 42.262 59.352 43.09 59.868C43.87 59.4 44.638 58.806 45.394 58.086H40.84ZM54.88 48.366H67.156V53.802H54.88V48.366ZM65.122 50.526V49.824H56.914V50.526H65.122ZM56.914 51.696V52.416H65.122V51.696H56.914ZM68.542 64.62C67.282 64.104 66.196 63.492 65.284 62.784C64.372 63.504 63.328 64.116 62.152 64.62L61.252 62.892C61.3 62.868 61.336 62.856 61.36 62.856L60.874 62.91V64.62H58.93V63.162C55.474 63.594 53.536 63.846 53.116 63.918L52.954 62.244L54.232 62.082V56.106H52.864V54.486H69.154V56.106H60.874V61.236C61.102 61.212 61.282 61.194 61.414 61.182C61.558 61.158 61.666 61.14 61.738 61.128L61.828 62.64C62.536 62.328 63.232 61.944 63.916 61.488C63.184 60.684 62.584 59.712 62.116 58.572H61.54V56.97H68.542V58.662C68.002 59.73 67.39 60.654 66.706 61.434C67.426 61.866 68.326 62.292 69.406 62.712L68.542 64.62ZM58.93 57.078V56.106H56.23V57.078H58.93ZM58.93 58.464H56.23V59.472H58.93V58.464ZM64.078 58.572C64.414 59.232 64.822 59.808 65.302 60.3C65.77 59.82 66.166 59.244 66.49 58.572H64.078ZM56.23 60.732V61.83L58.93 61.488V60.732H56.23ZM87.01 49.212V50.922H71.044V49.212H77.956L77.452 48.042L79.774 47.592C79.906 47.856 80.146 48.396 80.494 49.212H87.01ZM73.258 55.44V51.732H84.814V55.44H73.258ZM75.382 54H82.654V53.1H75.382V54ZM71.782 64.404V56.178H86.29V62.172C86.29 63 86.128 63.576 85.804 63.9C85.492 64.236 84.928 64.416 84.112 64.44C83.452 64.452 82.744 64.422 81.988 64.35L81.628 62.622H75.166V58.77H82.888V62.622H83.32C83.644 62.634 83.866 62.574 83.986 62.442C84.118 62.298 84.184 62.046 84.184 61.686V57.906H73.87V64.404H71.782ZM77.218 61.2H80.836V60.174H77.218V61.2ZM94.282 63V52.812L95.92 52.848L91.366 58.428L90.934 57.888H99.286V60.408H89.566L88.342 58.05L94.768 50.292H97.234V63H94.282ZM105.984 63.18C104.856 63.18 103.89 62.922 103.086 62.406C102.294 61.89 101.688 61.152 101.268 60.192C100.848 59.22 100.638 58.056 100.638 56.7C100.638 55.344 100.848 54.186 101.268 53.226C101.688 52.254 102.294 51.51 103.086 50.994C103.89 50.478 104.856 50.22 105.984 50.22C107.112 50.22 108.078 50.478 108.882 50.994C109.686 51.51 110.298 52.254 110.718 53.226C111.138 54.186 111.348 55.344 111.348 56.7C111.348 58.056 111.138 59.22 110.718 60.192C110.298 61.152 109.686 61.89 108.882 62.406C108.078 62.922 107.112 63.18 105.984 63.18ZM105.984 60.588C106.764 60.588 107.364 60.252 107.784 59.58C108.216 58.908 108.432 57.948 108.432 56.7C108.432 55.416 108.216 54.432 107.784 53.748C107.364 53.052 106.764 52.704 105.984 52.704C105.204 52.704 104.598 53.052 104.166 53.748C103.746 54.432 103.536 55.416 103.536 56.7C103.536 57.948 103.746 58.908 104.166 59.58C104.598 60.252 105.204 60.588 105.984 60.588ZM115.142 63L123.476 50.4H126.158L117.734 63H115.142ZM115.952 57.078C115.34 57.078 114.794 56.928 114.314 56.628C113.834 56.316 113.456 55.896 113.18 55.368C112.916 54.84 112.784 54.24 112.784 53.568C112.784 52.884 112.916 52.278 113.18 51.75C113.456 51.21 113.834 50.79 114.314 50.49C114.794 50.19 115.34 50.04 115.952 50.04C116.576 50.04 117.122 50.19 117.59 50.49C118.07 50.79 118.442 51.21 118.706 51.75C118.97 52.278 119.102 52.884 119.102 53.568C119.102 54.24 118.964 54.84 118.688 55.368C118.412 55.896 118.034 56.316 117.554 56.628C117.086 56.928 116.552 57.078 115.952 57.078ZM115.952 55.224C116.156 55.224 116.324 55.158 116.456 55.026C116.6 54.894 116.708 54.702 116.78 54.45C116.852 54.198 116.888 53.904 116.888 53.568C116.888 53.232 116.852 52.938 116.78 52.686C116.708 52.434 116.6 52.242 116.456 52.11C116.324 51.966 116.156 51.894 115.952 51.894C115.76 51.894 115.592 51.966 115.448 52.11C115.304 52.242 115.19 52.434 115.106 52.686C115.034 52.938 114.998 53.232 114.998 53.568C114.998 53.904 115.034 54.198 115.106 54.45C115.178 54.702 115.286 54.894 115.43 55.026C115.586 55.158 115.76 55.224 115.952 55.224ZM125.546 63.18C124.934 63.18 124.388 63.024 123.908 62.712C123.428 62.4 123.05 61.986 122.774 61.47C122.51 60.942 122.378 60.342 122.378 59.67C122.378 58.986 122.51 58.38 122.774 57.852C123.038 57.312 123.41 56.892 123.89 56.592C124.37 56.292 124.922 56.142 125.546 56.142C126.17 56.142 126.716 56.292 127.184 56.592C127.664 56.892 128.036 57.312 128.3 57.852C128.564 58.38 128.696 58.986 128.696 59.67C128.696 60.33 128.558 60.924 128.282 61.452C128.006 61.98 127.628 62.4 127.148 62.712C126.68 63.024 126.146 63.18 125.546 63.18ZM125.546 61.326C125.75 61.326 125.918 61.26 126.05 61.128C126.194 60.984 126.302 60.792 126.374 60.552C126.446 60.3 126.482 60.006 126.482 59.67C126.482 59.334 126.446 59.04 126.374 58.788C126.302 58.536 126.194 58.344 126.05 58.212C125.918 58.068 125.75 57.996 125.546 57.996C125.342 57.996 125.168 58.062 125.024 58.194C124.88 58.326 124.766 58.524 124.682 58.788C124.61 59.04 124.574 59.334 124.574 59.67C124.574 60.006 124.61 60.3 124.682 60.552C124.766 60.792 124.88 60.984 125.024 61.128C125.168 61.26 125.342 61.326 125.546 61.326ZM145.81 56.718C144.982 56.166 144.34 55.698 143.884 55.314C143.776 57.33 143.59 59.4 143.326 61.524C143.23 62.208 143.074 62.742 142.858 63.126C142.654 63.51 142.354 63.792 141.958 63.972C141.562 64.152 141.028 64.248 140.356 64.26C139.36 64.284 138.364 64.248 137.368 64.152L136.936 62.028C137.74 62.124 138.634 62.172 139.618 62.172C140.11 62.172 140.458 62.076 140.662 61.884C140.878 61.68 141.028 61.284 141.112 60.696C141.316 59.46 141.454 58.122 141.526 56.682H137.098L137.044 57.33C136.96 58.494 136.768 59.472 136.468 60.264C136.168 61.056 135.664 61.806 134.956 62.514C134.248 63.222 133.234 63.96 131.914 64.728L130.294 62.928C131.458 62.34 132.34 61.788 132.94 61.272C133.552 60.744 133.984 60.186 134.236 59.598C134.5 58.998 134.692 58.236 134.812 57.312C134.836 57.18 134.86 56.97 134.884 56.682H132.76V55.368C132.256 55.8 131.716 56.232 131.14 56.664L129.952 54.54C131.212 53.76 132.328 52.8 133.3 51.66C134.284 50.508 135.076 49.26 135.676 47.916L137.728 48.726C137.224 49.866 136.642 50.904 135.982 51.84C135.334 52.764 134.566 53.658 133.678 54.522H142.984C142.132 53.718 141.4 52.83 140.788 51.858C140.188 50.886 139.642 49.74 139.15 48.42L141.184 47.682C141.76 49.266 142.492 50.586 143.38 51.642C144.268 52.686 145.48 53.652 147.016 54.54L145.81 56.718ZM155.422 51.696C155.158 51.336 154.786 50.886 154.306 50.346C153.838 49.806 153.43 49.362 153.082 49.014L154.594 47.628C154.942 47.952 155.356 48.372 155.836 48.888C156.328 49.392 156.748 49.854 157.096 50.274L155.422 51.696ZM151.57 52.092C151.21 51.768 150.724 51.36 150.112 50.868C149.512 50.376 149.038 50.004 148.69 49.752L149.86 48.078C150.256 48.33 150.748 48.678 151.336 49.122C151.924 49.554 152.428 49.95 152.848 50.31L151.57 52.092ZM157.564 48.744H164.224V61.902C164.224 62.634 164.146 63.18 163.99 63.54C163.834 63.912 163.564 64.164 163.18 64.296C162.796 64.428 162.232 64.494 161.488 64.494C161.092 64.494 160.624 64.464 160.084 64.404L159.634 62.316C160.162 62.388 160.696 62.424 161.236 62.424C161.512 62.424 161.71 62.4 161.83 62.352C161.962 62.304 162.052 62.214 162.1 62.082C162.148 61.938 162.172 61.716 162.172 61.416V50.76H157.564V48.744ZM154.612 64.422H152.596V51.516H154.612V64.422ZM159.31 59.526H161.614V61.488H155.224V59.526H157.42V57.672H155.584V55.692H157.42V54.09H155.404V52.128H161.362V54.09H159.31V55.692H161.146V57.672H159.31V59.526ZM149.158 52.182C149.578 52.458 150.088 52.824 150.688 53.28C151.3 53.736 151.798 54.132 152.182 54.468L150.904 56.232C150.46 55.824 149.956 55.398 149.392 54.954C148.828 54.498 148.354 54.144 147.97 53.892L149.158 52.182ZM148.168 63.774C148.48 62.826 148.81 61.728 149.158 60.48C149.518 59.232 149.8 58.176 150.004 57.312L151.966 57.852C151.774 58.74 151.51 59.808 151.174 61.056C150.838 62.292 150.526 63.378 150.238 64.314L148.168 63.774Z" fill="black"/>
<path d="M320.109 71.5137C316.006 67.4248 310.336 64.895 304.074 64.895C291.55 64.895 281.397 75.0124 281.397 87.4928V113.326C281.397 125.807 291.55 135.925 304.074 135.925C316.598 135.925 326.751 125.807 326.751 113.326V87.4928C326.751 81.2528 324.213 75.6024 320.109 71.5137ZM310.138 114.171C310.138 117.508 307.423 120.214 304.074 120.214C300.725 120.214 298.01 117.508 298.01 114.171V86.6489C298.01 83.3113 300.725 80.606 304.074 80.606C305.749 80.606 307.264 81.2817 308.362 82.3758C309.46 83.4699 310.138 84.98 310.138 86.6489V114.171Z" fill="url(#paint0_linear_6104_4862)" stroke="url(#paint1_linear_6104_4862)" stroke-width="1.06354" stroke-linejoin="round"/>
<path d="M310.671 86.6487V88.377C310.671 86.5614 309.933 84.9175 308.739 83.7278C307.545 82.538 305.896 81.8022 304.074 81.8022C300.43 81.8022 297.477 84.7459 297.477 88.377V86.6487C297.477 83.0175 300.43 80.074 304.074 80.074C305.896 80.074 307.545 80.8098 308.739 81.9995C309.933 83.1893 310.671 84.833 310.671 86.6487Z" fill="#07828B"/>
<path d="M311.741 114.714V116.4C311.741 120.62 308.309 124.04 304.074 124.04C299.84 124.04 296.408 120.62 296.408 116.4V114.714C296.408 118.933 299.84 122.354 304.074 122.354C308.309 122.354 311.741 118.933 311.741 114.714Z" fill="#08ACB8"/>
<path d="M324.565 87.8092V89.7197C324.565 84.0809 322.271 78.9757 318.564 75.2808C314.855 71.5854 309.732 69.2999 304.074 69.2999C292.756 69.2999 283.582 78.4421 283.582 89.7197V87.8092C283.582 76.532 292.756 67.3894 304.074 67.3894C309.732 67.3894 314.855 69.6751 318.564 73.3704C322.271 77.0658 324.565 82.1704 324.565 87.8092Z" fill="#07828B" stroke="#07828B" stroke-width="0.0196425" stroke-miterlimit="10" stroke-linecap="round" stroke-linejoin="round"/>
<path d="M324.565 112.57V110.659C324.565 116.298 322.271 121.403 318.564 125.098C314.855 128.793 309.732 131.079 304.074 131.079C292.756 131.079 283.582 121.937 283.582 110.659V112.57C283.582 123.847 292.756 132.99 304.074 132.99C309.732 132.99 314.855 130.704 318.564 127.009C322.271 123.313 324.565 118.208 324.565 112.57Z" fill="#099CA7" stroke="#07828B" stroke-width="0.0196425" stroke-miterlimit="10" stroke-linecap="round" stroke-linejoin="round"/>
<path d="M304.144 138.115H304.003C290.783 138.115 280.066 127.436 280.066 114.262V86.5574C280.066 76.2424 286.637 67.4566 295.834 64.1294" stroke="#07828B" stroke-opacity="0.2" stroke-width="0.304238" stroke-miterlimit="10" stroke-linecap="round" stroke-linejoin="round"/>
<path d="M328.082 86.5574V114.262" stroke="#07828B" stroke-width="0.247942" stroke-miterlimit="10" stroke-linecap="round" stroke-linejoin="round"/>
<path d="M330.2 115.776C330.2 129.559 318.987 140.732 305.156 140.732H302.993C289.161 140.732 277.949 129.559 277.949 115.776" stroke="#07828B" stroke-opacity="0.2" stroke-width="0.286024" stroke-miterlimit="10" stroke-linecap="round" stroke-linejoin="round"/>
<path d="M277.949 91.2515V85.8415C277.949 72.0587 289.161 60.8853 302.993 60.8853H305.156C312.374 60.8853 318.878 63.9279 323.448 68.7965" stroke="#07828B" stroke-width="0.148765" stroke-miterlimit="10" stroke-linecap="round" stroke-linejoin="round"/>
<path d="M277.949 91.2515V85.8415C277.949 72.0587 289.161 60.8853 302.993 60.8853H305.156C312.374 60.8853 318.878 63.9279 323.448 68.7965" stroke="#07828B" stroke-opacity="0.2" stroke-width="0.148765" stroke-miterlimit="10" stroke-linecap="round" stroke-linejoin="round"/>
<g filter="url(#filter0_f_6104_4862)">
<path d="M302.989 148C286.761 148 273.607 134.892 273.607 118.721V82.0984C273.607 74.7751 276.305 68.0796 280.765 62.9453" stroke="white" stroke-opacity="0.1" stroke-width="0.148765" stroke-miterlimit="10" stroke-linecap="round" stroke-linejoin="round"/>
</g>
<g filter="url(#filter1_f_6104_4862)">
<path d="M321.852 58C329.518 63.2835 334.541 72.1066 334.541 82.0983V106.013" stroke="white" stroke-opacity="0.1" stroke-width="0.148765" stroke-miterlimit="10" stroke-linecap="round" stroke-linejoin="round"/>
</g>
<path d="M273.6 92.1678V110.005H283.926V122.939H273.6V138.481H258.788V122.939H226.034V112.613L252.32 62.0222H268.175L243.037 110.005H258.788V92.1678H273.6Z" fill="url(#paint2_linear_6104_4862)"/>
<path d="M273.6 92.1678H274.131C274.131 91.8741 273.893 91.636 273.6 91.636V92.1678ZM273.6 110.005H273.068C273.068 110.298 273.306 110.537 273.6 110.537V110.005ZM283.926 110.005H284.458C284.458 109.711 284.22 109.473 283.926 109.473V110.005ZM283.926 122.939V123.471C284.22 123.471 284.458 123.233 284.458 122.939H283.926ZM273.6 122.939V122.407C273.306 122.407 273.068 122.646 273.068 122.939H273.6ZM273.6 138.481V139.013C273.893 139.013 274.131 138.775 274.131 138.481H273.6ZM258.788 138.481H258.256C258.256 138.775 258.494 139.013 258.788 139.013V138.481ZM258.788 122.939H259.319C259.319 122.646 259.081 122.407 258.788 122.407V122.939ZM226.034 122.939H225.502C225.502 123.233 225.74 123.471 226.034 123.471V122.939ZM226.034 112.613L225.562 112.367C225.523 112.443 225.502 112.527 225.502 112.613H226.034ZM252.32 62.0222V61.4904C252.122 61.4904 251.94 61.6009 251.848 61.777L252.32 62.0222ZM268.175 62.0222L268.646 62.269C268.733 62.1041 268.727 61.9061 268.63 61.7469C268.534 61.5877 268.362 61.4904 268.175 61.4904V62.0222ZM243.037 110.005L242.566 109.758C242.479 109.923 242.485 110.121 242.582 110.28C242.678 110.439 242.851 110.537 243.037 110.537V110.005ZM258.788 110.005V110.537C259.081 110.537 259.319 110.298 259.319 110.005H258.788ZM258.788 92.1678V91.636C258.494 91.636 258.256 91.8741 258.256 92.1678H258.788ZM273.6 92.1678H273.068V110.005H273.6H274.131V92.1678H273.6ZM273.6 110.005V110.537H283.926V110.005V109.473H273.6V110.005ZM283.926 110.005H283.394V122.939H283.926H284.458V110.005H283.926ZM283.926 122.939V122.407H273.6V122.939V123.471H283.926V122.939ZM273.6 122.939H273.068V138.481H273.6H274.131V122.939H273.6ZM273.6 138.481V137.95H258.788V138.481V139.013H273.6V138.481ZM258.788 138.481H259.319V122.939H258.788H258.256V138.481H258.788ZM258.788 122.939V122.407H226.034V122.939V123.471H258.788V122.939ZM226.034 122.939H226.566V112.613H226.034H225.502V122.939H226.034ZM226.034 112.613L226.506 112.858L252.792 62.2674L252.32 62.0222L251.848 61.777L225.562 112.367L226.034 112.613ZM252.32 62.0222V62.5539H268.175V62.0222V61.4904H252.32V62.0222ZM268.175 62.0222L267.704 61.7754L242.566 109.758L243.037 110.005L243.508 110.252L268.646 62.269L268.175 62.0222ZM243.037 110.005V110.537H258.788V110.005V109.473H243.037V110.005ZM258.788 110.005H259.319V92.1678H258.788H258.256V110.005H258.788ZM258.788 92.1678V92.6996H273.6V92.1678V91.636H258.788V92.1678Z" fill="url(#paint3_linear_6104_4862)"/>
<path d="M256.883 126.231H223.133V109.682L248.258 62.1064" stroke="#07828B" stroke-opacity="0.2" stroke-width="0.286024" stroke-miterlimit="10" stroke-linecap="round" stroke-linejoin="round"/>
<path d="M333.479 122.772C333.478 122.773 333.478 122.774 333.477 122.775C333.476 122.777 333.475 122.778 333.474 122.78C332.863 123.827 332.038 124.624 330.992 125.182C329.937 125.744 328.797 126.026 327.563 126.026C326.33 126.026 325.19 125.745 324.135 125.183C323.115 124.625 322.286 123.826 321.646 122.772C321.016 121.734 320.694 120.529 320.694 119.142C320.694 117.755 321.016 116.551 321.646 115.512C322.284 114.461 323.125 113.661 324.173 113.103C324.176 113.101 324.178 113.099 324.181 113.098C325.237 112.511 326.361 112.219 327.563 112.219C328.793 112.219 329.93 112.512 330.984 113.098C330.987 113.099 330.99 113.101 330.992 113.103C332.038 113.66 332.863 114.457 333.474 115.504C333.476 115.507 333.478 115.51 333.479 115.512C334.109 116.551 334.431 117.755 334.431 119.142C334.431 120.529 334.109 121.734 333.479 122.772ZM325.503 116.855L325.501 116.856C324.972 117.449 324.733 118.217 324.733 119.103C324.733 119.99 324.973 120.764 325.492 121.378C325.499 121.386 325.505 121.393 325.512 121.401C326.063 121.981 326.758 122.277 327.563 122.277C328.388 122.277 329.098 121.986 329.653 121.401C329.656 121.397 329.659 121.394 329.663 121.39C330.214 120.776 330.472 119.998 330.472 119.103C330.472 118.211 330.216 117.441 329.658 116.849C329.106 116.238 328.395 115.928 327.563 115.928C326.748 115.928 326.05 116.245 325.503 116.855ZM352.915 137.84C352.913 137.843 352.912 137.845 352.91 137.848C352.299 138.895 351.474 139.692 350.428 140.25C349.373 140.812 348.232 141.094 346.998 141.094C345.764 141.094 344.624 140.812 343.569 140.25C342.521 139.691 341.681 138.892 341.042 137.84C340.412 136.801 340.09 135.597 340.09 134.21C340.09 132.795 340.413 131.578 341.042 130.541C341.681 129.489 342.521 128.689 343.569 128.131C344.624 127.569 345.764 127.287 346.998 127.287C348.232 127.287 349.373 127.569 350.428 128.131C351.474 128.688 352.299 129.486 352.91 130.533C352.912 130.536 352.913 130.538 352.915 130.541C353.544 131.578 353.867 132.795 353.867 134.21C353.867 135.597 353.545 136.801 352.915 137.84ZM344.938 136.458C344.941 136.462 344.945 136.465 344.948 136.469C345.498 137.049 346.193 137.345 346.998 137.345C347.823 137.345 348.534 137.054 349.088 136.469C349.092 136.465 349.095 136.462 349.098 136.458C349.649 135.844 349.907 135.066 349.907 134.171C349.907 133.279 349.651 132.509 349.093 131.917C348.542 131.306 347.83 130.996 346.998 130.996C346.186 130.996 345.49 131.311 344.943 131.917C344.385 132.509 344.129 133.279 344.129 134.171C344.129 135.066 344.387 135.844 344.938 136.458ZM326.326 140.581L342.987 112.771H348.235L331.574 140.581H326.326Z" fill="url(#paint4_linear_6104_4862)" stroke="url(#paint5_linear_6104_4862)" stroke-width="1.06354" stroke-linejoin="round"/>
<rect x="254.195" y="64.5801" width="1.30388" height="9.77907" transform="rotate(-90 254.195 64.5801)" fill="#07828B"/>
<defs>
<filter id="filter0_f_6104_4862" x="273.037" y="62.375" width="30.522" height="86.1954" filterUnits="userSpaceOnUse" color-interpolation-filters="sRGB">
<feFlood flood-opacity="0" result="BackgroundImageFix"/>
<feBlend mode="normal" in="SourceGraphic" in2="BackgroundImageFix" result="shape"/>
<feGaussianBlur stdDeviation="0.247942" result="effect1_foregroundBlur_6104_4862"/>
</filter>
<filter id="filter1_f_6104_4862" x="321.281" y="57.4297" width="13.8301" height="49.1539" filterUnits="userSpaceOnUse" color-interpolation-filters="sRGB">
<feFlood flood-opacity="0" result="BackgroundImageFix"/>
<feBlend mode="normal" in="SourceGraphic" in2="BackgroundImageFix" result="shape"/>
<feGaussianBlur stdDeviation="0.247942" result="effect1_foregroundBlur_6104_4862"/>
</filter>
<linearGradient id="paint0_linear_6104_4862" x1="300.288" y1="53.0954" x2="280.044" y2="118.81" gradientUnits="userSpaceOnUse">
<stop stop-color="#FFFCF2"/>
<stop offset="1" stop-color="#07828B"/>
</linearGradient>
<linearGradient id="paint1_linear_6104_4862" x1="304.074" y1="65.4268" x2="326.04" y2="115.834" gradientUnits="userSpaceOnUse">
<stop stop-color="#07828B"/>
<stop offset="0.38" stop-color="#5AB8DB"/>
<stop offset="0.59" stop-color="#07828B"/>
<stop offset="0.905" stop-color="#5AB8DB"/>
</linearGradient>
<linearGradient id="paint2_linear_6104_4862" x1="248.423" y1="55.0528" x2="234.757" y2="119.857" gradientUnits="userSpaceOnUse">
<stop stop-color="#FFFCF2"/>
<stop offset="1" stop-color="#07828B"/>
</linearGradient>
<linearGradient id="paint3_linear_6104_4862" x1="253.626" y1="66.6532" x2="269.082" y2="118.466" gradientUnits="userSpaceOnUse">
<stop stop-color="#07828B"/>
<stop offset="0.38" stop-color="#05A7B3"/>
<stop offset="0.59" stop-color="#5AB8DB"/>
<stop offset="0.905" stop-color="#07828B"/>
</linearGradient>
<linearGradient id="paint4_linear_6104_4862" x1="339.357" y1="144.029" x2="328.41" y2="99.9905" gradientUnits="userSpaceOnUse">
<stop stop-color="#07828B"/>
<stop offset="1" stop-color="#FFFCF2"/>
</linearGradient>
<linearGradient id="paint5_linear_6104_4862" x1="337.281" y1="141.094" x2="337.281" y2="112.219" gradientUnits="userSpaceOnUse">
<stop stop-color="#07828B"/>
<stop offset="1" stop-color="#5AB8DB"/>
</linearGradient>
</defs>
</svg>
