<svg width="426" height="233" viewBox="0 0 426 233" fill="none" xmlns="http://www.w3.org/2000/svg">
<rect width="426" height="233" rx="24" fill="#07828B" fill-opacity="0.1"/>
<g clip-path="url(#clip0_3849_2962)">
<path d="M357.354 98.6358C351.06 92.364 342.363 88.4835 332.758 88.4835C313.547 88.4835 297.973 104.002 297.973 123.146V162.772C297.973 181.916 313.547 197.435 332.758 197.435C351.968 197.435 367.542 181.916 367.542 162.772V123.146C367.542 113.575 363.648 104.908 357.354 98.6358ZM342.059 164.067C342.059 169.186 337.895 173.336 332.758 173.336C327.62 173.336 323.457 169.186 323.457 164.067V121.852C323.457 116.732 327.62 112.582 332.758 112.582C335.326 112.582 337.65 113.619 339.334 115.297C341.019 116.975 342.059 119.292 342.059 121.852V164.067Z" fill="url(#paint0_linear_3849_2962)" stroke="url(#paint1_linear_3849_2962)" stroke-width="1.63135" stroke-linejoin="round"/>
<path d="M342.877 121.851V124.502C342.877 121.717 341.744 119.196 339.913 117.371C338.081 115.546 335.552 114.417 332.757 114.417C327.168 114.417 322.637 118.932 322.637 124.502V121.851C322.637 116.281 327.168 111.766 332.757 111.766C335.552 111.766 338.081 112.895 339.913 114.72C341.744 116.545 342.877 119.066 342.877 121.851Z" fill="#07828B"/>
<path d="M344.518 164.899V167.487C344.518 173.959 339.252 179.206 332.757 179.206C326.263 179.206 320.998 173.959 320.998 167.487V164.899C320.998 171.372 326.263 176.618 332.757 176.618C339.252 176.618 344.518 171.372 344.518 164.899Z" fill="#08ACB8"/>
<path d="M364.188 123.631V126.562C364.188 117.912 360.67 110.082 354.983 104.414C349.294 98.7458 341.436 95.24 332.756 95.24C315.397 95.24 301.325 109.263 301.325 126.562V123.631C301.325 106.333 315.397 92.3096 332.756 92.3096C341.436 92.3096 349.294 95.8155 354.983 101.484C360.67 107.152 364.188 114.982 364.188 123.631Z" fill="#07828B" stroke="#07828B" stroke-width="0.0301294" stroke-miterlimit="10" stroke-linecap="round" stroke-linejoin="round"/>
<path d="M364.188 161.611V158.68C364.188 167.33 360.67 175.16 354.983 180.828C349.294 186.496 341.436 190.002 332.756 190.002C315.397 190.002 301.325 175.979 301.325 158.68V161.611C301.325 178.909 315.397 192.933 332.756 192.933C341.436 192.933 349.294 189.427 354.983 183.759C360.67 178.09 364.188 170.26 364.188 161.611Z" fill="#099CA7" stroke="#07828B" stroke-width="0.0301294" stroke-miterlimit="10" stroke-linecap="round" stroke-linejoin="round"/>
<path d="M332.865 200.795H332.649C312.371 200.795 295.932 184.414 295.932 164.207V121.711C295.932 105.889 306.011 92.413 320.119 87.3093" stroke="#07828B" stroke-opacity="0.2" stroke-width="0.466667" stroke-miterlimit="10" stroke-linecap="round" stroke-linejoin="round"/>
<path d="M369.583 121.711V164.207" stroke="#07828B" stroke-width="0.380316" stroke-miterlimit="10" stroke-linecap="round" stroke-linejoin="round"/>
<path d="M372.831 166.529C372.831 187.671 355.632 204.809 334.417 204.809H331.099C309.883 204.809 292.684 187.671 292.684 166.529" stroke="#07828B" stroke-opacity="0.2" stroke-width="0.438729" stroke-miterlimit="10" stroke-linecap="round" stroke-linejoin="round"/>
<path d="M292.684 128.912V120.613C292.684 99.472 309.883 82.3331 331.099 82.3331H334.417C345.488 82.3331 355.465 87.0002 362.476 94.4681" stroke="#07828B" stroke-width="0.228189" stroke-miterlimit="10" stroke-linecap="round" stroke-linejoin="round"/>
<path d="M292.684 128.912V120.613C292.684 99.472 309.883 82.3331 331.099 82.3331H334.417C345.488 82.3331 355.465 87.0002 362.476 94.4681" stroke="#07828B" stroke-opacity="0.2" stroke-width="0.228189" stroke-miterlimit="10" stroke-linecap="round" stroke-linejoin="round"/>
<g filter="url(#filter0_f_3849_2962)">
<path d="M331.092 215.957C306.201 215.957 286.024 195.85 286.024 171.047V114.871C286.024 103.638 290.162 93.3681 297.003 85.4926" stroke="white" stroke-opacity="0.1" stroke-width="0.228189" stroke-miterlimit="10" stroke-linecap="round" stroke-linejoin="round"/>
</g>
<g filter="url(#filter1_f_3849_2962)">
<path d="M360.026 77.907C371.786 86.0112 379.491 99.5449 379.491 114.871V151.554" stroke="white" stroke-opacity="0.1" stroke-width="0.228189" stroke-miterlimit="10" stroke-linecap="round" stroke-linejoin="round"/>
</g>
<path d="M232.163 127.76V119.461C232.163 98.32 249.362 81.1813 270.578 81.1813H273.895C284.967 81.1813 294.944 85.8484 301.954 93.3163" stroke="#07828B" stroke-width="0.228189" stroke-miterlimit="10" stroke-linecap="round" stroke-linejoin="round"/>
<path d="M232.163 127.76V119.461C232.163 98.32 249.362 81.1813 270.578 81.1813H273.895C284.967 81.1813 294.944 85.8484 301.954 93.3163" stroke="#07828B" stroke-opacity="0.2" stroke-width="0.228189" stroke-miterlimit="10" stroke-linecap="round" stroke-linejoin="round"/>
<path d="M232.538 165.23V202.654H304.654" stroke="#07828B" stroke-opacity="0.2" stroke-width="0.438729" stroke-miterlimit="10" stroke-linecap="round" stroke-linejoin="round"/>
<path d="M256.241 91.3988C256.233 91.4027 256.226 91.4068 256.218 91.411C237.962 101.588 237.113 118.5 237.962 126.155C238.008 126.569 238.358 126.881 238.776 126.881H259.238C259.468 126.881 259.688 126.785 259.843 126.615C259.998 126.445 260.074 126.219 260.053 125.99C259.571 120.833 261.023 116.688 263.56 114.04C266.089 111.401 269.766 110.171 273.934 110.953C278.936 111.89 281.691 115.773 282.496 120.261C283.309 124.788 282.089 129.708 279.367 132.455C274.662 137.204 266.009 143.862 257.715 149.882C249.438 155.891 241.576 161.225 238.488 163.32L238.315 163.437C238.091 163.589 237.957 163.842 237.957 164.111V194.2C237.957 194.65 238.324 195.016 238.776 195.016H304.529C304.981 195.016 305.348 194.65 305.348 194.2V175.426C305.348 174.975 304.981 174.61 304.529 174.61H259.167C266.337 169.743 274.128 164.064 280.919 158.819C288.402 153.04 294.72 147.751 297.64 144.652C308.355 133.278 307.765 117.212 303.542 106.739C297.303 91.2643 276.898 80.7251 256.241 91.3988Z" fill="url(#paint2_linear_3849_2962)" stroke="url(#paint3_linear_3849_2962)" stroke-width="1.63135" stroke-linejoin="round"/>
<path d="M304.01 120.709V123.639C304.01 114.99 300.492 107.159 294.804 101.492C289.116 95.8237 281.258 92.3178 272.578 92.3178C255.218 92.3178 241.146 106.341 241.146 123.639V120.709C241.146 103.411 255.218 89.3873 272.578 89.3873C281.258 89.3873 289.116 92.8933 294.804 98.5615C300.492 104.23 304.01 112.06 304.01 120.709Z" fill="#07828B" stroke="#07828B" stroke-width="0.0301294" stroke-miterlimit="10" stroke-linecap="round" stroke-linejoin="round"/>
<path d="M283.068 120.359V123.206C283.068 120.215 281.77 117.508 279.67 115.548C277.57 113.588 274.669 112.376 271.465 112.376C265.056 112.376 259.861 117.225 259.861 123.206V120.359C259.861 114.378 265.056 109.529 271.465 109.529C274.669 109.529 277.57 110.741 279.67 112.701C281.77 114.661 283.068 117.368 283.068 120.359Z" fill="#07828B"/>
<path d="M377.861 177.26C377.86 177.262 377.859 177.264 377.858 177.266C377.857 177.268 377.855 177.27 377.854 177.272C376.917 178.879 375.651 180.102 374.047 180.957C372.428 181.819 370.679 182.252 368.786 182.252C366.895 182.252 365.147 181.82 363.529 180.958C361.964 180.103 360.692 178.877 359.711 177.26C358.745 175.667 358.251 173.82 358.251 171.693C358.251 169.565 358.745 167.717 359.711 166.125C360.69 164.512 361.98 163.285 363.586 162.429C363.591 162.426 363.595 162.424 363.599 162.421C365.219 161.521 366.943 161.073 368.786 161.073C370.673 161.073 372.417 161.522 374.034 162.421C374.038 162.424 374.043 162.426 374.047 162.429C375.651 163.283 376.917 164.506 377.854 166.112C377.857 166.117 377.859 166.121 377.861 166.125C378.828 167.717 379.322 169.565 379.322 171.693C379.322 173.82 378.828 175.667 377.861 177.26ZM365.626 168.184L365.624 168.186C364.813 169.095 364.446 170.273 364.446 171.632C364.446 172.993 364.814 174.18 365.61 175.122C365.62 175.134 365.63 175.145 365.641 175.157C366.486 176.048 367.552 176.501 368.786 176.501C370.051 176.501 371.141 176.055 371.992 175.157C371.997 175.152 372.002 175.146 372.007 175.141C372.853 174.199 373.248 173.005 373.248 171.632C373.248 170.264 372.855 169.083 372 168.176C371.154 167.238 370.063 166.763 368.786 166.763C367.536 166.763 366.466 167.248 365.626 168.184ZM407.673 200.373C407.671 200.377 407.669 200.381 407.666 200.385C406.729 201.992 405.463 203.214 403.859 204.069C402.24 204.932 400.491 205.364 398.598 205.364C396.706 205.364 394.956 204.932 393.338 204.069C391.731 203.213 390.441 201.986 389.463 200.373C388.496 198.78 388.002 196.933 388.002 194.805C388.002 192.634 388.498 190.768 389.463 189.177C390.441 187.564 391.731 186.337 393.338 185.481C394.956 184.618 396.706 184.185 398.598 184.185C400.491 184.185 402.24 184.618 403.859 185.481C405.463 186.336 406.729 187.558 407.666 189.165C407.669 189.169 407.671 189.173 407.673 189.177C408.639 190.768 409.134 192.634 409.134 194.805C409.134 196.933 408.64 198.78 407.673 200.373ZM395.438 198.253C395.443 198.259 395.448 198.264 395.453 198.269C396.298 199.16 397.364 199.614 398.598 199.614C399.864 199.614 400.953 199.168 401.804 198.269C401.809 198.264 401.814 198.259 401.819 198.253C402.665 197.311 403.06 196.118 403.06 194.745C403.06 193.377 402.668 192.196 401.812 191.288C400.966 190.351 399.875 189.875 398.598 189.875C397.352 189.875 396.284 190.358 395.446 191.288C394.59 192.196 394.198 193.377 394.198 194.745C394.198 196.118 394.593 197.311 395.438 198.253ZM366.889 204.578L392.445 161.92H400.496L374.94 204.578H366.889Z" fill="url(#paint4_linear_3849_2962)" stroke="url(#paint5_linear_3849_2962)" stroke-width="1.63135" stroke-linejoin="round"/>
</g>
<path d="M51.54 50.24C51.38 51.08 51.1867 51.9667 50.96 52.9C50.7333 53.94 50.4 54.6533 49.96 55.04C49.5333 55.44 49 55.64 48.36 55.64C47.7867 55.64 47.28 55.4467 46.84 55.06C46.4 54.6867 45.8733 54.02 45.26 53.06C45.1933 52.9667 45.1067 52.8133 45 52.6C43.9467 53.7067 42.78 54.7133 41.5 55.62L39.9 53.82C41.5533 52.66 42.92 51.4733 44 50.26C43.3333 48.2067 42.8333 45.5667 42.5 42.34H36.68V44.58H41.82C41.7667 46.3 41.6333 48.2733 41.42 50.5C41.3533 51.1533 41.2133 51.6733 41 52.06C40.8 52.4333 40.48 52.7067 40.04 52.88C39.6 53.0533 39.0067 53.14 38.26 53.14C37.9533 53.14 37.4933 53.1133 36.88 53.06L36.42 50.92C37.02 50.9867 37.56 51.02 38.04 51.02C38.4 51.02 38.6467 50.94 38.78 50.78C38.9267 50.62 39.0333 50.32 39.1 49.88C39.26 48.6667 39.3467 47.6133 39.36 46.72H36.68C36.64 48.64 36.4733 50.2667 36.18 51.6C35.8867 52.92 35.4 54.2733 34.72 55.66L32.36 54.56C32.8933 53.6133 33.2933 52.7533 33.56 51.98C33.84 51.2067 34.04 50.3333 34.16 49.36C34.28 48.3733 34.34 47.1133 34.34 45.58V40.06H42.3C42.2733 39.8067 42.2467 39.4133 42.22 38.88L42.08 37.22H44.5L44.7 40.06H47.52C46.76 39.2733 46.16 38.6867 45.72 38.3L47.3 36.74C47.8067 37.2067 48.6333 38.0133 49.78 39.16L48.86 40.06H50.98V42.34H44.9C45.1267 44.6067 45.42 46.48 45.78 47.96C46.6733 46.5333 47.4133 44.9267 48 43.14L50.12 44.02C49.2267 46.5667 48.0667 48.78 46.64 50.66C46.8933 51.2467 47.18 51.78 47.5 52.26C47.7 52.5533 47.8733 52.76 48.02 52.88C48.18 52.9867 48.3267 53.0267 48.46 53C48.58 53 48.6933 52.9133 48.8 52.74C48.9067 52.5533 49.0133 52.2267 49.12 51.76C49.1867 51.52 49.28 50.9933 49.4 50.18L49.5 49.54L51.54 50.24ZM70.24 41.46V42.06C70.24 43.9933 70.1933 45.88 70.1 47.72C70.0067 49.5467 69.8533 51.12 69.64 52.44C69.52 53.16 69.3333 53.72 69.08 54.12C68.8267 54.5333 68.46 54.8333 67.98 55.02C67.5133 55.2067 66.8733 55.3 66.06 55.3C64.8733 55.3 63.7533 55.2267 62.7 55.08L62.2 52.66C62.6933 52.7267 63.22 52.7867 63.78 52.84C64.3533 52.8933 64.9267 52.9267 65.5 52.94C65.9133 52.94 66.2267 52.9 66.44 52.82C66.6533 52.7267 66.82 52.5667 66.94 52.34C67.06 52.1133 67.1667 51.76 67.26 51.28C67.38 50.6 67.48 49.62 67.56 48.34C67.6533 47.0467 67.7 45.8733 67.7 44.82C67.7 44.38 67.6933 44.0667 67.68 43.88H62C61.7333 45.6267 61.3267 47.1667 60.78 48.5C60.2467 49.82 59.48 51.0667 58.48 52.24C57.4933 53.4133 56.1867 54.5933 54.56 55.78L52.82 53.82C54.2333 52.8467 55.3733 51.8733 56.24 50.9C57.12 49.9267 57.8 48.8867 58.28 47.78C58.7733 46.66 59.1467 45.36 59.4 43.88H53.58V41.46H57C56.64 41.0333 56.1933 40.5333 55.66 39.96C55.14 39.3867 54.74 38.9667 54.46 38.7L56.24 37.2C56.5733 37.5067 56.9933 37.9267 57.5 38.46C58.0067 38.9933 58.48 39.52 58.92 40.04L57.3 41.46H59.72C59.7867 40.74 59.8467 39.9533 59.9 39.1C59.9667 38.2333 60.0067 37.6133 60.02 37.24H62.54C62.54 38.0267 62.4467 39.4333 62.26 41.46H70.24ZM64.8 50.38C64.4667 49.8867 63.9933 49.2667 63.38 48.52C62.7667 47.7733 62.2667 47.2 61.88 46.8L63.66 45.28C64.0733 45.6933 64.5733 46.24 65.16 46.92C65.76 47.5867 66.26 48.2 66.66 48.76L64.8 50.38ZM82.92 36.88C83.8133 38.28 85 39.5667 86.48 40.74C87.9733 41.9133 89.6733 42.9133 91.58 43.74L90.34 46.12C89.0733 45.4933 87.9467 44.8533 86.96 44.2V45.3H76.94V44.24C75.86 44.96 74.72 45.6133 73.52 46.2L72.4 43.76C74.2533 42.9333 75.9533 41.9067 77.5 40.68C79.06 39.44 80.2467 38.1733 81.06 36.88H82.92ZM85.34 43.04C84.0067 42.0267 82.8933 40.96 82 39.84C81.1333 40.9067 80.0067 41.9733 78.62 43.04H85.34ZM77.6 55.58H75.08V47.1H88.82V55.58H86.36V54.64H77.6V55.58ZM86.36 52.4V49.32H77.6V52.4H86.36ZM110.44 39.98C110.413 44.2467 110.247 48.4867 109.94 52.7C109.887 53.38 109.767 53.9133 109.58 54.3C109.393 54.6867 109.1 54.9667 108.7 55.14C108.313 55.3133 107.76 55.4067 107.04 55.42C105.907 55.42 104.967 55.38 104.22 55.3L103.74 52.88C104.38 52.9733 105.173 53.0333 106.12 53.06C106.48 53.06 106.753 53.02 106.94 52.94C107.127 52.86 107.26 52.7267 107.34 52.54C107.42 52.34 107.48 52.0333 107.52 51.62C107.787 48.46 107.92 45.3933 107.92 42.42H103.74C103.3 43.3667 102.807 44.2933 102.26 45.2L100.18 44.04C101.487 41.9733 102.493 39.6333 103.2 37.02L105.5 37.62C105.327 38.2867 105.073 39.0733 104.74 39.98H110.44ZM93.24 45.46L92.72 43.2C92.9467 43.12 93.1133 43.0467 93.22 42.98C93.3267 42.9 93.42 42.8067 93.5 42.7C94.5667 41.2333 95.62 39.36 96.66 37.08L98.74 38.16C97.78 40.1333 96.8067 41.7933 95.82 43.14L97.76 42.76C98.2667 41.92 98.7 41.16 99.06 40.48L100.98 41.54C99.6867 43.82 98.3133 45.9333 96.86 47.88L100.22 47.1L100.26 49.32L98.74 49.62C96.9533 49.9933 95.6133 50.28 94.72 50.48L93.66 50.7L93.16 48.34C93.76 48.22 94.22 47.94 94.54 47.5C95.0067 46.8867 95.62 46.02 96.38 44.9C95.66 45.0333 95.12 45.1267 94.76 45.18L93.24 45.46ZM104.34 50.46C103.953 49.8333 103.5 49.1333 102.98 48.36C102.473 47.5733 102.027 46.9267 101.64 46.42L103.48 45.14C104.4 46.3267 105.333 47.6667 106.28 49.16L104.34 50.46ZM92.88 52.82C95.0133 52.4067 97.6133 51.8333 100.68 51.1L100.86 53.56C97.94 54.24 95.42 54.7733 93.3 55.16L92.88 52.82ZM127.72 37.3V39.18H130.78V41.32H127.72V42.88H125.48V41.32H123.1V42.88H120.88V41.32H118.48V42.88H116.28V41.32H113.2V39.18H116.28V37.3H118.48V39.18H120.88V37.3H123.1V39.18H125.48V37.3H127.72ZM115.76 47.36H113.54V43.48H130.48V47.36H128.22V45.62H115.76V47.36ZM128.7 47.68V51.88C128.713 52.5467 128.66 53.06 128.54 53.42C128.433 53.7667 128.22 54.02 127.9 54.18C127.58 54.34 127.093 54.42 126.44 54.42C125.72 54.42 125.04 54.38 124.4 54.3L123.98 52.26C124.647 52.3667 125.22 52.42 125.7 52.42C126.007 52.42 126.213 52.3667 126.32 52.26C126.427 52.14 126.48 51.9333 126.48 51.64V49.76H123.08V55.42H120.9V49.76H117.56V54.36H115.36V47.68H120.9V46.18H123.08V47.68H128.7ZM151.04 50.58V52.84H143.2V55.6H140.82V52.84H132.96V50.58H140.82V49.1H134.5V39.86H138.1L137.02 38.38L136.74 38L138.86 36.92C139.1 37.2133 139.393 37.6067 139.74 38.1C140.1 38.58 140.387 38.9867 140.6 39.32L139.58 39.86H143.14C143.593 39.3 144.293 38.34 145.24 36.98L147.48 37.84C147.12 38.36 146.64 39.0333 146.04 39.86H149.54V49.1H143.2V50.58H151.04ZM140.82 43.52V42.02H136.94V43.52H140.82ZM143.2 43.52H147.1V42.02H143.2V43.52ZM136.94 45.46V46.96H140.82V45.46H136.94ZM143.2 45.46V46.96H147.1V45.46H143.2ZM153.34 46.12C154.313 45.4933 155.253 44.8 156.16 44.04C157.08 43.2667 157.907 42.4867 158.64 41.7H153.38V39.28H160.74C160.527 38.64 160.287 38.02 160.02 37.42L162.76 36.92C163.08 37.8533 163.333 38.64 163.52 39.28H170.6V41.7H164.92C165.587 42.1133 166.52 42.7667 167.72 43.66C168.92 44.54 169.893 45.2867 170.64 45.9L169.16 47.96C168.36 47.28 167.36 46.4733 166.16 45.54C164.96 44.5933 164.047 43.9067 163.42 43.48L164.86 41.7H158.86L160.56 43.2C159.773 44.0533 158.873 44.92 157.86 45.8C156.847 46.68 155.813 47.4933 154.76 48.24L153.34 46.12ZM170.36 55.62C168.413 55.1267 166.773 54.6133 165.44 54.08C164.107 53.56 162.953 52.96 161.98 52.28C161.007 52.96 159.853 53.58 158.52 54.14C157.187 54.7133 155.6 55.26 153.76 55.78L152.64 53.36C154.293 52.96 155.72 52.5467 156.92 52.12C158.12 51.68 159.16 51.1867 160.04 50.64C159.16 49.72 158.267 48.4933 157.36 46.96L159.36 45.66C160.213 47.1133 161.093 48.2667 162 49.12C162.88 48.2533 163.673 47.1267 164.38 45.74L166.58 46.92C165.82 48.36 164.947 49.5933 163.96 50.62C164.853 51.1533 165.887 51.6133 167.06 52C168.247 52.3867 169.673 52.74 171.34 53.06L170.36 55.62ZM190.12 46.76C190.04 48.6933 189.84 50.72 189.52 52.84C189.36 53.8 189.053 54.4667 188.6 54.84C188.16 55.2267 187.46 55.4267 186.5 55.44C185.487 55.44 184.533 55.3867 183.64 55.28L183.2 53.12C184.067 53.2533 184.893 53.32 185.68 53.32C186.187 53.32 186.54 53.2333 186.74 53.06C186.953 52.8733 187.113 52.5267 187.22 52.02C187.447 50.9933 187.607 49.8933 187.7 48.72H185.82C185.273 50.2667 184.487 51.6067 183.46 52.74C182.433 53.8733 181.007 54.9333 179.18 55.92L177.66 54.12C179.3 53.2667 180.54 52.4467 181.38 51.66C182.22 50.86 182.873 49.88 183.34 48.72H181.5C180.74 49.9867 179.787 51.08 178.64 52C177.493 52.9067 175.98 53.78 174.1 54.62L172.86 52.74C174.327 52.18 175.547 51.5667 176.52 50.9C177.493 50.2333 178.273 49.5067 178.86 48.72H176.86C175.98 49.4933 175.1 50.1933 174.22 50.82L172.8 49.1C173.507 48.6733 174.233 48.1467 174.98 47.52C175.727 46.88 176.387 46.2333 176.96 45.58H175.1V37.82H189.1V45.58H179.78C179.58 45.86 179.267 46.2533 178.84 46.76H190.12ZM186.78 40.92V39.78H177.42V40.92H186.78ZM177.42 42.6V43.66H186.78V42.6H177.42ZM195.48 37.76H208.56V43.4H195.48V37.76ZM198 41.38H206.06V39.9H198V41.38ZM206.74 46.84H197.32V51.48H194.88V44.58H209.16V51.36H206.74V46.84ZM209.56 55.78C206.84 54.4467 204.32 53.26 202 52.22C200.68 53.82 198.007 55.0067 193.98 55.78L193.16 53.52C194.907 53.2133 196.287 52.8733 197.3 52.5C198.327 52.1267 199.093 51.6933 199.6 51.2C200.107 50.6933 200.44 50.0733 200.6 49.34C200.733 48.62 200.82 48.02 200.86 47.54H203.36C203.293 48.4067 203.147 49.34 202.92 50.34C205.48 51.34 208.08 52.4133 210.72 53.56L209.56 55.78ZM50.72 68.8V70.64H33.24V68.8H40.96C40.76 68.36 40.52 67.8933 40.24 67.4L42.78 66.9C43.06 67.4333 43.3467 68.0667 43.64 68.8H50.72ZM48.76 71.58V75.68H35.24V71.58H48.76ZM46.46 73.12H37.5V74.18H46.46V73.12ZM51.1 79.94V81.94H43.38V83.2C43.38 84.0933 43.2067 84.7267 42.86 85.1C42.5133 85.4733 41.9067 85.6667 41.04 85.68C40.2 85.6933 39.2333 85.6467 38.14 85.54L37.7 83.34C38.6067 83.4733 39.4133 83.54 40.12 83.54C40.4533 83.54 40.68 83.46 40.8 83.3C40.9333 83.1267 41 82.8533 41 82.48V81.94H32.88V79.94H41V79.52L44.46 78.42H34.58V76.6H49.16V78.42L44.72 79.94H51.1ZM55.42 75.02V77.28H53.24V72.92H56.5C56.0867 72.16 55.6933 71.4933 55.32 70.92L56.66 70.22L54.36 70.3L54.04 68.3C56.44 68.22 59.14 68.0933 62.14 67.92C65.14 67.7333 67.5 67.5467 69.22 67.36L69.72 69.4L69.04 69.46L67.06 69.6L68.8 70.2C68.3467 71.2 67.9 72.1067 67.46 72.92H70.68V77.28H68.52V75.02H55.42ZM64.96 72.92C65.2267 72.4667 65.52 71.9267 65.84 71.3C66.16 70.66 66.4267 70.1067 66.64 69.64C65.72 69.7067 64.3267 69.7933 62.46 69.9C62.5533 70.0733 62.8467 70.6133 63.34 71.52C63.4333 71.6933 63.5133 71.8533 63.58 72C63.66 72.1333 63.7267 72.2467 63.78 72.34L62.56 72.92H64.96ZM57.48 70.18C57.6667 70.46 57.96 70.9333 58.36 71.6L58.84 72.4L57.76 72.92H61.52C61.1467 72.2 60.76 71.4867 60.36 70.78L62.1 69.92L57.48 70.18ZM70.36 85.76C68.6133 85.4 67.0667 85 65.72 84.56C64.3733 84.1333 63.1667 83.64 62.1 83.08C59.9533 84.1733 57.1133 85.1 53.58 85.86L52.78 83.54C55.6333 83.0333 57.98 82.4067 59.82 81.66C58.74 80.86 57.68 79.82 56.64 78.54H56.04V76.4H67.8V78.54C66.7333 79.78 65.6067 80.8267 64.42 81.68C66.2467 82.4267 68.5 83.0133 71.18 83.44L70.36 85.76ZM59.6 78.54C60.3467 79.2867 61.18 79.9467 62.1 80.52C62.9667 80 63.82 79.34 64.66 78.54H59.6ZM75.2 67.74H88.84V73.78H75.2V67.74ZM86.58 70.14V69.36H77.46V70.14H86.58ZM77.46 71.44V72.24H86.58V71.44H77.46ZM90.38 85.8C88.98 85.2267 87.7733 84.5467 86.76 83.76C85.7467 84.56 84.5867 85.24 83.28 85.8L82.28 83.88C82.3333 83.8533 82.3733 83.84 82.4 83.84L81.86 83.9V85.8H79.7V84.18C75.86 84.66 73.7067 84.94 73.24 85.02L73.06 83.16L74.48 82.98V76.34H72.96V74.54H91.06V76.34H81.86V82.04C82.1133 82.0133 82.3133 81.9933 82.46 81.98C82.62 81.9533 82.74 81.9333 82.82 81.92L82.92 83.6C83.7067 83.2533 84.48 82.8267 85.24 82.32C84.4267 81.4267 83.76 80.3467 83.24 79.08H82.6V77.3H90.38V79.18C89.78 80.3667 89.1 81.3933 88.34 82.26C89.14 82.74 90.14 83.2133 91.34 83.68L90.38 85.8ZM79.7 77.42V76.34H76.7V77.42H79.7ZM79.7 78.96H76.7V80.08H79.7V78.96ZM85.42 79.08C85.7933 79.8133 86.2467 80.4533 86.78 81C87.3 80.4667 87.74 79.8267 88.1 79.08H85.42ZM76.7 81.48V82.7L79.7 82.32V81.48H76.7ZM110.9 68.68V70.58H93.16V68.68H100.84L100.28 67.38L102.86 66.88C103.007 67.1733 103.273 67.7733 103.66 68.68H110.9ZM95.62 75.6V71.48H108.46V75.6H95.62ZM97.98 74H106.06V73H97.98V74ZM93.98 85.56V76.42H110.1V83.08C110.1 84 109.92 84.64 109.56 85C109.213 85.3733 108.587 85.5733 107.68 85.6C106.947 85.6133 106.16 85.58 105.32 85.5L104.92 83.58H97.74V79.3H106.32V83.58H106.8C107.16 83.5933 107.407 83.5267 107.54 83.38C107.687 83.22 107.76 82.94 107.76 82.54V78.34H96.3V85.56H93.98ZM100.02 82H104.04V80.86H100.02V82ZM117.22 81.46H123.08V84H112.98V82.12L117.4 77.16C118.16 76.3067 118.687 75.64 118.98 75.16C119.287 74.6667 119.44 74.16 119.44 73.64C119.44 73.0667 119.28 72.6067 118.96 72.26C118.64 71.9133 118.207 71.74 117.66 71.74C117.1 71.74 116.607 71.9467 116.18 72.36C115.753 72.76 115.427 73.3333 115.2 74.08L112.92 72.76C113.267 71.5733 113.893 70.6667 114.8 70.04C115.707 69.4 116.753 69.08 117.94 69.08C118.873 69.08 119.68 69.2733 120.36 69.66C121.053 70.0333 121.58 70.5533 121.94 71.22C122.313 71.8867 122.5 72.6467 122.5 73.5C122.5 74.34 122.293 75.1267 121.88 75.86C121.48 76.58 120.76 77.52 119.72 78.68L117.22 81.46ZM135.192 76.68C135.192 79.1467 134.745 81.0267 133.852 82.32C132.958 83.6 131.685 84.24 130.032 84.24C128.378 84.24 127.098 83.6 126.192 82.32C125.298 81.0267 124.852 79.1467 124.852 76.68C124.852 74.2 125.298 72.3133 126.192 71.02C127.098 69.7267 128.378 69.08 130.032 69.08C131.685 69.08 132.958 69.7267 133.852 71.02C134.745 72.3133 135.192 74.2 135.192 76.68ZM127.932 76.68C127.932 78.3333 128.098 79.5667 128.432 80.38C128.778 81.18 129.312 81.58 130.032 81.58C130.752 81.58 131.278 81.18 131.612 80.38C131.945 79.5667 132.112 78.3333 132.112 76.68C132.112 75.0133 131.945 73.7733 131.612 72.96C131.278 72.1467 130.752 71.74 130.032 71.74C129.312 71.74 128.778 72.1467 128.432 72.96C128.098 73.76 127.932 75 127.932 76.68ZM143.503 72.72C143.503 73.44 143.343 74.08 143.023 74.64C142.703 75.1867 142.27 75.6067 141.723 75.9C141.177 76.1933 140.577 76.34 139.923 76.34C139.283 76.34 138.69 76.1933 138.143 75.9C137.597 75.6067 137.157 75.1867 136.823 74.64C136.503 74.08 136.343 73.44 136.343 72.72C136.343 72 136.503 71.3667 136.823 70.82C137.157 70.2733 137.597 69.8533 138.143 69.56C138.69 69.2533 139.283 69.1 139.923 69.1C140.577 69.1 141.177 69.2533 141.723 69.56C142.27 69.8533 142.703 70.2733 143.023 70.82C143.343 71.3667 143.503 72 143.503 72.72ZM147.523 69.36H150.363L141.623 84H138.783L147.523 69.36ZM141.263 72.72C141.263 72.2667 141.137 71.9067 140.883 71.64C140.63 71.36 140.31 71.22 139.923 71.22C139.55 71.22 139.237 71.36 138.983 71.64C138.73 71.9067 138.603 72.2667 138.603 72.72C138.603 73.16 138.73 73.52 138.983 73.8C139.237 74.08 139.55 74.22 139.923 74.22C140.31 74.22 140.63 74.08 140.883 73.8C141.137 73.52 141.263 73.16 141.263 72.72ZM152.803 80.62C152.803 81.34 152.643 81.98 152.323 82.54C152.003 83.0867 151.57 83.5067 151.023 83.8C150.477 84.0933 149.877 84.24 149.223 84.24C148.583 84.24 147.99 84.0933 147.443 83.8C146.897 83.5067 146.457 83.0867 146.123 82.54C145.803 81.98 145.643 81.34 145.643 80.62C145.643 79.9 145.803 79.2667 146.123 78.72C146.457 78.1733 146.897 77.7533 147.443 77.46C147.99 77.1533 148.583 77 149.223 77C149.877 77 150.477 77.1533 151.023 77.46C151.57 77.7533 152.003 78.1733 152.323 78.72C152.643 79.2667 152.803 79.9 152.803 80.62ZM150.563 80.62C150.563 80.1667 150.43 79.8067 150.163 79.54C149.91 79.26 149.597 79.12 149.223 79.12C148.85 79.12 148.537 79.26 148.283 79.54C148.03 79.8067 147.903 80.1667 147.903 80.62C147.903 81.06 148.03 81.42 148.283 81.7C148.537 81.98 148.85 82.12 149.223 82.12C149.597 82.12 149.91 81.98 150.163 81.7C150.43 81.42 150.563 81.06 150.563 80.62ZM171.273 77.02C170.353 76.4067 169.639 75.8867 169.133 75.46C169.013 77.7 168.806 80 168.513 82.36C168.406 83.12 168.233 83.7133 167.993 84.14C167.766 84.5667 167.433 84.88 166.993 85.08C166.553 85.28 165.959 85.3867 165.213 85.4C164.106 85.4267 162.999 85.3867 161.893 85.28L161.413 82.92C162.306 83.0267 163.299 83.08 164.393 83.08C164.939 83.08 165.326 82.9733 165.553 82.76C165.793 82.5333 165.959 82.0933 166.053 81.44C166.279 80.0667 166.433 78.58 166.513 76.98H161.593L161.533 77.7C161.439 78.9933 161.226 80.08 160.893 80.96C160.559 81.84 159.999 82.6733 159.213 83.46C158.426 84.2467 157.299 85.0667 155.833 85.92L154.033 83.92C155.326 83.2667 156.306 82.6533 156.973 82.08C157.653 81.4933 158.133 80.8733 158.413 80.22C158.706 79.5533 158.919 78.7067 159.053 77.68C159.079 77.5333 159.106 77.3 159.133 76.98H156.773V75.52C156.213 76 155.613 76.48 154.973 76.96L153.653 74.6C155.053 73.7333 156.293 72.6667 157.373 71.4C158.466 70.12 159.346 68.7333 160.013 67.24L162.293 68.14C161.733 69.4067 161.086 70.56 160.353 71.6C159.633 72.6267 158.779 73.62 157.793 74.58H168.133C167.186 73.6867 166.373 72.7 165.693 71.62C165.026 70.54 164.419 69.2667 163.873 67.8L166.133 66.98C166.773 68.74 167.586 70.2067 168.573 71.38C169.559 72.54 170.906 73.6133 172.613 74.6L171.273 77.02ZM181.953 71.44C181.659 71.04 181.246 70.54 180.713 69.94C180.193 69.34 179.739 68.8467 179.353 68.46L181.033 66.92C181.419 67.28 181.879 67.7467 182.413 68.32C182.959 68.88 183.426 69.3933 183.813 69.86L181.953 71.44ZM177.673 71.88C177.273 71.52 176.733 71.0667 176.053 70.52C175.386 69.9733 174.859 69.56 174.473 69.28L175.773 67.42C176.213 67.7 176.759 68.0867 177.413 68.58C178.066 69.06 178.626 69.5 179.093 69.9L177.673 71.88ZM184.333 68.16H191.733V82.78C191.733 83.5933 191.646 84.2 191.473 84.6C191.299 85.0133 190.999 85.2933 190.573 85.44C190.146 85.5867 189.519 85.66 188.693 85.66C188.253 85.66 187.733 85.6267 187.133 85.56L186.633 83.24C187.219 83.32 187.813 83.36 188.413 83.36C188.719 83.36 188.939 83.3333 189.073 83.28C189.219 83.2267 189.319 83.1267 189.373 82.98C189.426 82.82 189.453 82.5733 189.453 82.24V70.4H184.333V68.16ZM181.053 85.58H178.813V71.24H181.053V85.58ZM186.273 80.14H188.833V82.32H181.733V80.14H184.173V78.08H182.133V75.88H184.173V74.1H181.933V71.92H188.553V74.1H186.273V75.88H188.313V78.08H186.273V80.14ZM174.993 71.98C175.459 72.2867 176.026 72.6933 176.693 73.2C177.373 73.7067 177.926 74.1467 178.353 74.52L176.933 76.48C176.439 76.0267 175.879 75.5533 175.253 75.06C174.626 74.5533 174.099 74.16 173.673 73.88L174.993 71.98ZM173.893 84.86C174.239 83.8067 174.606 82.5867 174.993 81.2C175.393 79.8133 175.706 78.64 175.933 77.68L178.113 78.28C177.899 79.2667 177.606 80.4533 177.233 81.84C176.859 83.2133 176.513 84.42 176.193 85.46L173.893 84.86Z" fill="#2B2F33"/>
<defs>
<filter id="filter0_f_3849_2962" x="285.149" y="84.6178" width="46.8177" height="132.214" filterUnits="userSpaceOnUse" color-interpolation-filters="sRGB">
<feFlood flood-opacity="0" result="BackgroundImageFix"/>
<feBlend mode="normal" in="SourceGraphic" in2="BackgroundImageFix" result="shape"/>
<feGaussianBlur stdDeviation="0.380316" result="effect1_foregroundBlur_3849_2962"/>
</filter>
<filter id="filter1_f_3849_2962" x="359.151" y="77.0322" width="21.2143" height="75.3966" filterUnits="userSpaceOnUse" color-interpolation-filters="sRGB">
<feFlood flood-opacity="0" result="BackgroundImageFix"/>
<feBlend mode="normal" in="SourceGraphic" in2="BackgroundImageFix" result="shape"/>
<feGaussianBlur stdDeviation="0.380316" result="effect1_foregroundBlur_3849_2962"/>
</filter>
<linearGradient id="paint0_linear_3849_2962" x1="326.95" y1="70.3842" x2="295.897" y2="171.183" gradientUnits="userSpaceOnUse">
<stop stop-color="#FFFCF2"/>
<stop offset="1" stop-color="#07828B"/>
</linearGradient>
<linearGradient id="paint1_linear_3849_2962" x1="332.758" y1="89.2992" x2="366.45" y2="166.619" gradientUnits="userSpaceOnUse">
<stop stop-color="#07828B"/>
<stop offset="0.38" stop-color="#5AB8DB"/>
<stop offset="0.59" stop-color="#07828B"/>
<stop offset="0.905" stop-color="#5AB8DB"/>
</linearGradient>
<linearGradient id="paint2_linear_3849_2962" x1="266.113" y1="70.3863" x2="235.531" y2="169.166" gradientUnits="userSpaceOnUse">
<stop stop-color="#FFFCF2"/>
<stop offset="1" stop-color="#07828B"/>
</linearGradient>
<linearGradient id="paint3_linear_3849_2962" x1="271.781" y1="88.9385" x2="304.94" y2="164.653" gradientUnits="userSpaceOnUse">
<stop stop-color="#07828B"/>
<stop offset="0.38" stop-color="#05A7B3"/>
<stop offset="0.59" stop-color="#5AB8DB"/>
<stop offset="0.905" stop-color="#07828B"/>
</linearGradient>
<linearGradient id="paint4_linear_3849_2962" x1="386.878" y1="209.866" x2="370.086" y2="142.316" gradientUnits="userSpaceOnUse">
<stop stop-color="#07828B"/>
<stop offset="1" stop-color="#FFFCF2"/>
</linearGradient>
<linearGradient id="paint5_linear_3849_2962" x1="383.693" y1="205.364" x2="383.693" y2="161.073" gradientUnits="userSpaceOnUse">
<stop stop-color="#07828B"/>
<stop offset="1" stop-color="#5AB8DB"/>
</linearGradient>
<clipPath id="clip0_3849_2962">
<rect width="178" height="140" fill="white" transform="translate(232 77)"/>
</clipPath>
</defs>
</svg>
