<svg width="426" height="233" viewBox="0 0 426 233" fill="none" xmlns="http://www.w3.org/2000/svg">
<rect width="426" height="233" rx="24" fill="#07828B" fill-opacity="0.1"/>
<path d="M246.676 89.1026L246.676 89.1023C240.69 81.847 240.459 72.3695 245.938 67.8456L245.939 67.8449C246.459 67.4122 247.436 66.7391 248.294 66.1674C248.72 65.8832 249.114 65.6265 249.401 65.4408C249.544 65.348 249.661 65.273 249.742 65.2212C249.756 65.2124 249.768 65.2042 249.78 65.1968C249.791 65.1983 249.803 65.2 249.815 65.2018C249.905 65.2148 250.039 65.2346 250.211 65.262C250.555 65.3169 251.053 65.402 251.666 65.5226C252.892 65.7638 254.578 66.1466 256.416 66.7129C260.107 67.85 264.351 69.7097 266.756 72.6003C267.961 74.0658 268.765 76.0281 269.287 78.1679C269.808 80.3055 270.044 82.6013 270.125 84.7171C270.206 86.8318 270.133 88.7596 270.039 90.1593C269.992 90.859 269.94 91.426 269.9 91.8175C269.88 92.0131 269.863 92.1652 269.851 92.2679C269.85 92.278 269.849 92.2878 269.847 92.2971L269.841 92.3011L269.542 92.5016C269.294 92.6679 268.962 92.8903 268.627 93.1148C267.966 93.5589 267.271 94.0254 267.214 94.069L267.213 94.0696C261.678 98.3132 252.557 96.2394 246.676 89.1026Z" fill="url(#paint0_linear_3849_2908)" stroke="#07828B" stroke-width="0.565537"/>
<path d="M270.833 91.9248C276.492 87.2738 276.187 77.5776 270.151 70.2679C264.115 62.9582 254.634 60.803 248.974 65.4542C243.314 70.1054 243.62 79.8016 249.656 87.1114C255.692 94.421 265.173 96.5761 270.833 91.9248Z" fill="url(#paint1_linear_3849_2908)" stroke="#07828B" stroke-width="0.552119" stroke-miterlimit="10" stroke-linejoin="round"/>
<path d="M253.464 79.3014L250.97 76.7868L259.23 68.6338L261.724 71.1484L258.678 74.1542L260.307 75.797C262.92 73.4921 265.387 72.2604 266.111 72.9902C266.834 73.7199 265.574 76.1679 263.236 78.75L268.463 84.0221L266.294 86.1636L261.065 80.8903C258.46 83.1833 256.003 84.4067 255.282 83.6793C254.56 82.9516 255.813 80.514 258.139 77.9392L256.509 76.2952L253.464 79.3014ZM256.067 82.6105C256.543 83.0904 258.383 82.0703 260.441 80.2608L260.573 80.1433L260.587 80.1295L260.71 80.0185L260.723 80.0059C260.815 79.9232 260.906 79.8387 260.999 79.7525L261.005 79.7468L261.128 79.6309L261.162 79.5972L261.259 79.5047L261.862 78.9098L261.955 78.8152L261.987 78.783L262.097 78.669L262.109 78.6568C262.239 78.5215 262.365 78.3867 262.488 78.2527L262.49 78.2512L262.612 78.117C264.459 76.0762 265.509 74.2402 265.031 73.7579C264.553 73.2757 262.702 74.3047 260.636 76.1243L262.149 77.6495C261.831 78.0068 261.482 78.3752 261.107 78.7451C260.726 79.1208 260.346 79.4721 259.978 79.7898L258.471 78.2702C256.633 80.3047 255.591 82.1304 256.067 82.6105Z" fill="white"/>
<path d="M377.113 81.0334L377.113 81.0333C377.148 80.9611 377.175 80.9361 377.19 80.9241C377.209 80.9087 377.223 80.9015 377.258 80.883C377.274 80.875 377.293 80.8648 377.319 80.8509C377.396 80.809 377.495 80.7483 377.591 80.6367C377.676 80.5381 377.746 80.4139 377.807 80.2547C378.993 78.6659 380.836 77.8404 383.045 77.7247C385.275 77.6079 387.861 78.2178 390.452 79.4861L390.594 79.1962L390.452 79.4861C395.376 81.896 398.355 85.97 397.697 89.6939C397.659 89.8 397.623 89.9041 397.587 90.0061C397.409 90.5104 397.247 90.9671 397.037 91.3948L397.037 91.3948C396.053 93.3966 394.016 94.7852 391.499 95.3293C388.985 95.8728 386.015 95.5655 383.218 94.1968C377.593 91.4432 374.735 86.0166 377.113 81.0334Z" fill="white" stroke="#07828B" stroke-width="0.650697"/>
<path d="M384.307 92.5398C378.609 89.7508 375.64 84.1319 377.677 79.9897C379.714 75.8475 385.984 74.7506 391.682 77.5396C397.381 80.3286 400.349 85.9475 398.312 90.0897C396.276 94.2319 390.005 95.3288 384.307 92.5398Z" fill="url(#paint2_linear_3849_2908)" stroke="#07828B" stroke-width="0.552119" stroke-miterlimit="10" stroke-linejoin="round"/>
<path d="M393.39 83.1192C393.04 82.6447 390.88 83.2606 389 83.9242L388.332 83.0315L391.338 81.7997L390.282 80.3855L382.234 83.6732L383.291 85.0873L386.33 83.8437L386.998 84.7365C385.184 85.5464 383.185 86.6394 383.554 87.1374C383.923 87.6354 386.232 86.9614 388.126 86.2626L390.329 89.2178L392.33 88.3969L390.127 85.4417C391.888 84.6202 393.731 83.5947 393.381 83.1201L393.39 83.1192ZM388.925 85.6941C386.067 86.8593 383.997 87.2618 383.827 87.0324C383.667 86.8192 384.899 85.942 387.146 84.9255L387.884 85.9215L388.815 85.5438C389.186 85.3946 389.556 85.2371 389.908 85.0642L389.189 84.0919C391.44 83.279 393.026 83.0038 393.176 83.2095C393.313 83.4591 391.751 84.5408 388.934 85.6933L388.925 85.6941Z" fill="white"/>
<path d="M272.129 157.62L277.545 167.453L295.661 180.317L340.191 196.913L356.048 209C365.749 203.364 371.047 194.076 369.801 179.462C369.801 179.462 355.697 169.124 355.619 166.676C353.165 162.867 354.412 156.454 352.931 150.78C352.113 147.632 350.477 145.65 350.477 145.65C347.126 135.933 342.646 127.538 336.296 121.126C336.296 121.126 327.179 116.462 330.179 126.411C330.179 126.411 333.724 127.927 333.14 134.534C332.945 136.905 332.867 141.569 331.62 143.24C330.763 144.367 329.672 144.911 328.66 145.183C327.023 145.572 319.777 145.222 315.92 143.667C308.557 140.675 299.206 134.534 290.168 128.899C290.168 128.899 285.999 123.147 281.869 117.667C277.467 111.798 272.987 106.279 268.272 110.826L281.207 133.873L294.96 145.416L294.492 146.932C287.986 142.851 281.83 139.703 276.259 137.954C276.259 137.954 272.09 133.368 267.416 128.238C262.351 122.641 256.624 116.54 252.611 119.765L256.156 128.588C256.156 128.588 254.13 129.754 254.169 131.153C254.208 131.93 258.182 141.297 263.13 148.37C269.753 159.058 272.129 157.62 272.129 157.62Z" stroke="url(#paint3_linear_3849_2908)" stroke-width="0.650697"/>
<path fill-rule="evenodd" clip-rule="evenodd" d="M256.156 128.51C256.214 128.945 256.214 128.945 256.214 128.945L256.221 128.944C256.228 128.943 256.24 128.942 256.257 128.94C256.29 128.937 256.341 128.933 256.408 128.93C256.542 128.922 256.739 128.918 256.985 128.931C257.477 128.955 258.157 129.045 258.902 129.308C260.378 129.827 262.145 131.031 263.225 133.835C263.669 135.008 264.314 136.205 265.064 137.372C265.043 137.401 265.02 137.433 264.994 137.468C264.889 137.612 264.761 137.777 264.636 137.936C264.511 138.094 264.391 138.242 264.302 138.352C264.257 138.406 264.22 138.451 264.195 138.482L264.165 138.518L264.158 138.527L264.156 138.529L264.156 138.53L264.494 138.81C264.833 139.089 264.833 139.089 264.833 139.089L264.833 139.089L264.834 139.088L264.836 139.086L264.844 139.076L264.874 139.039C264.901 139.007 264.938 138.961 264.984 138.905C265.075 138.794 265.198 138.641 265.326 138.479C265.411 138.371 265.499 138.259 265.581 138.15C266.647 139.699 267.863 141.171 268.992 142.43C269.863 143.401 270.688 144.252 271.364 144.923C270.979 144.824 270.581 144.752 270.167 144.712C269.322 144.629 268.419 144.798 267.71 145.217C266.99 145.641 266.447 146.343 266.431 147.295C266.416 148.148 266.673 149.216 267.423 150.53C268.476 152.379 269.549 154.208 270.358 155.574C270.763 156.258 271.101 156.826 271.339 157.223C271.458 157.421 271.552 157.577 271.616 157.683L271.688 157.805L271.707 157.836L271.712 157.844L271.713 157.846L271.714 157.846C271.714 157.846 271.714 157.846 272.09 157.62C272.467 157.394 272.467 157.394 272.467 157.394V157.394L272.467 157.393L272.465 157.391L272.461 157.384L272.442 157.353L272.37 157.232C272.306 157.126 272.213 156.971 272.094 156.773C271.857 156.377 271.519 155.81 271.115 155.128C270.307 153.764 269.237 151.94 268.187 150.097C267.495 148.883 267.299 147.969 267.31 147.31C267.32 146.728 267.639 146.278 268.157 145.972C268.685 145.66 269.397 145.518 270.082 145.585C272.088 145.781 273.74 146.81 275.203 148.284C276.469 149.559 277.57 151.142 278.619 152.759C278.593 152.786 278.558 152.819 278.512 152.856C278.324 153.01 278.037 153.174 277.718 153.33C277.404 153.483 277.081 153.617 276.835 153.713C276.712 153.76 276.61 153.798 276.538 153.824C276.524 153.83 276.51 153.834 276.498 153.839C276.481 153.845 276.467 153.85 276.456 153.854L276.435 153.861L276.43 153.862L276.429 153.863C276.429 153.863 276.429 153.863 276.572 154.278C276.714 154.693 276.714 154.693 276.714 154.693H276.715L276.717 154.692L276.724 154.689L276.748 154.681C276.769 154.674 276.8 154.663 276.838 154.649C276.915 154.621 277.024 154.58 277.154 154.53C277.413 154.429 277.76 154.285 278.104 154.118C278.442 153.953 278.8 153.754 279.068 153.536L279.081 153.525C279.085 153.522 279.09 153.518 279.095 153.514C279.097 153.512 279.099 153.51 279.101 153.509L279.121 153.541C280.263 155.35 281.477 157.105 282.378 158.37C282.902 159.106 283.514 159.769 284.197 160.349C284.198 160.364 284.198 160.386 284.198 160.412C284.198 160.475 284.196 160.569 284.189 160.685C284.175 160.918 284.14 161.236 284.057 161.579C283.889 162.279 283.543 162.999 282.863 163.378L283.292 164.144C284.287 163.59 284.72 162.581 284.912 161.784C284.981 161.498 285.022 161.228 285.045 161C285.345 161.207 285.656 161.4 285.977 161.578C287.764 162.568 290.474 164.025 293.133 165.284C295.276 166.316 296.141 167.74 296.487 168.882C296.662 169.46 296.707 169.975 296.708 170.344C296.708 170.528 296.698 170.674 296.688 170.772C296.683 170.821 296.678 170.858 296.675 170.882C296.673 170.893 296.671 170.901 296.671 170.906L296.67 170.909C296.67 170.909 296.67 170.909 297.102 170.99C297.534 171.071 297.534 171.071 297.534 171.071V171.07L297.535 171.068L297.536 171.064L297.538 171.051C297.54 171.041 297.542 171.027 297.545 171.009C297.55 170.974 297.556 170.924 297.562 170.862C297.576 170.736 297.588 170.559 297.587 170.341C297.586 169.906 297.533 169.304 297.328 168.628C296.985 167.496 296.222 166.184 294.616 165.117C294.862 163.376 294.731 162.239 294.508 161.51C294.391 161.127 294.249 160.86 294.126 160.68C294.065 160.59 294.009 160.523 293.964 160.475C293.941 160.451 293.922 160.432 293.906 160.418C293.897 160.41 293.891 160.404 293.884 160.399L293.881 160.396L293.876 160.392L293.872 160.389L293.871 160.387L293.87 160.387C293.869 160.386 293.869 160.386 293.596 160.73C293.323 161.073 293.322 161.073 293.322 161.073L293.321 161.072L293.32 161.071L293.317 161.069L293.314 161.066C293.312 161.064 293.311 161.064 293.311 161.064C293.311 161.064 293.315 161.068 293.323 161.075C293.337 161.091 293.365 161.122 293.4 161.174C293.471 161.278 293.575 161.464 293.667 161.766C293.83 162.299 293.958 163.197 293.792 164.632C293.701 164.585 293.609 164.539 293.514 164.493L293.512 164.492C290.876 163.245 288.184 161.798 286.404 160.811C285.093 160.085 283.963 159.081 283.095 157.862C282.199 156.604 280.994 154.863 279.865 153.072L279.863 153.07C279.755 152.9 279.645 152.73 279.535 152.559C279.533 152.548 279.53 152.538 279.528 152.528L279.517 152.531C278.981 151.699 278.423 150.857 277.831 150.05C281.485 151.487 285.082 152.943 288.609 154.432C290.61 155.276 292.875 153.959 293.098 151.797L292.224 151.707C292.062 153.276 290.414 154.241 288.952 153.624C284.969 151.943 280.899 150.304 276.762 148.688C276.461 148.333 276.15 147.991 275.828 147.667C275.148 146.982 274.415 146.373 273.613 145.885L273.629 145.866L273.628 145.865L273.625 145.862L273.609 145.848C273.596 145.836 273.575 145.818 273.548 145.793C273.494 145.744 273.413 145.671 273.31 145.575C273.104 145.384 272.805 145.104 272.44 144.749C271.71 144.04 270.712 143.033 269.647 141.845C267.506 139.457 265.127 136.378 264.047 133.524L264.046 133.522C262.867 130.459 260.894 129.078 259.195 128.48C258.353 128.184 257.586 128.082 257.029 128.055C256.75 128.041 256.522 128.045 256.362 128.053C256.282 128.058 256.218 128.063 256.173 128.067C256.151 128.069 256.133 128.071 256.121 128.073L256.105 128.074L256.1 128.075L256.099 128.075H256.098C256.098 128.075 256.097 128.075 256.156 128.51ZM289.848 128.559C289.848 128.559 289.848 128.559 290.168 128.86C290.487 129.161 290.487 129.161 290.487 129.161L290.486 129.162L290.483 129.166L290.467 129.183C290.453 129.198 290.432 129.22 290.406 129.249C290.352 129.308 290.276 129.393 290.184 129.499C289.999 129.711 289.754 130.003 289.512 130.327C289.268 130.653 289.034 131.001 288.865 131.325C288.688 131.664 288.614 131.917 288.62 132.07L287.741 132.102C287.727 131.711 287.893 131.288 288.085 130.92C288.284 130.537 288.549 130.147 288.807 129.802C289.066 129.456 289.326 129.146 289.52 128.923C289.617 128.812 289.698 128.721 289.756 128.659C289.785 128.627 289.807 128.603 289.823 128.586L289.841 128.566L289.846 128.561L289.848 128.559L289.848 128.559ZM294.959 145.378C295.386 145.484 295.386 145.484 295.386 145.484L295.386 145.484L295.387 145.48L295.391 145.462C295.396 145.446 295.402 145.422 295.411 145.39C295.43 145.326 295.457 145.234 295.494 145.121C295.569 144.895 295.68 144.593 295.828 144.284C295.977 143.973 296.156 143.671 296.361 143.434C296.567 143.195 296.773 143.054 296.972 143.006L296.765 142.153C296.321 142.261 295.967 142.546 295.695 142.861C295.421 143.178 295.203 143.556 295.035 143.906C294.866 144.258 294.742 144.597 294.659 144.847C294.618 144.972 294.587 145.076 294.566 145.15C294.555 145.187 294.547 145.216 294.542 145.237L294.539 145.249L294.535 145.261L294.534 145.268L294.533 145.27L294.533 145.271V145.271C294.533 145.271 294.533 145.271 294.959 145.378ZM276.647 138.084L275.166 140.844L274.391 140.429L275.871 137.67L276.647 138.084ZM328.945 144.81C328.945 144.809 328.945 144.809 329.361 144.95C329.777 145.091 329.777 145.091 329.777 145.091V145.092L329.777 145.094L329.773 145.104L329.767 145.123L329.76 145.143C329.749 145.178 329.731 145.231 329.709 145.301C329.664 145.44 329.599 145.646 329.52 145.91C329.362 146.438 329.146 147.198 328.917 148.126C328.457 149.982 327.947 152.498 327.735 155.148C327.523 157.803 327.613 160.564 328.336 162.924C329.055 165.274 330.391 167.2 332.664 168.261L332.292 169.055C329.734 167.862 328.265 165.698 327.495 163.18C326.727 160.671 326.642 157.787 326.858 155.079C327.075 152.366 327.597 149.8 328.063 147.915C328.296 146.972 328.516 146.198 328.678 145.658C328.759 145.388 328.825 145.177 328.872 145.033C328.895 144.961 328.913 144.905 328.925 144.868C328.932 144.849 328.936 144.834 328.94 144.825L328.944 144.813L328.945 144.81L328.945 144.81ZM350.095 177.546C352.459 175.595 354.399 171.716 356.037 166.775L355.202 166.499C353.568 171.43 351.689 175.091 349.534 176.87L350.095 177.546Z" fill="url(#paint4_linear_3849_2908)"/>
<path d="M336.692 74.9781C336.778 74.9524 336.847 74.9322 336.899 74.9172L337.072 75.0119L337.814 75.4176C338.44 75.7595 339.302 76.2305 340.246 76.7466C342.135 77.7789 344.352 78.9916 345.67 79.7136C360.492 87.8386 364.556 109.015 354.619 127.11C344.681 145.206 324.601 153.197 309.78 145.109C308.549 144.431 306.87 143.327 305.492 142.388C304.805 141.919 304.195 141.493 303.756 141.184C303.537 141.03 303.361 140.904 303.24 140.818C303.191 140.783 303.151 140.754 303.121 140.733L303.12 140.731C303.1 140.677 303.071 140.598 303.034 140.494C302.958 140.285 302.849 139.976 302.712 139.577C302.439 138.78 302.058 137.624 301.627 136.188C300.763 133.316 299.699 129.331 298.894 124.875C297.28 115.942 296.724 105.195 300.832 97.7128C304.907 90.2955 313.921 84.587 321.97 80.7248C325.987 78.7976 329.747 77.3374 332.504 76.359C333.882 75.8698 335.009 75.5013 335.79 75.2551C336.181 75.1321 336.486 75.0397 336.692 74.9781Z" fill="url(#paint5_linear_3849_2908)" stroke="#07828B" stroke-width="0.552119"/>
<path d="M347.706 123.007C357.688 104.816 353.637 83.4375 338.657 75.2567C323.676 67.0759 303.44 75.191 293.458 93.3823C283.475 111.574 287.527 132.952 302.507 141.133C317.487 149.314 337.723 141.199 347.706 123.007Z" fill="url(#paint6_linear_3849_2908)" stroke="#07828B" stroke-width="0.552119" stroke-miterlimit="10" stroke-linejoin="round"/>
<path d="M339.599 108.853L344.19 102.039L319.48 85.4661L314.889 92.2803L323.999 98.3904L321 102.842C313.341 98.2507 306.654 96.1588 305.322 98.1365C303.989 100.114 308.455 105.502 315.608 110.844L305.982 125.132L312.473 129.484L322.1 115.194C329.735 119.76 336.391 121.836 337.719 119.864C339.047 117.893 334.608 112.526 327.488 107.197L330.489 102.742L339.599 108.853ZM335.201 117.591C334.324 118.892 329.278 117.091 323.25 113.488L322.862 113.254L322.82 113.226L322.457 113.004L322.419 112.978C322.15 112.813 321.878 112.643 321.605 112.469L321.588 112.458L321.221 112.224L321.119 112.156L320.832 111.969L319.028 110.76L318.749 110.567L318.651 110.501L318.32 110.267L318.283 110.243C317.891 109.965 317.507 109.688 317.132 109.411L317.127 109.408L316.754 109.13C311.102 104.907 307.5 100.902 308.381 99.5951C309.261 98.2883 314.337 100.107 320.392 103.731L317.607 107.864C318.582 108.605 319.642 109.362 320.762 110.114C321.901 110.877 323.026 111.583 324.101 112.213L326.875 108.095C332.5 112.306 336.077 116.29 335.201 117.591Z" fill="white"/>
<path d="M319.564 191.064C319.564 191.064 338.756 191.205 347.652 183.458L354.552 193.908C354.552 193.908 344.233 202.175 323.084 202.008L319.564 191.064Z" fill="#07828B"/>
<path d="M324.05 201.129L320.983 191.698C322.576 192.894 328.438 191.788 329.841 191.691C331.244 191.595 329.603 192.612 329.979 193.691C330.356 194.77 338.71 193.291 338.972 194.177C339.235 195.063 331.575 196.393 332.08 197.865C332.584 199.337 337.559 198.493 335.745 199.923C334.294 201.068 327.344 201.204 324.05 201.129Z" fill="#88D8DB"/>
<path d="M353.604 181.729C363.959 174.937 368.934 164.819 370.788 151.746L386.442 157.164C382.605 172.236 374.977 181.975 361.911 191.529L353.612 181.729L353.604 181.729Z" fill="url(#paint7_linear_3849_2908)"/>
<path d="M362.661 177.071C361.5 177.728 361.413 176.667 361.515 176.055L355.134 181.856L362.451 189.589C363.225 189.693 371.111 182.194 373.848 180.268C373.887 180.046 374.324 179.786 374.425 178.42C374.552 176.712 371.189 179.594 370.269 177.662C369.35 175.73 365.548 179.934 365.949 177.272C366.35 174.61 364.113 176.249 362.661 177.071Z" fill="#07828B"/>
<path d="M373.624 122.987L394.143 123.75C395.953 139.663 393.206 151.815 383.131 160.199L361.879 158.029C371.122 148.689 373.624 139.797 373.624 122.987Z" fill="url(#paint8_linear_3849_2908)" stroke="url(#paint9_linear_3849_2908)" stroke-width="0.57947" stroke-miterlimit="10" stroke-linejoin="round"/>
<mask id="mask0_3849_2908" style="mask-type:alpha" maskUnits="userSpaceOnUse" x="362" y="123" width="32" height="37">
<path d="M372.448 124.104L392.878 124.588C395.315 139.538 392.076 151.537 383.006 159.242L363.45 157.292C372.182 148.468 375.899 137.763 372.448 124.104Z" fill="#D9D9D9" stroke="white" stroke-width="0.57947" stroke-miterlimit="10"/>
</mask>
<g mask="url(#mask0_3849_2908)">
<path d="M369.647 146.714C368.261 149.377 366.803 147.468 366.247 146.181L358.445 161.944L384.648 164.613C386.234 163.867 393.874 146.88 396.683 139.886C396.484 139.418 395.718 137.801 394.242 135.083C392.397 131.686 388.8 141.112 384.71 138.564C380.619 136.015 378.584 148.634 376.091 143.089C373.597 137.544 371.38 143.384 369.647 146.714Z" fill="#88D8DB"/>
</g>
<path d="M376.079 128.104L376.577 128.135L376.528 128.918L377.309 128.967L377.278 129.46L376.497 129.411L376.448 130.195L375.95 130.164L375.999 129.38L375.214 129.332L375.245 128.839L376.03 128.888L376.079 128.104ZM377.861 128.823L377.896 128.261L378.835 127.805L379.292 127.833L379.108 130.794L378.513 130.757L378.657 128.442L377.861 128.823ZM380.907 130.391L382.093 130.464L382.061 130.977L380.017 130.85L380.041 130.471L380.998 129.524C381.162 129.362 381.277 129.234 381.343 129.14C381.411 129.045 381.448 128.944 381.455 128.839C381.462 128.723 381.436 128.628 381.375 128.555C381.315 128.48 381.229 128.44 381.119 128.433C381.005 128.426 380.903 128.462 380.811 128.54C380.72 128.615 380.646 128.727 380.591 128.875L380.146 128.579C380.231 128.344 380.37 128.169 380.561 128.054C380.753 127.936 380.969 127.885 381.209 127.899C381.398 127.911 381.559 127.96 381.691 128.047C381.827 128.131 381.927 128.243 381.992 128.382C382.059 128.521 382.087 128.677 382.076 128.849C382.066 129.019 382.014 129.175 381.921 129.318C381.831 129.459 381.673 129.64 381.448 129.861L380.907 130.391ZM383.711 129.19C383.895 129.202 384.056 129.252 384.194 129.342C384.332 129.429 384.436 129.546 384.505 129.693C384.574 129.841 384.603 130.007 384.592 130.189C384.58 130.381 384.522 130.549 384.418 130.694C384.317 130.839 384.183 130.948 384.016 131.022C383.851 131.095 383.675 131.126 383.486 131.114C383.291 131.102 383.117 131.05 382.963 130.956C382.809 130.86 382.691 130.733 382.609 130.573C382.527 130.414 382.492 130.234 382.505 130.032C382.514 129.881 382.551 129.738 382.617 129.605C382.682 129.468 382.793 129.291 382.951 129.074L383.653 128.104L384.289 128.143L383.654 128.996C383.604 129.066 383.549 129.135 383.491 129.205C383.557 129.19 383.63 129.185 383.711 129.19ZM383.514 130.589C383.641 130.597 383.746 130.561 383.83 130.483C383.914 130.402 383.96 130.294 383.968 130.159C383.976 130.024 383.944 129.913 383.871 129.824C383.798 129.734 383.698 129.684 383.571 129.676C383.442 129.668 383.335 129.705 383.252 129.786C383.168 129.865 383.122 129.971 383.114 130.106C383.105 130.243 383.137 130.356 383.21 130.445C383.286 130.533 383.387 130.581 383.514 130.589ZM385.208 131.229C385.116 131.224 385.04 131.185 384.98 131.114C384.919 131.042 384.892 130.96 384.898 130.866C384.903 130.771 384.941 130.692 385.01 130.629C385.079 130.566 385.159 130.537 385.251 130.543C385.345 130.549 385.423 130.587 385.484 130.659C385.547 130.73 385.576 130.813 385.57 130.907C385.564 131.001 385.525 131.08 385.453 131.143C385.384 131.207 385.303 131.235 385.208 131.229ZM387.554 129.769C387.714 129.842 387.834 129.941 387.913 130.067C387.992 130.191 388.026 130.342 388.015 130.52C388.003 130.703 387.946 130.857 387.843 130.984C387.744 131.107 387.612 131.199 387.448 131.259C387.288 131.317 387.111 131.34 386.92 131.327C386.674 131.312 386.463 131.241 386.287 131.114C386.113 130.987 385.996 130.811 385.934 130.585L386.416 130.348C386.451 130.49 386.515 130.601 386.611 130.68C386.706 130.756 386.816 130.798 386.94 130.806C387.062 130.813 387.165 130.784 387.25 130.72C387.339 130.655 387.386 130.561 387.394 130.436C387.411 130.165 387.212 130.016 386.796 129.99L386.687 129.983L386.717 129.498L386.875 129.508C387.029 129.518 387.149 129.489 387.234 129.421C387.322 129.351 387.37 129.261 387.377 129.15C387.383 129.048 387.354 128.963 387.291 128.897C387.227 128.831 387.142 128.795 387.034 128.788C386.917 128.781 386.814 128.813 386.723 128.882C386.635 128.95 386.563 129.051 386.509 129.185L386.079 128.903C386.164 128.682 386.297 128.517 386.48 128.409C386.663 128.299 386.875 128.251 387.115 128.266C387.301 128.278 387.462 128.323 387.598 128.402C387.737 128.478 387.842 128.58 387.912 128.709C387.983 128.838 388.013 128.983 388.003 129.144C387.994 129.295 387.95 129.424 387.873 129.53C387.799 129.636 387.692 129.716 387.554 129.769ZM389.832 129.173C389.823 129.318 389.783 129.446 389.711 129.555C389.639 129.661 389.547 129.74 389.432 129.793C389.318 129.845 389.194 129.867 389.062 129.859C388.933 129.851 388.814 129.814 388.707 129.748C388.601 129.682 388.517 129.591 388.456 129.477C388.398 129.36 388.374 129.228 388.383 129.083C388.392 128.937 388.433 128.812 388.504 128.705C388.579 128.599 388.673 128.52 388.787 128.467C388.902 128.412 389.024 128.389 389.153 128.397C389.286 128.405 389.405 128.444 389.512 128.512C389.619 128.578 389.701 128.669 389.759 128.783C389.817 128.897 389.842 129.028 389.832 129.173ZM390.689 128.545L391.263 128.581L389.31 131.427L388.735 131.392L390.689 128.545ZM389.379 129.145C389.385 129.053 389.363 128.979 389.316 128.922C389.268 128.862 389.205 128.83 389.127 128.825C389.051 128.82 388.986 128.845 388.931 128.898C388.876 128.948 388.846 129.02 388.841 129.111C388.835 129.2 388.856 129.275 388.904 129.334C388.952 129.394 389.013 129.426 389.089 129.431C389.167 129.436 389.234 129.411 389.289 129.358C389.343 129.305 389.373 129.234 389.379 129.145ZM391.615 130.885C391.606 131.031 391.566 131.158 391.494 131.267C391.422 131.373 391.329 131.453 391.215 131.505C391.101 131.557 390.978 131.579 390.845 131.571C390.715 131.563 390.597 131.526 390.49 131.46C390.383 131.394 390.3 131.304 390.239 131.189C390.181 131.072 390.157 130.941 390.166 130.795C390.175 130.65 390.215 130.524 390.287 130.417C390.362 130.311 390.456 130.232 390.57 130.18C390.685 130.125 390.807 130.101 390.936 130.109C391.069 130.117 391.188 130.156 391.295 130.225C391.402 130.291 391.484 130.381 391.542 130.495C391.6 130.61 391.624 130.74 391.615 130.885ZM391.162 130.857C391.168 130.765 391.145 130.691 391.095 130.634C391.047 130.574 390.985 130.542 390.91 130.537C390.834 130.533 390.769 130.557 390.714 130.61C390.659 130.661 390.629 130.732 390.624 130.824C390.618 130.913 390.639 130.987 390.687 131.046C390.735 131.106 390.796 131.138 390.872 131.143C390.947 131.148 391.012 131.123 391.067 131.07C391.125 131.017 391.157 130.946 391.162 130.857Z" fill="white"/>
<path d="M383.173 153.057L372.585 151.506C371.202 151.303 369.822 151.889 369.011 153.024L368.915 153.158C368.141 154.241 368.788 155.757 370.107 155.95L380.503 157.469C381.943 157.68 383.386 157.103 384.282 155.958L384.319 155.91C385.16 154.835 384.526 153.255 383.173 153.057Z" fill="white"/>
<path d="M371.891 152.539L373.437 152.715L373.279 153.098L372.203 152.975L371.97 153.537L372.933 153.647L372.776 154.027L371.813 153.917L371.45 154.795L370.98 154.742L371.891 152.539ZM372.973 154.153C373.041 153.99 373.139 153.851 373.268 153.736C373.399 153.621 373.545 153.538 373.704 153.486C373.864 153.433 374.021 153.415 374.174 153.433C374.325 153.45 374.452 153.5 374.553 153.583C374.657 153.665 374.723 153.772 374.749 153.905C374.778 154.039 374.758 154.187 374.691 154.349C374.624 154.512 374.525 154.65 374.393 154.766C374.264 154.881 374.12 154.965 373.96 155.016C373.803 155.067 373.649 155.084 373.498 155.067C373.345 155.049 373.216 155 373.111 154.919C373.007 154.837 372.94 154.73 372.912 154.597C372.886 154.463 372.906 154.315 372.973 154.153ZM373.44 154.206C373.383 154.345 373.374 154.459 373.413 154.55C373.456 154.638 373.533 154.69 373.646 154.702C373.758 154.715 373.867 154.686 373.974 154.614C374.082 154.54 374.164 154.434 374.221 154.295C374.279 154.157 374.287 154.042 374.248 153.952C374.209 153.861 374.133 153.81 374.02 153.797C373.908 153.784 373.797 153.814 373.687 153.888C373.58 153.962 373.497 154.068 373.44 154.206ZM375.145 155.217L374.695 155.166L375.642 152.876L376.093 152.927L375.145 155.217ZM376.013 155.316L375.562 155.265L376.509 152.975L376.96 153.026L376.013 155.316ZM376.655 154.573C376.722 154.411 376.82 154.272 376.949 154.156C377.081 154.041 377.226 153.958 377.385 153.907C377.545 153.853 377.702 153.836 377.855 153.853C378.007 153.87 378.133 153.921 378.235 154.003C378.339 154.085 378.404 154.192 378.431 154.325C378.459 154.459 378.44 154.607 378.373 154.769C378.305 154.932 378.206 155.07 378.075 155.186C377.945 155.301 377.801 155.385 377.642 155.436C377.485 155.487 377.331 155.504 377.18 155.487C377.026 155.469 376.897 155.42 376.793 155.339C376.688 155.258 376.622 155.15 376.593 155.017C376.567 154.883 376.587 154.736 376.655 154.573ZM377.121 154.626C377.064 154.765 377.055 154.879 377.095 154.97C377.137 155.059 377.215 155.11 377.327 155.122C377.439 155.135 377.549 155.106 377.655 155.034C377.763 154.96 377.845 154.854 377.903 154.716C377.96 154.577 377.969 154.463 377.929 154.372C377.89 154.281 377.814 154.23 377.702 154.217C377.589 154.204 377.478 154.235 377.368 154.308C377.261 154.382 377.179 154.488 377.121 154.626ZM380.249 154.167L380.196 155.179L380.929 154.245L381.367 154.295L380.111 155.781L379.79 155.744L379.799 154.752L379.041 155.658L378.717 155.622L378.725 153.993L379.189 154.046L379.135 155.07L379.873 154.124L380.249 154.167Z" fill="#07828B"/>
<path d="M38.98 45.36L42.3 39.36H45.44L40.34 48.24V54H37.44V48.22L32.12 39.36H35.54L38.98 45.36ZM59.3747 39.36H61.5747V54H58.8147V44.56L55.0947 50.1H53.5747L49.8347 44.52V54H47.0947V39.36H49.3947L54.3947 46.94L59.3747 39.36ZM73.4933 47.82H67.5533V51.46H74.4133V54H64.6533V39.36H74.1933V41.88H67.5533V45.32H73.4933V47.82ZM89.2413 39.36L84.1013 46.5L89.4813 54H85.8813L82.3213 48.86L78.7413 54H75.3813L80.7413 46.56L75.6213 39.36H79.1613L82.5213 44.2L85.8813 39.36H89.2413ZM102.769 51.58C103.475 51.58 104.082 51.3933 104.589 51.02C105.109 50.6467 105.522 50.1267 105.829 49.46L108.249 50.86C107.889 51.8467 107.229 52.66 106.269 53.3C105.309 53.9267 104.162 54.24 102.829 54.24C101.535 54.24 100.355 53.9267 99.2888 53.3C98.2221 52.6733 97.3754 51.7867 96.7488 50.64C96.1221 49.48 95.8088 48.1533 95.8088 46.66C95.8088 45.1667 96.1154 43.8467 96.7288 42.7C97.3554 41.5533 98.2021 40.6667 99.2688 40.04C100.349 39.4133 101.535 39.1 102.829 39.1C104.162 39.1 105.309 39.42 106.269 40.06C107.229 40.6867 107.889 41.4933 108.249 42.48L105.829 43.88C105.522 43.2133 105.109 42.6933 104.589 42.32C104.082 41.9467 103.475 41.76 102.769 41.76C102.022 41.76 101.355 41.96 100.769 42.36C100.182 42.76 99.7154 43.3333 99.3688 44.08C99.0354 44.8133 98.8688 45.6733 98.8688 46.66C98.8688 47.6467 99.0354 48.5133 99.3688 49.26C99.7154 50.0067 100.182 50.58 100.769 50.98C101.355 51.38 102.022 51.58 102.769 51.58ZM109.282 48.82C109.282 47.74 109.522 46.7867 110.002 45.96C110.495 45.1333 111.149 44.5 111.962 44.06C112.775 43.6067 113.655 43.38 114.602 43.38C115.535 43.38 116.402 43.6067 117.202 44.06C118.015 44.5 118.662 45.1333 119.142 45.96C119.635 46.7867 119.882 47.74 119.882 48.82C119.882 49.9 119.635 50.8533 119.142 51.68C118.662 52.5067 118.015 53.14 117.202 53.58C116.402 54.02 115.535 54.24 114.602 54.24C113.655 54.24 112.775 54.02 111.962 53.58C111.149 53.14 110.495 52.5067 110.002 51.68C109.522 50.8533 109.282 49.9 109.282 48.82ZM112.162 48.82C112.162 49.74 112.389 50.4733 112.842 51.02C113.309 51.5533 113.889 51.82 114.582 51.82C115.275 51.82 115.849 51.5533 116.302 51.02C116.755 50.4733 116.982 49.74 116.982 48.82C116.982 47.9 116.755 47.1667 116.302 46.62C115.849 46.0733 115.275 45.8 114.582 45.8C113.889 45.8 113.309 46.0733 112.842 46.62C112.389 47.1667 112.162 47.9 112.162 48.82ZM127.814 43.38C128.654 43.38 129.427 43.5933 130.134 44.02C130.854 44.4467 131.42 45.0733 131.834 45.9C132.26 46.7267 132.474 47.7 132.474 48.82C132.474 49.94 132.26 50.9133 131.834 51.74C131.42 52.5533 130.854 53.1733 130.134 53.6C129.427 54.0267 128.654 54.24 127.814 54.24C127.174 54.24 126.58 54.1133 126.034 53.86C125.487 53.6067 125.034 53.22 124.674 52.7V58.64H121.894V43.64H124.334L124.394 44.32C124.407 44.4533 124.42 44.5933 124.434 44.74C124.447 44.8867 124.467 45.04 124.494 45.2C124.854 44.5867 125.32 44.1333 125.894 43.84C126.48 43.5333 127.12 43.38 127.814 43.38ZM127.174 51.78C127.894 51.78 128.474 51.52 128.914 51C129.367 50.4667 129.594 49.74 129.594 48.82C129.594 47.8733 129.374 47.1267 128.934 46.58C128.494 46.0333 127.907 45.76 127.174 45.76C126.48 45.76 125.887 46.02 125.394 46.54C124.914 47.0467 124.674 47.8067 124.674 48.82C124.674 49.82 124.914 50.5667 125.394 51.06C125.874 51.54 126.467 51.78 127.174 51.78ZM140.986 43.64H143.886L139.226 55.36C138.733 56.6 138.153 57.4933 137.486 58.04C136.833 58.6 136.013 58.88 135.026 58.88C134.546 58.88 134.093 58.8067 133.666 58.66C133.253 58.5267 132.893 58.34 132.586 58.1L133.686 55.98C134.086 56.2733 134.526 56.42 135.006 56.42C135.313 56.42 135.573 56.3533 135.786 56.22C136.013 56.1 136.226 55.88 136.426 55.56C136.626 55.2533 136.859 54.7933 137.126 54.18L132.626 43.64H135.746L138.486 50.78L140.986 43.64ZM148.918 39.36H160.718V41.94H156.278V54H153.358V41.94H148.918V39.36ZM165.792 43.38C166.192 43.38 166.566 43.44 166.912 43.56C167.259 43.68 167.526 43.8333 167.712 44.02L166.632 46.16C166.286 45.92 165.892 45.8 165.452 45.8C164.732 45.8 164.152 46.1 163.712 46.7C163.286 47.3 163.072 48.1267 163.072 49.18V54H160.292V43.64H162.732C162.799 44.44 162.859 44.9867 162.912 45.28C163.219 44.6533 163.619 44.18 164.112 43.86C164.606 43.54 165.166 43.38 165.792 43.38ZM172.446 43.38C173.846 43.38 174.939 43.78 175.726 44.58C176.512 45.3667 176.906 46.4933 176.906 47.96V54H174.566C174.552 53.8933 174.532 53.72 174.506 53.48C174.492 53.2267 174.466 53.0067 174.426 52.82C174.119 53.3 173.719 53.66 173.226 53.9C172.746 54.1267 172.159 54.24 171.466 54.24C170.746 54.24 170.086 54.1133 169.486 53.86C168.899 53.6067 168.432 53.24 168.086 52.76C167.739 52.2667 167.566 51.6867 167.566 51.02C167.566 50.3267 167.759 49.7267 168.146 49.22C168.546 48.7 169.079 48.3 169.746 48.02C170.412 47.74 171.146 47.6 171.946 47.6C172.666 47.6 173.406 47.72 174.166 47.96C174.126 46.4267 173.472 45.66 172.206 45.66C171.192 45.66 170.452 46.1133 169.986 47.02L168.006 45.88C168.379 45.1067 168.952 44.5 169.726 44.06C170.499 43.6067 171.406 43.38 172.446 43.38ZM174.166 49.8C173.499 49.64 172.919 49.56 172.426 49.56C171.772 49.56 171.266 49.68 170.906 49.92C170.546 50.1467 170.366 50.4733 170.366 50.9C170.366 51.2867 170.506 51.5867 170.786 51.8C171.079 52.0133 171.452 52.12 171.906 52.12C172.506 52.12 173.032 51.9533 173.486 51.62C173.939 51.2733 174.166 50.8 174.166 50.2V49.8ZM186.555 38.78H189.335V54H186.895C186.828 53.2267 186.775 52.7067 186.735 52.44C186.375 53.04 185.901 53.4933 185.315 53.8C184.741 54.0933 184.115 54.24 183.435 54.24C182.581 54.24 181.801 54.0267 181.095 53.6C180.388 53.1733 179.821 52.5533 179.395 51.74C178.968 50.9133 178.755 49.94 178.755 48.82C178.755 47.6867 178.968 46.7133 179.395 45.9C179.821 45.0733 180.388 44.4467 181.095 44.02C181.801 43.5933 182.581 43.38 183.435 43.38C184.061 43.38 184.641 43.5067 185.175 43.76C185.721 44.0133 186.181 44.4 186.555 44.92V38.78ZM184.075 51.86C184.768 51.86 185.355 51.6067 185.835 51.1C186.315 50.5933 186.555 49.8333 186.555 48.82C186.555 47.82 186.315 47.08 185.835 46.6C185.355 46.1067 184.768 45.86 184.075 45.86C183.341 45.86 182.748 46.12 182.295 46.64C181.855 47.16 181.635 47.8867 181.635 48.82C181.635 49.7533 181.855 50.4933 182.295 51.04C182.748 51.5867 183.341 51.86 184.075 51.86ZM193.293 42.32C192.853 42.32 192.466 42.1533 192.133 41.82C191.813 41.4733 191.653 41.0733 191.653 40.62C191.653 40.1533 191.813 39.7533 192.133 39.42C192.453 39.0867 192.839 38.92 193.293 38.92C193.746 38.92 194.139 39.0933 194.473 39.44C194.806 39.7733 194.973 40.1667 194.973 40.62C194.973 41.0733 194.806 41.4733 194.473 41.82C194.139 42.1533 193.746 42.32 193.293 42.32ZM194.713 54H191.933V43.64H194.713V54ZM203.224 43.38C204.371 43.38 205.278 43.76 205.944 44.52C206.611 45.2667 206.944 46.36 206.944 47.8V54H204.164V48.7C204.164 46.8067 203.538 45.86 202.284 45.86C201.618 45.86 201.078 46.12 200.664 46.64C200.264 47.1467 200.064 47.8667 200.064 48.8V54H197.284V43.64H199.724C199.791 44.4533 199.851 45.0067 199.904 45.3C200.571 44.02 201.678 43.38 203.224 43.38ZM219.335 43.64V52.94C219.335 55.0333 218.808 56.5467 217.755 57.48C216.701 58.4133 215.395 58.88 213.835 58.88C212.701 58.88 211.701 58.64 210.835 58.16C209.981 57.68 209.375 57.0133 209.015 56.16L211.155 54.94C211.675 55.94 212.568 56.44 213.835 56.44C214.821 56.44 215.515 56.1467 215.915 55.56C216.328 54.9867 216.541 54.0533 216.555 52.76C215.861 53.7467 214.861 54.24 213.555 54.24C212.715 54.24 211.928 54.0267 211.195 53.6C210.461 53.16 209.868 52.5333 209.415 51.72C208.975 50.8933 208.755 49.9267 208.755 48.82C208.755 47.7 208.975 46.7333 209.415 45.92C209.868 45.0933 210.461 44.4667 211.195 44.04C211.928 43.6 212.715 43.38 213.555 43.38C214.235 43.38 214.848 43.5267 215.395 43.82C215.941 44.1133 216.388 44.56 216.735 45.16C216.828 44.6133 216.881 44.1067 216.895 43.64H219.335ZM214.075 51.86C214.768 51.86 215.355 51.6067 215.835 51.1C216.315 50.5933 216.555 49.8333 216.555 48.82C216.555 47.82 216.315 47.08 215.835 46.6C215.355 46.1067 214.768 45.86 214.075 45.86C213.341 45.86 212.748 46.12 212.295 46.64C211.855 47.16 211.635 47.8867 211.635 48.82C211.635 49.7533 211.855 50.4933 212.295 51.04C212.748 51.5867 213.341 51.86 214.075 51.86ZM32.16 69.36H43.96V71.94H39.52V84H36.6V71.94H32.16V69.36ZM49.0344 73.38C49.4344 73.38 49.8077 73.44 50.1544 73.56C50.501 73.68 50.7677 73.8333 50.9544 74.02L49.8744 76.16C49.5277 75.92 49.1344 75.8 48.6944 75.8C47.9744 75.8 47.3944 76.1 46.9544 76.7C46.5277 77.3 46.3144 78.1267 46.3144 79.18V84H43.5344V73.64H45.9744C46.041 74.44 46.101 74.9867 46.1544 75.28C46.461 74.6533 46.861 74.18 47.3544 73.86C47.8477 73.54 48.4077 73.38 49.0344 73.38ZM55.6878 73.38C57.0878 73.38 58.1811 73.78 58.9678 74.58C59.7545 75.3667 60.1478 76.4933 60.1478 77.96V84H57.8078C57.7945 83.8933 57.7745 83.72 57.7478 83.48C57.7345 83.2267 57.7078 83.0067 57.6678 82.82C57.3611 83.3 56.9611 83.66 56.4678 83.9C55.9878 84.1267 55.4011 84.24 54.7078 84.24C53.9878 84.24 53.3278 84.1133 52.7278 83.86C52.1411 83.6067 51.6745 83.24 51.3278 82.76C50.9811 82.2667 50.8078 81.6867 50.8078 81.02C50.8078 80.3267 51.0011 79.7267 51.3878 79.22C51.7878 78.7 52.3211 78.3 52.9878 78.02C53.6545 77.74 54.3878 77.6 55.1878 77.6C55.9078 77.6 56.6478 77.72 57.4078 77.96C57.3678 76.4267 56.7145 75.66 55.4478 75.66C54.4345 75.66 53.6945 76.1133 53.2278 77.02L51.2478 75.88C51.6211 75.1067 52.1945 74.5 52.9678 74.06C53.7411 73.6067 54.6478 73.38 55.6878 73.38ZM57.4078 79.8C56.7411 79.64 56.1611 79.56 55.6678 79.56C55.0145 79.56 54.5078 79.68 54.1478 79.92C53.7878 80.1467 53.6078 80.4733 53.6078 80.9C53.6078 81.2867 53.7478 81.5867 54.0278 81.8C54.3211 82.0133 54.6945 82.12 55.1478 82.12C55.7478 82.12 56.2745 81.9533 56.7278 81.62C57.1811 81.2733 57.4078 80.8 57.4078 80.2V79.8ZM69.7969 68.78H72.5769V84H70.1369C70.0702 83.2267 70.0169 82.7067 69.9769 82.44C69.6169 83.04 69.1435 83.4933 68.5569 83.8C67.9835 84.0933 67.3569 84.24 66.6769 84.24C65.8235 84.24 65.0435 84.0267 64.3369 83.6C63.6302 83.1733 63.0635 82.5533 62.6369 81.74C62.2102 80.9133 61.9969 79.94 61.9969 78.82C61.9969 77.6867 62.2102 76.7133 62.6369 75.9C63.0635 75.0733 63.6302 74.4467 64.3369 74.02C65.0435 73.5933 65.8235 73.38 66.6769 73.38C67.3035 73.38 67.8835 73.5067 68.4169 73.76C68.9635 74.0133 69.4235 74.4 69.7969 74.92V68.78ZM67.3169 81.86C68.0102 81.86 68.5969 81.6067 69.0769 81.1C69.5569 80.5933 69.7969 79.8333 69.7969 78.82C69.7969 77.82 69.5569 77.08 69.0769 76.6C68.5969 76.1067 68.0102 75.86 67.3169 75.86C66.5835 75.86 65.9902 76.12 65.5369 76.64C65.0969 77.16 64.8769 77.8867 64.8769 78.82C64.8769 79.7533 65.0969 80.4933 65.5369 81.04C65.9902 81.5867 66.5835 81.86 67.3169 81.86ZM76.535 72.32C76.095 72.32 75.7083 72.1533 75.375 71.82C75.055 71.4733 74.895 71.0733 74.895 70.62C74.895 70.1533 75.055 69.7533 75.375 69.42C75.695 69.0867 76.0817 68.92 76.535 68.92C76.9883 68.92 77.3817 69.0933 77.715 69.44C78.0483 69.7733 78.215 70.1667 78.215 70.62C78.215 71.0733 78.0483 71.4733 77.715 71.82C77.3817 72.1533 76.9883 72.32 76.535 72.32ZM77.955 84H75.175V73.64H77.955V84ZM86.4666 73.38C87.6132 73.38 88.5199 73.76 89.1866 74.52C89.8532 75.2667 90.1866 76.36 90.1866 77.8V84H87.4066V78.7C87.4066 76.8067 86.7799 75.86 85.5266 75.86C84.8599 75.86 84.3199 76.12 83.9066 76.64C83.5066 77.1467 83.3066 77.8667 83.3066 78.8V84H80.5266V73.64H82.9666C83.0332 74.4533 83.0932 75.0067 83.1466 75.3C83.8132 74.02 84.9199 73.38 86.4666 73.38ZM102.577 73.64V82.94C102.577 85.0333 102.05 86.5467 100.997 87.48C99.9435 88.4133 98.6369 88.88 97.0769 88.88C95.9435 88.88 94.9435 88.64 94.0769 88.16C93.2235 87.68 92.6169 87.0133 92.2569 86.16L94.3969 84.94C94.9169 85.94 95.8102 86.44 97.0769 86.44C98.0635 86.44 98.7569 86.1467 99.1569 85.56C99.5702 84.9867 99.7835 84.0533 99.7969 82.76C99.1035 83.7467 98.1035 84.24 96.7969 84.24C95.9569 84.24 95.1702 84.0267 94.4369 83.6C93.7035 83.16 93.1102 82.5333 92.6569 81.72C92.2169 80.8933 91.9969 79.9267 91.9969 78.82C91.9969 77.7 92.2169 76.7333 92.6569 75.92C93.1102 75.0933 93.7035 74.4667 94.4369 74.04C95.1702 73.6 95.9569 73.38 96.7969 73.38C97.4769 73.38 98.0902 73.5267 98.6369 73.82C99.1835 74.1133 99.6302 74.56 99.9769 75.16C100.07 74.6133 100.124 74.1067 100.137 73.64H102.577ZM97.3169 81.86C98.0102 81.86 98.5969 81.6067 99.0769 81.1C99.5569 80.5933 99.7969 79.8333 99.7969 78.82C99.7969 77.82 99.5569 77.08 99.0769 76.6C98.5969 76.1067 98.0102 75.86 97.3169 75.86C96.5835 75.86 95.9902 76.12 95.5369 76.64C95.0969 77.16 94.8769 77.8867 94.8769 78.82C94.8769 79.7533 95.0969 80.4933 95.5369 81.04C95.9902 81.5867 96.5835 81.86 97.3169 81.86ZM111.828 72.32C111.388 72.32 111.001 72.1533 110.668 71.82C110.348 71.4733 110.188 71.0733 110.188 70.62C110.188 70.1533 110.348 69.7533 110.668 69.42C110.988 69.0867 111.375 68.92 111.828 68.92C112.281 68.92 112.675 69.0933 113.008 69.44C113.341 69.7733 113.508 70.1667 113.508 70.62C113.508 71.0733 113.341 71.4733 113.008 71.82C112.675 72.1533 112.281 72.32 111.828 72.32ZM113.248 84H110.468V73.64H113.248V84ZM123.5 80.92C123.5 81.9467 123.1 82.76 122.3 83.36C121.513 83.9467 120.486 84.24 119.22 84.24C118.126 84.24 117.18 84.0067 116.38 83.54C115.593 83.0733 115.06 82.4267 114.78 81.6L116.8 80.42C117 80.9133 117.313 81.3 117.74 81.58C118.166 81.8467 118.666 81.98 119.24 81.98C119.666 81.98 120.006 81.9 120.26 81.74C120.513 81.58 120.64 81.3533 120.64 81.06C120.64 80.7267 120.473 80.4733 120.14 80.3C119.806 80.1133 119.286 79.92 118.58 79.72C117.873 79.5067 117.293 79.3 116.84 79.1C116.4 78.9 116.013 78.6133 115.68 78.24C115.36 77.8533 115.2 77.3533 115.2 76.74C115.2 76.0467 115.386 75.4467 115.76 74.94C116.146 74.4333 116.66 74.0467 117.3 73.78C117.94 73.5133 118.64 73.38 119.4 73.38C120.44 73.38 121.32 73.6067 122.04 74.06C122.76 74.5 123.213 75.0867 123.4 75.82L121.38 76.96C120.98 76.0933 120.306 75.66 119.36 75.66C118.96 75.66 118.64 75.74 118.4 75.9C118.16 76.0467 118.04 76.26 118.04 76.54C118.04 76.86 118.2 77.1067 118.52 77.28C118.84 77.44 119.34 77.6133 120.02 77.8C120.74 78 121.333 78.2 121.8 78.4C122.266 78.6 122.666 78.9067 123 79.32C123.333 79.72 123.5 80.2533 123.5 80.92ZM138.246 80.92C138.246 81.9467 137.846 82.76 137.046 83.36C136.259 83.9467 135.232 84.24 133.966 84.24C132.872 84.24 131.926 84.0067 131.126 83.54C130.339 83.0733 129.806 82.4267 129.526 81.6L131.546 80.42C131.746 80.9133 132.059 81.3 132.486 81.58C132.912 81.8467 133.412 81.98 133.986 81.98C134.412 81.98 134.752 81.9 135.006 81.74C135.259 81.58 135.386 81.3533 135.386 81.06C135.386 80.7267 135.219 80.4733 134.886 80.3C134.552 80.1133 134.032 79.92 133.326 79.72C132.619 79.5067 132.039 79.3 131.586 79.1C131.146 78.9 130.759 78.6133 130.426 78.24C130.106 77.8533 129.946 77.3533 129.946 76.74C129.946 76.0467 130.132 75.4467 130.506 74.94C130.892 74.4333 131.406 74.0467 132.046 73.78C132.686 73.5133 133.386 73.38 134.146 73.38C135.186 73.38 136.066 73.6067 136.786 74.06C137.506 74.5 137.959 75.0867 138.146 75.82L136.126 76.96C135.726 76.0933 135.052 75.66 134.106 75.66C133.706 75.66 133.386 75.74 133.146 75.9C132.906 76.0467 132.786 76.26 132.786 76.54C132.786 76.86 132.946 77.1067 133.266 77.28C133.586 77.44 134.086 77.6133 134.766 77.8C135.486 78 136.079 78.2 136.546 78.4C137.012 78.6 137.412 78.9067 137.746 79.32C138.079 79.72 138.246 80.2533 138.246 80.92ZM139.321 78.82C139.321 77.74 139.561 76.7867 140.041 75.96C140.534 75.1333 141.188 74.5 142.001 74.06C142.814 73.6067 143.694 73.38 144.641 73.38C145.574 73.38 146.441 73.6067 147.241 74.06C148.054 74.5 148.701 75.1333 149.181 75.96C149.674 76.7867 149.921 77.74 149.921 78.82C149.921 79.9 149.674 80.8533 149.181 81.68C148.701 82.5067 148.054 83.14 147.241 83.58C146.441 84.02 145.574 84.24 144.641 84.24C143.694 84.24 142.814 84.02 142.001 83.58C141.188 83.14 140.534 82.5067 140.041 81.68C139.561 80.8533 139.321 79.9 139.321 78.82ZM142.201 78.82C142.201 79.74 142.428 80.4733 142.881 81.02C143.348 81.5533 143.928 81.82 144.621 81.82C145.314 81.82 145.888 81.5533 146.341 81.02C146.794 80.4733 147.021 79.74 147.021 78.82C147.021 77.9 146.794 77.1667 146.341 76.62C145.888 76.0733 145.314 75.8 144.621 75.8C143.928 75.8 143.348 76.0733 142.881 76.62C142.428 77.1667 142.201 77.9 142.201 78.82ZM165.003 80.92C165.003 81.9467 164.603 82.76 163.803 83.36C163.017 83.9467 161.99 84.24 160.723 84.24C159.63 84.24 158.683 84.0067 157.883 83.54C157.097 83.0733 156.563 82.4267 156.283 81.6L158.303 80.42C158.503 80.9133 158.817 81.3 159.243 81.58C159.67 81.8467 160.17 81.98 160.743 81.98C161.17 81.98 161.51 81.9 161.763 81.74C162.017 81.58 162.143 81.3533 162.143 81.06C162.143 80.7267 161.977 80.4733 161.643 80.3C161.31 80.1133 160.79 79.92 160.083 79.72C159.377 79.5067 158.797 79.3 158.343 79.1C157.903 78.9 157.517 78.6133 157.183 78.24C156.863 77.8533 156.703 77.3533 156.703 76.74C156.703 76.0467 156.89 75.4467 157.263 74.94C157.65 74.4333 158.163 74.0467 158.803 73.78C159.443 73.5133 160.143 73.38 160.903 73.38C161.943 73.38 162.823 73.6067 163.543 74.06C164.263 74.5 164.717 75.0867 164.903 75.82L162.883 76.96C162.483 76.0933 161.81 75.66 160.863 75.66C160.463 75.66 160.143 75.74 159.903 75.9C159.663 76.0467 159.543 76.26 159.543 76.54C159.543 76.86 159.703 77.1067 160.023 77.28C160.343 77.44 160.843 77.6133 161.523 77.8C162.243 78 162.837 78.2 163.303 78.4C163.77 78.6 164.17 78.9067 164.503 79.32C164.837 79.72 165.003 80.2533 165.003 80.92ZM168.039 72.32C167.599 72.32 167.212 72.1533 166.879 71.82C166.559 71.4733 166.399 71.0733 166.399 70.62C166.399 70.1533 166.559 69.7533 166.879 69.42C167.199 69.0867 167.586 68.92 168.039 68.92C168.492 68.92 168.886 69.0933 169.219 69.44C169.552 69.7733 169.719 70.1667 169.719 70.62C169.719 71.0733 169.552 71.4733 169.219 71.82C168.886 72.1533 168.492 72.32 168.039 72.32ZM169.459 84H166.679V73.64H169.459V84ZM183.69 73.38C184.69 73.38 185.504 73.76 186.13 74.52C186.757 75.2667 187.07 76.3467 187.07 77.76V84H184.35V78.7C184.35 76.8067 183.824 75.86 182.77 75.86C182.197 75.86 181.737 76.12 181.39 76.64C181.057 77.16 180.89 77.88 180.89 78.8V84H178.19V78.7C178.19 76.8067 177.664 75.86 176.61 75.86C176.037 75.86 175.584 76.12 175.25 76.64C174.917 77.16 174.75 77.88 174.75 78.8V84H172.03V73.64H174.41C174.477 74.4 174.53 74.9067 174.57 75.16C175.25 73.9733 176.237 73.38 177.53 73.38C178.224 73.38 178.83 73.56 179.35 73.92C179.87 74.28 180.264 74.8133 180.53 75.52C180.864 74.7867 181.304 74.2467 181.85 73.9C182.397 73.5533 183.01 73.38 183.69 73.38ZM195.431 73.38C196.271 73.38 197.044 73.5933 197.751 74.02C198.471 74.4467 199.038 75.0733 199.451 75.9C199.878 76.7267 200.091 77.7 200.091 78.82C200.091 79.94 199.878 80.9133 199.451 81.74C199.038 82.5533 198.471 83.1733 197.751 83.6C197.044 84.0267 196.271 84.24 195.431 84.24C194.791 84.24 194.198 84.1133 193.651 83.86C193.104 83.6067 192.651 83.22 192.291 82.7V88.64H189.511V73.64H191.951L192.011 74.32C192.024 74.4533 192.038 74.5933 192.051 74.74C192.064 74.8867 192.084 75.04 192.111 75.2C192.471 74.5867 192.938 74.1333 193.511 73.84C194.098 73.5333 194.738 73.38 195.431 73.38ZM194.791 81.78C195.511 81.78 196.091 81.52 196.531 81C196.984 80.4667 197.211 79.74 197.211 78.82C197.211 77.8733 196.991 77.1267 196.551 76.58C196.111 76.0333 195.524 75.76 194.791 75.76C194.098 75.76 193.504 76.02 193.011 76.54C192.531 77.0467 192.291 77.8067 192.291 78.82C192.291 79.82 192.531 80.5667 193.011 81.06C193.491 81.54 194.084 81.78 194.791 81.78ZM204.889 84H202.109V68.78H204.889V84ZM212.06 73.38C212.98 73.38 213.793 73.5867 214.5 74C215.22 74.4 215.773 74.9733 216.16 75.72C216.56 76.4533 216.76 77.3 216.76 78.26C216.76 78.6867 216.72 79.12 216.64 79.56H209.76C209.88 80.3333 210.16 80.92 210.6 81.32C211.04 81.7067 211.587 81.9 212.24 81.9C212.707 81.9 213.12 81.8 213.48 81.6C213.853 81.3867 214.14 81.0733 214.34 80.66L216.38 81.86C216.1 82.62 215.56 83.2067 214.76 83.62C213.973 84.0333 213.093 84.24 212.12 84.24C211.187 84.24 210.32 84.0333 209.52 83.62C208.72 83.2067 208.073 82.5867 207.58 81.76C207.1 80.9333 206.86 79.94 206.86 78.78C206.86 77.6333 207.1 76.6533 207.58 75.84C208.073 75.0267 208.713 74.4133 209.5 74C210.287 73.5867 211.14 73.38 212.06 73.38ZM211.98 75.64C211.433 75.64 210.967 75.8133 210.58 76.16C210.193 76.5067 209.933 76.9933 209.8 77.62H213.92C213.867 76.98 213.66 76.4933 213.3 76.16C212.953 75.8133 212.513 75.64 211.98 75.64Z" fill="white"/>
<defs>
<linearGradient id="paint0_linear_3849_2908" x1="281.659" y1="58.9153" x2="268.708" y2="116.196" gradientUnits="userSpaceOnUse">
<stop stop-color="#33F39A"/>
<stop offset="0.31638" stop-color="#7FE2B3"/>
<stop offset="0.655" stop-color="white"/>
<stop offset="1" stop-color="#EEEEEE"/>
</linearGradient>
<linearGradient id="paint1_linear_3849_2908" x1="264.528" y1="63.3848" x2="250.093" y2="93.4719" gradientUnits="userSpaceOnUse">
<stop stop-color="#006647"/>
<stop offset="1" stop-color="#07828B"/>
</linearGradient>
<linearGradient id="paint2_linear_3849_2908" x1="388.407" y1="76.1648" x2="385.917" y2="94.6925" gradientUnits="userSpaceOnUse">
<stop stop-color="#006647"/>
<stop offset="1" stop-color="#07828B"/>
</linearGradient>
<linearGradient id="paint3_linear_3849_2908" x1="231.795" y1="109.032" x2="323.339" y2="150.345" gradientUnits="userSpaceOnUse">
<stop stop-color="white"/>
<stop offset="0.436664" stop-color="#006647"/>
<stop offset="1" stop-color="#07828B"/>
</linearGradient>
<linearGradient id="paint4_linear_3849_2908" x1="246.733" y1="113.892" x2="373.2" y2="129.2" gradientUnits="userSpaceOnUse">
<stop stop-color="white"/>
<stop offset="0.28" stop-color="#006647"/>
<stop offset="1" stop-color="#07828B"/>
</linearGradient>
<linearGradient id="paint5_linear_3849_2908" x1="395.748" y1="74.8006" x2="344.894" y2="195.55" gradientUnits="userSpaceOnUse">
<stop stop-color="#33F39A"/>
<stop offset="0.31638" stop-color="#509775"/>
<stop offset="0.655" stop-color="white"/>
<stop offset="1"/>
</linearGradient>
<linearGradient id="paint6_linear_3849_2908" x1="330.644" y1="72.9563" x2="296.245" y2="140.712" gradientUnits="userSpaceOnUse">
<stop stop-color="#006647"/>
<stop offset="1" stop-color="#07828B"/>
</linearGradient>
<linearGradient id="paint7_linear_3849_2908" x1="368.809" y1="151.882" x2="371.491" y2="190.87" gradientUnits="userSpaceOnUse">
<stop stop-color="#07828B" stop-opacity="0.5"/>
<stop offset="1" stop-color="#07828B" stop-opacity="0.2"/>
</linearGradient>
<linearGradient id="paint8_linear_3849_2908" x1="412.603" y1="100.117" x2="412.194" y2="149.573" gradientUnits="userSpaceOnUse">
<stop stop-color="#07828B"/>
<stop offset="0.265" stop-color="#5AB8DB"/>
<stop offset="0.765" stop-color="#07828B"/>
</linearGradient>
<linearGradient id="paint9_linear_3849_2908" x1="381.078" y1="160.518" x2="375.166" y2="122.504" gradientUnits="userSpaceOnUse">
<stop stop-color="#07828B"/>
<stop offset="1" stop-color="white"/>
</linearGradient>
</defs>
</svg>
