<svg width="80" height="80" viewBox="0 0 80 80" fill="none" xmlns="http://www.w3.org/2000/svg">
<circle cx="40" cy="40" r="39.5" fill="white" stroke="#07828B"/>
<path d="M44.3948 47.4613C43.6578 48.9902 42.5914 50.253 41.3215 51.2058C41.2821 51.2374 41.2414 51.2678 41.1994 51.2962C41.1348 51.3433 41.0689 51.3899 41.0024 51.4357C40.7104 51.6385 40.4062 51.8259 40.0968 51.9964C38.0266 53.1332 35.5862 53.5415 33.2028 53.0738C33.4159 52.2425 33.6917 51.417 34.0334 50.6038C34.1529 50.3157 34.2808 50.0321 34.4178 49.7485C34.4752 49.6284 34.534 49.5108 34.5941 49.3939C35.4273 47.7545 36.4822 46.3006 37.7023 45.0462C38.077 44.6605 38.4671 44.2949 38.8721 43.9481C39.095 43.7569 39.323 43.5715 39.5549 43.3932C41.2233 42.0994 43.103 41.1208 45.095 40.4897C45.4684 41.9528 45.5213 43.505 45.2152 45.0313C45.0479 45.8536 44.7779 46.67 44.3968 47.4626H44.3955L44.3948 47.4613Z" fill="url(#paint0_linear_3850_3058)"/>
<path d="M36.333 59.1227C35.3952 60.3564 34.569 61.707 33.8811 63.1655L33.8204 63.2941C33.2184 61.5933 32.8715 59.8022 32.8043 57.9819C33.9644 58.467 35.1439 58.8449 36.333 59.1227Z" fill="url(#paint1_linear_3850_3058)"/>
<path fill-rule="evenodd" clip-rule="evenodd" d="M33.2496 61.3605C33.4034 62.0284 33.5952 62.6872 33.8239 63.3325L33.8846 63.204C34.5725 61.7455 35.3987 60.3948 36.3365 59.1611C35.845 59.0461 35.3547 58.9143 34.867 58.7651C34.296 59.601 33.756 60.4659 33.2496 61.3605Z" fill="url(#paint2_linear_3850_3058)"/>
<path d="M63.4808 35.644C63.7321 38.552 63.4569 41.4167 62.5003 44.3189C62.2135 45.187 61.8718 46.0481 61.4719 46.8955H61.47C60.7885 48.3411 59.9721 49.6789 59.0445 50.9016C59.0348 50.9145 59.0264 50.9262 59.0168 50.9384C56.756 53.9091 53.8319 56.2021 50.5583 57.7071C50.3303 57.8124 50.101 57.9138 49.8684 58.0114C45.6078 59.8019 40.8086 60.2799 36.1385 59.2012C36.1178 59.1967 36.0978 59.1921 36.0778 59.1863C37.8502 56.859 40.0289 54.9458 42.4654 53.5041L42.5377 53.4601C44.2081 52.4783 45.996 51.7168 47.857 51.1936C47.8667 51.191 47.8751 51.1884 47.8848 51.1858C52.7357 49.7913 57.0977 46.7773 60.1058 42.4541C60.8144 41.4355 61.4487 40.3445 61.9951 39.1857" fill="url(#paint3_linear_3850_3058)"/>
<path fill-rule="evenodd" clip-rule="evenodd" d="M18.9606 39.149C19.1544 45.027 23.1217 53.6392 31.7604 57.7138C32.0788 57.8636 32.3979 58.0057 32.7189 58.1382C33.879 58.6233 35.0585 59.0011 36.2477 59.2789C38.0201 56.9516 40.1988 55.0383 42.6353 53.5966L42.7076 53.5527C44.378 52.5709 46.1659 51.8093 48.0269 51.2861C48.032 51.2848 48.0366 51.2835 48.0411 51.2822C48.0456 51.2809 48.0501 51.2797 48.0553 51.2784C52.9062 49.8838 57.2682 46.8699 60.2763 42.5466C60.9849 41.528 61.6192 40.437 62.1657 39.2782C62.6721 38.2047 63.0894 37.1144 63.411 36.0111C63.5409 35.5654 63.4362 35.0823 63.1268 34.7354C61.9209 33.3841 60.4288 32.2492 58.6886 31.4282C52.6614 28.5848 45.6214 30.4432 41.7174 35.5183C41.2614 36.1073 40.8073 36.7643 40.3332 37.4502C37.929 40.9273 35.8194 44.5103 28.7032 45.1562C22.8672 45.6859 21.0921 40.6993 21.2213 38.8907L18.9606 39.149ZM40.1129 52.0864C38.0517 53.2401 35.6146 53.6683 33.2279 53.22H33.2266C33.4327 52.3861 33.702 51.558 34.0373 50.7422C34.1548 50.4535 34.2801 50.1686 34.4145 49.8838C34.4713 49.7636 34.5288 49.6454 34.5876 49.5279C35.4073 47.882 36.4498 46.4197 37.6603 45.1549C38.0324 44.7667 38.4193 44.3972 38.821 44.0471C39.042 43.854 39.2687 43.6667 39.4986 43.4865C41.1567 42.1791 43.0287 41.185 45.0149 40.5378C45.4005 41.9983 45.4658 43.5491 45.1719 45.0781C45.0117 45.9016 44.7481 46.7207 44.3735 47.5158C43.6494 49.0512 42.5926 50.3224 41.3305 51.2855C41.2911 51.3171 41.251 51.3481 41.2097 51.3772C41.1458 51.425 41.0805 51.4715 41.0133 51.518C40.7227 51.7234 40.4204 51.9127 40.1123 52.0858L40.1129 52.0864Z" fill="url(#paint4_linear_3850_3058)"/>
<path d="M19.6017 35.8592C19.9537 36.3159 20.2637 36.8158 20.5253 37.3552C20.816 37.9546 21.0298 38.5708 21.1732 39.1935C21.1745 39.1961 21.1751 39.198 21.1764 39.2006C21.179 39.22 21.1848 39.24 21.1894 39.2587C21.2384 39.4855 21.2791 39.7128 21.3095 39.9408C21.3147 39.9731 21.3179 40.0048 21.3231 40.0371C21.0899 40.1798 20.8489 40.3103 20.5983 40.4318C20.3477 40.5532 20.0796 40.6675 19.8161 40.7657C19.7547 40.7864 19.6934 40.8096 19.632 40.8303C18.3305 41.2766 16.9798 41.391 15.6802 41.2107C12.9395 40.8284 10.4359 39.1321 9.13884 36.4573C8.71705 35.5873 8.45609 34.683 8.34241 33.7748C8.57623 33.6333 8.81781 33.5009 9.06844 33.3795C10.423 32.7232 11.866 32.4545 13.2702 32.532C13.4001 32.5385 13.5312 32.5501 13.661 32.5637C15.8552 32.7833 17.9261 33.8484 19.3794 35.5847C19.4563 35.6745 19.5287 35.7662 19.6017 35.8598V35.8592Z" fill="url(#paint5_linear_3850_3058)"/>
<path d="M30.0947 29.6673L30.1787 29.6893C30.74 32.4752 29.8699 35.3606 27.905 37.372C27.2313 38.0619 26.4277 38.6497 25.5099 39.0947C24.2031 39.7277 22.8176 39.9997 21.4618 39.9512C21.4308 39.9486 21.3236 39.9738 21.2932 39.9726C21.2254 39.833 21.2396 39.49 21.1873 39.2601C21.1834 39.2414 21.1776 39.2213 21.175 39.202C21.1737 39.1994 21.1731 39.1974 21.1718 39.1948C21.0284 38.5722 20.8146 37.9559 20.5239 37.3565C20.2623 36.8172 19.9523 36.3172 19.6002 35.8605C20.0769 33.9777 21.1879 32.2679 22.8144 31.069C23.2323 30.7583 23.6864 30.4832 24.1734 30.2467C24.4311 30.1221 24.6921 30.011 24.9556 29.9128C25.1359 29.8463 25.3167 29.7862 25.4995 29.7326C27.0297 29.2811 28.6168 29.2804 30.0927 29.6686H30.094L30.0947 29.6673Z" fill="url(#paint6_linear_3850_3058)"/>
<path fill-rule="evenodd" clip-rule="evenodd" d="M21.2736 40.07C20.3861 40.099 19.5024 40.0512 18.6317 39.9292C14.594 39.362 10.8411 37.2053 8.33362 33.7935C8.4473 34.6984 8.70826 35.6001 9.12876 36.467C10.4251 39.1418 12.9288 40.8386 15.6695 41.2204C16.9684 41.4006 18.3197 41.2863 19.6213 40.8399C19.6516 40.8296 19.6826 40.8186 19.7137 40.8076C19.7447 40.7967 19.775 40.7857 19.806 40.7753C20.0696 40.6772 20.3376 40.5628 20.5882 40.4414C20.8253 40.3264 21.0533 40.2037 21.2742 40.07H21.2736Z" fill="url(#paint7_linear_3850_3058)"/>
<path fill-rule="evenodd" clip-rule="evenodd" d="M30.1917 29.7145L30.1077 29.6925H30.1064C28.6298 29.3049 27.0428 29.3056 25.5132 29.7571C25.3304 29.8107 25.1495 29.8708 24.9693 29.9373C24.7058 30.0355 24.4448 30.1466 24.1871 30.2713C23.7001 30.5077 23.246 30.7828 22.8281 31.0935C21.2009 32.2924 20.0899 34.0028 19.6139 35.8851C19.9659 36.3417 20.276 36.8417 20.5376 37.381C20.5453 37.3978 20.5537 37.414 20.5615 37.4308C21.4141 35.3237 22.8358 33.4428 24.7381 32.0392C25.3524 31.5825 26.0196 31.1768 26.7353 30.83C27.1138 30.6465 27.4975 30.4838 27.8851 30.3391C28.1499 30.2415 28.416 30.1537 28.6847 30.0742C29.1853 29.927 29.6898 29.8126 30.1956 29.73C30.1943 29.7241 30.1936 29.719 30.1923 29.7132L30.1917 29.7145Z" fill="url(#paint8_linear_3850_3058)"/>
<path fill-rule="evenodd" clip-rule="evenodd" d="M40.2185 47.9151C41.9935 46.5832 43.4837 44.8185 44.514 42.6811H44.5159C44.7717 42.1508 44.9913 41.6121 45.1767 41.0688C45.4699 42.4234 45.4913 43.8438 45.2103 45.2435C45.043 46.0658 44.773 46.8822 44.3919 47.6741H44.3906C43.6542 49.2024 42.5871 50.4652 41.3172 51.418C41.2778 51.449 41.2371 51.48 41.1952 51.5084C41.1306 51.5556 41.0647 51.6021 40.9975 51.6479C40.7055 51.8507 40.4013 52.0381 40.0919 52.2086C38.0217 53.3454 35.5814 53.7537 33.1979 53.286C33.411 52.4547 33.6868 51.6292 34.0285 50.816C34.0634 50.7326 34.0983 50.65 34.1345 50.5673C35.6647 50.2921 37.1432 49.7696 38.5068 49.0209C38.9396 48.7826 39.3639 48.521 39.7722 48.2374C39.8658 48.1735 39.9582 48.1082 40.048 48.0423C40.1061 48.0023 40.163 47.9597 40.2179 47.9157L40.2185 47.9151Z" fill="url(#paint9_linear_3850_3058)"/>
<path d="M51.8176 28.8845C51.8176 28.8845 52.6987 24.7802 55.4775 24.0536C58.0031 23.3934 58.3874 26.3318 56.823 26.8776C55.2592 27.4221 53.4932 26.8349 51.8176 28.8845ZM50.1214 29.4762C50.1214 29.4762 51.8028 26.1909 50.8365 24.3804C49.7668 22.3741 47.5125 23.6253 47.7528 25.0225C47.9931 26.4196 50.3623 27.4072 50.1214 29.4768V29.4762Z" fill="url(#paint10_linear_3850_3058)"/>
<path d="M56.051 38.7593C56.8707 39.1456 57.848 38.7962 58.2336 37.9784C58.6192 37.1607 58.2678 36.184 57.4481 35.7977C56.6284 35.4108 55.6511 35.7609 55.2655 36.5787C54.8799 37.3964 55.2313 38.3731 56.051 38.7593Z" fill="white"/>
<path d="M56.9547 39.1678C56.6575 39.2465 56.3362 39.231 56.0356 39.1436C55.7351 39.0562 55.454 38.8969 55.2167 38.6757C55.1037 38.5674 55.0009 38.437 54.9094 38.3119C54.8233 38.1754 54.7534 38.0336 54.7111 37.891C54.6579 37.7431 54.6371 37.5831 54.623 37.4399C54.6136 37.2852 54.621 37.1245 54.6505 36.9746C54.66 37.1292 54.6741 37.2724 54.7111 37.4264C54.742 37.5636 54.7951 37.7122 54.8428 37.8433C54.9598 38.1169 55.1205 38.357 55.3411 38.5567C55.5502 38.751 55.803 38.911 56.0827 39.0159C56.351 39.1147 56.6508 39.1746 56.9554 39.1678H56.9547ZM56.7429 35.1209C57.3171 35.0637 57.9155 35.3327 58.3028 35.7885C58.3996 35.9022 58.4796 36.0225 58.5496 36.1644C58.6081 36.3016 58.6666 36.438 58.6975 36.5759C58.7708 36.8563 58.7614 37.1655 58.6901 37.4325C58.6887 37.1454 58.6545 36.8697 58.5597 36.6061C58.4763 36.3479 58.3317 36.1025 58.1556 35.8968C57.9841 35.6796 57.7589 35.5189 57.5235 35.3804C57.299 35.2473 57.0368 35.1646 56.7429 35.1216V35.1209Z" fill="white"/>
<path fill-rule="evenodd" clip-rule="evenodd" d="M57.1206 37.1812C57.4016 37.3137 57.7271 37.2411 57.9268 37.0239C57.9597 37.2565 57.9274 37.5013 57.8198 37.7299C57.5435 38.3148 56.8705 38.5858 56.2727 38.3727C56.3494 38.3357 56.4139 38.2738 56.4529 38.1911C56.543 38.0002 56.461 37.7716 56.2694 37.6815C56.0778 37.5914 55.8492 37.6727 55.7591 37.8644C55.7402 37.9047 55.7288 37.9464 55.7241 37.9887C55.4276 37.6277 55.3462 37.114 55.5587 36.6642C55.8202 36.1088 56.4402 35.8372 57.0137 35.9925C56.9196 36.0591 56.8416 36.1498 56.7891 36.2614C56.6264 36.607 56.7743 37.0192 57.1206 37.1826V37.1812Z" fill="#07828B"/>
<path d="M54.6143 35.987C54.8039 35.9319 55.2591 35.8579 55.5609 36.0005" stroke="white" stroke-width="0.516746" stroke-linecap="round"/>
<path d="M55.717 34.6689C55.6706 34.9029 55.6054 35.4623 55.7117 35.8308" stroke="white" stroke-width="0.516746" stroke-linecap="round"/>
<defs>
<linearGradient id="paint0_linear_3850_3058" x1="30.5538" y1="47.6208" x2="44.6197" y2="39.8582" gradientUnits="userSpaceOnUse">
<stop stop-color="#07828B"/>
<stop offset="1" stop-color="#5AB8DB"/>
</linearGradient>
<linearGradient id="paint1_linear_3850_3058" x1="34.2351" y1="57.9555" x2="33.9151" y2="61.8568" gradientUnits="userSpaceOnUse">
<stop stop-color="#07828B"/>
<stop offset="1" stop-color="#5AB8DB"/>
</linearGradient>
<linearGradient id="paint2_linear_3850_3058" x1="33.2664" y1="61.2171" x2="34.9301" y2="59.5033" gradientUnits="userSpaceOnUse">
<stop stop-color="#07828B"/>
<stop offset="1" stop-color="#5AB8DB"/>
</linearGradient>
<linearGradient id="paint3_linear_3850_3058" x1="39.5968" y1="57.1801" x2="63.0963" y2="35.1744" gradientUnits="userSpaceOnUse">
<stop stop-color="#07828B"/>
<stop offset="1" stop-color="#5AB8DB"/>
</linearGradient>
<linearGradient id="paint4_linear_3850_3058" x1="30.5538" y1="49.6874" x2="64.7221" y2="38.8111" gradientUnits="userSpaceOnUse">
<stop stop-color="#07828B"/>
<stop offset="1" stop-color="#5AB8DB"/>
</linearGradient>
<linearGradient id="paint5_linear_3850_3058" x1="8.33339" y1="34.0558" x2="22.5441" y2="41.916" gradientUnits="userSpaceOnUse">
<stop stop-color="#07828B"/>
<stop offset="1" stop-color="#5AB8DB"/>
</linearGradient>
<linearGradient id="paint6_linear_3850_3058" x1="21.1227" y1="38.9649" x2="29.6623" y2="29.5479" gradientUnits="userSpaceOnUse">
<stop stop-color="#07828B"/>
<stop offset="1" stop-color="#5AB8DB"/>
</linearGradient>
<linearGradient id="paint7_linear_3850_3058" x1="8.89603" y1="35.1511" x2="23.3006" y2="46.2096" gradientUnits="userSpaceOnUse">
<stop stop-color="#5AB8DB"/>
<stop offset="1" stop-color="#07828B"/>
</linearGradient>
<linearGradient id="paint8_linear_3850_3058" x1="20.0738" y1="30.86" x2="29.6696" y2="33.4143" gradientUnits="userSpaceOnUse">
<stop stop-color="#5AB8DB"/>
<stop offset="1" stop-color="#07828B"/>
</linearGradient>
<linearGradient id="paint9_linear_3850_3058" x1="46.9601" y1="37.0272" x2="38.8133" y2="51.5694" gradientUnits="userSpaceOnUse">
<stop stop-color="#5AB8DB"/>
<stop offset="1" stop-color="#07828B"/>
</linearGradient>
<linearGradient id="paint10_linear_3850_3058" x1="46.4431" y1="28.6301" x2="52.9569" y2="20.0711" gradientUnits="userSpaceOnUse">
<stop stop-color="#07828B"/>
<stop offset="1" stop-color="#5AB8DB"/>
</linearGradient>
</defs>
</svg>
