<svg width="320" height="320" viewBox="0 0 320 320" fill="none" xmlns="http://www.w3.org/2000/svg">
<path d="M15.8831 94.2453L15.8829 94.2448C6.68269 83.0486 6.32883 68.4232 14.749 61.442L14.7503 61.4409C15.5493 60.7732 17.0503 59.7344 18.3689 58.8523C19.0246 58.4136 19.6294 58.0175 20.0704 57.731C20.2909 57.5878 20.4702 57.4721 20.5944 57.3921C20.6157 57.3785 20.6353 57.3659 20.6532 57.3544C20.6698 57.3567 20.6878 57.3593 20.707 57.3621C20.8457 57.3821 21.0508 57.4128 21.3151 57.4551C21.8438 57.5398 22.6088 57.6711 23.551 57.8571C25.4359 58.2293 28.0269 58.8201 30.8515 59.694C36.5229 61.4488 43.0464 64.3186 46.7414 68.7793C48.5942 71.0408 49.8294 74.0691 50.6316 77.3711C51.4329 80.6697 51.7947 84.2126 51.9196 87.4776C52.044 90.741 51.9316 93.7158 51.7876 95.8758C51.7156 96.9556 51.6356 97.8306 51.5742 98.4348C51.5431 98.7367 51.5169 98.9714 51.4982 99.1299C51.4965 99.1455 51.4947 99.1606 51.4929 99.1748L51.4836 99.1811L51.0236 99.4905C50.6422 99.747 50.132 100.09 49.6174 100.437C48.6009 101.122 47.5334 101.842 47.4462 101.909L47.4449 101.91C38.9377 108.459 24.9207 105.259 15.8831 94.2453Z" fill="url(#paint0_linear_1353_4176)" stroke="#07828B" stroke-width="0.869125"/>
<path d="M53.0071 98.6005C61.7049 91.4232 61.236 76.4602 51.9595 65.1801C42.6834 53.8999 28.1124 50.5741 19.4146 57.7517C10.7168 64.9293 11.1857 79.8922 20.4621 91.1725C29.7385 102.453 44.3094 105.778 53.0071 98.6005Z" fill="url(#paint1_linear_1353_4176)" stroke="#07828B" stroke-width="0.848505" stroke-miterlimit="10" stroke-linejoin="round"/>
<path d="M26.3145 79.1201L22.4827 75.2397L35.1763 62.6582L39.0081 66.5386L34.3283 71.1772L36.8316 73.7123C40.8473 70.1554 44.6386 68.2547 45.7506 69.3808C46.8626 70.507 44.9248 74.2847 41.3321 78.2692L49.3662 86.405L46.0324 89.7098L37.9964 81.5721C33.9922 85.1106 30.2172 86.9986 29.1085 85.876C27.9999 84.7531 29.9244 80.9914 33.4992 77.018L30.9941 74.4812L26.3145 79.1201ZM30.3151 84.2266C31.0466 84.9672 33.8749 83.3931 37.0366 80.6007L37.2402 80.4194L37.2617 80.3981L37.4511 80.2268L37.4707 80.2074C37.6112 80.0797 37.7525 79.9493 37.8943 79.8162L37.9032 79.8075L38.0932 79.6286L38.1457 79.5766L38.2945 79.4339L39.2208 78.5158L39.3632 78.37L39.4134 78.3201L39.5819 78.1443L39.6009 78.1254C39.8004 77.9167 39.9944 77.7087 40.1837 77.5019L40.1862 77.4995L40.3736 77.2925C43.2123 74.1431 44.8257 71.3098 44.0909 70.5656C43.356 69.8214 40.5124 71.4095 37.3371 74.2174L39.6612 76.5711C39.1733 77.1224 38.6363 77.6909 38.0605 78.2617C37.4755 78.8415 36.8906 79.3836 36.3248 79.8739L34.0092 77.5289C31.1854 80.6684 29.5836 83.4859 30.3151 84.2266Z" fill="white"/>
<path d="M216.341 81.7915L216.341 81.7915C216.394 81.6797 216.436 81.6408 216.459 81.6223C216.489 81.5985 216.51 81.5873 216.564 81.5588C216.588 81.5464 216.618 81.5308 216.657 81.5093C216.776 81.4447 216.928 81.351 217.076 81.1788C217.206 81.0269 217.314 80.8353 217.408 80.5897C219.231 78.1374 222.063 76.8637 225.457 76.6852C228.884 76.5051 232.858 77.446 236.84 79.4032L237.06 78.9544L236.84 79.4032C244.406 83.1217 248.987 89.4093 247.975 95.1589C247.916 95.3227 247.86 95.4833 247.804 95.6409C247.531 96.4191 247.283 97.124 246.959 97.7843L246.959 97.7843C245.446 100.874 242.316 103.017 238.449 103.856C234.585 104.695 230.021 104.221 225.724 102.109C217.079 97.86 212.684 89.4846 216.341 81.7915Z" fill="white" stroke="#07828B"/>
<path d="M227.396 99.5496C218.639 95.2456 214.077 86.5748 217.207 80.1826C220.337 73.7905 229.973 72.0977 238.731 76.4017C247.488 80.7057 252.05 89.3765 248.92 95.7687C245.79 102.161 236.153 103.854 227.396 99.5496Z" fill="url(#paint2_linear_1353_4176)" stroke="#07828B" stroke-width="0.848505" stroke-miterlimit="10" stroke-linejoin="round"/>
<path d="M241.355 85.0118C240.817 84.2795 237.498 85.23 234.608 86.2541L233.582 84.8764L238.202 82.9756L236.579 80.7932L224.211 85.8667L225.834 88.049L230.505 86.1299L231.531 87.5075C228.744 88.7574 225.672 90.4441 226.24 91.2126C226.807 91.9811 230.355 90.941 233.265 89.8625L236.651 94.423L239.727 93.1562L236.34 88.5958C239.047 87.3281 241.879 85.7456 241.341 85.0131L241.355 85.0118ZM234.494 88.9854C230.101 90.7834 226.919 91.4045 226.658 91.0505C226.413 90.7215 228.305 89.3678 231.759 87.7992L232.894 89.3362L234.325 88.7534C234.895 88.5232 235.464 88.2801 236.004 88.0133L234.899 86.5128C238.358 85.2585 240.795 84.8337 241.026 85.1512C241.237 85.5363 238.836 87.2056 234.507 88.984L234.494 88.9854Z" fill="white"/>
<path d="M55 199.98L63.3222 215.154L91.1635 235.006L159.599 260.616L183.967 279.268C198.875 270.571 207.018 256.237 205.103 233.686C205.103 233.686 183.428 217.733 183.308 213.954C179.536 208.077 181.452 198.18 179.177 189.424C177.92 184.566 175.405 181.507 175.405 181.507C170.256 166.513 163.371 153.559 153.611 143.663C153.611 143.663 139.601 136.465 144.211 151.819C144.211 151.819 149.659 154.158 148.762 164.354C148.462 168.013 148.343 175.21 146.427 177.789C145.109 179.528 143.433 180.368 141.876 180.787C139.362 181.387 128.225 180.847 122.298 178.448C110.982 173.83 96.6119 164.354 82.7213 155.658C82.7213 155.658 76.3151 146.781 69.9684 138.325C63.2026 129.268 56.3173 120.752 49.0724 127.769L68.9506 163.335L90.0857 181.148L89.3671 183.487C79.3684 177.189 69.9084 172.331 61.3466 169.632C61.3466 169.632 54.9399 162.555 47.7555 154.638C39.9718 146.002 31.1704 136.585 25.0034 141.563L30.4519 155.178C30.4519 155.178 27.3385 156.977 27.3984 159.136C27.4582 160.336 33.5653 174.79 41.1692 185.705C51.3475 202.199 55 199.98 55 199.98Z" stroke="url(#paint3_linear_1353_4176)"/>
<path fill-rule="evenodd" clip-rule="evenodd" d="M30.452 155.058C30.5419 155.729 30.5415 155.729 30.5412 155.729L30.5525 155.728C30.5635 155.726 30.5818 155.724 30.607 155.722C30.6576 155.717 30.7358 155.711 30.8387 155.705C31.0446 155.694 31.3485 155.688 31.7261 155.707C32.4829 155.745 33.5275 155.884 34.6728 156.289C36.9404 157.09 39.6563 158.948 41.3164 163.276C41.9983 165.085 42.9898 166.932 44.1415 168.733C44.1096 168.778 44.0739 168.828 44.0345 168.882C43.8729 169.103 43.6763 169.359 43.484 169.603C43.2922 169.847 43.1074 170.076 42.9703 170.245C42.9019 170.33 42.8455 170.399 42.8063 170.446L42.7612 170.501L42.7495 170.515L42.7466 170.519L42.7459 170.52L43.2662 170.952C43.7866 171.383 43.7866 171.383 43.7867 171.383L43.787 171.383L43.7879 171.382L43.7911 171.378L43.8036 171.363L43.8505 171.306C43.8908 171.256 43.9486 171.186 44.0186 171.1C44.1585 170.927 44.3479 170.692 44.5453 170.441C44.6755 170.275 44.8102 170.102 44.9373 169.933C46.5755 172.325 48.444 174.596 50.1782 176.538C51.5169 178.037 52.7853 179.351 53.8235 180.386C53.2324 180.233 52.62 180.123 51.9849 180.06C50.6862 179.933 49.2986 180.193 48.208 180.839C47.1022 181.494 46.2675 182.576 46.2426 184.046C46.2204 185.362 46.6155 187.01 47.7671 189.039C49.3862 191.892 51.0346 194.714 52.2782 196.823C52.9 197.877 53.4204 198.754 53.7857 199.366C53.9684 199.673 54.1124 199.913 54.2106 200.077L54.3226 200.264L54.3515 200.312L54.3591 200.325L54.3609 200.328L54.3613 200.329C54.3613 200.329 54.3613 200.329 54.9404 199.98C55.5191 199.631 55.5191 199.631 55.5191 199.631V199.63L55.5186 199.63L55.5164 199.627L55.5093 199.615L55.4809 199.567L55.3693 199.381C55.2715 199.217 55.128 198.978 54.9457 198.672C54.5813 198.061 54.0617 197.187 53.4413 196.134C52.2 194.03 50.5555 191.214 48.9413 188.37C47.8786 186.497 47.5764 185.087 47.5933 184.069C47.6089 183.171 48.0986 182.477 48.896 182.004C49.7075 181.523 50.8009 181.304 51.8533 181.408C54.9364 181.71 57.476 183.298 59.7244 185.573C61.6689 187.539 63.3609 189.983 64.9733 192.478C64.9333 192.52 64.88 192.571 64.8097 192.628C64.52 192.865 64.0795 193.119 63.5884 193.36C63.1057 193.596 62.6097 193.802 62.2315 193.95C62.0431 194.023 61.8857 194.082 61.776 194.122C61.7533 194.13 61.7329 194.137 61.7146 194.144C61.6884 194.153 61.6666 194.161 61.6493 194.167L61.6173 194.178L61.6097 194.181L61.608 194.182C61.608 194.182 61.608 194.182 61.8271 194.822C62.0462 195.463 62.0462 195.463 62.0462 195.462H62.0475L62.0502 195.461L62.0608 195.457L62.0982 195.444C62.1311 195.433 62.1777 195.416 62.2369 195.394C62.3551 195.351 62.5231 195.289 62.7226 195.211C63.1209 195.055 63.6542 194.834 64.1817 194.576C64.7008 194.321 65.2524 194.013 65.664 193.677L65.6831 193.661C65.6902 193.655 65.6977 193.649 65.7048 193.643C65.708 193.64 65.7111 193.638 65.7137 193.635L65.7453 193.685C67.4995 196.477 69.3653 199.185 70.7506 201.137C71.556 202.273 72.4955 203.297 73.5462 204.191C73.5471 204.215 73.5471 204.247 73.5471 204.288C73.5471 204.386 73.5444 204.53 73.5337 204.709C73.512 205.069 73.4582 205.56 73.3311 206.089C73.0724 207.169 72.5413 208.281 71.496 208.865L72.1546 210.047C73.6835 209.192 74.3502 207.635 74.6449 206.405C74.7511 205.963 74.8133 205.547 74.8493 205.195C75.3106 205.515 75.7888 205.813 76.2822 206.088C79.0275 207.616 83.1924 209.864 87.2795 211.806C90.572 213.398 91.9013 215.597 92.4328 217.359C92.7022 218.251 92.7711 219.046 92.7724 219.615C92.7733 219.898 92.7577 220.125 92.7422 220.276C92.7346 220.352 92.7271 220.408 92.7217 220.444C92.7191 220.462 92.7168 220.475 92.716 220.482L92.7151 220.487C92.7151 220.487 92.7151 220.486 93.3791 220.612C94.0431 220.737 94.0431 220.736 94.0431 220.736V220.735L94.0435 220.732L94.0448 220.726L94.0484 220.706C94.0511 220.69 94.0546 220.668 94.0586 220.641C94.0666 220.587 94.0764 220.51 94.0862 220.414C94.1062 220.22 94.1249 219.947 94.124 219.61C94.1217 218.939 94.0408 218.01 93.7262 216.967C93.1991 215.22 92.0262 213.196 89.5573 211.548C89.936 208.862 89.7342 207.107 89.3924 205.983C89.2124 205.392 88.9946 204.979 88.8053 204.701C88.7111 204.563 88.6249 204.46 88.556 204.386C88.5213 204.349 88.4911 204.319 88.4662 204.297C88.4537 204.286 88.4431 204.276 88.4337 204.268L88.428 204.263L88.4204 204.257L88.4151 204.252L88.4124 204.25L88.4111 204.249C88.4106 204.249 88.4097 204.248 87.9902 204.778C87.5702 205.309 87.5697 205.308 87.5693 205.308L87.568 205.307L87.5662 205.305L87.5622 205.302L87.5569 205.298C87.5537 205.295 87.5524 205.294 87.5524 205.294C87.5528 205.294 87.5591 205.3 87.5702 205.312C87.5924 205.335 87.6351 205.384 87.6893 205.465C87.7977 205.624 87.9577 205.912 88.1 206.378C88.3502 207.2 88.5466 208.585 88.2911 210.8C88.1524 210.728 88.0102 210.656 87.8648 210.586L87.8608 210.584C83.8106 208.66 79.6733 206.426 76.9382 204.904C74.9226 203.783 73.1857 202.234 71.852 200.353C70.4746 198.411 68.624 195.726 66.888 192.962L66.8857 192.959C66.7191 192.697 66.5511 192.433 66.3817 192.169C66.3777 192.153 66.3742 192.138 66.3697 192.122L66.3542 192.126C65.5302 190.842 64.6728 189.543 63.7622 188.298C69.3773 190.515 74.9053 192.763 80.3266 195.06C83.4017 196.362 86.8822 194.33 87.2257 190.993L85.8817 190.854C85.6324 193.276 83.1009 194.765 80.8529 193.813C74.732 191.22 68.4782 188.69 62.1191 186.196C61.6564 185.648 61.1786 185.12 60.6844 184.62C59.64 183.564 58.5124 182.623 57.2795 181.871L57.3053 181.841L57.304 181.84L57.2982 181.835L57.2746 181.814C57.2537 181.795 57.2217 181.767 57.1804 181.728C57.0969 181.653 56.9733 181.539 56.8146 181.392C56.4973 181.097 56.0391 180.665 55.4777 180.118C54.3551 179.023 52.8226 177.469 51.1853 175.636C47.8942 171.951 44.2395 167.2 42.5797 162.796L42.5783 162.792C40.7657 158.065 37.7341 155.935 35.1223 155.012C33.8277 154.554 32.6496 154.398 31.7935 154.355C31.3647 154.333 31.0146 154.341 30.7682 154.353C30.645 154.36 30.5474 154.368 30.4788 154.374C30.4444 154.378 30.4173 154.38 30.3977 154.383L30.374 154.386L30.3665 154.386L30.3639 154.387H30.3629C30.3624 154.387 30.362 154.387 30.452 155.058ZM82.2306 155.133C82.2306 155.133 82.2306 155.133 82.7217 155.598C83.2124 156.063 83.2124 156.063 83.2124 156.063L83.2111 156.064L83.2057 156.07L83.1817 156.096C83.1604 156.119 83.1284 156.154 83.0875 156.199C83.0053 156.289 82.8875 156.42 82.7462 156.583C82.4622 156.911 82.0862 157.362 81.7137 157.862C81.3391 158.365 80.9791 158.902 80.7191 159.402C80.4475 159.925 80.3346 160.315 80.3431 160.552L78.9928 160.6C78.9715 159.997 79.2257 159.345 79.5208 158.777C79.8275 158.186 80.2346 157.584 80.6311 157.052C81.0293 156.518 81.428 156.039 81.7262 155.696C81.8755 155.523 82.0004 155.384 82.0884 155.287C82.1329 155.239 82.1675 155.201 82.192 155.175L82.22 155.144L82.2275 155.136L82.2297 155.134L82.2306 155.133ZM90.0857 181.087C90.7408 181.252 90.7409 181.252 90.7409 181.252L90.7413 181.251L90.7426 181.246L90.7497 181.218C90.7564 181.193 90.7666 181.156 90.7804 181.107C90.8084 181.008 90.8506 180.866 90.908 180.692C91.0226 180.343 91.1937 179.876 91.4213 179.4C91.6502 178.92 91.9248 178.453 92.2391 178.088C92.5564 177.719 92.8733 177.501 93.1786 177.427L92.8604 176.111C92.1777 176.277 91.6337 176.718 91.216 177.204C90.7946 177.694 90.4595 178.276 90.2022 178.816C89.9426 179.36 89.7511 179.883 89.6244 180.269C89.5608 180.462 89.5128 180.623 89.4808 180.737C89.4648 180.793 89.4524 180.839 89.444 180.87L89.4391 180.889L89.4342 180.908L89.4315 180.918L89.4306 180.921L89.4302 180.922V180.923C89.4302 180.923 89.4302 180.923 90.0857 181.087ZM61.9426 169.832L59.6675 174.091L58.476 173.452L60.7511 169.193L61.9426 169.832ZM142.316 180.211C142.316 180.21 142.315 180.21 142.955 180.428C143.595 180.646 143.595 180.646 143.595 180.646V180.647L143.593 180.65L143.588 180.664L143.579 180.694L143.568 180.725C143.55 180.78 143.524 180.862 143.489 180.969C143.42 181.184 143.321 181.501 143.199 181.909C142.956 182.723 142.624 183.897 142.272 185.328C141.566 188.193 140.781 192.075 140.456 196.165C140.129 200.263 140.268 204.523 141.379 208.164C142.484 211.791 144.537 214.763 148.031 216.4L147.459 217.626C143.528 215.785 141.271 212.445 140.086 208.559C138.906 204.689 138.776 200.237 139.108 196.058C139.442 191.871 140.243 187.912 140.96 185.004C141.318 183.548 141.656 182.353 141.905 181.52C142.029 181.104 142.131 180.778 142.203 180.555C142.238 180.444 142.266 180.359 142.285 180.3C142.295 180.271 142.302 180.249 142.308 180.234L142.313 180.217L142.315 180.212L142.316 180.211ZM174.819 230.729C178.452 227.717 181.433 221.732 183.95 214.107L182.668 213.682C180.156 221.291 177.269 226.94 173.957 229.686L174.819 230.729Z" fill="url(#paint4_linear_1353_4176)"/>
<path d="M154.221 72.4486C154.353 72.4091 154.46 72.3778 154.538 72.3547L154.805 72.5009L155.945 73.1269C156.907 73.6546 158.232 74.3814 159.683 75.1778C162.585 76.7707 165.993 78.6421 168.019 79.7564C190.797 92.2946 197.043 124.974 181.771 152.898C166.498 180.822 135.639 193.155 112.861 180.673C110.97 179.627 108.39 177.923 106.273 176.474C105.216 175.751 104.278 175.093 103.605 174.616C103.268 174.378 102.998 174.185 102.811 174.051C102.736 173.997 102.674 173.953 102.628 173.92L102.627 173.916C102.597 173.834 102.552 173.712 102.494 173.55C102.378 173.229 102.21 172.752 102.001 172.137C101.581 170.906 100.995 169.122 100.332 166.906C99.005 162.475 97.3695 156.325 96.1322 149.448C93.6522 135.663 92.797 119.079 99.1104 107.532C105.373 96.0861 119.226 87.2769 131.596 81.3169C137.769 78.3428 143.548 76.0894 147.785 74.5796C149.902 73.8247 151.634 73.256 152.835 72.8762C153.436 72.6863 153.904 72.5437 154.221 72.4486Z" fill="url(#paint5_linear_1353_4176)" stroke="#07828B" stroke-width="0.848505"/>
<path d="M171.147 146.566C186.489 118.494 180.262 85.5029 157.24 72.8785C134.218 60.2541 103.119 72.7772 87.7777 100.85C72.4364 128.922 78.663 161.913 101.685 174.538C124.707 187.162 155.806 174.639 171.147 146.566Z" fill="url(#paint6_linear_1353_4176)" stroke="#07828B" stroke-width="0.848505" stroke-miterlimit="10" stroke-linejoin="round"/>
<path d="M158.689 124.723L165.744 114.208L127.768 88.6335L120.713 99.149L134.714 108.578L130.105 115.448C118.334 108.363 108.058 105.134 106.01 108.186C103.962 111.238 110.826 119.553 121.818 127.797L107.025 149.844L117 156.562L131.796 134.51C143.528 141.555 153.758 144.759 155.799 141.716C157.84 138.674 151.018 130.392 140.076 122.168L144.688 115.294L158.689 124.723ZM151.929 138.208C150.582 140.216 142.826 137.436 133.564 131.877L132.966 131.516L132.902 131.472L132.344 131.13L132.286 131.09C131.872 130.834 131.455 130.573 131.035 130.304L131.008 130.287L130.445 129.926L130.288 129.821L129.846 129.532L127.075 127.666L126.646 127.368L126.496 127.267L125.987 126.906L125.93 126.868C125.327 126.44 124.737 126.012 124.16 125.585L124.152 125.58L123.58 125.152C114.894 118.635 109.358 112.454 110.712 110.437C112.064 108.42 119.866 111.227 129.17 116.819L124.891 123.197C126.39 124.341 128.017 125.509 129.74 126.669C131.49 127.847 133.218 128.937 134.87 129.909L139.134 123.555C147.778 130.053 153.276 136.201 151.929 138.208Z" fill="white"/>
<path d="M127.898 251.589C127.898 251.589 157.393 251.807 171.063 239.853L181.667 255.978C181.667 255.978 165.81 268.735 133.308 268.477L127.898 251.589Z" fill="#07828B"/>
<path d="M134.793 267.122L130.079 252.568C132.526 254.414 141.536 252.707 143.692 252.558C145.848 252.409 143.326 253.978 143.904 255.643C144.483 257.308 157.321 255.026 157.725 256.393C158.128 257.76 146.357 259.813 147.132 262.085C147.908 264.356 155.553 263.053 152.766 265.261C150.535 267.027 139.855 267.237 134.793 267.122Z" fill="#88D8DB"/>
<path d="M180.211 237.185C196.125 226.703 203.771 211.09 206.619 190.915L230.678 199.275C224.78 222.534 213.058 237.565 192.977 252.308L180.223 237.184L180.211 237.185Z" fill="url(#paint7_linear_1353_4176)"/>
<path d="M194.131 229.995C192.347 231.01 192.213 229.372 192.37 228.428L182.562 237.381L193.807 249.313C194.997 249.474 207.117 237.901 211.324 234.929C211.383 234.586 212.054 234.185 212.21 232.077C212.405 229.442 207.236 233.889 205.823 230.908C204.41 227.926 198.568 234.414 199.184 230.306C199.8 226.198 196.362 228.727 194.131 229.995Z" fill="#07828B"/>
<path d="M210.978 146.535L242.512 147.712C245.294 172.269 241.073 191.021 225.589 203.959L192.928 200.611C207.134 186.198 210.978 172.475 210.978 146.535Z" fill="url(#paint8_linear_1353_4176)" stroke="url(#paint9_linear_1353_4176)" stroke-width="0.890538" stroke-miterlimit="10" stroke-linejoin="round"/>
<mask id="mask0_1353_4176" style="mask-type:alpha" maskUnits="userSpaceOnUse" x="194" y="147" width="49" height="56">
<path d="M209.171 148.259L240.569 149.006C244.313 172.076 239.336 190.593 225.396 202.483L195.343 199.473C208.763 185.857 214.475 169.337 209.171 148.259Z" fill="#D9D9D9" stroke="white" stroke-width="0.890538" stroke-miterlimit="10"/>
</mask>
<g mask="url(#mask0_1353_4176)">
<path d="M204.867 183.149C202.736 187.26 200.495 184.314 199.641 182.328L187.651 206.653L227.921 210.772C230.358 209.62 242.099 183.406 246.415 172.614C246.11 171.891 244.934 169.396 242.665 165.202C239.83 159.959 234.302 174.505 228.015 170.573C221.728 166.64 218.602 186.112 214.77 177.556C210.938 169 207.53 178.012 204.867 183.149Z" fill="#88D8DB"/>
</g>
<path d="M214.751 154.431L215.517 154.479L215.441 155.688L216.642 155.763L216.595 156.523L215.394 156.448L215.319 157.658L214.553 157.61L214.629 156.401L213.422 156.326L213.469 155.565L214.676 155.64L214.751 154.431ZM217.49 155.541L217.544 154.674L218.987 153.969L219.69 154.013L219.406 158.582L218.492 158.525L218.713 154.953L217.49 155.541ZM222.172 157.96L223.994 158.073L223.945 158.865L220.803 158.669L220.84 158.083L222.311 156.623C222.564 156.372 222.741 156.174 222.841 156.03C222.946 155.883 223.003 155.728 223.013 155.566C223.025 155.387 222.984 155.24 222.891 155.126C222.798 155.012 222.667 154.95 222.497 154.939C222.322 154.928 222.165 154.983 222.024 155.103C221.884 155.22 221.771 155.392 221.686 155.621L221.002 155.165C221.133 154.802 221.345 154.532 221.64 154.354C221.934 154.172 222.266 154.093 222.635 154.115C222.925 154.134 223.173 154.209 223.377 154.343C223.585 154.473 223.739 154.645 223.838 154.86C223.941 155.075 223.985 155.315 223.968 155.582C223.952 155.843 223.872 156.084 223.729 156.305C223.591 156.522 223.349 156.801 223.003 157.142L222.172 157.96ZM226.481 156.107C226.763 156.125 227.01 156.203 227.222 156.341C227.435 156.475 227.594 156.656 227.701 156.884C227.807 157.112 227.852 157.367 227.834 157.649C227.816 157.945 227.727 158.204 227.567 158.428C227.412 158.652 227.206 158.82 226.949 158.934C226.696 159.047 226.425 159.095 226.134 159.076C225.836 159.058 225.568 158.977 225.331 158.832C225.095 158.684 224.913 158.487 224.787 158.242C224.661 157.996 224.607 157.718 224.627 157.406C224.641 157.173 224.698 156.953 224.799 156.747C224.899 156.536 225.07 156.263 225.312 155.928L226.392 154.431L227.369 154.492L226.393 155.808C226.316 155.916 226.232 156.023 226.142 156.13C226.244 156.107 226.357 156.099 226.481 156.107ZM226.178 158.266C226.373 158.278 226.535 158.223 226.663 158.102C226.792 157.977 226.862 157.81 226.875 157.602C226.888 157.395 226.839 157.222 226.726 157.086C226.614 156.946 226.461 156.869 226.266 156.857C226.067 156.845 225.903 156.901 225.774 157.027C225.646 157.148 225.576 157.313 225.563 157.52C225.549 157.732 225.599 157.906 225.711 158.043C225.828 158.179 225.983 158.254 226.178 158.266ZM228.781 159.254C228.64 159.245 228.523 159.186 228.43 159.076C228.337 158.966 228.295 158.838 228.304 158.693C228.313 158.547 228.37 158.425 228.477 158.328C228.582 158.23 228.706 158.186 228.847 158.194C228.992 158.204 229.111 158.263 229.205 158.373C229.302 158.484 229.346 158.612 229.337 158.757C229.328 158.902 229.268 159.024 229.158 159.121C229.052 159.219 228.926 159.263 228.781 159.254ZM232.386 157.001C232.633 157.112 232.817 157.266 232.938 157.461C233.059 157.652 233.112 157.885 233.094 158.159C233.077 158.442 232.989 158.68 232.831 158.875C232.678 159.065 232.476 159.207 232.224 159.3C231.977 159.389 231.706 159.424 231.412 159.406C231.034 159.382 230.71 159.272 230.439 159.076C230.173 158.88 229.992 158.608 229.897 158.26L230.638 157.893C230.691 158.113 230.79 158.284 230.937 158.406C231.084 158.524 231.253 158.588 231.443 158.6C231.63 158.612 231.789 158.568 231.92 158.467C232.055 158.368 232.129 158.222 232.141 158.031C232.167 157.611 231.86 157.381 231.221 157.341L231.053 157.331L231.1 156.583L231.343 156.598C231.579 156.613 231.763 156.568 231.894 156.464C232.03 156.355 232.103 156.216 232.114 156.046C232.124 155.887 232.08 155.757 231.982 155.655C231.884 155.554 231.753 155.497 231.587 155.487C231.408 155.476 231.249 155.525 231.109 155.632C230.973 155.737 230.864 155.892 230.78 156.1L230.12 155.665C230.25 155.322 230.455 155.068 230.736 154.902C231.017 154.732 231.342 154.659 231.712 154.681C231.998 154.699 232.245 154.769 232.454 154.891C232.668 155.008 232.829 155.166 232.937 155.365C233.045 155.563 233.092 155.787 233.077 156.037C233.062 156.27 232.996 156.468 232.877 156.631C232.763 156.795 232.599 156.918 232.386 157.001ZM235.888 156.081C235.874 156.305 235.812 156.501 235.701 156.67C235.591 156.834 235.449 156.956 235.273 157.037C235.097 157.118 234.907 157.152 234.704 157.139C234.505 157.127 234.323 157.07 234.159 156.968C233.995 156.866 233.866 156.726 233.773 156.55C233.684 156.369 233.647 156.166 233.661 155.942C233.674 155.717 233.737 155.523 233.847 155.359C233.961 155.195 234.106 155.073 234.282 154.992C234.458 154.907 234.645 154.87 234.844 154.883C235.048 154.895 235.231 154.955 235.395 155.061C235.56 155.163 235.686 155.302 235.775 155.479C235.864 155.655 235.902 155.856 235.888 156.081ZM237.204 155.111L238.087 155.167L235.085 159.56L234.201 159.504L237.204 155.111ZM235.191 156.037C235.2 155.896 235.167 155.781 235.094 155.693C235.021 155.601 234.924 155.551 234.803 155.544C234.687 155.537 234.587 155.574 234.503 155.656C234.419 155.734 234.373 155.844 234.364 155.985C234.355 156.123 234.388 156.237 234.461 156.33C234.534 156.422 234.629 156.471 234.745 156.479C234.865 156.486 234.968 156.448 235.052 156.366C235.136 156.284 235.182 156.174 235.191 156.037ZM238.628 158.723C238.614 158.947 238.552 159.144 238.441 159.312C238.331 159.476 238.189 159.599 238.013 159.679C237.837 159.76 237.648 159.794 237.444 159.782C237.245 159.769 237.063 159.712 236.899 159.61C236.735 159.508 236.606 159.369 236.513 159.192C236.424 159.011 236.387 158.808 236.401 158.584C236.415 158.36 236.477 158.165 236.587 158.001C236.701 157.837 236.846 157.715 237.022 157.634C237.198 157.549 237.385 157.513 237.585 157.526C237.788 157.538 237.971 157.597 238.135 157.704C238.3 157.806 238.426 157.945 238.516 158.121C238.605 158.298 238.642 158.499 238.628 158.723ZM237.931 158.68C237.94 158.538 237.905 158.424 237.828 158.335C237.754 158.243 237.66 158.194 237.543 158.186C237.427 158.179 237.327 158.216 237.243 158.299C237.159 158.377 237.113 158.486 237.104 158.628C237.095 158.765 237.128 158.88 237.201 158.972C237.274 159.064 237.369 159.114 237.485 159.121C237.601 159.128 237.701 159.091 237.786 159.008C237.874 158.926 237.923 158.817 237.931 158.68Z" fill="white"/>
<path d="M225.654 192.937L209.381 190.544C207.257 190.232 205.136 191.136 203.888 192.888L203.741 193.094C202.552 194.765 203.547 197.105 205.574 197.403L221.55 199.747C223.763 200.072 225.98 199.182 227.357 197.415L227.415 197.341C228.708 195.683 227.732 193.243 225.654 192.937Z" fill="white"/>
<path d="M208.315 192.139L210.691 192.411L210.448 193.001L208.794 192.811L208.437 193.68L209.916 193.849L209.675 194.434L208.196 194.265L207.637 195.621L206.915 195.538L208.315 192.139ZM209.979 194.629C210.082 194.379 210.233 194.164 210.432 193.986C210.633 193.808 210.857 193.68 211.101 193.601C211.347 193.519 211.588 193.491 211.824 193.518C212.057 193.545 212.251 193.623 212.406 193.75C212.567 193.876 212.668 194.041 212.708 194.247C212.752 194.453 212.722 194.682 212.619 194.932C212.515 195.183 212.363 195.397 212.161 195.575C211.962 195.753 211.741 195.882 211.496 195.961C211.254 196.04 211.017 196.066 210.785 196.04C210.549 196.013 210.351 195.936 210.191 195.811C210.03 195.686 209.928 195.52 209.885 195.314C209.844 195.109 209.875 194.88 209.979 194.629ZM210.696 194.712C210.608 194.926 210.594 195.102 210.655 195.242C210.72 195.379 210.839 195.458 211.012 195.477C211.185 195.497 211.353 195.451 211.517 195.341C211.682 195.227 211.809 195.063 211.897 194.849C211.985 194.636 211.998 194.459 211.937 194.319C211.877 194.179 211.76 194.1 211.588 194.08C211.415 194.06 211.244 194.107 211.076 194.22C210.91 194.334 210.784 194.498 210.696 194.712ZM213.317 196.272L212.624 196.192L214.08 192.659L214.773 192.738L213.317 196.272ZM214.649 196.424L213.957 196.345L215.413 192.811L216.105 192.891L214.649 196.424ZM215.636 195.278C215.739 195.027 215.89 194.813 216.089 194.634C216.291 194.457 216.514 194.328 216.759 194.25C217.005 194.167 217.245 194.14 217.481 194.167C217.714 194.194 217.908 194.271 218.064 194.399C218.225 194.524 218.325 194.69 218.365 194.895C218.409 195.101 218.38 195.33 218.276 195.581C218.173 195.831 218.02 196.045 217.818 196.223C217.62 196.402 217.398 196.53 217.153 196.609C216.912 196.688 216.675 196.715 216.443 196.688C216.207 196.661 216.009 196.585 215.848 196.459C215.688 196.334 215.585 196.168 215.542 195.963C215.501 195.757 215.533 195.529 215.636 195.278ZM216.353 195.36C216.265 195.574 216.252 195.751 216.312 195.89C216.377 196.028 216.497 196.106 216.669 196.126C216.842 196.146 217.01 196.1 217.174 195.989C217.339 195.875 217.466 195.711 217.554 195.498C217.642 195.284 217.656 195.108 217.595 194.967C217.534 194.828 217.418 194.748 217.245 194.728C217.072 194.708 216.902 194.755 216.733 194.869C216.568 194.983 216.441 195.146 216.353 195.36ZM221.159 194.652L221.079 196.213L222.205 194.771L222.878 194.849L220.947 197.141L220.454 197.085L220.469 195.555L219.304 196.953L218.805 196.896L218.818 194.383L219.53 194.465L219.448 196.045L220.581 194.585L221.159 194.652Z" fill="#07828B"/>
<path d="M147.132 245.733C151.378 254.265 146.619 263.7 137.083 268.603C132.337 271.043 127.259 271.665 122.931 270.808C118.599 269.949 115.051 267.62 113.292 264.186C112.916 263.452 112.624 262.665 112.304 261.805C112.239 261.631 112.174 261.454 112.106 261.274C110.848 254.843 115.858 247.734 124.197 243.447C128.587 241.189 132.995 240.059 136.823 240.191C140.622 240.322 143.827 241.692 145.923 244.415C146.03 244.684 146.15 244.887 146.289 245.044C146.443 245.218 146.601 245.311 146.728 245.378C146.766 245.397 146.797 245.413 146.823 245.426C146.891 245.46 146.925 245.477 146.967 245.51C147.008 245.541 147.065 245.597 147.132 245.733Z" fill="url(#paint10_linear_1353_4176)" stroke="#07828B" stroke-width="0.890538"/>
<path d="M136.159 266.397C145.787 261.447 150.673 251.737 147.074 244.71C143.474 237.682 132.751 235.998 123.123 240.948C113.496 245.898 108.609 255.608 112.209 262.635C115.809 269.663 126.532 271.347 136.159 266.397Z" fill="url(#paint11_linear_1353_4176)" stroke="#07828B" stroke-width="0.848505" stroke-miterlimit="10" stroke-linejoin="round"/>
<path d="M123.267 247.39C124.189 246.761 126.799 249.219 128.96 251.588L130.71 250.409L127.404 246.317L130.175 244.448L139.033 255.388L136.262 257.256L132.919 253.121L131.168 254.299C133.105 256.888 135.064 260.1 134.092 260.759C133.12 261.419 130.345 258.763 128.196 256.323L122.411 260.229L120.211 257.503L125.995 253.596C124.146 251.021 122.356 248.027 123.278 247.397L123.267 247.39ZM127.526 254.803C130.674 258.684 133.34 260.705 133.787 260.401C134.205 260.119 133.175 257.776 130.788 254.544L128.844 255.864L127.817 254.603C127.407 254.103 127.005 253.588 126.644 253.059L128.538 251.769C125.967 248.901 123.897 247.412 123.5 247.686C123.082 248.047 124.415 250.964 127.514 254.796L127.526 254.803Z" fill="white"/>
<defs>
<linearGradient id="paint0_linear_1353_4176" x1="69.6454" y1="47.6609" x2="49.585" y2="136.019" gradientUnits="userSpaceOnUse">
<stop stop-color="#33F39A"/>
<stop offset="0.31638" stop-color="#7FE2B3"/>
<stop offset="0.655" stop-color="white"/>
<stop offset="1" stop-color="#EEEEEE"/>
</linearGradient>
<linearGradient id="paint1_linear_1353_4176" x1="43.3179" y1="54.5583" x2="9.33989" y2="118.119" gradientUnits="userSpaceOnUse">
<stop stop-color="#1E8E68"/>
<stop offset="1" stop-color="#07828B"/>
</linearGradient>
<linearGradient id="paint2_linear_1353_4176" x1="233.697" y1="74.2801" x2="229.561" y2="114.875" gradientUnits="userSpaceOnUse">
<stop stop-color="#1E8E68"/>
<stop offset="1" stop-color="#07828B"/>
</linearGradient>
<linearGradient id="paint3_linear_1353_4176" x1="-6.98703" y1="125" x2="133.895" y2="188.317" gradientUnits="userSpaceOnUse">
<stop stop-color="white"/>
<stop offset="0.436664" stop-color="#006647"/>
<stop offset="1" stop-color="#07828B"/>
</linearGradient>
<linearGradient id="paint4_linear_1353_4176" x1="15.9703" y1="132.5" x2="210.351" y2="155.932" gradientUnits="userSpaceOnUse">
<stop stop-color="white"/>
<stop offset="0.28" stop-color="#006647"/>
<stop offset="1" stop-color="#07828B"/>
</linearGradient>
<linearGradient id="paint5_linear_1353_4176" x1="244.98" y1="72.1747" x2="166.276" y2="258.279" gradientUnits="userSpaceOnUse">
<stop stop-color="#33F39A"/>
<stop offset="0.31638" stop-color="#509775"/>
<stop offset="0.655" stop-color="white"/>
<stop offset="1"/>
</linearGradient>
<linearGradient id="paint6_linear_1353_4176" x1="144.926" y1="69.3286" x2="64.2864" y2="211.879" gradientUnits="userSpaceOnUse">
<stop stop-color="#1E8E68"/>
<stop offset="1" stop-color="#07828B"/>
</linearGradient>
<linearGradient id="paint7_linear_1353_4176" x1="203.579" y1="191.125" x2="207.735" y2="251.288" gradientUnits="userSpaceOnUse">
<stop stop-color="#5AB8DB"/>
<stop offset="1" stop-color="white"/>
</linearGradient>
<linearGradient id="paint8_linear_1353_4176" x1="270.882" y1="111.242" x2="270.249" y2="187.561" gradientUnits="userSpaceOnUse">
<stop stop-color="#07828B"/>
<stop offset="0.265" stop-color="#5AB8DB"/>
<stop offset="0.765" stop-color="#07828B"/>
</linearGradient>
<linearGradient id="paint9_linear_1353_4176" x1="222.433" y1="204.451" x2="213.274" y2="145.801" gradientUnits="userSpaceOnUse">
<stop stop-color="#07828B"/>
<stop offset="1" stop-color="white"/>
</linearGradient>
<linearGradient id="paint10_linear_1353_4176" x1="161.377" y1="223.909" x2="172.976" y2="276.875" gradientUnits="userSpaceOnUse">
<stop stop-color="#33F39A"/>
<stop offset="0.31638" stop-color="#1C5339"/>
<stop offset="0.655" stop-color="white"/>
<stop offset="1" stop-color="white"/>
</linearGradient>
<linearGradient id="paint11_linear_1353_4176" x1="128.664" y1="238.494" x2="134.068" y2="283.439" gradientUnits="userSpaceOnUse">
<stop stop-color="#1E8E68"/>
<stop offset="1" stop-color="#07828B"/>
</linearGradient>
</defs>
</svg>
