<svg width="64" height="64" viewBox="0 0 64 64" fill="none" xmlns="http://www.w3.org/2000/svg">
<path opacity="0.4" d="M41.44 5H9.76C8.23235 5 6.76727 5.60686 5.68707 6.68707C4.60686 7.76727 4 9.23235 4 10.76V42.44C4 43.1964 4.14899 43.9454 4.43845 44.6443C4.72792 45.3431 5.1522 45.9781 5.68707 46.5129C6.22193 47.0478 6.85691 47.4721 7.55574 47.7615C8.25458 48.051 9.00359 48.2 9.76 48.2H41.44C42.9676 48.2 44.4327 47.5931 45.5129 46.5129C46.5931 45.4327 47.2 43.9676 47.2 42.44V10.76C47.2 9.23235 46.5931 7.76727 45.5129 6.68707C44.4327 5.60686 42.9676 5 41.44 5Z" fill="#5AB8DB"/>
<path d="M53.44 16.96H21.76C20.2324 16.96 18.7673 17.5668 17.6871 18.647C16.6069 19.7272 16 21.1923 16 22.72V54.4C16 55.9276 16.6069 57.3927 17.6871 58.4729C18.7673 59.5531 20.2324 60.16 21.76 60.16H53.44C54.9677 60.16 56.4327 59.5531 57.5129 58.4729C58.5931 57.3927 59.2 55.9276 59.2 54.4V22.72C59.2 21.1923 58.5931 19.7272 57.5129 18.647C56.4327 17.5668 54.9677 16.96 53.44 16.96Z" fill="#07828B"/>
<path d="M44 34.8463L46.964 33.3709C47.2842 33.2115 47.6397 33.1365 47.997 33.153C48.3543 33.1695 48.7014 33.277 49.0055 33.4653C49.3096 33.6536 49.5605 33.9164 49.7346 34.2289C49.9086 34.5413 50 34.893 50 35.2507V42.8497C50 43.2107 49.9069 43.5656 49.7297 43.8801C49.5526 44.1946 49.2973 44.4582 48.9887 44.6453C48.68 44.8324 48.3283 44.9368 47.9675 44.9484C47.6067 44.96 47.249 44.8784 46.9289 44.7115L44 43.1842V44.3998C44 46.2223 42.5225 47.6998 40.7 47.6998H29.3C27.4775 47.6998 26 46.2223 26 44.3998V33.5998C26 31.7773 27.4775 30.2998 29.3 30.2998H40.7C42.5225 30.2998 44 31.7773 44 33.5998V34.8463ZM44 36.8572V41.1538L47.7614 43.1152C47.8071 43.139 47.8582 43.1506 47.9097 43.149C47.9612 43.1473 48.0114 43.1324 48.0555 43.1057C48.0996 43.079 48.136 43.0414 48.1613 42.9965C48.1866 42.9516 48.2 42.9009 48.2 42.8494V35.2507C48.2 35.1996 48.1869 35.1493 48.1621 35.1047C48.1372 35.0601 48.1013 35.0225 48.0579 34.9956C48.0144 34.9687 47.9648 34.9534 47.9138 34.951C47.8627 34.9487 47.8119 34.9594 47.7662 34.9822L44 36.8572ZM42.2 44.3998V33.5998C42.2 33.202 42.042 32.8204 41.7607 32.5391C41.4794 32.2578 41.0978 32.0998 40.7 32.0998H29.3C29.103 32.0998 28.908 32.1386 28.726 32.214C28.544 32.2894 28.3786 32.3999 28.2393 32.5391C28.1001 32.6784 27.9896 32.8438 27.9142 33.0258C27.8388 33.2078 27.8 33.4028 27.8 33.5998V44.3998C27.8 44.5968 27.8388 44.7918 27.9142 44.9738C27.9896 45.1558 28.1001 45.3212 28.2393 45.4605C28.3786 45.5998 28.544 45.7102 28.726 45.7856C28.908 45.861 29.103 45.8998 29.3 45.8998H40.7C41.0978 45.8998 41.4794 45.7418 41.7607 45.4605C42.042 45.1792 42.2 44.7976 42.2 44.3998ZM31.7 37.7998C31.2226 37.7998 30.7648 37.6102 30.4272 37.2726C30.0896 36.935 29.9 36.4772 29.9 35.9998C29.9 35.5224 30.0896 35.0646 30.4272 34.727C30.7648 34.3894 31.2226 34.1998 31.7 34.1998C32.1774 34.1998 32.6352 34.3894 32.9728 34.727C33.3104 35.0646 33.5 35.5224 33.5 35.9998C33.5 36.4772 33.3104 36.935 32.9728 37.2726C32.6352 37.6102 32.1774 37.7998 31.7 37.7998Z" fill="white"/>
<path opacity="0.4" d="M21.76 17.5H53.44C54.835 17.5 56.1729 18.0542 57.1594 19.0406C58.1458 20.0271 58.7 21.365 58.7 22.76V54.44C58.7 55.835 58.1458 57.1729 57.1594 58.1594C56.1729 59.1458 54.835 59.7 53.44 59.7H21.76C20.365 59.7 19.0271 59.1458 18.0406 58.1594C17.0542 57.1729 16.5 55.835 16.5 54.44V22.76C16.5 21.365 17.0542 20.0271 18.0406 19.0406C19.0271 18.0542 20.365 17.5 21.76 17.5ZM59.7 22.76C59.7 21.0997 59.0405 19.5075 57.8665 18.3335C56.6925 17.1595 55.1003 16.5 53.44 16.5H21.76C20.0997 16.5 18.5075 17.1595 17.3335 18.3335C16.1595 19.5075 15.5 21.0997 15.5 22.76V54.44C15.5 56.1003 16.1595 57.6925 17.3335 58.8665C18.5075 60.0405 20.0997 60.7 21.76 60.7H53.44C55.1003 60.7 56.6925 60.0405 57.8665 58.8665C59.0405 57.6925 59.7 56.1003 59.7 54.44V22.76Z" fill="#07828B"/>
</svg>
