<svg width="64" height="64" viewBox="0 0 64 64" fill="none" xmlns="http://www.w3.org/2000/svg">
<path opacity="0.4" d="M41.44 5H9.76C8.23235 5 6.76727 5.60686 5.68707 6.68707C4.60686 7.76727 4 9.23235 4 10.76V42.44C4 43.1964 4.14899 43.9454 4.43845 44.6443C4.72792 45.3431 5.1522 45.9781 5.68707 46.5129C6.22193 47.0478 6.85691 47.4721 7.55574 47.7615C8.25458 48.051 9.00359 48.2 9.76 48.2H41.44C42.9676 48.2 44.4327 47.5931 45.5129 46.5129C46.5931 45.4327 47.2 43.9676 47.2 42.44V10.76C47.2 9.23235 46.5931 7.76727 45.5129 6.68707C44.4327 5.60686 42.9676 5 41.44 5Z" fill="#5AB8DB"/>
<path d="M53.44 16.96H21.76C20.2324 16.96 18.7673 17.5668 17.6871 18.647C16.6069 19.7272 16 21.1923 16 22.72V54.4C16 55.9276 16.6069 57.3927 17.6871 58.4729C18.7673 59.5531 20.2324 60.16 21.76 60.16H53.44C54.9677 60.16 56.4327 59.5531 57.5129 58.4729C58.5931 57.3927 59.2 55.9276 59.2 54.4V22.72C59.2 21.1923 58.5931 19.7272 57.5129 18.647C56.4327 17.5668 54.9677 16.96 53.44 16.96Z" fill="#07828B"/>
<path d="M49.2174 28.7307C48.7829 28.2807 48.1897 28.0184 47.5644 28C47.2433 28.0006 46.9255 28.0658 46.6301 28.1917L26.7459 36.8041C26.5114 36.8997 26.3132 37.067 26.1798 37.2823C26.0464 37.4975 25.9846 37.7494 26.0033 38.002V38.7806C25.9904 39.0433 26.0644 39.3029 26.2138 39.5194C26.3631 39.7359 26.5796 39.8972 26.8298 39.9784L31.9925 41.7033L33.5497 46.9618C33.6543 47.3304 33.8564 47.6641 34.1347 47.9275C34.4129 48.191 34.757 48.3747 35.1308 48.4591C35.274 48.4768 35.4188 48.4768 35.562 48.4591C36.0933 48.4573 36.6036 48.2514 36.9875 47.8842L38.892 46.0874L42.5814 48.9981C42.9356 49.2747 43.3604 49.446 43.8073 49.4926C44.2542 49.5392 44.7052 49.4592 45.1088 49.2617L45.5041 49.058C45.8421 48.8842 46.1357 48.6351 46.3621 48.3297C46.5885 48.0244 46.7417 47.6712 46.8098 47.2972L49.9601 31.0066C50.034 30.5954 50.0049 30.1723 49.8753 29.7751C49.7457 29.378 49.5197 29.0191 49.2174 28.7307ZM45.0489 47.0097C45.0294 47.1132 44.987 47.211 44.9248 47.2959C44.8627 47.3809 44.7823 47.4509 44.6896 47.5008L44.2943 47.7045C44.2164 47.7441 44.1302 47.7646 44.0428 47.7644C43.9152 47.762 43.7924 47.7154 43.6954 47.6326L39.1915 44.0391C39.0841 43.9439 38.9457 43.8914 38.8022 43.8914C38.6587 43.8914 38.5203 43.9439 38.4129 44.0391L35.7537 46.5426C35.7048 46.5784 35.6465 46.5992 35.586 46.6025V42.3741C35.5862 42.2911 35.6032 42.2089 35.6362 42.1327C35.6691 42.0565 35.7173 41.9879 35.7777 41.9309C39.5988 38.3374 41.8866 36.325 43.2522 35.1751C43.2956 35.1353 43.3307 35.0873 43.3554 35.0338C43.3801 34.9803 43.3939 34.9225 43.3959 34.8636C43.4007 34.806 43.3924 34.7481 43.3717 34.6942C43.351 34.6403 43.3183 34.5917 43.2761 34.5522C43.2177 34.4788 43.1365 34.4272 43.0453 34.4055C42.9541 34.3838 42.8582 34.3932 42.773 34.4324L33.7174 40.1461C33.6369 40.1844 33.5489 40.2043 33.4598 40.2043C33.3707 40.2043 33.2827 40.1844 33.2023 40.1461L27.8 38.3014L47.2889 29.8447C47.3598 29.8279 47.4336 29.8279 47.5045 29.8447C47.5912 29.8469 47.6765 29.8673 47.7549 29.9044C47.8332 29.9415 47.903 29.9946 47.9597 30.0603C48.0414 30.1471 48.1014 30.2521 48.1347 30.3667C48.168 30.4812 48.1737 30.602 48.1513 30.7191L45.0489 47.0097Z" fill="white"/>
<path opacity="0.4" d="M21.76 17.5H53.44C54.835 17.5 56.1729 18.0542 57.1594 19.0406C58.1458 20.0271 58.7 21.365 58.7 22.76V54.44C58.7 55.835 58.1458 57.1729 57.1594 58.1594C56.1729 59.1458 54.835 59.7 53.44 59.7H21.76C20.365 59.7 19.0271 59.1458 18.0406 58.1594C17.0542 57.1729 16.5 55.835 16.5 54.44V22.76C16.5 21.365 17.0542 20.0271 18.0406 19.0406C19.0271 18.0542 20.365 17.5 21.76 17.5ZM59.7 22.76C59.7 21.0997 59.0405 19.5075 57.8665 18.3335C56.6925 17.1595 55.1003 16.5 53.44 16.5H21.76C20.0997 16.5 18.5075 17.1595 17.3335 18.3335C16.1595 19.5075 15.5 21.0997 15.5 22.76V54.44C15.5 56.1003 16.1595 57.6925 17.3335 58.8665C18.5075 60.0405 20.0997 60.7 21.76 60.7H53.44C55.1003 60.7 56.6925 60.0405 57.8665 58.8665C59.0405 57.6925 59.7 56.1003 59.7 54.44V22.76Z" fill="#07828B"/>
</svg>
