<svg width="64" height="64" viewBox="0 0 64 64" fill="none" xmlns="http://www.w3.org/2000/svg">
<path opacity="0.4" d="M41.44 5H9.76C8.23235 5 6.76727 5.60686 5.68707 6.68707C4.60686 7.76727 4 9.23235 4 10.76V42.44C4 43.1964 4.14899 43.9454 4.43845 44.6443C4.72792 45.3431 5.1522 45.9781 5.68707 46.5129C6.22193 47.0478 6.85691 47.4721 7.55574 47.7615C8.25458 48.051 9.00359 48.2 9.76 48.2H41.44C42.9676 48.2 44.4327 47.5931 45.5129 46.5129C46.5931 45.4327 47.2 43.9676 47.2 42.44V10.76C47.2 9.23235 46.5931 7.76727 45.5129 6.68707C44.4327 5.60686 42.9676 5 41.44 5Z" fill="#5AB8DB"/>
<path d="M53.44 16.96H21.76C20.2324 16.96 18.7673 17.5668 17.6871 18.647C16.6069 19.7272 16 21.1923 16 22.72V54.4C16 55.9276 16.6069 57.3927 17.6871 58.4729C18.7673 59.5531 20.2324 60.16 21.76 60.16H53.44C54.9677 60.16 56.4327 59.5531 57.5129 58.4729C58.5931 57.3927 59.2 55.9276 59.2 54.4V22.72C59.2 21.1923 58.5931 19.7272 57.5129 18.647C56.4327 17.5668 54.9677 16.96 53.44 16.96Z" fill="#07828B"/>
<path d="M45.5325 35.4602L45.5232 35.1607C45.5138 34.9641 45.5045 34.7582 45.4764 34.5616C45.4483 34.3651 45.4202 34.1685 45.3828 33.9626C45.336 33.766 45.2892 33.5694 45.233 33.3729C44.999 32.6053 44.6527 31.8658 44.194 31.2106C44.0723 31.0515 43.96 30.8924 43.829 30.7332C43.6979 30.5835 43.5669 30.4337 43.4265 30.2839C43.3609 30.209 43.2861 30.1435 43.2112 30.0686L42.9865 29.8627L42.7619 29.6661L42.5185 29.4883L42.2751 29.3105C42.1909 29.2543 42.1066 29.1981 42.0224 29.1513L41.7603 28.9922C41.6761 28.9454 41.5918 28.8892 41.4982 28.8424C41.3204 28.7488 41.1332 28.6646 40.9553 28.5803C40.7681 28.5055 40.5809 28.4399 40.3937 28.3744C39.6261 28.131 38.8212 28.0094 38.0255 28H37.829L37.5294 28.0094L37.2299 28.0281C37.1269 28.0281 37.0333 28.0468 36.9304 28.0562C36.7338 28.0842 36.5372 28.1123 36.3313 28.1498C36.1347 28.1966 35.9382 28.2434 35.7416 28.2995C34.974 28.5335 34.2346 28.8799 33.5793 29.3385C32.9148 29.7878 32.3438 30.3588 31.857 31.0047C31.389 31.6412 30.9959 32.3619 30.7525 33.1295C30.4998 33.897 30.3687 34.6927 30.3594 35.4977V44.5304L30.3687 44.83C30.3781 45.0265 30.3875 45.2324 30.4155 45.429C30.4436 45.6256 30.4717 45.8222 30.5091 46.0281C30.5559 46.2246 30.6027 46.4212 30.6589 46.6178C30.8929 47.3853 31.2393 48.1248 31.6979 48.78C31.8196 48.9392 31.9319 49.0983 32.063 49.2574C32.194 49.4072 32.3251 49.5569 32.4655 49.7067C32.531 49.7816 32.6059 49.8471 32.6807 49.922L32.9054 50.1279L33.13 50.3245L33.3734 50.5023L33.6168 50.6802C33.701 50.7363 33.7853 50.7925 33.8695 50.8393L34.1316 50.9984C34.2158 51.0452 34.3001 51.1014 34.3937 51.1482C34.5715 51.2418 34.7588 51.3261 34.9366 51.4103C35.1238 51.4852 35.311 51.5507 35.4982 51.6162C36.2658 51.869 37.0708 51.9906 37.8664 52H38.063L38.3625 51.9906L38.662 51.9719C38.765 51.9719 38.8586 51.9532 38.9616 51.9438C39.1581 51.9158 39.3547 51.8877 39.5606 51.8502C39.7572 51.8034 39.9538 51.7566 40.1503 51.7005C40.9179 51.4665 41.6573 51.1201 42.3126 50.6615C42.9772 50.2122 43.5481 49.6412 44.0349 48.9953C44.5123 48.3588 44.9054 47.6381 45.1488 46.8705C45.4015 46.103 45.5325 45.298 45.5419 44.5023V35.5632C45.5325 35.5351 45.5325 35.5164 45.5325 35.4602ZM45.0832 35.5725V44.493C45.0739 45.2418 44.9522 46 44.7182 46.7207C44.4842 47.4415 44.1191 48.1154 43.6698 48.7145C43.2205 49.3136 42.6776 49.8471 42.0505 50.2777C41.4327 50.7083 40.74 51.0359 40.0099 51.2512C39.8227 51.298 39.6449 51.3448 39.4577 51.3916C39.2705 51.429 39.0832 51.4571 38.896 51.4852C38.8024 51.5039 38.7088 51.5133 38.6152 51.5133L38.3344 51.532L38.0536 51.5413H37.857C37.1082 51.532 36.35 51.4103 35.6293 51.1763L35.0957 50.9797C34.9272 50.9048 34.7494 50.8206 34.5809 50.7363C34.4967 50.6989 34.4124 50.6521 34.3375 50.5959L34.0942 50.4462C34.0193 50.3994 33.935 50.3526 33.8602 50.2964L33.6355 50.1279L33.4109 49.9594C33.336 49.9033 33.2705 49.8378 33.1956 49.7722L32.9896 49.585C32.9241 49.5195 32.8492 49.454 32.7931 49.3885C32.662 49.2481 32.5403 49.1076 32.4187 48.9672L32.0817 48.5179C31.6511 47.9002 31.3235 47.2075 31.1082 46.4867C31.0614 46.2995 31.0146 46.1217 30.9678 45.9345C30.9304 45.7473 30.9023 45.5601 30.8742 45.3729C30.8461 45.1856 30.8368 44.9984 30.8274 44.8112L30.818 44.5304V35.4883C30.818 34.7395 30.9397 33.9906 31.1737 33.2699C31.4077 32.5491 31.7728 31.8752 32.2221 31.2761C32.6714 30.6771 33.2143 30.1435 33.8414 29.7129C34.4592 29.2824 35.1519 28.9548 35.882 28.7395C36.0692 28.6927 36.2471 28.6459 36.4343 28.5991C36.6215 28.5616 36.8087 28.5335 36.9959 28.5055C37.0895 28.4867 37.1831 28.4774 37.2767 28.4774L37.5575 28.4587L37.8383 28.4493H38.0349C38.7837 28.4587 39.5419 28.5803 40.2627 28.8144L40.7962 29.0109C40.9647 29.0858 41.1425 29.17 41.311 29.2543C41.3953 29.2917 41.4795 29.3385 41.5544 29.3947L41.7978 29.5445C41.8726 29.5913 41.9569 29.6381 42.0318 29.6942L42.2564 29.8627L42.4811 30.0312C42.5559 30.0874 42.6215 30.1529 42.6963 30.2184L42.9023 30.4056C42.9678 30.4711 43.0427 30.5367 43.0988 30.6022C43.2299 30.7426 43.3516 30.883 43.4733 31.0234L43.8102 31.4727C44.2408 32.0905 44.5684 32.7832 44.7837 33.5039C44.8305 33.6911 44.8773 33.869 44.9241 34.0562C44.9616 34.2434 44.9896 34.4306 45.0177 34.6178C45.0458 34.805 45.0552 34.9922 45.0645 35.1794L45.0739 35.4602C45.0832 35.5164 45.0832 35.5351 45.0832 35.5725Z" fill="#07828B"/>
<path d="M38.0253 28.8985V28.4492C38.7741 28.4586 39.5323 28.5803 40.2531 28.8143L40.7866 29.0108C40.9551 29.0857 41.1329 29.17 41.3014 29.2542C41.3857 29.2917 41.4699 29.3385 41.5448 29.3946L41.7882 29.5444C41.863 29.5912 41.9473 29.638 42.0222 29.6941L42.2468 29.8626L42.4715 30.0311C42.5463 30.0873 42.6119 30.1528 42.6867 30.2183L42.8927 30.4055C42.9582 30.4711 43.0331 30.5366 43.0892 30.6021C43.2203 30.7425 43.342 30.8829 43.4637 31.0233L43.8006 31.4726C44.2312 32.0904 44.5588 32.7831 44.7741 33.5038C44.8209 33.691 44.8677 33.8689 44.9145 34.0561C44.952 34.2433 44.98 34.4305 45.0081 34.6177C45.0362 34.8049 45.0456 34.9921 45.0549 35.1793L45.0643 35.4601V44.4929C45.0549 45.2417 44.9332 45.9999 44.6992 46.7207C44.4652 47.4414 44.1002 48.1154 43.6509 48.7144C43.2016 49.3135 42.6587 49.847 42.0315 50.2776C41.4137 50.7082 40.7211 51.0358 39.991 51.2511C39.8038 51.2979 39.6259 51.3447 39.4387 51.3915C39.2515 51.4289 39.0643 51.457 38.8771 51.4851C38.7835 51.5038 38.6899 51.5132 38.5963 51.5132L38.3155 51.5319L38.0346 51.5413H37.8381C37.0892 51.5319 36.3311 51.4102 35.6103 51.1762L35.0768 50.9796C34.9083 50.9048 34.7304 50.8205 34.5619 50.7363C34.4777 50.6988 34.3935 50.652 34.3186 50.5959L34.0752 50.4461C34.0003 50.3993 33.9161 50.3525 33.8412 50.2963L33.6165 50.1278L33.3919 49.9594C33.317 49.9032 33.2515 49.8377 33.1766 49.7722L32.9707 49.5849C32.9052 49.5194 32.8303 49.4539 32.7741 49.3884C32.6431 49.248 32.5214 49.1076 32.3997 48.9672L32.0627 48.5179C31.6321 47.9001 31.3045 47.2074 31.0892 46.4867C31.0424 46.2995 30.9956 46.1216 30.9488 45.9344C30.9114 45.7472 30.8833 45.56 30.8552 45.3728C30.8272 45.1856 30.8178 44.9984 30.8084 44.8112L30.7991 44.5303V35.4882C30.8178 34.7394 30.9395 33.9906 31.1735 33.2698C31.4075 32.5491 31.7726 31.8751 32.2218 31.2761C32.6711 30.677 33.214 30.1434 33.8412 29.7129C34.459 29.2823 35.1516 28.9547 35.8818 28.7394C36.069 28.6926 36.2468 28.6458 36.434 28.599C36.6212 28.5615 36.8084 28.5335 36.9956 28.5054C37.0892 28.4867 37.1828 28.4773 37.2765 28.4773L37.5573 28.4586L37.8381 28.4492H38.0346V28.8985H37.8474L37.5666 28.9079C37.3888 28.9172 37.2109 28.9172 37.0424 28.9547C36.8646 28.9828 36.6961 29.0015 36.5183 29.0389C36.3498 29.0764 36.1719 29.1232 36.0034 29.17C35.3201 29.3759 34.6836 29.6848 34.0939 30.0779C33.5136 30.4804 33.0081 30.9765 32.5775 31.5381C32.1563 32.0998 31.81 32.7363 31.5947 33.4102C31.3794 34.0842 31.2671 34.7956 31.2577 35.4976V44.5116L31.2671 44.7737C31.2765 44.9516 31.2765 45.1294 31.3139 45.2979C31.342 45.4757 31.3607 45.6442 31.3981 45.8221C31.4356 45.9906 31.4824 46.1684 31.5292 46.3369C31.7351 47.0108 32.044 47.6567 32.4465 48.2371C32.5495 48.3775 32.6524 48.5179 32.7648 48.6583C32.8771 48.7893 32.9988 48.9204 33.1204 49.0514C33.1766 49.1169 33.2421 49.1824 33.3077 49.2386L33.5042 49.4165C33.5697 49.4726 33.6353 49.5381 33.7008 49.5943L33.9161 49.7534L34.1314 49.9126C34.2062 49.9687 34.2811 50.0062 34.356 50.053L34.5807 50.1934C34.6555 50.2402 34.7304 50.287 34.8147 50.3244C34.9738 50.3993 35.1329 50.4835 35.2921 50.5491C35.4605 50.6146 35.6197 50.6707 35.7882 50.7363C36.4621 50.9609 37.1641 51.0732 37.8755 51.0732H38.0627L38.3248 51.0639C38.5027 51.0545 38.6805 51.0545 38.849 51.0171C39.0268 50.989 39.1953 50.9703 39.3732 50.9328C39.5417 50.8954 39.7195 50.8486 39.888 50.8018C40.5713 50.5959 41.2078 50.287 41.7975 49.8938C42.3779 49.4913 42.8833 48.9952 43.3139 48.4336C43.7351 47.872 44.0814 47.2355 44.2967 46.5615C44.5214 45.8876 44.6337 45.1856 44.6431 44.4835V35.5631V35.4601L44.6337 35.198C44.6243 35.0202 44.6243 34.8424 44.5869 34.6739C44.5588 34.496 44.5401 34.3275 44.5027 34.1497C44.4652 33.9812 44.4184 33.8034 44.3716 33.6349C44.1657 32.9609 43.8568 32.3151 43.4543 31.7347C43.3513 31.5943 43.2484 31.4539 43.136 31.3135C43.0237 31.1824 42.902 31.0514 42.7804 30.9204C42.7242 30.8548 42.6587 30.7893 42.5931 30.7332L42.3966 30.5553C42.3311 30.4991 42.2655 30.4336 42.2 30.3775L41.9847 30.2183L41.7694 30.0592C41.6945 30.003 41.6197 29.9656 41.5448 29.9188L41.3201 29.7784C41.2453 29.7316 41.1704 29.6848 41.0861 29.6473C40.927 29.5725 40.7679 29.4882 40.6087 29.4227C40.4403 29.3572 40.2811 29.301 40.1126 29.2355C39.4387 29.0202 38.7273 28.9079 38.0253 28.8985Z" fill="white" stroke="white"/>
<path d="M44.6338 35.4601L44.6244 35.198C44.6151 35.0201 44.6151 34.8423 44.5776 34.6738C44.5495 34.4959 44.5308 34.3275 44.4934 34.1496C44.4559 33.9811 44.4091 33.8033 44.3623 33.6348C44.1564 32.9608 43.8475 32.315 43.445 31.7346C43.3421 31.5942 43.2391 31.4538 43.1268 31.3134C43.0144 31.1824 42.8928 31.0513 42.7711 30.9203C42.7149 30.8548 42.6494 30.7892 42.5839 30.7331L42.3873 30.5552C42.3218 30.4991 42.2563 30.4335 42.1907 30.3774L41.9754 30.2183L41.7602 30.0591C41.6853 30.003 41.6104 29.9655 41.5355 29.9187L41.3109 29.7783C41.236 29.7315 41.1611 29.6847 41.0768 29.6473C40.9177 29.5724 40.7586 29.4881 40.5995 29.4226C40.431 29.3571 40.2719 29.3009 40.1034 29.2354C39.4388 29.0201 38.7274 28.9078 38.0254 28.8984H37.8382L37.5667 28.9078C37.3889 28.9172 37.211 28.9172 37.0425 28.9546C36.8647 28.9827 36.6962 29.0014 36.5183 29.0388C36.3499 29.0763 36.172 29.1231 36.0035 29.1699C35.3202 29.3758 34.6837 29.6847 34.094 30.0778C33.5137 30.4803 33.0082 30.9764 32.5776 31.5381C32.1564 32.0997 31.8101 32.7362 31.5948 33.4101C31.3795 34.0841 31.2672 34.7955 31.2578 35.4975V44.5115L31.2672 44.7736C31.2765 44.9515 31.2765 45.1293 31.314 45.2978C31.3421 45.4757 31.3608 45.6441 31.3982 45.822C31.4357 45.9905 31.4825 46.1683 31.5293 46.3368C31.7352 47.0108 32.0441 47.6566 32.4466 48.237C32.5495 48.3774 32.6525 48.5178 32.7648 48.6582C32.8772 48.7892 32.9988 48.9203 33.1205 49.0513C33.1767 49.1168 33.2422 49.1824 33.3077 49.2385L33.5043 49.4164C33.5698 49.4725 33.6353 49.5381 33.7009 49.5942L33.9162 49.7534L34.1314 49.9125C34.2063 49.9686 34.2812 50.0061 34.3561 50.0529L34.5807 50.1933C34.6556 50.2401 34.7305 50.2869 34.8148 50.3243C34.9739 50.3992 35.133 50.4835 35.2921 50.549C35.4606 50.6145 35.6197 50.6707 35.7882 50.7362C36.4622 50.9608 37.1642 51.0732 37.8756 51.0732H38.0628L38.3249 51.0638C38.5027 51.0544 38.6806 51.0544 38.8491 51.017C39.0269 50.9889 39.1954 50.9702 39.3733 50.9328C39.5417 50.8953 39.7196 50.8485 39.8881 50.8017C40.5714 50.5958 41.2079 50.2869 41.7976 49.8938C42.3779 49.4913 42.8834 48.9952 43.314 48.4335C43.7352 47.8719 44.0815 47.2354 44.2968 46.5615C44.5215 45.8875 44.6338 45.1855 44.6431 44.4835V35.563C44.6338 35.5349 44.6338 35.5162 44.6338 35.4601ZM44.1845 35.5724V44.4835C44.1751 45.1387 44.0722 45.7939 43.8662 46.4211C43.6603 47.0482 43.3421 47.6379 42.9489 48.1621C42.5558 48.6863 42.0784 49.1543 41.5355 49.5287C40.9926 49.9031 40.3935 50.1933 39.757 50.3805C39.5979 50.4273 39.4388 50.4647 39.2797 50.5022C39.1205 50.5303 38.952 50.5583 38.7929 50.5771C38.6338 50.6051 38.4653 50.6051 38.3062 50.6145L38.0628 50.6239H37.8756C37.2204 50.6145 36.5651 50.5115 35.938 50.3056C35.7789 50.2495 35.6291 50.1933 35.47 50.1371C35.3202 50.0716 35.1704 49.9967 35.0207 49.9218C34.9458 49.8844 34.8709 49.847 34.8054 49.8002L34.5901 49.6691C34.5246 49.6223 34.4497 49.5849 34.3842 49.5381L34.1876 49.3883L33.991 49.2385C33.9255 49.1917 33.8694 49.1262 33.8038 49.0794L33.626 48.9109C33.5605 48.8548 33.5043 48.7986 33.4481 48.7424C33.3358 48.6207 33.2235 48.4991 33.1205 48.3774C33.0176 48.2463 32.924 48.1153 32.821 47.9842C32.4466 47.4413 32.1564 46.8423 31.9692 46.2058C31.9224 46.0466 31.885 45.8875 31.8475 45.7284C31.8194 45.5693 31.7914 45.4008 31.7726 45.2417C31.7446 45.0825 31.7446 44.914 31.7352 44.7549L31.7258 44.5115V35.4975C31.7352 34.8423 31.8382 34.187 32.0441 33.5599C32.25 32.9328 32.5683 32.3431 32.9614 31.8189C33.3545 31.2947 33.8319 30.8267 34.3748 30.4523C34.9177 30.0778 35.5168 29.7877 36.1533 29.6005C36.3124 29.5537 36.4715 29.5162 36.6307 29.4788C36.7898 29.4507 36.9583 29.4226 37.1174 29.4039C37.2765 29.3758 37.445 29.3758 37.6041 29.3665L37.8475 29.3571H38.0347C38.6899 29.3665 39.3452 29.4694 39.9723 29.6753C40.1314 29.7315 40.2812 29.7877 40.4403 29.8438C40.5901 29.9094 40.7399 29.9842 40.8896 30.0591C40.9645 30.0966 41.0394 30.134 41.1049 30.1808L41.3202 30.3119C41.3857 30.3587 41.4606 30.3961 41.5261 30.4429L41.7227 30.5927L41.9193 30.7424C41.9848 30.7892 42.041 30.8548 42.1065 30.9016L42.2843 31.07C42.3499 31.1262 42.406 31.1824 42.4622 31.2385C42.5745 31.3602 42.6868 31.4819 42.7898 31.6036C42.8928 31.7346 42.9864 31.8657 43.0893 31.9967C43.4637 32.5396 43.7539 33.1387 43.9411 33.7752C43.9879 33.9343 44.0254 34.0934 44.0628 34.2526C44.0909 34.4117 44.119 34.5802 44.1377 34.7393C44.1658 34.8984 44.1658 35.0669 44.1751 35.2261L44.1845 35.4694V35.5724Z" fill="#07828B"/>
<path d="M38.0254 30.2467V29.7974C38.6339 29.8067 39.2423 29.9003 39.8226 30.0875C39.963 30.1437 40.1128 30.1905 40.2532 30.2467L40.6651 30.4432C40.7306 30.4713 40.7961 30.5181 40.8616 30.5556L41.0582 30.6772C41.1237 30.7147 41.1893 30.7521 41.2548 30.7989L41.442 30.9393L41.6292 31.0797C41.6947 31.1265 41.7415 31.1827 41.7977 31.2295L41.9662 31.3793C42.0223 31.4261 42.0785 31.4822 42.1253 31.5384L42.4342 31.8754L42.7056 32.2404C43.052 32.7459 43.3234 33.2981 43.4919 33.8878L43.6042 34.3278C43.6323 34.4776 43.651 34.6273 43.6791 34.7771C43.7072 34.9268 43.7072 35.0766 43.7166 35.2357L43.7259 35.4604V44.4838C43.7166 45.0922 43.623 45.7006 43.4264 46.281C43.2392 46.8613 42.9396 47.4042 42.5746 47.891C42.2095 48.3777 41.7696 48.8083 41.2641 49.1546C40.7587 49.501 40.2064 49.763 39.6167 49.9409L39.1768 50.0532C39.027 50.0813 38.8772 50.1 38.7275 50.1281C38.5777 50.1562 38.4279 50.1562 38.2688 50.1655L38.0442 50.1749H37.857C37.2485 50.1655 36.6401 50.0719 36.0598 49.8847C35.9194 49.8286 35.7696 49.7818 35.6292 49.7256L35.2173 49.529C35.1518 49.501 35.0863 49.4542 35.0208 49.4167L34.8242 49.295C34.7587 49.2576 34.6932 49.2201 34.6276 49.1733L34.4404 49.0329L34.2532 48.8925C34.1877 48.8457 34.1409 48.7896 34.0847 48.7428L33.9162 48.593C33.8601 48.5462 33.8039 48.49 33.7571 48.4339L33.4482 48.0969L33.1768 47.7318C32.8304 47.2264 32.559 46.6741 32.3905 46.0844L32.2782 45.6445C32.2501 45.4947 32.2314 45.3449 32.2033 45.1952C32.1752 45.0454 32.1752 44.8956 32.1659 44.7365L32.1565 44.5119V35.4978C32.1659 34.8894 32.2595 34.281 32.456 33.7006C32.6432 33.1203 32.9428 32.5774 33.3078 32.0907C33.6729 31.6039 34.1128 31.1733 34.6183 30.827C35.1237 30.4807 35.676 30.2186 36.2657 30.0407L36.7056 29.9284C36.8554 29.9003 37.0052 29.8816 37.1549 29.8535C37.3047 29.8254 37.4545 29.8254 37.6136 29.8161L37.8382 29.8067H38.0254V30.2467H37.8382L37.6323 30.256C37.4919 30.2654 37.3515 30.2654 37.2111 30.2935C37.0707 30.3122 36.9303 30.3309 36.7899 30.359L36.378 30.462C35.8445 30.6211 35.3297 30.8644 34.871 31.1827C34.403 31.501 34.0005 31.9034 33.6635 32.3527C33.3265 32.802 33.0551 33.2981 32.8772 33.841C32.6994 34.3746 32.6152 34.9362 32.6058 35.4978V44.5025L32.6152 44.7084C32.6245 44.8488 32.6245 44.9893 32.6526 45.1297C32.6713 45.2701 32.69 45.4105 32.7181 45.5509L32.8211 45.9627C32.9802 46.5056 33.2329 47.0111 33.5512 47.4791L33.8039 47.8161L34.0847 48.125C34.1315 48.1811 34.1783 48.2279 34.2345 48.2747L34.3936 48.4151C34.4498 48.462 34.4966 48.5088 34.5528 48.5556L34.7212 48.6866L34.8897 48.8083C34.9459 48.8551 35.0114 48.8832 35.0676 48.9206L35.2454 49.0329C35.3016 49.0704 35.3671 49.1078 35.4326 49.1359L35.8164 49.3231C35.9474 49.3699 36.0785 49.4167 36.2095 49.4729C36.7431 49.6507 37.3047 49.735 37.8663 49.7443H38.0535L38.2595 49.735C38.3999 49.7256 38.5403 49.7256 38.6807 49.6975C38.8211 49.6788 38.9615 49.6601 39.1019 49.632L39.5137 49.529C40.0567 49.3699 40.5621 49.1265 41.0301 48.8083C41.4981 48.49 41.9006 48.0875 42.2376 47.6382C42.5746 47.1889 42.846 46.6928 43.0239 46.1499C43.2017 45.6164 43.286 45.0548 43.2953 44.4932V35.657V35.4698L43.286 35.2638C43.2766 35.1234 43.2766 34.983 43.2485 34.8426C43.2298 34.7022 43.2111 34.5618 43.183 34.4214L43.0801 34.0095C42.9209 33.4666 42.6682 32.9612 42.3499 32.4932L42.0972 32.1562L41.8164 31.8473C41.7696 31.7911 41.7228 31.7443 41.6666 31.6975L41.5075 31.5571C41.4513 31.5103 41.4045 31.4635 41.3484 31.4167L41.1799 31.2857L41.0114 31.164C40.9552 31.1172 40.8897 31.0891 40.8336 31.0517L40.6557 30.9393C40.5996 30.9019 40.534 30.8644 40.4685 30.8364L40.0847 30.6492C39.9537 30.6024 39.8226 30.5556 39.6916 30.4994C39.1487 30.3403 38.5871 30.256 38.0254 30.2467Z" fill="#07828B"/>
<path d="M42.64 34.1404C42.4902 33.6443 42.2655 33.1763 41.9754 32.7551L41.7414 32.4462L41.4793 32.156C41.4418 32.1092 41.3857 32.0624 41.3389 32.025L41.1985 31.8939C41.1517 31.8565 41.1049 31.8097 41.0581 31.7629L40.9083 31.6506L40.7492 31.5382C40.7024 31.5008 40.6368 31.4727 40.59 31.4353L40.4215 31.3323C40.3654 31.2949 40.3092 31.2668 40.2531 31.2387L39.9067 31.0702L39.5417 30.9392C39.0549 30.78 38.5401 30.6958 38.0253 30.6958C37.5292 30.6958 36.9956 30.7332 36.5089 30.8924C36.0128 31.0421 35.5448 31.2668 35.1236 31.557C34.693 31.8471 34.3279 32.2122 34.019 32.624C33.7102 33.0359 33.4574 33.4946 33.3077 33.9813C33.1485 34.468 33.0643 34.9829 33.0549 35.4977V44.3151C33.0549 44.8112 33.1017 45.3448 33.2515 45.8315C33.4013 46.3276 33.6259 46.7956 33.9161 47.2169L34.1501 47.5258L34.4122 47.8159C34.4496 47.8627 34.5058 47.9095 34.5526 47.947L34.693 48.078C34.7398 48.1155 34.7866 48.1623 34.8334 48.2091L34.9832 48.3214L35.1423 48.4337C35.1891 48.4712 35.2546 48.4992 35.3014 48.5367L35.4699 48.6396C35.5261 48.6771 35.5822 48.7052 35.6384 48.7332L35.9847 48.9017L36.3498 49.0328C36.8365 49.1919 37.3513 49.2761 37.8662 49.2761C38.3623 49.2761 38.8958 49.2387 39.3825 49.0796C39.8786 48.9298 40.3467 48.7052 40.7679 48.415C41.1985 48.1248 41.5635 47.7598 41.8724 47.3479C42.1813 46.936 42.434 46.4774 42.5838 45.9907C42.7429 45.5039 42.8272 44.9891 42.8365 44.4743V35.6568C42.8365 35.1607 42.7897 34.6365 42.64 34.1404ZM42.3872 35.6568V44.4836C42.3779 44.9517 42.303 45.4103 42.1626 45.8596C42.0222 46.3089 41.7882 46.7208 41.5167 47.0952C41.2359 47.4696 40.8989 47.7972 40.5151 48.0593C40.1314 48.3214 39.7008 48.5273 39.2609 48.6584L38.9239 48.7426L38.5776 48.7988C38.4652 48.8268 38.3435 48.8175 38.2312 48.8268L38.0534 48.8362H37.8662C37.3981 48.8268 36.9395 48.752 36.4902 48.6116L36.1626 48.4899L35.8443 48.3401C35.7882 48.3214 35.7414 48.2839 35.6946 48.2559L35.5448 48.1623C35.498 48.1342 35.4418 48.1061 35.395 48.0687L35.2546 47.9657L35.1142 47.8627C35.0674 47.8253 35.03 47.7878 34.9832 47.7504L34.8521 47.6287C34.8053 47.5913 34.7679 47.5538 34.7304 47.507L34.4964 47.2449L34.2905 46.9641C34.0284 46.5804 33.8225 46.1591 33.6914 45.7098L33.6072 45.3729C33.5885 45.2605 33.5698 45.1389 33.551 45.0265C33.5229 44.9142 33.5323 44.7925 33.5229 44.6802L33.5136 44.5024V35.4977C33.5229 35.0297 33.5978 34.571 33.7382 34.1217C33.8786 33.6724 34.1127 33.2605 34.3841 32.8861C34.6649 32.5117 35.0019 32.1841 35.3857 31.922C35.7694 31.6599 36.2 31.454 36.64 31.3229L36.9769 31.2387L37.3233 31.1825C37.4356 31.1545 37.5573 31.1638 37.6696 31.1545L37.8474 31.1451H38.0347C38.5027 31.1545 38.9613 31.2293 39.4106 31.3697L39.7382 31.4914L40.0565 31.6412C40.1127 31.6599 40.1595 31.6974 40.2063 31.7254L40.356 31.819C40.4028 31.8471 40.459 31.8752 40.5058 31.9126L40.6462 32.0156L40.7866 32.1186C40.8334 32.156 40.8708 32.1935 40.9176 32.2309L41.0487 32.3526C41.0955 32.39 41.1329 32.4275 41.1704 32.4743L41.4044 32.7364L41.6103 33.0172C41.8724 33.4009 42.0783 33.8222 42.2094 34.2715L42.2936 34.6084C42.3123 34.7208 42.3311 34.8424 42.3498 34.9548C42.3779 35.0671 42.3685 35.1888 42.3779 35.3011L42.3872 35.479V35.6568Z" fill="#07828B"/>
<path d="M41.9381 35.4789L41.9287 35.3198C41.9194 35.2168 41.9287 35.1138 41.9006 35.0109C41.8819 34.9079 41.8726 34.8049 41.8538 34.702L41.779 34.4024C41.6573 33.9999 41.4794 33.6255 41.2361 33.2792L41.0489 33.0265L40.8336 32.7924L40.7212 32.6801L40.6089 32.5772C40.5715 32.5397 40.534 32.5023 40.4872 32.4742L40.3655 32.3806L40.2439 32.287C40.2064 32.2495 40.1596 32.2308 40.1128 32.2027L39.9818 32.1185C39.935 32.0904 39.8975 32.0623 39.8414 32.0436L39.5606 31.9032L39.2704 31.7909C38.8772 31.6598 38.456 31.5943 38.0348 31.585H37.857L37.6978 31.5943C37.5949 31.6037 37.4919 31.5943 37.3889 31.6224L37.0801 31.6692L36.7805 31.7441C36.378 31.8658 36.0036 32.0436 35.6573 32.287C35.3109 32.521 35.0114 32.8205 34.7587 33.1575C34.506 33.4945 34.3 33.8595 34.1783 34.262C34.0473 34.6552 33.9818 35.0764 33.9724 35.4976V44.4929L33.9818 44.652C33.9911 44.755 33.9818 44.858 34.0099 44.9609C34.0286 45.0639 34.0379 45.1669 34.0567 45.2698L34.1315 45.5694C34.2532 45.9719 34.4311 46.3463 34.6744 46.6926L34.8616 46.9453L35.0769 47.1793L35.1893 47.2917L35.3016 47.3946C35.339 47.4321 35.3765 47.4695 35.4233 47.4976L35.545 47.5912L35.6666 47.6848C35.7041 47.7222 35.7509 47.741 35.7977 47.769L35.9287 47.8533C35.9755 47.8814 36.013 47.9095 36.0691 47.9282L36.3499 48.0686L36.6401 48.1809C37.0333 48.312 37.4545 48.3775 37.8757 48.3868H38.0535L38.2127 48.3775C38.3156 48.3681 38.4186 48.3775 38.5216 48.3494L38.8304 48.3026L39.13 48.2277C39.5325 48.106 39.9069 47.9282 40.2532 47.6848C40.5996 47.4508 40.8991 47.1513 41.1518 46.8143C41.4045 46.4773 41.6105 46.1123 41.7322 45.7098C41.8632 45.3166 41.9287 44.8954 41.9381 44.4742V35.6567V35.4789ZM41.4888 35.5725V44.4836C41.4794 44.858 41.4233 45.223 41.3109 45.5787C41.1986 45.9344 41.0208 46.262 40.7961 46.5522C40.5715 46.8424 40.3094 47.1138 40.0005 47.3197C39.6916 47.5257 39.3546 47.6848 39.0083 47.7971C38.9147 47.8158 38.8304 47.8439 38.7368 47.8627L38.4654 47.9001C38.3718 47.9188 38.2782 47.9095 38.1846 47.9188L38.0442 47.9282H37.8663C37.4919 47.9188 37.1269 47.8627 36.7712 47.7503L36.5091 47.6567C36.4248 47.6193 36.3406 47.5725 36.2563 47.535C36.2095 47.5163 36.1721 47.4882 36.1347 47.4695L36.013 47.3946C35.9755 47.3666 35.9287 47.3478 35.8913 47.3197L35.779 47.2355L35.6666 47.1513C35.6292 47.1232 35.6011 47.0857 35.5637 47.0577L35.4607 46.9641C35.4233 46.936 35.3952 46.8985 35.3577 46.8705L35.1705 46.6645L35.0021 46.4399C34.7961 46.131 34.6276 45.794 34.5247 45.4477C34.506 45.3541 34.4779 45.2698 34.4592 45.1762C34.4404 45.0826 34.4311 44.989 34.4124 44.9048C34.3936 44.8112 34.3936 44.7176 34.3936 44.624L34.3843 44.4836V35.4976C34.3936 35.1232 34.4498 34.7581 34.5621 34.4024C34.6744 34.0467 34.8523 33.7191 35.0769 33.429C35.3016 33.1388 35.5637 32.8673 35.8726 32.6614C36.1815 32.4555 36.5184 32.2963 36.8648 32.184C36.9584 32.1653 37.0426 32.1372 37.1362 32.1185L37.4077 32.0811C37.5013 32.0623 37.5949 32.0717 37.6885 32.0623L37.8289 32.053H38.0067C38.3811 32.0623 38.7462 32.1185 39.1019 32.2308L39.364 32.3244C39.4482 32.3619 39.5325 32.4087 39.6167 32.4461C39.6635 32.4648 39.701 32.4929 39.7384 32.5116L39.8601 32.5865C39.8975 32.6146 39.9443 32.6333 39.9818 32.6614L40.0941 32.7456L40.2064 32.8299C40.2439 32.858 40.2719 32.8954 40.3094 32.9235L40.4123 33.0171C40.4498 33.0452 40.4779 33.0826 40.5153 33.1107L40.7025 33.3166L40.871 33.5413C41.0769 33.8502 41.2454 34.1871 41.3484 34.5335C41.3671 34.6271 41.3952 34.7113 41.4139 34.8049C41.4326 34.8985 41.442 34.9921 41.4607 35.0764C41.4794 35.17 41.4794 35.2636 41.4794 35.3572L41.4888 35.4976V35.5725Z" fill="#07828B"/>
<path d="M41.4886 35.4788L41.4793 35.3384C41.4699 35.2448 41.4793 35.1512 41.4606 35.0576C41.4418 34.964 41.4325 34.8704 41.4138 34.7861C41.3857 34.6925 41.367 34.6083 41.3482 34.5147C41.2359 34.159 41.0768 33.822 40.8709 33.5225L40.7024 33.2978L40.5152 33.0919C40.4871 33.0545 40.4496 33.0264 40.4122 32.9983L40.3092 32.9047C40.2718 32.8766 40.2437 32.8392 40.2063 32.8111L40.0939 32.7268L39.9816 32.6426C39.9442 32.6145 39.9067 32.5958 39.8599 32.5677L39.7382 32.4928C39.7008 32.4648 39.6634 32.446 39.6166 32.4273C39.5323 32.3899 39.4481 32.3524 39.3638 32.3056L39.1017 32.212C38.746 32.0997 38.381 32.0435 38.0066 32.0342H37.8287L37.6883 32.0435C37.5947 32.0529 37.5011 32.0435 37.4075 32.0623L37.1548 32.1184C37.0612 32.1465 36.9769 32.1652 36.8833 32.1839C36.5276 32.2869 36.1907 32.4554 35.8911 32.6613C35.5822 32.8673 35.3201 33.1387 35.0955 33.4289C34.8709 33.7284 34.693 34.056 34.5807 34.4024C34.4684 34.758 34.4028 35.1231 34.4028 35.4975V44.4928L34.4122 44.6332C34.4216 44.7268 34.4122 44.8204 34.4309 44.9141C34.4496 45.0077 34.459 45.1013 34.4777 45.1855C34.5058 45.2791 34.5245 45.3634 34.5432 45.457C34.6556 45.8126 34.8147 46.1496 35.0206 46.4492L35.1891 46.6738L35.3763 46.8797C35.4044 46.9172 35.4418 46.9453 35.4793 46.9733L35.5822 47.0669C35.6197 47.095 35.6478 47.1325 35.6852 47.1605L35.7975 47.2448L35.9099 47.329C35.9473 47.3571 35.9847 47.3758 36.0315 47.4039L36.1532 47.4788C36.1907 47.5069 36.2281 47.5256 36.2749 47.5443C36.3592 47.5818 36.4434 47.6192 36.5276 47.666L36.7897 47.7596C37.1454 47.8719 37.5105 47.9281 37.8849 47.9375H38.0627L38.2031 47.9281C38.2967 47.9187 38.3904 47.9281 38.484 47.9094L38.7554 47.8719C38.849 47.8439 38.9333 47.8251 39.0269 47.8064C39.3826 47.7034 39.7195 47.535 40.0191 47.329C40.3279 47.1231 40.59 46.8517 40.8147 46.5615C41.0393 46.2619 41.2172 45.9343 41.3295 45.588C41.4418 45.2323 41.5074 44.8673 41.5074 44.4928V35.563C41.4886 35.535 41.4886 35.5069 41.4886 35.4788ZM41.0393 35.5724V44.4835C41.03 44.8111 40.9832 45.1293 40.8802 45.4289C40.7866 45.7378 40.6275 46.0186 40.4309 46.2807C40.2343 46.5334 40.0097 46.7674 39.7382 46.9546C39.4762 47.1325 39.1766 47.2729 38.8677 47.3665C38.7928 47.3852 38.7086 47.4039 38.6337 47.4226C38.5588 47.432 38.4746 47.4414 38.3997 47.4601C38.3248 47.4788 38.2406 47.4694 38.1563 47.4788L38.0347 47.4882H37.8568C37.5292 47.4788 37.2109 47.432 36.9114 47.329L36.6868 47.2448C36.6119 47.2073 36.5464 47.1699 36.4715 47.1418C36.434 47.1231 36.3966 47.1044 36.3685 47.0857L36.2655 47.0201C36.2281 47.0014 36.1907 46.9827 36.1626 46.9546L36.069 46.8797L35.9754 46.8048C35.9379 46.7861 35.9192 46.7487 35.8818 46.7206L35.7882 46.6364C35.7601 46.6083 35.7226 46.5802 35.7039 46.5521C35.6478 46.496 35.5916 46.4304 35.5448 46.3743L35.4044 46.1777C35.2265 45.9156 35.0861 45.6161 34.9925 45.3166C34.9738 45.2417 34.9551 45.1574 34.9364 45.0825L34.8989 44.8485C34.8802 44.7736 34.8896 44.6894 34.8802 44.6052L34.8709 44.4835V35.4975C34.8802 35.1699 34.927 34.8517 35.03 34.5521C35.1236 34.2432 35.2827 33.9624 35.4793 33.7003C35.6758 33.4476 35.9005 33.2136 36.1719 33.0264C36.434 32.8485 36.7336 32.7081 37.0425 32.6145C37.1173 32.5958 37.2016 32.5771 37.2765 32.5584C37.3514 32.549 37.4356 32.5396 37.5105 32.5209C37.5854 32.5022 37.6696 32.5116 37.7538 32.5022L37.8475 32.4928H38.0253C38.3529 32.5022 38.6712 32.549 38.9707 32.652L39.1953 32.7362C39.2702 32.7736 39.3357 32.8111 39.4106 32.8392C39.4481 32.8579 39.4855 32.8766 39.5136 32.8953L39.6259 32.9609C39.6634 32.9796 39.7008 32.9983 39.7289 33.0264L39.8225 33.1013L39.9161 33.1761C39.9535 33.1949 39.9723 33.2323 40.0097 33.2604L40.1033 33.3446C40.1314 33.3727 40.1688 33.4008 40.1875 33.4289C40.2437 33.485 40.2999 33.5506 40.3467 33.6067L40.4871 33.8033C40.6649 34.0654 40.8053 34.3649 40.8989 34.6644C40.9177 34.7393 40.9364 34.8236 40.9551 34.8985L40.9925 35.1325C41.0113 35.2073 41.0019 35.2916 41.0113 35.3758L41.0206 35.4975C41.0393 35.4975 41.0393 35.535 41.0393 35.5724Z" fill="white"/>
<path d="M41.0393 35.4881L41.03 35.3664C41.0206 35.2822 41.03 35.2073 41.0113 35.123L40.9738 34.889C40.9551 34.8141 40.9364 34.7299 40.9177 34.655C40.8241 34.3461 40.6836 34.0559 40.5058 33.7939L40.3654 33.5973C40.3092 33.5411 40.2531 33.4756 40.2063 33.4194L40.122 33.3352L40.0284 33.2509C40.0003 33.2229 39.9723 33.1948 39.9348 33.1667L39.8412 33.0918L39.7476 33.0169C39.7195 32.9889 39.6821 32.9795 39.6446 32.9514L39.5417 32.8859C39.5042 32.8672 39.4762 32.8391 39.4387 32.8297C39.3638 32.7923 39.289 32.7642 39.2234 32.7268L38.9988 32.6425C38.6899 32.5489 38.3716 32.4928 38.0534 32.4834H37.8943L37.8475 32.4928L37.7258 32.5021C37.6415 32.5115 37.5666 32.5021 37.4824 32.5208C37.4075 32.5302 37.3233 32.5489 37.2484 32.5583C37.1735 32.577 37.0893 32.6051 37.0144 32.6144C36.7055 32.708 36.4153 32.8485 36.1439 33.0263C35.8724 33.2041 35.6478 33.4382 35.4512 33.7002C35.264 33.9623 35.0955 34.2431 35.0019 34.552C34.8989 34.8609 34.8521 35.1792 34.8428 35.4974V44.4928L34.8521 44.6144C34.8615 44.6987 34.8521 44.7736 34.8709 44.8578L34.9083 45.0918C34.927 45.1667 34.9457 45.2509 34.9645 45.3258C35.0581 45.6347 35.1985 45.9249 35.3763 46.187L35.5167 46.3836C35.5729 46.4397 35.629 46.5052 35.6758 46.5614L35.7601 46.6456L35.8537 46.7299C35.8818 46.758 35.9099 46.7861 35.9473 46.8141L36.0409 46.889L36.1345 46.9639C36.1626 46.992 36.2 47.0013 36.2375 47.0294L36.3404 47.0949C36.3779 47.1137 36.406 47.1417 36.4434 47.1511C36.5183 47.1885 36.5932 47.2166 36.6587 47.2541L36.8833 47.3383C37.1922 47.4319 37.5105 47.4881 37.8287 47.4974H38.0066L38.1283 47.4881C38.2125 47.4787 38.2874 47.4881 38.3716 47.4694C38.4465 47.46 38.5308 47.4413 38.6056 47.4319C38.6805 47.4132 38.7648 47.3851 38.8397 47.3758C39.1485 47.2822 39.4387 47.1417 39.7102 46.9639C39.9816 46.7861 40.2063 46.552 40.4028 46.29C40.59 46.0279 40.7585 45.747 40.8521 45.4382C40.9551 45.1293 41.0019 44.811 41.0113 44.4928V35.563C41.0393 35.5349 41.0393 35.4974 41.0393 35.4881ZM40.59 35.5723V44.4834C40.5807 44.7642 40.5432 45.0357 40.459 45.2884C40.3841 45.5505 40.2437 45.7939 40.0752 46.0091C39.9067 46.2244 39.7195 46.4304 39.4855 46.5801C39.2609 46.7299 39.0081 46.8516 38.746 46.9358C38.6805 46.9545 38.615 46.9639 38.5495 46.992C38.484 47.0013 38.4184 47.0107 38.3436 47.0201C38.278 47.0388 38.2031 47.0294 38.1376 47.0388L38.0347 47.0481H37.8662C37.5854 47.0388 37.3139 47.0013 37.0612 46.9171C36.9957 46.889 36.9301 46.8703 36.8646 46.8516C36.8085 46.8235 36.7429 46.786 36.6774 46.758C36.6493 46.7486 36.6212 46.7299 36.5838 46.7112L36.4996 46.655C36.4715 46.6363 36.434 46.6269 36.4153 46.5988L36.3311 46.5333L36.2468 46.4772C36.2187 46.4584 36.2 46.4304 36.1719 46.4116L36.0971 46.3461C36.069 46.3274 36.0409 46.2993 36.0222 46.2712C35.9754 46.2151 35.9286 46.1683 35.8818 46.1215C35.8443 46.0653 35.7975 46.0091 35.7601 45.953C35.6103 45.7283 35.4886 45.4756 35.4044 45.2135C35.3857 45.148 35.3763 45.0825 35.3482 45.0169C35.3389 44.9514 35.3295 44.8859 35.3202 44.811C35.3014 44.7455 35.3108 44.6706 35.3014 44.6051L35.2921 44.5021V35.4974C35.3014 35.2166 35.3389 34.9452 35.4231 34.6924C35.498 34.4304 35.6384 34.187 35.8069 33.9717C35.9754 33.7564 36.1626 33.5505 36.3966 33.4007C36.6212 33.2509 36.874 33.1293 37.1361 33.045C37.2016 33.0263 37.2671 33.0169 37.3326 32.9889C37.3982 32.9795 37.4637 32.9701 37.5386 32.9608C37.6041 32.9421 37.679 32.9514 37.7445 32.9421L37.8475 32.9327H38.0159C38.2968 32.9421 38.5682 32.9795 38.8209 33.0637C38.8865 33.0918 38.952 33.1105 39.0175 33.1293C39.0737 33.1573 39.1392 33.1948 39.2047 33.2229C39.2328 33.2322 39.2609 33.2509 39.2983 33.2697L39.3826 33.3258C39.4106 33.3446 39.4481 33.3539 39.4668 33.382L39.551 33.4475L39.6353 33.5037C39.6634 33.5224 39.6821 33.5505 39.7102 33.5692L39.7851 33.6347C39.8131 33.6534 39.8412 33.6815 39.8599 33.7096C39.9067 33.7658 39.9535 33.8126 40.0003 33.8594C40.0378 33.9155 40.0846 33.9717 40.122 34.0279C40.2718 34.2525 40.3935 34.5052 40.4777 34.7673C40.4964 34.8329 40.5058 34.8984 40.5339 34.9639C40.5432 35.0294 40.5526 35.0949 40.562 35.1698C40.5807 35.2353 40.5713 35.3102 40.5807 35.3758L40.59 35.4787V35.5723Z" fill="#07828B"/>
<path d="M40.1408 35.4883C40.1408 35.4602 40.1315 35.4322 40.1315 35.4041C40.1221 35.3479 40.1315 35.2918 40.1221 35.2356L40.094 35.0671C40.0753 35.0109 40.0659 34.9641 40.0472 34.908C39.9817 34.6927 39.8787 34.4868 39.7571 34.2996C39.7196 34.2528 39.6915 34.206 39.6541 34.1592C39.6167 34.1217 39.5792 34.0749 39.5418 34.0375C39.523 34.0187 39.5043 34 39.4762 33.9813C39.4575 33.9626 39.4294 33.9439 39.4107 33.9251C39.392 33.9064 39.3733 33.8877 39.3452 33.869C39.3171 33.8503 39.2984 33.8409 39.2797 33.8222C39.261 33.8035 39.2329 33.7847 39.2142 33.766C39.1954 33.7473 39.1674 33.7379 39.1393 33.7192C39.1112 33.7005 39.0925 33.6911 39.0644 33.6724C39.0363 33.6537 39.0176 33.6443 38.9895 33.635C38.9333 33.6163 38.8865 33.5882 38.8397 33.5601C38.7836 33.5414 38.7368 33.5226 38.6806 33.5039C38.4653 33.4384 38.2407 33.401 38.016 33.3916H37.8475C37.8195 33.3916 37.7914 33.401 37.7633 33.401C37.7071 33.4103 37.651 33.401 37.5948 33.4103L37.4263 33.4384C37.3702 33.4571 37.3234 33.4665 37.2672 33.4852C37.0519 33.5507 36.846 33.6443 36.6588 33.7754C36.4716 33.8971 36.3124 34.0655 36.172 34.2434C36.041 34.4212 35.9193 34.6178 35.8538 34.8331C35.7883 35.0484 35.7508 35.2637 35.7415 35.4977V44.4836C35.7415 44.5117 35.7508 44.5398 35.7508 44.5679C35.7602 44.6241 35.7508 44.6802 35.7602 44.7364L35.7883 44.9049C35.807 44.961 35.8163 45.0078 35.8351 45.064C35.9006 45.2793 36.0035 45.4852 36.1252 45.6724C36.1627 45.7192 36.1908 45.766 36.2282 45.8128C36.2656 45.8503 36.3031 45.8971 36.3405 45.9345C36.3592 45.9532 36.378 45.9719 36.406 45.9907C36.4248 46.0094 36.4528 46.0281 36.4716 46.0468C36.4903 46.0655 36.509 46.0843 36.5371 46.103C36.5652 46.1217 36.5839 46.1311 36.6026 46.1498C36.6213 46.1685 36.6494 46.1872 36.6681 46.206C36.6869 46.2247 36.7149 46.234 36.743 46.2528C36.7711 46.2715 36.7898 46.2808 36.8179 46.2996C36.846 46.3183 36.8647 46.3276 36.8928 46.337C36.9489 46.3557 36.9957 46.3838 37.0425 46.4119C37.0987 46.4306 37.1455 46.4493 37.2017 46.468C37.417 46.5336 37.6416 46.571 37.8663 46.5804H38.0347C38.0628 46.5804 38.0909 46.571 38.119 46.571C38.1752 46.5616 38.2313 46.571 38.2875 46.5616L38.456 46.5336C38.5121 46.5148 38.5589 46.5055 38.6151 46.4868C38.8304 46.4212 39.0363 46.3276 39.2235 46.1966C39.4107 46.0749 39.5698 45.9064 39.7103 45.7286C39.8413 45.5507 39.963 45.3542 40.0285 45.1389C40.094 44.9236 40.1315 44.7083 40.1408 44.4743V35.5632V35.4883ZM39.6915 35.5726V44.4836C39.6822 44.6709 39.6541 44.8393 39.6073 45.0078C39.5605 45.1763 39.4669 45.3354 39.3639 45.4758C39.2516 45.6163 39.1299 45.7473 38.9801 45.8503C38.8304 45.9532 38.6713 46.0281 38.5028 46.0749C38.456 46.0843 38.4185 46.0936 38.3717 46.1124C38.3249 46.1217 38.2875 46.1217 38.2407 46.1311C38.1939 46.1498 38.1471 46.1311 38.1096 46.1404C38.0909 46.1404 38.0628 46.1404 38.0441 46.1498H37.8756C37.6884 46.1404 37.5199 46.1124 37.3514 46.0655C37.314 46.0468 37.2672 46.0375 37.2298 46.0187C37.1923 46 37.1549 45.9719 37.1081 45.9626C37.0893 45.9532 37.0706 45.9439 37.0519 45.9251C37.0332 45.9158 37.0145 45.8971 36.9957 45.8877C36.977 45.8783 36.9583 45.869 36.9396 45.8503C36.9209 45.8315 36.9021 45.8222 36.8834 45.8128C36.8647 45.8035 36.846 45.7847 36.8273 45.7754C36.8085 45.766 36.7992 45.7473 36.7805 45.7286C36.7617 45.7099 36.743 45.7005 36.7337 45.6818C36.7149 45.6724 36.6962 45.6537 36.6869 45.635C36.6588 45.5975 36.6307 45.5694 36.5932 45.532C36.5652 45.4946 36.5464 45.4571 36.5184 45.4197C36.4154 45.2699 36.3405 45.1108 36.2937 44.9423C36.2844 44.8955 36.275 44.8581 36.2563 44.8113C36.2469 44.7645 36.2469 44.727 36.2376 44.6802C36.2188 44.6334 36.2282 44.5866 36.2282 44.5492C36.2282 44.5304 36.2282 44.5024 36.2188 44.4836V35.4977C36.2282 35.3105 36.2563 35.142 36.3031 34.9735C36.3499 34.805 36.4435 34.6459 36.5464 34.5055C36.6588 34.3651 36.7805 34.234 36.9302 34.1311C37.08 34.0281 37.2391 33.9532 37.4076 33.9064C37.4544 33.8971 37.4918 33.8877 37.5386 33.869C37.5854 33.8596 37.6229 33.8596 37.6697 33.8503C37.7165 33.8315 37.7633 33.8503 37.8007 33.8409C37.8195 33.8409 37.8475 33.8409 37.8663 33.8315H38.0347C38.222 33.8409 38.3904 33.869 38.5589 33.9158C38.5964 33.9345 38.6432 33.9439 38.6806 33.9626C38.7181 33.9813 38.7555 34.0094 38.8023 34.0187C38.821 34.0281 38.8397 34.0375 38.8585 34.0562C38.8772 34.0655 38.8959 34.0843 38.9146 34.0936C38.9333 34.103 38.9521 34.1124 38.9708 34.1311C38.9895 34.1498 39.0082 34.1592 39.0269 34.1685C39.0457 34.1779 39.0644 34.1966 39.0831 34.206C39.1018 34.2153 39.1112 34.234 39.1299 34.2528C39.1486 34.2715 39.1674 34.2808 39.1767 34.2996C39.1954 34.3089 39.2142 34.3276 39.2235 34.3464C39.2516 34.3838 39.2797 34.4119 39.3171 34.4493C39.3452 34.4868 39.3639 34.5242 39.392 34.5616C39.495 34.7114 39.5698 34.8705 39.6167 35.039C39.626 35.0858 39.6354 35.1233 39.6541 35.1701C39.6635 35.2169 39.6635 35.2543 39.6728 35.3011C39.6915 35.3479 39.6822 35.3947 39.6822 35.4322C39.6822 35.4509 39.6822 35.479 39.6915 35.4977V35.5726Z" fill="#07828B"/>
<path opacity="0.4" d="M21.76 17.5H53.44C54.835 17.5 56.1729 18.0542 57.1594 19.0406C58.1458 20.0271 58.7 21.365 58.7 22.76V54.44C58.7 55.835 58.1458 57.1729 57.1594 58.1594C56.1729 59.1458 54.835 59.7 53.44 59.7H21.76C20.365 59.7 19.0271 59.1458 18.0406 58.1594C17.0542 57.1729 16.5 55.835 16.5 54.44V22.76C16.5 21.365 17.0542 20.0271 18.0406 19.0406C19.0271 18.0542 20.365 17.5 21.76 17.5ZM59.7 22.76C59.7 21.0997 59.0405 19.5075 57.8665 18.3335C56.6925 17.1595 55.1003 16.5 53.44 16.5H21.76C20.0997 16.5 18.5075 17.1595 17.3335 18.3335C16.1595 19.5075 15.5 21.0997 15.5 22.76V54.44C15.5 56.1003 16.1595 57.6925 17.3335 58.8665C18.5075 60.0405 20.0997 60.7 21.76 60.7H53.44C55.1003 60.7 56.6925 60.0405 57.8665 58.8665C59.0405 57.6925 59.7 56.1003 59.7 54.44V22.76Z" fill="#07828B"/>
</svg>
