<svg width="64" height="64" viewBox="0 0 64 64" fill="none" xmlns="http://www.w3.org/2000/svg">
<path opacity="0.4" d="M41.44 5H9.76C8.23235 5 6.76727 5.60686 5.68707 6.68707C4.60686 7.76727 4 9.23235 4 10.76V42.44C4 43.1964 4.14899 43.9454 4.43845 44.6443C4.72792 45.3431 5.1522 45.9781 5.68707 46.5129C6.22193 47.0478 6.85691 47.4721 7.55574 47.7615C8.25458 48.051 9.00359 48.2 9.76 48.2H41.44C42.9676 48.2 44.4327 47.5931 45.5129 46.5129C46.5931 45.4327 47.2 43.9676 47.2 42.44V10.76C47.2 9.23235 46.5931 7.76727 45.5129 6.68707C44.4327 5.60686 42.9676 5 41.44 5Z" fill="#5AB8DB"/>
<path d="M53.44 17H21.76C20.2324 17 18.7673 17.6069 17.6871 18.6871C16.6069 19.7673 16 21.2324 16 22.76V54.44C16 55.9676 16.6069 57.4327 17.6871 58.5129C18.7673 59.5931 20.2324 60.2 21.76 60.2H53.44C54.9677 60.2 56.4327 59.5931 57.5129 58.5129C58.5931 57.4327 59.2 55.9676 59.2 54.44V22.76C59.2 21.2324 58.5931 19.7673 57.5129 18.6871C56.4327 17.6069 54.9677 17 53.44 17Z" fill="#07828B"/>
<path fill-rule="evenodd" clip-rule="evenodd" d="M28.7691 46.3692C28.7691 48.4 30.4307 50.0615 32.4614 50.0615H43.5384C45.5691 50.0615 47.2307 48.4 47.2307 46.3692V38.9848H47.4154C48.8923 38.9848 50 37.8771 50 36.4925V34.1848C50 32.7079 48.8923 31.6002 47.5077 31.6002H45.8638C45.8642 31.5392 45.8585 31.4773 45.8461 31.4154C45.3846 29.3846 43.5384 28 41.5077 28C40.0705 28 38.8026 28.6344 37.9902 29.6742C37.1569 28.6344 35.8668 28 34.4922 28C32.4614 28 30.6153 29.3846 30.1538 31.4154C30.1414 31.4773 30.1356 31.5392 30.1361 31.6002H28.5846C27.1077 31.6002 26 32.7079 26 34.1848V36.4002C26 37.8771 27.1077 38.9848 28.5846 38.9848H28.7691V46.3692ZM41.5077 29.6615C42.7374 29.6615 43.7999 30.4138 44.1386 31.6002H38.8767C39.2154 30.4138 40.2779 29.6615 41.5077 29.6615ZM31.8613 31.6002H37.1231C36.7845 30.4138 35.7219 29.6615 34.4922 29.6615C33.2625 29.6615 32.1999 30.4138 31.8613 31.6002ZM30.1538 38.9848H45.8461V46.3692C45.8461 47.6615 44.8307 48.6769 43.5384 48.6769H32.4614C31.1691 48.6769 30.1538 47.6615 30.1538 46.3692V38.9848ZM27.4769 34.0925C27.4769 33.5386 27.9385 32.9848 28.5846 32.9848V33.0771H47.5077C48.0615 33.0771 48.6154 33.5386 48.6154 34.1848V36.4002C48.6154 36.954 48.1538 37.5079 47.5077 37.5079H28.5846C28.0308 37.5079 27.4769 37.0463 27.4769 36.4002V34.0925ZM40.0307 43.1386H35.9691C35.5999 43.1386 35.2307 43.5078 35.2307 43.877C35.2307 44.2463 35.5999 44.6155 35.9691 44.6155H40.0307C40.3999 44.6155 40.7691 44.2463 40.7691 43.877C40.7691 43.5078 40.3999 43.1386 40.0307 43.1386Z" fill="white"/>
<path opacity="0.4" d="M21.76 17.5H53.44C54.835 17.5 56.1729 18.0542 57.1594 19.0406C58.1458 20.0271 58.7 21.365 58.7 22.76V54.44C58.7 55.835 58.1458 57.1729 57.1594 58.1594C56.1729 59.1458 54.835 59.7 53.44 59.7H21.76C20.365 59.7 19.0271 59.1458 18.0406 58.1594C17.0542 57.1729 16.5 55.835 16.5 54.44V22.76C16.5 21.365 17.0542 20.0271 18.0406 19.0406C19.0271 18.0542 20.365 17.5 21.76 17.5ZM59.7 22.76C59.7 21.0997 59.0405 19.5075 57.8665 18.3335C56.6925 17.1595 55.1003 16.5 53.44 16.5H21.76C20.0997 16.5 18.5075 17.1595 17.3335 18.3335C16.1595 19.5075 15.5 21.0997 15.5 22.76V54.44C15.5 56.1003 16.1595 57.6925 17.3335 58.8665C18.5075 60.0405 20.0997 60.7 21.76 60.7H53.44C55.1003 60.7 56.6925 60.0405 57.8665 58.8665C59.0405 57.6925 59.7 56.1003 59.7 54.44V22.76Z" fill="#07828B"/>
</svg>
