<svg width="64" height="64" viewBox="0 0 64 64" fill="none" xmlns="http://www.w3.org/2000/svg">
<path opacity="0.4" d="M41.44 5H9.76C8.23235 5 6.76727 5.60686 5.68707 6.68707C4.60686 7.76727 4 9.23235 4 10.76V42.44C4 43.1964 4.14899 43.9454 4.43845 44.6443C4.72792 45.3431 5.1522 45.9781 5.68707 46.5129C6.22193 47.0478 6.85691 47.4721 7.55574 47.7615C8.25458 48.051 9.00359 48.2 9.76 48.2H41.44C42.9676 48.2 44.4327 47.5931 45.5129 46.5129C46.5931 45.4327 47.2 43.9676 47.2 42.44V10.76C47.2 9.23235 46.5931 7.76727 45.5129 6.68707C44.4327 5.60686 42.9676 5 41.44 5Z" fill="#5AB8DB"/>
<path d="M53.44 16.96H21.76C20.2324 16.96 18.7673 17.5668 17.6871 18.647C16.6069 19.7272 16 21.1923 16 22.72V54.4C16 55.9276 16.6069 57.3927 17.6871 58.4729C18.7673 59.5531 20.2324 60.16 21.76 60.16H53.44C54.9677 60.16 56.4327 59.5531 57.5129 58.4729C58.5931 57.3927 59.2 55.9276 59.2 54.4V22.72C59.2 21.1923 58.5931 19.7272 57.5129 18.647C56.4327 17.5668 54.9677 16.96 53.44 16.96Z" fill="#07828B"/>
<path fill-rule="evenodd" clip-rule="evenodd" d="M46.6799 31.0124C46.8852 31.1493 47.0905 31.3546 47.2959 31.6284C47.4305 31.8169 47.5758 32.0055 47.7275 32.2023C47.9613 32.5058 48.2104 32.8291 48.4595 33.2027C51.3343 37.5833 50.7182 42.1008 46.6799 46.2761C46.543 46.413 46.4061 46.4814 46.2007 46.4814C45.9954 46.4814 45.8585 46.413 45.7216 46.2761C45.4478 46.0023 45.4478 45.5916 45.7216 45.3178C49.3493 41.5533 49.8969 37.7887 47.2959 33.8872C47.0933 33.563 46.8667 33.2869 46.6445 33.0161C46.4914 32.8294 46.3404 32.6453 46.2007 32.4498L45.8585 32.1076L45.7216 31.9707C45.4478 31.6969 45.4478 31.2862 45.7216 31.0124C45.9954 30.7386 46.4061 30.7386 46.6799 31.0124ZM35.6599 27.59C36.4128 26.9056 37.3711 26.7002 38.124 27.0425C38.9453 27.3847 39.356 28.2745 39.356 29.3697V47.9873C39.356 49.0824 38.9453 49.9038 38.1924 50.246C37.9871 50.3829 37.6448 50.4514 37.3711 50.4514C36.8235 50.4514 36.2075 50.246 35.6599 49.8353L30.1157 45.4547H27.9938C26.1457 45.4547 24.6399 44.0173 24.6399 42.1008V35.393C24.6399 33.6134 26.1457 32.0391 27.9938 32.0391H30.4579L35.6599 27.59ZM37.5764 49.0824C37.8502 48.9455 37.9871 48.6033 37.9871 48.0557V29.5066C37.9871 28.959 37.7817 28.5483 37.508 28.4114C37.2342 28.2745 36.8919 28.4114 36.4812 28.7537L30.937 33.4765H27.9938C26.8987 33.4765 26.0089 34.3663 26.0089 35.4615V42.1693C26.0089 43.2644 26.8986 44.1542 27.9938 44.1542H30.5948L36.4812 48.8086C36.8919 49.0824 37.3026 49.2193 37.5764 49.0824ZM44.2158 34.6403C44.4896 34.914 44.695 35.2563 44.9003 35.5985H44.9003C46.543 38.0626 46.2008 40.5951 43.942 43.0592C43.8052 43.1961 43.6682 43.2646 43.4629 43.2646C43.2576 43.2646 43.1207 43.1961 42.9838 43.0593C42.71 42.7854 42.71 42.3748 42.9838 42.101C44.8319 40.116 45.1056 38.3364 43.8052 36.3514L43.7367 36.283C43.5998 36.0092 43.4629 35.8038 43.2576 35.5985L43.0522 35.3932C42.7785 35.1194 42.7785 34.7087 43.0522 34.4349C43.326 34.1611 43.7367 34.1611 44.0105 34.4349L44.2158 34.6403Z" fill="white"/>
<path d="M47.2959 31.6284L47.5563 31.4424L47.5519 31.4364L47.2959 31.6284ZM46.6799 31.0124L46.4536 31.2387L46.476 31.2611L46.5023 31.2786L46.6799 31.0124ZM47.7275 32.2023L47.474 32.3976V32.3976L47.7275 32.2023ZM48.4595 33.2027L48.727 33.0271L48.7257 33.0252L48.4595 33.2027ZM46.6799 46.2761L46.9062 46.5024L46.9099 46.4986L46.6799 46.2761ZM45.7216 46.2761L45.4953 46.5024L45.7216 46.2761ZM45.7216 45.3178L45.9479 45.5441L45.952 45.5399L45.7216 45.3178ZM47.2959 33.8872L47.0244 34.0568L47.0296 34.0647L47.2959 33.8872ZM46.6445 33.0161L46.8919 32.8131L46.8919 32.8131L46.6445 33.0161ZM46.2007 32.4498L46.4611 32.2638L46.4457 32.2422L46.427 32.2235L46.2007 32.4498ZM45.8585 32.1076L46.0848 31.8813L46.0847 31.8812L45.8585 32.1076ZM45.7216 31.9707L45.4953 32.1969L45.4954 32.197L45.7216 31.9707ZM45.7216 31.0124L45.4953 30.7861L45.4953 30.7861L45.7216 31.0124ZM38.124 27.0425L37.9915 27.3339L38.0009 27.3378L38.124 27.0425ZM35.6599 27.59L35.868 27.8333L35.8751 27.8268L35.6599 27.59ZM38.1924 50.246L38.06 49.9547L38.0364 49.9654L38.0149 49.9798L38.1924 50.246ZM35.6599 49.8353L35.4614 50.0865L35.4679 50.0913L35.6599 49.8353ZM30.1157 45.4547L30.3141 45.2036L30.2268 45.1347H30.1157V45.4547ZM30.4579 32.0391V32.3591H30.5761L30.6659 32.2823L30.4579 32.0391ZM37.5764 49.0824L37.7195 49.3687L37.7195 49.3686L37.5764 49.0824ZM37.508 28.4114L37.3648 28.6976L37.3649 28.6976L37.508 28.4114ZM36.4812 28.7537L36.2764 28.5078L36.2737 28.5101L36.4812 28.7537ZM30.937 33.4765V33.7965H31.0549L31.1446 33.7201L30.937 33.4765ZM30.5948 44.1542L30.7933 43.9032L30.706 43.8342H30.5948V44.1542ZM36.4812 48.8086L36.2828 49.0597L36.2929 49.0677L36.3037 49.0749L36.4812 48.8086ZM44.9003 35.5985L44.6259 35.7631L44.7191 35.9185H44.9003V35.5985ZM44.2158 34.6403L43.9896 34.8665L43.9896 34.8665L44.2158 34.6403ZM44.9003 35.5985L45.1666 35.421L45.0716 35.2785H44.9003V35.5985ZM43.942 43.0592L44.1685 43.2857L44.1779 43.2755L43.942 43.0592ZM42.9838 43.0593L43.2101 42.833L42.9838 43.0593ZM42.9838 42.101L43.2102 42.3274L43.218 42.319L42.9838 42.101ZM43.8052 36.3514L44.0728 36.1761L44.0547 36.1485L44.0314 36.1252L43.8052 36.3514ZM43.7367 36.283L43.4505 36.4261L43.4737 36.4725L43.5104 36.5093L43.7367 36.283ZM43.2576 35.5985L43.0313 35.8248V35.8248L43.2576 35.5985ZM43.0522 35.3932L43.2785 35.1669V35.1669L43.0522 35.3932ZM43.0522 34.4349L43.2785 34.6612L43.2785 34.6612L43.0522 34.4349ZM44.0105 34.4349L43.7842 34.6612L43.7842 34.6612L44.0105 34.4349ZM47.5519 31.4364C47.3326 31.144 47.1021 30.9093 46.8574 30.7461L46.5023 31.2786C46.6683 31.3893 46.8485 31.5653 47.0399 31.8204L47.5519 31.4364ZM47.981 32.007C47.8286 31.8092 47.687 31.6254 47.5563 31.4424L47.0355 31.8144C47.1741 32.0085 47.323 32.2017 47.474 32.3976L47.981 32.007ZM48.7257 33.0252C48.4697 32.6412 48.2143 32.3098 47.981 32.007L47.474 32.3976C47.7084 32.7018 47.951 33.0169 48.1932 33.3802L48.7257 33.0252ZM46.9099 46.4986C48.9626 44.3762 50.1682 42.1433 50.4792 39.8596C50.7907 37.5719 50.1994 35.2707 48.727 33.0271L48.1919 33.3783C49.5943 35.5152 50.1324 37.6632 49.845 39.7732C49.5571 41.8872 48.4355 44.0007 46.4499 46.0536L46.9099 46.4986ZM46.2007 46.8014C46.3408 46.8014 46.4717 46.7777 46.5959 46.7225C46.7187 46.6679 46.8188 46.5897 46.9061 46.5024L46.4536 46.0498C46.404 46.0994 46.3672 46.1238 46.336 46.1377C46.3062 46.1509 46.266 46.1614 46.2007 46.1614V46.8014ZM45.4953 46.5024C45.5827 46.5897 45.6827 46.6679 45.8055 46.7225C45.9297 46.7777 46.0607 46.8014 46.2007 46.8014V46.1614C46.1354 46.1614 46.0953 46.1509 46.0655 46.1377C46.0343 46.1238 45.9974 46.0994 45.9479 46.0498L45.4953 46.5024ZM45.4953 45.0916C45.0966 45.4903 45.0966 46.1036 45.4953 46.5024L45.9479 46.0498C45.7991 45.901 45.7991 45.6929 45.9479 45.5441L45.4953 45.0916ZM47.0296 34.0647C48.2966 35.9652 48.7797 37.8039 48.5276 39.6096C48.2746 41.421 47.2755 43.2441 45.4912 45.0958L45.952 45.5399C47.7954 43.627 48.8839 41.6855 49.1614 39.6981C49.4397 37.7049 48.8961 35.7107 47.5621 33.7097L47.0296 34.0647ZM46.3971 33.219C46.6208 33.4916 46.8344 33.7527 47.0245 34.0568L47.5672 33.7176C47.3521 33.3734 47.1126 33.0821 46.8919 32.8131L46.3971 33.219ZM45.9403 32.6358C46.0872 32.8414 46.2451 33.0337 46.3971 33.219L46.8919 32.8131C46.7377 32.6251 46.5935 32.4491 46.4611 32.2638L45.9403 32.6358ZM45.6322 32.3338L45.9744 32.6761L46.427 32.2235L46.0848 31.8813L45.6322 32.3338ZM45.4954 32.197L45.6323 32.3339L46.0847 31.8812L45.9478 31.7443L45.4954 32.197ZM45.4953 30.7861C45.0966 31.1849 45.0966 31.7982 45.4953 32.1969L45.9479 31.7444C45.7991 31.5956 45.7991 31.3875 45.9479 31.2386L45.4953 30.7861ZM46.9061 30.7861C46.5074 30.3874 45.8941 30.3874 45.4953 30.7861L45.9478 31.2387C46.0967 31.0899 46.3048 31.0899 46.4536 31.2387L46.9061 30.7861ZM38.2564 26.7511C37.3601 26.3437 36.2681 26.6047 35.4446 27.3533L35.8751 27.8268C36.5576 27.2064 37.382 27.0567 37.9916 27.3338L38.2564 26.7511ZM39.676 29.3697C39.676 28.2098 39.2376 27.1598 38.2471 26.7471L38.0009 27.3378C38.653 27.6096 39.036 28.3392 39.036 29.3697H39.676ZM39.676 47.9873V29.3697H39.036V47.9873H39.676ZM38.3248 50.5373C39.2344 50.1239 39.676 49.1536 39.676 47.9873H39.036C39.036 49.0113 38.6563 49.6837 38.06 49.9547L38.3248 50.5373ZM37.3711 50.7714C37.6771 50.7714 38.0911 50.6981 38.3699 50.5123L38.0149 49.9798C37.883 50.0677 37.6126 50.1314 37.3711 50.1314V50.7714ZM35.4679 50.0913C36.0644 50.5387 36.7466 50.7714 37.3711 50.7714V50.1314C36.9004 50.1314 36.3506 49.9533 35.8519 49.5793L35.4679 50.0913ZM29.9173 45.7058L35.4615 50.0864L35.8583 49.5843L30.3141 45.2036L29.9173 45.7058ZM27.9938 45.7747H30.1157V45.1347H27.9938V45.7747ZM24.3199 42.1008C24.3199 44.1983 25.9733 45.7747 27.9938 45.7747V45.1347C26.3182 45.1347 24.9599 43.8363 24.9599 42.1008H24.3199ZM24.3199 35.393V42.1008H24.9599V35.393H24.3199ZM27.9938 31.7191C25.9648 31.7191 24.3199 33.4409 24.3199 35.393H24.9599C24.9599 33.7859 26.3267 32.3591 27.9938 32.3591V31.7191ZM30.4579 31.7191H27.9938V32.3591H30.4579V31.7191ZM35.4519 27.3469L30.2499 31.7959L30.6659 32.2823L35.8679 27.8332L35.4519 27.3469ZM37.6671 48.0557C37.6671 48.5806 37.5323 48.7467 37.4333 48.7962L37.7195 49.3686C38.1681 49.1443 38.3071 48.626 38.3071 48.0557H37.6671ZM37.6671 29.5066V48.0557H38.3071V29.5066H37.6671ZM37.3649 28.6976C37.4793 28.7548 37.6671 29.0102 37.6671 29.5066H38.3071C38.3071 28.9078 38.0842 28.3418 37.6511 28.1252L37.3649 28.6976ZM36.6861 28.9995C36.878 28.8396 37.0321 28.7467 37.1517 28.7049C37.2641 28.6656 37.3247 28.6775 37.3648 28.6976L37.6511 28.1252C37.4175 28.0084 37.1701 28.0204 36.9402 28.1008C36.7175 28.1788 36.4952 28.3255 36.2764 28.5078L36.6861 28.9995ZM31.1446 33.7201L36.6887 28.9973L36.2737 28.5101L30.7295 33.2329L31.1446 33.7201ZM27.9938 33.7965H30.937V33.1565H27.9938V33.7965ZM26.3289 35.4615C26.3289 34.543 27.0754 33.7965 27.9938 33.7965V33.1565C26.7219 33.1565 25.6889 34.1896 25.6889 35.4615H26.3289ZM26.3289 42.1693V35.4615H25.6889V42.1693H26.3289ZM27.9938 43.8342C27.0754 43.8342 26.3289 43.0877 26.3289 42.1693H25.6889C25.6889 43.4412 26.7219 44.4742 27.9938 44.4742V43.8342ZM30.5948 43.8342H27.9938V44.4742H30.5948V43.8342ZM36.6797 48.5576L30.7933 43.9032L30.3963 44.4053L36.2828 49.0597L36.6797 48.5576ZM37.4333 48.7962C37.3938 48.816 37.3119 48.831 37.1644 48.7908C37.02 48.7514 36.8464 48.6675 36.6587 48.5424L36.3037 49.0749C36.5268 49.2236 36.7639 49.345 36.996 49.4083C37.2249 49.4707 37.4852 49.4858 37.7195 49.3687L37.4333 48.7962ZM45.1747 35.4339C44.9733 35.0982 44.7486 34.7205 44.4421 34.414L43.9896 34.8665C44.2306 35.1076 44.4166 35.4143 44.6259 35.7631L45.1747 35.4339ZM44.9003 35.2785H44.9003V35.9185H44.9003V35.2785ZM44.1779 43.2755C45.3375 42.0105 46.0281 40.7029 46.2016 39.3702C46.3757 38.0322 46.0236 36.7065 45.1666 35.421L44.6341 35.776C45.4198 36.9546 45.7179 38.1272 45.5669 39.2876C45.4152 40.4531 44.8054 41.6439 43.7061 42.843L44.1779 43.2755ZM43.4629 43.5846C43.6029 43.5846 43.7339 43.5609 43.8581 43.5056C43.9809 43.4511 44.081 43.3728 44.1683 43.2855L43.7158 42.833C43.6662 42.8825 43.6294 42.907 43.5982 42.9208C43.5684 42.9341 43.5282 42.9446 43.4629 42.9446V43.5846ZM42.7575 43.2855C42.8449 43.3729 42.9449 43.4511 43.0677 43.5057C43.1919 43.5609 43.3229 43.5846 43.4629 43.5846V42.9446C43.3976 42.9446 43.3574 42.9341 43.3276 42.9208C43.2965 42.907 43.2596 42.8825 43.2101 42.833L42.7575 43.2855ZM42.7575 41.8747C42.3587 42.2734 42.3587 42.8867 42.7575 43.2855L43.2101 42.833C43.0612 42.6841 43.0612 42.4761 43.2101 42.3273L42.7575 41.8747ZM43.5375 36.5268C44.1568 37.4721 44.3814 38.3354 44.2585 39.1801C44.1345 40.0328 43.6495 40.9164 42.7496 41.8829L43.218 42.319C44.1662 41.3006 44.7421 40.3019 44.8919 39.2723C45.0428 38.2347 44.754 37.2157 44.0728 36.1761L43.5375 36.5268ZM43.5104 36.5093L43.5789 36.5777L44.0314 36.1252L43.963 36.0567L43.5104 36.5093ZM43.0313 35.8248C43.2069 36.0003 43.3251 36.1753 43.4505 36.4261L44.0229 36.1399C43.8745 35.8431 43.719 35.6074 43.4838 35.3722L43.0313 35.8248ZM42.826 35.6194L43.0313 35.8248L43.4838 35.3722L43.2785 35.1669L42.826 35.6194ZM42.826 34.2086C42.4273 34.6074 42.4272 35.2207 42.826 35.6194L43.2785 35.1669C43.1297 35.0181 43.1297 34.81 43.2785 34.6612L42.826 34.2086ZM44.2368 34.2086C43.838 33.8099 43.2247 33.8099 42.826 34.2086L43.2785 34.6612C43.4273 34.5124 43.6354 34.5124 43.7842 34.6612L44.2368 34.2086ZM44.4421 34.414L44.2367 34.2086L43.7842 34.6612L43.9896 34.8665L44.4421 34.414Z" fill="white"/>
<path opacity="0.4" d="M21.76 17.5H53.44C54.835 17.5 56.1729 18.0542 57.1594 19.0406C58.1458 20.0271 58.7 21.365 58.7 22.76V54.44C58.7 55.835 58.1458 57.1729 57.1594 58.1594C56.1729 59.1458 54.835 59.7 53.44 59.7H21.76C20.365 59.7 19.0271 59.1458 18.0406 58.1594C17.0542 57.1729 16.5 55.835 16.5 54.44V22.76C16.5 21.365 17.0542 20.0271 18.0406 19.0406C19.0271 18.0542 20.365 17.5 21.76 17.5ZM59.7 22.76C59.7 21.0997 59.0405 19.5075 57.8665 18.3335C56.6925 17.1595 55.1003 16.5 53.44 16.5H21.76C20.0997 16.5 18.5075 17.1595 17.3335 18.3335C16.1595 19.5075 15.5 21.0997 15.5 22.76V54.44C15.5 56.1003 16.1595 57.6925 17.3335 58.8665C18.5075 60.0405 20.0997 60.7 21.76 60.7H53.44C55.1003 60.7 56.6925 60.0405 57.8665 58.8665C59.0405 57.6925 59.7 56.1003 59.7 54.44V22.76Z" fill="#07828B"/>
</svg>
