<svg width="64" height="64" viewBox="0 0 64 64" fill="none" xmlns="http://www.w3.org/2000/svg">
<path opacity="0.4" d="M41.44 5H9.76C8.23235 5 6.76727 5.60686 5.68707 6.68707C4.60686 7.76727 4 9.23235 4 10.76V42.44C4 43.1964 4.14899 43.9454 4.43845 44.6443C4.72792 45.3431 5.1522 45.9781 5.68707 46.5129C6.22193 47.0478 6.85691 47.4721 7.55574 47.7615C8.25458 48.051 9.00359 48.2 9.76 48.2H41.44C42.9676 48.2 44.4327 47.5931 45.5129 46.5129C46.5931 45.4327 47.2 43.9676 47.2 42.44V10.76C47.2 9.23235 46.5931 7.76727 45.5129 6.68707C44.4327 5.60686 42.9676 5 41.44 5Z" fill="#5AB8DB"/>
<path d="M53.44 17H21.76C20.2324 17 18.7673 17.6069 17.6871 18.6871C16.6069 19.7673 16 21.2324 16 22.76V54.44C16 55.9676 16.6069 57.4327 17.6871 58.5129C18.7673 59.5931 20.2324 60.2 21.76 60.2H53.44C54.9677 60.2 56.4327 59.5931 57.5129 58.5129C58.5931 57.4327 59.2 55.9676 59.2 54.44V22.76C59.2 21.2324 58.5931 19.7673 57.5129 18.6871C56.4327 17.6069 54.9677 17 53.44 17Z" fill="#07828B"/>
<path d="M45.4511 31.3676C41.6336 31.3676 39.7631 30.3696 37.7835 29.3171C35.166 27.7323 32.1496 26.93 29.0907 27.0048C28.8014 27.0048 28.524 27.1197 28.3195 27.3242C28.1149 27.5288 28 27.8062 28 28.0955V49.9093C28 50.1986 28.1149 50.476 28.3195 50.6805C28.524 50.8851 28.8014 51 29.0907 51C29.38 51 29.6574 50.8851 29.8619 50.6805C30.0665 50.476 30.1814 50.1986 30.1814 49.9093V29.2189C33.2789 29.388 34.975 30.3096 36.7583 31.2367C39.0575 32.6346 41.6722 33.4299 44.3604 33.5489V42.2145C42.179 41.98 40.7884 41.0638 39.3323 40.0985C37.6962 39.0078 36.0602 37.9172 33.4207 37.9172C33.1315 37.9172 32.8541 38.0321 32.6496 38.2367C32.4451 38.4412 32.3302 38.7186 32.3302 39.0078C32.3302 39.2971 32.4451 39.5745 32.6496 39.779C32.8541 39.9836 33.1315 40.0985 33.4207 40.0985C35.384 40.0985 36.6546 40.9438 38.1271 41.92C39.9213 43.1089 41.9499 44.4559 45.4511 44.4559C45.7403 44.4559 46.0177 44.3409 46.2223 44.1364C46.4268 43.9319 46.5418 43.6544 46.5418 43.3652V32.4582C46.5418 32.169 46.4268 31.8916 46.2223 31.687C46.0177 31.4825 45.7403 31.3676 45.4511 31.3676Z" fill="white"/>
<path opacity="0.4" d="M21.76 17.5H53.44C54.835 17.5 56.1729 18.0542 57.1594 19.0406C58.1458 20.0271 58.7 21.365 58.7 22.76V54.44C58.7 55.835 58.1458 57.1729 57.1594 58.1594C56.1729 59.1458 54.835 59.7 53.44 59.7H21.76C20.365 59.7 19.0271 59.1458 18.0406 58.1594C17.0542 57.1729 16.5 55.835 16.5 54.44V22.76C16.5 21.365 17.0542 20.0271 18.0406 19.0406C19.0271 18.0542 20.365 17.5 21.76 17.5ZM59.7 22.76C59.7 21.0997 59.0405 19.5075 57.8665 18.3335C56.6925 17.1595 55.1003 16.5 53.44 16.5H21.76C20.0997 16.5 18.5075 17.1595 17.3335 18.3335C16.1595 19.5075 15.5 21.0997 15.5 22.76V54.44C15.5 56.1003 16.1595 57.6925 17.3335 58.8665C18.5075 60.0405 20.0997 60.7 21.76 60.7H53.44C55.1003 60.7 56.6925 60.0405 57.8665 58.8665C59.0405 57.6925 59.7 56.1003 59.7 54.44V22.76Z" fill="#07828B"/>
</svg>
