<svg width="48" height="48" viewBox="0 0 48 48" fill="none" xmlns="http://www.w3.org/2000/svg">
<circle cx="24" cy="24" r="23.7" fill="black" stroke="#07828B" stroke-width="0.6"/>
<path d="M26.6375 28.4778C26.1953 29.3952 25.5555 30.1529 24.7935 30.7245C24.7699 30.7435 24.7455 30.7617 24.7203 30.7788C24.6815 30.8071 24.642 30.835 24.6021 30.8625C24.4269 30.9842 24.2444 31.0966 24.0587 31.1989C22.8166 31.881 21.3524 32.1259 19.9223 31.8454C20.0502 31.3466 20.2157 30.8513 20.4207 30.3633C20.4924 30.1905 20.5691 30.0203 20.6513 29.8502C20.6858 29.7781 20.7211 29.7076 20.7571 29.6374C21.2571 28.6538 21.8899 27.7814 22.622 27.0288C22.8468 26.7974 23.0809 26.578 23.3239 26.3699C23.4576 26.2552 23.5944 26.144 23.7336 26.037C24.7346 25.2607 25.8624 24.6736 27.0577 24.2949C27.2817 25.1727 27.3134 26.104 27.1297 27.0199C27.0294 27.5132 26.8674 28.0031 26.6387 28.4786H26.6379L26.6375 28.4778Z" fill="url(#paint0_linear_4050_283)"/>
<path d="M21.8005 35.4745C21.2377 36.2147 20.742 37.0251 20.3293 37.9002L20.2929 37.9773C19.9317 36.9569 19.7235 35.8822 19.6832 34.79C20.3793 35.0811 21.087 35.3078 21.8005 35.4745Z" fill="url(#paint1_linear_4050_283)"/>
<path fill-rule="evenodd" clip-rule="evenodd" d="M19.9504 36.817C20.0426 37.2177 20.1577 37.613 20.2949 38.0002L20.3313 37.9231C20.7441 37.048 21.2398 36.2376 21.8025 35.4973C21.5076 35.4284 21.2134 35.3493 20.9208 35.2598C20.5782 35.7613 20.2542 36.2802 19.9504 36.817Z" fill="url(#paint2_linear_4050_283)"/>
<path d="M38.0891 21.3872C38.2399 23.132 38.0748 24.8508 37.5008 26.5921C37.3287 27.113 37.1237 27.6296 36.8838 28.1381H36.8826C36.4737 29.0055 35.9839 29.8081 35.4273 30.5417C35.4215 30.5495 35.4165 30.5565 35.4107 30.5638C34.0542 32.3462 32.2997 33.7221 30.3356 34.6251C30.1988 34.6882 30.0612 34.7491 29.9217 34.8076C27.3653 35.8819 24.4858 36.1687 21.6837 35.5215C21.6713 35.5188 21.6593 35.5161 21.6473 35.5126C22.7107 34.1162 24.018 32.9683 25.4799 32.1032L25.5233 32.0769C26.5255 31.4878 27.5983 31.0308 28.7148 30.7169C28.7206 30.7154 28.7257 30.7138 28.7315 30.7123C31.642 29.8755 34.2592 28.0672 36.0641 25.4732C36.4893 24.8621 36.8698 24.2075 37.1977 23.5122" fill="url(#paint3_linear_4050_283)"/>
<path fill-rule="evenodd" clip-rule="evenodd" d="M11.377 23.4905C11.4932 27.0173 13.8736 32.1846 19.0568 34.6293C19.2479 34.7193 19.4393 34.8045 19.632 34.884C20.328 35.175 21.0357 35.4017 21.7492 35.5684C22.8127 34.172 24.1199 33.0241 25.5818 32.159L25.6252 32.1327C26.6274 31.5436 27.7002 31.0867 28.8167 30.7727C28.8198 30.772 28.8225 30.7712 28.8253 30.7704C28.828 30.7696 28.8307 30.7689 28.8338 30.7681C31.7444 29.9313 34.3615 28.123 36.1664 25.5291C36.5916 24.9179 36.9721 24.2633 37.3 23.568C37.6039 22.9239 37.8542 22.2697 38.0472 21.6077C38.1251 21.3403 38.0623 21.0504 37.8767 20.8423C37.1531 20.0315 36.2579 19.3506 35.2138 18.858C31.5975 17.152 27.3735 18.267 25.0311 21.312C24.7574 21.6655 24.485 22.0596 24.2005 22.4712C22.758 24.5575 21.4923 26.7072 17.2225 27.0948C13.7209 27.4126 12.6559 24.4206 12.7334 23.3355L11.377 23.4905ZM24.0684 31.2529C22.8317 31.9451 21.3694 32.2021 19.9374 31.9331H19.9366C20.0602 31.4328 20.2218 30.9359 20.423 30.4464C20.4935 30.2732 20.5687 30.1023 20.6493 29.9313C20.6834 29.8593 20.7179 29.7883 20.7532 29.7178C21.245 28.7303 21.8705 27.8529 22.5968 27.094C22.82 26.8611 23.0522 26.6394 23.2932 26.4294C23.4258 26.3135 23.5618 26.2011 23.6998 26.093C24.6947 25.3085 25.8178 24.7121 27.0095 24.3238C27.2409 25.2 27.2801 26.1306 27.1037 27.0479C27.0076 27.542 26.8495 28.0335 26.6247 28.5106C26.1902 29.4318 25.5562 30.1945 24.7989 30.7724C24.7753 30.7913 24.7512 30.8099 24.7264 30.8274C24.6881 30.8561 24.6489 30.884 24.6086 30.9119C24.4342 31.0351 24.2528 31.1487 24.068 31.2525L24.0684 31.2529Z" fill="url(#paint4_linear_4050_283)"/>
<path d="M11.7616 21.5163C11.9728 21.7903 12.1588 22.0903 12.3158 22.4139C12.4902 22.7735 12.6185 23.1433 12.7045 23.5169C12.7053 23.5184 12.7057 23.5196 12.7065 23.5211C12.708 23.5328 12.7115 23.5448 12.7142 23.556C12.7437 23.6921 12.7681 23.8285 12.7863 23.9653C12.7894 23.9847 12.7913 24.0037 12.7944 24.023C12.6545 24.1087 12.51 24.187 12.3596 24.2598C12.2092 24.3327 12.0484 24.4013 11.8903 24.4602C11.8534 24.4726 11.8166 24.4866 11.7798 24.499C10.9989 24.7668 10.1885 24.8354 9.40872 24.7272C7.7643 24.4978 6.26212 23.4801 5.4839 21.8752C5.23083 21.3531 5.07425 20.8106 5.00604 20.2656C5.14634 20.1808 5.29129 20.1013 5.44166 20.0285C6.25437 19.6347 7.12018 19.4735 7.96273 19.52C8.04063 19.5239 8.11931 19.5308 8.19721 19.539C9.51374 19.6707 10.7563 20.3098 11.6283 21.3516C11.6744 21.4055 11.7178 21.4605 11.7616 21.5167V21.5163Z" fill="url(#paint5_linear_4050_283)"/>
<path d="M18.0574 17.8011L18.1078 17.8143C18.4446 19.4858 17.9225 21.217 16.7436 22.4239C16.3394 22.8378 15.8572 23.1905 15.3065 23.4575C14.5225 23.8373 13.6912 24.0005 12.8777 23.9714C12.8591 23.9699 12.7948 23.985 12.7765 23.9842C12.7358 23.9005 12.7444 23.6947 12.713 23.5567C12.7107 23.5455 12.7072 23.5335 12.7056 23.5219C12.7048 23.5203 12.7044 23.5191 12.7037 23.5176C12.6176 23.144 12.4894 22.7743 12.315 22.4146C12.158 22.091 11.972 21.791 11.7607 21.517C12.0468 20.3873 12.7134 19.3614 13.6892 18.6421C13.94 18.4557 14.2124 18.2906 14.5047 18.1487C14.6593 18.0739 14.8159 18.0073 14.974 17.9484C15.0821 17.9084 15.1906 17.8724 15.3003 17.8402C16.2185 17.5693 17.1707 17.5689 18.0563 17.8019H18.057L18.0574 17.8011Z" fill="url(#paint6_linear_4050_283)"/>
<path fill-rule="evenodd" clip-rule="evenodd" d="M12.7648 24.0428C12.2323 24.0602 11.7021 24.0315 11.1797 23.9583C8.75702 23.618 6.5053 22.3239 5.00079 20.2769C5.069 20.8198 5.22558 21.3609 5.47788 21.881C6.25571 23.4858 7.75789 24.504 9.40231 24.733C10.1817 24.8411 10.9925 24.7725 11.7734 24.5047C11.7916 24.4985 11.8102 24.492 11.8288 24.4854C11.8474 24.4788 11.8656 24.4722 11.8842 24.466C12.0424 24.4071 12.2032 24.3385 12.3536 24.2656C12.4958 24.1966 12.6326 24.123 12.7652 24.0428H12.7648Z" fill="url(#paint7_linear_4050_283)"/>
<path fill-rule="evenodd" clip-rule="evenodd" d="M18.1157 17.8294L18.0653 17.8162H18.0645C17.1785 17.5836 16.2263 17.584 15.3086 17.8549C15.1989 17.8871 15.0904 17.9231 14.9822 17.9631C14.8241 18.022 14.6675 18.0886 14.5129 18.1634C14.2207 18.3053 13.9482 18.4704 13.6975 18.6568C12.7212 19.3761 12.0546 20.4024 11.769 21.5317C11.9802 21.8057 12.1662 22.1057 12.3232 22.4293C12.3278 22.4394 12.3329 22.4491 12.3375 22.4591C12.8491 21.1949 13.7021 20.0664 14.8435 19.2242C15.2121 18.9502 15.6124 18.7068 16.0418 18.4987C16.2689 18.3886 16.4991 18.2909 16.7317 18.2041C16.8906 18.1456 17.0503 18.0929 17.2115 18.0452C17.5118 17.9569 17.8145 17.8883 18.118 17.8387C18.1172 17.8352 18.1168 17.8321 18.116 17.8286L18.1157 17.8294Z" fill="url(#paint8_linear_4050_283)"/>
<path fill-rule="evenodd" clip-rule="evenodd" d="M24.1318 28.7498C25.1968 27.9507 26.0909 26.8919 26.709 25.6094H26.7102C26.8637 25.2913 26.9954 24.968 27.1067 24.6421C27.2826 25.4548 27.2954 26.307 27.1268 27.1469C27.0264 27.6402 26.8644 28.1301 26.6358 28.6053H26.635C26.1932 29.5222 25.5529 30.2799 24.791 30.8516C24.7674 30.8702 24.7429 30.8888 24.7177 30.9058C24.679 30.9341 24.6395 30.962 24.5992 30.9895C24.424 31.1112 24.2414 31.2236 24.0558 31.3259C22.8137 32.008 21.3495 32.253 19.9194 31.9724C20.0473 31.4736 20.2128 30.9783 20.4178 30.4904C20.4387 30.4404 20.4596 30.3908 20.4813 30.3411C21.3995 30.176 22.2866 29.8625 23.1047 29.4133C23.3644 29.2703 23.619 29.1134 23.864 28.9432C23.9201 28.9049 23.9756 28.8657 24.0294 28.8262C24.0643 28.8022 24.0984 28.7766 24.1314 28.7502L24.1318 28.7498Z" fill="url(#paint9_linear_4050_283)"/>
<path d="M31.0912 17.3316C31.0912 17.3316 31.6198 14.869 33.2871 14.433C34.8025 14.0369 35.0331 15.7999 34.0944 16.1274C33.1561 16.4541 32.0965 16.1018 31.0912 17.3316ZM30.0735 17.6866C30.0735 17.6866 31.0823 15.7154 30.5025 14.6291C29.8607 13.4254 28.5081 14.1761 28.6523 15.0143C28.7964 15.8526 30.218 16.4452 30.0735 17.687V17.6866Z" fill="url(#paint10_linear_4050_283)"/>
<path d="M33.6312 23.2563C34.123 23.488 34.7094 23.2784 34.9408 22.7877C35.1722 22.2971 34.9613 21.7111 34.4695 21.4793C33.9777 21.2472 33.3913 21.4572 33.16 21.9479C32.9286 22.4385 33.1394 23.0245 33.6312 23.2563Z" fill="white"/>
<path d="M34.1733 23.5021C33.995 23.5493 33.8021 23.54 33.6218 23.4875C33.4415 23.4351 33.2728 23.3395 33.1304 23.2068C33.0627 23.1418 33.0009 23.0636 32.9461 22.9885C32.8944 22.9066 32.8525 22.8215 32.8271 22.736C32.7952 22.6472 32.7827 22.5512 32.7742 22.4653C32.7686 22.3725 32.773 22.2761 32.7908 22.1861C32.7964 22.2789 32.8049 22.3648 32.8271 22.4572C32.8456 22.5395 32.8775 22.6287 32.9061 22.7073C32.9763 22.8715 33.0727 23.0155 33.2051 23.1354C33.3305 23.2519 33.4822 23.348 33.65 23.4109C33.811 23.4702 33.9909 23.5061 34.1737 23.5021H34.1733ZM34.0462 21.0739C34.3907 21.0396 34.7497 21.201 34.9821 21.4745C35.0402 21.5427 35.0882 21.6149 35.1302 21.7C35.1653 21.7823 35.2004 21.8642 35.2189 21.9469C35.2629 22.1151 35.2572 22.3007 35.2145 22.4608C35.2137 22.2886 35.1931 22.1232 35.1362 21.965C35.0862 21.8101 34.9995 21.6629 34.8938 21.5394C34.7909 21.4091 34.6558 21.3127 34.5146 21.2296C34.3798 21.1497 34.2225 21.1001 34.0462 21.0743V21.0739Z" fill="white"/>
<path fill-rule="evenodd" clip-rule="evenodd" d="M34.2728 22.3105C34.4414 22.39 34.6367 22.3464 34.7565 22.2161C34.7762 22.3557 34.7569 22.5025 34.6923 22.6397C34.5265 22.9907 34.1227 23.1532 33.7641 23.0254C33.8101 23.0032 33.8488 22.966 33.8722 22.9164C33.9262 22.8019 33.877 22.6647 33.7621 22.6106C33.6471 22.5566 33.5099 22.6054 33.4559 22.7204C33.4446 22.7446 33.4377 22.7696 33.4349 22.795C33.257 22.5784 33.2082 22.2702 33.3356 22.0003C33.4926 21.667 33.8645 21.5041 34.2086 21.5973C34.1522 21.6372 34.1054 21.6917 34.0739 21.7586C33.9763 21.966 34.065 22.2133 34.2728 22.3113V22.3105Z" fill="#07828B"/>
<path d="M32.769 21.5937C32.8827 21.5606 33.1559 21.5162 33.337 21.6017" stroke="white" stroke-width="0.310048" stroke-linecap="round"/>
<path d="M33.4307 20.8027C33.4028 20.9431 33.3637 21.2788 33.4274 21.4998" stroke="white" stroke-width="0.310048" stroke-linecap="round"/>
<defs>
<linearGradient id="paint0_linear_4050_283" x1="18.3329" y1="28.5736" x2="26.7724" y2="23.916" gradientUnits="userSpaceOnUse">
<stop stop-color="#07828B"/>
<stop offset="1" stop-color="#5AB8DB"/>
</linearGradient>
<linearGradient id="paint1_linear_4050_283" x1="20.5417" y1="34.7742" x2="20.3497" y2="37.1149" gradientUnits="userSpaceOnUse">
<stop stop-color="#07828B"/>
<stop offset="1" stop-color="#5AB8DB"/>
</linearGradient>
<linearGradient id="paint2_linear_4050_283" x1="19.9604" y1="36.7309" x2="20.9587" y2="35.7027" gradientUnits="userSpaceOnUse">
<stop stop-color="#07828B"/>
<stop offset="1" stop-color="#5AB8DB"/>
</linearGradient>
<linearGradient id="paint3_linear_4050_283" x1="23.7587" y1="34.3088" x2="37.8584" y2="21.1054" gradientUnits="userSpaceOnUse">
<stop stop-color="#07828B"/>
<stop offset="1" stop-color="#5AB8DB"/>
</linearGradient>
<linearGradient id="paint4_linear_4050_283" x1="18.3329" y1="29.8135" x2="38.8339" y2="23.2877" gradientUnits="userSpaceOnUse">
<stop stop-color="#07828B"/>
<stop offset="1" stop-color="#5AB8DB"/>
</linearGradient>
<linearGradient id="paint5_linear_4050_283" x1="5.00063" y1="20.4342" x2="13.5271" y2="25.1504" gradientUnits="userSpaceOnUse">
<stop stop-color="#07828B"/>
<stop offset="1" stop-color="#5AB8DB"/>
</linearGradient>
<linearGradient id="paint6_linear_4050_283" x1="12.6742" y1="23.3796" x2="17.798" y2="17.7294" gradientUnits="userSpaceOnUse">
<stop stop-color="#07828B"/>
<stop offset="1" stop-color="#5AB8DB"/>
</linearGradient>
<linearGradient id="paint7_linear_4050_283" x1="5.33824" y1="21.0914" x2="13.981" y2="27.7265" gradientUnits="userSpaceOnUse">
<stop stop-color="#5AB8DB"/>
<stop offset="1" stop-color="#07828B"/>
</linearGradient>
<linearGradient id="paint8_linear_4050_283" x1="12.0449" y1="18.5167" x2="17.8024" y2="20.0492" gradientUnits="userSpaceOnUse">
<stop stop-color="#5AB8DB"/>
<stop offset="1" stop-color="#07828B"/>
</linearGradient>
<linearGradient id="paint9_linear_4050_283" x1="28.1767" y1="22.2171" x2="23.2886" y2="30.9424" gradientUnits="userSpaceOnUse">
<stop stop-color="#5AB8DB"/>
<stop offset="1" stop-color="#07828B"/>
</linearGradient>
<linearGradient id="paint10_linear_4050_283" x1="27.8665" y1="17.179" x2="31.7747" y2="12.0436" gradientUnits="userSpaceOnUse">
<stop stop-color="#07828B"/>
<stop offset="1" stop-color="#5AB8DB"/>
</linearGradient>
</defs>
</svg>
