<svg width="64" height="64" viewBox="0 0 64 64" fill="none" xmlns="http://www.w3.org/2000/svg">
<path d="M15.1248 37.3333C22.1146 37.3333 27.7809 31.667 27.7809 24.6773C27.7809 17.6875 22.1146 12.0212 15.1248 12.0212C8.13507 12.0212 2.46875 17.6875 2.46875 24.6773C2.46875 31.667 8.13507 37.3333 15.1248 37.3333Z" fill="#FFD30F"/>
<path d="M15.1252 32.903C19.6681 32.903 23.3509 29.2202 23.3509 24.6773C23.3509 20.1343 19.6681 16.4515 15.1252 16.4515C10.5822 16.4515 6.89941 20.1343 6.89941 24.6773C6.89941 29.2202 10.5822 32.903 15.1252 32.903Z" fill="#EBB30E"/>
<path d="M58.9209 38.0529L61.6299 40.7196L58.9209 43.3862L56.2119 40.7196L58.9209 38.0529Z" fill="#D9D9D9"/>
<path d="M27.0607 9.42505L29.0642 11.3862L27.0607 13.3474L25.0713 11.3862L27.0607 9.42505Z" fill="#D9D9D9"/>
<path d="M53.2061 24.6772H2.37012V56.7478H53.2061V24.6772Z" fill="#C5C5C4"/>
<path d="M53.2061 31.7037H2.37012V38.194H53.2061V31.7037Z" fill="#9E9E9D"/>
<path d="M23.7738 44.0917H7.88672V48.3951H23.7738V44.0917Z" fill="white"/>
<path d="M43.3158 8.29634C41.9407 8.29913 40.5972 8.70943 39.4552 9.47545C38.3131 10.2415 37.4238 11.3288 36.8995 12.6001C36.3752 13.8714 36.2394 15.2695 36.5094 16.6179C36.7794 17.9663 37.443 19.2044 38.4164 20.1758C39.3897 21.1472 40.6292 21.8083 41.9781 22.0755C43.327 22.3428 44.7249 22.2042 45.9951 21.6773C47.2653 21.1504 48.3508 20.2588 49.1145 19.1153C49.8782 17.9717 50.2858 16.6274 50.2858 15.2522C50.2858 14.3376 50.1055 13.4319 49.755 12.5871C49.4046 11.7422 48.8909 10.9748 48.2435 10.3287C47.5961 9.68259 46.8276 9.17052 45.9821 8.82178C45.1365 8.47304 44.2305 8.29448 43.3158 8.29634ZM43.3158 18.4974L40.0707 15.2522L43.3158 12.0071L46.5751 15.2522L43.3158 18.4974Z" fill="#C5C5C4"/>
<path d="M45.6292 48.7337L45.855 49.8342L47.9714 44.4021H50.2853L46.8003 52.3598H44.5005L42.6239 45.6296C42.6108 45.5739 42.5866 45.5214 42.5526 45.4754C42.5187 45.4293 42.4757 45.3906 42.4264 45.3615C41.7524 45.0094 41.0365 44.7439 40.2959 44.5714V44.4021H43.795C44.0135 44.3779 44.2334 44.433 44.4146 44.5573C44.5959 44.6816 44.7265 44.8669 44.7827 45.0794L45.5446 48.7337H45.6292Z" fill="#FFD30F"/>
<path d="M9.80559 50.7937H7.88672V52.6843H9.80559V50.7937Z" fill="#D9D9D9"/>
</svg>
