<svg width="64" height="64" viewBox="0 0 64 64" fill="none" xmlns="http://www.w3.org/2000/svg">
<path d="M60.7127 32L63.3511 34.5961L60.7127 37.2063L58.0742 34.5961L60.7127 32Z" fill="#D9D9D9"/>
<path d="M5.14966 40.2963H2.37012V43.0194H5.14966V40.2963Z" fill="#D9D9D9"/>
<path d="M52.5569 8.29626H49.7773V11.0194H52.5569V8.29626Z" fill="#D9D9D9"/>
<path d="M20.91 58.074L22.843 59.9788L20.91 61.8977L18.9629 59.9788L20.91 58.074Z" fill="#D9D9D9"/>
<path d="M42.1241 7.60332L31.1514 13.9384L34.3189 19.4248L45.2916 13.0897L42.1241 7.60332Z" fill="#C5C5C4"/>
<path d="M21.6431 7.59947L18.4756 13.0858L29.4483 19.4209L32.6158 13.9346L21.6431 7.59947Z" fill="#C5C5C4"/>
<path d="M58.0739 18.963H5.92578V28.4444H58.0739V18.963Z" fill="#FFD30F"/>
<path d="M55.7033 28.4444H8.2959V54.5185H55.7033V28.4444Z" fill="#FFD30F"/>
<path d="M35.5554 5.9259H28.4443V54.5185H35.5554V5.9259Z" fill="#9E9E9D"/>
<path d="M55.7033 28.4444H8.2959V34.3703H55.7033V28.4444Z" fill="#9E9E9D"/>
</svg>
