<svg width="480" height="480" viewBox="0 0 480 480" fill="none" xmlns="http://www.w3.org/2000/svg">
<g clip-path="url(#clip0_11117_8952)">
<path d="M238.807 478.806C371.355 478.806 478.807 371.354 478.807 238.806C478.807 106.258 371.355 -1.19385 238.807 -1.19385C106.258 -1.19385 -1.19336 106.258 -1.19336 238.806C-1.19336 371.354 106.258 478.806 238.807 478.806Z" fill="url(#paint0_radial_11117_8952)"/>
<path d="M58.8689 236.805L65.0718 239.762C65.0718 239.762 68.1733 250.755 59.6934 255.832L51.6191 251.815C51.6191 251.815 60.3215 247.784 58.8689 236.805Z" fill="url(#paint1_linear_11117_8952)"/>
<path d="M383.958 140.922L377.585 145.293C377.585 145.293 376.067 158.039 386.365 162.187L394.623 156.324C394.623 156.324 384.324 153.367 383.958 140.922Z" fill="url(#paint2_linear_11117_8952)"/>
<path d="M92.3965 210.345L351.125 144.023L343.182 213.446L135.777 257.468L92.3965 210.345Z" fill="#121622"/>
<path opacity="0.5" d="M229.766 372.378C293.677 372.378 345.488 320.568 345.488 256.656C345.488 192.745 293.677 140.935 229.766 140.935C165.854 140.935 114.044 192.745 114.044 256.656C114.044 320.568 165.854 372.378 229.766 372.378Z" fill="url(#paint3_radial_11117_8952)"/>
<path d="M85.0439 208.145L134.366 261.694L345.945 217.096L355.38 139.403L85.0439 208.145ZM343.249 213.445L135.779 257.468L92.3984 210.357L351.127 144.036L343.249 213.445Z" fill="#1F2534"/>
<path d="M135.777 257.467L146.089 229.842L122.089 202.741L92.3965 210.344L135.777 257.467Z" fill="#373E4F"/>
<path d="M146.09 229.844L322.231 193.124L343.183 213.446L135.778 257.469L146.09 229.844Z" fill="#293040"/>
<path d="M322.231 193.123L326.314 150.383L351.126 144.023L343.183 213.446L322.231 193.123Z" fill="#181D2A"/>
<path d="M199.836 380.675C199.836 380.675 198.933 386.289 193.869 384.785C191.275 384.134 188.837 382.973 186.697 381.369L188.006 375.572L199.849 379.288L199.836 380.675Z" fill="#E8741F"/>
<path d="M380.218 263.003L250.193 284.556V395.462L380.218 355.104V263.003Z" fill="url(#paint4_linear_11117_8952)"/>
<path d="M96.875 259.875L250.194 284.556V395.462L96.875 350.288V259.875Z" fill="url(#paint5_linear_11117_8952)"/>
<path d="M380.219 263.003L224.466 244.617L96.875 259.876L250.194 284.556L380.219 263.003Z" fill="#373E4F"/>
<path d="M224.466 244.617V280.5L96.875 259.876L224.466 244.617Z" fill="#181D2A"/>
<path d="M224.462 247.889L357.078 263.592L250.189 281.219L120.269 260.281L224.462 247.823M224.462 244.552L96.8184 259.876L250.15 284.543L380.162 263.003L224.462 244.578V244.552Z" fill="#272E3F"/>
<path opacity="0.25" d="M96.875 259.875L250.194 284.556L380.219 263.003V263.408L251.816 285.89L251.306 395.122L250.194 395.462V285.733L96.875 260.647V259.875Z" fill="url(#paint6_radial_11117_8952)"/>
<path d="M213.039 82.1377L216.874 88.9949C216.874 88.9949 212.529 101.283 201.262 100.419L196.394 91.3504C196.394 91.3504 207.098 93.3003 213.039 82.1377Z" fill="url(#paint7_linear_11117_8952)"/>
<path d="M214.269 135.517L245.558 94.9494C245.558 94.9494 253.344 84.0747 271.73 83.4204C290.117 82.7661 308.712 86.836 310.505 97.3835C312.298 107.931 282.919 126.422 282.919 126.422L214.308 139.076L214.269 135.517Z" fill="url(#paint8_linear_11117_8952)"/>
<path d="M271.693 83.4337C253.372 84.088 245.521 94.9627 245.521 94.9627L214.231 135.53V137.702L238.742 134.575C238.742 134.575 275.475 103.246 286.572 94.0859C294.804 87.3073 298.193 86.7707 299.397 86.967C292.016 84.1535 281.796 83.0804 271.693 83.4337Z" fill="url(#paint9_linear_11117_8952)"/>
<path d="M207.584 137.27L160.474 115.023C160.474 115.023 148.408 108.781 131.501 116.659C114.593 124.537 99.5703 136.838 102.829 147.215C106.087 157.593 141.316 160.734 141.316 160.734L209.299 140.502L207.584 137.27Z" fill="url(#paint10_linear_11117_8952)"/>
<path d="M131.525 116.619C148.433 108.767 160.498 114.983 160.498 114.983L207.609 137.23L208.617 139.193L184.944 147.738C184.944 147.738 137.27 136.353 122.993 133.173C112.406 130.818 109.096 131.865 108.088 132.637C113.453 126.67 122.195 120.977 131.525 116.619Z" fill="url(#paint11_linear_11117_8952)"/>
<path d="M355.379 139.363L84.9772 208.145L82.7656 170.155L334.833 106.033L355.379 139.363Z" fill="url(#paint12_linear_11117_8952)"/>
<path d="M364.856 173.545C349.637 175.717 333.449 189.013 328.764 203.211C327.319 207.076 327.086 211.29 328.096 215.29H326.5L330.936 220.446C331.237 220.812 331.996 221.663 331.996 221.663C334.309 223.863 337.083 225.519 340.116 226.511C343.15 227.502 346.367 227.804 349.532 227.395C364.751 225.209 380.939 211.927 385.637 197.715C387.901 190.897 386.487 183.935 383.373 179.996C383.373 179.996 382.064 178.4 381.881 178.23L377.955 173.453L378.78 175.665C375.259 173.571 370.522 172.733 364.856 173.545ZM360.93 185.178C369.266 183.988 373.925 189.327 371.399 197.113C368.873 204.899 359.962 212.162 351.626 213.353C343.29 214.544 338.631 209.205 341.157 201.432C343.682 193.658 352.659 186.382 360.995 185.178H360.93Z" fill="url(#paint13_linear_11117_8952)"/>
<path d="M371.985 191.461C371.773 190.1 371.184 188.827 370.284 187.784L378.136 181.241L386.694 191.71C386.614 193.761 386.248 195.792 385.608 197.743C384.826 200.023 383.808 202.216 382.572 204.286L371.985 191.461Z" fill="#04A071"/>
<path d="M367.6 203.774C369.26 201.801 370.55 199.545 371.408 197.113C372.006 195.437 372.225 193.649 372.049 191.879L372.245 191.722L382.596 204.298C380.63 207.601 378.261 210.647 375.543 213.366L367.6 203.774Z" fill="#06966A"/>
<path d="M366.855 220.525L358.912 210.881C362.245 209.102 365.197 206.688 367.601 203.775L375.545 213.419C372.903 216.083 369.991 218.465 366.855 220.525Z" fill="#09845E"/>
<path d="M353.585 212.962C355.436 212.481 357.224 211.782 358.911 210.881L366.855 220.526C362.963 223.108 358.706 225.092 354.227 226.415L346.938 217.568C349.329 216.304 351.561 214.757 353.585 212.962Z" fill="#0C7352"/>
<path d="M360.599 168.585C345.38 170.771 329.192 184.053 324.494 198.265C319.796 212.477 328.289 222.226 343.522 220.041C358.754 217.855 374.929 204.586 379.613 190.374C384.298 176.162 375.818 166.413 360.599 168.585ZM356.673 180.232C364.996 179.041 369.668 184.381 367.142 192.154C364.617 199.927 355.718 207.216 347.382 208.407C339.046 209.598 334.387 204.259 336.913 196.472C339.439 188.686 348.403 181.423 356.739 180.232H356.673Z" fill="url(#paint14_linear_11117_8952)"/>
<path d="M360.679 168.507C345.421 170.693 329.272 184.014 324.483 198.265C319.693 212.516 328.291 222.292 343.549 220.106C358.808 217.921 375.022 204.599 379.746 190.348C384.47 176.097 375.938 166.322 360.679 168.507ZM367.223 192.141C364.605 199.993 355.759 207.242 347.41 208.433C339.061 209.624 334.324 204.272 336.941 196.472C339.558 188.673 348.405 181.384 356.754 180.18C365.103 178.976 369.84 184.381 367.249 192.141H367.223Z" fill="url(#paint15_linear_11117_8952)"/>
<path d="M363.122 208.197C375.6 198.318 380.765 184.058 374.659 176.346C368.553 168.634 353.488 170.39 341.011 180.269C328.534 190.148 323.369 204.408 329.475 212.12C335.58 219.832 350.645 218.075 363.122 208.197Z" fill="url(#paint16_linear_11117_8952)"/>
<path d="M364.276 208.36C376.045 199.042 380.916 185.59 375.156 178.315C369.396 171.039 355.185 172.695 343.416 182.013C331.647 191.331 326.776 204.782 332.537 212.058C338.297 219.334 352.507 217.678 364.276 208.36Z" fill="url(#paint17_linear_11117_8952)"/>
<path d="M350.446 194.98L340.906 203.211L343.838 206.626L353.377 198.382C356.636 201.536 360.104 202.988 361.609 201.68C363.114 200.371 362.198 196.733 359.58 193.03L361.897 191.015L365.6 195.32L370.206 191.394L359.855 179.315L355.236 183.241L358.939 187.547L356.649 189.614C353.377 186.474 349.923 185.008 348.405 186.317C346.887 187.625 347.829 191.276 350.446 194.98ZM348.915 186.919C350.224 186.513 353.024 187.573 355.877 190.282L352.54 193.161L355.471 196.576L358.808 193.697C361.059 196.93 361.687 199.822 361.098 201.091C359.672 201.392 356.623 199.429 353.247 195.516C349.87 191.603 348.418 188.306 348.915 186.919Z" fill="url(#paint18_linear_11117_8952)"/>
<path d="M350.134 194.614L340.594 202.859L343.525 206.261L353.065 198.03C356.323 201.171 359.791 202.636 361.309 201.328C362.827 200.019 361.885 196.368 359.268 192.665L361.584 190.662L365.288 194.968L369.907 191.042L359.569 179.016L354.962 182.942L358.666 187.247L356.336 189.262C353.078 186.108 349.61 184.656 348.092 185.964C346.574 187.273 347.516 190.924 350.134 194.614ZM348.616 186.553C349.924 186.161 352.712 187.208 355.564 189.916L352.227 192.809L355.159 196.211L358.496 193.332C360.747 196.564 361.375 199.456 360.786 200.726C359.359 201.027 356.323 199.064 352.934 195.151C349.545 191.238 348.079 187.927 348.616 186.553Z" fill="url(#paint19_linear_11117_8952)"/>
<path d="M194.825 139.795L204.26 181.671L242.197 171.948L226.363 131.747L194.825 139.795Z" fill="url(#paint20_linear_11117_8952)"/>
<path d="M203.435 178.02L204.416 182.404L242.693 172.747L240.848 168.494L203.435 178.02Z" fill="url(#paint21_linear_11117_8952)"/>
<path opacity="0.25" d="M82.7656 170.156L84.9772 208.145L355.379 139.364L355.222 139.089L86.0764 206.784L83.0012 170.103L82.7656 170.156Z" fill="url(#paint22_radial_11117_8952)"/>
<g opacity="0.5">
<path d="M298.819 294.58C291.046 296.15 287.16 296.909 279.399 298.348C288.337 308.988 297.93 320.124 306.553 330.776C310.008 323.173 311.696 319.522 315.073 312.612C308.582 305.428 305.297 301.62 298.819 294.58Z" fill="#121622"/>
<path d="M331.849 287.474V287.54C330.894 289.228 330.41 290.078 329.468 291.793L340.028 302.693C344.321 294.606 346.493 290.916 351.008 283.064C343.405 284.831 339.557 285.734 331.849 287.474Z" fill="#121622"/>
<path d="M308.358 299.605L319.285 311.448C318.539 312.914 318.173 313.646 317.427 315.151C314.064 322.126 312.389 325.804 308.947 333.472C312.389 337.398 314.116 339.348 317.532 343.313C318.487 344.373 318.958 344.91 319.914 345.93C323.237 338.079 324.873 334.153 328.145 326.929C332.149 318.07 334.138 313.934 338.195 306.122C334.073 301.79 331.953 299.579 327.726 295.129C320.005 296.922 316.132 297.864 308.358 299.605Z" fill="#121622"/>
</g>
<g opacity="0.5">
<path d="M128.226 331.183L114.812 328.33V297.525L127.585 300.234C133.984 301.542 137.399 305.913 137.399 311.239C137.435 312.37 137.132 313.485 136.531 314.443C135.93 315.401 135.057 316.158 134.023 316.618C135.209 317.48 136.174 318.612 136.836 319.92C137.498 321.229 137.839 322.676 137.831 324.142C137.831 330.031 133.722 332.36 128.226 331.183ZM127.101 306.934L122.389 305.926V310.951L127.101 311.946C129.181 312.391 129.836 311.226 129.836 310.022C129.843 309.26 129.568 308.522 129.063 307.951C128.557 307.381 127.858 307.018 127.101 306.934ZM127.493 318.829L122.389 317.743V323.095L127.493 324.182C129.574 324.627 130.267 323.344 130.267 322.049C130.272 321.267 129.994 320.511 129.484 319.919C128.974 319.327 128.266 318.94 127.493 318.829Z" fill="#121622"/>
<path d="M152.03 336.509C145.631 335.201 140.396 329.704 140.396 322.952V302.956L147.96 304.566V324.404C147.866 325.642 148.228 326.87 148.978 327.859C149.728 328.847 150.813 329.527 152.03 329.77C154.543 330.306 156.192 329.011 156.192 326.145V306.319L163.769 307.929V327.925C163.769 334.677 158.442 337.87 152.03 336.509Z" fill="#121622"/>
<path d="M167.315 339.492V308.7L174.892 310.31V341.128L167.315 339.492Z" fill="#121622"/>
<path d="M198.697 343.131C196.577 344.806 193.58 345.081 190.387 344.44L178.963 342.006V311.148L190.387 313.582C193.622 314.194 196.553 315.887 198.697 318.385C202.283 322.73 201.89 326.59 201.89 331.471C201.89 336.353 202.283 340.305 198.697 343.131ZM193.462 322.73C193.082 322.067 192.557 321.499 191.928 321.066C191.298 320.634 190.579 320.348 189.825 320.23L186.487 319.511V336.824L189.825 337.53C190.455 337.769 191.144 337.805 191.796 337.634C192.448 337.462 193.03 337.092 193.462 336.575C194.064 335.842 194.287 335.07 194.287 329.823C194.287 324.575 194.104 323.724 193.502 322.73H193.462Z" fill="#121622"/>
<path d="M204.963 347.503V316.685L212.54 318.294V342.36L225.482 345.108V351.887L204.963 347.503Z" fill="#121622"/>
</g>
<path d="M193.868 384.732C193.868 384.732 189.065 384.405 189.942 376.985C190.819 369.565 203.277 331.706 200.045 308.687C196.812 285.669 178.243 285.028 173.545 283.954C168.847 282.881 152.947 279.008 152.947 279.008C152.947 279.008 172.367 288.574 171.949 314.341C171.517 340.579 158.862 366.097 166.963 376.749L193.868 384.732Z" fill="url(#paint23_linear_11117_8952)"/>
<path d="M176.751 284.53C176.751 284.53 164.686 287.252 152.568 299.305C140.45 311.357 111.529 323.645 100.55 299.868C100.55 299.868 114.644 297.002 124.615 289.621C134.587 282.24 140.489 275.998 152.934 279.008C165.379 282.018 176.751 284.53 176.751 284.53Z" fill="url(#paint24_linear_11117_8952)"/>
<path d="M107.59 309.093C107.59 309.093 88.4054 300.286 82.726 295.837C77.0465 291.388 67.8861 269.874 67.3496 265.896C67.3496 265.896 82.9484 273.093 91.3367 275.357C91.3105 275.357 96.0216 299.056 107.59 309.093Z" fill="url(#paint25_linear_11117_8952)"/>
<path d="M363.688 345.185C363.688 345.185 383.736 350.42 399.02 302.21L425.991 298.742C425.991 298.742 419.278 327.833 399.426 338.839C379.574 349.844 363.688 345.185 363.688 345.185Z" fill="url(#paint26_linear_11117_8952)"/>
<mask id="mask0_11117_8952" style="mask-type:luminance" maskUnits="userSpaceOnUse" x="111" y="181" width="244" height="101">
<path d="M128.567 261.694L249.746 281.363L354.659 263.723L337.411 181.672L203.709 182.405L111.438 205.279L128.567 261.694Z" fill="white"/>
</mask>
<g mask="url(#mask0_11117_8952)">
<path d="M335.436 219.949H336.509V192.468C336.509 190.19 335.605 188.005 333.996 186.393C332.386 184.781 330.202 183.874 327.924 183.87H151.535C150.406 183.87 149.289 184.093 148.247 184.525C147.204 184.957 146.257 185.591 145.46 186.389C144.663 187.188 144.031 188.136 143.6 189.179C143.169 190.222 142.948 191.339 142.95 192.468V219.949H144.455C146.6 219.949 148.657 220.801 150.174 222.318C151.69 223.834 152.542 225.891 152.542 228.036C152.542 230.181 151.69 232.238 150.174 233.755C148.657 235.272 146.6 236.124 144.455 236.124H142.95V315.557C142.948 316.686 143.169 317.803 143.6 318.846C144.031 319.889 144.663 320.837 145.46 321.636C146.257 322.434 147.204 323.068 148.247 323.5C149.289 323.932 150.406 324.155 151.535 324.155H327.924C330.202 324.151 332.386 323.244 333.996 321.632C335.605 320.02 336.509 317.835 336.509 315.557V236.124H335.436C333.291 236.124 331.234 235.272 329.717 233.755C328.201 232.238 327.349 230.181 327.349 228.036C327.349 225.891 328.201 223.834 329.717 222.318C331.234 220.801 333.291 219.949 335.436 219.949Z" fill="#D8A016"/>
<path d="M334.48 221.023H335.553V193.542C335.553 192.412 335.331 191.294 334.899 190.251C334.467 189.208 333.834 188.26 333.035 187.462C332.237 186.664 331.289 186.03 330.246 185.598C329.203 185.166 328.085 184.944 326.956 184.944H150.566C148.288 184.947 146.105 185.855 144.495 187.467C142.885 189.079 141.981 191.264 141.981 193.542V221.023H143.486C145.631 221.023 147.688 221.875 149.205 223.391C150.722 224.908 151.574 226.965 151.574 229.11C151.574 231.255 150.722 233.312 149.205 234.829C147.688 236.345 145.631 237.197 143.486 237.197H141.981V316.631C141.981 318.909 142.885 321.094 144.495 322.706C146.105 324.318 148.288 325.225 150.566 325.229H326.956C328.085 325.229 329.203 325.006 330.246 324.574C331.289 324.142 332.237 323.509 333.035 322.71C333.834 321.912 334.467 320.964 334.899 319.921C335.331 318.878 335.553 317.76 335.553 316.631V237.197H334.48C332.335 237.197 330.278 236.345 328.762 234.829C327.245 233.312 326.393 231.255 326.393 229.11C326.393 226.965 327.245 224.908 328.762 223.391C330.278 221.875 332.335 221.023 334.48 221.023Z" fill="url(#paint27_linear_11117_8952)"/>
</g>
<path d="M286.165 268.276C286.165 268.276 280.29 268.655 280.106 276.259L280.826 276.141L299.042 273.131L296.15 267.831L289.738 268.145H287.461L286.165 268.276Z" fill="#E8741F"/>
<path d="M286.166 268.277C286.755 268.277 288.077 268.277 288.705 268.277C302.275 269.101 322.127 306.135 330.581 320.543C339.035 334.951 348.902 344.229 363.702 345.119C375.179 345.813 381.918 336.26 381.918 336.26C381.918 336.26 375.375 340.604 360.98 319.836C346.585 299.069 334.808 263.225 309.119 265.712C287.776 267.845 286.166 268.277 286.166 268.277Z" fill="url(#paint28_linear_11117_8952)"/>
<path d="M188.775 220.132C188.741 219.473 188.567 218.829 188.264 218.242C187.962 217.656 187.538 217.14 187.022 216.729C185.72 215.841 184.159 215.413 182.586 215.512C181.509 215.484 180.435 215.652 179.419 216.01C178.673 216.254 178.014 216.708 177.521 217.318C177.095 217.884 176.865 218.573 176.867 219.281C176.826 219.842 176.954 220.403 177.233 220.891C177.531 221.379 177.933 221.795 178.411 222.108C179.003 222.491 179.641 222.798 180.309 223.024C181.124 223.315 181.959 223.547 182.808 223.718L186.289 224.516C188.124 224.894 189.911 225.478 191.615 226.256C193.058 226.909 194.384 227.793 195.541 228.874C196.573 229.847 197.385 231.029 197.923 232.341C198.487 233.738 198.772 235.232 198.76 236.738C198.799 239.068 198.118 241.353 196.81 243.282C195.428 245.2 193.512 246.67 191.301 247.508C188.529 248.547 185.584 249.045 182.625 248.974C179.596 249.039 176.584 248.519 173.752 247.443C171.365 246.532 169.312 244.916 167.864 242.81C166.388 240.462 165.637 237.731 165.704 234.959H175.1C175.133 236.122 175.496 237.252 176.147 238.217C176.805 239.123 177.715 239.815 178.764 240.206C179.974 240.673 181.263 240.9 182.559 240.874C183.708 240.907 184.854 240.725 185.936 240.337C186.774 240.045 187.519 239.534 188.095 238.858C188.589 238.236 188.861 237.467 188.867 236.673C188.865 235.955 188.61 235.26 188.147 234.71C187.563 234.068 186.831 233.578 186.014 233.284C184.832 232.804 183.61 232.428 182.363 232.158L178.123 231.164C175.065 230.582 172.205 229.231 169.813 227.238C168.804 226.316 168.01 225.182 167.49 223.917C166.97 222.652 166.735 221.288 166.804 219.923C166.748 217.558 167.459 215.24 168.832 213.314C170.282 211.364 172.23 209.84 174.472 208.904C177.075 207.807 179.879 207.267 182.703 207.321C185.516 207.253 188.311 207.793 190.895 208.904C193.078 209.864 194.95 211.414 196.3 213.379C197.59 215.361 198.272 217.676 198.263 220.04L188.775 220.132ZM180.924 253.62V202.884H184.169V253.62H180.924Z" fill="url(#paint29_linear_11117_8952)"/>
<path d="M203.619 248.504V241.451L218.42 228.495C219.532 227.488 220.474 226.572 221.259 225.734C221.975 224.981 222.575 224.125 223.039 223.195C223.451 222.324 223.662 221.372 223.654 220.408C223.682 219.399 223.428 218.402 222.921 217.529C222.437 216.728 221.733 216.083 220.893 215.671C219.977 215.222 218.968 214.998 217.949 215.016C216.922 214.998 215.906 215.232 214.991 215.697C214.151 216.145 213.463 216.833 213.015 217.673C212.528 218.642 212.29 219.717 212.321 220.801H203.017C202.952 218.29 203.601 215.812 204.888 213.655C206.143 211.63 207.963 210.015 210.123 209.01C212.581 207.873 215.267 207.313 217.975 207.374C220.728 207.309 223.464 207.835 225.997 208.918C228.11 209.835 229.924 211.327 231.231 213.224C232.492 215.121 233.145 217.358 233.102 219.636C233.094 221.213 232.778 222.773 232.173 224.229C231.334 226.078 230.203 227.779 228.823 229.267C226.696 231.595 224.418 233.781 222.005 235.811L217.216 240.378V240.639H233.665V248.491L203.619 248.504Z" fill="url(#paint30_linear_11117_8952)"/>
<path d="M256.016 249.537C252.795 249.673 249.611 248.802 246.907 247.046C244.203 245.289 242.113 242.734 240.928 239.735C238.162 232.397 238.162 224.303 240.928 216.965C242.134 214.056 244.191 211.579 246.83 209.859C249.615 208.251 252.774 207.405 255.99 207.405C259.206 207.405 262.365 208.251 265.15 209.859C267.802 211.58 269.873 214.061 271.092 216.978C272.566 220.569 273.266 224.431 273.146 228.311C273.249 232.23 272.54 236.129 271.065 239.761C269.862 242.721 267.802 245.255 265.15 247.037C262.417 248.749 259.24 249.618 256.016 249.537ZM256.016 241.515C257.086 241.494 258.129 241.18 259.034 240.608C259.938 240.036 260.668 239.227 261.146 238.27C262.455 236.106 263.1 232.786 263.083 228.311C263.149 225.859 262.849 223.411 262.193 221.048C261.774 219.427 260.918 217.951 259.72 216.782C258.709 215.858 257.385 215.352 256.016 215.369C254.958 215.384 253.925 215.688 253.027 216.248C252.13 216.809 251.403 217.604 250.926 218.549C249.626 220.669 248.971 223.923 248.963 228.311C248.89 230.804 249.181 233.295 249.826 235.705C250.231 237.365 251.092 238.879 252.313 240.075C253.318 241.01 254.643 241.525 256.016 241.515Z" fill="url(#paint31_linear_11117_8952)"/>
<path d="M295.587 249.537C292.366 249.673 289.182 248.802 286.478 247.046C283.774 245.289 281.684 242.734 280.499 239.735C277.733 232.397 277.733 224.303 280.499 216.965C281.705 214.056 283.762 211.579 286.401 209.859C289.186 208.251 292.345 207.405 295.561 207.405C298.777 207.405 301.937 208.251 304.722 209.859C307.373 211.58 309.444 214.061 310.663 216.978C312.137 220.569 312.837 224.431 312.717 228.311C312.82 232.23 312.111 236.129 310.637 239.761C309.433 242.721 307.373 245.255 304.722 247.037C301.988 248.749 298.811 249.618 295.587 249.537ZM295.587 241.515C296.657 241.494 297.701 241.18 298.605 240.608C299.509 240.036 300.24 239.227 300.717 238.27C302.026 236.106 302.671 232.786 302.654 228.311C302.72 225.859 302.421 223.411 301.764 221.048C301.345 219.427 300.49 217.951 299.291 216.782C298.281 215.858 296.957 215.352 295.587 215.369C294.53 215.384 293.496 215.688 292.599 216.248C291.701 216.809 290.974 217.604 290.497 218.549C289.197 220.669 288.543 223.923 288.534 228.311C288.461 230.804 288.752 233.295 289.398 235.705C289.808 237.363 290.668 238.876 291.884 240.075C292.889 241.01 294.214 241.525 295.587 241.515Z" fill="url(#paint32_linear_11117_8952)"/>
<path d="M99.1109 241.032L99.896 238.951L96.1272 243.466L94.7139 245.128C91.7695 248.857 90.4347 255.453 92.5808 261.917C97.0432 275.37 112.341 287.946 126.749 290C129.744 290.39 132.788 290.105 135.658 289.168C138.529 288.23 141.154 286.664 143.342 284.583L144.363 283.418L148.551 278.55H147.033C148.004 274.764 147.789 270.772 146.418 267.112C141.955 253.66 126.657 241.084 112.249 239.029C106.884 238.231 102.396 239.029 99.1109 241.032ZM134.614 265.398C137.061 272.766 132.651 277.817 124.76 276.692C116.869 275.566 108.494 268.67 106.047 261.315C103.599 253.961 108.009 248.896 115.901 250.022C123.792 251.147 132.154 258.031 134.614 265.398Z" fill="url(#paint33_linear_11117_8952)"/>
<path d="M105.499 255.963C105.697 254.675 106.255 253.468 107.108 252.482L99.649 246.358L91.5879 256.186C91.6564 258.136 92.0046 260.066 92.6217 261.917C93.3666 264.085 94.3359 266.168 95.5138 268.133L105.499 255.963Z" fill="#04A071"/>
<path d="M109.646 267.623C108.08 265.752 106.861 263.616 106.047 261.315C105.49 259.743 105.28 258.069 105.432 256.408L105.249 256.264L95.5127 268.133C97.3726 271.261 99.6145 274.144 102.187 276.718L109.646 267.623Z" fill="#06966A"/>
<path d="M110.35 283.47L117.875 274.309C114.72 272.624 111.924 270.339 109.644 267.583L102.119 276.743C104.617 279.27 107.376 281.525 110.35 283.47Z" fill="#09845E"/>
<path d="M122.912 276.312C121.162 275.858 119.47 275.199 117.874 274.349L110.35 283.509C114.034 285.957 118.066 287.836 122.31 289.084L129.207 280.709C126.939 279.502 124.825 278.026 122.912 276.312Z" fill="#0C7352"/>
<path d="M98.2751 254.929C102.738 268.381 118.035 280.957 132.443 283.025C146.851 285.093 154.913 275.854 150.45 262.401C145.988 248.948 130.677 236.373 116.269 234.305C101.861 232.237 93.8127 241.476 98.2751 254.929ZM138.699 260.713C141.146 268.081 136.723 273.132 128.845 272.006C120.967 270.881 112.578 263.985 110.131 256.617C107.684 249.249 112.094 244.198 119.985 245.337C127.876 246.475 136.199 253.345 138.699 260.713Z" fill="url(#paint34_linear_11117_8952)"/>
<path d="M150.472 262.401C145.997 248.922 130.647 236.307 116.2 234.239C101.752 232.171 93.678 241.424 98.1535 254.915C102.629 268.407 117.979 281.009 132.413 283.077C146.848 285.145 154.935 275.893 150.472 262.401ZM128.736 272.058C120.884 270.92 112.431 264.023 109.984 256.63C107.536 249.236 111.946 244.185 119.864 245.31C127.781 246.436 136.169 253.345 138.616 260.739C141.063 268.133 136.653 273.158 128.736 272.058Z" fill="url(#paint35_linear_11117_8952)"/>
<path d="M141.419 276.95C147.19 269.689 142.345 256.233 130.597 246.894C118.849 237.556 104.646 235.872 98.875 243.133C93.1035 250.394 97.9486 263.85 109.697 273.188C121.445 282.527 135.647 284.211 141.419 276.95Z" fill="url(#paint36_linear_11117_8952)"/>
<path d="M142.836 275.626C148.287 268.741 143.675 256.01 132.535 247.19C121.395 238.37 107.945 236.801 102.495 243.686C97.0438 250.57 101.656 263.301 112.796 272.121C123.936 280.942 137.386 282.51 142.836 275.626Z" fill="url(#paint37_linear_11117_8952)"/>
<path d="M127.809 251.12C126.382 249.89 123.111 251.264 120.023 254.248L117.824 252.337L121.318 248.267L116.96 244.499L107.172 255.87L111.543 259.652L115.05 255.57L117.248 257.467C114.762 260.974 113.885 264.429 115.312 265.672C116.738 266.915 120.023 265.515 123.163 262.544L132.193 270.396L134.967 267.164L125.938 259.312C128.372 255.792 129.248 252.337 127.809 251.12ZM123.216 259.823C120.036 263.526 117.157 265.384 115.796 265.057C115.246 263.866 115.796 261.131 117.968 258.056L121.122 260.791L123.896 257.559L120.742 254.837C123.451 252.219 126.068 251.277 127.285 251.644C127.809 252.952 126.396 256.093 123.216 259.796V259.823Z" fill="url(#paint38_linear_11117_8952)"/>
<path d="M128.108 250.754C126.669 249.446 123.397 250.898 120.257 253.882L118.058 251.972L121.565 247.902L117.194 244.133L107.419 255.505L111.777 259.287L115.284 255.204L117.482 257.101C115.009 260.608 114.119 264.063 115.559 265.306C116.998 266.55 120.27 265.149 123.41 262.179L132.44 270.031L135.214 266.798L126.185 258.946C128.658 255.452 129.535 251.998 128.108 250.754ZM123.515 259.457C120.322 263.16 117.443 265.019 116.095 264.691C115.532 263.501 116.095 260.766 118.267 257.69L121.421 260.425L124.196 257.193L121.042 254.471C123.738 251.854 126.355 250.898 127.585 251.278C128.095 252.613 126.695 255.753 123.515 259.457Z" fill="url(#paint39_linear_11117_8952)"/>
</g>
<defs>
<radialGradient id="paint0_radial_11117_8952" cx="0" cy="0" r="1" gradientUnits="userSpaceOnUse" gradientTransform="translate(238.807 238.806) scale(240)">
<stop stop-color="#FFD30F"/>
<stop offset="0.11" stop-color="#FFD30F" stop-opacity="0.8"/>
<stop offset="0.24" stop-color="#FFD30F" stop-opacity="0.59"/>
<stop offset="0.37" stop-color="#FFD30F" stop-opacity="0.41"/>
<stop offset="0.5" stop-color="#FFD30F" stop-opacity="0.26"/>
<stop offset="0.63" stop-color="#FFD30F" stop-opacity="0.15"/>
<stop offset="0.75" stop-color="#FFD30F" stop-opacity="0.07"/>
<stop offset="0.88" stop-color="#FFD30F" stop-opacity="0.02"/>
<stop offset="1" stop-color="#FFD30F" stop-opacity="0"/>
</radialGradient>
<linearGradient id="paint1_linear_11117_8952" x1="51.6715" y1="246.318" x2="65.6869" y2="246.318" gradientUnits="userSpaceOnUse">
<stop offset="0.03" stop-color="#FFE783"/>
<stop offset="0.37" stop-color="#FFD41F"/>
<stop offset="1" stop-color="#F8BB37"/>
</linearGradient>
<linearGradient id="paint2_linear_11117_8952" x1="394.358" y1="157.383" x2="378.773" y2="159.902" gradientUnits="userSpaceOnUse">
<stop offset="0.03" stop-color="#FFE783"/>
<stop offset="0.37" stop-color="#FFD41F"/>
<stop offset="1" stop-color="#F8BB37"/>
</linearGradient>
<radialGradient id="paint3_radial_11117_8952" cx="0" cy="0" r="1" gradientUnits="userSpaceOnUse" gradientTransform="translate(229.766 256.656) scale(115.722 115.722)">
<stop stop-color="white"/>
<stop offset="0.07" stop-color="white" stop-opacity="0.88"/>
<stop offset="0.21" stop-color="white" stop-opacity="0.65"/>
<stop offset="0.36" stop-color="white" stop-opacity="0.45"/>
<stop offset="0.5" stop-color="white" stop-opacity="0.29"/>
<stop offset="0.64" stop-color="white" stop-opacity="0.16"/>
<stop offset="0.77" stop-color="white" stop-opacity="0.07"/>
<stop offset="0.89" stop-color="white" stop-opacity="0.02"/>
<stop offset="1" stop-color="white" stop-opacity="0"/>
</radialGradient>
<linearGradient id="paint4_linear_11117_8952" x1="251.057" y1="329.233" x2="380.088" y2="329.233" gradientUnits="userSpaceOnUse">
<stop stop-color="#525968"/>
<stop offset="0.37" stop-color="#272E3F"/>
<stop offset="1" stop-color="#121622"/>
</linearGradient>
<linearGradient id="paint5_linear_11117_8952" x1="94.6372" y1="302.615" x2="244.854" y2="338.72" gradientUnits="userSpaceOnUse">
<stop stop-color="#525968"/>
<stop offset="0.37" stop-color="#272E3F"/>
<stop offset="1" stop-color="#121622"/>
</linearGradient>
<radialGradient id="paint6_radial_11117_8952" cx="0" cy="0" r="1" gradientUnits="userSpaceOnUse" gradientTransform="translate(222.935 281.258) scale(130.483 130.483)">
<stop stop-color="white"/>
<stop offset="1" stop-color="white" stop-opacity="0"/>
</radialGradient>
<linearGradient id="paint7_linear_11117_8952" x1="200.894" y1="91.1531" x2="214.007" y2="100.428" gradientUnits="userSpaceOnUse">
<stop offset="0.03" stop-color="#FFE783"/>
<stop offset="0.37" stop-color="#FFD41F"/>
<stop offset="1" stop-color="#F8BB37"/>
</linearGradient>
<linearGradient id="paint8_linear_11117_8952" x1="304.695" y1="88.1315" x2="237.196" y2="123.726" gradientUnits="userSpaceOnUse">
<stop offset="0.01" stop-color="#FFA70F"/>
<stop offset="0.34" stop-color="#FFA512"/>
<stop offset="0.6" stop-color="#FFA01C"/>
<stop offset="0.84" stop-color="#FF972C"/>
<stop offset="1" stop-color="#FF8E3D"/>
</linearGradient>
<linearGradient id="paint9_linear_11117_8952" x1="291.584" y1="76.6681" x2="230.537" y2="123.177" gradientUnits="userSpaceOnUse">
<stop offset="0.03" stop-color="#FFE783"/>
<stop offset="0.37" stop-color="#FFD41F"/>
<stop offset="1" stop-color="#F8BB37"/>
</linearGradient>
<linearGradient id="paint10_linear_11117_8952" x1="105.197" y1="133.475" x2="173.181" y2="138.879" gradientUnits="userSpaceOnUse">
<stop offset="0.01" stop-color="#FFA70F"/>
<stop offset="0.34" stop-color="#FFA512"/>
<stop offset="0.6" stop-color="#FFA01C"/>
<stop offset="0.84" stop-color="#FF972C"/>
<stop offset="1" stop-color="#FF8E3D"/>
</linearGradient>
<linearGradient id="paint11_linear_11117_8952" x1="128.084" y1="121.671" x2="198.292" y2="145.226" gradientUnits="userSpaceOnUse">
<stop offset="0.03" stop-color="#FFE783"/>
<stop offset="0.37" stop-color="#FFD41F"/>
<stop offset="1" stop-color="#F8BB37"/>
</linearGradient>
<linearGradient id="paint12_linear_11117_8952" x1="82.7656" y1="157.095" x2="355.379" y2="157.095" gradientUnits="userSpaceOnUse">
<stop stop-color="#525968"/>
<stop offset="0.37" stop-color="#272E3F"/>
<stop offset="1" stop-color="#121622"/>
</linearGradient>
<linearGradient id="paint13_linear_11117_8952" x1="330.545" y1="221.597" x2="379.159" y2="180.019" gradientUnits="userSpaceOnUse">
<stop stop-color="#074C33"/>
<stop offset="0.23" stop-color="#056C4B"/>
<stop offset="0.57" stop-color="#029669"/>
<stop offset="0.84" stop-color="#01B07C"/>
<stop offset="1" stop-color="#00BA83"/>
</linearGradient>
<linearGradient id="paint14_linear_11117_8952" x1="380.4" y1="193.839" x2="320.701" y2="199.212" gradientUnits="userSpaceOnUse">
<stop stop-color="#FEF367"/>
<stop offset="0.53" stop-color="#F5FFFF"/>
<stop offset="0.59" stop-color="#F5FFFA"/>
<stop offset="0.67" stop-color="#F6FDEA"/>
<stop offset="0.76" stop-color="#F8FBD0"/>
<stop offset="0.86" stop-color="#FAF8AC"/>
<stop offset="0.96" stop-color="#FDF57E"/>
<stop offset="1" stop-color="#FEF369"/>
</linearGradient>
<linearGradient id="paint15_linear_11117_8952" x1="370.289" y1="154.604" x2="340.294" y2="203.03" gradientUnits="userSpaceOnUse">
<stop stop-color="#01D99A"/>
<stop offset="1" stop-color="#4FD9B0"/>
</linearGradient>
<linearGradient id="paint16_linear_11117_8952" x1="360.213" y1="172.073" x2="346.067" y2="208.426" gradientUnits="userSpaceOnUse">
<stop stop-color="#027251"/>
<stop offset="0.04" stop-color="#097B59"/>
<stop offset="0.25" stop-color="#28A580"/>
<stop offset="0.46" stop-color="#41C69E"/>
<stop offset="0.66" stop-color="#53DEB4"/>
<stop offset="0.84" stop-color="#5DECC1"/>
<stop offset="1" stop-color="#61F1C6"/>
</linearGradient>
<linearGradient id="paint17_linear_11117_8952" x1="353.639" y1="174.716" x2="349.779" y2="214.874" gradientUnits="userSpaceOnUse">
<stop stop-color="#CDFED7"/>
<stop offset="0.1" stop-color="#ABF8CD"/>
<stop offset="0.27" stop-color="#78EFBE"/>
<stop offset="0.43" stop-color="#4DE7B1"/>
<stop offset="0.59" stop-color="#2CE1A7"/>
<stop offset="0.74" stop-color="#14DCA0"/>
<stop offset="0.88" stop-color="#06DA9B"/>
<stop offset="1" stop-color="#01D99A"/>
</linearGradient>
<linearGradient id="paint18_linear_11117_8952" x1="357.028" y1="203.939" x2="343.861" y2="188.543" gradientUnits="userSpaceOnUse">
<stop stop-color="#027251"/>
<stop offset="1" stop-color="#00DB9B"/>
</linearGradient>
<linearGradient id="paint19_linear_11117_8952" x1="356.724" y1="203.582" x2="343.548" y2="188.176" gradientUnits="userSpaceOnUse">
<stop stop-color="white"/>
<stop offset="0.36" stop-color="#FBFBFA"/>
<stop offset="0.82" stop-color="#EEEEEA"/>
<stop offset="1" stop-color="#E7E7E2"/>
</linearGradient>
<linearGradient id="paint20_linear_11117_8952" x1="193.098" y1="141.758" x2="238.442" y2="172.275" gradientUnits="userSpaceOnUse">
<stop offset="0.03" stop-color="#FFE783"/>
<stop offset="0.37" stop-color="#FFD41F"/>
<stop offset="1" stop-color="#F8BB37"/>
</linearGradient>
<linearGradient id="paint21_linear_11117_8952" x1="203.435" y1="175.456" x2="242.693" y2="175.456" gradientUnits="userSpaceOnUse">
<stop offset="0.01" stop-color="#FFA70F"/>
<stop offset="0.34" stop-color="#FFA512"/>
<stop offset="0.6" stop-color="#FFA01C"/>
<stop offset="0.84" stop-color="#FF972C"/>
<stop offset="1" stop-color="#FF8E3D"/>
</linearGradient>
<radialGradient id="paint22_radial_11117_8952" cx="0" cy="0" r="1" gradientUnits="userSpaceOnUse" gradientTransform="translate(153.594 191.346) rotate(-14.06) scale(202.13 40.4261)">
<stop stop-color="white"/>
<stop offset="1" stop-color="white" stop-opacity="0"/>
</radialGradient>
<linearGradient id="paint23_linear_11117_8952" x1="189.327" y1="378.934" x2="171.634" y2="280.002" gradientUnits="userSpaceOnUse">
<stop offset="0.01" stop-color="#FBC62C"/>
<stop offset="0.31" stop-color="#FBC32D"/>
<stop offset="0.55" stop-color="#FCB930"/>
<stop offset="0.77" stop-color="#FDA935"/>
<stop offset="0.98" stop-color="#FF913C"/>
<stop offset="1" stop-color="#FF8E3D"/>
</linearGradient>
<linearGradient id="paint24_linear_11117_8952" x1="100.484" y1="302.851" x2="175.953" y2="287.318" gradientUnits="userSpaceOnUse">
<stop offset="0.03" stop-color="#FFE783"/>
<stop offset="0.37" stop-color="#FFD41F"/>
<stop offset="1" stop-color="#F8BB37"/>
</linearGradient>
<linearGradient id="paint25_linear_11117_8952" x1="87.4501" y1="270.41" x2="87.4501" y2="313.438" gradientUnits="userSpaceOnUse">
<stop offset="0.01" stop-color="#FFA70F"/>
<stop offset="0.34" stop-color="#FFA512"/>
<stop offset="0.6" stop-color="#FFA01C"/>
<stop offset="0.84" stop-color="#FF972C"/>
<stop offset="1" stop-color="#FF8E3D"/>
</linearGradient>
<linearGradient id="paint26_linear_11117_8952" x1="404.659" y1="303.38" x2="379.771" y2="346.5" gradientUnits="userSpaceOnUse">
<stop offset="0.01" stop-color="#FFA70F"/>
<stop offset="0.34" stop-color="#FFA512"/>
<stop offset="0.6" stop-color="#FFA01C"/>
<stop offset="0.84" stop-color="#FF972C"/>
<stop offset="1" stop-color="#FF8E3D"/>
</linearGradient>
<linearGradient id="paint27_linear_11117_8952" x1="238.767" y1="187.496" x2="238.767" y2="284.779" gradientUnits="userSpaceOnUse">
<stop stop-color="#F9EDC3"/>
<stop offset="0.11" stop-color="#FBF4DA"/>
<stop offset="0.22" stop-color="#FDF9EB"/>
<stop offset="0.34" stop-color="#FEFCF5"/>
<stop offset="0.5" stop-color="#FEFDF8"/>
<stop offset="0.63" stop-color="#FEFBF3"/>
<stop offset="0.79" stop-color="#FDF6E5"/>
<stop offset="0.95" stop-color="#FCEDCE"/>
<stop offset="1" stop-color="#FCEAC6"/>
</linearGradient>
<linearGradient id="paint28_linear_11117_8952" x1="293.39" y1="263.212" x2="373.556" y2="340.853" gradientUnits="userSpaceOnUse">
<stop offset="0.03" stop-color="#FFE783"/>
<stop offset="0.37" stop-color="#FFD41F"/>
<stop offset="1" stop-color="#F8BB37"/>
</linearGradient>
<linearGradient id="paint29_linear_11117_8952" x1="239.21" y1="202.884" x2="239.21" y2="253.62" gradientUnits="userSpaceOnUse">
<stop stop-color="#F9DA5A"/>
<stop offset="0.39" stop-color="#FFD41F"/>
<stop offset="0.58" stop-color="#FDCB28"/>
<stop offset="1" stop-color="#F8BB37"/>
</linearGradient>
<linearGradient id="paint30_linear_11117_8952" x1="239.214" y1="202.886" x2="239.214" y2="253.621" gradientUnits="userSpaceOnUse">
<stop stop-color="#F9DA5A"/>
<stop offset="0.39" stop-color="#FFD41F"/>
<stop offset="0.58" stop-color="#FDCB28"/>
<stop offset="1" stop-color="#F8BB37"/>
</linearGradient>
<linearGradient id="paint31_linear_11117_8952" x1="239.213" y1="202.884" x2="239.213" y2="253.62" gradientUnits="userSpaceOnUse">
<stop stop-color="#F9DA5A"/>
<stop offset="0.39" stop-color="#FFD41F"/>
<stop offset="0.58" stop-color="#FDCB28"/>
<stop offset="1" stop-color="#F8BB37"/>
</linearGradient>
<linearGradient id="paint32_linear_11117_8952" x1="239.212" y1="202.884" x2="239.212" y2="253.62" gradientUnits="userSpaceOnUse">
<stop stop-color="#F9DA5A"/>
<stop offset="0.39" stop-color="#FFD41F"/>
<stop offset="0.58" stop-color="#FDCB28"/>
<stop offset="1" stop-color="#F8BB37"/>
</linearGradient>
<linearGradient id="paint33_linear_11117_8952" x1="145.157" y1="283.163" x2="99.1388" y2="243.805" gradientUnits="userSpaceOnUse">
<stop stop-color="#074C33"/>
<stop offset="0.23" stop-color="#056C4B"/>
<stop offset="0.57" stop-color="#029669"/>
<stop offset="0.84" stop-color="#01B07C"/>
<stop offset="1" stop-color="#00BA83"/>
</linearGradient>
<linearGradient id="paint34_linear_11117_8952" x1="99.2331" y1="258.091" x2="155.753" y2="263.178" gradientUnits="userSpaceOnUse">
<stop stop-color="#FEF367"/>
<stop offset="0.53" stop-color="#F5FFFF"/>
<stop offset="0.59" stop-color="#F5FFFA"/>
<stop offset="0.67" stop-color="#F6FDEA"/>
<stop offset="0.76" stop-color="#F8FBD0"/>
<stop offset="0.86" stop-color="#FAF8AC"/>
<stop offset="0.96" stop-color="#FDF57E"/>
<stop offset="1" stop-color="#FEF369"/>
</linearGradient>
<linearGradient id="paint35_linear_11117_8952" x1="110.925" y1="237.035" x2="139.489" y2="282.696" gradientUnits="userSpaceOnUse">
<stop stop-color="#01D99A"/>
<stop offset="1" stop-color="#4FD9B0"/>
</linearGradient>
<linearGradient id="paint36_linear_11117_8952" x1="113.104" y1="241.878" x2="126.398" y2="276.181" gradientUnits="userSpaceOnUse">
<stop stop-color="#027251"/>
<stop offset="0.04" stop-color="#097B59"/>
<stop offset="0.25" stop-color="#28A580"/>
<stop offset="0.46" stop-color="#41C69E"/>
<stop offset="0.66" stop-color="#53DEB4"/>
<stop offset="0.84" stop-color="#5DECC1"/>
<stop offset="1" stop-color="#61F1C6"/>
</linearGradient>
<linearGradient id="paint37_linear_11117_8952" x1="120.492" y1="237.166" x2="124.177" y2="275.251" gradientUnits="userSpaceOnUse">
<stop stop-color="#CDFED7"/>
<stop offset="0.1" stop-color="#ABF8CD"/>
<stop offset="0.27" stop-color="#78EFBE"/>
<stop offset="0.43" stop-color="#4DE7B1"/>
<stop offset="0.59" stop-color="#2CE1A7"/>
<stop offset="0.74" stop-color="#14DCA0"/>
<stop offset="0.88" stop-color="#06DA9B"/>
<stop offset="1" stop-color="#01D99A"/>
</linearGradient>
<linearGradient id="paint38_linear_11117_8952" x1="120.091" y1="266.442" x2="132.552" y2="251.872" gradientUnits="userSpaceOnUse">
<stop stop-color="#027251"/>
<stop offset="1" stop-color="#00DB9B"/>
</linearGradient>
<linearGradient id="paint39_linear_11117_8952" x1="120.378" y1="266.105" x2="132.848" y2="251.524" gradientUnits="userSpaceOnUse">
<stop stop-color="white"/>
<stop offset="0.36" stop-color="#FBFBFA"/>
<stop offset="0.82" stop-color="#EEEEEA"/>
<stop offset="1" stop-color="#E7E7E2"/>
</linearGradient>
<clipPath id="clip0_11117_8952">
<rect width="480" height="480" fill="white"/>
</clipPath>
</defs>
</svg>
