<svg width="26" height="26" viewBox="0 0 26 26" fill="none" xmlns="http://www.w3.org/2000/svg">
<path fill-rule="evenodd" clip-rule="evenodd" d="M26 13C26 20.1797 20.1797 26 13 26C5.8203 26 0 20.1797 0 13C0 5.8203 5.8203 0 13 0C20.1797 0 26 5.8203 26 13ZM20.5775 12.9991V12.9846V12.9702C20.5625 8.81081 17.1605 5.41675 12.9968 5.41675C8.81842 5.41675 5.41602 8.81184 5.41602 13.0001C5.41602 17.1739 8.81842 20.5834 12.9968 20.5834C14.9213 20.5834 16.7425 19.8634 18.1445 18.5552C18.4285 18.2905 18.4425 17.864 18.1755 17.5849C17.9205 17.3058 17.4885 17.2913 17.2055 17.5406L17.1905 17.555C16.0575 18.6129 14.5343 19.2155 12.9675 19.2155C11.1319 19.2155 9.49092 18.4223 8.35612 17.1585L11.5942 12.0442V14.4102C11.5942 15.5423 12.0419 15.909 12.4152 16.012C12.7886 16.115 13.3555 16.0419 13.9674 15.086L15.7433 12.2492C15.7612 12.2226 15.7778 12.1961 15.7938 12.1705C15.8312 12.1107 15.8658 12.0554 15.9075 12.0143V13.4543C15.9075 14.5122 16.3405 15.3651 17.0865 15.7761C17.7575 16.1583 18.6085 16.114 19.3095 15.6875C20.1745 15.1303 20.6375 14.1599 20.5775 12.9991ZM18.6075 14.4834C18.3385 14.6451 18.0255 14.6739 17.7865 14.5421C17.4875 14.3659 17.3085 13.9694 17.3085 13.4255V11.765C17.3085 10.9719 16.9945 10.3981 16.4575 10.2508C15.5478 9.98611 14.8606 11.0883 14.6075 11.5003L12.9957 14.0425V10.9121C12.9811 10.1921 12.7416 9.76568 12.2939 9.63383C11.9958 9.54525 11.5482 9.58954 11.1152 10.2364L7.51932 15.909C7.04142 15.0128 6.78822 14.0137 6.78822 12.9991C6.78822 9.57512 9.57872 6.79703 12.9957 6.79703C16.4125 6.79703 19.2045 9.57512 19.2045 12.9991V13.0135V13.0279C19.2345 13.6902 19.0255 14.2186 18.6075 14.4834Z" fill="#717171"/>
</svg>
