<svg width="26" height="26" viewBox="0 0 26 26" fill="none" xmlns="http://www.w3.org/2000/svg">
<path fill-rule="evenodd" clip-rule="evenodd" d="M26 13C26 20.1797 20.1797 26 13 26C5.8203 26 0 20.1797 0 13C0 5.8203 5.8203 0 13 0C20.1797 0 26 5.8203 26 13ZM8.06715 8.55213C7.20155 8.54833 6.49305 7.83163 6.50005 6.96723C6.50695 6.10213 7.22685 5.40393 8.09895 5.41693C8.94785 5.42993 9.64565 6.13193 9.64835 6.97743C9.65155 7.83873 8.93115 8.55583 8.06715 8.55213ZM16.8325 18.4151H19.4526C19.4526 17.7769 19.4647 17.1416 19.4767 16.509V16.509C19.5035 15.0932 19.5301 13.691 19.4208 12.2998C19.2115 9.62611 17.1457 9.26761 15.3628 9.64561C14.6956 9.78701 14.2072 10.2507 13.7477 10.8514L13.7249 10.3789L13.695 9.75941H11.125V18.4129H13.8225V17.9157C13.8224 17.5635 13.8217 17.2114 13.821 16.8592V16.8591V16.859C13.8193 15.9218 13.8175 14.9848 13.8257 14.0477C13.8289 13.7097 13.8558 13.3647 13.9306 13.0364C14.1157 12.2261 14.6779 11.8589 15.5817 11.9152C16.2763 11.9585 16.6948 12.3442 16.7459 13.1681C16.801 14.0549 16.8102 14.9445 16.8194 15.8341V15.8341C16.8226 16.1442 16.8258 16.4542 16.8309 16.7641C16.8372 17.1373 16.8356 17.5105 16.834 17.89V17.89C16.8332 18.0635 16.8325 18.2384 16.8325 18.4151ZM6.73633 18.4166H9.39183V9.76147H6.73633V18.4166Z" fill="#717171"/>
</svg>
