<svg width="26" height="26" viewBox="0 0 26 26" fill="none" xmlns="http://www.w3.org/2000/svg">
<path fill-rule="evenodd" clip-rule="evenodd" d="M26 13C26 20.1797 20.1797 26 13 26C5.8203 26 0 20.1797 0 13C0 5.8203 5.8203 0 13 0C20.1797 0 26 5.8203 26 13ZM17.3019 18.7938L19.4599 8.86545C19.6519 7.99041 19.1379 7.64741 18.5509 7.86232L5.86489 12.6304C4.99989 12.9605 5.01188 13.434 5.71789 13.6489L8.9609 14.6391L16.4949 10.012C16.8489 9.78113 17.1719 9.90921 16.9069 10.1395L10.8119 15.5117L10.5759 18.7784C10.9149 18.7784 11.0619 18.635 11.2369 18.4638L12.8239 16.9748L16.1119 19.3388C16.7149 19.6689 17.1389 19.4946 17.3019 18.7938Z" fill="#717171"/>
</svg>
