<?xml version="1.0" encoding="UTF-8"?><svg version="1.1" width="124px" height="124px" viewBox="0 0 124.0 124.0" xmlns="http://www.w3.org/2000/svg" xmlns:xlink="http://www.w3.org/1999/xlink"><defs><filter id="i0" x="-20.6896552%" y="-20.6896552%" filterUnits="userSpaceOnUse" width="127.586207%" height="127.586207%"><feDropShadow stdDeviation="4" dx="0" dy="0" flood-color="rgba(0, 0, 0, 0.1)"></feDropShadow></filter><clipPath id="i1"><path d="M84,0 C92.836556,-1.623249e-15 100,7.163444 100,16 L100,84 C100,92.836556 92.836556,100 84,100 L16,100 C7.163444,100 8.18759336e-15,92.836556 0,84 L0,16 C-1.082166e-15,7.163444 7.163444,8.72867636e-15 16,0 L84,0 Z"></path></clipPath><clipPath id="i2"><path d="M40.3963642,0 C52.6381581,0 62.5622553,9.93047408 62.5622553,22.1801341 C62.5622553,30.6630626 57.8024218,38.0253106 50.8182218,41.7609122 L50.8026668,41.7609122 C49.5738209,42.4146424 48.29831,42.9438527 46.960579,43.3641078 C42.9007211,44.8116534 38.5142079,45.6054688 33.9410346,45.6054688 C20.2215146,45.6054688 8.1508259,38.4922608 1.22884589,27.7368414 C0.979965709,27.3632813 0.74664054,26.9897211 0.513315372,26.6005959 C0.342210248,26.2892958 0.171105124,25.9935607 0,25.6978256 L0.171105124,25.6978256 C0.513315372,25.6978256 0.871080631,25.6822606 1.21329088,25.6666956 C1.30662095,25.6666956 1.41550602,25.6511305 1.50883609,25.6511305 L1.92776379,25.6219261 C10.0063542,24.9825552 16.872178,20.0208192 20.1904046,13.0434754 L20.2837347,12.8411303 L20.3770648,12.6387852 L20.5497457,12.2847663 C24.1814349,5.00483388 31.7013599,0 40.3963642,0 Z"></path></clipPath><linearGradient id="i3" x1="31.2811276px" y1="0px" x2="31.2811276px" y2="45.6054688px" gradientUnits="userSpaceOnUse"><stop stop-color="#006EF1" offset="0%"></stop><stop stop-color="#2896EF" offset="100%"></stop></linearGradient><clipPath id="i4"><path d="M36.878542,0.179947106 C40.6691639,-0.299911843 44.3747578,0.179947106 47.9953238,1.61952395 L47.9953238,26.2122341 L0,26.2122341 L0,24.2275726 C1.22177878,24.0117602 5.3357949,22.6802613 8.20888297,21.4753003 C11.081971,20.2703393 13.4598341,18.2967182 15.4980423,16.2854531 C17.5362505,14.274188 20.5384913,9.17329523 23.3361005,6.33039019 C26.1337098,3.48748515 31.1926091,0.899735529 36.878542,0.179947106 Z"></path></clipPath><linearGradient id="i5" x1="23.9976619px" y1="0px" x2="23.9976619px" y2="26.2122341px" gradientUnits="userSpaceOnUse"><stop stop-color="rgba(255, 255, 255, 0.203316)" offset="0%"></stop><stop stop-color="rgba(255, 255, 255, 0)" offset="100%"></stop></linearGradient><clipPath id="i6"><path d="M21.2056082,4.24894553 C28.0184855,-0.0865983838 34.8710079,-1.10421184 41.7631752,1.19610515 L41.7631752,23.1989888 L0,23.1989888 L0,21.3262039 C3.78725031,20.2585714 9.52825717,17.1706142 11.807597,14.6439869 C14.9177266,10.1325197 18.1508279,6.10024149 21.2056082,4.24894553 Z"></path></clipPath><linearGradient id="i7" x1="20.8815876px" y1="0px" x2="20.8815876px" y2="23.1989888px" gradientUnits="userSpaceOnUse"><stop stop-color="rgba(255, 255, 255, 0.201404)" offset="0%"></stop><stop stop-color="rgba(255, 255, 255, 0)" offset="100%"></stop></linearGradient><clipPath id="i8"><path d="M26.19036,0.808025112 C30.4050144,-0.269341704 34.5623452,-0.269341704 38.6623523,0.808025112 L38.6623523,18.9500433 L0,18.9500433 L0,17.4935488 C4.99997176,16.3994015 9.62329278,13.572483 12.8479752,9.648076 C16.0726575,5.72366899 19.8683784,2.42407534 26.19036,0.808025112 Z"></path></clipPath><linearGradient id="i9" x1="19.3311761px" y1="6.59067875px" x2="19.3311761px" y2="18.9500433px" gradientUnits="userSpaceOnUse"><stop stop-color="#FFFFFF" offset="0%"></stop><stop stop-color="#BBDAF1" offset="100%"></stop></linearGradient><clipPath id="i10"><path d="M6.37395238,0 C11.1874503,0 15.139989,3.66912804 15.5626455,8.35082529 C13.9063468,9.92749852 11.6610911,10.8955045 9.18869312,10.8955045 C4.37485137,10.8955045 0.422091876,7.22585226 -9.05152246e-05,2.54367596 C1.65692009,0.967738073 3.90189658,0 6.37395238,0 Z"></path></clipPath><linearGradient id="i11" x1="7.78132275px" y1="0px" x2="7.78132275px" y2="10.8955045px" gradientUnits="userSpaceOnUse"><stop stop-color="#006EF1" offset="0%"></stop><stop stop-color="#2896EF" offset="100%"></stop></linearGradient><clipPath id="i12"><path d="M5.09926647,-2.48689958e-14 C8.95021121,-2.48689958e-14 12.1123357,2.93552936 12.4502555,6.68109457 C11.1246955,7.94220691 9.32870894,8.71640358 7.35105763,8.71640358 C3.49985204,8.71640358 0.337559985,5.78047651 -1.39788839e-14,2.03454786 C1.32607439,0.774004536 3.12186058,-2.48689958e-14 5.09926647,-2.48689958e-14 Z"></path></clipPath><linearGradient id="i13" x1="6.22512773px" y1="0px" x2="6.22512773px" y2="8.71640358px" gradientUnits="userSpaceOnUse"><stop stop-color="#006EF1" offset="0%"></stop><stop stop-color="#2896EF" offset="100%"></stop></linearGradient><clipPath id="i14"><path d="M2.66141595,0 C4.1312754,0 5.32283191,1.18925374 5.32283191,2.65627258 C5.32283191,4.12329142 4.1312754,5.31254516 2.66141595,5.31254516 C1.19155651,5.31254516 0,4.12329142 0,2.65627258 C0,1.18925374 1.19155651,0 2.66141595,0 Z"></path></clipPath><clipPath id="i15"><path d="M0,0 C0.115713737,0.211731872 0.231427474,0.404215392 0.385712457,0.596698913 C0.520711817,0.769934081 0.694282423,0.943169249 0.848567406,1.09715607 C1.19570862,1.4051297 1.58142107,1.63610992 2.0249904,1.77084839 C2.4492741,1.90558685 2.91212905,1.96333191 3.374984,1.9248352 C3.81855333,1.8863385 4.28140827,1.77084839 4.70569198,1.55911651 C4.33926514,1.86709015 3.87641019,2.05957367 3.39426962,2.13656707 C2.91212905,2.21356048 2.41070286,2.17506378 1.92856229,2.02107696 C1.69713481,1.94408355 1.46570734,1.82859344 1.25356549,1.71310333 C1.04142363,1.57836487 0.848567406,1.42437805 0.694282423,1.25114288 C0.520711817,1.07790771 0.385712457,0.866175841 0.26999872,0.673692321 C0.154284983,0.461960449 0.0578568686,0.230980224 0,0 Z"></path></clipPath><clipPath id="i16"><path d="M2.64213033,0.270954893 C2.85427218,0.367196653 3.04712841,0.482686765 3.23998464,0.636673582 C3.41355525,0.790660398 3.58712585,0.944647214 3.72212521,1.11788238 C4.01140955,1.46435272 4.20426578,1.90706482 4.28140827,2.33052856 C4.08855205,1.92631317 3.85712457,1.56059448 3.54855461,1.25262085 C3.25927026,0.944647214 2.89284343,0.694418638 2.50713097,0.521183469 C2.12141851,0.328699949 1.69713481,0.251706541 1.27285111,0.213209837 C0.867853029,0.174713133 0.443569326,0.232458189 0,0.367196653 C0.771424914,-0.0947637952 1.79356293,-0.114012147 2.64213033,0.270954893 Z"></path></clipPath><clipPath id="i17"><path d="M1.94784791,0 C3.0236146,0 3.89569582,0.870395855 3.89569582,1.94408355 C3.89569582,3.01777125 3.0236146,3.88816711 1.94784791,3.88816711 C0.872081214,3.88816711 0,3.01777125 0,1.94408355 C0,0.870395855 0.872081214,0 1.94784791,0 Z"></path></clipPath><clipPath id="i18"><path d="M1.07999488,0 C1.67645958,0 2.15998976,0.482595722 2.15998976,1.07790771 C2.15998976,1.6732197 1.67645958,2.15581543 1.07999488,2.15581543 C0.483530178,2.15581543 0,1.6732197 0,1.07790771 C0,0.482595722 0.483530178,0 1.07999488,0 Z"></path></clipPath><clipPath id="i19"><path d="M0.597854309,0 C0.928040126,0 1.19570862,0.267151203 1.19570862,0.596698913 C1.19570862,0.926246622 0.928040126,1.19339783 0.597854309,1.19339783 C0.267668491,1.19339783 0,0.926246622 0,0.596698913 C0,0.267151203 0.267668491,0 0.597854309,0 Z"></path></clipPath><clipPath id="i20"><path d="M0.342020625,7.15618607 C-0.887545891,5.40102807 1.38778596,2.2358155 4.14480366,4.28949857 C6.25479712,5.86013808 6.44680232,10.1077326 6.45637778,11.3641077 L6.45613907,11.5983618 C6.45529588,11.6765821 6.45393803,11.71875 6.45393803,11.71875 C5.44831318,8.73349935 1.57158714,8.91134407 0.342020625,7.15618607 Z M13.9411953,3.84276957 C12.1538873,5.59581038 9.3609544,5.93244503 8.39124472,9.81538806 C8.39124472,9.81538806 6.94829983,3.63528407 10.2799603,0.849050132 C13.3073981,-1.68311992 15.7285033,2.08761157 13.9411953,3.84276957 Z"></path></clipPath><linearGradient id="i21" x1="7.27539062px" y1="0px" x2="7.27539062px" y2="11.71875px" gradientUnits="userSpaceOnUse"><stop stop-color="#006EF1" offset="0%"></stop><stop stop-color="#2896EF" offset="100%"></stop></linearGradient></defs><g transform="translate(12.0 12.0)"><g filter="url(#i0)"><g clip-path="url(#i1)"><polygon points="0,0 100,0 100,100 0,100 0,0" stroke="none" fill="#FFFFFF"></polygon></g><g transform="translate(89.06245307559544 20.41015625) scale(-1.0 1.0)"><g transform="translate(0.0 13.57421875)"><g transform="translate(15.562697786249093 0.0)"><g clip-path="url(#i2)"><polygon points="0,0 62.5622553,0 62.5622553,45.6054688 0,45.6054688 0,0" stroke="none" fill="url(#i3)"></polygon><g transform="translate(14.566931446409054 25.2526096876365)"><g clip-path="url(#i4)"><polygon points="0,2.22044605e-16 47.9953238,2.22044605e-16 47.9953238,20.3528591 0,20.3528591 0,2.22044605e-16" stroke="none" fill="url(#i5)"></polygon></g></g><g transform="translate(20.799080054652972 28.265854939319162)"><g clip-path="url(#i6)"><polygon points="0,0 41.7631752,0 41.7631752,17.3396138 0,17.3396138 0,0" stroke="none" fill="url(#i7)"></polygon></g></g><g transform="translate(23.25754154766758 32.51480046770752)"><g clip-path="url(#i8)"><polygon points="0,1.11022302e-16 38.6623523,1.11022302e-16 38.6623523,13.0906683 0,13.0906683 0,1.11022302e-16" stroke="none" fill="url(#i9)"></polygon></g></g></g></g><g transform="translate(0.0 17.4328071672353)"><g clip-path="url(#i10)"><polygon points="-9.05152246e-05,0 15.5626455,0 15.5626455,10.8955045 -9.05152246e-05,10.8955045 -9.05152246e-05,0" stroke="none" fill="url(#i11)"></polygon></g></g><g transform="translate(25.118647967838644 15.349449147834733) rotate(104.99999999999999)"><g clip-path="url(#i12)"><polygon points="-1.39788839e-14,-2.48689958e-14 12.4502555,-2.48689958e-14 12.4502555,8.71640358 -1.39788839e-14,8.71640358 -1.39788839e-14,-2.48689958e-14" stroke="none" fill="url(#i13)"></polygon></g></g><g transform="translate(56.08563414565613 17.18699491343673) scale(-1.0 1.0)"><g transform="translate(0.32785558857966635 0.6174252295822953)"><g clip-path="url(#i14)"><polygon points="0,0 5.32283191,0 5.32283191,5.31254516 0,5.31254516 0,0" stroke="none" fill="#FFFFFF"></polygon></g></g><g transform="translate(0.0 4.37085387379679)"><g clip-path="url(#i15)"><polygon points="0,0 4.70569198,0 4.70569198,2.17506378 0,2.17506378 0,0" stroke="none" fill="#3035AB"></polygon></g></g><g transform="translate(1.716420434325585 0.0)"><g clip-path="url(#i16)"><polygon points="0,4.49640325e-15 4.28140827,4.49640325e-15 4.28140827,2.33052856 0,2.33052856 0,4.49640325e-15" stroke="none" fill="#3035AB"></polygon></g></g><g transform="translate(0.7135680457310516 1.3296142543816527)"><g clip-path="url(#i17)"><polygon points="0,0 3.89569582,0 3.89569582,3.88816711 0,3.88816711 0,0" stroke="none" fill="#3035AB"></polygon></g></g><g transform="translate(2.179275382909225 0.8099087498000301)"><g clip-path="url(#i18)"><polygon points="0,0 2.15998976,0 2.15998976,2.15581543 0,2.15581543 0,0" stroke="none" fill="#FFFFFF"></polygon></g></g><g transform="translate(1.793562925755396 4.236115409643389)"><g clip-path="url(#i19)"><polygon points="0,0 1.19570862,0 1.19570862,1.19339783 0,1.19339783 0,0" stroke="none" fill="#FFFFFF"></polygon></g></g></g></g><g transform="translate(44.92182807559647 0.0)"><g clip-path="url(#i20)"><polygon points="3.55271368e-15,1.11022302e-15 14.5507812,1.11022302e-15 14.5507812,11.71875 3.55271368e-15,11.71875 3.55271368e-15,1.11022302e-15" stroke="none" fill="url(#i21)"></polygon></g></g></g></g></g></svg>