<svg width="25" height="24" viewBox="0 0 25 24" fill="none" xmlns="http://www.w3.org/2000/svg">
<g id="icon_more">
<path id="Vector" d="M15.4012 7.13784C15.4642 7.07655 15.5143 7.00326 15.5485 6.92229C15.5827 6.84132 15.6003 6.75432 15.6003 6.66642C15.6003 6.57853 15.5827 6.49152 15.5485 6.41055C15.5143 6.32958 15.4642 6.25629 15.4012 6.19501C15.1356 5.935 14.7052 5.935 14.4396 6.19501L8.99942 11.5284C8.73381 11.7888 8.73381 12.2112 8.99942 12.4716L14.4396 17.805C14.7052 18.065 15.1356 18.065 15.4012 17.805C15.4642 17.7437 15.5143 17.6704 15.5485 17.5894C15.5827 17.5085 15.6003 17.4215 15.6003 17.3336C15.6003 17.2457 15.5827 17.1587 15.5485 17.0777C15.5143 16.9967 15.4642 16.9234 15.4012 16.8622L10.4419 12L15.4012 7.13784Z" fill="#9FA1A6"/>
</g>
</svg>
