<svg width="852" height="160" viewBox="0 0 852 160" fill="none" xmlns="http://www.w3.org/2000/svg">
<path d="M279.483 69.184L294.171 41.728H311.835L287.259 85.312V112H270.843V85.408L245.211 41.728H264.315L279.483 69.184ZM378.174 41.728H390.558V112H375.006V70.336L359.166 92.992H350.814L334.782 70.144V112H319.422V41.728H332.094L355.23 75.616L378.174 41.728ZM448.138 83.68H420.682V97.792H452.458V112H404.266V41.728H451.306V55.84H420.682V69.664H448.138V83.68ZM525.922 41.728L501.346 75.808L527.17 112H506.914L491.266 89.152L475.33 112H456.514L482.338 76.192L457.762 41.728H477.826L492.322 62.848L507.01 41.728H525.922Z" fill="white"/>
<path d="M591.37 85.984V71.968H619.786V101.152C617.546 104.928 613.93 107.904 608.938 110.08C604.01 112.192 598.57 113.248 592.618 113.248C585.642 113.248 579.434 111.712 573.994 108.64C568.618 105.568 564.426 101.28 561.418 95.776C558.474 90.208 557.002 83.872 557.002 76.768C557.002 69.536 558.538 63.168 561.61 57.664C564.746 52.096 569.002 47.84 574.378 44.896C579.754 41.888 585.77 40.384 592.426 40.384C597.098 40.384 601.322 41.12 605.098 42.592C608.938 44.064 612.106 46.048 614.602 48.544C617.162 51.04 618.954 53.824 619.978 56.896L606.346 64.768C605.002 61.76 603.114 59.424 600.682 57.76C598.314 56.096 595.466 55.264 592.138 55.264C588.746 55.264 585.674 56.128 582.922 57.856C580.17 59.584 577.994 62.08 576.394 65.344C574.794 68.544 573.994 72.352 573.994 76.768C573.994 83.488 575.754 88.8 579.274 92.704C582.858 96.544 587.626 98.464 593.578 98.464C598.058 98.464 601.482 97.28 603.85 94.912V85.984H591.37ZM644.978 112H629.33V38.944H644.978V112ZM653.64 87.136C653.64 81.888 654.824 77.28 657.192 73.312C659.624 69.344 662.856 66.304 666.888 64.192C670.92 62.08 675.24 61.024 679.848 61.024C684.456 61.024 688.744 62.08 692.712 64.192C696.744 66.304 699.944 69.344 702.312 73.312C704.68 77.28 705.864 81.888 705.864 87.136C705.864 92.448 704.68 97.088 702.312 101.056C699.944 104.96 696.776 107.968 692.808 110.08C688.84 112.192 684.52 113.248 679.848 113.248C675.176 113.248 670.824 112.192 666.792 110.08C662.824 107.968 659.624 104.96 657.192 101.056C654.824 97.088 653.64 92.448 653.64 87.136ZM669.768 87.136C669.768 91.04 670.696 94.144 672.552 96.448C674.472 98.688 676.872 99.808 679.752 99.808C682.568 99.808 684.904 98.688 686.76 96.448C688.68 94.144 689.64 91.04 689.64 87.136C689.64 83.232 688.68 80.128 686.76 77.824C684.904 75.52 682.568 74.368 679.752 74.368C676.872 74.368 674.472 75.52 672.552 77.824C670.696 80.128 669.768 83.232 669.768 87.136ZM744.885 61.024C748.981 61.024 752.725 62.048 756.117 64.096C759.573 66.144 762.293 69.152 764.277 73.12C766.325 77.024 767.349 81.696 767.349 87.136C767.349 92.512 766.325 97.184 764.277 101.152C762.293 105.056 759.573 108.064 756.117 110.176C752.725 112.224 748.981 113.248 744.885 113.248C741.557 113.248 738.549 112.576 735.861 111.232C733.173 109.824 730.933 107.744 729.141 104.992C728.821 107.424 728.597 109.76 728.469 112H714.549V38.944H730.197V67.84C733.717 63.296 738.613 61.024 744.885 61.024ZM740.853 100.096C743.925 100.096 746.421 98.912 748.341 96.544C750.261 94.176 751.221 91.04 751.221 87.136C751.221 83.296 750.261 80.288 748.341 78.112C746.485 75.872 743.989 74.752 740.853 74.752C737.845 74.752 735.317 75.808 733.269 77.92C731.221 79.968 730.197 83.04 730.197 87.136C730.197 91.296 731.221 94.496 733.269 96.736C735.317 98.976 737.845 100.096 740.853 100.096ZM797.093 61.024C804.261 61.024 809.797 63.04 813.701 67.072C817.605 71.04 819.557 76.672 819.557 83.968V112H806.405C806.085 109.312 805.861 107.52 805.733 106.624C804.197 108.864 802.341 110.528 800.165 111.616C797.989 112.704 795.237 113.248 791.909 113.248C788.389 113.248 785.157 112.64 782.213 111.424C779.333 110.144 777.029 108.352 775.301 106.048C773.637 103.68 772.805 100.896 772.805 97.696C772.805 94.368 773.733 91.456 775.589 88.96C777.509 86.4 780.069 84.448 783.269 83.104C786.469 81.76 789.957 81.088 793.733 81.088C797.253 81.088 800.709 81.696 804.101 82.912C803.653 76.64 800.805 73.504 795.557 73.504C791.141 73.504 787.941 75.552 785.957 79.648L774.917 73.216C776.773 69.44 779.621 66.464 783.461 64.288C787.365 62.112 791.909 61.024 797.093 61.024ZM804.101 92.608C801.605 91.968 799.237 91.648 796.997 91.648C794.373 91.648 792.293 92.128 790.757 93.088C789.221 94.048 788.453 95.328 788.453 96.928C788.453 98.4 789.029 99.552 790.181 100.384C791.333 101.216 792.805 101.632 794.597 101.632C797.029 101.632 799.205 100.928 801.125 99.52C803.109 98.112 804.101 96.224 804.101 93.856V92.608ZM845.791 112H830.143V38.944H845.791V112Z" fill="#07828B"/>
<g clip-path="url(#clip0_2_924)">
<path d="M143.631 96.0995C140.695 102.189 136.448 107.219 131.39 111.014C131.233 111.14 131.071 111.261 130.903 111.374C130.646 111.562 130.384 111.747 130.119 111.93C128.956 112.737 127.744 113.483 126.512 114.163C118.266 118.691 108.546 120.317 99.0529 118.454C99.902 115.143 101.001 111.855 102.361 108.616C102.837 107.468 103.347 106.339 103.892 105.21C104.121 104.731 104.355 104.263 104.595 103.797C107.913 97.2675 112.115 91.4763 116.975 86.48C118.467 84.9441 120.021 83.4879 121.634 82.1064C122.521 81.3448 123.43 80.6064 124.353 79.8964C130.999 74.7432 138.485 70.8455 146.42 68.3319C147.907 74.1592 148.118 80.3415 146.898 86.4208C146.232 89.6959 145.156 92.9479 143.639 96.1046H143.633L143.631 96.0995Z" fill="url(#paint0_linear_2_924)"/>
<path d="M111.523 142.548C107.787 147.462 104.497 152.841 101.757 158.65L101.515 159.162C99.1172 152.388 97.7357 145.254 97.4681 138.004C102.089 139.936 106.787 141.441 111.523 142.548Z" fill="url(#paint1_linear_2_924)"/>
<path fill-rule="evenodd" clip-rule="evenodd" d="M99.2409 151.462C99.8532 154.122 100.617 156.747 101.528 159.317L101.77 158.805C104.51 152.996 107.8 147.616 111.536 142.702C109.578 142.244 107.625 141.719 105.683 141.125C103.409 144.454 101.258 147.899 99.2409 151.462Z" fill="url(#paint2_linear_2_924)"/>
<path d="M219.65 49.0338C220.651 60.6163 219.555 72.0264 215.745 83.5857C214.602 87.0435 213.241 90.4729 211.649 93.8483H211.641C208.927 99.6061 205.675 104.934 201.98 109.804C201.942 109.856 201.908 109.902 201.87 109.951C192.865 121.783 181.218 130.916 168.18 136.911C167.272 137.33 166.358 137.734 165.432 138.123C148.462 145.254 129.347 147.158 110.746 142.862C110.664 142.844 110.584 142.826 110.504 142.802C117.564 133.533 126.242 125.912 135.946 120.17L136.234 119.995C142.887 116.085 150.009 113.051 157.421 110.967C157.459 110.957 157.493 110.947 157.531 110.936C176.853 105.382 194.226 93.3775 206.207 76.1582C209.03 72.101 211.556 67.7556 213.733 63.1401" fill="url(#paint3_linear_2_924)"/>
<path fill-rule="evenodd" clip-rule="evenodd" d="M42.3266 62.9935C43.0984 86.4054 58.9001 120.708 93.3079 136.937C94.5763 137.533 95.8472 138.099 97.1259 138.627C101.747 140.559 106.444 142.064 111.181 143.17C118.24 133.901 126.918 126.28 136.623 120.538L136.911 120.363C143.564 116.452 150.685 113.419 158.097 111.335C158.118 111.33 158.136 111.325 158.154 111.32C158.172 111.315 158.19 111.31 158.21 111.304C177.532 105.75 194.905 93.7455 206.887 76.5261C209.709 72.4689 212.235 68.1236 214.412 63.5081C216.429 59.2322 218.091 54.8894 219.372 50.4951C219.889 48.72 219.472 46.7956 218.24 45.414C213.437 40.0318 207.494 35.5115 200.563 32.2416C176.557 20.9164 148.516 28.3181 132.967 48.5321C131.15 50.8785 129.342 53.495 127.453 56.2272C117.878 70.0763 109.475 84.3472 81.1312 86.92C57.8865 89.0296 50.8166 69.1681 51.3312 61.9644L42.3266 62.9935ZM126.576 114.523C118.366 119.118 108.659 120.824 99.1532 119.038H99.1481C99.9688 115.717 101.042 112.418 102.377 109.169C102.845 108.019 103.344 106.884 103.879 105.75C104.106 105.271 104.335 104.801 104.569 104.332C107.834 97.7769 111.986 91.9522 116.807 86.9148C118.289 85.3686 119.83 83.897 121.431 82.5026C122.31 81.7333 123.213 80.9872 124.129 80.2694C130.734 75.0622 138.189 71.1028 146.101 68.5249C147.636 74.3419 147.896 80.519 146.726 86.6087C146.088 89.8889 145.038 93.1512 143.546 96.3182C140.662 102.434 136.453 107.497 131.426 111.333C131.269 111.459 131.109 111.582 130.945 111.698C130.69 111.888 130.43 112.074 130.162 112.259C129.005 113.077 127.801 113.831 126.573 114.52L126.576 114.523Z" fill="url(#paint4_linear_2_924)"/>
<path d="M44.8813 49.8905C46.2835 51.7095 47.5184 53.7008 48.5604 55.849C49.7181 58.2365 50.5697 60.6909 51.1408 63.171C51.146 63.1813 51.1485 63.189 51.1537 63.1993C51.164 63.2765 51.1871 63.3562 51.2051 63.4309C51.4007 64.3339 51.5628 65.2395 51.6837 66.1477C51.7043 66.2763 51.7171 66.4024 51.7377 66.531C50.8089 67.0996 49.8493 67.6193 48.8511 68.1029C47.8529 68.5866 46.7852 69.042 45.7355 69.4331C45.4911 69.5154 45.2467 69.608 45.0023 69.6903C39.8182 71.4681 34.4386 71.9235 29.2623 71.2057C18.3461 69.6826 8.37419 62.9266 3.20814 52.2729C1.52814 48.8074 0.488752 45.2056 0.0359497 41.5883C0.967281 41.0249 1.92948 40.4975 2.92771 40.0138C8.32274 37.3999 14.0702 36.3296 19.6634 36.6384C20.1805 36.6641 20.7028 36.7104 21.2199 36.7644C29.9595 37.6391 38.2077 41.8816 43.9963 48.7971C44.3025 49.1547 44.5906 49.5201 44.8813 49.8931V49.8905Z" fill="url(#paint5_linear_2_924)"/>
<path d="M86.6755 25.2283L87.0099 25.3157C89.2456 36.412 85.7802 47.9044 77.9539 55.9159C75.2705 58.6636 72.07 61.0048 68.4142 62.7774C63.2095 65.2987 57.691 66.3818 52.2908 66.1888C52.1673 66.1785 51.7403 66.2789 51.6193 66.2737C51.3492 65.718 51.4058 64.3519 51.1974 63.436C51.182 63.3614 51.1588 63.2816 51.1485 63.2045C51.1434 63.1942 51.1408 63.1864 51.1357 63.1762C50.5645 60.696 49.7129 58.2416 48.5552 55.8541C47.5132 53.7059 46.2783 51.7146 44.8762 49.8957C46.7749 42.3961 51.2 35.5861 57.6781 30.8111C59.3427 29.5736 61.1513 28.4776 63.0912 27.536C64.1177 27.0395 65.1571 26.597 66.2068 26.2059C66.9246 25.9409 67.6449 25.7016 68.373 25.4881C74.4678 23.6898 80.789 23.6872 86.6678 25.2334H86.6729L86.6755 25.2283Z" fill="url(#paint6_linear_2_924)"/>
<path fill-rule="evenodd" clip-rule="evenodd" d="M51.5397 66.6596C48.0048 66.7754 44.4852 66.585 41.0172 66.0988C24.935 63.8399 9.9874 55.2495 3.05176e-05 41.6603C0.452832 45.2647 1.49222 48.8563 3.16707 52.3089C8.33056 62.9626 18.3025 69.7212 29.2186 71.2417C34.3924 71.9595 39.7746 71.5041 44.9586 69.7263C45.0796 69.6852 45.203 69.6414 45.3265 69.5977C45.45 69.554 45.5709 69.5102 45.6944 69.4691C46.7441 69.078 47.8118 68.6226 48.81 68.139C49.7542 67.681 50.6624 67.1922 51.5423 66.6596H51.5397Z" fill="url(#paint7_linear_2_924)"/>
<path fill-rule="evenodd" clip-rule="evenodd" d="M87.0614 25.4161L86.7269 25.3286H86.7218C80.8405 23.785 74.5193 23.7876 68.427 25.5859C67.6989 25.7994 66.9786 26.0387 66.2608 26.3037C65.2111 26.6947 64.1717 27.1373 63.1452 27.6338C61.2054 28.5754 59.3967 29.6714 57.7322 30.9089C51.2514 35.6839 46.8263 42.4965 44.9302 49.9935C46.3323 51.8124 47.5673 53.8037 48.6092 55.9519C48.6401 56.0188 48.6735 56.0831 48.7044 56.15C52.1004 47.7578 57.763 40.2659 65.3397 34.6754C67.7864 32.8565 70.4441 31.2408 73.2947 29.8592C74.8023 29.1286 76.3305 28.4802 77.8741 27.9039C78.9289 27.5155 79.9889 27.1656 81.0592 26.8491C83.053 26.2625 85.0624 25.8072 87.0768 25.4778C87.0717 25.4547 87.0691 25.4341 87.0639 25.4109L87.0614 25.4161Z" fill="url(#paint8_linear_2_924)"/>
<path fill-rule="evenodd" clip-rule="evenodd" d="M126.998 97.9082C134.068 92.6032 140.003 85.5745 144.107 77.0613H144.115C145.133 74.949 146.008 72.8034 146.747 70.6397C147.915 76.0347 147.999 81.6922 146.88 87.2673C146.214 90.5424 145.139 93.7943 143.621 96.9485H143.616C140.683 103.036 136.432 108.065 131.374 111.86C131.217 111.984 131.055 112.107 130.888 112.22C130.631 112.408 130.368 112.593 130.101 112.776C128.938 113.584 127.726 114.33 126.494 115.009C118.248 119.537 108.529 121.163 99.0351 119.3C99.8841 115.989 100.983 112.701 102.344 109.462C102.483 109.13 102.622 108.801 102.766 108.472C108.86 107.376 114.749 105.294 120.18 102.313C121.904 101.363 123.594 100.321 125.22 99.192C125.593 98.9373 125.961 98.6774 126.319 98.415C126.551 98.2555 126.777 98.0857 126.996 97.9107L126.998 97.9082Z" fill="url(#paint9_linear_2_924)"/>
<path d="M173.198 22.1095C173.198 22.1095 176.707 5.76231 187.775 2.86798C197.835 0.238637 199.365 11.942 193.134 14.116C186.906 16.2848 179.872 13.9462 173.198 22.1095ZM166.442 24.4661C166.442 24.4661 173.139 11.3812 169.29 4.16978C165.03 -3.82114 156.051 1.16225 157.008 6.72708C157.965 12.2919 167.402 16.2256 166.442 24.4687V24.4661Z" fill="url(#paint10_linear_2_924)"/>
<path d="M190.059 61.4396C193.323 62.9781 197.216 61.5862 198.752 58.3291C200.288 55.072 198.888 51.1821 195.623 49.6436C192.359 48.1025 188.466 49.4969 186.93 52.754C185.394 56.0111 186.794 59.9011 190.059 61.4396Z" fill="white"/>
<path d="M193.657 63.0715C192.473 63.3848 191.193 63.3232 189.996 62.9751C188.799 62.627 187.68 61.9923 186.734 61.1112C186.284 60.68 185.875 60.1605 185.51 59.6624C185.168 59.1188 184.889 58.5537 184.72 57.986C184.509 57.3968 184.426 56.7595 184.37 56.189C184.332 55.5731 184.362 54.9331 184.479 54.3359C184.517 54.9518 184.573 55.5222 184.72 56.1355C184.844 56.6818 185.055 57.2736 185.245 57.7958C185.711 58.8858 186.351 59.8418 187.23 60.6372C188.063 61.4111 189.07 62.0485 190.184 62.4663C191.252 62.8599 192.446 63.0983 193.66 63.0715H193.657ZM192.813 46.9526C195.1 46.725 197.484 47.7962 199.026 49.6119C199.412 50.0644 199.731 50.5438 200.009 51.1089C200.242 51.6552 200.475 52.1988 200.598 52.7478C200.89 53.8645 200.853 55.0964 200.569 56.1596C200.563 55.0161 200.427 53.9181 200.049 52.8683C199.717 51.84 199.141 50.8625 198.44 50.043C197.757 49.178 196.86 48.538 195.923 47.9863C195.028 47.4561 193.984 47.1267 192.813 46.9553V46.9526Z" fill="white"/>
<path fill-rule="evenodd" clip-rule="evenodd" d="M194.316 55.1584C195.436 55.686 196.732 55.3967 197.527 54.5318C197.658 55.4583 197.53 56.4331 197.101 57.3437C196.001 59.6735 193.32 60.7528 190.939 59.9038C191.245 59.7565 191.502 59.5102 191.657 59.1808C192.016 58.4202 191.689 57.5097 190.926 57.1508C190.163 56.792 189.252 57.116 188.893 57.8793C188.818 58.0399 188.773 58.206 188.754 58.3747C187.573 56.9366 187.249 54.8906 188.095 53.099C189.137 50.887 191.606 49.8051 193.89 50.4237C193.515 50.6888 193.205 51.0503 192.996 51.4949C192.348 52.8714 192.937 54.513 194.316 55.1638V55.1584Z" fill="#07828B"/>
<path d="M184.335 50.4019C185.09 50.1823 186.903 49.8877 188.105 50.4554" stroke="white" stroke-width="2.05819" stroke-linecap="round"/>
<path d="M188.727 45.153C188.542 46.0849 188.282 48.313 188.705 49.7806" stroke="white" stroke-width="2.05819" stroke-linecap="round"/>
</g>
<defs>
<linearGradient id="paint0_linear_2_924" x1="88.5022" y1="96.7349" x2="144.526" y2="65.8164" gradientUnits="userSpaceOnUse">
<stop stop-color="#07828B"/>
<stop offset="1" stop-color="#5AB8DB"/>
</linearGradient>
<linearGradient id="paint1_linear_2_924" x1="103.167" y1="137.899" x2="101.892" y2="153.438" gradientUnits="userSpaceOnUse">
<stop stop-color="#07828B"/>
<stop offset="1" stop-color="#5AB8DB"/>
</linearGradient>
<linearGradient id="paint2_linear_2_924" x1="99.3077" y1="150.891" x2="105.934" y2="144.065" gradientUnits="userSpaceOnUse">
<stop stop-color="#07828B"/>
<stop offset="1" stop-color="#5AB8DB"/>
</linearGradient>
<linearGradient id="paint3_linear_2_924" x1="124.521" y1="134.811" x2="218.119" y2="47.1631" gradientUnits="userSpaceOnUse">
<stop stop-color="#07828B"/>
<stop offset="1" stop-color="#5AB8DB"/>
</linearGradient>
<linearGradient id="paint4_linear_2_924" x1="88.5022" y1="104.968" x2="224.594" y2="61.6474" gradientUnits="userSpaceOnUse">
<stop stop-color="#07828B"/>
<stop offset="1" stop-color="#5AB8DB"/>
</linearGradient>
<linearGradient id="paint5_linear_2_924" x1="2.18491e-05" y1="42.7075" x2="56.6012" y2="74.0147" gradientUnits="userSpaceOnUse">
<stop stop-color="#07828B"/>
<stop offset="1" stop-color="#5AB8DB"/>
</linearGradient>
<linearGradient id="paint6_linear_2_924" x1="50.9402" y1="62.2603" x2="84.9532" y2="24.7526" gradientUnits="userSpaceOnUse">
<stop stop-color="#07828B"/>
<stop offset="1" stop-color="#5AB8DB"/>
</linearGradient>
<linearGradient id="paint7_linear_2_924" x1="2.24012" y1="47.0678" x2="59.6134" y2="91.1137" gradientUnits="userSpaceOnUse">
<stop stop-color="#5AB8DB"/>
<stop offset="1" stop-color="#07828B"/>
</linearGradient>
<linearGradient id="paint8_linear_2_924" x1="46.762" y1="29.9787" x2="84.9821" y2="40.1524" gradientUnits="userSpaceOnUse">
<stop stop-color="#5AB8DB"/>
<stop offset="1" stop-color="#07828B"/>
</linearGradient>
<linearGradient id="paint9_linear_2_924" x1="153.85" y1="54.5421" x2="121.401" y2="112.463" gradientUnits="userSpaceOnUse">
<stop stop-color="#5AB8DB"/>
<stop offset="1" stop-color="#07828B"/>
</linearGradient>
<linearGradient id="paint10_linear_2_924" x1="151.792" y1="21.0965" x2="177.736" y2="-12.9939" gradientUnits="userSpaceOnUse">
<stop stop-color="#07828B"/>
<stop offset="1" stop-color="#5AB8DB"/>
</linearGradient>
<clipPath id="clip0_2_924">
<rect width="220" height="159.319" fill="white"/>
</clipPath>
</defs>
</svg>
