<svg width="29" height="20" viewBox="0 0 29 20" fill="none" xmlns="http://www.w3.org/2000/svg">
<g id="Group 115">
<path id="Vector" d="M14.667 3C14.5194 3 14.3726 3.00431 14.2262 3.0137C14.107 3.02106 13.9913 3.0573 13.8892 3.1193C13.7871 3.1813 13.7016 3.2672 13.6401 3.3696C13.5786 3.47199 13.5429 3.58781 13.5361 3.70707C13.5293 3.82634 13.5516 3.94546 13.6011 4.05419C13.8186 4.53301 13.9308 5.05298 13.9299 5.57891C13.9299 6.556 13.5418 7.49307 12.8509 8.18401C12.16 8.87496 11.223 9.26318 10.2459 9.26328C9.72009 9.2642 9.20024 9.15206 8.72157 8.93446C8.61313 8.88514 8.49434 8.86285 8.37539 8.86951C8.25644 8.87617 8.14087 8.91157 8.03861 8.97269C7.93635 9.03381 7.85043 9.11882 7.78823 9.22043C7.72603 9.32204 7.6894 9.43722 7.68148 9.55609C7.67169 9.70171 7.66699 9.84968 7.66699 10C7.66699 13.866 10.801 17 14.667 17C18.533 17 21.667 13.866 21.667 10C21.667 6.13399 18.533 3 14.667 3ZM20.1936 10C20.1936 13.0522 17.7192 15.5266 14.667 15.5266C11.8262 15.5266 9.48608 13.3833 9.17566 10.6255C9.52406 10.6991 9.88263 10.7367 10.2459 10.7367C13.0945 10.7367 15.4037 8.42753 15.4037 5.57891C15.4037 5.21564 15.3661 4.85745 15.2925 4.50867C18.0503 4.81909 20.1936 7.15921 20.1936 10Z" />
</g>
</svg>
