<svg width="29" height="20" viewBox="0 0 29 20" fill="none" xmlns="http://www.w3.org/2000/svg">
<g id="Group 114">
<g id="Union">
<path fill-rule="evenodd" clip-rule="evenodd" d="M10.0354 6.35009C9.97524 6.32516 9.9206 6.28856 9.87466 6.2424L9.34457 5.71205C9.25182 5.61899 9.19973 5.49295 9.19973 5.36156C9.19973 5.23017 9.25182 5.10414 9.34457 5.01108C9.43818 4.91733 9.56267 4.86586 9.69499 4.86586C9.76008 4.86571 9.82456 4.87846 9.88471 4.90336C9.94485 4.92826 9.99947 4.96482 10.0454 5.01094L10.5759 5.54089C10.6695 5.63477 10.7211 5.75926 10.7211 5.89158C10.7213 5.95672 10.7085 6.02125 10.6836 6.08144C10.6586 6.14163 10.6221 6.19629 10.5759 6.24227C10.4819 6.33601 10.3574 6.38762 10.2252 6.38762C10.1601 6.38777 10.0956 6.37501 10.0354 6.35009ZM7.82927 9.50444H8.57868C8.7101 9.50458 8.8361 9.55684 8.92904 9.64976C9.02198 9.74267 9.07427 9.86865 9.07445 10.0001C9.07427 10.1315 9.02197 10.2574 8.92903 10.3503C8.83609 10.4432 8.71009 10.4955 8.57868 10.4956H7.82927C7.69786 10.4955 7.57186 10.4432 7.47892 10.3503C7.38598 10.2574 7.33368 10.1315 7.3335 10.0001C7.33368 9.86865 7.38597 9.74267 7.47891 9.64976C7.57185 9.55684 7.69785 9.50458 7.82927 9.50444ZM9.87452 13.7577C9.96827 13.664 10.0929 13.6124 10.2252 13.6124C10.2903 13.6123 10.3548 13.625 10.415 13.6499C10.4752 13.6749 10.5298 13.7115 10.5758 13.7576C10.6694 13.8512 10.7208 13.9757 10.7208 14.1083C10.7211 14.1734 10.7084 14.238 10.6835 14.2982C10.6586 14.3584 10.622 14.4131 10.5759 14.4591L10.0455 14.9889C9.95166 15.0827 9.82717 15.1341 9.69499 15.1341C9.62988 15.1343 9.56538 15.1216 9.50523 15.0967C9.44508 15.0717 9.39047 15.0351 9.34457 14.9889C9.25182 14.8959 9.19974 14.7699 9.19974 14.6385C9.19974 14.5071 9.25182 14.3811 9.34457 14.2881L9.87452 13.7577ZM14.8292 4.24519C14.8291 4.51847 14.6067 4.74082 14.3336 4.74082C14.2022 4.74053 14.0763 4.68822 13.9834 4.59534C13.8905 4.50246 13.8381 4.37656 13.8378 4.24519V3.49563C13.8378 3.22236 14.0603 3 14.3336 3C14.6068 3 14.8292 3.22236 14.8292 3.49563V4.24519ZM18.6318 13.65C18.692 13.6749 18.7466 13.7116 18.7926 13.7577L19.3224 14.2882C19.4152 14.3813 19.4672 14.5073 19.4672 14.6386C19.4672 14.77 19.4152 14.896 19.3224 14.9891C19.2287 15.0828 19.1043 15.1343 18.972 15.1343C18.9069 15.1345 18.8423 15.1218 18.7822 15.0968C18.722 15.0719 18.6674 15.0353 18.6214 14.9891L18.0911 14.4592C17.9975 14.3655 17.946 14.2409 17.946 14.1084C17.9458 14.0433 17.9586 13.9788 17.9835 13.9186C18.0084 13.8584 18.0449 13.8037 18.0911 13.7577C18.1851 13.664 18.3096 13.6124 18.4419 13.6124C18.5071 13.6123 18.5716 13.625 18.6318 13.65ZM13.9832 15.4045C14.0762 15.3116 14.2021 15.2593 14.3336 15.2592C14.6068 15.2592 14.8292 15.4817 14.8292 15.7548V16.5044C14.8292 16.7776 14.6068 17 14.3336 17C14.0603 17 13.8378 16.7776 13.8378 16.5044V15.7548C13.838 15.6234 13.8903 15.4974 13.9832 15.4045ZM20.0884 9.50444H20.838C20.9694 9.50458 21.0954 9.55685 21.1883 9.64976C21.2812 9.74268 21.3335 9.86866 21.3336 10.0001C21.3335 10.1315 21.2812 10.2574 21.1883 10.3503C21.0954 10.4432 20.9694 10.4955 20.838 10.4956H20.0884C19.9571 10.4954 19.8311 10.4431 19.7382 10.3502C19.6453 10.2573 19.5931 10.1313 19.5929 9.99993C19.5931 9.86856 19.6453 9.74262 19.7382 9.64972C19.8311 9.55683 19.9571 9.50458 20.0884 9.50444ZM18.7823 4.90345C18.8425 4.87855 18.907 4.86582 18.9721 4.866C19.0372 4.86582 19.1018 4.87856 19.1619 4.90349C19.2221 4.92841 19.2767 4.96503 19.3226 5.01122C19.4153 5.10427 19.4674 5.23031 19.4674 5.3617C19.4674 5.49309 19.4153 5.61913 19.3226 5.71218L18.7927 6.24254C18.6987 6.33615 18.5741 6.38776 18.4421 6.38776C18.3769 6.38788 18.3123 6.37512 18.2521 6.35019C18.1919 6.32527 18.1372 6.28868 18.0912 6.24254C17.9975 6.14852 17.9459 6.02389 17.9459 5.89171C17.9457 5.82655 17.9585 5.76201 17.9834 5.70181C18.0084 5.64162 18.045 5.58697 18.0912 5.54102L18.6216 5.01108C18.6675 4.96493 18.7222 4.92835 18.7823 4.90345ZM9.34087 10C9.34087 7.24707 11.5806 5.00746 14.3336 5.00746C17.0866 5.00746 19.3263 7.24707 19.3263 10C19.3263 12.7531 17.0866 14.9927 14.3336 14.9927C11.5806 14.9927 9.34087 12.7531 9.34087 10ZM10.3323 10C10.3323 12.2064 12.1272 14.0013 14.3336 14.0013C16.54 14.0013 18.3349 12.2064 18.3349 10C18.3349 7.79376 16.54 5.99872 14.3336 5.99872C12.1273 5.99872 10.3323 7.79362 10.3323 10Z" />
<path d="M9.87466 6.2424L9.92654 6.19076L9.92643 6.19066L9.87466 6.2424ZM10.0354 6.35009L10.0074 6.41772L10.0074 6.41772L10.0354 6.35009ZM9.34457 5.71205L9.29273 5.76373L9.2928 5.7638L9.34457 5.71205ZM9.34457 5.01108L9.29277 4.95935L9.29273 4.9594L9.34457 5.01108ZM9.69499 4.86586V4.93906L9.69516 4.93906L9.69499 4.86586ZM10.0454 5.01094L9.99354 5.0626L9.99367 5.06273L10.0454 5.01094ZM10.5759 5.54089L10.6277 5.4892L10.6276 5.4891L10.5759 5.54089ZM10.7211 5.89158H10.6479L10.6479 5.89173L10.7211 5.89158ZM10.6836 6.08144L10.6159 6.05343L10.6159 6.05343L10.6836 6.08144ZM10.5759 6.24227L10.5242 6.19041L10.5242 6.19043L10.5759 6.24227ZM10.2252 6.38762V6.31442L10.225 6.31442L10.2252 6.38762ZM8.57868 9.50444L8.57877 9.43123H8.57868V9.50444ZM7.82927 9.50444V9.43123L7.82918 9.43123L7.82927 9.50444ZM8.92904 9.64976L8.98079 9.59799H8.98079L8.92904 9.64976ZM9.07445 10.0001L9.14766 10.0002L9.14766 9.99997L9.07445 10.0001ZM8.92903 10.3503L8.87728 10.2986H8.87728L8.92903 10.3503ZM8.57868 10.4956V10.5688L8.57875 10.5688L8.57868 10.4956ZM7.82927 10.4956L7.8292 10.5688H7.82927V10.4956ZM7.47892 10.3503L7.53067 10.2986H7.53067L7.47892 10.3503ZM7.3335 10.0001L7.26029 9.99997L7.26029 10.0002L7.3335 10.0001ZM7.47891 9.64976L7.42716 9.59799L7.47891 9.64976ZM10.2252 13.6124V13.6856H10.2254L10.2252 13.6124ZM9.87452 13.7577L9.82276 13.706L9.82274 13.706L9.87452 13.7577ZM10.5758 13.7576L10.5239 13.8093L10.524 13.8094L10.5758 13.7576ZM10.7208 14.1083H10.6476L10.6476 14.1085L10.7208 14.1083ZM10.6835 14.2982L10.6158 14.2703H10.6158L10.6835 14.2982ZM10.5759 14.4591L10.5242 14.4073L10.5242 14.4073L10.5759 14.4591ZM10.0455 14.9889L10.0973 15.0407L10.0973 15.0407L10.0455 14.9889ZM9.69499 15.1341V15.0609L9.69478 15.0609L9.69499 15.1341ZM9.50523 15.0967L9.4772 15.1643H9.4772L9.50523 15.0967ZM9.34457 14.9889L9.3965 14.9373L9.39642 14.9372L9.34457 14.9889ZM9.34457 14.2881L9.29279 14.2363L9.29273 14.2364L9.34457 14.2881ZM14.3336 4.74082L14.3334 4.81402H14.3336V4.74082ZM14.8292 4.24519L14.9024 4.24523V4.24519H14.8292ZM13.9834 4.59534L14.0351 4.54357V4.54357L13.9834 4.59534ZM13.8378 4.24519H13.7646L13.7646 4.24537L13.8378 4.24519ZM18.7926 13.7577L18.7407 13.8094L18.7408 13.8095L18.7926 13.7577ZM18.6318 13.65L18.6038 13.7176V13.7176L18.6318 13.65ZM19.3224 14.2882L19.3743 14.2365L19.3742 14.2365L19.3224 14.2882ZM19.3224 14.9891L19.3742 15.0408L19.3743 15.0407L19.3224 14.9891ZM18.972 15.1343V15.0611L18.9718 15.0611L18.972 15.1343ZM18.6214 14.9891L18.6734 14.9375L18.6732 14.9373L18.6214 14.9891ZM18.0911 14.4592L18.0393 14.511L18.0394 14.511L18.0911 14.4592ZM17.946 14.1084H18.0192L18.0192 14.1082L17.946 14.1084ZM17.9835 13.9186L17.9158 13.8906V13.8906L17.9835 13.9186ZM18.0911 13.7577L18.1428 13.8096L18.1428 13.8096L18.0911 13.7577ZM18.4419 13.6124V13.6856H18.442L18.4419 13.6124ZM14.3336 15.2592V15.186H14.3335L14.3336 15.2592ZM13.8378 15.7548L13.7646 15.7547V15.7548H13.8378ZM20.838 9.50444L20.8381 9.43123H20.838V9.50444ZM20.0884 9.50444V9.43123L20.0884 9.43123L20.0884 9.50444ZM21.1883 9.64976L21.1365 9.70153L21.1883 9.64976ZM21.3336 10.0001L21.4068 10.0001V9.99999L21.3336 10.0001ZM21.1883 10.3503L21.1365 10.2986L21.1883 10.3503ZM20.838 10.4956V10.5688L20.8381 10.5688L20.838 10.4956ZM20.0884 10.4956L20.0884 10.5688H20.0884V10.4956ZM19.7382 10.3502L19.79 10.2985H19.79L19.7382 10.3502ZM19.5929 9.99993L19.5197 9.99985V9.99999L19.5929 9.99993ZM18.9721 4.866L18.9719 4.9392L18.9723 4.9392L18.9721 4.866ZM18.7823 4.90345L18.7543 4.83581L18.7823 4.90345ZM19.1619 4.90349L19.1339 4.97111V4.97111L19.1619 4.90349ZM19.3226 5.01122L19.2706 5.06282L19.2707 5.0629L19.3226 5.01122ZM19.3226 5.71218L19.3743 5.76392L19.3744 5.76386L19.3226 5.71218ZM18.7927 6.24254L18.8444 6.29442L18.8445 6.29428L18.7927 6.24254ZM18.4421 6.38776V6.31456L18.4419 6.31456L18.4421 6.38776ZM18.2521 6.35019L18.2801 6.28256L18.2801 6.28256L18.2521 6.35019ZM18.0912 6.24254L18.0394 6.29423L18.0394 6.29423L18.0912 6.24254ZM17.9459 5.89171H18.0191V5.89154L17.9459 5.89171ZM17.9834 5.70181L17.9158 5.67379L17.9158 5.67379L17.9834 5.70181ZM18.0912 5.54102L18.1428 5.59293L18.143 5.59281L18.0912 5.54102ZM18.6216 5.01108L18.6733 5.06286L18.6735 5.06273L18.6216 5.01108ZM9.82277 6.29405C9.87554 6.34706 9.93829 6.38909 10.0074 6.41772L10.0634 6.28246C10.0122 6.26123 9.96566 6.23007 9.92654 6.19076L9.82277 6.29405ZM9.2928 5.7638L9.82288 6.29415L9.92643 6.19066L9.39635 5.6603L9.2928 5.7638ZM9.12653 5.36156C9.12653 5.51233 9.18629 5.65695 9.29273 5.76373L9.39642 5.66037C9.31734 5.58103 9.27293 5.47358 9.27293 5.36156H9.12653ZM9.29273 4.9594C9.18629 5.06618 9.12653 5.2108 9.12653 5.36156H9.27293C9.27293 5.24954 9.31734 5.14209 9.39642 5.06276L9.29273 4.9594ZM9.69499 4.79266C9.54328 4.79266 9.40014 4.85183 9.29277 4.95935L9.39637 5.0628C9.47622 4.98284 9.58206 4.93906 9.69499 4.93906V4.79266ZM9.91271 4.83572C9.84364 4.80713 9.76958 4.79249 9.69482 4.79266L9.69516 4.93906C9.75058 4.93894 9.80549 4.94979 9.8567 4.97099L9.91271 4.83572ZM10.0973 4.95928C10.0445 4.90631 9.98178 4.86432 9.91271 4.83572L9.8567 4.97099C9.90792 4.9922 9.95442 5.02333 9.99354 5.0626L10.0973 4.95928ZM10.6276 5.4891L10.0971 4.95915L9.99367 5.06273L10.5242 5.59268L10.6276 5.4891ZM10.7943 5.89158C10.7943 5.73981 10.735 5.59675 10.6277 5.4892L10.5241 5.59257C10.604 5.67279 10.6479 5.77872 10.6479 5.89158H10.7943ZM10.7512 6.10945C10.7798 6.04033 10.7945 5.96623 10.7943 5.89143L10.6479 5.89173C10.648 5.94721 10.6372 6.00217 10.6159 6.05343L10.7512 6.10945ZM10.6276 6.29413C10.6806 6.24133 10.7226 6.17856 10.7512 6.10945L10.6159 6.05343C10.5947 6.1047 10.5635 6.15125 10.5242 6.19041L10.6276 6.29413ZM10.2252 6.46082C10.3769 6.46082 10.5199 6.40146 10.6276 6.29411L10.5242 6.19043C10.4438 6.27057 10.3379 6.31442 10.2252 6.31442V6.46082ZM10.0074 6.41772C10.0765 6.44634 10.1506 6.46099 10.2254 6.46082L10.225 6.31442C10.1696 6.31454 10.1147 6.30368 10.0634 6.28246L10.0074 6.41772ZM8.57868 9.43123H7.82927V9.57764H8.57868V9.43123ZM8.98079 9.59799C8.87415 9.49137 8.72957 9.4314 8.57877 9.43123L8.5786 9.57764C8.69064 9.57776 8.79805 9.62232 8.87728 9.70153L8.98079 9.59799ZM9.14766 9.99997C9.14745 9.84917 9.08744 9.7046 8.98079 9.59799L8.87728 9.70153C8.95651 9.78074 9.0011 9.88814 9.00125 10.0002L9.14766 9.99997ZM8.98078 10.4021C9.08743 10.2955 9.14745 10.151 9.14766 10.0002L9.00125 9.99997C9.0011 10.112 8.95651 10.2194 8.87728 10.2986L8.98078 10.4021ZM8.57875 10.5688C8.72954 10.5686 8.87412 10.5087 8.98078 10.4021L8.87728 10.2986C8.79805 10.3777 8.69064 10.4223 8.57862 10.4224L8.57875 10.5688ZM7.82927 10.5688H8.57868V10.4224H7.82927V10.5688ZM7.42717 10.4021C7.53383 10.5087 7.67841 10.5686 7.8292 10.5688L7.82933 10.4224C7.71731 10.4223 7.6099 10.3777 7.53067 10.2986L7.42717 10.4021ZM7.26029 10.0002C7.2605 10.151 7.32052 10.2955 7.42717 10.4021L7.53067 10.2986C7.45144 10.2194 7.40685 10.112 7.4067 9.99997L7.26029 10.0002ZM7.42716 9.59799C7.32051 9.7046 7.2605 9.84917 7.26029 9.99997L7.4067 10.0002C7.40685 9.88814 7.45144 9.78074 7.53067 9.70153L7.42716 9.59799ZM7.82918 9.43123C7.67838 9.4314 7.5338 9.49137 7.42716 9.59799L7.53067 9.70153C7.6099 9.62232 7.71731 9.57776 7.82935 9.57764L7.82918 9.43123ZM10.2252 13.5392C10.0735 13.5392 9.93022 13.5985 9.82276 13.706L9.92628 13.8095C10.0063 13.7295 10.1123 13.6856 10.2252 13.6856V13.5392ZM10.443 13.5823C10.3739 13.5537 10.2999 13.539 10.2251 13.5392L10.2254 13.6856C10.2808 13.6855 10.3357 13.6963 10.387 13.7176L10.443 13.5823ZM10.6276 13.7059C10.5749 13.653 10.5121 13.6109 10.443 13.5823L10.387 13.7176C10.4382 13.7388 10.4848 13.77 10.5239 13.8093L10.6276 13.7059ZM10.794 14.1083C10.794 13.9563 10.7349 13.8132 10.6275 13.7058L10.524 13.8094C10.6038 13.8892 10.6476 13.9951 10.6476 14.1083H10.794ZM10.7511 14.3262C10.7797 14.257 10.7943 14.1829 10.794 14.108L10.6476 14.1085C10.6478 14.164 10.637 14.219 10.6158 14.2703L10.7511 14.3262ZM10.6276 14.511C10.6806 14.4581 10.7226 14.3953 10.7511 14.3262L10.6158 14.2703C10.5946 14.3215 10.5635 14.3681 10.5242 14.4073L10.6276 14.511ZM10.0973 15.0407L10.6276 14.5109L10.5242 14.4073L9.99381 14.9371L10.0973 15.0407ZM9.69499 15.2073C9.84659 15.2073 9.98967 15.1482 10.0973 15.0407L9.99382 14.9371C9.91364 15.0172 9.80775 15.0609 9.69499 15.0609V15.2073ZM9.4772 15.1643C9.5463 15.1929 9.6204 15.2076 9.69519 15.2073L9.69478 15.0609C9.63936 15.0611 9.58445 15.0502 9.53325 15.029L9.4772 15.1643ZM9.29265 15.0405C9.34537 15.0936 9.4081 15.1356 9.4772 15.1643L9.53325 15.029C9.48205 15.0078 9.43557 14.9766 9.3965 14.9373L9.29265 15.0405ZM9.12654 14.6385C9.12654 14.7893 9.1863 14.9338 9.29273 15.0406L9.39642 14.9372C9.31734 14.8579 9.27294 14.7505 9.27294 14.6385H9.12654ZM9.29273 14.2364C9.1863 14.3432 9.12654 14.4878 9.12654 14.6385H9.27294C9.27294 14.5265 9.31735 14.4191 9.39642 14.3398L9.29273 14.2364ZM9.82274 13.706L9.29279 14.2363L9.39636 14.3398L9.9263 13.8095L9.82274 13.706ZM14.3336 4.81402C14.6472 4.81402 14.9022 4.55888 14.9024 4.24523L14.756 4.24515C14.7559 4.47805 14.5663 4.66762 14.3336 4.66762V4.81402ZM13.9316 4.64711C14.0382 4.75368 14.1827 4.81369 14.3334 4.81402L14.3337 4.66762C14.2217 4.66737 14.1143 4.62277 14.0351 4.54357L13.9316 4.64711ZM13.7646 4.24537C13.765 4.3961 13.825 4.54054 13.9316 4.64711L14.0351 4.54357C13.9559 4.46437 13.9113 4.35703 13.911 4.24501L13.7646 4.24537ZM13.7646 3.49563V4.24519H13.911V3.49563H13.7646ZM14.3336 2.9268C14.0199 2.9268 13.7646 3.1819 13.7646 3.49563H13.911C13.911 3.26281 14.1007 3.0732 14.3336 3.0732V2.9268ZM14.9024 3.49563C14.9024 3.18193 14.6473 2.9268 14.3336 2.9268V3.0732C14.5664 3.0732 14.756 3.26278 14.756 3.49563H14.9024ZM14.9024 4.24519V3.49563H14.756V4.24519H14.9024ZM18.8445 13.7061C18.7917 13.6531 18.7289 13.611 18.6598 13.5824L18.6038 13.7176C18.655 13.7389 18.7016 13.7701 18.7407 13.8094L18.8445 13.7061ZM19.3742 14.2365L18.8444 13.706L18.7408 13.8095L19.2706 14.34L19.3742 14.2365ZM19.5405 14.6386C19.5405 14.4879 19.4807 14.3433 19.3743 14.2365L19.2706 14.3399C19.3496 14.4192 19.394 14.5266 19.394 14.6386H19.5405ZM19.3743 15.0407C19.4807 14.934 19.5405 14.7894 19.5405 14.6386H19.394C19.394 14.7506 19.3496 14.8581 19.2706 14.9374L19.3743 15.0407ZM18.972 15.2075C19.1237 15.2075 19.2667 15.1483 19.3742 15.0408L19.2707 14.9373C19.1906 15.0173 19.0849 15.0611 18.972 15.0611V15.2075ZM18.7541 15.1645C18.8233 15.1931 18.8974 15.2077 18.9722 15.2075L18.9718 15.0611C18.9163 15.0613 18.8614 15.0504 18.8102 15.0292L18.7541 15.1645ZM18.5695 15.0407C18.6223 15.0937 18.685 15.1358 18.7541 15.1645L18.8102 15.0292C18.759 15.008 18.7125 14.9768 18.6734 14.9375L18.5695 15.0407ZM18.0394 14.511L18.5697 15.0408L18.6732 14.9373L18.1428 14.4075L18.0394 14.511ZM17.8728 14.1084C17.8728 14.2602 17.932 14.4035 18.0393 14.511L18.1429 14.4075C18.063 14.3275 18.0192 14.2215 18.0192 14.1084H17.8728ZM17.9158 13.8906C17.8872 13.9597 17.8726 14.0338 17.8728 14.1086L18.0192 14.1082C18.0191 14.0528 18.0299 13.9978 18.0511 13.9465L17.9158 13.8906ZM18.0394 13.7059C17.9864 13.7587 17.9444 13.8215 17.9158 13.8906L18.0511 13.9465C18.0723 13.8953 18.1035 13.8487 18.1428 13.8096L18.0394 13.7059ZM18.4419 13.5392C18.2901 13.5392 18.1471 13.5985 18.0394 13.7059L18.1428 13.8096C18.2231 13.7294 18.3291 13.6856 18.4419 13.6856V13.5392ZM18.6598 13.5824C18.5907 13.5537 18.5166 13.539 18.4418 13.5392L18.442 13.6856C18.4975 13.6855 18.5525 13.6964 18.6038 13.7176L18.6598 13.5824ZM14.3335 15.186C14.1827 15.1861 14.0381 15.2461 13.9315 15.3527L14.035 15.4563C14.1142 15.3771 14.2216 15.3325 14.3336 15.3324L14.3335 15.186ZM14.9024 15.7548C14.9024 15.4413 14.6473 15.186 14.3336 15.186V15.3324C14.5664 15.3324 14.756 15.5221 14.756 15.7548H14.9024ZM14.9024 16.5044V15.7548H14.756V16.5044H14.9024ZM14.3336 17.0732C14.6473 17.0732 14.9024 16.8181 14.9024 16.5044H14.756C14.756 16.7372 14.5664 16.9268 14.3336 16.9268V17.0732ZM13.7646 16.5044C13.7646 16.8181 14.0199 17.0732 14.3336 17.0732V16.9268C14.1007 16.9268 13.911 16.7372 13.911 16.5044H13.7646ZM13.7646 15.7548V16.5044H13.911V15.7548H13.7646ZM13.9315 15.3527C13.8248 15.4593 13.7648 15.6039 13.7646 15.7547L13.911 15.7549C13.9112 15.6429 13.9557 15.5355 14.035 15.4563L13.9315 15.3527ZM20.838 9.43123H20.0884V9.57764H20.838V9.43123ZM21.2401 9.598C21.1334 9.49138 20.9889 9.4314 20.8381 9.43123L20.8379 9.57764C20.9499 9.57776 21.0573 9.62232 21.1365 9.70153L21.2401 9.598ZM21.4068 9.99999C21.4067 9.8492 21.3467 9.70463 21.2401 9.598L21.1365 9.70153C21.2158 9.78074 21.2603 9.88813 21.2604 10.0001L21.4068 9.99999ZM21.2401 10.4021C21.3467 10.2955 21.4067 10.1509 21.4068 10.0001L21.2604 9.99999C21.2603 10.112 21.2157 10.2194 21.1365 10.2986L21.2401 10.4021ZM20.8381 10.5688C20.9888 10.5686 21.1334 10.5087 21.2401 10.4021L21.1365 10.2986C21.0573 10.3777 20.9499 10.4223 20.8379 10.4224L20.8381 10.5688ZM20.0884 10.5688H20.838V10.4224H20.0884V10.5688ZM19.6864 10.402C19.793 10.5086 19.9376 10.5686 20.0884 10.5688L20.0885 10.4224C19.9765 10.4222 19.8691 10.3777 19.79 10.2985L19.6864 10.402ZM19.5197 9.99999C19.5199 10.1508 19.5798 10.2953 19.6864 10.402L19.79 10.2985C19.7108 10.2193 19.6662 10.1119 19.6662 9.99987L19.5197 9.99999ZM19.6865 9.59796C19.5799 9.70456 19.5199 9.8491 19.5197 9.99985L19.6662 10C19.6663 9.88803 19.7108 9.78067 19.79 9.70149L19.6865 9.59796ZM20.0884 9.43123C19.9376 9.4314 19.7931 9.49136 19.6865 9.59796L19.79 9.70149C19.8692 9.6223 19.9765 9.57776 20.0885 9.57764L20.0884 9.43123ZM18.9723 4.7928C18.8975 4.79259 18.8235 4.80721 18.7543 4.83581L18.8103 4.97109C18.8616 4.94989 18.9165 4.93905 18.9719 4.9392L18.9723 4.7928ZM19.1899 4.83586C19.1208 4.80722 19.0467 4.79259 18.9719 4.7928L18.9723 4.9392C19.0278 4.93905 19.0827 4.94989 19.1339 4.97111L19.1899 4.83586ZM19.3745 4.95962C19.3218 4.90656 19.259 4.86449 19.1899 4.83586L19.1339 4.97111C19.1851 4.99233 19.2316 5.0235 19.2706 5.06282L19.3745 4.95962ZM19.5406 5.3617C19.5406 5.21093 19.4808 5.06631 19.3744 4.95954L19.2707 5.0629C19.3498 5.14223 19.3942 5.24968 19.3942 5.3617H19.5406ZM19.3744 5.76386C19.4808 5.65708 19.5406 5.51247 19.5406 5.3617H19.3942C19.3942 5.47372 19.3498 5.58117 19.2707 5.6605L19.3744 5.76386ZM18.8445 6.29428L19.3743 5.76392L19.2708 5.66045L18.741 6.19081L18.8445 6.29428ZM18.4421 6.46096C18.5936 6.46096 18.7367 6.40161 18.8444 6.29442L18.7411 6.19067C18.6607 6.27069 18.5546 6.31456 18.4421 6.31456V6.46096ZM18.2241 6.41783C18.2933 6.44645 18.3674 6.4611 18.4422 6.46096L18.4419 6.31456C18.3864 6.31466 18.3314 6.30379 18.2801 6.28256L18.2241 6.41783ZM18.0394 6.29423C18.0922 6.34721 18.155 6.38922 18.2241 6.41783L18.2801 6.28256C18.2288 6.26132 18.1823 6.23016 18.1431 6.19085L18.0394 6.29423ZM17.8727 5.89171C17.8727 6.04335 17.932 6.18654 18.0394 6.29423L18.1431 6.19086C18.0629 6.1105 18.0191 6.00443 18.0191 5.89171H17.8727ZM17.9158 5.67379C17.8872 5.74292 17.8725 5.81705 17.8727 5.89189L18.0191 5.89154C18.0189 5.83606 18.0298 5.7811 18.0511 5.72984L17.9158 5.67379ZM18.0396 5.48912C17.9865 5.54188 17.9445 5.60465 17.9158 5.67379L18.0511 5.72984C18.0723 5.67859 18.1035 5.63206 18.1428 5.59293L18.0396 5.48912ZM18.5698 4.9593L18.0395 5.48924L18.143 5.59281L18.6733 5.06286L18.5698 4.9593ZM18.7543 4.83581C18.6852 4.86441 18.6225 4.90643 18.5697 4.95943L18.6735 5.06273C18.7126 5.02344 18.7591 4.99229 18.8103 4.97109L18.7543 4.83581ZM14.3336 4.93425C11.5402 4.93425 9.26767 7.20664 9.26767 10H9.41407C9.41407 7.2875 11.621 5.08066 14.3336 5.08066V4.93425ZM19.3995 10C19.3995 7.20664 17.1271 4.93425 14.3336 4.93425V5.08066C17.0462 5.08066 19.2531 7.2875 19.2531 10H19.3995ZM14.3336 15.0659C17.1271 15.0659 19.3995 12.7935 19.3995 10H19.2531C19.2531 12.7127 17.0462 14.9195 14.3336 14.9195V15.0659ZM9.26767 10C9.26767 12.7935 11.5402 15.0659 14.3336 15.0659V14.9195C11.621 14.9195 9.41407 12.7127 9.41407 10H9.26767ZM14.3336 13.9281C12.1676 13.9281 10.4055 12.166 10.4055 10H10.2591C10.2591 12.2468 12.0867 14.0745 14.3336 14.0745V13.9281ZM18.2617 10C18.2617 12.166 16.4995 13.9281 14.3336 13.9281V14.0745C16.5804 14.0745 18.4081 12.2468 18.4081 10H18.2617ZM14.3336 6.07193C16.4995 6.07193 18.2617 7.83419 18.2617 10H18.4081C18.4081 7.75333 16.5804 5.92552 14.3336 5.92552V6.07193ZM10.4055 10C10.4055 7.83405 12.1677 6.07193 14.3336 6.07193V5.92552C12.0869 5.92552 10.2591 7.75319 10.2591 10H10.4055Z"/>
</g>
</g>
</svg>
