<svg width="121" height="32" viewBox="0 0 121 32" fill="none" xmlns="http://www.w3.org/2000/svg">
<path opacity="0.15" d="M0.5 16C0.5 7.16344 7.66344 0 16.5 0H121V32H16.5C7.66344 32 0.5 24.8366 0.5 16Z" fill="#9E9E9D"/>
<path fill-rule="evenodd" clip-rule="evenodd" d="M18.4882 7.64648C18.2394 7.29102 17.713 7.29102 17.4642 7.64648L15.8466 9.95728C15.7073 10.1563 15.4653 10.2566 15.226 10.2144L12.4482 9.72413C12.021 9.64872 11.6487 10.021 11.7241 10.4482L12.2144 13.226C12.2566 13.4653 12.1563 13.7073 11.9573 13.8466L9.64648 15.4642C9.29102 15.713 9.29102 16.2394 9.64648 16.4882L11.9573 18.1057C12.1563 18.245 12.2566 18.4871 12.2144 18.7264L11.7241 21.5041C11.6487 21.9314 12.021 22.3036 12.4482 22.2282L15.226 21.738C15.4653 21.6958 15.7073 21.796 15.8466 21.9951L17.4642 24.3059C17.713 24.6613 18.2394 24.6613 18.4882 24.3059L20.1057 21.9951C20.245 21.796 20.4871 21.6958 20.7264 21.738L23.5041 22.2282C23.9314 22.3036 24.3036 21.9314 24.2282 21.5041L23.738 18.7264C23.6958 18.4871 23.796 18.245 23.9951 18.1057L26.3059 16.4882C26.6613 16.2394 26.6613 15.713 26.3059 15.4642L23.9951 13.8466C23.796 13.7073 23.6958 13.4653 23.738 13.226L24.2282 10.4482C24.3036 10.021 23.9314 9.64872 23.5041 9.72413L20.7264 10.2144C20.4871 10.2566 20.245 10.1563 20.1057 9.95728L18.4882 7.64648ZM17.6401 19.1382L22.895 13.8833L21.9028 12.8912L17.144 17.65L14.5889 15.0949L13.5968 16.087L16.648 19.1382L17.144 19.6343L17.6401 19.1382Z" fill="#9E9E9D"/>
<path d="M35.7232 22V12.032H37.3332L40.6372 17.884L41.6732 19.984H41.7432C41.6966 19.4707 41.6452 18.9293 41.5892 18.36C41.5426 17.7813 41.5192 17.226 41.5192 16.694V12.032H43.0172V22H41.4212L38.1172 16.134L37.0812 14.048H37.0252C37.0626 14.5707 37.0999 15.112 37.1372 15.672C37.1839 16.2227 37.2072 16.7733 37.2072 17.324V22H35.7232ZM48.2628 22.182C47.6934 22.182 47.1568 22.0373 46.6528 21.748C46.1581 21.4587 45.7568 21.0433 45.4488 20.502C45.1408 19.9607 44.9868 19.3027 44.9868 18.528C44.9868 17.7533 45.1408 17.0953 45.4488 16.554C45.7568 16.0127 46.1581 15.5973 46.6528 15.308C47.1568 15.0187 47.6934 14.874 48.2628 14.874C48.8414 14.874 49.3781 15.0187 49.8728 15.308C50.3674 15.5973 50.7641 16.0127 51.0628 16.554C51.3708 17.0953 51.5248 17.7533 51.5248 18.528C51.5248 19.3027 51.3708 19.9607 51.0628 20.502C50.7641 21.0433 50.3674 21.4587 49.8728 21.748C49.3781 22.0373 48.8414 22.182 48.2628 22.182ZM48.2628 20.964C48.8134 20.964 49.2474 20.7447 49.5648 20.306C49.8821 19.858 50.0408 19.2653 50.0408 18.528C50.0408 17.8 49.8821 17.212 49.5648 16.764C49.2474 16.3067 48.8134 16.078 48.2628 16.078C47.7214 16.078 47.2874 16.3067 46.9608 16.764C46.6434 17.212 46.4848 17.8 46.4848 18.528C46.4848 19.2653 46.6434 19.858 46.9608 20.306C47.2874 20.7447 47.7214 20.964 48.2628 20.964ZM55.3343 22.042C54.5503 22.042 53.9996 21.818 53.6823 21.37C53.3649 20.9127 53.2063 20.3153 53.2063 19.578V16.036H52.1843V14.944L53.2763 14.846L53.4443 12.914H54.6623V14.846H56.4823V16.036H54.6623V19.578C54.6623 20.0073 54.7416 20.3293 54.9003 20.544C55.0589 20.7493 55.3249 20.852 55.6983 20.852C55.9316 20.852 56.1789 20.8007 56.4403 20.698L56.7063 21.776C56.5103 21.8413 56.2956 21.902 56.0623 21.958C55.8289 22.014 55.5863 22.042 55.3343 22.042ZM63.1747 22L60.0527 12.06H61.7047L63.1747 17.212C63.4827 18.2853 63.7861 19.368 64.0847 20.46H64.1547C64.4627 19.368 64.7661 18.2853 65.0647 17.212L66.5207 12.06H68.1307L65.0227 22H63.1747ZM72.2391 22.07C71.6044 22.07 71.0304 21.9253 70.5171 21.636C70.0037 21.3467 69.5977 20.9313 69.2991 20.39C69.0004 19.8487 68.8511 19.2 68.8511 18.444C68.8511 17.688 69.0004 17.0393 69.2991 16.498C69.6071 15.9567 69.9991 15.5413 70.4751 15.252C70.9604 14.9533 71.4691 14.804 72.0011 14.804C72.9251 14.804 73.6297 15.1073 74.1151 15.714C74.6004 16.3113 74.8431 17.0953 74.8431 18.066C74.8431 18.3553 74.8151 18.6027 74.7591 18.808H70.2791C70.3351 19.48 70.5544 20.0027 70.9371 20.376C71.3197 20.74 71.8097 20.922 72.4071 20.922C73.0231 20.922 73.5737 20.754 74.0591 20.418L74.5631 21.328C74.2457 21.5427 73.8864 21.72 73.4851 21.86C73.0931 22 72.6777 22.07 72.2391 22.07ZM70.2651 17.814H73.5831C73.5831 17.2167 73.4477 16.7593 73.1771 16.442C72.9157 16.1153 72.5331 15.952 72.0291 15.952C71.5997 15.952 71.2171 16.1107 70.8811 16.428C70.5451 16.7453 70.3397 17.2073 70.2651 17.814ZM77.0839 22V15.056H78.2739L78.3999 16.302H78.4139C78.9833 15.3593 79.6459 14.888 80.4019 14.888C80.7379 14.888 80.9946 14.9347 81.1719 15.028L80.9199 16.302C80.7333 16.2273 80.4953 16.19 80.2059 16.19C79.9259 16.19 79.6319 16.3067 79.3239 16.54C79.0159 16.764 78.7499 17.1467 78.5259 17.688V22H77.0839ZM82.9423 22V15.07H84.3843V22H82.9423ZM83.6703 13.796C83.3996 13.796 83.1803 13.7167 83.0123 13.558C82.8443 13.3993 82.7603 13.1847 82.7603 12.914C82.7603 12.662 82.8443 12.4567 83.0123 12.298C83.1803 12.1393 83.3996 12.06 83.6703 12.06C83.9316 12.06 84.1416 12.1393 84.3003 12.298C84.4683 12.4567 84.5523 12.662 84.5523 12.914C84.5523 13.4553 84.2583 13.7493 83.6703 13.796ZM85.5837 16.344V15.28L86.5077 15.21V14.356C86.5077 13.6653 86.6757 13.1007 87.0117 12.662C87.357 12.2233 87.9077 12.004 88.6637 12.004C89.1304 12.004 89.527 12.0787 89.8537 12.228L89.5737 13.292C89.3124 13.1893 89.065 13.138 88.8317 13.138C88.225 13.138 87.9264 13.5393 87.9357 14.342V15.196H89.2937V16.344H87.9357V22H86.5077V16.344H85.5837ZM91.2274 22V15.07H92.6694V22H91.2274ZM91.9554 13.796C91.6848 13.796 91.4654 13.7167 91.2974 13.558C91.1294 13.3993 91.0454 13.1847 91.0454 12.914C91.0454 12.662 91.1294 12.4567 91.2974 12.298C91.4654 12.1393 91.6848 12.06 91.9554 12.06C92.2168 12.06 92.4268 12.1393 92.5854 12.298C92.7534 12.4567 92.8374 12.662 92.8374 12.914C92.8374 13.4553 92.5434 13.7493 91.9554 13.796ZM97.9148 22.07C97.2802 22.07 96.7062 21.9253 96.1928 21.636C95.6795 21.3467 95.2735 20.9313 94.9748 20.39C94.6762 19.8487 94.5268 19.2 94.5268 18.444C94.5268 17.688 94.6762 17.0393 94.9748 16.498C95.2828 15.9567 95.6748 15.5413 96.1508 15.252C96.6362 14.9533 97.1448 14.804 97.6768 14.804C98.6008 14.804 99.3055 15.1073 99.7908 15.714C100.276 16.3113 100.519 17.0953 100.519 18.066C100.519 18.3553 100.491 18.6027 100.435 18.808H95.9548C96.0108 19.48 96.2302 20.0027 96.6128 20.376C96.9955 20.74 97.4855 20.922 98.0828 20.922C98.6988 20.922 99.2495 20.754 99.7348 20.418L100.239 21.328C99.9215 21.5427 99.5622 21.72 99.1608 21.86C98.7688 22 98.3535 22.07 97.9148 22.07ZM95.9408 17.814H99.2588C99.2588 17.2167 99.1235 16.7593 98.8528 16.442C98.5915 16.1153 98.2088 15.952 97.7048 15.952C97.2755 15.952 96.8928 16.1107 96.5568 16.428C96.2208 16.7453 96.0155 17.2073 95.9408 17.814ZM104.86 22.14C104.01 22.14 103.329 21.8273 102.816 21.202C102.302 20.5673 102.046 19.6807 102.046 18.542C102.046 17.7953 102.181 17.1513 102.452 16.61C102.732 16.0687 103.096 15.6533 103.544 15.364C103.992 15.0747 104.468 14.93 104.972 14.93C105.373 14.93 105.714 15 105.994 15.14C106.283 15.2707 106.558 15.4573 106.82 15.7L106.778 14.566V12.032H108.206V21.972H107.03L106.904 21.188H106.876C106.614 21.4587 106.311 21.6873 105.966 21.874C105.62 22.0513 105.252 22.14 104.86 22.14ZM105.21 20.936C105.788 20.936 106.311 20.656 106.778 20.096V16.75C106.516 16.526 106.26 16.3673 106.008 16.274C105.765 16.1807 105.518 16.134 105.266 16.134C104.79 16.134 104.379 16.3487 104.034 16.778C103.698 17.198 103.53 17.7813 103.53 18.528C103.53 19.3027 103.674 19.9 103.964 20.32C104.262 20.7307 104.678 20.936 105.21 20.936Z" fill="#9E9E9D"/>
</svg>
