<svg width="93" height="32" viewBox="0 0 93 32" fill="none" xmlns="http://www.w3.org/2000/svg">
<path opacity="0.15" d="M0 16C0 7.16344 7.16344 0 16 0H93V32H16C7.16345 32 0 24.8366 0 16Z" fill="#43BC9C"/>
<path d="M36.038 22L32.916 12.06H34.568L36.038 17.212C36.346 18.2853 36.6493 19.368 36.948 20.46H37.018C37.326 19.368 37.6293 18.2853 37.928 17.212L39.384 12.06H40.994L37.886 22H36.038ZM45.1023 22.07C44.4677 22.07 43.8937 21.9253 43.3803 21.636C42.867 21.3467 42.461 20.9313 42.1623 20.39C41.8637 19.8487 41.7143 19.2 41.7143 18.444C41.7143 17.688 41.8637 17.0393 42.1623 16.498C42.4703 15.9567 42.8623 15.5413 43.3383 15.252C43.8237 14.9533 44.3323 14.804 44.8643 14.804C45.7883 14.804 46.493 15.1073 46.9783 15.714C47.4637 16.3113 47.7063 17.0953 47.7063 18.066C47.7063 18.3553 47.6783 18.6027 47.6223 18.808H43.1423C43.1983 19.48 43.4177 20.0027 43.8003 20.376C44.183 20.74 44.673 20.922 45.2703 20.922C45.8863 20.922 46.437 20.754 46.9223 20.418L47.4263 21.328C47.109 21.5427 46.7497 21.72 46.3483 21.86C45.9563 22 45.541 22.07 45.1023 22.07ZM43.1283 17.814H46.4463C46.4463 17.2167 46.311 16.7593 46.0403 16.442C45.779 16.1153 45.3963 15.952 44.8923 15.952C44.463 15.952 44.0803 16.1107 43.7443 16.428C43.4083 16.7453 43.203 17.2073 43.1283 17.814ZM49.9472 22V15.056H51.1372L51.2632 16.302H51.2772C51.8466 15.3593 52.5092 14.888 53.2652 14.888C53.6012 14.888 53.8579 14.9347 54.0352 15.028L53.7832 16.302C53.5966 16.2273 53.3586 16.19 53.0692 16.19C52.7892 16.19 52.4952 16.3067 52.1872 16.54C51.8792 16.764 51.6132 17.1467 51.3892 17.688V22H49.9472ZM55.8056 22V15.07H57.2476V22H55.8056ZM56.5336 13.796C56.2629 13.796 56.0436 13.7167 55.8756 13.558C55.7076 13.3993 55.6236 13.1847 55.6236 12.914C55.6236 12.662 55.7076 12.4567 55.8756 12.298C56.0436 12.1393 56.2629 12.06 56.5336 12.06C56.7949 12.06 57.0049 12.1393 57.1636 12.298C57.3316 12.4567 57.4156 12.662 57.4156 12.914C57.4156 13.4553 57.1216 13.7493 56.5336 13.796ZM58.447 16.344V15.28L59.371 15.21V14.356C59.371 13.6653 59.539 13.1007 59.875 12.662C60.2203 12.2233 60.771 12.004 61.527 12.004C61.9936 12.004 62.3903 12.0787 62.717 12.228L62.437 13.292C62.1756 13.1893 61.9283 13.138 61.695 13.138C61.0883 13.138 60.7896 13.5393 60.799 14.342V15.196H62.157V16.344H60.799V22H59.371V16.344H58.447ZM64.0907 22V15.07H65.5327V22H64.0907ZM64.8187 13.796C64.5481 13.796 64.3287 13.7167 64.1607 13.558C63.9927 13.3993 63.9087 13.1847 63.9087 12.914C63.9087 12.662 63.9927 12.4567 64.1607 12.298C64.3287 12.1393 64.5481 12.06 64.8187 12.06C65.0801 12.06 65.2901 12.1393 65.4487 12.298C65.6167 12.4567 65.7007 12.662 65.7007 12.914C65.7007 13.4553 65.4067 13.7493 64.8187 13.796ZM70.7781 22.07C70.1435 22.07 69.5695 21.9253 69.0561 21.636C68.5428 21.3467 68.1368 20.9313 67.8381 20.39C67.5395 19.8487 67.3901 19.2 67.3901 18.444C67.3901 17.688 67.5395 17.0393 67.8381 16.498C68.1461 15.9567 68.5381 15.5413 69.0141 15.252C69.4995 14.9533 70.0081 14.804 70.5401 14.804C71.4641 14.804 72.1688 15.1073 72.6541 15.714C73.1395 16.3113 73.3821 17.0953 73.3821 18.066C73.3821 18.3553 73.3541 18.6027 73.2981 18.808H68.8181C68.8741 19.48 69.0935 20.0027 69.4761 20.376C69.8588 20.74 70.3488 20.922 70.9461 20.922C71.5621 20.922 72.1128 20.754 72.5981 20.418L73.1021 21.328C72.7848 21.5427 72.4255 21.72 72.0241 21.86C71.6321 22 71.2168 22.07 70.7781 22.07ZM68.8041 17.814H72.1221C72.1221 17.2167 71.9868 16.7593 71.7161 16.442C71.4548 16.1153 71.0721 15.952 70.5681 15.952C70.1388 15.952 69.7561 16.1107 69.4201 16.428C69.0841 16.7453 68.8788 17.2073 68.8041 17.814ZM77.723 22.14C76.8737 22.14 76.1923 21.8273 75.679 21.202C75.1657 20.5673 74.909 19.6807 74.909 18.542C74.909 17.7953 75.0443 17.1513 75.315 16.61C75.595 16.0687 75.959 15.6533 76.407 15.364C76.855 15.0747 77.331 14.93 77.835 14.93C78.2363 14.93 78.577 15 78.857 15.14C79.1463 15.2707 79.4217 15.4573 79.683 15.7L79.641 14.566V12.032H81.069V21.972H79.893L79.767 21.188H79.739C79.4777 21.4587 79.1743 21.6873 78.829 21.874C78.4837 22.0513 78.115 22.14 77.723 22.14ZM78.073 20.936C78.6517 20.936 79.1743 20.656 79.641 20.096V16.75C79.3797 16.526 79.123 16.3673 78.871 16.274C78.6283 16.1807 78.381 16.134 78.129 16.134C77.653 16.134 77.2423 16.3487 76.897 16.778C76.561 17.198 76.393 17.7813 76.393 18.528C76.393 19.3027 76.5377 19.9 76.827 20.32C77.1257 20.7307 77.541 20.936 78.073 20.936Z" fill="#43BC9C"/>
<path fill-rule="evenodd" clip-rule="evenodd" d="M17.4882 7.64648C17.2394 7.29102 16.713 7.29102 16.4642 7.64648L14.8466 9.95728C14.7073 10.1563 14.4653 10.2566 14.226 10.2144L11.4482 9.72413C11.021 9.64872 10.6487 10.021 10.7241 10.4482L11.2144 13.226C11.2566 13.4653 11.1563 13.7073 10.9573 13.8466L8.64648 15.4642C8.29102 15.713 8.29102 16.2394 8.64648 16.4882L10.9573 18.1057C11.1563 18.245 11.2566 18.4871 11.2144 18.7264L10.7241 21.5041C10.6487 21.9314 11.021 22.3036 11.4482 22.2282L14.226 21.738C14.4653 21.6958 14.7073 21.796 14.8466 21.9951L16.4642 24.3059C16.713 24.6613 17.2394 24.6613 17.4882 24.3059L19.1057 21.9951C19.245 21.796 19.4871 21.6958 19.7264 21.738L22.5041 22.2282C22.9314 22.3036 23.3036 21.9314 23.2282 21.5041L22.738 18.7264C22.6958 18.4871 22.796 18.245 22.9951 18.1057L25.3059 16.4882C25.6613 16.2394 25.6613 15.713 25.3059 15.4642L22.9951 13.8466C22.796 13.7073 22.6958 13.4653 22.738 13.226L23.2282 10.4482C23.3036 10.021 22.9314 9.64872 22.5041 9.72413L19.7264 10.2144C19.4871 10.2566 19.245 10.1563 19.1057 9.95728L17.4882 7.64648ZM16.6401 19.1382L21.895 13.8833L20.9028 12.8912L16.144 17.65L13.5889 15.0949L12.5968 16.087L15.648 19.1382L16.144 19.6343L16.6401 19.1382Z" fill="#43BC9C"/>
</svg>
