<svg width="16" height="16" viewBox="0 0 16 16" fill="none" xmlns="http://www.w3.org/2000/svg">
<g id="&#232;&#174;&#190;&#231;&#189;&#174; 2" clip-path="url(#clip0_3855_11906)">
<path id="Union" fill-rule="evenodd" clip-rule="evenodd" d="M14.515 5.22618C15.1904 5.22618 15.7032 5.71577 15.8425 6.455C15.8812 6.67755 16.007 7.41484 16.0031 8.02829C16.0031 8.63787 15.8793 9.37323 15.8406 9.58416C15.6974 10.3427 15.1652 10.8169 14.5344 10.8246C13.799 10.8246 13.2417 11.3819 13.2417 12.0689C13.2417 12.2237 13.3171 12.4482 13.352 12.5333C13.6403 13.1855 13.4178 13.9867 12.8314 14.3969L12.754 14.4472L10.813 15.5174C10.6215 15.6006 10.4163 15.6412 10.1996 15.6412C9.73903 15.6412 9.30749 15.4516 9.01141 15.1245C8.72501 14.8091 8.20251 14.4395 7.96255 14.4395C7.73227 14.4395 7.19623 14.811 6.9195 15.111C6.62536 15.4342 6.17446 15.6141 5.72938 15.6141C5.51845 15.6141 5.30945 15.5754 5.1198 15.4903L5.04433 15.4535L3.17883 14.4008C2.58667 13.9828 2.36607 13.1816 2.65441 12.5275C2.69504 12.4347 2.76471 12.216 2.76471 12.067C2.76471 11.3819 2.20738 10.8227 1.52427 10.8227H1.4488C0.821808 10.8227 0.307055 10.3292 0.167724 9.59383C0.127085 9.36936 0.00323486 8.63593 0.00323486 8.02442C0.00323486 7.41484 0.127085 6.67948 0.165788 6.46855C0.30512 5.71771 0.817938 5.22811 1.44493 5.22811H1.47589C2.20738 5.22811 2.76471 4.66885 2.76471 3.98187C2.76471 3.82706 2.68924 3.60258 2.65247 3.51743C2.36413 2.86334 2.58668 2.06219 3.17496 1.65193L3.25237 1.60162L5.22817 0.519864C5.42169 0.436652 5.63068 0.397949 5.83775 0.397949C6.27896 0.397949 6.72018 0.574049 7.01626 0.887545C7.29686 1.18362 7.80774 1.53002 8.04189 1.53002C8.27411 1.53002 8.78113 1.19137 9.06366 0.899156C9.35974 0.591465 9.80096 0.421171 10.2383 0.421171C10.4473 0.421171 10.6582 0.459874 10.8479 0.543086L10.9253 0.579854L12.8179 1.63839C13.4216 2.06219 13.6442 2.86528 13.3539 3.51936C13.321 3.59871 13.2455 3.82512 13.2455 3.97993C13.2455 4.66691 13.8029 5.22618 14.486 5.22618H14.515ZM14.5208 9.67705C14.6137 9.67705 14.6911 9.5203 14.7182 9.37323C14.7859 9.00942 14.8633 8.43854 14.8595 8.02055C14.8595 7.60836 14.784 7.04523 14.7143 6.664C14.6969 6.57498 14.6447 6.36599 14.4821 6.36599C13.1662 6.36599 12.098 5.29584 12.098 3.978C12.098 3.56194 12.2644 3.14975 12.3051 3.05493C12.3709 2.90592 12.3167 2.70853 12.187 2.59436L10.3892 1.59001L10.3738 1.58227C10.3351 1.56679 10.2867 1.55905 10.2344 1.55905C10.1009 1.55905 9.9577 1.61323 9.88223 1.69064C9.84353 1.73128 8.92626 2.66983 8.03996 2.66983C7.14204 2.66983 6.22284 1.71192 6.18414 1.67129C6.10867 1.59194 5.96934 1.53776 5.83581 1.53776C5.7913 1.53776 5.74679 1.54356 5.71003 1.55518L3.83679 2.58275L3.81744 2.59436C3.68778 2.69499 3.63166 2.90398 3.7052 3.07041C3.74003 3.14975 3.90646 3.56581 3.90646 3.978C3.90646 5.31713 2.83825 6.36599 1.47589 6.36792H1.43912C1.41203 6.38147 1.32689 6.47436 1.29012 6.66981C1.22045 7.05877 1.14691 7.6161 1.14691 8.02249C1.14691 8.53337 1.25722 9.19906 1.29012 9.37903C1.33076 9.58416 1.42171 9.67124 1.4488 9.67705H1.52427C2.83825 9.67705 3.90839 10.7491 3.90839 12.065C3.90839 12.4772 3.74197 12.8913 3.70133 12.9881C3.63553 13.1332 3.68585 13.3326 3.8097 13.4409L5.5765 14.4375L5.59585 14.4472C5.63455 14.4627 5.68293 14.4704 5.73325 14.4704C5.86677 14.4704 6.00998 14.4163 6.08351 14.335C6.08373 14.3348 6.08441 14.334 6.08556 14.3328C6.13586 14.2799 7.07153 13.2958 7.96836 13.2958C8.87014 13.2958 9.76225 14.244 9.86675 14.3582C9.94416 14.4433 10.0699 14.4956 10.2035 14.4956C10.2499 14.4956 10.2906 14.4898 10.3273 14.4782L12.1754 13.4584L12.1793 13.4564C12.3167 13.3616 12.3786 13.1449 12.3012 12.9707C12.2547 12.8585 12.1019 12.4617 12.1019 12.065C12.1019 10.7259 13.1701 9.67705 14.5208 9.67705ZM4.95508 8.01863C4.95508 6.33504 6.32131 4.97075 8.0049 4.97075C9.68849 4.97075 11.0528 6.33504 11.0528 8.01863C11.0528 9.70416 9.68849 11.0684 8.0049 11.0684C6.31937 11.0684 4.95508 9.70222 4.95508 8.01863ZM6.09876 8.02057C6.09876 9.07136 6.9541 9.92477 8.0049 9.92477C9.05569 9.92477 9.9091 9.06942 9.9091 8.02057C9.9091 6.96977 9.05569 6.11637 8.0049 6.11637C6.9541 6.11637 6.09876 6.96977 6.09876 8.02057Z" fill="#A5A8AC"/>
</g>
<defs>
<clipPath id="clip0_3855_11906">
<rect width="16" height="16" fill="white"/>
</clipPath>
</defs>
</svg>
