<svg width="24" height="24" viewBox="0 0 24 24" fill="none" xmlns="http://www.w3.org/2000/svg">
<g id="&#232;&#174;&#190;&#231;&#189;&#174; 2">
<path id="Vector" d="M21.4993 10.1345C21.3305 9.23921 20.7094 8.64624 19.8915 8.64624H19.8563C19.029 8.64624 18.354 7.9689 18.354 7.13687C18.354 6.94937 18.4454 6.67515 18.4852 6.57905C18.8368 5.78687 18.5672 4.81421 17.836 4.30093L15.5438 3.0189L15.45 2.97437C15.2204 2.87358 14.9649 2.82671 14.7118 2.82671C14.1821 2.82671 13.6477 3.03296 13.2891 3.40562C12.9469 3.75952 12.3329 4.16968 12.0516 4.16968C11.768 4.16968 11.1493 3.75015 10.8094 3.39155C10.4508 3.01187 9.91646 2.79858 9.38208 2.79858C9.1313 2.79858 8.87817 2.84546 8.6438 2.94624L6.25083 4.2564L6.15708 4.31733C5.44458 4.81421 5.17505 5.78452 5.52427 6.57671C5.5688 6.67983 5.6602 6.95171 5.6602 7.13921C5.6602 7.97124 4.9852 8.64858 4.09927 8.64858H4.06177C3.30239 8.64858 2.6813 9.24155 2.51255 10.1509C2.46567 10.4064 2.31567 11.297 2.31567 12.0353C2.31567 12.7759 2.46567 13.6642 2.51489 13.9361C2.68364 14.8267 3.30708 15.4244 4.06646 15.4244H4.15786C4.9852 15.4244 5.6602 16.1017 5.6602 16.9314C5.6602 17.1119 5.57583 17.3767 5.52661 17.4892C5.17739 18.2814 5.44458 19.2517 6.16177 19.758L8.42114 21.033L8.51255 21.0775C8.74224 21.1806 8.99536 21.2275 9.25083 21.2275C9.78989 21.2275 10.336 21.0095 10.6922 20.6181C11.0274 20.2548 11.6766 19.8048 11.9555 19.8048C12.2461 19.8048 12.879 20.2525 13.2258 20.6345C13.5844 21.0306 14.1071 21.2603 14.6649 21.2603C14.9274 21.2603 15.1758 21.2111 15.4079 21.1103L17.7586 19.8142L17.8524 19.7533C18.5625 19.2564 18.8321 18.2861 18.4829 17.4962C18.4407 17.3931 18.3493 17.1212 18.3493 16.9337C18.3493 16.1017 19.0243 15.4267 19.9149 15.4267C20.679 15.4173 21.3235 14.8431 21.4969 13.9244C21.5438 13.6689 21.6938 12.7783 21.6938 12.04C21.6985 11.297 21.5461 10.4041 21.4993 10.1345ZM20.1376 13.6689C20.1047 13.847 20.011 14.0369 19.8985 14.0369C18.2625 14.0369 16.9688 15.3072 16.9688 16.9291C16.9688 17.4095 17.154 17.89 17.2102 18.0259C17.304 18.2369 17.229 18.4994 17.0625 18.6142L17.0579 18.6166L14.8196 19.8517C14.775 19.8658 14.7258 19.8728 14.6696 19.8728C14.5079 19.8728 14.3555 19.8095 14.2618 19.7064C14.1352 19.5681 13.0547 18.4197 11.9625 18.4197C10.8516 18.4197 9.69146 19.6666 9.67974 19.6783C9.59067 19.7767 9.41724 19.8423 9.25552 19.8423C9.19458 19.8423 9.13599 19.833 9.08911 19.8142L9.06567 19.8025L6.92583 18.5955C6.77583 18.4642 6.71489 18.2228 6.79458 18.047C6.8438 17.9298 7.04536 17.4283 7.04536 16.9291C7.04536 15.3353 5.74927 14.0369 4.15786 14.0369H4.06646C4.03364 14.0298 3.92349 13.9244 3.87427 13.6759C3.83442 13.458 3.70083 12.6517 3.70083 12.033C3.70083 11.5408 3.78989 10.8658 3.87427 10.3947C3.9188 10.158 4.02192 10.0455 4.05474 10.0291H4.09927C5.74927 10.0267 7.04302 8.7564 7.04302 7.13452C7.04302 6.6353 6.84145 6.1314 6.79927 6.0353C6.71021 5.83374 6.77817 5.58062 6.9352 5.45874L6.95864 5.44468L9.22739 4.20015C9.27192 4.18608 9.32583 4.17905 9.37974 4.17905C9.54146 4.17905 9.71021 4.24468 9.80161 4.34077C9.84849 4.38999 10.9618 5.55015 12.0493 5.55015C13.1227 5.55015 14.2336 4.41343 14.2805 4.36421C14.3719 4.27046 14.5454 4.20483 14.7071 4.20483C14.7704 4.20483 14.829 4.21421 14.8758 4.23296L14.8946 4.24233L17.0719 5.45874C17.229 5.59702 17.2946 5.83608 17.2149 6.01655C17.1657 6.1314 16.9641 6.63062 16.9641 7.13452C16.9641 8.73062 18.2579 10.0267 19.8516 10.0267C20.0485 10.0267 20.1118 10.2798 20.1329 10.3876C20.2172 10.8494 20.3086 11.5314 20.3086 12.0306C20.3133 12.5369 20.2196 13.2283 20.1376 13.6689Z" fill="#787D83"/>
<path id="Vector_2" d="M12.007 8.33691C9.96792 8.33691 8.31323 9.98926 8.31323 12.0283C8.31323 14.0674 9.96558 15.7221 12.007 15.7221C14.046 15.7221 15.6984 14.0697 15.6984 12.0283C15.6984 9.98926 14.046 8.33691 12.007 8.33691ZM12.007 14.3369C10.7343 14.3369 9.69839 13.3033 9.69839 12.0307C9.69839 10.758 10.7343 9.72441 12.007 9.72441C13.2796 9.72441 14.3132 10.758 14.3132 12.0307C14.3132 13.301 13.2796 14.3369 12.007 14.3369Z" fill="#787D83"/>
</g>
</svg>
