<svg width="24" height="24" viewBox="0 0 24 24" fill="none" xmlns="http://www.w3.org/2000/svg">
<path d="M19.9355 9.07564L19.5875 8.88202C19.5334 8.85196 19.5069 8.83687 19.4807 8.82123C19.2212 8.66577 19.0025 8.45097 18.8428 8.19398C18.8268 8.16812 18.8116 8.14101 18.7807 8.08741C18.7498 8.03389 18.7341 8.00676 18.7197 7.97991C18.5765 7.71255 18.4991 7.41461 18.4944 7.11135C18.494 7.08086 18.4941 7.04971 18.4951 6.98779L18.5019 6.58363C18.5128 5.93688 18.5183 5.6125 18.4274 5.32138C18.3466 5.0628 18.2116 4.82463 18.0312 4.62251C17.8273 4.39404 17.5451 4.23105 16.9801 3.90547L16.5108 3.63503C15.9474 3.31036 15.6656 3.14797 15.3665 3.08607C15.1019 3.0313 14.8288 3.03383 14.5651 3.09303C14.2675 3.15983 13.9892 3.32646 13.433 3.65951L13.4299 3.66102L13.0936 3.86237C13.0404 3.8942 13.0135 3.91025 12.9869 3.92507C12.7224 4.07211 12.4272 4.15341 12.1247 4.16312C12.0942 4.1641 12.0632 4.1641 12.0012 4.1641C11.9396 4.1641 11.9073 4.1641 11.8769 4.16312C11.5738 4.15337 11.2779 4.07162 11.013 3.92398C10.9863 3.9091 10.9599 3.89292 10.9067 3.86093L10.5682 3.65777C10.0082 3.32156 9.72779 3.15321 9.42855 3.08607C9.1638 3.02667 8.88978 3.02502 8.62418 3.0805C8.32429 3.14313 8.04242 3.30673 7.47868 3.63392L7.47617 3.63503L7.01271 3.90402L7.00758 3.90716C6.44892 4.2314 6.16891 4.39392 5.96675 4.62146C5.78736 4.82337 5.65327 5.06117 5.57301 5.31906C5.48229 5.61057 5.48713 5.93565 5.49806 6.58545L5.50485 6.98903C5.50588 7.05015 5.50766 7.08052 5.50722 7.11058C5.50272 7.41445 5.42424 7.71301 5.28063 7.98084C5.26642 8.00733 5.25112 8.03382 5.22056 8.08673C5.18998 8.13967 5.17517 8.166 5.15931 8.19155C4.99896 8.44991 4.77921 8.66596 4.51804 8.8217C4.49221 8.8371 4.46498 8.85191 4.41149 8.88156L4.06787 9.07198C3.49616 9.3888 3.21037 9.54736 3.00241 9.77299C2.81845 9.97259 2.67947 10.2094 2.59464 10.4672C2.49875 10.7587 2.49883 11.0855 2.50031 11.7392L2.50153 12.2734C2.503 12.9227 2.50502 13.2471 2.60113 13.5366C2.68616 13.7927 2.82412 14.0281 3.00705 14.2265C3.21383 14.4507 3.49678 14.6083 4.06415 14.9239L4.40471 15.1134C4.46267 15.1456 4.49183 15.1615 4.51978 15.1784C4.77858 15.3342 4.99661 15.5497 5.15559 15.8065C5.17277 15.8343 5.18926 15.8631 5.22223 15.9207C5.25479 15.9776 5.27145 16.006 5.28651 16.0345C5.42591 16.2984 5.50054 16.5917 5.50563 16.8901C5.50618 16.9223 5.50571 16.9549 5.5046 17.0205L5.49806 17.4078C5.48705 18.0598 5.48226 18.3862 5.57351 18.6785C5.65424 18.9371 5.78917 19.1753 5.96953 19.3774C6.17341 19.6059 6.45605 19.7688 7.02107 20.0943L7.49027 20.3647C8.0537 20.6894 8.33531 20.8516 8.63443 20.9135C8.89906 20.9683 9.1723 20.9661 9.43597 20.9069C9.73399 20.84 10.0132 20.6728 10.571 20.3388L10.9073 20.1375C10.9605 20.1056 10.9874 20.0897 11.0141 20.0749C11.2786 19.9278 11.5735 19.8461 11.8759 19.8364C11.9064 19.8354 11.9374 19.8354 11.9994 19.8354C12.0616 19.8354 12.0925 19.8354 12.1231 19.8364C12.4262 19.8461 12.7229 19.9281 12.9878 20.0758C13.0111 20.0888 13.0344 20.1028 13.0755 20.1274L13.4329 20.3421C13.993 20.6783 14.2729 20.8462 14.5721 20.9133C14.8369 20.9727 15.1111 20.9751 15.3767 20.9197C15.6765 20.857 15.959 20.6931 16.5224 20.3661L16.9928 20.0931C17.5518 19.7686 17.8322 19.6059 18.0344 19.3783C18.2138 19.1764 18.348 18.9387 18.4283 18.6808C18.5183 18.3914 18.5129 18.0688 18.5021 17.4284L18.4951 17.0107C18.4941 16.9496 18.494 16.9192 18.4944 16.8892C18.4989 16.5853 18.5761 16.2865 18.7197 16.0187C18.7339 15.9922 18.7493 15.9656 18.7798 15.9128C18.8104 15.8599 18.8262 15.8335 18.842 15.8079C19.0024 15.5496 19.2224 15.3333 19.4835 15.1776C19.5091 15.1624 19.5353 15.1478 19.5875 15.1189L19.5893 15.1181L19.933 14.9276C20.5047 14.6108 20.791 14.4521 20.999 14.2265C21.1829 14.0269 21.3217 13.7904 21.4065 13.5326C21.5019 13.2428 21.5011 12.9179 21.4997 12.2719L21.4984 11.7262C21.497 11.0769 21.4962 10.7525 21.4 10.463C21.315 10.2069 21.1763 9.97153 20.9934 9.77313C20.7868 9.54909 20.5034 9.39147 19.9372 9.07645L19.9355 9.07564Z" stroke="#666666" stroke-width="1.90074" stroke-linecap="round" stroke-linejoin="round"/>
<path d="M8.19882 12C8.19882 14.0995 9.9008 15.8014 12.0003 15.8014C14.0998 15.8014 15.8018 14.0995 15.8018 12C15.8018 9.90046 14.0998 8.19848 12.0003 8.19848C9.9008 8.19848 8.19882 9.90046 8.19882 12Z" stroke="#666666" stroke-width="1.90074" stroke-linecap="round" stroke-linejoin="round"/>
</svg>
