<svg width="26" height="26" viewBox="0 0 26 26" fill="none" xmlns="http://www.w3.org/2000/svg">
<path fill-rule="evenodd" clip-rule="evenodd" d="M26 13C26 20.1797 20.18 26 13 26C5.82 26 0 20.1797 0 13C0 5.8203 5.82 0 13 0C20.18 0 26 5.8203 26 13ZM12.6614 16.7358C13.6544 15.7428 14.2094 14.3991 14.2054 12.9999C14.2094 11.6008 13.6544 10.2571 12.6614 9.26411C11.6684 8.27101 10.3184 7.70981 8.90836 7.70361C7.49936 7.70981 6.14936 8.27101 5.15636 9.26411C4.16336 10.2571 3.60735 11.6008 3.61135 12.9999C3.60735 14.3991 4.16336 15.7428 5.15636 16.7358C6.14936 17.7288 7.49936 18.29 8.90836 18.2962C10.3184 18.29 11.6684 17.7288 12.6614 16.7358ZM17.3664 17.9856C18.8294 17.9856 20.0114 15.7491 20.0114 12.9999C20.0114 10.2508 18.8294 8.01421 17.3664 8.01421C15.9034 8.01421 14.7144 10.2508 14.7144 12.9999C14.7144 15.7491 15.9034 17.9856 17.3664 17.9856ZM21.4583 17.4653C21.9743 17.4653 22.3894 15.4617 22.3894 12.9999C22.3894 10.5381 21.9743 8.53461 21.4583 8.53461C20.9423 8.53461 20.5273 10.5381 20.5273 12.9999C20.5273 15.4617 20.9423 17.4653 21.4583 17.4653Z" fill="#717171"/>
</svg>
