<svg width="26" height="26" viewBox="0 0 26 26" fill="none" xmlns="http://www.w3.org/2000/svg">
<path fill-rule="evenodd" clip-rule="evenodd" d="M26 13C26 20.1797 20.1797 26 13 26C5.8203 26 0 20.1797 0 13C0 5.8203 5.8203 0 13 0C20.1797 0 26 5.8203 26 13ZM18.2556 8.02968C18.2641 8.03348 18.2708 8.04038 18.2751 8.04848C19.9884 10.645 20.8344 13.5745 20.5169 16.9474C20.5157 16.9618 20.509 16.9744 20.4975 16.9832C19.351 17.8587 18.0683 18.526 16.7041 18.9562C16.6847 18.9625 16.6634 18.955 16.6512 18.9374C16.3629 18.5247 16.1038 18.0907 15.877 17.6392C15.8703 17.6266 15.8697 17.6116 15.8745 17.5984C15.8794 17.5852 15.8897 17.5746 15.9025 17.5696C16.3118 17.4109 16.7078 17.2165 17.0861 16.9888C17.1001 16.98 17.1092 16.965 17.1098 16.948C17.1104 16.9317 17.1031 16.9154 17.0903 16.9054C17.0106 16.8439 16.9322 16.78 16.8549 16.7147C16.841 16.7028 16.8215 16.7003 16.8051 16.7085C14.3528 17.8769 11.6652 17.8769 9.18312 16.7085C9.1667 16.7009 9.14784 16.7034 9.13385 16.7154C9.05722 16.7806 8.97876 16.8439 8.89909 16.9054C8.88632 16.9154 8.87902 16.9311 8.88023 16.948C8.88084 16.9643 8.88996 16.9794 8.90395 16.9882C9.28286 17.214 9.67819 17.4084 10.0869 17.5696C10.0997 17.5746 10.11 17.5846 10.1149 17.5978C10.1197 17.611 10.1191 17.626 10.113 17.6386C9.88985 18.0926 9.63075 18.5272 9.33821 18.9374C9.32604 18.9543 9.30476 18.9619 9.28529 18.9556C7.92353 18.5241 6.64327 17.8568 5.49803 16.9825C5.48708 16.9738 5.47978 16.9606 5.47857 16.9462C5.21461 14.0292 5.75347 11.0759 7.71918 8.04788C7.72344 8.03978 7.73073 8.03348 7.73925 8.02968C8.72271 7.56368 9.7603 7.23198 10.8265 7.04258C10.8465 7.03938 10.866 7.04948 10.8763 7.06698C11.0211 7.33108 11.1512 7.60258 11.2668 7.88108C12.4157 7.70108 13.5847 7.70108 14.7342 7.88108C14.8491 7.60328 14.9774 7.33168 15.1185 7.06698C15.1283 7.04818 15.1483 7.03878 15.1684 7.04258C16.2346 7.23258 17.2722 7.56438 18.2556 8.02968ZM9.12169 13.5946C9.12169 14.4626 9.73719 15.17 10.4847 15.17C11.2437 15.17 11.8476 14.4626 11.8476 13.594C11.8598 12.7322 11.2498 12.0185 10.4847 12.0185C9.72563 12.0185 9.12169 12.726 9.12169 13.5946ZM15.5242 15.17C14.7767 15.17 14.1612 14.4626 14.1612 13.5946C14.1612 12.726 14.7652 12.0185 15.5242 12.0185C16.2893 12.0185 16.8993 12.7322 16.8872 13.594C16.8872 14.4626 16.2893 15.17 15.5242 15.17Z" fill="#717171"/>
</svg>
