<svg width="26" height="26" viewBox="0 0 26 26" fill="none" xmlns="http://www.w3.org/2000/svg">
<path fill-rule="evenodd" clip-rule="evenodd" d="M26 13C26 20.1797 20.1797 26 13 26C5.8203 26 0 20.1797 0 13C0 5.8203 5.8203 0 13 0C20.1797 0 26 5.8203 26 13ZM12.6732 5.68596C13.1667 5.47425 13.59 5.41675 14.0296 5.41675H16.214V8.0311H14.9099C14.5231 8.0311 14.2766 8.14612 14.1531 8.37741C14.065 8.53034 14.0296 8.80018 14.0296 9.16481V10.3573H16.25L15.985 12.9893H14.0296V20.5834H11.1586V12.9906H9.75V10.3573H11.1586V8.78059C11.1586 7.16534 11.67 6.12769 12.6732 5.68596Z" fill="#717171"/>
</svg>
