<svg width="26" height="26" viewBox="0 0 26 26" fill="none" xmlns="http://www.w3.org/2000/svg">
<path fill-rule="evenodd" clip-rule="evenodd" d="M26 13C26 20.1797 20.1797 26 13 26C5.8203 26 0 20.1797 0 13C0 5.8203 5.8203 0 13 0C20.1797 0 26 5.8203 26 13ZM13.7174 11.2563L13.7307 11.2752L18.1215 6.5H19.5005L14.3403 12.1437L19.5 19.5H15.6196L12.2257 14.6612L7.8606 19.4999H6.5L11.6259 13.8062L11.5635 13.7173L6.5 6.5H10.381L13.7174 11.2563ZM12.67 13.797L12.1382 13.0616L8.0531 7.414H9.8474L13.1032 11.9594L13.6345 12.7021L17.884 18.6335H16.169L12.67 13.797Z" fill="#717171"/>
</svg>
