<svg width="24" height="24" viewBox="0 0 24 24" fill="none" xmlns="http://www.w3.org/2000/svg">
<path d="M12 24C18.6274 24 24 18.6274 24 12C24 5.37258 18.6274 0 12 0C5.37261 0 2.28882e-05 5.37258 2.28882e-05 12C2.28882e-05 18.6274 5.37261 24 12 24Z" fill="#F0F0F0"/>
<path d="M12 0C8.07415 0 4.58876 1.88545 2.39951 4.8H21.6005C19.4113 1.88545 15.9259 0 12 0ZM12 24C15.9259 24 19.4113 22.1145 21.6005 19.2H2.39951C4.58876 22.1145 8.07415 24 12 24ZM2.40226e-05 12C-0.000325701 12.806 0.0801868 13.6101 0.240352 14.4H23.7598C23.9172 13.6245 24 12.822 24 12C24 11.178 23.9171 10.3755 23.7597 9.6H0.240352C0.0801868 10.39 -0.000325701 11.194 2.40226e-05 12Z" fill="#D80027"/>
<path d="M3.51471 3.51468C-1.17157 8.20096 -1.17157 15.799 3.51471 20.4853L12 12L3.51471 3.51468Z" fill="#0052B4"/>
<path d="M4.85674 8.86954L5.63369 11.2609H8.14835L6.11407 12.739L6.89097 15.1304L4.85674 13.6524L2.82241 15.1304L3.5995 12.739L1.56522 11.2609H4.07969L4.85674 8.86954Z" fill="#F0F0F0"/>
</svg>
