<svg width="24" height="24" viewBox="0 0 24 24" fill="none" xmlns="http://www.w3.org/2000/svg">
<path d="M1.13441e-06 12C-0.000348589 12.806 0.0801639 13.61 0.240329 14.4L12 15.1304L23.7597 14.4C23.9172 13.6245 24 12.8219 24 12C24 11.178 23.9171 10.3754 23.7597 9.59999L12 8.86954L0.240329 9.59999C0.0801639 10.3899 -0.000348589 11.194 1.13441e-06 12Z" fill="#0052B4"/>
<path d="M23.7597 14.4H0.240326C1.35215 19.8773 6.19458 24 12 24C17.8054 24 22.6478 19.8773 23.7597 14.4Z" fill="#F0F0F0"/>
<path d="M0.240326 9.6H23.7598C22.6478 4.12266 17.8055 0 12 0C6.19448 0 1.35215 4.12266 0.240326 9.6Z" fill="black"/>
<path d="M17.2174 9.60002H6.78262L8.9145 8.59717L7.77923 6.53256L10.0942 6.9753L10.3876 4.63675L12 6.35678L13.6125 4.63675L13.9057 6.9753L16.2208 6.53256L15.0856 8.59727L17.2174 9.60002Z" fill="#FFDA44"/>
<path d="M0 12C0 18.6274 5.37262 24 12 24L2.39981 4.79959C0.893062 6.80533 0 9.29828 0 12ZM12 24C18.6274 24 24 18.6274 24 12C24 9.29828 23.1069 6.80533 21.6002 4.79959L12 24Z" fill="#A2001D"/>
</svg>
