<svg width="24" height="24" viewBox="0 0 24 24" fill="none" xmlns="http://www.w3.org/2000/svg">
<path d="M12 24C18.6274 24 24 18.6274 24 12C24 5.37258 18.6274 0 12 0C5.37261 0 3.05176e-05 5.37258 3.05176e-05 12C3.05176e-05 18.6274 5.37261 24 12 24Z" fill="#FFDA44"/>
<path d="M5.23657 2.08697C7.16243 0.770437 9.49109 0 12 0C14.509 0 16.8376 0.770437 18.7635 2.08697L12 2.60869L5.23657 2.08697Z" fill="#A2001D"/>
<path d="M12 12L11.2342 11.2341L11.0308 11.5984L12 12Z" fill="#0052B4"/>
<path d="M3.51471 3.51471C-1.17157 8.20099 -1.17157 15.799 3.51471 20.4853L12 12L3.51471 3.51471ZM20.4853 3.51471C25.1716 8.20099 25.1716 15.799 20.4853 20.4853L12 12L20.4853 3.51471Z" fill="#496E2D"/>
<path d="M12 16.1739C14.3052 16.1739 16.1739 14.3052 16.1739 12C16.1739 9.69483 14.3052 7.82611 12 7.82611C9.69486 7.82611 7.82614 9.69483 7.82614 12C7.82614 14.3052 9.69486 16.1739 12 16.1739Z" fill="#A2001D"/>
<path d="M12 7.82611L12.9356 10.7056H15.9636L13.514 12.4856L14.4496 15.3652L12 13.5855L9.5503 15.3652L10.4861 12.4856L8.03647 10.7056H11.0643L12 7.82611ZM12 0L11.996 9.375e-05H12.004L12 0Z" fill="#FFDA44"/>
<path d="M12.0041 0H11.9961C8.68419 0.00107812 5.68602 1.34372 3.51538 3.51413H20.4847C18.3141 1.34372 15.3159 0.00107812 12.0041 0ZM3.51543 20.4859C5.68696 22.6571 8.68668 24 12 24C15.3134 24 18.3131 22.6571 20.4846 20.4859H3.51543Z" fill="#A2001D"/>
<path d="M12 1.30432L12.1943 1.90217H12.8229L12.3144 2.27168L12.5087 2.86952L12 2.50006L11.4915 2.86952L11.6858 2.27168L11.1771 1.90217H11.8057L12 1.30432ZM9.09017 1.30432L9.28447 1.90217H9.91306L9.40451 2.27168L9.59881 2.86952L9.09017 2.50006L8.58167 2.86952L8.77592 2.27168L8.26728 1.90217H8.89587L9.09017 1.30432ZM14.9099 1.30432L15.1042 1.90217H15.7328L15.2242 2.27168L15.4185 2.86952L14.9099 2.50006L14.4013 2.86952L14.5956 2.27168L14.087 1.90217H14.7156L14.9099 1.30432ZM12 21.1304L12.1943 21.7283H12.8229L12.3144 22.0978L12.5087 22.6956L12 22.3261L11.4915 22.6956L11.6858 22.0978L11.1771 21.7283H11.8057L12 21.1304ZM9.09017 21.1304L9.28447 21.7283H9.91306L9.40451 22.0978L9.59881 22.6956L9.09017 22.3261L8.58167 22.6956L8.77592 22.0978L8.26728 21.7283H8.89587L9.09017 21.1304ZM14.9099 21.1304L15.1042 21.7283H15.7328L15.2242 22.0978L15.4185 22.6956L14.9099 22.3261L14.4013 22.6956L14.5956 22.0978L14.087 21.7283H14.7156L14.9099 21.1304ZM3.65642 11.8018C3.96462 12.2888 3.81978 12.9334 3.3328 13.2416C2.84586 13.5499 2.20123 13.405 1.89298 12.918C1.33494 12.0364 1.65852 10.5965 1.65852 10.5965C1.65852 10.5965 3.09833 10.9201 3.65642 11.8018Z" fill="#FFDA44"/>
<path d="M3.05373 13.3226C3.34187 13.3226 3.57545 13.089 3.57545 12.8008C3.57545 12.5127 3.34187 12.2791 3.05373 12.2791C2.76559 12.2791 2.53201 12.5127 2.53201 12.8008C2.53201 13.089 2.76559 13.3226 3.05373 13.3226Z" fill="#A2001D"/>
</svg>
