<svg width="24" height="24" viewBox="0 0 24 24" fill="none" xmlns="http://www.w3.org/2000/svg">
<path d="M24 12C24 18.6274 18.6274 24 12 24C5.37262 24 0 18.6274 0 12C0 12.0029 12 0.0013125 12 0C18.6274 0 24 5.37262 24 12Z" fill="#0052B4"/>
<path d="M11.9679 12H12V11.9679L11.9679 12Z" fill="#F0F0F0"/>
<path d="M12 6.26086V0H11.998C5.37145 0.001125 0 5.37323 0 12H6.26086V8.47448L9.78638 12H11.9679L12 11.9679V9.78647L8.47444 6.26086H12Z" fill="#F0F0F0"/>
<path d="M6.07103 1.56519C4.19219 2.63587 2.6359 4.19216 1.56522 6.071V12H4.69567V4.69564H12V1.56519H6.07103Z" fill="#D80027"/>
<path d="M12 10.5243L7.73649 6.26093H6.26086V6.26102L11.9999 12H12V10.5243Z" fill="#D80027"/>
<path d="M13.5652 6.26086V12C13.5652 14.7956 17.2174 15.6522 17.2174 15.6522C17.2174 15.6522 20.8696 14.7956 20.8696 12V6.26086H13.5652Z" fill="#338AF3"/>
<path d="M13.5652 11.9999C13.5652 14.7956 17.2174 15.6522 17.2174 15.6522C17.2174 15.6522 20.8696 14.7956 20.8696 11.9999H13.5652Z" fill="#A2001D"/>
<path d="M18.7826 8.86964H17.7391V7.82611H16.6956V8.86964H15.6522V9.91308H16.6956V13.0435H17.7391V9.91308H18.7826V8.86964Z" fill="black"/>
</svg>
