<svg width="24" height="24" viewBox="0 0 24 24" fill="none" xmlns="http://www.w3.org/2000/svg">
<path d="M24 12C24 18.6274 18.6274 24 12 24C5.37262 24 0 18.6274 0 12C0 12.0029 12 0.0013125 12 0C18.6274 0 24 5.37262 24 12Z" fill="#D80027"/>
<path d="M12 5.73914V9.78646L7.8261 5.73914H12ZM6.26085 12H9.78637L6.26085 7.30434L5.73914 10.9565L6.26085 12Z" fill="#0052B4"/>
<path d="M11.9679 12H12V11.9679L11.9679 12Z" fill="#F0F0F0"/>
<path d="M12 6.26086V0H11.998C5.37145 0.001125 0 5.37323 0 12H6.26086V8.47448L9.78638 12H11.9679L12 11.9679V9.78647L8.47444 6.26086H12Z" fill="#F0F0F0"/>
<path d="M6.07103 1.56522C4.19219 2.6359 2.6359 4.19219 1.56522 6.07103V12.5217H4.69567V4.69567H12.5217V1.56522H6.07103Z" fill="#D80027"/>
<path d="M12.4771 11.0013L7.73652 6.26086H6.26089V6.26096L12.4769 12.477H12.477C12.4771 12.4771 12.4771 11.4595 12.4771 11.0013Z" fill="#D80027"/>
<path d="M13.5652 6.26086V12C13.5652 14.7956 20.8695 14.7956 20.8695 12V6.26086H13.5652Z" fill="#F3F3F3"/>
<path d="M13.5652 12V11.9999C13.5652 14.7956 17.2174 15.6522 17.2174 15.6522C17.2174 15.6522 20.8695 14.7956 20.8695 11.9999V12H13.5652Z" fill="#6DA544"/>
<path d="M17.2174 9.70435L15.5217 10.4348V12L17.2174 13.0435L18.913 12V10.4348L17.2174 9.70435Z" fill="#A2001D"/>
<path d="M15.5217 8.86954H18.913V10.4347H15.5217V8.86954Z" fill="#338AF3"/>
</svg>
