<svg width="24" height="24" viewBox="0 0 24 24" fill="none" xmlns="http://www.w3.org/2000/svg">
<path d="M24 12C24 18.6274 18.6274 24 12 24C5.37262 24 0 18.6274 0 12C0 12.0029 12 0.0013125 12 0C18.6274 0 24 5.37262 24 12Z" fill="#0052B4"/>
<path d="M11.9679 12H12V11.9679L11.9679 12Z" fill="#F0F0F0"/>
<path d="M12 6.26086V0H11.998C5.37145 0.001125 0 5.37323 0 12H6.26086V8.47448L9.78638 12H11.9679L12 11.9679V9.78647L8.47444 6.26086H12Z" fill="#F0F0F0"/>
<path d="M6.07101 1.56522C4.19218 2.6359 2.63589 4.19219 1.5652 6.07103V12H4.69565V4.69567H12V1.56522H6.07101Z" fill="#D80027"/>
<path d="M12 10.5243L7.7365 6.26093H6.26087V6.26102L11.9999 12H12V10.5243Z" fill="#D80027"/>
<path d="M20.294 13.7566C20.6391 13.2818 20.8695 12.7021 20.8695 12V6.78263C20.4184 7.12206 19.8689 7.30521 19.3043 7.30435C18.4509 7.30435 17.6933 6.89452 17.2174 6.26096C16.7414 6.89452 15.9838 7.30435 15.1304 7.30435C14.5658 7.30519 14.0164 7.12208 13.5652 6.78272V12C13.5652 12.7021 13.7957 13.2818 14.1407 13.7566H20.294Z" fill="#F3F3F3"/>
<path d="M19.2087 11.0321C19.3748 10.6268 19.504 10.0344 19.504 9.73963C19.504 9.26596 18.8865 8.882 18.8865 8.882C18.8865 8.882 18.2689 9.26596 18.2689 9.73963C18.2689 10.0345 18.3982 10.6268 18.5642 11.0321L18.2077 11.837C18.4172 11.9222 18.6463 11.9695 18.8865 11.9695C19.1267 11.9695 19.3557 11.9221 19.5653 11.837L19.2087 11.0321ZM16.795 8.42586C16.3612 8.48464 15.7835 8.6691 15.5282 8.81647C15.118 9.05333 15.0942 9.78003 15.0942 9.78003C15.0942 9.78003 15.7356 10.1228 16.1457 9.88602C16.4011 9.7386 16.8494 9.3306 17.1172 8.9841L17.9926 8.89035C17.9607 8.65988 17.8844 8.43779 17.768 8.23635C17.6518 8.03474 17.4975 7.8576 17.3138 7.71472L16.795 8.42586ZM15.7449 11.8193C16.0127 12.1656 16.4612 12.5736 16.7166 12.7211C17.1268 12.9579 17.7681 12.6152 17.7681 12.6152C17.7681 12.6152 17.7442 11.8884 17.3341 11.6515C17.0786 11.5041 16.5011 11.3198 16.0671 11.2611L15.5483 10.5499C15.3647 10.6928 15.2105 10.8699 15.0942 11.0714C14.9778 11.2729 14.9015 11.495 14.8696 11.7255L15.7449 11.8193Z" fill="#FF9811"/>
<path d="M14.0117 13.5653C14.9861 15.1289 17.2174 15.6522 17.2174 15.6522C17.2174 15.6522 19.4487 15.1289 20.4232 13.5653H14.0117Z" fill="#338AF3"/>
</svg>
