<svg width="24" height="24" viewBox="0 0 24 24" fill="none" xmlns="http://www.w3.org/2000/svg">
<path d="M0.566688 8.34777C0.199093 9.49945 1.41682e-05 10.7263 6.10434e-05 12C1.41682e-05 13.2735 0.199093 14.5004 0.566735 15.6521L12.0001 16.174L23.4334 15.6521C23.801 14.5004 24.0001 13.2735 24.0001 12C24.0001 10.7264 23.801 9.49945 23.4334 8.34777L12.0001 7.82605L0.566688 8.34777Z" fill="#F0F0F0"/>
<path d="M24.0001 12C24.0001 11.2881 23.9378 10.5908 23.8188 9.91296H0.181313C0.062344 10.5908 0 11.288 0 11.9999C0 12.7119 0.0623909 13.4091 0.181313 14.0869H23.8188C23.9396 13.3978 24.0002 12.6996 24.0001 12Z" fill="black"/>
<path d="M12.0001 24C17.354 24 21.8882 20.4936 23.4334 15.6521H0.566728C2.11197 20.4935 6.64625 23.9999 12.0001 24ZM12.0001 1.87985e-09C6.64625 1.87985e-09 2.11202 3.5064 0.566681 8.34777L23.4333 8.34781C21.8882 3.5064 17.3539 -9.37485e-05 12.0001 1.87985e-09Z" fill="#338AF3"/>
</svg>
