<svg width="24" height="24" viewBox="0 0 24 24" fill="none" xmlns="http://www.w3.org/2000/svg">
<path d="M12 24C18.6274 24 24 18.6274 24 12C24 5.37258 18.6274 0 12 0C5.37258 0 0 5.37258 0 12C0 18.6274 5.37258 24 12 24Z" fill="#FFDA44"/>
<path d="M12 24C15.6371 24 18.896 22.3817 21.0966 19.8261H2.90339C5.10403 22.3817 8.36292 24 12 24ZM24 12C24 5.37262 18.6274 0 12 0C5.37262 0 0 5.37262 0 12C0 13.0831 0.144375 14.1323 0.413391 15.1305H23.5867C23.8556 14.1323 24 13.0831 24 12ZM0.953859 16.6957C1.18417 17.2365 1.45405 17.7597 1.76128 18.2609H22.2387C22.5459 17.7596 22.8158 17.2365 23.0462 16.6957H0.953859Z" fill="#338AF3"/>
<path d="M5.49922 7.56858L3.15472 6.53387L5.49922 5.49915L6.5339 3.15469L7.56857 5.49915L9.91302 6.53387L7.56857 7.56858L6.5339 9.91304L5.49922 7.56858Z" fill="#F0F0F0"/>
<path d="M6.5339 4.4469L7.17285 5.89482L8.62082 6.53387L7.17285 7.17287L6.5339 8.62079L5.89485 7.17287L4.44693 6.53387L5.89485 5.89482L6.5339 4.4469Z" fill="#D80027"/>
</svg>
