<svg width="24" height="24" viewBox="0 0 24 24" fill="none" xmlns="http://www.w3.org/2000/svg">
<path d="M0 12C0 13.8698 0.427828 15.6398 1.19072 17.2174L12 17.7391L22.8093 17.2174C23.5722 15.6398 24 13.8698 24 12C24 10.1302 23.5722 8.36025 22.8093 6.78263L12 6.26086L1.19072 6.78258C0.427828 8.36026 0 10.1302 0 12Z" fill="#F0F0F0"/>
<path d="M12 24C16.7575 24 20.8683 21.2313 22.8093 17.2173H1.19072C3.13172 21.2313 7.24247 24 12 24Z" fill="#6DA544"/>
<path d="M12 0C7.24247 0 3.13172 2.76867 1.19072 6.78263H22.8092C20.8683 2.76867 16.7575 0 12 0Z" fill="#0052B4"/>
<path d="M12.7826 11.7391V8.86957H11.2174V11.7391L9.32695 13.6296C9.87675 14.5296 10.8682 15.1304 12 15.1304C13.1319 15.1304 14.1233 14.5296 14.6731 13.6296L12.7826 11.7391Z" fill="black"/>
</svg>
