<svg width="24" height="24" viewBox="0 0 24 24" fill="none" xmlns="http://www.w3.org/2000/svg">
<path d="M12 24C18.6275 24 24 18.6275 24 12C24 5.3725 18.6275 0 12 0C5.3725 0 0 5.3725 0 12C0 18.6275 5.3725 24 12 24Z" fill="#D80027"/>
<path d="M19.0915 9.848H13.674L11.9998 4.6955L10.3258 9.848H4.90826L9.29101 13.0322L7.61701 18.1847L11.9998 15.0005L16.3828 18.1847L14.7085 13.0322L19.0915 9.848ZM10.5175 12.6337L11.0835 10.8912H12.9155L13.4818 12.6337L11.9995 13.7105L10.5175 12.6337ZM12.5765 9.848H11.4228L11.9995 8.07225L12.5765 9.848ZM14.3693 11.9887L14.0128 10.8915H15.8798L14.3693 11.9887ZM9.98651 10.8915L9.62976 11.989L8.11951 10.8915H9.98651ZM9.60151 15.453L10.1785 13.6772L11.112 14.3555L9.60151 15.453ZM12.8873 14.3555L13.8208 13.6775L14.3978 15.453L12.8873 14.3555Z" fill="#0F8F62"/>
</svg>
