<?xml version="1.0" standalone="no"?><!DOCTYPE svg PUBLIC "-//W3C//DTD SVG 1.1//EN" "http://www.w3.org/Graphics/SVG/1.1/DTD/svg11.dtd"><svg t="1739099893142" class="icon" viewBox="0 0 1024 1024" version="1.1" xmlns="http://www.w3.org/2000/svg" p-id="6298" xmlns:xlink="http://www.w3.org/1999/xlink" width="200" height="200"><path d="M0.000683 512c0 282.777223 229.222094 511.999317 511.999317 511.999317 282.777223 0 511.999317-229.222094 511.999317-511.999317C1023.999317 229.222777 794.777223 0.000683 512 0.000683 229.222777 0.000683 0.000683 229.222777 0.000683 512z" fill="#C61317" p-id="6299"></path><path d="M785.134569 78.865644L78.848578 785.134569A509.609987 509.609987 0 0 1 0.000683 512C0.000683 229.222777 229.222777 0.000683 512 0.000683a509.490521 509.490521 0 0 1 273.134569 78.864961zM238.865431 945.151422L945.151422 238.865431A509.609987 509.609987 0 0 1 1023.999317 512c0 282.777223-229.222094 511.999317-511.999317 511.999317a509.609987 509.609987 0 0 1-273.134569-78.864961z" fill="#F3D600" p-id="6300"></path><path d="M744.362357 55.637942L55.637942 744.362357A509.831854 509.831854 0 0 1 0.000683 512C0.000683 229.222777 229.222777 0.000683 512 0.000683a509.780654 509.780654 0 0 1 232.362357 55.637259z m-464.724714 912.724116L968.362058 279.637643A509.831854 509.831854 0 0 1 1023.999317 512c0 282.777223-229.222094 511.999317-511.999317 511.999317a509.780654 509.780654 0 0 1-232.362357-55.637259z" fill="#317FFF" p-id="6301"></path><path d="M281.173641 330.939975L204.954009 384.000171l26.897031-88.917215-74.018034-56.115125 92.876676-1.911464 30.481026-87.72255 30.515159 87.739616 92.85961 1.894398-74.018035 56.115125 26.879964 88.917215z" fill="#F3D600" p-id="6302"></path></svg>