<svg width="24" height="24" viewBox="0 0 24 24" fill="none" xmlns="http://www.w3.org/2000/svg">
<path d="M12 24C18.6274 24 24 18.6274 24 12C24 5.37258 18.6274 0 12 0C5.37261 0 3.05176e-05 5.37258 3.05176e-05 12C3.05176e-05 18.6274 5.37261 24 12 24Z" fill="#F0F0F0"/>
<path d="M23.0639 7.3478C21.2466 3.03103 16.9776 0 12 0C8.68625 0 5.68657 1.34339 3.51514 3.51511L6.52029 7.3478H23.0639Z" fill="black"/>
<path d="M6.55437 16.6088L3.51514 20.4849C5.68657 22.6566 8.68625 24 12 24C16.9944 24 21.2756 20.9487 23.0824 16.6088H6.55437Z" fill="#496E2D"/>
<path d="M2.6087 8.82611V15.1304H23.5867C23.8558 14.1324 24 13.0832 24 12C24 10.9012 23.852 9.83711 23.5753 8.82611H2.6087Z" fill="#A2001D"/>
<path d="M3.51471 3.51471C-1.17157 8.20099 -1.17157 15.799 3.51471 20.4853L12 12L3.51471 3.51471Z" fill="#0052B4"/>
<path d="M3.90874 9.01648L5.37335 11.0603L7.76997 10.2988L6.27883 12.3235L7.74344 14.3674L5.35713 13.5748L3.86594 15.5995L3.88235 13.0849L1.49594 12.2923L3.89238 11.5309L3.90874 9.01648Z" fill="#FFDA44"/>
</svg>
