<svg width="24" height="24" viewBox="0 0 24 24" fill="none" xmlns="http://www.w3.org/2000/svg">
<path d="M10.9565 13.0435C10.9565 13.0435 3.52174 3.51305 3.51471 3.51473C5.68624 1.34316 8.68629 0 12 0C18.6274 0 24 5.37262 24 12L10.9565 13.0435Z" fill="#338AF3"/>
<path d="M10.9565 12C10.9565 12 3.52174 20.487 3.51471 20.4853C5.68624 22.6568 8.68629 24 12 24C18.6274 24 24 18.6274 24 12H10.9565Z" fill="#6DA544"/>
<path d="M3.51471 3.51471C-1.17157 8.20099 -1.17157 15.799 3.51471 20.4853L12 12L3.51471 3.51471Z" fill="#F0F0F0"/>
<path d="M4.85674 8.86957L5.63369 11.2609H8.14835L6.11407 12.739L6.89097 15.1305L4.85674 13.6525L2.82241 15.1305L3.5995 12.739L1.56522 11.2609H4.07969L4.85674 8.86957Z" fill="#D80027"/>
</svg>
