<svg width="24" height="24" viewBox="0 0 24 24" fill="none" xmlns="http://www.w3.org/2000/svg">
<path d="M12 24C18.6274 24 24 18.6274 24 12C24 5.37258 18.6274 0 12 0C5.37258 0 0 5.37258 0 12C0 18.6274 5.37258 24 12 24Z" fill="#F0F0F0"/>
<path d="M12 24C15.6371 24 18.896 22.3817 21.0966 19.8261H2.90339C5.10403 22.3817 8.36292 24 12 24ZM24 12C24 5.37262 18.6274 0 12 0C5.37262 0 0 5.37262 0 12C0 13.0831 0.144375 14.1323 0.413391 15.1305H23.5867C23.8556 14.1323 24 13.0831 24 12Z" fill="#0052B4"/>
<path d="M0.953812 16.6957C1.18412 17.2366 1.45403 17.7597 1.76133 18.2609H22.2388C22.546 17.7597 22.8159 17.2365 23.0463 16.6957H0.953812Z" fill="#D80027"/>
<path d="M8.57766 12.7827L8.77191 13.3805H9.40055L8.892 13.75L9.08625 14.3479L8.57766 13.9783L8.06907 14.3479L8.26336 13.75L7.75482 13.3805H8.38346L8.57766 12.7827ZM8.57766 20.6087L8.77191 21.2066H9.40055L8.892 21.5761L9.08625 22.1739L8.57766 21.8045L8.06907 22.1739L8.26336 21.5761L7.75482 21.2066H8.38346L8.57766 20.6087ZM4.93472 17.962L5.12897 18.5598H5.75761L5.24907 18.9293L5.44332 19.5272L4.93472 19.1577L4.42613 19.5272L4.62047 18.9293L4.11188 18.5598H4.74047L4.93472 17.962ZM6.32621 13.5652L6.52046 14.1631H7.14905L6.64055 14.5326L6.8348 15.1305L6.32621 14.761L5.81761 15.1305L6.01196 14.5326L5.50331 14.1631H6.13196L6.32621 13.5652ZM4.11188 16.0273L4.74038 16.0273L4.93467 15.4294L5.12897 16.0273L5.75761 16.0272L5.24902 16.3968L5.44332 16.9947L4.93467 16.6251L4.42613 16.9945L4.62038 16.3967L4.11188 16.0273ZM5.81766 21.2771L6.01191 20.6794L5.50327 20.3099H6.13191L6.32621 19.712L6.5205 20.3098H7.1491L6.6405 20.6793L6.83475 21.2772L6.32616 20.9077L5.81766 21.2771ZM12.2192 17.962L12.025 18.5598H11.3964L11.9049 18.9293L11.7106 19.5272L12.2192 19.1577L12.7278 19.5272L12.5335 18.9293L13.0421 18.5598H12.4135L12.2192 17.962ZM10.8278 13.5652L10.6335 14.1631H10.0049L10.5134 14.5326L10.3192 15.1305L10.8278 14.761L11.3363 15.1305L11.1421 14.5326L11.6506 14.1631H11.022L10.8278 13.5652ZM13.0421 16.0273L12.4136 16.0273L12.2193 15.4294L12.025 16.0273L11.3964 16.0272L11.9049 16.3968L11.7106 16.9947L12.2193 16.6251L12.7278 16.9945L12.5336 16.3967L13.0421 16.0273ZM11.3363 21.2771L11.1421 20.6794L11.6507 20.3099H11.022L10.8278 19.712L10.6335 20.3098H10.0049L10.5135 20.6793L10.3192 21.2772L10.8278 20.9077L11.3363 21.2771Z" fill="#FFDA44"/>
</svg>
