<svg width="24" height="24" viewBox="0 0 24 24" fill="none" xmlns="http://www.w3.org/2000/svg">
<path d="M12 24C18.6274 24 24 18.6274 24 12C24 5.37258 18.6274 0 12 0C5.37261 0 3.05176e-05 5.37258 3.05176e-05 12C3.05176e-05 18.6274 5.37261 24 12 24Z" fill="#F0F0F0"/>
<path d="M6.48617 16.6957L3.51514 20.4849C5.68657 22.6566 8.68625 24 12 24C16.9608 24 21.2177 20.9893 23.0452 16.6957H6.48617Z" fill="#FFDA44"/>
<path d="M23.0639 7.3478C21.2466 3.03103 16.9776 0 12 0C8.68625 0 5.68657 1.34339 3.51514 3.51511L6.52029 7.3478H23.0639Z" fill="#496E2D"/>
<path d="M2.6087 8.82611V15.1304H23.5867C23.8558 14.1324 24 13.0832 24 12C24 10.9012 23.852 9.83711 23.5753 8.82611H2.6087Z" fill="black"/>
<path d="M3.51471 3.51471C-1.17157 8.20099 -1.17157 15.799 3.51471 20.4853L12 12L3.51471 3.51471Z" fill="#A2001D"/>
<path d="M4.85673 8.86957L5.63368 11.2609H8.14834L6.11406 12.739L6.89097 15.1305L4.85673 13.6525L2.8224 15.1305L3.5995 12.739L1.56522 11.2609H4.07968L4.85673 8.86957Z" fill="#FFDA44"/>
<path d="M2.58316 12H7.13116V14.087H2.58316V12Z" fill="#F0F0F0"/>
<path d="M7.99222 9.60747L7.25436 8.86957L4.8568 11.2671L2.45923 8.86957L1.72137 9.60747L4.12105 12.0029L1.72137 14.4026L2.45923 15.1305L4.8568 12.7372L7.25436 15.1305L7.99222 14.4026L5.59255 12.0029L7.99222 9.60747Z" fill="black"/>
</svg>
