<svg width="24" height="24" viewBox="0 0 24 24" fill="none" xmlns="http://www.w3.org/2000/svg">
<path d="M20.9434 19.9999C22.8439 17.8769 24 15.0737 24 12C24 8.92629 22.8438 6.12303 20.9434 3.99996L12 3.13043L3.05662 3.99996C1.15617 6.12303 0 8.92629 0 12C0 15.0737 1.15613 17.8769 3.05658 19.9999L12 20.8695L20.9434 19.9999Z" fill="#FFDA44"/>
<path d="M3.05663 3.99998H20.9434C18.7462 1.54528 15.5537 0 12 0C8.44627 0 5.25384 1.54528 3.05663 3.99998Z" fill="black"/>
<path d="M0 12L12 13.0435L24 12C24 10.5973 23.7585 9.25119 23.3162 8H0.683812C0.241453 9.25119 0 10.5973 0 12Z" fill="#D80027"/>
<path d="M0.683812 16H23.3163C23.7585 14.7488 24 13.4027 24 12H0C0 13.4027 0.241453 14.7488 0.683812 16Z" fill="black"/>
<path d="M20.9434 20H3.05658C5.2538 22.4548 8.44622 24 12 24C15.5538 24 18.7462 22.4548 20.9434 20Z" fill="#D80027"/>
<path d="M16.0043 12C16.0043 14.2117 14.2117 16.0044 12 16.0044C9.78829 16.0044 7.99565 14.2117 7.99565 12C7.99565 9.78831 9.78829 7.99567 12 7.99567C14.2117 7.99567 16.0043 9.78831 16.0043 12Z" fill="#F0F0F0"/>
<path d="M13.467 12.2042L12 11.5685C12 11.5685 12.3432 10.4293 12.3615 10.3514C12.3749 10.2944 12.382 10.235 12.382 10.174C12.382 9.95785 12.2944 9.76219 12.1527 9.62063L12.5216 9.25172C12.4006 9.13042 12.2569 9.03423 12.0986 8.96867C11.9403 8.90311 11.7706 8.86947 11.5993 8.86969C11.428 8.86946 11.2583 8.90309 11.1 8.96865C10.9417 9.03422 10.798 9.13042 10.677 9.25172L11.0459 9.62063C10.9731 9.69321 10.9154 9.77946 10.8761 9.87443C10.8367 9.96939 10.8165 10.0712 10.8167 10.174C10.8167 10.253 10.8286 10.3292 10.8504 10.4011L10.295 10.9565H11.3045C11.3045 10.9565 10.8871 11.5834 10.6593 12.0983C10.4314 12.613 10.6624 13.2415 11.189 13.4756L11.4935 13.6109L12 14.087V14.6087L11.4783 15.1304H12.5218V14.0869L12.9979 13.6108H13.9826C13.9874 13.601 13.9923 13.5915 13.9968 13.5814C14.2308 13.0549 13.9936 12.4382 13.467 12.2042Z" fill="black"/>
</svg>
