<svg width="24" height="24" viewBox="0 0 24 24" fill="none" xmlns="http://www.w3.org/2000/svg">
<path d="M12 24C18.6274 24 24 18.6274 24 12C24 5.37258 18.6274 0 12 0C5.37261 0 3.05176e-05 5.37258 3.05176e-05 12C3.05176e-05 18.6274 5.37261 24 12 24Z" fill="#FFDA44"/>
<path d="M7.30437 7.82611H23.2536C21.5581 3.2565 17.1596 0 12 0C8.68625 0 5.68657 1.34339 3.51514 3.51511L7.30437 7.82611ZM7.30437 16.1739H23.2536C21.5581 20.7435 17.1596 24 12 24C8.68625 24 5.68657 22.6566 3.51514 20.4849L7.30437 16.1739Z" fill="#6DA544"/>
<path d="M3.51471 3.51471C-1.17157 8.20099 -1.17157 15.799 3.51471 20.4853L12 12L3.51471 3.51471Z" fill="#D80027"/>
<path d="M15.2379 9.91302L15.7559 11.5073H17.4322L16.076 12.4927L16.5941 14.087L15.2379 13.1016L13.8817 14.087L14.3996 12.4927L13.0435 11.5073H14.7198L15.2379 9.91302ZM20.4553 9.91302L20.9733 11.5073H22.6496L21.2935 12.4927L21.8114 14.087L20.4553 13.1016L19.0991 14.087L19.6171 12.4927L18.2609 11.5073H19.9372L20.4553 9.91302Z" fill="black"/>
</svg>
