<svg width="24" height="24" viewBox="0 0 24 24" fill="none" xmlns="http://www.w3.org/2000/svg">
<path d="M12 24C18.6274 24 24 18.6274 24 12C24 5.37258 18.6274 0 12 0C5.37258 0 0 5.37258 0 12C0 18.6274 5.37258 24 12 24Z" fill="#FFDA44"/>
<path d="M3.51467 20.4853C4.00924 20.9801 4.54589 21.431 5.11855 21.8329L21.8328 5.11863C21.4309 4.54594 20.9801 4.0093 20.4853 3.51475C19.9907 3.01996 19.454 2.5691 18.8814 2.16724L2.16721 18.8815C2.56907 19.4541 3.01992 19.9907 3.51467 20.4853Z" fill="black"/>
<path d="M3.51468 3.51472C-0.271037 7.30053 -0.997834 12.986 1.33293 17.5021L17.5021 1.33301C12.986 -0.997753 7.30045 -0.270909 3.51468 3.51472Z" fill="#6DA544"/>
<path d="M20.4853 20.4853C24.271 16.6996 24.9977 11.014 22.6671 6.49792L6.49789 22.6671C11.0139 24.9978 16.6995 24.271 20.4853 20.4853Z" fill="#338AF3"/>
</svg>
