<svg width="24" height="24" viewBox="0 0 24 24" fill="none" xmlns="http://www.w3.org/2000/svg">
<path d="M12 24C18.6274 24 24 18.6274 24 12C24 5.37258 18.6274 0 12 0C5.37261 0 3.05176e-05 5.37258 3.05176e-05 12C3.05176e-05 18.6274 5.37261 24 12 24Z" fill="#F0F0F0"/>
<path d="M3.51471 20.4853C-1.17157 15.799 -1.17157 8.20104 3.51471 3.51471C3.51438 3.51523 10.4348 12 10.4348 12L3.51471 20.4853Z" fill="black"/>
<path d="M10.4348 12L1.59156 6.02405C1.31622 6.50303 1.07441 7.00052 0.867859 7.51294L5.34484 12L0.868 16.4874C1.07436 16.9995 1.31597 17.4966 1.59109 17.9753L10.4348 12Z" fill="#FFDA44"/>
<path d="M23.8984 10.4348H10.4345L3.51461 3.51489C2.76615 4.26319 2.11957 5.10686 1.59156 6.02411L7.55589 12L1.59109 17.9752C2.11918 18.8927 2.76593 19.7366 3.51461 20.4851L10.4345 13.5652H23.8984C23.9661 13.0462 24 12.5234 24 12C24 11.4695 23.9651 10.9472 23.8984 10.4348Z" fill="#6DA544"/>
<path d="M4.694 21.5192C6.71755 23.0746 9.25053 24 12 24C17.5444 24 22.2096 20.2396 23.5866 15.1304H11.0828L4.694 21.5192Z" fill="#0052B4"/>
<path d="M23.5866 8.86955C22.2096 3.76036 17.5444 0 12 0C9.25053 0 6.71755 0.925359 4.694 2.48077L11.0828 8.86955H23.5866Z" fill="#D80027"/>
</svg>
