<svg width="24" height="24" viewBox="0 0 24 24" fill="none" xmlns="http://www.w3.org/2000/svg">
<path d="M10.9565 10.9565C10.9565 10.9565 3.52174 20.487 3.51471 20.4853C5.68624 22.6569 8.68629 24 12 24C18.6274 24 24 18.6274 24 12L10.9565 10.9565Z" fill="#338AF3"/>
<path d="M10.9565 12C10.9565 12 3.52174 3.51305 3.51471 3.51473C5.68624 1.34316 8.68629 0 12 0C18.6274 0 24 5.37262 24 12H10.9565Z" fill="#6DA544"/>
<path d="M3.51471 3.51471C-1.17157 8.20099 -1.17157 15.799 3.51471 20.4853C3.51438 20.4873 24 12 24 12L3.51471 3.51471Z" fill="#D80027"/>
<path d="M6.26088 7.04346C3.95937 7.04346 2.08699 8.91588 2.08699 11.2173V12.7826C2.08699 15.0841 3.95941 16.9564 6.26088 16.9564C8.56235 16.9564 10.4348 15.084 10.4348 12.7826V11.2173C10.4348 8.91588 8.5624 7.04346 6.26088 7.04346ZM8.86957 12.7826C8.86957 13.9485 8.10072 14.938 7.04346 15.2712V13.5652L8.15083 12.4578L7.04407 11.3511L7.04346 10.9572V10.4348H5.4783V12L4.37168 13.1066L5.4783 14.2131V15.2712C4.42104 14.938 3.65219 13.9485 3.65219 12.7826V11.2174C3.65219 9.77899 4.82247 8.60875 6.26088 8.60875C7.69929 8.60875 8.86957 9.77904 8.86957 11.2174V12.7826Z" fill="#FFDA44"/>
</svg>
