<svg width="24" height="24" viewBox="0 0 24 24" fill="none" xmlns="http://www.w3.org/2000/svg">
<path d="M12 24C18.6274 24 24 18.6274 24 12C24 5.37258 18.6274 0 12 0C5.37258 0 0 5.37258 0 12C0 18.6274 5.37258 24 12 24Z" fill="#F0F0F0"/>
<path d="M2.74294 4.36368H21.2571C20.5722 3.53465 19.7796 2.80089 18.9003 2.18188H5.09967C4.22036 2.80086 3.42776 3.53463 2.74294 4.36368ZM0 12C0 12.3678 0.0174844 12.7315 0.049875 13.0909H23.9501C23.9831 12.7282 23.9997 12.3642 24 12C24 11.6322 23.9825 11.2685 23.9501 10.9091H0.049875C0.016904 11.2718 0.000262195 11.6358 0 12ZM1.30856 17.4545H22.6914C23.048 16.7572 23.3349 16.0264 23.5481 15.2728H0.451875C0.665062 16.0264 0.952011 16.7572 1.30856 17.4545ZM5.09967 21.8182H18.9003C19.7796 21.1992 20.5722 20.4654 21.257 19.6364H2.74294C3.42782 20.4654 4.22042 21.1992 5.09967 21.8182ZM0.451828 8.72728H23.5482C23.335 7.97363 23.048 7.24283 22.6914 6.54548H1.30856C0.952008 7.24284 0.665043 7.97363 0.451828 8.72728Z" fill="#F0F0F0"/>
<path d="M5.73913 2.1818H18.9003C16.9484 0.807516 14.5686 0 12 0C10.4348 0 7.69101 0.807516 5.73913 2.1818ZM11.4783 6.54548H22.6914C22.294 5.76827 21.813 5.03668 21.2571 4.36369H11.4783V6.54548ZM11.4783 10.9091H23.9501C23.884 10.171 23.7495 9.44057 23.5482 8.72733H11.4783V10.9091ZM0.451866 15.2728H23.5481C23.7495 14.5595 23.884 13.8291 23.9501 13.091H0.0498657C0.115951 13.8291 0.25053 14.5595 0.451866 15.2728ZM2.74293 19.6363H21.2571C21.813 18.9633 22.294 18.2317 22.6914 17.4545H1.30855C1.706 18.2317 2.18696 18.9633 2.74293 19.6363ZM12 24C14.5686 24 16.9484 23.1925 18.9003 21.8182H5.09966C7.05154 23.1925 9.43138 24 12 24Z" fill="#D80027"/>
<path d="M0.451819 8.72728C0.252975 9.43041 0.117366 10.1599 0.0498657 10.9091H12V0C6.50718 0 1.87644 3.69056 0.451819 8.72728Z" fill="#0052B4"/>
<path d="M7.1432 3.13043L7.92015 5.52176H10.4348L8.40053 6.99982L9.17743 9.39129L7.1432 7.91332L5.10887 9.39129L5.88597 6.99982L3.85168 5.52176H6.3662L7.1432 3.13043Z" fill="#F0F0F0"/>
</svg>
