<svg width="24" height="24" viewBox="0 0 24 24" fill="none" xmlns="http://www.w3.org/2000/svg">
<path d="M12 24C18.6274 24 24 18.6274 24 12C24 5.37258 18.6274 0 12 0C5.37258 0 0 5.37258 0 12C0 18.6274 5.37258 24 12 24Z" fill="#F0F0F0"/>
<path d="M12 8.86954H23.5866C23.2894 7.76693 22.8355 6.7127 22.2387 5.73908H12V8.86954ZM4.53015 21.3913H19.4698C20.5679 20.5169 21.5049 19.4575 22.2387 18.2609H1.76129C2.49508 19.4575 3.43209 20.5169 4.53015 21.3913ZM4.1739 2.90338C3.22774 3.71803 2.41384 4.67468 1.76129 5.73913H4.1739V2.90338Z" fill="#338AF3"/>
<path d="M12 12V8.86955H7.30434V12H4.17389V8.86955H0.413391C0.144375 9.8677 0 10.9169 0 12C0 13.0831 0.144375 14.1323 0.413391 15.1305H23.5867C23.8556 14.1323 24 13.0831 24 12H12ZM12 0C10.3336 0 8.74669 0.339984 7.30434 0.953812V5.73914H12V2.60869H19.4699C17.42 0.976125 14.8242 0 12 0Z" fill="#338AF3"/>
</svg>
