<svg width="24" height="24" viewBox="0 0 24 24" fill="none" xmlns="http://www.w3.org/2000/svg">
<path d="M12 24C18.6274 24 24 18.6274 24 12C24 5.37258 18.6274 0 12 0C5.37258 0 0 5.37258 0 12C0 18.6274 5.37258 24 12 24Z" fill="#F0F0F0"/>
<path d="M0.413389 15.1305C1.1077 17.7067 2.63794 19.9395 4.69565 21.5205V15.1305H0.413389ZM10.9565 23.9543C11.3035 23.9845 11.6517 23.9997 12 24C17.5443 24 22.2096 20.2396 23.5866 15.1305H10.9565V23.9543ZM23.5866 8.86955C22.2096 3.76036 17.5443 0 12 0C11.6483 0 11.3005 0.0160312 10.9565 0.0456562V8.86955H23.5866ZM4.69565 2.47945C2.63794 4.06055 1.1077 6.29334 0.413389 8.86955H4.69565V2.47945Z" fill="#0052B4"/>
<path d="M23.8984 10.4348H9.39131V0.285248C8.29786 0.527501 7.24401 0.922669 6.26086 1.45909V10.4348H0.101578C0.0347813 10.9472 0 11.4695 0 12C0 12.5305 0.0347813 13.0529 0.101578 13.5652H6.26086V22.5409C7.24401 23.0773 8.29786 23.4725 9.39131 23.7147V13.5653H23.8984C23.9651 13.0529 24 12.5305 24 12C24 11.4695 23.9651 10.9472 23.8984 10.4348Z" fill="#D80027"/>
</svg>
