<svg width="24" height="24" viewBox="0 0 24 24" fill="none" xmlns="http://www.w3.org/2000/svg">
<path d="M24 12C24 10.5321 23.736 9.12602 23.2536 7.82609L12 7.30432L0.746391 7.82604C0.264047 9.12602 0 10.5321 0 12C0 13.4678 0.264047 14.8739 0.746391 16.1739L12 16.6956L23.2536 16.1739C23.736 14.8739 24 13.4678 24 12Z" fill="#F0F0F0"/>
<path d="M12 24C17.1596 24 21.5581 20.7435 23.2536 16.1739H0.746384C2.4419 20.7435 6.84042 24 12 24Z" fill="#0052B4"/>
<path d="M0.746384 7.82611H23.2537C21.5581 3.2565 17.1596 0 12 0C6.84042 0 2.4419 3.2565 0.746384 7.82611Z" fill="#D80027"/>
<path d="M15.1305 8.3479H13.0435L13.3913 5.73916L14.7826 4.69568L16.1739 5.73916V7.82613L15.1305 8.3479ZM8.86955 8.3479H10.9565L10.6087 5.73916L9.21736 4.69568L7.82611 5.73916V7.82613L8.86955 8.3479Z" fill="#338AF3"/>
<path d="M13.3913 8.3479H10.6087V5.73916L12 4.69568L13.3913 5.73916V8.3479Z" fill="#0052B4"/>
<path d="M7.82611 7.82617V13.5653C7.82611 14.9318 8.4862 16.1471 9.50433 16.909L10.2348 16.7262L11.1565 17.6535C11.4341 17.7106 11.7167 17.7393 12 17.7392C12.2874 17.7392 12.568 17.71 12.8392 17.6544L13.8914 16.7783L14.4957 16.9073C15.5134 16.1455 16.1739 14.9314 16.1739 13.5653V7.82617H7.82611Z" fill="#F0F0F0"/>
<path d="M7.82611 7.82611H9.49566V9.49566H7.82611V7.82611ZM11.1652 7.82611H12.8348V9.49566H11.1652V7.82611ZM14.5043 7.82611H16.1739V9.49566H14.5043V7.82611ZM9.49566 9.49566H11.1652V11.1652H9.49566V9.49566ZM12.8348 9.49566H14.5043V11.1652H12.8348L12.8348 9.49566ZM7.82611 11.1647H9.49566V12.8342H7.82611V11.1647ZM9.49566 12.8343H11.1652V14.5038H9.49566V12.8343ZM11.1652 11.1647H12.8348V12.8342H11.1652V11.1647Z" fill="#D80027"/>
<path d="M14.5043 11.1647H16.1738V12.8342H14.5043V11.1647ZM12.8347 12.8343H14.5043V14.5038H12.8347V12.8343ZM11.1651 14.5038H12.8347L12.8347 16.1734H11.1651V14.5038ZM9.49559 14.504H7.93376C8.07701 15.1246 8.35864 15.6925 8.74479 16.1735H9.49559V14.504ZM14.5043 16.1735H15.255C15.6477 15.6852 15.9249 15.1145 16.0661 14.504H14.5043V16.1735ZM9.49559 16.1735V16.902C9.98117 17.2674 10.5486 17.5294 11.1651 17.6551V16.1735H9.49559ZM12.8347 16.1735V17.6551C13.4513 17.5295 14.0187 17.2674 14.5043 16.902V16.1735H12.8347Z" fill="#D80027"/>
</svg>
