<svg width="24" height="24" viewBox="0 0 24 24" fill="none" xmlns="http://www.w3.org/2000/svg">
<path d="M12 24C18.6274 24 24 18.6274 24 12C24 5.37258 18.6274 0 12 0C5.37258 0 0 5.37258 0 12C0 18.6274 5.37258 24 12 24Z" fill="#FFDA44"/>
<path d="M9.39134 10.4348H23.8984C23.1314 4.54697 18.0969 4.33805e-07 12 4.33805e-07C11.1226 -0.000235061 10.2479 0.0954108 9.3913 0.285235L9.39134 10.4348ZM6.26084 10.4348V1.45908C2.96581 3.25692 0.607016 6.55463 0.101562 10.4348L6.26084 10.4348ZM6.2608 13.5652H0.101562C0.607016 17.4454 2.96581 20.7431 6.26084 22.5409L6.2608 13.5652ZM9.3913 13.5653V23.7148C10.2479 23.9046 11.1226 24.0002 12 24C18.0969 24 23.1314 19.453 23.8984 13.5652H9.3913V13.5653Z" fill="#0052B4"/>
</svg>
