<svg width="24" height="24" viewBox="0 0 24 24" fill="none" xmlns="http://www.w3.org/2000/svg">
<path d="M12 24C18.6274 24 24 18.6274 24 12C24 5.37258 18.6274 0 12 0C5.37261 0 3.05176e-05 5.37258 3.05176e-05 12C3.05176e-05 18.6274 5.37261 24 12 24Z" fill="#F0F0F0"/>
<path d="M10.9565 12C10.9565 12 3.52174 20.487 3.51471 20.4853C5.68624 22.6568 8.68629 24 12 24C18.6274 24 24 18.6274 24 12H10.9565Z" fill="#D80027"/>
<path d="M3.51471 3.51471C-1.17157 8.20099 -1.17157 15.799 3.51471 20.4853L12 12L3.51471 3.51471Z" fill="#0052B4"/>
</svg>
