<svg width="24" height="24" viewBox="0 0 24 24" fill="none" xmlns="http://www.w3.org/2000/svg">
<path d="M12 24C18.6274 24 24 18.6274 24 12C24 5.37258 18.6274 0 12 0C5.37258 0 0 5.37258 0 12C0 18.6274 5.37258 24 12 24Z" fill="#FCFCFC"/>
<path d="M18.7826 10.4348H17.2174C17.2174 13.3163 14.8815 15.6522 12 15.6522C9.1185 15.6522 6.78267 13.3163 6.78267 10.4348H5.21747C5.21747 13.5386 7.30228 16.1555 10.1481 16.9615C9.83606 17.5541 9.88359 18.3003 10.3293 18.8565C10.9147 18.3873 11.5207 17.9017 12.0348 17.4897L13.7404 18.8565C14.1905 18.2948 14.2348 17.5391 13.9124 16.9436C16.727 16.1179 18.7826 13.5166 18.7826 10.4348Z" fill="#6DA544"/>
<path d="M7.82611 9.91304C7.82611 9.91304 7.82611 12.5217 10.4348 12.5217L10.9565 13.0434H12C12 13.0434 12.5217 11.4782 13.5652 11.4782C13.5652 11.4782 13.5652 10.4348 14.6087 10.4348H16.1739C16.1739 10.4348 15.6522 8.34779 18.2609 6.78258L17.2174 6.26086C17.2174 6.26086 13.5652 8.86955 10.9565 8.34783V9.39132H9.91303L9.39131 8.8696L7.82611 9.91304Z" fill="#FFDA44"/>
</svg>
