<svg width="24" height="24" viewBox="0 0 24 24" fill="none" xmlns="http://www.w3.org/2000/svg">
<path d="M24 12C24 10.5322 23.736 9.12605 23.2536 7.82612L12 7.30435L0.746391 7.82607C0.264 9.12605 0 10.5322 0 12C0 13.4679 0.264 14.874 0.746391 16.1739L12 16.6957L23.2536 16.1739C23.736 14.874 24 13.4679 24 12Z" fill="#FFDA44"/>
<path d="M12 24C17.1596 24 21.5581 20.7435 23.2536 16.1739H0.746384C2.4419 20.7435 6.84042 24 12 24Z" fill="#6DA544"/>
<path d="M0.746384 7.82611H23.2537C21.5581 3.2565 17.1596 0 12 0C6.84042 0 2.4419 3.2565 0.746384 7.82611Z" fill="#D80027"/>
</svg>
