<svg width="24" height="24" viewBox="0 0 24 24" fill="none" xmlns="http://www.w3.org/2000/svg">
<path d="M12 24C18.6274 24 24 18.6274 24 12C24 5.37258 18.6274 0 12 0C5.37258 0 0 5.37258 0 12C0 18.6274 5.37258 24 12 24Z" fill="#F0F0F0"/>
<path d="M23.8972 10.4347C23.5661 7.90414 22.4294 5.45886 20.4853 3.51472C18.5411 1.57058 16.0958 0.433814 13.5652 0.102783L13.5653 10.4347H23.8972ZM10.4348 0.102783C7.90416 0.433814 5.45883 1.57053 3.51469 3.51467C1.5706 5.45886 0.43383 7.90419 0.102798 10.4348L10.4348 10.4348L10.4348 0.102783ZM0.102798 13.5652C0.43383 16.0958 1.5706 18.5412 3.51469 20.4853C5.45883 22.4294 7.90411 23.5661 10.4348 23.8973L10.4348 13.5653L0.102798 13.5652ZM13.5653 23.8971C16.0958 23.5661 18.5411 22.4294 20.4853 20.4853C22.4294 18.5411 23.5661 16.0958 23.8972 13.5652H13.5653V23.8971Z" fill="#0052B4"/>
<path d="M16.0964 7.61428C16.0964 7.53758 16.1269 7.46404 16.1812 7.40981C16.2354 7.35557 16.309 7.32508 16.3857 7.32502H17.0055C17.9854 7.32502 18.7826 6.52786 18.7826 5.54803C18.7826 4.56821 17.9855 3.771 17.0055 3.771H16.4169C16.2248 3.62667 15.967 3.53766 15.6826 3.53766C15.0895 3.53766 14.6087 3.92227 14.6087 4.39674C14.6087 4.86661 15.0803 5.2478 15.6655 5.25521L15.6653 5.25863H17.0055C17.1652 5.25863 17.2949 5.38838 17.2949 5.54794C17.2949 5.7075 17.1652 5.83721 17.0055 5.83721H16.3857C15.4058 5.83721 14.6087 6.63436 14.6087 7.61419C14.6087 8.59402 15.4058 9.39122 16.3857 9.39122H18.7826V7.9035H16.3857C16.309 7.90347 16.2354 7.87298 16.1812 7.81876C16.1269 7.76453 16.0964 7.69099 16.0964 7.61428ZM6.70509 7.61428C6.70517 7.53758 6.73568 7.46404 6.78992 7.40981C6.84416 7.35557 6.9177 7.32508 6.99441 7.32502H7.61428C8.59416 7.32502 9.39136 6.52786 9.39136 5.54803C9.39136 4.56821 8.5942 3.771 7.61428 3.771H7.02563C6.83349 3.62667 6.57572 3.53766 6.29138 3.53766C5.69827 3.53766 5.21747 3.92227 5.21747 4.39674C5.21747 4.86661 5.68908 5.2478 6.27427 5.25521L6.27399 5.25863H7.61433C7.77394 5.25863 7.90364 5.38838 7.90364 5.54794C7.90364 5.7075 7.77394 5.83721 7.61433 5.83721H6.99445C6.01458 5.83721 5.21747 6.63436 5.21747 7.61419C5.21747 8.59402 6.01453 9.39122 6.99445 9.39122H9.39131V7.9035H6.99441C6.9177 7.90347 6.84415 7.87298 6.78991 7.81876C6.73566 7.76453 6.70516 7.69099 6.70509 7.61428ZM16.0964 18.6853C16.0964 18.6086 16.1269 18.5351 16.1812 18.4808C16.2354 18.4266 16.309 18.3961 16.3857 18.396H17.0055C17.9854 18.396 18.7826 17.5989 18.7826 16.6191C18.7826 15.6392 17.9855 14.842 17.0055 14.842H16.4169C16.2248 14.6977 15.967 14.6087 15.6826 14.6087C15.0895 14.6087 14.6087 14.9933 14.6087 15.4678C14.6087 15.9376 15.0803 16.3188 15.6655 16.3262L15.6652 16.3297H17.0055C17.0822 16.3297 17.1558 16.3602 17.21 16.4145C17.2642 16.4687 17.2948 16.5423 17.2948 16.619C17.2947 16.6957 17.2642 16.7692 17.21 16.8234C17.1557 16.8777 17.0822 16.9082 17.0055 16.9082H16.3856C15.4058 16.9082 14.6086 17.7054 14.6086 18.6852C14.6086 19.6651 15.4057 20.4623 16.3856 20.4623H18.7826V18.9746H16.3857C16.309 18.9745 16.2354 18.944 16.1812 18.8898C16.1269 18.8356 16.0964 18.762 16.0964 18.6853ZM6.70509 18.6853C6.70517 18.6086 6.73568 18.5351 6.78992 18.4808C6.84416 18.4266 6.9177 18.3961 6.99441 18.396H7.61428C8.59416 18.396 9.39136 17.5989 9.39136 16.6191C9.39136 15.6392 8.5942 14.842 7.61428 14.842H7.02563C6.83349 14.6977 6.57572 14.6087 6.29138 14.6087C5.69822 14.6087 5.21742 14.9933 5.21742 15.4678C5.21742 15.9376 5.68903 16.3188 6.27422 16.3262L6.27394 16.3297H7.61428C7.69099 16.3297 7.76454 16.3602 7.81879 16.4145C7.87303 16.4687 7.90353 16.5423 7.90359 16.619C7.90352 16.6957 7.87301 16.7692 7.81877 16.8234C7.76453 16.8777 7.69099 16.9082 7.61428 16.9082H6.99441C6.01453 16.9082 5.21742 17.7054 5.21742 18.6852C5.21742 19.6651 6.01449 20.4623 6.99441 20.4623H9.39131V18.9746H6.99441C6.9177 18.9745 6.84416 18.944 6.78992 18.8898C6.73568 18.8356 6.70517 18.762 6.70509 18.6853Z" fill="#F0F0F0"/>
</svg>
