<svg width="24" height="24" viewBox="0 0 24 24" fill="none" xmlns="http://www.w3.org/2000/svg">
<mask id="mask0_618_293" style="mask-type:alpha" maskUnits="userSpaceOnUse" x="0" y="0" width="24" height="24">
<circle cx="12" cy="12" r="12" fill="#D9D9D9"/>
</mask>
<g mask="url(#mask0_618_293)">
<path d="M-6 0H30.0139V23.9998H-6V0Z" fill="white"/>
<path d="M8.0184 24V0.000183105H15.9955V24H8.0184Z" fill="#CE1E1F"/>
<path d="M-6 8.01147H30.0139V15.9885H-6V8.01147Z" fill="#173075"/>
<path d="M12.0069 9.7056L12.604 10.1268L12.3842 9.43531L12.9687 9.00783H12.2207L12.0069 8.31006L11.7932 9.00783H11.0452L11.6297 9.43531L11.4098 10.1268L12.0069 9.7056ZM9.79244 15.0801L10.3896 15.5013L10.1695 14.8098L10.7542 14.3824H10.006L9.79244 13.6846L9.5787 14.3824H8.83069L9.4152 14.8098L9.19515 15.5013L9.79244 15.0801ZM14.2214 15.0801L14.8187 15.5013L14.5987 14.8098L15.1832 14.3824H14.4352L14.2214 13.6846L14.0079 14.3824H13.2597L13.8444 14.8098L13.6243 15.5013L14.2214 15.0801ZM6.6776 11.9309L7.27471 12.3519L7.05485 11.6604L7.63935 11.2331H6.89134L6.6776 10.5354L6.46386 11.2331H5.71585L6.30054 11.6604L6.08049 12.3519L6.6776 11.9309ZM17.3363 11.9309L17.9334 12.3519L17.7133 11.6604L18.298 11.2331H17.55L17.3363 10.5354L17.1225 11.2331H16.3745L16.9592 11.6604L16.7392 12.3519L17.3363 11.9309Z" fill="white"/>
</g>
</svg>
