<svg width="24" height="24" viewBox="0 0 24 24" fill="none" xmlns="http://www.w3.org/2000/svg">
<path d="M12 24C18.6274 24 24 18.6274 24 12C24 5.37258 18.6274 0 12 0C5.37258 0 0 5.37258 0 12C0 18.6274 5.37258 24 12 24Z" fill="#F0F0F0"/>
<path d="M12 8.86953H23.5866C23.2894 7.76692 22.8355 6.71269 22.2387 5.73907H12V8.86953Z" fill="#338AF3"/>
<path d="M4.53015 21.3913H19.4698C20.5679 20.5169 21.5049 19.4575 22.2387 18.2609H1.76129C2.49508 19.4575 3.43209 20.5169 4.53015 21.3913ZM12 0V2.60869H19.4699C17.42 0.976125 14.8242 0 12 0Z" fill="#338AF3"/>
<path d="M12 8.86953H23.5866C23.2894 7.76692 22.8355 6.71269 22.2387 5.73907H12V8.86953ZM0 12C0 13.0831 0.144375 14.1323 0.413391 15.1304H23.5867C23.8556 14.1323 24 13.0831 24 12H0Z" fill="#338AF3"/>
<path d="M10.4348 7.02287L8.96919 7.71226L9.74961 9.13163L8.15821 8.82723L7.95655 10.4348L6.84815 9.25243L5.73965 10.4348L5.53804 8.82723L3.94663 9.13154L4.72701 7.71221L3.26151 7.02287L4.72705 6.33357L3.94663 4.91419L5.53799 5.2186L5.73969 3.61102L6.84815 4.7934L7.9566 3.61102L8.15821 5.2186L9.74966 4.91419L8.96924 6.33362L10.4348 7.02287Z" fill="#FFDA44"/>
</svg>
