<svg width="24" height="24" viewBox="0 0 24 24" fill="none" xmlns="http://www.w3.org/2000/svg">
<path d="M22.8093 17.2174C23.5722 15.6397 24 13.8699 24 12C24 10.1301 23.5722 8.36025 22.8093 6.78262L12 5.73914L1.19072 6.78262C0.427828 8.36025 0 10.1301 0 12C0 13.8699 0.427828 15.6397 1.19072 17.2174L12 18.2609L22.8093 17.2174Z" fill="#0052B4"/>
<path d="M12 24C16.7575 24 20.8683 21.2313 22.8093 17.2173H1.19072C3.13172 21.2313 7.24247 24 12 24Z" fill="#D80027"/>
<path d="M20.7828 14.3556L20.149 14.8509L20.4241 15.6065L19.7572 15.1569L19.1234 15.652L19.345 14.8788L18.6782 14.429L19.4821 14.401L19.7039 13.6278L19.979 14.3836L20.7828 14.3556ZM19.1597 11.5445L18.7336 12.2267L19.2507 12.8427L18.4702 12.6483L18.0439 13.3303L17.9877 12.528L17.2073 12.3333L17.9531 12.0319L17.8971 11.2295L18.4141 11.8458L19.1597 11.5445ZM16.6732 9.45793L16.506 10.2447L17.2026 10.6469L16.4026 10.7312L16.2354 11.5178L15.9082 10.7831L15.1082 10.867L15.706 10.3288L15.3789 9.5941L16.0755 9.9962L16.6732 9.45793ZM13.6229 8.34784L13.735 9.14439L14.527 9.28398L13.8041 9.63676L13.9161 10.4333L13.3574 9.85464L12.6343 10.2072L13.012 9.49693L12.4532 8.9184L13.2454 9.05804L13.6229 8.34784ZM10.3771 8.34784L10.7547 9.05804L11.5467 8.91831L10.9881 9.49707L11.3656 10.2073L10.6427 9.85464L10.0838 10.4331L10.1959 9.63676L9.47297 9.28417L10.2651 9.14439L10.3771 8.34784ZM7.3268 9.45793L7.92465 9.9962L8.62107 9.5941L8.29402 10.3291L8.89172 10.8672L8.0918 10.7831L7.76452 11.5178L7.59751 10.7311L6.79754 10.6471L7.4941 10.2448L7.3268 9.45793ZM4.84022 11.5445L5.58615 11.8458L6.10299 11.2297L6.04707 12.0322L6.79276 12.3336L6.01233 12.5281L5.95613 13.3303L5.53004 12.6483L4.74952 12.8428L5.26655 12.2267L4.84022 11.5445ZM3.21722 14.3556L4.02122 14.3836L4.29619 13.6279L4.51815 14.4011L5.32191 14.4292L4.65507 14.879L4.87669 15.6522L4.24294 15.157L3.57605 15.6067L3.85116 14.8509L3.21722 14.3556Z" fill="#F0F0F0"/>
<path d="M22.8093 6.78263C20.8683 2.76867 16.7575 0 12 0C7.24247 0 3.13172 2.76867 1.19072 6.78263H22.8093Z" fill="#FFDA44"/>
</svg>
