<svg width="24" height="24" viewBox="0 0 24 24" fill="none" xmlns="http://www.w3.org/2000/svg">
<path d="M24 12C24 7.88153 21.9249 4.24811 18.7635 2.08698L12 1.56522L5.23655 2.08693C2.07516 4.24811 0 7.88158 0 12C0 16.1186 2.07516 19.7519 5.23655 21.913L12 22.4348L18.7635 21.9131C21.9249 19.7519 24 16.1186 24 12Z" fill="#0052B4"/>
<path d="M18.7634 2.08697C16.8376 0.770437 14.5089 0 12 0C9.4911 0 7.1624 0.770437 5.23654 2.08697H18.7634ZM5.23654 21.913C7.16235 23.2296 9.4911 24 12 24C14.5089 24 16.8376 23.2296 18.7634 21.913H5.23654Z" fill="#A2001D"/>
<path d="M12 17.7391C15.1696 17.7391 17.7391 15.1696 17.7391 12C17.7391 8.83037 15.1696 6.26086 12 6.26086C8.83037 6.26086 6.26086 8.83037 6.26086 12C6.26086 15.1696 8.83037 17.7391 12 17.7391Z" fill="#F0F0F0"/>
<path d="M12 16.6957C14.5933 16.6957 16.6957 14.5933 16.6957 12C16.6957 9.40667 14.5933 7.30435 12 7.30435C9.40667 7.30435 7.30435 9.40667 7.30435 12C7.30435 14.5933 9.40667 16.6957 12 16.6957Z" fill="#6DA544"/>
<path d="M12 15.1304C13.7289 15.1304 15.1304 13.7289 15.1304 12C15.1304 10.2711 13.7289 8.86954 12 8.86954C10.2711 8.86954 8.86954 10.2711 8.86954 12C8.86954 13.7289 10.2711 15.1304 12 15.1304Z" fill="#F0F0F0"/>
<path d="M12 11.2174L10.3044 12V13.3043L12 14.3478L13.6957 13.3043V12L12 11.2174Z" fill="#0052B4"/>
<path d="M10.3044 10.4348H13.6957V12H10.3044V10.4348Z" fill="#FFDA44"/>
</svg>
