<svg width="24" height="24" viewBox="0 0 24 24" fill="none" xmlns="http://www.w3.org/2000/svg">
<path d="M12 24C18.6274 24 24 18.6274 24 12C24 5.37258 18.6274 0 12 0C5.37261 0 3.05176e-05 5.37258 3.05176e-05 12C3.05176e-05 18.6274 5.37261 24 12 24Z" fill="#F0F0F0"/>
<path d="M12 0C9.8784 0 7.88584 0.551344 6.15652 1.51744V22.4826C7.88588 23.4487 9.8784 24 12 24C18.6274 24 24 18.6274 24 12C24 5.37262 18.6274 0 12 0Z" fill="#6DA544"/>
<path d="M6.19183 1.49768C5.51557 1.8726 4.87706 2.31187 4.28514 2.80938L13.4757 12L4.2851 21.1906C4.87703 21.6881 5.51554 22.1273 6.19178 22.5023L24 12L6.19183 1.49768Z" fill="#F0F0F0"/>
<path d="M5.17831 2.12726C4.81274 2.38018 4.46143 2.65309 4.12596 2.94476L12 12L4.12592 21.0552C4.46137 21.3469 4.81269 21.6198 5.17826 21.8727L21.9459 12L5.17831 2.12726Z" fill="#FFDA44"/>
<path d="M4.2851 2.80939C4.01826 3.03327 3.76122 3.26858 3.51471 3.51467L10.9565 12L3.51471 20.4853C3.76117 20.7314 4.01821 20.9667 4.2851 21.1906L13.4757 12L4.2851 2.80939Z" fill="black"/>
<path d="M3.51471 3.51471C-1.17157 8.20099 -1.17157 15.799 3.51471 20.4853L12 12L3.51471 3.51471Z" fill="#D80027"/>
</svg>
