<svg width="24" height="24" viewBox="0 0 24 24" fill="none" xmlns="http://www.w3.org/2000/svg">
<path d="M24 12C24 18.6274 18.6274 24 12 24C5.37263 24 0 18.6274 0 12C0 12.0029 12 0.0013125 12 0C18.6274 0 24 5.37262 24 12Z" fill="#338AF3"/>
<path d="M5.73914 12H9.78642L6.26085 7.8261L5.73914 9.39131V12ZM12 9.78646L7.8261 5.73914H12L12 9.78646Z" fill="#0052B4"/>
<path d="M11.9679 12H12V11.9679L11.9679 12Z" fill="#F0F0F0"/>
<path d="M12 6.26086V0H11.998C5.3715 0.001125 0 5.37323 0 12H6.26091V8.47448L9.78642 12H11.968L12.0001 11.9679V9.78647L8.47444 6.26086H12Z" fill="#F0F0F0"/>
<path d="M6.07103 1.56519C4.1922 2.63588 2.63592 4.19217 1.56522 6.071V12H4.69567V4.69564H12V1.56519H6.07103Z" fill="#D80027"/>
<path d="M12 10.5243L7.73652 6.26093H6.26089V6.26102L11.9999 12H12V10.5243Z" fill="#D80027"/>
<path d="M13.0972 19.8261L13.3562 20.6233H14.1944L13.5163 21.1159L13.7753 21.9131L13.0972 21.4205L12.4191 21.9131L12.6781 21.1159L12 20.6233H12.8381L13.0972 19.8261ZM19.7724 14.6087L20.0314 15.4059H20.8695L20.1915 15.8986L20.4506 16.6957L19.7724 16.2031L19.0943 16.6957L19.3534 15.8986L18.6752 15.4059H19.5134L19.7724 14.6087ZM21.445 6.78265L21.704 7.57981H22.5422L21.8641 8.07247L22.1231 8.86958L21.445 8.37697L20.7669 8.86958L21.026 8.07247L20.3478 7.57981H21.186L21.445 6.78265ZM21.8594 12.5217L22.1183 13.319H22.9565L22.2785 13.8116L22.5375 14.6087L21.8594 14.1161L21.1813 14.6087L21.4403 13.8116L20.7622 13.319H21.6003L21.8594 12.5217ZM14.299 17.9512L15.046 18.3318L15.6386 17.7392L15.5076 18.5669L16.2543 18.9475L15.4264 19.0786L15.2953 19.9065L14.9149 19.1596L14.087 19.2908L14.6796 18.6982L14.299 17.9512ZM14.299 14.8208L15.046 15.2014L15.6386 14.6087L15.5076 15.4365L16.2543 15.817L15.4264 15.9482L15.2953 16.776L14.9149 16.0292L14.087 16.1604L14.6796 15.5677L14.299 14.8208ZM16.9077 16.8274L17.6547 17.208L18.2473 16.6153L18.1163 17.4431L18.863 17.8236L18.0351 17.9548L17.904 18.7827L17.5236 18.0357L16.6957 18.167L17.2883 17.5744L16.9077 16.8274ZM16.9077 10.1252L17.6547 10.5057L18.2473 9.91306L18.1163 10.7409L18.863 11.1214L18.0351 11.2525L17.904 12.0804L17.5236 11.3336L16.6957 11.4647L17.2883 10.8721L16.9077 10.1252ZM19.436 10.0448L20.183 10.4254L20.7756 9.83272L20.6445 10.6605L21.3913 11.041L20.5634 11.1722L20.4323 12L20.0519 11.2532L19.224 11.3844L19.8166 10.7917L19.436 10.0448Z" fill="#FFDA44"/>
</svg>
