<svg width="24" height="24" viewBox="0 0 24 24" fill="none" xmlns="http://www.w3.org/2000/svg">
<path d="M24 12C24 18.6274 18.6274 24 12 24C5.37262 24 0 18.6274 0 12C0 12.0029 12 0.0013125 12 0C18.6274 0 24 5.37262 24 12Z" fill="#0052B4"/>
<path d="M11.9679 12H12V11.9679L11.9679 12Z" fill="#F0F0F0"/>
<path d="M12 6.26086V0H11.998C5.3715 0.001125 0 5.37323 0 12H6.26086V8.47448L9.78642 12H11.9679L12 11.9679V9.78647L8.47444 6.26086H12Z" fill="#F0F0F0"/>
<path d="M6.071 1.56519C4.19217 2.63588 2.63588 4.19217 1.56519 6.071V12H4.69564V4.69564H12V1.56519H6.071Z" fill="#D80027"/>
<path d="M12 10.5243L7.7366 6.26089C7.7366 6.26089 6.26093 6.26098 6.26093 6.26089V6.26098L12 12H12V10.5243ZM20.7811 8.90431L21.0401 9.70146H21.8783L21.2002 10.1941L21.4592 10.9912L20.7811 10.4986L20.103 10.9912L20.362 10.1941L19.6839 9.70146H20.522L20.7811 8.90431ZM17.7849 14.6434L18.1735 15.8392H19.4307L18.4135 16.5781L18.8021 17.7739L17.7849 17.0349L16.7677 17.7739L17.1563 16.5781L16.1391 15.8392H17.3964L17.7849 14.6434ZM17.8981 5.25214L18.2219 6.24865H19.2696L18.4219 6.86436L18.7457 7.86082L17.8981 7.24493L17.0505 7.86082L17.3742 6.86436L16.5266 6.24865H17.5743L17.8981 5.25214ZM15.0151 8.86953L15.4036 10.0653H16.6609L15.6437 10.8042L16.0323 12L15.0151 11.261L13.9979 12L14.3865 10.8042L13.3693 10.0653H14.6266L15.0151 8.86953Z" fill="#D80027"/>
</svg>
