<svg width="24" height="24" viewBox="0 0 24 24" fill="none" xmlns="http://www.w3.org/2000/svg">
<path d="M0 12C0 5.37262 5.37262 0 12 0C18.6274 0 24 5.37262 24 12" fill="#D80027"/>
<path d="M16.1739 11.1599L14.4683 11.9621L15.3766 13.6139L13.5246 13.2596L13.29 15.1305L12 13.7545L10.71 15.1305L10.4754 13.2596L8.62341 13.6138L9.53161 11.9621L7.82611 11.1599L9.53161 10.3576L8.62341 8.70598L10.4753 9.06017L10.71 7.18939L12 8.56531L13.29 7.18939L13.5246 9.06017L15.3766 8.70598L14.4685 10.3578L16.1739 11.1599ZM15.1305 3.91306H12.7826C12.7826 3.48092 12.4322 3.13043 12 3.13043C11.5678 3.13043 11.2174 3.48087 11.2174 3.91306H8.86955C8.86955 4.34524 9.24605 4.69568 9.67824 4.69568H9.65213C9.65213 5.12787 10.0025 5.47831 10.4348 5.47831C10.4348 5.91049 10.7851 6.26093 11.2174 6.26093H12.7826C13.2147 6.26093 13.5652 5.91054 13.5652 5.47831C13.9973 5.47831 14.3478 5.12792 14.3478 4.69568H14.3217C14.754 4.69568 15.1305 4.34529 15.1305 3.91306Z" fill="#FFDA44"/>
<path d="M24 12C24 18.6274 18.6274 24 12 24C5.37262 24 0 18.6274 0 12H24Z" fill="#F0F0F0"/>
<path d="M12 24C15.751 24 19.0995 22.2786 21.3001 19.5831C20.9043 19.3132 20.6906 18.877 19.9998 18.877C18.9998 18.877 18.9998 19.7914 17.9999 19.7914C17 19.7914 16.9999 18.877 16 18.877C15 18.877 15 19.7914 14 19.7914C12.9999 19.7914 12.9999 18.877 11.9998 18.877C10.9998 18.877 10.9998 19.7914 9.99989 19.7914C9.00005 19.7914 9.00005 18.877 8.00006 18.877C6.99999 18.877 6.99999 19.7914 5.99991 19.7914C4.99983 19.7914 4.99983 18.877 3.99975 18.877C3.30909 18.877 3.09539 19.3131 2.69977 19.583C4.90027 22.2786 8.24892 24 12 24ZM21.9998 13.5305C20.9999 13.5305 20.9999 12.6161 19.9998 12.6161C18.9998 12.6161 18.9998 13.5305 17.9999 13.5305C17 13.5305 16.9999 12.6161 16 12.6161C15 12.6161 15 13.5305 14 13.5305C12.9999 13.5305 12.9999 12.6161 11.9998 12.6161C10.9998 12.6161 10.9998 13.5305 9.99989 13.5305C9.00005 13.5305 9.00005 12.6161 8.00006 12.6161C6.99999 12.6161 6.99999 13.5305 5.99991 13.5305C4.99983 13.5305 4.99983 12.6161 3.99975 12.6161C2.99991 12.6161 2.99991 13.5305 1.99992 13.5305C1.00533 13.5305 0.999563 12.6262 0.0156097 12.6166C0.0431598 13.1585 0.107416 13.698 0.207938 14.2313C1.005 14.3485 1.0748 15.1305 1.99997 15.1305C2.99995 15.1305 2.99995 14.2162 3.9998 14.2162C4.99988 14.2162 4.99988 15.1305 5.99995 15.1305C7.00003 15.1305 7.00003 14.2162 8.00011 14.2162C9.0001 14.2162 9.0001 15.1305 9.99994 15.1305C10.9999 15.1305 10.9999 14.2162 11.9999 14.2162C12.9999 14.2162 12.9999 15.1305 14 15.1305C15.0001 15.1305 15.0001 14.2162 16 14.2162C17 14.2162 17 15.1305 18 15.1305C18.9999 15.1305 18.9999 14.2162 19.9999 14.2162C21 14.2162 21 15.1305 21.9999 15.1305C22.9252 15.1305 22.995 14.3485 23.7921 14.2314C23.8926 13.6981 23.9569 13.1586 23.9845 12.6166C23.0003 12.6263 22.9945 13.5305 21.9998 13.5305ZM19.9998 15.7466C18.9998 15.7466 18.9998 16.6609 17.9999 16.6609C17 16.6609 16.9999 15.7466 16 15.7466C15 15.7466 15 16.6609 14 16.6609C12.9999 16.6609 12.9999 15.7466 11.9998 15.7466C10.9998 15.7466 10.9998 16.6609 9.99989 16.6609C9.00005 16.6609 9.00005 15.7466 8.00006 15.7466C6.99999 15.7466 6.99999 16.6609 5.99991 16.6609C4.99983 16.6609 4.99983 15.7466 3.99975 15.7466C2.99991 15.7466 2.99991 16.6609 1.99992 16.6609C1.28541 16.6609 1.08131 16.1943 0.658266 15.9276C0.937615 16.7348 1.30278 17.5097 1.7475 18.2389C1.82423 18.2531 1.90777 18.2609 1.99992 18.2609C2.99991 18.2609 2.99991 17.3467 3.99975 17.3467C4.99983 17.3467 4.99983 18.2609 5.99991 18.2609C6.99999 18.2609 6.99999 17.3467 8.00006 17.3467C9.00005 17.3467 9.00005 18.2609 9.99989 18.2609C10.9999 18.2609 10.9999 17.3467 11.9998 17.3467C12.9999 17.3467 12.9999 18.2609 14 18.2609C15 18.2609 15 17.3467 16 17.3467C17 17.3467 17 18.2609 17.9999 18.2609C18.9998 18.2609 18.9999 17.3467 19.9998 17.3467C20.9999 17.3467 20.9999 18.2609 21.9998 18.2609C22.0921 18.2609 22.1756 18.2531 22.2524 18.2389C22.6971 17.5097 23.0622 16.7348 23.3417 15.9277C22.9186 16.1942 22.7145 16.6609 21.9998 16.6609C20.9999 16.6609 20.9999 15.7466 19.9998 15.7466Z" fill="#0052B4"/>
<path d="M23.9628 11.0519C23.0004 11.0747 22.9872 11.9652 21.9998 11.9652C20.9999 11.9652 20.9999 11.0509 19.9998 11.0509C18.9998 11.0509 18.9998 11.9652 17.9999 11.9652C17 11.9652 16.9999 11.0509 16 11.0509C15 11.0509 15 11.9652 14 11.9652C12.9999 11.9652 12.9999 11.0509 11.9998 11.0509C10.9998 11.0509 10.9998 11.9652 9.99989 11.9652C9.00005 11.9652 9.00005 11.0509 8.00006 11.0509C6.99998 11.0509 6.99998 11.9652 5.99991 11.9652C4.99983 11.9652 4.99983 11.0509 3.99975 11.0509C2.99991 11.0509 2.99991 11.9652 1.99992 11.9652C1.01278 11.9652 0.999422 11.0748 0.0371719 11.0519C0.0124715 11.3673 7.14817e-05 11.6836 0 12C0 12.2186 0.0061875 12.4357 0.0178594 12.6514C0.999563 12.6624 1.00608 13.5652 1.99997 13.5652C2.99995 13.5652 2.99995 12.6509 3.9998 12.6509C4.99988 12.6509 4.99988 13.5652 5.99995 13.5652C7.00003 13.5652 7.00003 12.6509 8.00011 12.6509C9.00009 12.6509 9.00009 13.5652 9.99994 13.5652C10.9999 13.5652 10.9999 12.6509 11.9999 12.6509C12.9999 12.6509 12.9999 13.5652 14 13.5652C15.0001 13.5652 15.0001 12.6509 16 12.6509C17 12.6509 17 13.5652 18 13.5652C18.9999 13.5652 18.9999 12.6509 19.9999 12.6509C21 12.6509 21 13.5652 21.9999 13.5652C22.9939 13.5652 23.0004 12.6624 23.9823 12.6514C23.9938 12.4357 24 12.2186 24 12C24 11.6809 23.9872 11.3648 23.9628 11.0519Z" fill="#F0F0F0"/>
</svg>
