<svg width="24" height="24" viewBox="0 0 24 24" fill="none" xmlns="http://www.w3.org/2000/svg">
<path d="M24 12C24 18.6274 18.6274 24 12 24C5.37262 24 0 18.6274 0 12C0 12.0029 12 0.0013125 12 0C18.6274 0 24 5.37262 24 12Z" fill="#338AF3"/>
<path d="M12 5.73914V9.78646L7.82611 5.73914H12ZM6.26086 12H9.78642L6.26086 7.30434L5.73914 10.9565L6.26086 12Z" fill="#0052B4"/>
<path d="M11.9679 12H12V11.9679L11.9679 12Z" fill="#F0F0F0"/>
<path d="M12 6.26086V0H11.998C5.3715 0.001125 0 5.37323 0 12H6.26086V8.47448L9.78642 12H11.968L12.0001 11.9679V9.78647L8.47444 6.26086H12Z" fill="#F0F0F0"/>
<path d="M6.07101 1.56519C4.19219 2.63588 2.6359 4.19217 1.5652 6.071V12H4.69565V4.69564H12V1.56519H6.07101Z" fill="#D80027"/>
<path d="M12 10.5243L7.7366 6.26086H6.26093V6.26096L11.9999 12H12V10.5243Z" fill="#D80027"/>
<path d="M13.5652 7.82614V12C13.5652 14.7956 17.2174 15.6522 17.2174 15.6522C17.2174 15.6522 20.8695 14.7956 20.8695 12V7.82614L17.2174 6.78265L13.5652 7.82614Z" fill="#F3F3F3"/>
<path d="M20.8695 7.82613V6.26093H13.5652V7.82613H16.6956V10.9566H13.5652V12.0001L16.6956 12.0002V15.4922C17.0105 15.6036 17.2174 15.6522 17.2174 15.6522C17.2174 15.6522 17.4242 15.6037 17.739 15.4922V12.0001H20.8695V10.9566H17.739V7.82608H20.8695V7.82613Z" fill="#D80027"/>
</svg>
