<svg width="24" height="24" viewBox="0 0 24 24" fill="none" xmlns="http://www.w3.org/2000/svg">
<path d="M24 12C24 11.4766 23.9661 10.9538 23.8984 10.4348H10.4347C7.98307 7.98335 3.51452 3.51508 3.51471 3.51471C-1.17157 8.20099 -1.17157 15.799 3.51471 20.4853L10.4348 13.5653H23.8984C23.9661 13.0463 24 12.5234 24 12Z" fill="black"/>
<path d="M23.9966 12.2729C23.9961 12.296 23.9956 12.3193 23.9949 12.3425L23.9966 12.2729ZM23.9851 12.6008C23.984 12.6237 23.9824 12.6466 23.9812 12.6695C23.9824 12.6466 23.9839 12.6237 23.9851 12.6008ZM23.9689 12.8624C23.9665 12.8961 23.9642 12.9298 23.9614 12.9634C23.9642 12.9298 23.9665 12.8961 23.9689 12.8624ZM23.9288 10.6921C23.9332 10.7322 23.9376 10.7723 23.9416 10.8125C23.9376 10.7722 23.9332 10.7322 23.9288 10.6921ZM23.9811 11.3305C23.9824 11.3533 23.9839 11.3762 23.985 11.3991C23.9839 11.3762 23.9824 11.3533 23.9811 11.3305ZM23.9949 11.6576C23.9955 11.6807 23.996 11.704 23.9966 11.7271C23.996 11.7039 23.9955 11.6807 23.9949 11.6576ZM23.9614 11.0365C23.9642 11.0701 23.9665 11.1038 23.9689 11.1375C23.9665 11.1038 23.9642 11.0701 23.9614 11.0365Z" fill="#F0F0F0"/>
<path d="M23.8984 10.4347C23.9038 10.4759 23.9086 10.5172 23.9135 10.5584C23.2013 4.61081 18.1395 0 12 0C8.68624 0 5.6862 1.3432 3.51462 3.51487L10.4345 10.4348H23.8984V10.4347Z" fill="#D80027"/>
<path d="M23.8984 13.5652H10.4345L3.51462 20.4851C5.6862 22.6567 8.68624 24 12 24C18.1395 24 23.2014 19.3892 23.9135 13.4415C23.9086 13.4827 23.9037 13.5241 23.8984 13.5652Z" fill="#6DA544"/>
<path d="M23.9416 13.1874C23.9376 13.2277 23.9332 13.2677 23.9288 13.3079C23.9332 13.2677 23.9376 13.2277 23.9416 13.1874Z" fill="#F0F0F0"/>
<path d="M23.9886 11.4739H9.99382L2.80521 4.28638C2.57285 4.53144 2.32099 4.87363 2.16523 5.11733L9.03987 11.9956L2.15946 18.8761C2.29568 19.1185 2.59244 19.4772 2.8008 19.7105L9.99396 12.5174H23.9903C23.9977 12.3443 24.0001 12.1705 24.0001 11.9957C24.0001 11.8217 23.9963 11.6477 23.9886 11.4739Z" fill="#FFDA44"/>
<path d="M2.91504 14.558V13.5529C3.91807 13.5529 4.73402 12.7369 4.73402 11.7339C4.73402 11.0243 4.15666 10.447 3.44707 10.447C2.96365 10.447 2.57032 10.8403 2.57032 11.3238C2.57032 11.6329 2.8218 11.8844 3.13099 11.8844C3.30574 11.8844 3.44791 11.7422 3.44791 11.5674H4.45301C4.45301 12.2965 3.85994 12.8895 3.13104 12.8895C2.26765 12.8896 1.56532 12.1871 1.56532 11.3239C1.56532 10.2862 2.40954 9.44202 3.44712 9.44202C4.71096 9.44202 5.73921 10.4703 5.73921 11.7341C5.73916 13.2911 4.47227 14.558 2.91504 14.558Z" fill="#FFDA44"/>
</svg>
