<svg width="24" height="24" viewBox="0 0 24 24" fill="none" xmlns="http://www.w3.org/2000/svg">
<path d="M11.9995 23.9983C18.6259 23.9983 23.9977 18.6265 23.9977 12.0001C23.9977 5.37363 18.6259 0.00183105 11.9995 0.00183105C5.37305 0.00183105 0.00125122 5.37363 0.00125122 12.0001C0.00125122 18.6265 5.37305 23.9983 11.9995 23.9983Z" fill="#F0F0F0"/>
<path d="M1.60863 6.00085C1.06707 6.93875 0.667595 7.9193 0.401573 8.91809L20.4672 20.5031C21.1992 19.7733 21.8487 18.9369 22.3901 17.9991L1.60863 6.00085Z" fill="black"/>
<path d="M17.9985 1.6092C13.1977 -1.16253 7.27819 -0.238742 3.53153 3.4969L23.5972 15.0818C24.9591 9.9694 22.7993 4.38098 17.9985 1.6092ZM6.0003 22.3908C10.8011 25.1625 16.7207 24.2387 20.4673 20.5031L0.401573 8.91811C-0.960222 14.0306 1.19945 19.6191 6.0003 22.3908Z" fill="#FFDA44"/>
<path d="M15.3902 10.6958C15.3902 12.5685 13.8721 14.0867 11.9994 14.0867C10.1267 14.0867 8.60858 12.5685 8.60858 10.6958C8.60858 10.1119 8.75619 9.56251 9.01617 9.08282C8.28036 9.83533 7.82608 10.8643 7.82608 12C7.82608 14.3048 9.69451 16.1733 11.9994 16.1733C14.3043 16.1733 16.1727 14.3049 16.1727 12C16.1727 10.8643 15.7185 9.83533 14.9826 9.08282C15.2426 9.5626 15.3902 10.1119 15.3902 10.6958Z" fill="#D80027"/>
<path d="M11.217 6.78345H12.782V14.6084H11.217V6.78345Z" fill="#D80027"/>
<path d="M14.6077 8.34839H9.39113C9.39113 8.70854 9.70487 9.00048 10.065 9.00048H10.0432C10.0432 9.36063 10.3352 9.65257 10.6953 9.65257C10.6953 10.0127 10.9873 10.3047 11.3474 10.3047H12.6515C13.0117 10.3047 13.3036 10.0127 13.3036 9.65257C13.6638 9.65257 13.9557 9.36063 13.9557 9.00048H13.934C14.294 9.00043 14.6077 8.70858 14.6077 8.34839ZM8.34785 15.13H15.6511V16.695H8.34785V15.13Z" fill="#D80027"/>
<path d="M13.5645 15.6517H16.6944V17.2167H13.5645V15.6517ZM7.30453 15.6517H10.4345V17.2167H7.30453V15.6517Z" fill="#D80027"/>
</svg>
