<svg width="24" height="24" viewBox="0 0 24 24" fill="none" xmlns="http://www.w3.org/2000/svg">
<path d="M20.4854 20.4853C15.7991 25.1716 8.20109 25.1716 3.51471 20.4853C-1.17158 15.799 -1.17158 8.20098 3.51476 3.51464C8.20105 -1.17165 15.0612 -0.433785 19.7475 4.25255C24.4337 8.93884 25.1716 15.799 20.4854 20.4853Z" fill="black"/>
<path d="M3.51477 3.51468C8.20106 -1.17161 15.799 -1.17152 20.4854 3.51472C25.1717 8.20101 25.1717 15.799 20.4854 20.4853" fill="#A2001D"/>
<path d="M9.17075 16.1739L9.36501 16.7718H9.99365L9.48505 17.1413L9.67935 17.7392L9.17075 17.3697L8.66216 17.7392L8.85641 17.1413L8.34786 16.7718H8.97646L9.17075 16.1739ZM7.56524 10.4348L7.8891 11.4313H8.93675L8.08911 12.0471L8.41288 13.0435L7.56524 12.4276L6.71764 13.0435L7.04145 12.0471L6.19377 11.4313H7.24152L7.56524 10.4348ZM7.56524 17.7392L7.889 18.7357H8.93675L8.08902 19.3514L8.41288 20.3479L7.56524 19.732L6.71764 20.3479L7.04136 19.3514L6.19377 18.7357H7.24138L7.56524 17.7392ZM10.6285 13.0435L10.9524 14.04H12L11.1524 14.6557L11.4762 15.6522L10.6285 15.0363L9.78093 15.6522L10.1047 14.6557L9.2571 14.04H10.3048L10.6285 13.0435ZM4.5019 13.0435L4.82576 14.04H5.87337L5.02578 14.6557L5.3495 15.6522L4.5019 15.0363L3.65426 15.6522L3.97812 14.6557L3.13043 14.04H4.17814L4.5019 13.0435Z" fill="#F0F0F0"/>
<path d="M20.0883 8.88567C19.552 8.34937 18.8551 8.03254 18.1063 7.97812L20.3479 6.23469C19.4552 5.34196 18.2586 4.93879 17.0911 5.02405C16.947 4.50522 16.6709 4.03259 16.2898 3.65225L15.4043 5.4231C15.3449 5.31472 15.2704 5.21534 15.183 5.12797C14.6736 4.61858 13.8477 4.61858 13.3384 5.12797C12.829 5.63736 12.8289 6.46321 13.3384 6.9726C13.4258 7.05999 13.5252 7.13452 13.6335 7.19395L11.8627 8.07937C12.2432 8.46073 12.7161 8.7369 13.2352 8.88089C13.1497 10.0485 13.5524 11.2448 14.4452 12.1376L16.4036 9.61954C16.5496 9.47486 16.747 9.3939 16.9525 9.39436C17.1616 9.39436 17.3581 9.47573 17.5059 9.62362C17.5788 9.69611 17.6366 9.78235 17.676 9.87733C17.7153 9.97232 17.7354 10.0742 17.7352 10.177C17.7352 10.386 17.6537 10.5825 17.5059 10.7304L18.2438 11.4683C18.5887 11.1234 18.7786 10.6648 18.7786 10.177C18.7786 9.77793 18.6513 9.39853 18.4163 9.08484C18.7698 9.17887 19.0921 9.36476 19.3506 9.62362C20.1643 10.4373 20.1643 11.7614 19.3506 12.575L20.0885 13.3129C20.6797 12.7216 21.0054 11.9355 21.0054 11.0993C21.0052 10.263 20.6795 9.47695 20.0883 8.88567Z" fill="#FFDA44"/>
</svg>
