<svg width="24" height="24" viewBox="0 0 24 24" fill="none" xmlns="http://www.w3.org/2000/svg">
<path d="M24 12C24 18.6274 18.6274 24 12 24C5.37262 24 0 18.6274 0 12C0 12.0028 12 0.00135937 12 0C18.6274 0 24 5.37262 24 12Z" fill="#0052B4"/>
<path d="M11.9679 12H12V11.9679L11.9679 12Z" fill="#F0F0F0"/>
<path d="M12 6.26092V6.10352e-05H11.998C5.3715 0.00113916 0 5.37325 0 12H6.26086V8.47445L9.78642 12H11.9679L12 11.9679V9.78653L8.47444 6.26092H12Z" fill="#F0F0F0"/>
<path d="M6.07103 1.56522C4.1922 2.63592 2.63592 4.1922 1.56522 6.07103V12H4.69567V4.69567H12V1.56522H6.07103Z" fill="#D80027"/>
<path d="M12 10.5243L7.7366 6.26095H6.26093L12 12H12V10.5243Z" fill="#D80027"/>
<path d="M7.23726 14.087L7.89585 15.4641L9.38306 15.1203L8.71706 16.4939L9.91302 17.4423L8.42395 17.7779L8.42812 19.3043L7.23726 18.3494L6.04645 19.3043L6.05062 17.7779L4.56149 17.4423L5.75751 16.4939L5.09141 15.1203L6.57871 15.4641L7.23726 14.087ZM17.9664 16.6957L18.2957 17.3842L19.0394 17.2123L18.7063 17.8991L19.3043 18.3733L18.5598 18.5411L18.5618 19.3043L17.9664 18.8268L17.371 19.3043L17.3731 18.5411L16.6286 18.3733L17.2266 17.8991L16.8936 17.2123L17.6371 17.3842L17.9664 16.6957ZM14.9031 9.39131L15.2324 10.0799L15.976 9.90797L15.643 10.5947L16.241 11.069L15.4964 11.2368L15.4985 12L14.9031 11.5225L14.3077 12L14.3097 11.2368L13.5652 11.069L14.1632 10.5947L13.8302 9.90797L14.5738 10.0799L14.9031 9.39131ZM17.9664 5.21738L18.2957 5.90597L19.0394 5.73408L18.7064 6.42085L19.3043 6.89503L18.5598 7.06289L18.5618 7.82611L17.9664 7.3486L17.371 7.82611L17.3731 7.06289L16.6286 6.89503L17.2265 6.42085L16.8936 5.73408L17.6371 5.90597L17.9664 5.21738ZM20.6422 8.34783L20.9715 9.03642L21.7151 8.86449L21.3821 9.55125L21.9801 10.0255L21.2355 10.1933L21.2376 10.9565L20.6422 10.479L20.0468 10.9565L20.0489 10.1933L19.3043 10.0255L19.9023 9.55125L19.5693 8.86449L20.3129 9.03642L20.6422 8.34783ZM18.7289 12L18.9879 12.7972H19.8261L19.148 13.2899L19.407 14.087L18.7289 13.5943L18.0508 14.087L18.3098 13.2899L17.6317 12.7972H18.4699L18.7289 12Z" fill="#F0F0F0"/>
</svg>
