<svg width="24" height="24" viewBox="0 0 24 24" fill="none" xmlns="http://www.w3.org/2000/svg">
<path d="M12 24C18.6274 24 24 18.6274 24 12C24 5.37258 18.6274 0 12 0C5.37258 0 0 5.37258 0 12C0 18.6274 5.37258 24 12 24Z" fill="#F0F0F0"/>
<path d="M11.4783 12H24C24 10.9169 23.8556 9.86772 23.5866 8.86956H11.4783V12ZM11.4783 5.73916H22.2387C21.5049 4.54251 20.5679 3.48313 19.4699 2.6087H11.4783V5.73916ZM12 24C14.8242 24 17.42 23.0239 19.4699 21.3913H4.53014C6.58003 23.0239 9.17583 24 12 24ZM1.76128 18.2609H22.2387C22.8355 17.2873 23.2895 16.233 23.5866 15.1304H0.413391C0.710518 16.2331 1.16445 17.2873 1.76128 18.2609Z" fill="#D80027"/>
<path d="M12 12V0C5.37262 0 0 5.37262 0 12H12Z" fill="#0052B4"/>
<path d="M7.97973 10.2717C6.34089 10.2717 5.01236 8.94314 5.01236 7.30435C5.01236 5.66555 6.34094 4.33697 7.97973 4.33697C8.49072 4.33697 8.97151 4.46621 9.39128 4.69364C8.73278 4.04972 7.83222 3.65222 6.83842 3.65222C4.82144 3.65222 3.18625 5.28736 3.18625 7.30439C3.18625 9.32142 4.82144 10.9566 6.83842 10.9566C7.83222 10.9566 8.73278 10.5591 9.39128 9.91514C8.97151 10.1425 8.49076 10.2717 7.97973 10.2717Z" fill="#FFDA44"/>
<path d="M8.81592 5.21735L9.34275 6.319L10.5325 6.04413L9.9997 7.14283L10.9565 7.9016L9.76523 8.17014L9.76856 9.39128L8.81592 8.62732L7.86323 9.39128L7.86651 8.17014L6.67523 7.9016L7.63204 7.14283L7.09922 6.04413L8.28904 6.319L8.81592 5.21735Z" fill="#FFDA44"/>
</svg>
