<svg width="24" height="24" viewBox="0 0 24 24" fill="none" xmlns="http://www.w3.org/2000/svg">
<path d="M20.4856 20.4856C24.9861 15.9851 25.1638 8.79987 21.0206 4.08618L11.9999 11.9999L4.08615 21.0206C8.79984 25.1638 15.985 24.9861 20.4856 20.4856Z" fill="#496E2D"/>
<path d="M3.51438 3.5144C8.01488 -0.986106 15.2001 -1.16381 19.9138 2.97942L12 12.0001L2.97944 19.9138C-1.16383 15.2001 -0.986083 8.01491 3.51438 3.5144Z" fill="#0052B4"/>
<path d="M19.9137 2.97937L2.97934 19.9138C3.15146 20.1101 3.32988 20.3008 3.51432 20.4856C3.69919 20.67 3.88992 20.8484 4.08624 21.0206L21.0205 4.08618C20.8484 3.88984 20.6699 3.6991 20.4855 3.51426C20.3007 3.32987 20.11 3.15149 19.9137 2.97937Z" fill="#FFDA44"/>
<path d="M5.05594 4.17358L5.31502 4.97079H6.15319L5.4751 5.46339L5.73408 6.2606L5.05594 5.76789L4.3778 6.2606L4.63688 5.46339L3.95874 4.97079H4.79696L5.05594 4.17358ZM9.33745 4.17358L9.59653 4.97079H10.4346L9.75656 5.46339L10.0156 6.2606L9.33745 5.76789L8.65931 6.2606L8.91839 5.46339L8.24025 4.97079H9.07842L9.33745 4.17358ZM5.05594 8.34765L5.31502 9.14485H6.15319L5.4751 9.63751L5.73408 10.4347L5.05594 9.94201L4.3778 10.4347L4.63688 9.63751L3.95874 9.14485H4.79696L5.05594 8.34765ZM9.33745 8.34765L9.59653 9.14485H10.4346L9.75656 9.63751L10.0156 10.4347L9.33745 9.94201L8.65931 10.4347L8.91839 9.63751L8.24025 9.14485H9.07842L9.33745 8.34765ZM7.19672 6.2606L7.4558 7.0578H8.29392L7.61583 7.55045L7.87486 8.34765L7.19672 7.85495L6.51858 8.34765L6.77761 7.55045L6.09947 7.0578H6.93769L7.19672 6.2606Z" fill="#F0F0F0"/>
</svg>
