<svg width="24" height="24" viewBox="0 0 24 24" fill="none" xmlns="http://www.w3.org/2000/svg">
<path d="M12 24C18.6274 24 24 18.6274 24 12C24 5.37258 18.6274 0 12 0C5.37258 0 0 5.37258 0 12C0 18.6274 5.37258 24 12 24Z" fill="#F0F0F0"/>
<path d="M16.1739 12C16.1739 13.0435 14.3052 15.6522 12 15.6522C9.69483 15.6522 7.82611 13.0435 7.82611 12C7.82611 9.69478 9.69483 7.82611 12 7.82611C14.3052 7.82611 16.1739 9.69478 16.1739 12Z" fill="#D80027"/>
<path d="M16.1739 12C16.1739 14.3052 14.3052 16.1739 12 16.1739C9.69483 16.1739 7.82611 14.3052 7.82611 12" fill="#0052B4"/>
<path d="M16.427 15.6893L17.5337 14.5826L18.2715 15.3204L17.1648 16.4271L16.427 15.6893ZM14.5821 17.5341L15.6888 16.4273L16.4267 17.1651L15.32 18.2719L14.5821 17.5341ZM18.6408 17.9024L19.7475 16.7956L20.4853 17.5335L19.3786 18.6402L18.6408 17.9024ZM16.796 19.7474L17.9027 18.6407L18.6405 19.3785L17.5338 20.4853L16.796 19.7474ZM17.5338 16.7959L18.6405 15.6892L19.3784 16.427L18.2717 17.5337L17.5338 16.7959ZM15.6895 18.6406L16.7962 17.5339L17.5341 18.2717L16.4273 19.3785L15.6895 18.6406ZM18.6411 8.31048L15.6898 5.35909L16.4276 4.62127L19.379 7.57262L18.6411 8.31048ZM15.6897 7.57304L14.5829 6.46632L15.3208 5.72851L16.4275 6.83523L15.6897 7.57304ZM17.5341 9.41752L16.4273 8.31076L17.1651 7.57295L18.2719 8.67966L17.5341 9.41752ZM17.9023 5.35951L16.7955 4.25274L17.5334 3.51488L18.6401 4.6216L17.9023 5.35951ZM19.7476 7.20413L18.6409 6.09741L19.3787 5.35955L20.4855 6.46627L19.7476 7.20413ZM4.25263 16.7962L7.20398 19.7475L6.46616 20.4853L3.51477 17.534L4.25263 16.7962ZM7.20374 17.5336L8.31051 18.6404L7.57269 19.3782L6.46598 18.2715L7.20374 17.5336ZM5.35921 15.6892L6.46598 16.796L5.72816 17.5338L4.6214 16.4271L5.35921 15.6892ZM6.46607 14.5824L9.41741 17.5338L8.6796 18.2716L5.72821 15.3203L6.46607 14.5824ZM7.20393 4.25251L4.25249 7.2039L3.51468 6.46604L6.46602 3.51465L7.20393 4.25251ZM8.31032 5.35899L5.35893 8.31038L4.62112 7.57252L7.57246 4.62118L8.31032 5.35899ZM9.41774 6.46627L6.4664 9.41762L5.72859 8.67981L8.67993 5.72846L9.41774 6.46627Z" fill="black"/>
</svg>
