<svg width="24" height="24" viewBox="0 0 24 24" fill="none" xmlns="http://www.w3.org/2000/svg">
<mask id="mask0_618_292" style="mask-type:alpha" maskUnits="userSpaceOnUse" x="0" y="0" width="24" height="24">
<circle cx="12" cy="12" r="12" fill="#D9D9D9"/>
</mask>
<g mask="url(#mask0_618_292)">
<path d="M0 4.63068H23.9958V19.3693H0V4.63068Z" fill="#ED1C27"/>
<path d="M0 0H23.9958V4H0V0Z" fill="#024FA2"/>
<path d="M0 4H23.9958V4.63069H0V4Z" fill="white"/>
<path d="M0 20H23.9958V24H0V20Z" fill="#024FA2"/>
<path d="M0 19.3651H23.9958V19.9957H0V19.3651ZM17.3545 12.0254C17.3545 13.0834 17.0408 14.1176 16.4531 14.9974C15.8654 15.8771 15.03 16.5629 14.0527 16.968C13.0753 17.373 11.9997 17.4792 10.962 17.2731C9.92427 17.067 8.97093 16.5579 8.22252 15.8101C7.4741 15.0623 6.96421 14.1093 6.75729 13.0718C6.55037 12.0342 6.65572 10.9586 7.06002 9.98085C7.46432 9.00315 8.14941 8.16726 9.0287 7.57886C9.90799 6.99045 10.942 6.67595 12 6.67512C12.7031 6.674 13.3995 6.8116 14.0494 7.08003C14.6993 7.34846 15.2898 7.74245 15.7872 8.23943C16.2846 8.73642 16.679 9.32663 16.948 9.97628C17.2169 10.6259 17.355 11.3223 17.3545 12.0254Z" fill="white"/>
<path d="M11.9873 6.95447L13.1556 10.4127H16.9481L13.8751 12.6645L15.0095 16.0931L11.9873 14.0529L8.96084 16.0931L10.0995 12.6645L7.05185 10.4127H10.8402L11.9873 6.95447Z" fill="#ED1C27"/>
</g>
</svg>
