<svg width="24" height="24" viewBox="0 0 24 24" fill="none" xmlns="http://www.w3.org/2000/svg">
<path d="M12 24C13.4679 24 14.874 23.736 16.1739 23.2536L16.6957 12L16.1739 0.746391C14.874 0.264047 13.4679 0 12 0C10.5322 0 9.12605 0.264047 7.82612 0.746391L7.30435 12L7.82607 23.2536C9.12605 23.736 10.5322 24 12 24Z" fill="#0052B4"/>
<path d="M0 12C0 17.1596 3.2565 21.5581 7.82611 23.2536V0.746399C3.2565 2.44191 0 6.84043 0 12ZM16.1739 0.746399V23.2537C20.7435 21.5581 24 17.1596 24 12C24 6.84043 20.7435 2.44191 16.1739 0.746399Z" fill="#A2001D"/>
<path d="M5.73915 12H6.78264V16.1739H5.73915V12ZM1.56522 12H2.6087V16.1739H1.56522V12Z" fill="#FFDA44"/>
<path d="M4.17392 14.6087C4.75022 14.6087 5.2174 14.1415 5.2174 13.5652C5.2174 12.9889 4.75022 12.5217 4.17392 12.5217C3.59762 12.5217 3.13043 12.9889 3.13043 13.5652C3.13043 14.1415 3.59762 14.6087 4.17392 14.6087Z" fill="#FFDA44"/>
<path d="M4.17391 10.4347C4.46205 10.4347 4.69563 10.2012 4.69563 9.91301C4.69563 9.62488 4.46205 9.3913 4.17391 9.3913C3.88577 9.3913 3.65219 9.62488 3.65219 9.91301C3.65219 10.2012 3.88577 10.4347 4.17391 10.4347Z" fill="#FFDA44"/>
<path d="M3.13047 15.1305H5.21744V16.1739H3.13047V15.1305ZM3.13047 10.9565H5.21744V12H3.13047V10.9565ZM4.17391 6.26086L4.54347 7.39805H5.73916L4.77189 8.1009L5.14117 9.23808L4.17391 8.53524L3.20669 9.23808L3.57597 8.1009L2.6087 7.39805H3.80439L4.17391 6.26086Z" fill="#FFDA44"/>
</svg>
