<svg width="24" height="24" viewBox="0 0 24 24" fill="none" xmlns="http://www.w3.org/2000/svg">
<path d="M4.68752e-05 2.08698H0V21.9131H4.68752e-05V12.0001V2.08698Z" fill="#FF9811"/>
<path d="M12 24C18.6274 24 24 18.6274 24 12C24 5.37258 18.6274 0 12 0C5.37258 0 0 5.37258 0 12C0 18.6274 5.37258 24 12 24Z" fill="#FFDA44"/>
<path d="M9.3914 2.08698H5.23662C5.05274 2.21279 4.87237 2.34367 4.69573 2.47946L3.65224 12L4.69573 21.5205C4.87235 21.6564 5.05271 21.7872 5.23662 21.913H9.3914V2.08698Z" fill="#FF9811"/>
<path d="M4.57764e-05 12.0001C4.57764e-05 15.8788 1.84074 19.327 4.69572 21.5206V2.47949C1.84074 4.67316 4.57764e-05 8.12139 4.57764e-05 12.0001Z" fill="#6DA544"/>
<path d="M19.3044 7.31555V7.61579L19.3156 7.61748L19.3044 7.31555Z" fill="#FFDA44"/>
<path d="M23.0436 15.1305H20.7827L19.8262 16.174V18.2609H17.7392V17.2174H18.7827V15.1305H14.087V16.4348H13.0435V13.949C12.7234 13.6624 12.5218 13.2461 12.5218 12.7826V6.00002C12.5218 5.1356 13.2226 4.43481 14.087 4.43481V14.087H16.174L16.8901 13.4903C16.7614 13.1836 16.6953 12.8544 16.6957 12.5218V10.9566H15.1305V7.82618H18.2609C18.2609 7.30446 19.0436 6.7827 19.0436 6.7827C19.0436 6.7827 19.8262 7.30442 19.8262 7.82618V10.9566C20.4066 10.9635 21.3289 10.9485 22.3252 10.9566C22.0634 10.4991 21.9131 9.95629 21.9131 9.39144C21.9131 8.47077 22.3106 7.64304 22.9433 7.07023C22.0313 5.0492 20.576 3.32598 18.7635 2.08698H10.9566V21.9131H18.7636C20.9676 20.4065 22.6433 18.1841 23.4563 15.5807L23.0436 15.1305Z" fill="#A2001D"/>
</svg>
