<svg width="24" height="24" viewBox="0 0 24 24" fill="none" xmlns="http://www.w3.org/2000/svg">
<path d="M12 24C18.6274 24 24 18.6274 24 12C24 5.37258 18.6274 0 12 0C5.37258 0 0 5.37258 0 12C0 18.6274 5.37258 24 12 24Z" fill="#F0F0F0"/>
<path d="M23.8984 10.4348H13.5653V0.101578C13.0529 0.034875 12.5305 0 12 0C11.4695 0 10.9471 0.034875 10.4348 0.101578V10.4347H0.101578C0.0339565 10.9538 2.60722e-05 11.4766 0 12C0 12.5306 0.034875 13.0529 0.101578 13.5652H10.4347V23.8984C11.4738 24.0339 12.5261 24.0339 13.5652 23.8984V13.5653H23.8984C23.966 13.0462 24 12.5234 24 12C24 11.4695 23.9651 10.9471 23.8984 10.4348Z" fill="#D80027"/>
<path d="M7.30434 5.73914V4.17389H5.73914V5.73914H4.17389V7.30434H5.73914V8.86954H7.30434V7.30434H8.86954V5.73914H7.30434ZM18.2609 5.73914V4.17389H16.6957V5.73914H15.1305V7.30434H16.6957V8.86954H18.2609V7.30434H19.8261V5.73914H18.2609ZM7.30434 16.6957V15.1305H5.73914V16.6957H4.17389V18.2609H5.73914V19.8261H7.30434V18.2609H8.86954V16.6957H7.30434ZM18.2609 16.6957V15.1305H16.6957V16.6957H15.1305V18.2609H16.6957V19.8261H18.2609V18.2609H19.8261V16.6957H18.2609Z" fill="#D80027"/>
</svg>
