<svg width="24" height="24" viewBox="0 0 24 24" fill="none" xmlns="http://www.w3.org/2000/svg">
<mask id="mask0_447_1068" style="mask-type:luminance" maskUnits="userSpaceOnUse" x="0" y="0" width="24" height="24">
<path d="M0 0H24V24H0V0Z" fill="white"/>
</mask>
<g mask="url(#mask0_447_1068)">
<path d="M0.566754 8.34774C0.190181 9.52854 -0.0010074 10.7606 3.99172e-06 12C3.99172e-06 13.2737 0.199004 14.5007 0.566754 15.6525L12 16.1735L23.4333 15.6517C23.8097 14.4711 24.0009 13.2392 24 12C24 10.7262 23.801 9.49949 23.4333 8.34774L12 7.82599L0.566754 8.34774Z" fill="#F0F0F0"/>
<path d="M23.4332 8.34798L12 7.82623L0.566498 8.34798C0.457098 8.69132 0.363253 9.03943 0.285248 9.39123H23.7145C23.6365 9.03941 23.5427 8.69131 23.4332 8.34798ZM0.285498 14.6087C0.363998 14.9625 0.457748 15.3107 0.566748 15.652H0.567748L12 16.1737L23.4332 15.6522C23.5427 15.3088 23.6365 14.9606 23.7145 14.6087H0.285498Z" fill="#D80027"/>
<path d="M12 24C17.3537 24 21.888 20.4935 23.4332 15.652H0.566742C2.11174 20.4935 6.64624 24 12 24Z" fill="#6DA544"/>
<path d="M12 0C6.64624 0 2.11199 3.5065 0.566742 8.34775H23.4332C21.8882 3.50675 17.3537 0 12 0Z" fill="#338AF3"/>
<path d="M5.48375 4.95646C5.48375 3.83271 6.27375 2.89371 7.32875 2.66321C6.98586 2.58796 6.63046 2.59057 6.28871 2.67083C5.94695 2.7511 5.62755 2.90698 5.35401 3.12701C5.08047 3.34704 4.85975 3.62561 4.7081 3.94222C4.55646 4.25883 4.47774 4.60541 4.47775 4.95646C4.47772 5.30748 4.5564 5.65404 4.708 5.97064C4.8596 6.28723 5.08027 6.56581 5.35375 6.78585C5.62724 7.0059 5.94659 7.16182 6.2883 7.24214C6.63001 7.32246 6.98537 7.32513 7.32825 7.24996C6.2735 7.01971 5.4835 6.08071 5.4835 4.95671L5.48375 4.95646ZM8.71625 6.02371L8.87525 6.51271H9.3895L8.9735 6.81521L9.1325 7.30421L8.71625 7.00196L8.30025 7.30446L8.45925 6.81521L8.043 6.51271H8.55725L8.71625 6.02371ZM10.3578 6.02371L10.5168 6.51271H11.031L10.615 6.81521L10.774 7.30421L10.3578 7.00196L9.94175 7.30446L10.1008 6.81521L9.6845 6.51271H10.1988L10.3578 6.02371ZM11.9995 6.02371L12.1585 6.51271H12.6728L12.2568 6.81521L12.4155 7.30421L11.9995 7.00196L11.5833 7.30446L11.7423 6.81521L11.3263 6.51271H11.8405L11.9995 6.02371ZM13.641 6.02371L13.8 6.51271H14.3143L13.8983 6.81521L14.057 7.30421L13.641 7.00196L13.2248 7.30446L13.3838 6.81521L12.9678 6.51271H13.482L13.641 6.02371ZM15.2825 6.02371L15.4415 6.51271H15.956L15.5398 6.81521L15.6988 7.30421L15.2828 7.00196L14.8665 7.30446L15.0255 6.81521L14.6095 6.51271H15.1238L15.2825 6.02371ZM10.3578 4.31621L10.5168 4.80521H11.031L10.615 5.10771L10.774 5.59671L10.3578 5.29446L9.94175 5.59696L10.1008 5.10771L9.6845 4.80521H10.1988L10.3578 4.31621ZM11.9995 4.31621L12.1585 4.80521H12.6728L12.2568 5.10771L12.4155 5.59671L11.9995 5.29446L11.5833 5.59696L11.7423 5.10771L11.3263 4.80521H11.8405L11.9995 4.31621ZM13.641 4.31621L13.8 4.80521H14.3143L13.8983 5.10771L14.057 5.59671L13.641 5.29446L13.2248 5.59696L13.3838 5.10771L12.9678 4.80521H13.482L13.641 4.31621ZM15.2825 4.31621L15.4415 4.80521H15.956L15.5398 5.10771L15.6988 5.59671L15.2828 5.29446L14.8665 5.59696L15.0255 5.10771L14.6095 4.80521H15.1238L15.2825 4.31621ZM11.9995 2.60871L12.1585 3.09771H12.6728L12.2568 3.40021L12.4155 3.88921L11.9995 3.58696L11.5833 3.88946L11.7423 3.40021L11.3263 3.09771H11.8405L11.9995 2.60871ZM13.641 2.60871L13.8 3.09771H14.3143L13.8983 3.40021L14.057 3.88921L13.641 3.58696L13.2248 3.88946L13.3838 3.40021L12.9678 3.09771H13.482L13.641 2.60871ZM15.2825 2.60871L15.4415 3.09771H15.956L15.5398 3.40021L15.6988 3.88921L15.2828 3.58696L14.8665 3.88946L15.0255 3.40021L14.6095 3.09771H15.1238L15.2825 2.60871Z" fill="#F0F0F0"/>
</g>
</svg>
