<svg width="24" height="24" viewBox="0 0 24 24" fill="none" xmlns="http://www.w3.org/2000/svg">
<path d="M20.4852 20.4853C15.799 25.1716 8.20102 25.1716 3.5147 20.4853C-1.17157 15.799 -1.17157 8.20104 3.5147 3.51472C3.51639 3.51472 14.2986 0.328778 18.985 5.01505C23.6713 9.70132 20.4885 20.482 20.4852 20.4853Z" fill="#FFDA44"/>
<path d="M20.4852 20.4853C25.1715 15.799 25.1715 8.20103 20.4852 3.51472C15.799 -1.1716 8.20103 -1.17155 3.51471 3.51472L20.4852 20.4853Z" fill="#D80027"/>
<path d="M15.1367 15.1379C14.6437 15.3314 14.071 15.3109 13.5741 15.0321C12.6961 14.5393 12.3827 13.424 12.8756 12.5459L12.7259 12.462C14.2293 12.0995 15.3415 10.7349 15.322 9.1247C15.3099 8.12359 14.8626 7.22795 14.1628 6.61511L13.0672 7.73758C13.4814 8.06767 13.75 8.57401 13.7569 9.14368C13.7691 10.1506 12.9599 10.9796 11.9531 10.9918L11.9552 11.1632C10.8896 10.0426 9.15183 9.76168 7.7671 10.5837C6.9062 11.0948 6.35429 11.9299 6.17331 12.8423L7.69318 13.23C7.77198 12.7062 8.07615 12.2205 8.56604 11.9296C9.43186 11.4157 10.5544 11.702 11.0684 12.5678L11.216 12.4802C10.7782 13.9633 11.4038 15.6087 12.8081 16.397C13.6812 16.887 14.6804 16.9474 15.5611 16.6479L15.1367 15.1379Z" fill="#FF9811"/>
<path d="M16.4431 8.12726L15.5949 11.154L13.0501 10.6841L11.412 7.30746L6.98668 8.87782L6.6377 7.89438L5.47989 7.75174L6.35228 10.2103L9.39769 9.43141L10.2631 11.8703L8.1579 14.9772L11.7306 18.0243L11.0534 18.8182L11.5087 19.8924L13.2018 17.9075L11.0046 15.6595L12.6839 13.6907L16.4273 13.9604L17.2799 9.34273L18.306 9.53224L19.0086 8.60084L16.4431 8.12726Z" fill="#FFEACF"/>
</svg>
