<svg width="24" height="24" viewBox="0 0 24 24" fill="none" xmlns="http://www.w3.org/2000/svg">
<path d="M12 24C18.6274 24 24 18.6274 24 12C24 5.37258 18.6274 0 12 0C5.37258 0 0 5.37258 0 12C0 18.6274 5.37258 24 12 24Z" fill="#F0F0F0"/>
<path d="M16.5184 9.39133H13.5061L12 6.78264L10.494 9.39133H7.48159L8.98787 12L7.48159 14.6087H10.494L12 17.2174L13.5061 14.6087H16.5184L15.0121 12L16.5184 9.39133ZM13.8504 12L12.9253 13.6026H11.0749L10.1496 12L11.0748 10.3975H12.9252L13.8504 12ZM12 8.79484L12.3444 9.39128H11.6558L12 8.79484ZM9.22435 10.3975H9.91304L9.5687 10.9939L9.22435 10.3975ZM9.22435 13.6026L9.56874 13.0061L9.91309 13.6026H9.22435ZM12 15.2051L11.6557 14.6087H12.3444L12 15.2051ZM14.7757 13.6026H14.087L14.4314 13.0061L14.7757 13.6026ZM14.087 10.3975H14.7757L14.4313 10.9939L14.087 10.3975ZM19.4699 2.6087H4.53015C3.43206 3.48311 2.49504 4.54249 1.76129 5.73916H22.2387C21.5049 4.54252 20.5679 3.48314 19.4699 2.6087ZM4.53015 21.3913H19.4698C20.5679 20.5169 21.5049 19.4575 22.2387 18.2609H1.76129C2.49508 19.4575 3.43209 20.5169 4.53015 21.3913Z" fill="#0052B4"/>
</svg>
