<svg width="24" height="24" viewBox="0 0 24 24" fill="none" xmlns="http://www.w3.org/2000/svg">
<path d="M11.9999 4.43329e-07C11.1226 -0.000237626 10.2478 0.0954083 9.39126 0.285235L8.86955 12L9.39126 23.7147C10.2478 23.9046 11.1226 24.0002 11.9999 24C18.6273 24 23.9999 18.6274 23.9999 12C23.9999 5.37258 18.6273 4.43329e-07 11.9999 4.43329e-07ZM3.13041 3.91739C1.18584 6.05002 0 8.88642 0 12C0 15.1135 1.18589 17.9499 3.13045 20.0826L3.65217 12L3.13041 3.91739Z" fill="#496E2D"/>
<path d="M17.5509 9.05152C18.1413 7.40593 17.4781 5.6162 16.0546 4.72482C16.3156 4.75861 16.5721 4.8204 16.8199 4.90913C18.7185 5.59032 19.7054 7.68151 19.0242 9.58004C18.343 11.4787 16.2518 12.4655 14.3532 11.7843C14.1056 11.6954 13.8682 11.5799 13.6453 11.4401C15.3107 11.657 16.9606 10.6971 17.5509 9.05152ZM14.2764 4.27374L13.7633 4.93665L12.9745 4.65357L13.4463 5.34629L12.9334 6.0091L13.738 5.77445L14.2099 6.46707L14.2352 5.62932L15.0399 5.39462L14.251 5.11163L14.2764 4.27374Z" fill="#F0F0F0"/>
<path d="M15.6616 6.43366L15.1486 7.09652L14.3597 6.81344L14.8316 7.50616L14.3186 8.16897L15.1232 7.93422L15.5951 8.62699L15.6205 7.78919L16.4251 7.55444L15.6362 7.27141L15.6616 6.43366ZM11.834 5.06036L11.321 5.72318L10.5321 5.44019L11.004 6.13286L10.491 6.79572L11.2956 6.56102L11.7675 7.25369L11.7929 6.41594L12.5975 6.18124L11.8087 5.89816L11.834 5.06036ZM11.7778 7.53452L11.2648 8.19738L10.4759 7.91435L10.9478 8.60707L10.4347 9.26988L11.2394 9.03522L11.7113 9.72785L11.7367 8.8901L12.5413 8.6554L11.7524 8.37232L11.7778 7.53452ZM14.1321 8.37925L13.6191 9.04207L12.8302 8.75904L13.3021 9.45175L12.7891 10.1145L13.5938 9.87986L14.0656 10.5726L14.091 9.73474L14.8957 9.50008L14.1067 9.21705L14.1321 8.37925Z" fill="#F0F0F0"/>
<path d="M3.1304 3.91737V20.0825C4.7654 21.8757 6.93712 23.1706 9.39126 23.7147V0.285217C6.93707 0.829249 4.76545 2.12417 3.1304 3.91737Z" fill="#D80027"/>
<path d="M5.51962 6.31804L4.47145 5.53719V4.43296L5.51962 3.65216H7.00204L8.05022 4.43296V5.53719L7.00204 6.31804H5.51962Z" fill="#F0F0F0"/>
<path d="M6.26086 3.65216H5.51962L4.47145 4.43296V4.97282H6.26086V3.65216ZM6.26086 6.31804H7.00204L8.05022 5.53719V4.97389H6.26086V6.31804Z" fill="#FF9811"/>
<path d="M5.51962 20.3478L4.47145 19.5669V18.4627L5.51962 17.6819H7.00204L8.05022 18.4627V19.5669L7.00204 20.3478H5.51962Z" fill="#F0F0F0"/>
<path d="M6.26086 17.6819H5.51962L4.47145 18.4627V19.0026H6.26086V17.6819ZM6.26086 20.3478H7.00204L8.05022 19.5669V19.0037H6.26086V20.3478Z" fill="#FF9811"/>
<path d="M5.51963 13.3329L4.47146 12.5521V11.4479L5.51963 10.667H7.00205L8.05022 11.4479V12.5521L7.00205 13.3329H5.51963ZM8.08692 15.0509H7.63036V14.5944H6.8281L6.26081 14.0271L5.69358 14.5944H4.89131V15.0509H4.4348V15.9639H4.89131V16.4204H5.69353L6.26086 16.9878L6.8281 16.4204H7.63036V15.9639H8.08692V15.0509ZM8.08692 8.03599H7.63036V7.57943H6.8281L6.26081 7.01215L5.69358 7.57943H4.89131V8.03599H4.4348V8.94902H4.89131V9.40554H5.69353L6.26086 9.97291L6.8281 9.40554H7.63036V8.94902H8.08692V8.03599Z" fill="#496E2D"/>
<path d="M5.73904 11.4782H6.78253V12.5217H5.73904V11.4782Z" fill="#D80027"/>
<path d="M6.26076 9.01402C6.5489 9.01402 6.78248 8.78044 6.78248 8.4923C6.78248 8.20416 6.5489 7.97058 6.26076 7.97058C5.97263 7.97058 5.73904 8.20416 5.73904 8.4923C5.73904 8.78044 5.97263 9.01402 6.26076 9.01402Z" fill="#D80027"/>
<path d="M6.26076 16.0293C6.5489 16.0293 6.78248 15.7957 6.78248 15.5076C6.78248 15.2194 6.5489 14.9858 6.26076 14.9858C5.97263 14.9858 5.73904 15.2194 5.73904 15.5076C5.73904 15.7957 5.97263 16.0293 6.26076 16.0293Z" fill="#D80027"/>
</svg>
