<svg width="24" height="24" viewBox="0 0 24 24" fill="none" xmlns="http://www.w3.org/2000/svg">
<path d="M12 24C18.6274 24 24 18.6274 24 12C24 5.37258 18.6274 0 12 0C5.37258 0 0 5.37258 0 12C0 18.6274 5.37258 24 12 24Z" fill="#6DA544"/>
<path d="M6.78263 14.3479C6.78263 15.2123 7.48341 15.9131 8.34783 15.9131H13.0435C13.0435 16.6334 13.6275 17.2174 14.3478 17.2174H15.913C16.6334 17.2174 17.2174 16.6334 17.2174 15.9131V14.3479H6.78263ZM17.3478 6.78265V10.4348C17.3478 11.0102 16.8797 11.4783 16.3043 11.4783V13.0435C17.7428 13.0435 18.913 11.8732 18.913 10.4348V6.78265H17.3478ZM6.13046 10.4348C6.13046 11.0102 5.66237 11.4783 5.08698 11.4783V13.0435C6.52543 13.0435 7.69566 11.8732 7.69566 10.4348V6.78265H6.13046V10.4348Z" fill="#F0F0F0"/>
<path d="M15 6.78264H16.5652V10.4348H15V6.78264ZM12.6522 8.86956C12.6522 9.01342 12.5351 9.13042 12.3913 9.13042C12.2475 9.13042 12.1305 9.01337 12.1305 8.86956V6.78259H10.5653V8.86956C10.5653 9.01342 10.4482 9.13042 10.3044 9.13042C10.1606 9.13042 10.0436 9.01337 10.0436 8.86956V6.78259H8.4783V8.86956C8.4783 9.87648 9.29749 10.6957 10.3044 10.6957C10.6778 10.696 11.0422 10.5811 11.3479 10.3668C11.6536 10.5811 12.018 10.696 12.3914 10.6957C12.4695 10.6957 12.5463 10.6902 12.6218 10.6806C12.5109 11.1376 12.0993 11.4782 11.6088 11.4782V13.0435C13.0472 13.0435 14.2174 11.8732 14.2174 10.4348V6.78259H12.6522V8.86956H12.6522Z" fill="#F0F0F0"/>
<path d="M8.4783 11.4783H10.8261V13.0435H8.4783V11.4783Z" fill="#F0F0F0"/>
</svg>
