<svg width="24" height="24" viewBox="0 0 24 24" fill="none" xmlns="http://www.w3.org/2000/svg">
<path d="M12 24C18.6274 24 24 18.6274 24 12C24 5.37258 18.6274 0 12 0C5.37261 0 2.28882e-05 5.37258 2.28882e-05 12C2.28882e-05 18.6274 5.37261 24 12 24Z" fill="#F0F0F0"/>
<path d="M7.30437 7.82611H23.2536C21.5581 3.2565 17.1596 0 12 0C8.68624 0 5.68657 1.34339 3.51513 3.51511L7.30437 7.82611Z" fill="black"/>
<path d="M7.30437 16.1739H23.2536C21.5581 20.7435 17.1596 24 12 24C8.68624 24 5.68657 22.6566 3.51513 20.4849L7.30437 16.1739Z" fill="#6DA544"/>
<path d="M3.51471 3.51471C-1.17157 8.20099 -1.17157 15.799 3.51471 20.4853L12 12L3.51471 3.51471Z" fill="#D80027"/>
<path d="M4.76276 9.3913L5.4213 10.7684L6.9086 10.4247L6.24251 11.7982L7.43852 12.7467L5.94945 13.0822L5.95357 14.6087L4.76276 13.6537L3.5719 14.6087L3.57607 13.0822L2.08699 12.7467L3.28296 11.7982L2.61696 10.4247L4.10416 10.7684L4.76276 9.3913Z" fill="#F0F0F0"/>
</svg>
