<svg width="24" height="24" viewBox="0 0 24 24" fill="none" xmlns="http://www.w3.org/2000/svg">
<path d="M12 24C18.6274 24 24 18.6274 24 12C24 5.37258 18.6274 0 12 0C5.37258 0 0 5.37258 0 12C0 18.6274 5.37258 24 12 24Z" fill="#D80027"/>
<path d="M17.8686 12L15.4707 13.1279L16.7476 15.4504L14.1436 14.9522L13.8138 17.5826L12 15.6481L10.1863 17.5826L9.85632 14.9522L7.2525 15.4503L8.52938 13.1278L6.13139 12L8.52938 10.8721L7.2525 8.54956L9.85622 9.04784L10.1864 6.41736L12 8.35194L13.8139 6.41736L14.1436 9.04784L16.7477 8.54956L15.4708 10.8723L17.8686 12Z" fill="#FFDA44"/>
<path d="M12 15.6522C14.017 15.6522 15.6522 14.017 15.6522 12C15.6522 9.98297 14.017 8.34784 12 8.34784C9.98296 8.34784 8.34782 9.98297 8.34782 12C8.34782 14.017 9.98296 15.6522 12 15.6522Z" fill="#D80027"/>
<path d="M10.1739 12C10.0859 12 9.99905 12.0045 9.91331 12.013C9.91563 12.4994 10.0885 12.9695 10.4017 13.3415C10.5616 12.9113 10.801 12.515 11.1073 12.1733C10.8095 12.0586 10.493 11.9999 10.1739 12ZM11.298 13.9656C11.5174 14.044 11.7536 14.087 12 14.087C12.2464 14.087 12.4826 14.044 12.702 13.9656C12.5824 13.4963 12.3355 13.0773 12 12.7481C11.6645 13.0773 11.4176 13.4963 11.298 13.9656ZM13.8073 10.9568C13.4464 10.3331 12.7725 9.91302 12 9.91302C11.2275 9.91302 10.5536 10.3331 10.1927 10.9568C10.8278 10.9595 11.4509 11.1289 12 11.4479C12.5491 11.1289 13.1723 10.9595 13.8073 10.9568ZM12.8926 12.1733C13.199 12.515 13.4383 12.9113 13.5982 13.3416C13.9114 12.9695 14.0843 12.4994 14.0866 12.0131C14 12.0044 13.913 12 13.826 12C13.5069 11.9999 13.1904 12.0586 12.8926 12.1733Z" fill="#FFDA44"/>
</svg>
