<svg width="24" height="24" viewBox="0 0 24 24" fill="none" xmlns="http://www.w3.org/2000/svg">
<path d="M23.2536 16.1739C23.736 14.8739 24 13.4679 24 12C24 10.5322 23.736 9.12612 23.2536 7.82614L12 6.78265L0.746421 7.82614C0.264077 9.12612 3.05176e-05 10.5322 3.05176e-05 12C3.05176e-05 13.4679 0.264077 14.8739 0.746421 16.1739L12 17.2174L23.2536 16.1739Z" fill="#F0F0F0"/>
<path d="M12 24C17.1596 24 21.5581 20.7435 23.2536 16.1739H0.746368C2.44193 20.7435 6.8404 24 12 24Z" fill="#D80027"/>
<path d="M12 0C6.8404 0 2.44193 3.2565 0.746368 7.82611H23.2536C21.5581 3.2565 17.1596 0 12 0Z" fill="#6DA544"/>
<path d="M3.51471 3.51471C-1.17157 8.20099 -1.17157 15.799 3.51471 20.4853L7.82609 16.174V7.82613L3.51471 3.51471Z" fill="black"/>
</svg>
