<svg width="26" height="26" viewBox="0 0 26 26" fill="none" xmlns="http://www.w3.org/2000/svg">
<path fill-rule="evenodd" clip-rule="evenodd" d="M18.3251 8.86899L20.5434 6.50911L19.9932 5.99189L17.8589 8.26242L15.9971 8.61705L15.8872 8.63798L15.8064 8.71541L11.4733 12.8698L9.32587 11.0592L9.06072 10.8356L8.81549 11.0809L5.70044 14.1959L6.23442 14.7299L9.10423 11.8601L11.2462 13.666L11.5058 13.8849L11.7509 13.6499L16.2483 9.33794L18.1207 8.98129L18.2411 8.95835L18.3251 8.86899ZM20.2683 9.55434H19.5132V8.79917H20.2683V9.55434ZM18.6636 10.3095H19.4188V9.55433H18.6636V10.3095ZM17.9084 11.0647H18.6636V10.3095H17.9084V11.0647ZM8.75209 14.1797H9.50726V13.4245H8.75209V14.1797ZM20.2683 11.0647H19.5132V10.3095H20.2683V11.0647ZM16.3981 11.8198H15.643V11.0647H16.3981V11.8198ZM14.8878 12.575H15.6429V11.8198H14.8878V12.575ZM14.8878 13.3301H14.1326V12.575H14.8878V13.3301ZM14.8878 14.1797H15.6429V13.4245H14.8878V14.1797ZM14.8878 14.9349H14.1326V14.1797H14.8878V14.9349ZM14.8878 15.69H15.6429V14.9349H14.8878V15.69ZM14.1326 15.69L14.8878 15.69L14.8878 16.4452H14.1326V15.69ZM13.3775 15.69V14.9349H14.1326V15.69L13.3775 15.69ZM12.6223 15.69L13.3775 15.69V16.4452H12.6223V15.69ZM11.8671 15.69V14.9349H12.6223V15.69L11.8671 15.69ZM11.112 15.69V16.4452H11.8671V15.69H11.112ZM11.112 15.69H10.3568V16.4452H9.60165V15.69H10.3568V14.9349H11.112V15.69ZM13.3775 17.2004H14.1326V16.4452H13.3775V17.2004ZM9.50726 15.69H8.75209V16.4452H7.99693V15.69H8.75209V14.9349H9.50726V15.69ZM7.99693 17.2004H7.24177V16.4452H7.99693V17.2004ZM13.3775 14.1797H14.1326V13.4245H13.3775V14.1797ZM13.3775 14.9349H12.6223V14.1797H13.3775V14.9349ZM7.99693 15.69H7.24177V14.9349H7.99693V15.69ZM7.24177 15.69L7.24177 16.4452H6.48661V15.69L7.24177 15.69ZM6.48661 17.2004H5.73145V16.4452H6.48661V17.2004ZM16.4925 12.575H17.2477V11.8198H16.4925V12.575ZM16.4925 13.3301H15.7373V12.575H16.4925V13.3301ZM16.4925 14.1797H17.2477V13.4245H16.4925V14.1797ZM16.4925 14.9349H15.7373V14.1797H16.4925V14.9349ZM16.4925 15.69H17.2477V16.4452H18.0028L18.0028 15.69H18.758L18.758 16.4452H19.5132V15.69H20.2683V14.9349H19.5132V15.69H18.758V14.9349H18.0028V15.69H17.2477V14.9349H16.4925V15.69ZM16.4925 15.69L15.7373 15.69V16.4452H16.4925V15.69ZM14.9822 17.2004H15.7373V16.4452H14.9822V17.2004ZM9.60165 17.2004H8.84649V16.4452H9.60165V17.2004ZM17.1533 11.8198H17.9084V11.0647H17.1533V11.8198ZM18.758 12.575H18.0028V11.8198H18.758V12.575ZM17.2477 13.3301H18.0028V12.575H17.2477V13.3301ZM18.758 14.1797H18.0028V13.4245H18.758V14.1797ZM17.2477 14.9349H18.0028V14.1797H17.2477V14.9349ZM17.2477 17.2004H16.4925V16.4452H17.2477V17.2004ZM10.3568 17.2004H11.112V16.4452H10.3568V17.2004ZM19.4188 11.8198H18.6636V11.0647H19.4188V11.8198ZM7.99693 14.9349H8.75209V14.1797H7.99693V14.9349ZM10.2624 14.9349H9.50726V14.1797H10.2624V14.9349ZM19.5132 12.575H20.2683V11.8198H19.5132V12.575ZM19.5132 13.3301H18.758V12.575H19.5132V13.3301ZM19.5132 14.1797H20.2683V13.4245H19.5132V14.1797ZM19.5132 14.9349H18.758V14.1797H19.5132V14.9349ZM19.5132 17.2004H20.2683V16.4452H19.5132V17.2004ZM18.758 17.2004H18.0028V16.4452H18.758V17.2004ZM11.8671 17.2004H12.6223V16.4452H11.8671V17.2004Z" fill="#141717"/>
</svg>
