<svg width="16" height="16" viewBox="0 0 16 16" fill="none" xmlns="http://www.w3.org/2000/svg">
<path d="M2.78692 4.31207C4.57442 1.66207 8.03692 0.74957 10.8994 2.16207C14.0994 3.76207 15.4119 7.63707 13.8619 10.8496C12.3494 14.0371 8.52442 15.3996 5.33692 13.8746C4.03692 13.2496 2.97442 12.2121 2.33692 10.9121C2.17442 10.5871 2.29942 10.1996 2.62442 10.0371C2.93692 9.87457 3.32442 9.99957 3.48692 10.3246V10.3371C4.73692 12.8746 7.79942 13.9246 10.3369 12.6746C11.3744 12.1621 12.1994 11.3246 12.6994 10.2871C13.9494 7.71207 12.8869 4.62457 10.3369 3.33707C7.89942 2.13707 4.96192 3.04957 3.62442 5.41207H4.72442C5.08692 5.41207 5.37442 5.69957 5.37442 6.06207C5.37442 6.42457 5.08692 6.71207 4.72442 6.71207H2.13692C1.77442 6.71207 1.48692 6.42457 1.49942 6.06207V3.46207C1.49942 3.09957 1.78692 2.81207 2.13692 2.81207C2.49942 2.81207 2.78692 3.09957 2.77442 3.46207V4.31207H2.78692Z" fill="#A5A8AC" stroke="#A5A8AC" stroke-width="0.266667"/>
</svg>
