<svg width="15" height="16" viewBox="0 0 15 16" fill="none" xmlns="http://www.w3.org/2000/svg">
<path d="M5.33336 1.77783L8.88892 1.77783L7.42541 0.314324C7.25184 0.140757 6.97044 0.140757 6.79687 0.314323L5.33336 1.77783Z" fill="#43BC9C"/>
<rect y="1.77783" width="14.2222" height="14.2222" rx="3.55556" fill="#43BC9C"/>
<path d="M7.3715 8.84229H5.44963L5.43921 8.03499H7.184C7.4722 8.03499 7.72393 7.98638 7.93921 7.88916C8.15449 7.79194 8.32115 7.65305 8.43921 7.47249C8.56074 7.28847 8.6215 7.06972 8.6215 6.81624C8.6215 6.53847 8.56768 6.31277 8.46004 6.13916C8.35588 5.96208 8.19442 5.8336 7.97567 5.75374C7.76039 5.67041 7.48608 5.62874 7.15275 5.62874H5.67358V12.3892H4.66838V4.80583H7.15275C7.54164 4.80583 7.88886 4.84576 8.19442 4.92562C8.49997 5.00201 8.75865 5.12353 8.97046 5.2902C9.18574 5.4534 9.34893 5.66173 9.46004 5.9152C9.57115 6.16867 9.62671 6.47249 9.62671 6.82666C9.62671 7.13916 9.54685 7.42215 9.38713 7.67562C9.2274 7.92562 9.00518 8.13048 8.72046 8.2902C8.43921 8.44992 8.10935 8.55235 7.73088 8.59749L7.3715 8.84229ZM7.32463 12.3892H5.05379L5.6215 11.5715H7.32463C7.64407 11.5715 7.9149 11.5159 8.13713 11.4048C8.36282 11.2937 8.5347 11.1374 8.65275 10.936C8.77081 10.7312 8.82983 10.4899 8.82983 10.2121C8.82983 9.93083 8.77949 9.68777 8.67879 9.48291C8.5781 9.27805 8.42011 9.12006 8.20483 9.00895C7.98956 8.89784 7.71178 8.84229 7.3715 8.84229H5.93921L5.94963 8.03499H7.90796L8.1215 8.32666C8.48608 8.35791 8.79511 8.46208 9.04858 8.63916C9.30206 8.81277 9.49476 9.03499 9.62671 9.30583C9.76213 9.57666 9.82983 9.87527 9.82983 10.2017C9.82983 10.6739 9.72567 11.0732 9.51733 11.3996C9.31247 11.7225 9.02254 11.969 8.64754 12.1392C8.27254 12.3058 7.83157 12.3892 7.32463 12.3892Z" fill="white"/>
</svg>
