<svg width="15" height="16" viewBox="0 0 15 16" fill="none" xmlns="http://www.w3.org/2000/svg">
<rect width="14.2222" height="14.2222" rx="3.55556" fill="#F04E3F"/>
<path d="M8.86629 8.69466C8.86629 8.51758 8.83851 8.36133 8.78296 8.22591C8.73088 8.08702 8.63713 7.96202 8.50171 7.85091C8.36976 7.7398 8.18574 7.6339 7.94963 7.5332C7.71699 7.43251 7.42185 7.33008 7.06421 7.22591C6.68921 7.1148 6.35067 6.99154 6.04858 6.85612C5.7465 6.71723 5.48782 6.55924 5.27254 6.38216C5.05726 6.20508 4.89233 6.00195 4.77775 5.77279C4.66317 5.54362 4.60588 5.28147 4.60588 4.98633C4.60588 4.69119 4.66664 4.41862 4.78817 4.16862C4.9097 3.91862 5.08331 3.70161 5.309 3.51758C5.53817 3.33008 5.81074 3.18424 6.12671 3.08008C6.44268 2.97591 6.79511 2.92383 7.184 2.92383C7.75345 2.92383 8.23608 3.0332 8.63192 3.25195C9.03122 3.46723 9.33504 3.75022 9.54338 4.10091C9.75171 4.44813 9.85588 4.81966 9.85588 5.21549H8.85588C8.85588 4.93077 8.79511 4.67904 8.67358 4.46029C8.55206 4.23806 8.36803 4.06445 8.1215 3.93945C7.87497 3.81098 7.56247 3.74674 7.184 3.74674C6.82636 3.74674 6.53122 3.80056 6.29858 3.9082C6.06595 4.01584 5.89233 4.16168 5.77775 4.3457C5.66664 4.52973 5.61108 4.7398 5.61108 4.97591C5.61108 5.13563 5.64407 5.28147 5.71004 5.41341C5.77949 5.54188 5.88539 5.66168 6.02775 5.77279C6.17358 5.8839 6.35761 5.98633 6.57983 6.08008C6.80553 6.17383 7.07463 6.26411 7.38713 6.35091C7.81768 6.47244 8.18921 6.60786 8.50171 6.75716C8.81421 6.90647 9.07115 7.07487 9.27254 7.26237C9.4774 7.4464 9.62845 7.65647 9.72567 7.89258C9.82636 8.12522 9.87671 8.38911 9.87671 8.68424C9.87671 8.99327 9.81421 9.27279 9.68921 9.52279C9.56421 9.77279 9.38539 9.98633 9.15275 10.1634C8.92011 10.3405 8.6406 10.4776 8.31421 10.5749C7.99129 10.6686 7.63018 10.7155 7.23088 10.7155C6.88018 10.7155 6.5347 10.6669 6.19442 10.5697C5.85761 10.4724 5.55032 10.3266 5.27254 10.1322C4.99824 9.93772 4.77775 9.69813 4.61108 9.41341C4.44789 9.12522 4.36629 8.79188 4.36629 8.41341H5.36629C5.36629 8.67383 5.41664 8.89779 5.51733 9.08529C5.61803 9.26931 5.75518 9.42209 5.92879 9.54362C6.10588 9.66515 6.30553 9.75543 6.52775 9.81445C6.75345 9.87001 6.98782 9.89779 7.23088 9.89779C7.58157 9.89779 7.87845 9.84918 8.1215 9.75195C8.36456 9.65473 8.54858 9.51584 8.67358 9.33529C8.80206 9.15473 8.86629 8.94119 8.86629 8.69466Z" fill="white"/>
<path d="M8.88881 14.2222H5.33325L6.79676 15.6857C6.97033 15.8592 7.25173 15.8592 7.4253 15.6857L8.88881 14.2222Z" fill="#F04E3F"/>
</svg>
