<svg width="201" height="38" viewBox="0 0 201 38" fill="none" xmlns="http://www.w3.org/2000/svg">
<g opacity="0.16">
<path d="M65.4501 16.3589L68.8898 9.9292H73.0264L67.2711 20.1359V26.3857H63.4268V20.1583L57.4242 9.9292H61.898L65.4501 16.3589ZM88.5619 9.9292H91.4621V26.3857H87.82V16.6287L84.1106 21.9344H82.1547L78.4002 16.5838V26.3857H74.8032V9.9292H77.7708L83.1888 17.8652L88.5619 9.9292ZM104.946 19.7537H98.5165V23.0585H105.958V26.3857H94.6722V9.9292H105.688V13.234H98.5165V16.4714H104.946V19.7537ZM123.162 9.9292L117.407 17.9102L123.454 26.3857H118.711L115.046 21.0351L111.314 26.3857H106.908L112.956 18.0001L107.2 9.9292H111.899L115.294 14.8752L118.733 9.9292H123.162Z" fill="#2B2F33"/>
<path d="M138.489 20.2932V17.0109H145.143V23.8453C144.619 24.7296 143.772 25.4265 142.603 25.9361C141.449 26.4307 140.175 26.678 138.781 26.678C137.147 26.678 135.694 26.3183 134.42 25.5989C133.161 24.8795 132.179 23.8753 131.475 22.5863C130.785 21.2824 130.44 19.7986 130.44 18.135C130.44 16.4414 130.8 14.9501 131.52 13.6612C132.254 12.3572 133.251 11.3605 134.51 10.6711C135.769 9.96667 137.177 9.61446 138.736 9.61446C139.83 9.61446 140.819 9.78682 141.704 10.1315C142.603 10.4763 143.345 10.9409 143.929 11.5254C144.529 12.1099 144.949 12.7619 145.188 13.4813L141.996 15.3248C141.681 14.6204 141.239 14.0733 140.67 13.6836C140.115 13.294 139.448 13.0991 138.669 13.0991C137.874 13.0991 137.155 13.3014 136.51 13.7061C135.866 14.1108 135.356 14.6953 134.982 15.4597C134.607 16.2091 134.42 17.1008 134.42 18.135C134.42 19.7087 134.832 20.9527 135.656 21.8669C136.495 22.7662 137.612 23.2158 139.006 23.2158C140.055 23.2158 140.857 22.9386 141.411 22.384V20.2932H138.489ZM151.043 26.3857H147.379V9.27724H151.043V26.3857ZM153.072 20.563C153.072 19.334 153.349 18.2549 153.903 17.3257C154.473 16.3964 155.23 15.6845 156.174 15.1899C157.118 14.6953 158.13 14.448 159.209 14.448C160.288 14.448 161.292 14.6953 162.222 15.1899C163.166 15.6845 163.915 16.3964 164.47 17.3257C165.024 18.2549 165.302 19.334 165.302 20.563C165.302 21.807 165.024 22.8936 164.47 23.8228C163.915 24.7371 163.173 25.4415 162.244 25.9361C161.315 26.4307 160.303 26.678 159.209 26.678C158.115 26.678 157.096 26.4307 156.151 25.9361C155.222 25.4415 154.473 24.7371 153.903 23.8228C153.349 22.8936 153.072 21.807 153.072 20.563ZM156.848 20.563C156.848 21.4773 157.066 22.2042 157.5 22.7437C157.95 23.2683 158.512 23.5306 159.187 23.5306C159.846 23.5306 160.393 23.2683 160.828 22.7437C161.277 22.2042 161.502 21.4773 161.502 20.563C161.502 19.6488 161.277 18.9218 160.828 18.3823C160.393 17.8427 159.846 17.573 159.187 17.573C158.512 17.573 157.95 17.8427 157.5 18.3823C157.066 18.9218 156.848 19.6488 156.848 20.563ZM174.44 14.448C175.399 14.448 176.276 14.6878 177.07 15.1674C177.879 15.647 178.516 16.3515 178.981 17.2807C179.46 18.1949 179.7 19.289 179.7 20.563C179.7 21.822 179.46 22.9161 178.981 23.8453C178.516 24.7596 177.879 25.464 177.07 25.9586C176.276 26.4382 175.399 26.678 174.44 26.678C173.66 26.678 172.956 26.5206 172.326 26.2059C171.697 25.8762 171.172 25.3891 170.753 24.7446C170.678 25.3141 170.625 25.8612 170.595 26.3857H167.335V9.27724H171V16.0442C171.824 14.9801 172.971 14.448 174.44 14.448ZM173.495 23.598C174.215 23.598 174.799 23.3207 175.249 22.7662C175.699 22.2117 175.923 21.4773 175.923 20.563C175.923 19.6637 175.699 18.9593 175.249 18.4497C174.814 17.9252 174.23 17.6629 173.495 17.6629C172.791 17.6629 172.199 17.9102 171.719 18.4048C171.24 18.8844 171 19.6038 171 20.563C171 21.5372 171.24 22.2866 171.719 22.8112C172.199 23.3357 172.791 23.598 173.495 23.598ZM186.666 14.448C188.345 14.448 189.641 14.9201 190.555 15.8643C191.469 16.7936 191.927 18.1125 191.927 19.8211V26.3857H188.847C188.772 25.7563 188.719 25.3366 188.689 25.1268C188.33 25.6513 187.895 26.041 187.385 26.2958C186.876 26.5506 186.231 26.678 185.452 26.678C184.628 26.678 183.871 26.5356 183.181 26.2509C182.507 25.9511 181.967 25.5314 181.563 24.9919C181.173 24.4373 180.978 23.7854 180.978 23.036C180.978 22.2566 181.195 21.5747 181.63 20.9902C182.08 20.3906 182.679 19.9335 183.429 19.6188C184.178 19.304 184.995 19.1467 185.879 19.1467C186.703 19.1467 187.513 19.289 188.307 19.5738C188.202 18.105 187.535 17.3706 186.306 17.3706C185.272 17.3706 184.523 17.8502 184.058 18.8094L181.473 17.3032C181.907 16.4189 182.574 15.722 183.473 15.2124C184.388 14.7028 185.452 14.448 186.666 14.448ZM188.307 21.8445C187.723 21.6946 187.168 21.6196 186.643 21.6196C186.029 21.6196 185.542 21.732 185.182 21.9569C184.822 22.1817 184.643 22.4814 184.643 22.8561C184.643 23.2008 184.777 23.4706 185.047 23.6655C185.317 23.8603 185.662 23.9577 186.081 23.9577C186.651 23.9577 187.16 23.7929 187.61 23.4631C188.075 23.1334 188.307 22.6913 188.307 22.1367V21.8445ZM198.07 26.3857H194.406V9.27724H198.07V26.3857Z" fill="#07828B"/>
<g clip-path="url(#clip0_2108_11841)">
<path d="M33.6359 22.5049C32.9485 23.931 31.9538 25.1089 30.7693 25.9975C30.7325 26.0271 30.6946 26.0554 30.6554 26.0819C30.5951 26.1259 30.5337 26.1693 30.4716 26.212C30.1993 26.4012 29.9155 26.5759 29.6269 26.735C27.6959 27.7954 25.4197 28.1762 23.1965 27.74C23.3954 26.9646 23.6526 26.1946 23.9713 25.436C24.0828 25.1673 24.2021 24.9028 24.3298 24.6383C24.3834 24.5263 24.4383 24.4166 24.4943 24.3076C25.2715 22.7784 26.2554 21.4222 27.3935 20.2522C27.7429 19.8925 28.1068 19.5515 28.4846 19.2279C28.6925 19.0496 28.9052 18.8767 29.1214 18.7104C30.6777 17.5036 32.4309 16.5908 34.289 16.0022C34.6373 17.3668 34.6867 18.8146 34.4011 20.2383C34.245 21.0053 33.9932 21.7668 33.6377 22.5061H33.6365L33.6359 22.5049Z" fill="url(#paint0_linear_2108_11841)"/>
<path d="M26.1169 33.3823C25.242 34.5331 24.4714 35.7929 23.8298 37.1533L23.7732 37.2732C23.2116 35.6868 22.8881 34.0161 22.8254 32.3183C23.9075 32.7708 25.0077 33.1232 26.1169 33.3823Z" fill="url(#paint1_linear_2108_11841)"/>
<path fill-rule="evenodd" clip-rule="evenodd" d="M23.2405 35.4696C23.3839 36.0926 23.5628 36.7072 23.7761 37.3091L23.8327 37.1892C24.4744 35.8287 25.245 34.5689 26.1198 33.4182C25.6613 33.3109 25.204 33.188 24.7491 33.0488C24.2165 33.8285 23.7128 34.6352 23.2405 35.4696Z" fill="url(#paint2_linear_2108_11841)"/>
<path d="M51.4383 11.4824C51.6727 14.1948 51.416 16.8669 50.5237 19.5739C50.2562 20.3836 49.9375 21.1868 49.5646 21.9772H49.5628C48.9271 23.3256 48.1656 24.5734 47.3004 25.7139C47.2914 25.7259 47.2835 25.7368 47.2745 25.7482C45.1658 28.5191 42.4383 30.658 39.3849 32.0618C39.1722 32.16 38.9583 32.2546 38.7414 32.3455C34.7674 34.0156 30.2908 34.4615 25.9348 33.4553C25.9155 33.4511 25.8969 33.4469 25.8782 33.4415C27.5314 31.2707 29.5636 29.4861 31.8362 28.1413L31.9037 28.1004C33.4618 27.1846 35.1294 26.4742 36.8652 25.9862C36.8743 25.9838 36.8821 25.9814 36.8911 25.979C41.4159 24.6782 45.4845 21.867 48.2903 17.8345C48.9512 16.8844 49.5429 15.8668 50.0526 14.7859" fill="url(#paint3_linear_2108_11841)"/>
<path fill-rule="evenodd" clip-rule="evenodd" d="M9.91211 14.7525C10.0929 20.2352 13.7934 28.2682 21.8511 32.0687C22.1481 32.2085 22.4458 32.3411 22.7452 32.4646C23.8273 32.9171 24.9274 33.2695 26.0366 33.5286C27.6899 31.3578 29.7221 29.5732 31.9947 28.2285L32.0621 28.1875C33.6202 27.2717 35.2879 26.5614 37.0237 26.0733C37.0285 26.0721 37.0327 26.0709 37.0369 26.0697C37.0411 26.0685 37.0454 26.0673 37.0502 26.0661C41.5749 24.7653 45.6435 21.9541 48.4493 17.9216C49.1103 16.9715 49.7019 15.9539 50.2116 14.873C50.684 13.8717 51.0732 12.8546 51.3732 11.8256C51.4943 11.4099 51.3967 10.9592 51.1081 10.6357C49.9833 9.37525 48.5915 8.31667 46.9684 7.55091C41.3466 4.89873 34.78 6.6321 31.1385 11.3659C30.7132 11.9154 30.2896 12.5281 29.8474 13.1679C27.6049 16.4112 25.6372 19.7532 18.9995 20.3557C13.556 20.8497 11.9003 16.1985 12.0208 14.5115L9.91211 14.7525ZM29.6419 26.8198C27.7194 27.8959 25.4462 28.2953 23.22 27.8772H23.2188C23.411 27.0994 23.6622 26.327 23.9749 25.566C24.0845 25.2967 24.2014 25.031 24.3267 24.7653C24.3798 24.6533 24.4334 24.543 24.4882 24.4334C25.2528 22.8982 26.2252 21.5342 27.3543 20.3545C27.7013 19.9924 28.0622 19.6478 28.4369 19.3212C28.643 19.1411 28.8545 18.9663 29.069 18.7982C30.6156 17.5788 32.3616 16.6516 34.2143 16.0479C34.5739 17.4101 34.6348 18.8567 34.3607 20.2828C34.2112 21.051 33.9654 21.8149 33.616 22.5566C32.9406 23.9887 31.9549 25.1744 30.7776 26.0727C30.7409 26.1023 30.7035 26.1312 30.665 26.1583C30.6053 26.2029 30.5445 26.2463 30.4818 26.2896C30.2107 26.4812 29.9287 26.6578 29.6413 26.8192L29.6419 26.8198Z" fill="url(#paint4_linear_2108_11841)"/>
<path d="M10.5103 11.6839C10.8387 12.1098 11.1279 12.5762 11.3719 13.0793C11.643 13.6384 11.8425 14.2131 11.9762 14.794C11.9774 14.7964 11.978 14.7982 11.9792 14.8006C11.9816 14.8187 11.9871 14.8373 11.9913 14.8548C12.0371 15.0663 12.075 15.2784 12.1033 15.491C12.1082 15.5212 12.1112 15.5507 12.116 15.5808C11.8985 15.714 11.6738 15.8357 11.44 15.9489C11.2062 16.0622 10.9562 16.1688 10.7104 16.2604C10.6531 16.2797 10.5959 16.3014 10.5387 16.3207C9.32464 16.737 8.06483 16.8436 6.85262 16.6755C4.29624 16.3189 1.96098 14.7367 0.751174 12.2418C0.357746 11.4302 0.114339 10.5867 0.00830078 9.73964C0.226403 9.60769 0.451735 9.48418 0.685502 9.37092C1.94893 8.75878 3.2949 8.50815 4.60472 8.58045C4.72582 8.58647 4.84812 8.59731 4.96923 8.60997C7.01589 8.81481 8.94748 9.80833 10.3031 11.4278C10.3748 11.5116 10.4423 11.5971 10.5103 11.6845V11.6839Z" fill="url(#paint5_linear_2108_11841)"/>
<path d="M20.298 5.90765L20.3763 5.92814C20.8999 8.52669 20.0883 11.218 18.2555 13.0942C17.6271 13.7376 16.8776 14.2859 16.0215 14.701C14.8026 15.2915 13.5103 15.5451 12.2457 15.4999C12.2167 15.4975 12.1167 15.521 12.0884 15.5198C12.0251 15.3897 12.0384 15.0698 11.9896 14.8553C11.986 14.8378 11.9806 14.8191 11.9782 14.801C11.9769 14.7986 11.9763 14.7968 11.9751 14.7944C11.8414 14.2136 11.642 13.6388 11.3708 13.0797C11.1268 12.5766 10.8376 12.1103 10.5093 11.6844C10.9539 9.92809 11.9902 8.33329 13.5073 7.21506C13.8971 6.92526 14.3206 6.6686 14.7749 6.44809C15.0153 6.33181 15.2587 6.22818 15.5045 6.1366C15.6726 6.07454 15.8413 6.01851 16.0118 5.9685C17.4391 5.54736 18.9195 5.54676 20.2962 5.90886H20.2974L20.298 5.90765Z" fill="url(#paint6_linear_2108_11841)"/>
<path fill-rule="evenodd" clip-rule="evenodd" d="M12.0697 15.6103C11.2419 15.6374 10.4177 15.5928 9.60554 15.4789C5.83936 14.95 2.33888 12.9382 0 9.75586C0.106039 10.6 0.349446 11.441 0.741668 12.2496C1.95087 14.7445 4.28613 16.3272 6.84251 16.6833C8.05412 16.8514 9.31454 16.7448 10.5286 16.3285C10.5569 16.3188 10.5858 16.3086 10.6147 16.2983C10.6436 16.2881 10.672 16.2778 10.7009 16.2682C10.9467 16.1766 11.1967 16.07 11.4305 15.9567C11.6516 15.8495 11.8643 15.735 12.0703 15.6103H12.0697Z" fill="url(#paint7_linear_2108_11841)"/>
<path fill-rule="evenodd" clip-rule="evenodd" d="M20.3884 5.95226L20.3101 5.93178H20.3089C18.9316 5.57028 17.4512 5.57088 16.0245 5.99203C15.854 6.04203 15.6853 6.09807 15.5172 6.16012C15.2714 6.2517 15.028 6.35533 14.7876 6.47161C14.3333 6.69212 13.9098 6.94879 13.52 7.23858C12.0023 8.35681 10.966 9.95221 10.522 11.7079C10.8503 12.1338 11.1395 12.6002 11.3835 13.1032C11.3908 13.1189 11.3986 13.134 11.4058 13.1496C12.2011 11.1843 13.5272 9.42985 15.3015 8.12063C15.8745 7.69467 16.4969 7.31631 17.1645 6.99277C17.5175 6.82166 17.8754 6.66983 18.2369 6.53487C18.4839 6.4439 18.7321 6.36196 18.9828 6.28785C19.4497 6.15048 19.9203 6.04384 20.392 5.96672C20.3908 5.9613 20.3902 5.95648 20.389 5.95106L20.3884 5.95226Z" fill="url(#paint8_linear_2108_11841)"/>
<path fill-rule="evenodd" clip-rule="evenodd" d="M29.7409 22.9288C31.3965 21.6864 32.7865 20.0404 33.7475 18.0468H33.7493C33.9878 17.5521 34.1927 17.0497 34.3656 16.543C34.6391 17.8064 34.659 19.1313 34.3969 20.4369C34.2409 21.2039 33.9891 21.9654 33.6336 22.7041H33.6324C32.9455 24.1296 31.9502 25.3074 30.7657 26.1961C30.729 26.225 30.691 26.2539 30.6518 26.2805C30.5916 26.3244 30.5301 26.3678 30.4675 26.4106C30.1952 26.5998 29.9114 26.7745 29.6228 26.9336C27.6918 27.9939 25.4156 28.3747 23.1924 27.9385C23.3912 27.1631 23.6485 26.3931 23.9672 25.6346C23.9997 25.5569 24.0323 25.4797 24.066 25.4026C25.4933 25.146 26.8724 24.6585 28.1443 23.9603C28.5479 23.7379 28.9438 23.4939 29.3246 23.2294C29.4119 23.1698 29.4981 23.1089 29.5818 23.0475C29.636 23.0101 29.6891 22.9704 29.7403 22.9294L29.7409 22.9288Z" fill="url(#paint9_linear_2108_11841)"/>
<path d="M40.5602 5.17767C40.5602 5.17767 41.382 1.34944 43.9739 0.671632C46.3296 0.0558849 46.6881 2.79662 45.2289 3.30573C43.7702 3.81363 42.123 3.26597 40.5602 5.17767ZM38.978 5.72956C38.978 5.72956 40.5463 2.66528 39.645 0.976494C38.6472 -0.894848 36.5445 0.27218 36.7687 1.57537C36.9928 2.87856 39.2027 3.79977 38.978 5.73016V5.72956Z" fill="url(#paint10_linear_2108_11841)"/>
<path d="M44.5086 14.3881C45.2732 14.7484 46.1848 14.4225 46.5445 13.6597C46.9041 12.897 46.5764 11.986 45.8118 11.6257C45.0473 11.2648 44.1357 11.5914 43.776 12.3541C43.4163 13.1169 43.7441 14.0278 44.5086 14.3881Z" fill="white"/>
<path d="M45.3512 14.77C45.0741 14.8434 44.7743 14.829 44.4939 14.7475C44.2136 14.6659 43.9515 14.5173 43.7301 14.311C43.6247 14.21 43.5288 14.0883 43.4435 13.9717C43.3632 13.8444 43.298 13.712 43.2585 13.5791C43.2089 13.4411 43.1895 13.2919 43.1763 13.1583C43.1675 13.014 43.1744 12.8641 43.202 12.7243C43.2108 12.8685 43.224 13.0021 43.2585 13.1457C43.2873 13.2737 43.3369 13.4123 43.3814 13.5346C43.4905 13.7898 43.6404 14.0137 43.8461 14.2C44.0411 14.3812 44.277 14.5305 44.5378 14.6283C44.7881 14.7205 45.0678 14.7763 45.3519 14.77H45.3512ZM45.1537 10.9953C45.6893 10.9419 46.2474 11.1928 46.6087 11.618C46.699 11.724 46.7736 11.8363 46.8388 11.9686C46.8934 12.0965 46.948 12.2238 46.9768 12.3524C47.0452 12.6139 47.0364 12.9024 46.9699 13.1514C46.9687 12.8836 46.9367 12.6265 46.8482 12.3806C46.7705 12.1398 46.6356 11.9109 46.4713 11.719C46.3114 11.5164 46.1013 11.3665 45.8818 11.2373C45.6723 11.1132 45.4278 11.036 45.1537 10.9959V10.9953Z" fill="white"/>
<path fill-rule="evenodd" clip-rule="evenodd" d="M45.5055 12.9176C45.7676 13.0411 46.0711 12.9734 46.2574 12.7708C46.2881 12.9878 46.258 13.2161 46.1577 13.4293C45.8999 13.975 45.2722 14.2277 44.7146 14.0289C44.7861 13.9944 44.8463 13.9367 44.8827 13.8596C44.9667 13.6815 44.8902 13.4682 44.7115 13.3842C44.5328 13.3002 44.3195 13.376 44.2355 13.5548C44.2179 13.5924 44.2073 13.6313 44.2029 13.6708C43.9263 13.334 43.8504 12.8549 44.0486 12.4353C44.2926 11.9173 44.8708 11.6639 45.4057 11.8088C45.3179 11.8709 45.2452 11.9556 45.1963 12.0597C45.0445 12.382 45.1825 12.7665 45.5055 12.9188V12.9176Z" fill="#07828B"/>
<path d="M43.1681 11.8035C43.3449 11.7521 43.7695 11.6831 44.0511 11.8161" stroke="white" stroke-width="0.481994" stroke-linecap="round"/>
<path d="M44.1966 10.5741C44.1533 10.7923 44.0925 11.3141 44.1916 11.6578" stroke="white" stroke-width="0.481994" stroke-linecap="round"/>
</g>
</g>
<defs>
<linearGradient id="paint0_linear_2108_11841" x1="20.7257" y1="22.6537" x2="33.8456" y2="15.4131" gradientUnits="userSpaceOnUse">
<stop stop-color="#07828B"/>
<stop offset="1" stop-color="#5AB8DB"/>
</linearGradient>
<linearGradient id="paint1_linear_2108_11841" x1="24.16" y1="32.2936" x2="23.8615" y2="35.9326" gradientUnits="userSpaceOnUse">
<stop stop-color="#07828B"/>
<stop offset="1" stop-color="#5AB8DB"/>
</linearGradient>
<linearGradient id="paint2_linear_2108_11841" x1="23.2561" y1="35.3359" x2="24.8079" y2="33.7374" gradientUnits="userSpaceOnUse">
<stop stop-color="#07828B"/>
<stop offset="1" stop-color="#5AB8DB"/>
</linearGradient>
<linearGradient id="paint3_linear_2108_11841" x1="29.1606" y1="31.5701" x2="51.0797" y2="11.0443" gradientUnits="userSpaceOnUse">
<stop stop-color="#07828B"/>
<stop offset="1" stop-color="#5AB8DB"/>
</linearGradient>
<linearGradient id="paint4_linear_2108_11841" x1="20.7257" y1="24.5822" x2="52.5962" y2="14.4373" gradientUnits="userSpaceOnUse">
<stop stop-color="#07828B"/>
<stop offset="1" stop-color="#5AB8DB"/>
</linearGradient>
<linearGradient id="paint5_linear_2108_11841" x1="-0.000112927" y1="10.0017" x2="13.2549" y2="17.3334" gradientUnits="userSpaceOnUse">
<stop stop-color="#07828B"/>
<stop offset="1" stop-color="#5AB8DB"/>
</linearGradient>
<linearGradient id="paint6_linear_2108_11841" x1="11.9294" y1="14.5799" x2="19.8947" y2="5.79627" gradientUnits="userSpaceOnUse">
<stop stop-color="#07828B"/>
<stop offset="1" stop-color="#5AB8DB"/>
</linearGradient>
<linearGradient id="paint7_linear_2108_11841" x1="0.524592" y1="11.0222" x2="13.9605" y2="21.337" gradientUnits="userSpaceOnUse">
<stop stop-color="#5AB8DB"/>
<stop offset="1" stop-color="#07828B"/>
</linearGradient>
<linearGradient id="paint8_linear_2108_11841" x1="10.9509" y1="7.02075" x2="19.9015" y2="9.40325" gradientUnits="userSpaceOnUse">
<stop stop-color="#5AB8DB"/>
<stop offset="1" stop-color="#07828B"/>
</linearGradient>
<linearGradient id="paint9_linear_2108_11841" x1="36.0291" y1="12.7732" x2="28.4302" y2="26.3374" gradientUnits="userSpaceOnUse">
<stop stop-color="#5AB8DB"/>
<stop offset="1" stop-color="#07828B"/>
</linearGradient>
<linearGradient id="paint10_linear_2108_11841" x1="35.5471" y1="4.94044" x2="41.6228" y2="-3.04295" gradientUnits="userSpaceOnUse">
<stop stop-color="#07828B"/>
<stop offset="1" stop-color="#5AB8DB"/>
</linearGradient>
<clipPath id="clip0_2108_11841">
<rect width="51.5204" height="37.31" fill="white"/>
</clipPath>
</defs>
</svg>
