<svg width="15" height="16" viewBox="0 0 15 16" fill="none" xmlns="http://www.w3.org/2000/svg">
<path fill-rule="evenodd" clip-rule="evenodd" d="M5.25 1.82349C5.56066 1.82349 5.8125 2.06051 5.8125 2.3529V2.70584H9.1875V2.3529C9.1875 2.06051 9.43934 1.82349 9.75 1.82349C10.0607 1.82349 10.3125 2.06051 10.3125 2.3529V2.70584H12C12.8284 2.70584 13.5 3.33791 13.5 4.1176V12.2353C13.5 13.0149 12.8284 13.647 12 13.647H3C2.17157 13.647 1.5 13.0149 1.5 12.2353V4.1176C1.5 3.33791 2.17157 2.70584 3 2.70584H4.6875V2.3529C4.6875 2.06051 4.93934 1.82349 5.25 1.82349ZM9.1875 4.47055C9.1875 4.76293 9.43934 4.99996 9.75 4.99996C10.0607 4.99996 10.3125 4.76293 10.3125 4.47055V3.76466H12C12.2071 3.76466 12.375 3.92268 12.375 4.1176V5.3529H2.625V4.1176C2.625 3.92268 2.79289 3.76466 3 3.76466H4.6875V4.47055C4.6875 4.76293 4.93934 4.99996 5.25 4.99996C5.56066 4.99996 5.8125 4.76293 5.8125 4.47055V3.76466H9.1875V4.47055ZM2.625 6.41172H12.375V12.2353C12.375 12.4302 12.2071 12.5882 12 12.5882H3C2.79289 12.5882 2.625 12.4302 2.625 12.2353V6.41172Z" fill="#EBB30E"/>
<path d="M4.125 7.64709C3.91789 7.64709 3.75 7.80511 3.75 8.00004V8.35298C3.75 8.5479 3.91789 8.70592 4.125 8.70592H6.375C6.58211 8.70592 6.75 8.5479 6.75 8.35298V8.00004C6.75 7.80511 6.58211 7.64709 6.375 7.64709H4.125Z" fill="#EBB30E"/>
<path d="M4.125 10.1177C3.91789 10.1177 3.75 10.2757 3.75 10.4706V10.8236C3.75 11.0185 3.91789 11.1765 4.125 11.1765H6.375C6.58211 11.1765 6.75 11.0185 6.75 10.8236V10.4706C6.75 10.2757 6.58211 10.1177 6.375 10.1177H4.125Z" fill="#EBB30E"/>
<path d="M8.25 8.00004C8.25 7.80511 8.41789 7.64709 8.625 7.64709H10.875C11.0821 7.64709 11.25 7.80511 11.25 8.00004V8.35298C11.25 8.5479 11.0821 8.70592 10.875 8.70592H8.625C8.41789 8.70592 8.25 8.5479 8.25 8.35298V8.00004Z" fill="#EBB30E"/>
<path d="M8.625 10.1177C8.41789 10.1177 8.25 10.2757 8.25 10.4706V10.8236C8.25 11.0185 8.41789 11.1765 8.625 11.1765H10.875C11.0821 11.1765 11.25 11.0185 11.25 10.8236V10.4706C11.25 10.2757 11.0821 10.1177 10.875 10.1177H8.625Z" fill="#EBB30E"/>
</svg>
