<svg width="16" height="16" viewBox="0 0 16 16" fill="none" xmlns="http://www.w3.org/2000/svg">
<g id="Group 4961">
<circle id="Ellipse 550" cx="8" cy="8" r="7.325" stroke="#9E9E9D" stroke-width="1.35"/>
<path id="?" d="M10.5801 5.622C10.5801 6.154 10.3561 6.728 9.90814 7.344L8.83014 8.856C8.66214 9.08933 8.57814 9.34133 8.57814 9.612V10.032H7.15014V9.542C7.15014 9.038 7.30881 8.576 7.62614 8.156L8.71814 6.686C9.00747 6.30333 9.15214 5.94867 9.15214 5.622C9.15214 5.22067 9.02147 4.88933 8.76014 4.628C8.50814 4.35733 8.18147 4.222 7.78014 4.222C7.36014 4.222 7.02881 4.362 6.78614 4.642C6.54347 4.91267 6.42214 5.244 6.42214 5.636H4.99414C4.99414 4.852 5.26014 4.208 5.79214 3.704C6.32414 3.2 6.98681 2.948 7.78014 2.948C8.56414 2.948 9.22681 3.19533 9.76814 3.69C10.3095 4.17533 10.5801 4.81933 10.5801 5.622ZM8.64814 13H7.06614V11.474H8.64814V13Z" fill="#9E9E9D"/>
</g>
</svg>
