<svg width="12" height="13" viewBox="0 0 12 13" fill="none" xmlns="http://www.w3.org/2000/svg">
<g id="Component 734">
<path id="Subtract" fill-rule="evenodd" clip-rule="evenodd" d="M12 6.72656C12 10.0403 9.31371 12.7266 6 12.7266C2.68629 12.7266 0 10.0403 0 6.72656C0 3.41285 2.68629 0.726562 6 0.726562C9.31371 0.726562 12 3.41285 12 6.72656ZM6 5.97656C6.41421 5.97656 6.75 6.31235 6.75 6.72656V9.72656C6.75 10.1408 6.41421 10.4766 6 10.4766C5.58579 10.4766 5.25 10.1408 5.25 9.72656V6.72656C5.25 6.31235 5.58579 5.97656 6 5.97656ZM6.75 3.72656C6.75 3.31235 6.41421 2.97656 6 2.97656C5.58579 2.97656 5.25 3.31235 5.25 3.72656V4.22656C5.25 4.64078 5.58579 4.97656 6 4.97656C6.41421 4.97656 6.75 4.64078 6.75 4.22656V3.72656Z" fill="#9E9E9D"/>
</g>
</svg>
