<svg width="12" height="12" viewBox="0 0 12 12" fill="none" xmlns="http://www.w3.org/2000/svg">
<path fill-rule="evenodd" clip-rule="evenodd" d="M7.32387 1.16612L3.14721 5.63963C2.94997 5.85618 2.94997 6.20326 3.15301 6.41092C3.15881 6.41982 3.16461 6.42575 3.17041 6.43169C3.18045 6.44121 3.19077 6.45026 3.20134 6.4588L7.37478 10.8447C7.38348 10.8506 7.38928 10.8566 7.39508 10.8625C7.59811 11.0553 7.91426 11.0435 8.10279 10.8388C8.30002 10.6222 8.30002 10.2811 8.09699 10.0675L4.24154 6.01575L8.05479 1.93149C8.25492 1.7179 8.25492 1.37378 8.05189 1.16019C7.94747 1.05636 7.81695 1 7.68643 1C7.55881 1 7.42249 1.05636 7.32387 1.16612Z" fill=""/>
</svg>
