<svg width="72" height="72" viewBox="0 0 72 72" fill="none" xmlns="http://www.w3.org/2000/svg">
<path d="M13.6468 34.4048L3.85862 21.6802L17.6669 4.60542H53.5893L65.1898 21.7205L61.2889 33.9108L44.0292 35.3519H25.7129L13.6468 34.4048Z" fill="url(#paint0_linear_2802_27149)" stroke="url(#paint1_linear_2802_27149)" stroke-width="0.56338"/>
<path d="M21.5 16.6758L9.5 42.1758L22.8472 42.6651L27.8983 52.6758H41.368L44.7354 42.6651L59.5 40.1758L49 16.6758H21.5Z" fill="url(#paint2_linear_2802_27149)"/>
<path opacity="0.08" d="M53 5.67578L49 16.6758L53.5 26.6758L63.5 22.1758L53 5.67578Z" fill="url(#paint3_linear_2802_27149)"/>
<path opacity="0.08" d="M17.5 5.67578L21.5 16.6758L17 26.6758L7 22.1758L17.5 5.67578Z" fill="url(#paint4_linear_2802_27149)"/>
<path d="M17.2515 20.6758H5.88028C4.0134 20.6758 2.5 22.1892 2.5 24.0561V59.2955C2.5 61.1624 4.01341 62.6758 5.88028 62.6758H63.1197C64.9866 62.6758 66.5 61.1624 66.5 59.2955V24.0561C66.5 22.1892 64.9866 20.6758 63.1197 20.6758H50.4866C49.1634 20.6758 47.9619 21.4478 47.412 22.6513L44.6124 28.7788C44.0625 29.9823 42.861 30.7543 41.5378 30.7543H27.1891C26.0099 30.7543 24.9158 30.1397 24.3023 29.1326L20.1383 22.2974C19.5248 21.2903 18.4308 20.6758 17.2515 20.6758Z" fill="url(#paint5_linear_2802_27149)"/>
<path opacity="0.25" d="M8.5 43.6758C8.5 42.5712 9.39543 41.6758 10.5 41.6758H30.5C31.6046 41.6758 32.5 42.5712 32.5 43.6758C32.5 44.7804 31.6046 45.6758 30.5 45.6758H10.5C9.39543 45.6758 8.5 44.7804 8.5 43.6758Z" fill="#9E9E9D"/>
<path opacity="0.25" d="M8.5 52.6758C8.5 51.5712 9.39543 50.6758 10.5 50.6758H23.5C24.6046 50.6758 25.5 51.5712 25.5 52.6758C25.5 53.7804 24.6046 54.6758 23.5 54.6758H10.5C9.39543 54.6758 8.5 53.7804 8.5 52.6758Z" fill="#9E9E9D"/>
<circle cx="60.5" cy="56.6758" r="11" fill="white"/>
<path fill-rule="evenodd" clip-rule="evenodd" d="M51.0174 56.6754C51.0174 51.4382 55.263 47.1927 60.5002 47.1927C65.7373 47.1927 69.9829 51.4382 69.9829 56.6754C69.9829 61.9126 65.7373 66.1582 60.5002 66.1582C55.263 66.1582 51.0174 61.9126 51.0174 56.6754ZM60.5002 58.2757C59.8782 58.2757 59.3741 57.7715 59.3741 57.1496L59.3741 52.6453C59.3741 52.0234 59.8782 51.5192 60.5002 51.5192C61.1221 51.5192 61.6262 52.0234 61.6262 52.6453L61.6262 57.1496C61.6262 57.7715 61.1221 58.2757 60.5002 58.2757ZM59.3741 61.6539C59.3741 62.2758 59.8782 62.78 60.5002 62.78C61.1221 62.78 61.6262 62.2758 61.6262 61.6539L61.6262 60.9032C61.6262 60.2813 61.1221 59.7771 60.5002 59.7771C59.8782 59.7771 59.3741 60.2813 59.3741 60.9032L59.3741 61.6539Z" fill="#FFD30F"/>
<defs>
<linearGradient id="paint0_linear_2802_27149" x1="34.6901" y1="-2.67627" x2="34.6901" y2="33.3801" gradientUnits="userSpaceOnUse">
<stop stop-color="#DEDEDB"/>
<stop offset="1" stop-color="#DEDED7"/>
</linearGradient>
<linearGradient id="paint1_linear_2802_27149" x1="34.4999" y1="4.32373" x2="34.4999" y2="23.1758" gradientUnits="userSpaceOnUse">
<stop stop-color="#DEDED7"/>
<stop offset="1" stop-color="#D6D6D0"/>
</linearGradient>
<linearGradient id="paint2_linear_2802_27149" x1="34.5" y1="16.6758" x2="34.5" y2="38.1758" gradientUnits="userSpaceOnUse">
<stop stop-color="#CCCCCA"/>
<stop offset="1" stop-color="#E3E3E0"/>
</linearGradient>
<linearGradient id="paint3_linear_2802_27149" x1="50.5" y1="19.6758" x2="57.5" y2="13.6758" gradientUnits="userSpaceOnUse">
<stop/>
<stop offset="1" stop-opacity="0"/>
</linearGradient>
<linearGradient id="paint4_linear_2802_27149" x1="20" y1="19.6758" x2="13" y2="13.6758" gradientUnits="userSpaceOnUse">
<stop/>
<stop offset="1" stop-opacity="0"/>
</linearGradient>
<linearGradient id="paint5_linear_2802_27149" x1="34.5" y1="20.6758" x2="34.5" y2="62.6758" gradientUnits="userSpaceOnUse">
<stop stop-color="#F5F5F2"/>
<stop offset="1" stop-color="#EBEBE2"/>
</linearGradient>
</defs>
</svg>
