<svg width="16" height="16" viewBox="0 0 16 16" fill="none" xmlns="http://www.w3.org/2000/svg">
<path d="M8.69973 15.4275C8.81832 15.3189 8.95005 15.21 9.08464 15.0987C9.41683 14.8241 9.76645 14.5351 9.97909 14.2009C10.4211 13.5064 10.4842 12.1174 9.97909 11.8648C9.57501 11.6628 9.64236 11.1913 9.72654 10.9809C8.21123 11.0314 8.3796 8.81315 8.6532 7.69771C7.64299 8.13968 6.8222 10.3495 6.44337 11.5491C6.14031 12.5088 5.64363 12.412 5.43317 12.2436C5.49631 13.6958 6.75906 14.7691 7.01162 14.9586C7.13162 15.0486 7.19817 15.2767 7.23242 15.5C5.93622 15.3687 3.67403 14.7703 2.62451 13.1276C2.81393 13.2538 3.29377 13.5064 3.69786 13.5064C2.60347 12.4541 1.00819 9.64236 3.38217 6.81378C3.31903 7.40307 3.38217 8.59427 4.13982 8.64478C5.03716 8.7046 5.08428 7.9142 5.14046 6.97174C5.14357 6.91952 5.14671 6.86682 5.15003 6.81378C5.20054 6.00562 5.88664 4.49873 6.22337 3.8463C6.79161 4.18304 7.82707 3.98521 7.42299 0.5C8.81202 1.32079 11.5901 3.40434 11.5901 5.1722C11.5901 5.48351 11.5888 5.75473 11.5877 5.9915C11.5811 7.43539 11.5803 7.59812 11.9058 7.76085C12.2846 7.95026 12.7897 7.76085 12.7897 6.81378C13.3369 7.86608 14.2671 10.2232 13.6105 11.2334C13.3178 11.6838 12.9768 12.1181 12.6822 12.4934C12.1509 13.1703 11.7702 13.6552 12.0952 13.6958C12.326 13.7247 12.458 13.7137 12.5287 13.6911C11.8604 14.2256 10.3809 15.1286 8.69973 15.4275Z" fill="#F04E3F"/>
<path d="M12.6003 13.6327C12.6003 13.6507 12.5817 13.6742 12.5287 13.6911C12.5537 13.6711 12.5776 13.6516 12.6003 13.6327Z" fill="#F04E3F"/>
</svg>
