<?xml version="1.0" encoding="UTF-8"?><svg version="1.1" width="241px" height="72px" viewBox="0 0 241.0 72.0" xmlns="http://www.w3.org/2000/svg" xmlns:xlink="http://www.w3.org/1999/xlink"><defs><clipPath id="i0"><path d="M48.6048908,0 C63.3342127,0 75.2748828,12.0817491 75.2748828,26.9850978 C75.2748828,37.3057142 69.5478529,46.262873 61.144466,50.8077316 L61.1257502,50.8077316 C59.6472033,51.6030818 58.112509,52.2469368 56.5029516,52.7582334 C51.618132,54.5193661 46.3402809,55.4851485 40.8378405,55.4851485 C24.3305191,55.4851485 9.80707076,46.8309803 1.47854693,33.745575 C1.17909439,33.2910891 0.898357627,32.8366033 0.617620868,32.3631805 C0.411747246,31.9844423 0.205873623,31.624641 0,31.2648397 L0.205873623,31.2648397 C0.617620868,31.2648397 1.0480839,31.2459027 1.45983114,31.2269658 L1.81543104,31.2080289 L2.26614632,31.1767124 C12.009415,30.4166869 20.2932976,24.3735257 24.2930875,15.8691312 L24.4053822,15.6229514 L24.5176769,15.3767715 L24.6990744,14.9996646 C29.0586156,6.11362675 38.1219723,0 48.6048908,0 Z"></path></clipPath><linearGradient id="i1" x1="37.6374414px" y1="0px" x2="37.6374414px" y2="55.4851485px" gradientUnits="userSpaceOnUse"><stop stop-color="#006EF1" offset="0%"></stop><stop stop-color="#2896EF" offset="100%"></stop></linearGradient><clipPath id="i2"><path d="M44.3722483,0.218929706 C48.9331232,-0.364882844 53.3916925,0.218929706 57.7479562,1.97036736 L57.7479562,31.8906864 L0,31.8906864 L0,29.4760803 C1.47004379,29.2135157 6.42002648,27.5935694 9.876925,26.1275733 C13.3338235,24.6615772 16.1948674,22.2604033 18.6472389,19.8134305 C21.0996103,17.3664577 24.7119052,11.1605398 28.0779877,7.70176581 C31.4440701,4.24299184 37.530936,1.09464853 44.3722483,0.218929706 Z"></path></clipPath><linearGradient id="i3" x1="28.8739781px" y1="0px" x2="28.8739781px" y2="31.8906864px" gradientUnits="userSpaceOnUse"><stop stop-color="rgba(255, 255, 255, 0.203316)" offset="0%"></stop><stop stop-color="rgba(255, 255, 255, 0)" offset="100%"></stop></linearGradient><clipPath id="i4"><path d="M25.51458,5.16941016 C33.7118316,-0.105358509 41.956784,-1.3434213 50.2494373,1.45522179 L50.2494373,28.2246707 L0,28.2246707 L0,25.9461776 C4.55681819,24.64726 11.4643956,20.8903473 14.2068964,17.8163674 C17.9490032,12.3275645 21.8390696,7.42175915 25.51458,5.16941016 Z"></path></clipPath><linearGradient id="i5" x1="25.1247186px" y1="0px" x2="25.1247186px" y2="28.2246707px" gradientUnits="userSpaceOnUse"><stop stop-color="rgba(255, 255, 255, 0.201404)" offset="0%"></stop><stop stop-color="rgba(255, 255, 255, 0)" offset="100%"></stop></linearGradient><clipPath id="i6"><path d="M31.5122317,0.983070552 C36.5833023,-0.327690184 41.5854012,-0.327690184 46.5185282,0.983070552 L46.5185282,23.0552606 L0,23.0552606 L0,21.2832403 C6.0159642,19.9520639 11.5787424,16.5127397 15.458679,11.738174 C19.3386157,6.96360837 23.9056257,2.94921166 31.5122317,0.983070552 Z"></path></clipPath><linearGradient id="i7" x1="23.2592641px" y1="8.01844163px" x2="23.2592641px" y2="23.0552606px" gradientUnits="userSpaceOnUse"><stop stop-color="#FFFFFF" offset="0%"></stop><stop stop-color="#BBDAF1" offset="100%"></stop></linearGradient><clipPath id="i8"><path d="M7.66922206,0 C13.461307,0 18.2173122,4.46473384 18.7251822,10.161329 C16.7308626,12.0787102 14.0299711,13.2558375 11.0559171,13.2558375 C5.26383218,13.2558375 0.507826971,8.79110368 -4.30477807e-05,3.09450854 C1.99376781,1.17734903 4.69488797,0 7.66922206,0 Z"></path></clipPath><linearGradient id="i9" x1="9.36256958px" y1="0px" x2="9.36256958px" y2="13.2558375px" gradientUnits="userSpaceOnUse"><stop stop-color="#006EF1" offset="0%"></stop><stop stop-color="#2896EF" offset="100%"></stop></linearGradient><clipPath id="i10"><path d="M6.13532565,-1.95399252e-14 C10.7684039,-1.95399252e-14 14.5728289,3.57088267 14.9799336,8.12733222 C13.3855713,9.66255938 11.224438,10.60467 8.84467995,10.60467 C4.2112952,10.60467 0.40667345,7.03331496 -8.76377834e-06,2.47643366 C1.59427753,0.942178965 3.75548131,-1.95399252e-14 6.13532565,-1.95399252e-14 Z"></path></clipPath><linearGradient id="i11" x1="7.48995772px" y1="0px" x2="7.48995772px" y2="10.60467px" gradientUnits="userSpaceOnUse"><stop stop-color="#006EF1" offset="0%"></stop><stop stop-color="#2896EF" offset="100%"></stop></linearGradient><clipPath id="i12"><path d="M3.20221471,0 C4.97074906,0 6.40442942,1.44688614 6.40442942,3.23171064 C6.40442942,5.01653514 4.97074906,6.46342128 3.20221471,6.46342128 C1.43368036,6.46342128 0,5.01653514 0,3.23171064 C0,1.44688614 1.43368036,0 3.20221471,0 Z"></path></clipPath><clipPath id="i13"><path d="M0,0 C0.139226726,0.257600123 0.278453453,0.491782054 0.464089088,0.725963984 C0.626520269,0.936727721 0.835360359,1.14749146 1.02099599,1.334837 C1.43867617,1.70952809 1.90276526,1.99054641 2.43646771,2.15447376 C2.94696571,2.31840111 3.50387262,2.38865569 4.06077952,2.3418193 C4.59448197,2.29498292 5.15138888,2.15447376 5.66188688,1.89687364 C5.22100224,2.27156472 4.66409534,2.50574665 4.08398398,2.59941943 C3.50387262,2.6930922 2.9005568,2.64625581 2.32044544,2.45891027 C2.04199199,2.3652375 1.76353853,2.22472834 1.50828954,2.08421918 C1.25304054,1.92029183 1.02099599,1.73294628 0.835360359,1.52218255 C0.626520269,1.31141881 0.464089088,1.05381869 0.324862362,0.819636756 C0.185635635,0.562036633 0.0696133632,0.281018316 0,0 Z"></path></clipPath><clipPath id="i14"><path d="M3.17901025,0.329652844 C3.43425925,0.446743809 3.6663038,0.587252968 3.89834834,0.774598512 C4.10718843,0.961944056 4.31602852,1.1492896 4.4784597,1.36005334 C4.82652652,1.78158081 5.05857106,2.32019925 5.15138888,2.8353995 C4.91934433,2.34361745 4.64089088,1.89867178 4.26961961,1.52398069 C3.92155279,1.1492896 3.48066816,0.844853091 3.01657907,0.634089354 C2.55248998,0.399907423 2.04199199,0.306234651 1.53149399,0.259398265 C1.04420045,0.212561879 0.533702451,0.282816458 0,0.446743809 C0.928178176,-0.115292823 2.15801426,-0.138711016 3.17901025,0.329652844 Z"></path></clipPath><clipPath id="i15"><path d="M2.3436499,0 C3.63801199,0 4.68729979,1.0589529 4.68729979,2.3652375 C4.68729979,3.6715221 3.63801199,4.73047499 2.3436499,4.73047499 C1.0492878,4.73047499 0,3.6715221 0,2.3652375 C0,1.0589529 1.0492878,0 2.3436499,0 Z"></path></clipPath><clipPath id="i16"><path d="M1.29944945,0 C2.01711556,0 2.59889889,0.587142201 2.59889889,1.31141881 C2.59889889,2.03569542 2.01711556,2.62283762 1.29944945,2.62283762 C0.581783334,2.62283762 0,2.03569542 0,1.31141881 C0,0.587142201 0.581783334,0 1.29944945,0 Z"></path></clipPath><clipPath id="i17"><path d="M0.719338087,0 C1.11661754,0 1.43867617,0.325025147 1.43867617,0.725963984 C1.43867617,1.12690282 1.11661754,1.45192797 0.719338087,1.45192797 C0.322058631,1.45192797 0,1.12690282 0,0.725963984 C0,0.325025147 0.322058631,0 0.719338087,0 Z"></path></clipPath><clipPath id="i18"><path d="M0.411519092,8.70645687 C-1.06789489,6.57107256 1.66978356,2.72016841 4.98702626,5.21874836 C7.52076224,7.12587224 7.75586991,12.2770348 7.76824065,13.8168688 L7.76832265,14.0792974 C7.76737354,14.1946964 7.76537589,14.2574257 7.76537589,14.2574257 C6.55540844,10.6254693 1.89093308,10.8418412 0.411519092,8.70645687 Z M16.7740411,4.67524282 C14.6235527,6.80805128 11.2630969,7.21761232 10.0963426,11.9417315 C10.0963426,11.9417315 8.36019182,4.42280897 12.3688445,1.03298297 C16.0114566,-2.04774035 18.9245295,2.53985851 16.7740411,4.67524282 Z"></path></clipPath><linearGradient id="i19" x1="8.75374735px" y1="0px" x2="8.75374735px" y2="14.2574257px" gradientUnits="userSpaceOnUse"><stop stop-color="#006EF1" offset="0%"></stop><stop stop-color="#2896EF" offset="100%"></stop></linearGradient><clipPath id="i20"><path d="M6.12,0 L12.6,11.6 L12.84,11.6 L19.4,0 L25.28,0 L15.24,16.36 L15.24,27.76 L9.96,27.76 L9.96,16.44 L0,0 L6.12,0 Z"></path></clipPath><clipPath id="i21"><path d="M12.12,0 L12.12,4.08 L0,4.08 L0,0 L12.12,0 Z"></path></clipPath><clipPath id="i22"><path d="M24.08,0 C26.5066667,0 28.3066667,0.62 29.48,1.86 C30.6533333,3.1 31.24,4.97333333 31.24,7.48 L31.24,22 L26.24,22 L26.24,8.6 C26.24,7.02666667 25.9733333,5.89333333 25.44,5.2 C24.9066667,4.50666667 23.9866667,4.16 22.68,4.16 C21.4266667,4.16 20.42,4.41333333 19.66,4.92 C18.9,5.42666667 18.36,6.29333333 18.04,7.52 L18.04,22 L13.04,22 L13.04,8.6 C13.04,7.02666667 12.78,5.89333333 12.26,5.2 C11.74,4.50666667 10.84,4.16 9.56,4.16 C8.30666667,4.16 7.32,4.4 6.6,4.88 C5.88,5.36 5.34666667,6.2 5,7.4 L5,22 L0,22 L0,0.4 L5,0.4 L5,2.96 C5.58666667,1.92 6.38666667,1.16666667 7.4,0.7 C8.41333333,0.233333333 9.65333333,0 11.12,0 C12.7466667,0 14.0666667,0.266666667 15.08,0.8 C16.0933333,1.33333333 16.84,2.13333333 17.32,3.2 C18.44,1.06666667 20.6933333,0 24.08,0 Z"></path></clipPath><clipPath id="i23"><path d="M10.36,0 C13.8,0 16.1666667,0.826666667 17.46,2.48 C18.7533333,4.13333333 19.4,6.41333333 19.4,9.32 C19.4,10.4133333 19.3333333,11.36 19.2,12.16 L5.04,13.08 C5.09333333,14.8933333 5.60666667,16.2266667 6.58,17.08 C7.55333333,17.9333333 9.10666667,18.36 11.24,18.36 C12.4933333,18.36 13.7866667,18.2133333 15.12,17.92 C16.4533333,17.6266667 17.5066667,17.28 18.28,16.88 L18.28,20.96 C17.5866667,21.36 16.5133333,21.7 15.06,21.98 C13.6066667,22.26 12.04,22.4 10.36,22.4 C8.06666667,22.4 6.16666667,22.06 4.66,21.38 C3.15333333,20.7 2,19.54 1.2,17.9 C0.4,16.26 0,14.0266667 0,11.2 C0,8.37333333 0.4,6.14 1.2,4.5 C2,2.86 3.15333333,1.7 4.66,1.02 C6.16666667,0.34 8.06666667,0 10.36,0 Z M10.36,3.84 C8.41333333,3.84 7.06,4.29333333 6.3,5.2 C5.54,6.10666667 5.12,7.54666667 5.04,9.52 L14.76,8.8 C14.76,7.22666667 14.4666667,6.00666667 13.88,5.14 C13.2933333,4.27333333 12.12,3.84 10.36,3.84 Z"></path></clipPath><clipPath id="i24"><path d="M6.28,0 L10.88,7.56 L11.12,7.56 L15.72,0 L21.44,0 L14.44,10.52 L21.84,21.6 L15.96,21.6 L11.08,13.64 L10.84,13.64 L5.84,21.6 L0,21.6 L7.48,10.56 L0.48,0 L6.28,0 Z"></path></clipPath></defs><g transform="translate(0.0 16.514851485149606)"><g transform="translate(18.725117190537397 0.0)"><g clip-path="url(#i0)"><polygon points="0,0 75.2748828,0 75.2748828,55.4851485 0,55.4851485 0,0" stroke="none" fill="url(#i1)"></polygon><g transform="translate(17.52692661814323 30.723175033828824)"><g clip-path="url(#i2)"><polygon points="0,2.22044605e-16 57.7479562,2.22044605e-16 57.7479562,24.7619735 0,24.7619735 0,2.22044605e-16" stroke="none" fill="url(#i3)"></polygon></g></g><g transform="translate(25.0254455568715 34.38919064300465)"><g clip-path="url(#i4)"><polygon points="0,-2.22044605e-16 50.2494373,-2.22044605e-16 50.2494373,21.0959579 0,21.0959579 0,-2.22044605e-16" stroke="none" fill="url(#i5)"></polygon></g></g><g transform="translate(27.983465531093337 39.5586008066517)"><g clip-path="url(#i6)"><polygon points="0,1.11022302e-16 46.5185282,1.11022302e-16 46.5185282,15.9265477 0,15.9265477 0,1.11022302e-16" stroke="none" fill="url(#i7)"></polygon></g></g></g></g><g transform="translate(0.0 21.2093400466314)"><g clip-path="url(#i8)"><polygon points="-4.30477807e-05,0 18.7251822,0 18.7251822,13.2558375 -4.30477807e-05,13.2558375 -4.30477807e-05,0" stroke="none" fill="url(#i9)"></polygon></g></g><g transform="translate(30.279357743734238 18.755542196944717) rotate(104.99999999999999)"><g clip-path="url(#i10)"><polygon points="-8.76377788e-06,-1.95399252e-14 14.9799336,-1.95399252e-14 14.9799336,10.60467 -8.76377788e-06,10.60467 -8.76377788e-06,-1.95399252e-14" stroke="none" fill="url(#i11)"></polygon></g></g><g transform="translate(67.48229947947652 20.91027658379211) scale(-1.0 1.0)"><g transform="translate(0.3944757249343658 0.7511803189224238)"><g clip-path="url(#i12)"><polygon points="0,0 6.40442942,0 6.40442942,6.46342128 0,6.46342128 0,0" stroke="none" fill="#FFFFFF"></polygon></g></g><g transform="translate(0.0 5.317727960515502)"><g clip-path="url(#i13)"><polygon points="0,0 5.66188688,0 5.66188688,2.64625581 0,2.64625581 0,0" stroke="none" fill="#3035AB"></polygon></g></g><g transform="translate(2.0651964422969646 0.0)"><g clip-path="url(#i14)"><polygon points="0,5.38458167e-15 5.15138888,5.38458167e-15 5.15138888,2.8353995 0,2.8353995 0,5.38458167e-15" stroke="none" fill="#3035AB"></polygon></g></g><g transform="translate(0.8585648130892598 1.61765346117424)"><g clip-path="url(#i15)"><polygon points="0,0 4.68729979,0 4.68729979,4.73047499 0,4.73047499 0,0" stroke="none" fill="#3035AB"></polygon></g></g><g transform="translate(2.6221033480865437 0.9853622492629079)"><g clip-path="url(#i16)"><polygon points="0,0 2.59889889,0 2.59889889,2.62283762 0,2.62283762 0,0" stroke="none" fill="#FFFFFF"></polygon></g></g><g transform="translate(2.1580142599285796 5.153800609275552)"><g clip-path="url(#i17)"><polygon points="0,0 1.43867617,0 1.43867617,1.45192797 0,1.45192797 0,0" stroke="none" fill="#FFFFFF"></polygon></g></g></g></g><g transform="translate(54.05001207639567 0.0)"><g clip-path="url(#i18)"><polygon points="5.32907052e-15,1.11022302e-15 17.5074947,1.11022302e-15 17.5074947,14.2574257 5.32907052e-15,14.2574257 5.32907052e-15,1.11022302e-15" stroke="none" fill="url(#i19)"></polygon></g></g><g transform="translate(114.15999999999997 24.239999999999778)"><g clip-path="url(#i20)"><polygon points="0,0 25.28,0 25.28,27.76 0,27.76 0,0" stroke="none" fill="#1B1B1B"></polygon></g><g transform="translate(28.160000000000025 13.440000000000055)"><g clip-path="url(#i21)"><polygon points="0,0 12.12,0 12.12,4.08 0,4.08 0,0" stroke="none" fill="#1B1B1B"></polygon></g></g><g transform="translate(46.200000000000045 5.760000000000218)"><g clip-path="url(#i22)"><polygon points="0,0 31.24,0 31.24,22 0,22 0,0" stroke="none" fill="#1B1B1B"></polygon></g></g><g transform="translate(82.48000000000002 5.760000000000218)"><g clip-path="url(#i23)"><polygon points="0,0 19.4,0 19.4,22.4 0,22.4 0,0" stroke="none" fill="#1B1B1B"></polygon></g></g><g transform="translate(104.20000000000005 6.160000000000309)"><g clip-path="url(#i24)"><polygon points="0,0 21.84,0 21.84,21.6 0,21.6 0,0" stroke="none" fill="#1B1B1B"></polygon></g></g></g></svg>