<svg width="20" height="20" viewBox="0 0 20 20" fill="none" xmlns="http://www.w3.org/2000/svg">
<path fill-rule="evenodd" clip-rule="evenodd" d="M6.1538 0H0V6.1538H6.1538V0ZM4.61535 1.53845H1.53845V4.61535H4.61535V1.53845Z" fill="#141717"/>
<path d="M10.7695 7.69202H20.0002V15.3843H18.4618V9.23047H12.308V12.3074H10.7695V7.69202Z" fill="#141717"/>
<path fill-rule="evenodd" clip-rule="evenodd" d="M6.1538 20.0001V13.8463H0V20.0001H6.1538ZM4.61535 15.3848H1.53845V18.4617H4.61535V15.3848Z" fill="#141717"/>
<path d="M20.0001 16.9232H18.4617V18.4617H15.3848V20.0001H20.0001V16.9232Z" fill="#141717"/>
<path fill-rule="evenodd" clip-rule="evenodd" d="M13.8462 0.00012207H20V6.15393H13.8462V0.00012207ZM15.3846 1.53857H18.4615V4.61547H15.3846V1.53857Z" fill="#141717"/>
<path d="M0 12.3074V7.69202H6.1538V12.3074H3.0769V10.7689H4.61535V9.23047H1.53845V12.3074H0Z" fill="#141717"/>
<path d="M7.69238 6.15393V0.00012207H9.23083V4.61547H12.3077V6.15393H7.69238Z" fill="#141717"/>
<path d="M7.69238 12.308H9.23083V13.8464H15.3846V12.308H13.8462V10.7695H16.9231V16.9233H15.3846V15.3849H9.23083V16.9233H7.69238V12.308Z" fill="#141717"/>
<path d="M7.69238 18.4617V20.0001H13.8462V18.4617H12.3077V16.9232H10.7693V18.4617H7.69238Z" fill="#141717"/>
<path d="M7.69238 7.69202H9.23083V10.7689H7.69238V7.69202Z" fill="#141717"/>
<path d="M10.7695 0.00012207H12.308V3.07702H10.7695V0.00012207Z" fill="#141717"/>
</svg>
