<svg width="24" height="24" viewBox="0 0 24 24" fill="none" xmlns="http://www.w3.org/2000/svg">
<path fill-rule="evenodd" clip-rule="evenodd" d="M8.15378 2H2V8.15378H8.15378V2ZM6.61533 3.53844H3.53844V6.61533H6.61533V3.53844Z" fill="white"/>
<path d="M12.7695 9.69189H22.0002V17.3841H20.4618V11.2303H14.308V14.3072H12.7695V9.69189Z" fill="white"/>
<path fill-rule="evenodd" clip-rule="evenodd" d="M8.15378 22V15.8462H2V22H8.15378ZM6.61533 17.3846H3.53844V20.4615H6.61533V17.3846Z" fill="white"/>
<path d="M21.9999 18.9229H20.4614V20.4613H17.3845V21.9997H21.9999V18.9229Z" fill="white"/>
<path fill-rule="evenodd" clip-rule="evenodd" d="M15.8459 2H21.9997V8.15378H15.8459V2ZM17.3844 3.53844H20.4613V6.61533H17.3844V3.53844Z" fill="white"/>
<path d="M2 14.3072V9.69189H8.15378V14.3072H5.07689V12.7688H6.61533V11.2303H3.53844V14.3072H2Z" fill="white"/>
<path d="M9.69214 8.15378V2H11.2306V6.61533H14.3075V8.15378H9.69214Z" fill="white"/>
<path d="M9.69214 14.308H11.2306V15.8464H17.3844V14.308H15.8459V12.7695H18.9228V18.9233H17.3844V17.3849H11.2306V18.9233H9.69214V14.308Z" fill="white"/>
<path d="M9.69214 20.4613V21.9997H15.8459V20.4613H14.3075V18.9229H12.769V20.4613H9.69214Z" fill="white"/>
<path d="M9.69214 9.69189H11.2306V12.7688H9.69214V9.69189Z" fill="white"/>
<path d="M12.7695 2H14.308V5.07689H12.7695V2Z" fill="white"/>
</svg>
