<svg xmlns="http://www.w3.org/2000/svg" width="14" height="15" viewBox="0 0 14 15" fill="none">
  <g clip-path="url(#clip0_156_2345)">
    <path d="M7.5 7H10C10.3 7 10.5 7.2 10.5 7.5C10.5 7.8 10.3 8 10 8H7.5V10.5C7.5 10.8 7.3 11 7 11C6.7 11 6.5 10.8 6.5 10.5V8H4C3.7 8 3.5 7.8 3.5 7.5C3.5 7.2 3.7 7 4 7H6.5V4.5C6.5 4.2 6.7 4 7 4C7.3 4 7.5 4.2 7.5 4.5V7ZM7 14.5C3.15 14.5 0 11.35 0 7.5C0 3.65 3.15 0.5 7 0.5C10.85 0.5 14 3.65 14 7.5C14 11.35 10.85 14.5 7 14.5ZM7 13.5C10.3 13.5 13 10.8 13 7.5C13 4.2 10.3 1.5 7 1.5C3.7 1.5 1 4.2 1 7.5C1 10.8 3.7 13.5 7 13.5Z" fill="#07828B"/>
  </g>
  <defs>
    <clipPath id="clip0_156_2345">
      <rect width="14" height="14" fill="white" transform="translate(0 0.5)"/>
    </clipPath>
  </defs>
</svg>