<svg width="12" height="12" viewBox="0 0 12 12" fill="none" xmlns="http://www.w3.org/2000/svg">
<path d="M4 4.17539C4 4.06185 4.03864 3.9517 4.10957 3.86304L5.60957 1.98804C5.80973 1.73784 6.19027 1.73784 6.39043 1.98804L7.89043 3.86304C7.96136 3.9517 8 4.06185 8 4.17539V4.5C8 4.77614 7.77614 5 7.5 5H4.5C4.22386 5 4 4.77614 4 4.5V4.17539Z" fill="#9E9E9D"/>
<path d="M8 7.82461C8 7.93815 7.96136 8.0483 7.89043 8.13696L6.39043 10.012C6.19027 10.2622 5.80973 10.2622 5.60957 10.012L4.10957 8.13696C4.03864 8.0483 4 7.93814 4 7.82461L4 7.5C4 7.22386 4.22386 7 4.5 7L7.5 7C7.77614 7 8 7.22386 8 7.5L8 7.82461Z" fill="#9E9E9D"/>
</svg>
