<svg xmlns="http://www.w3.org/2000/svg" width="16" height="16" viewBox="0 0 16 16" fill="none">
  <g clip-path="url(#clip0_158_2259)">
    <path fill-rule="evenodd" clip-rule="evenodd" d="M15.36 4.7215C14.9475 3.79227 14.3554 2.95378 13.6176 2.25432C12.8763 1.54872 12.0075 0.990542 11.0576 0.609529C10.0675 0.212095 9.01011 0.00919602 7.94323 0.0119326C5.84645 -0.00338485 3.82737 0.80465 2.32007 2.26232C1.58179 2.97725 0.995688 3.83408 0.597001 4.7813C0.198315 5.72853 -0.004726 6.74658 8.34847e-05 7.77428C-0.000859838 8.82859 0.209692 9.87237 0.619279 10.8439C1.01673 11.7868 1.59138 12.6447 2.31207 13.371C3.04832 14.1156 3.9252 14.7065 4.89176 15.1093C5.85832 15.5121 6.8953 15.7188 7.94243 15.7174C9.01426 15.7179 10.0753 15.503 11.0624 15.0854C12.0172 14.6838 12.8862 14.1029 13.6224 13.3742C14.3594 12.652 14.9495 11.7938 15.36 10.8471C15.7826 9.87637 16.0004 8.82897 16 7.77028C16.0025 6.72041 15.7845 5.68172 15.36 4.7215ZM7.94243 14.4646C6.16855 14.4627 4.46786 13.7573 3.21346 12.503C1.95906 11.2488 1.25339 9.54816 1.25128 7.77428C1.25431 6.90502 1.43086 6.04512 1.77057 5.24498C2.11029 4.44485 2.60632 3.72059 3.22961 3.11467C3.85289 2.50875 4.59087 2.03336 5.40028 1.71638C6.20969 1.3994 7.07423 1.24721 7.94323 1.26872C9.70669 1.23308 11.4124 1.89768 12.6869 3.117C13.9614 4.33631 14.7008 6.01097 14.7432 7.77428C14.7053 9.55586 13.9731 11.2522 12.7028 12.5019C11.4325 13.7516 9.72439 14.4559 7.94243 14.4646ZM11.031 6.27559H6.39906L6.93585 5.78359C7.03478 5.69181 7.09348 5.56468 7.09917 5.42985C7.10486 5.29502 7.0571 5.16339 6.96625 5.06359L6.93905 5.03319C6.84727 4.93426 6.72014 4.87557 6.58531 4.86988C6.45048 4.86418 6.31885 4.91195 6.21906 5.00279L4.65987 6.43238C4.56094 6.52417 4.50224 6.6513 4.49655 6.78613C4.49086 6.92096 4.53863 7.05258 4.62947 7.15238L4.65667 7.18278C4.71516 7.24657 4.78874 7.29465 4.87065 7.32261C4.95256 7.35056 5.04018 7.3575 5.12546 7.34278H11.0334C11.169 7.34215 11.2989 7.288 11.3948 7.19212C11.4906 7.09624 11.5448 6.96638 11.5454 6.83078V6.78998C11.5454 6.72243 11.5321 6.65554 11.5063 6.59313C11.4804 6.53072 11.4425 6.47402 11.3948 6.42625C11.347 6.37848 11.2903 6.34059 11.2279 6.31474C11.1655 6.28889 11.0986 6.27559 11.031 6.27559ZM11.1296 8.22301C11.2115 8.25097 11.2851 8.29905 11.3436 8.36284L11.3684 8.39084C11.4592 8.49063 11.507 8.62226 11.5013 8.75709C11.4956 8.89192 11.4369 9.01905 11.338 9.11083L9.77876 10.5404C9.67897 10.6313 9.54734 10.679 9.41251 10.6733C9.27768 10.6677 9.15055 10.609 9.05877 10.51L9.03157 10.4796C8.94073 10.3798 8.89296 10.2482 8.89865 10.1134C8.90434 9.97854 8.96304 9.85141 9.06197 9.75963L9.59876 9.26763H4.9668C4.8312 9.267 4.70134 9.21286 4.60546 9.11698C4.50957 9.02109 4.45543 8.89123 4.4548 8.75564V8.71484C4.45543 8.57924 4.50957 8.44938 4.60546 8.3535C4.70134 8.25762 4.8312 8.20347 4.9668 8.20284H10.8748C10.96 8.18812 11.0477 8.19506 11.1296 8.22301Z" fill="#07828B"/>
  </g>
  <defs>
    <clipPath id="clip0_158_2259">
      <rect width="16" height="16" fill="white"/>
    </clipPath>
  </defs>
</svg>