<svg width="80" height="80" viewBox="0 0 80 80" fill="none" xmlns="http://www.w3.org/2000/svg">
<rect width="80" height="80" rx="12" fill="#F9F9F9"/>
<g clip-path="url(#clip0_1848_2328)">
<path d="M40.8571 39.1429H45.1429C45.6571 39.1429 46 39.4857 46 40C46 40.5143 45.6571 40.8571 45.1429 40.8571H40.8571V45.1429C40.8571 45.6571 40.5143 46 40 46C39.4857 46 39.1429 45.6571 39.1429 45.1429V40.8571H34.8571C34.3429 40.8571 34 40.5143 34 40C34 39.4857 34.3429 39.1429 34.8571 39.1429H39.1429V34.8571C39.1429 34.3429 39.4857 34 40 34C40.5143 34 40.8571 34.3429 40.8571 34.8571V39.1429ZM40 52C33.4 52 28 46.6 28 40C28 33.4 33.4 28 40 28C46.6 28 52 33.4 52 40C52 46.6 46.6 52 40 52ZM40 50.2857C45.6571 50.2857 50.2857 45.6571 50.2857 40C50.2857 34.3429 45.6571 29.7143 40 29.7143C34.3429 29.7143 29.7143 34.3429 29.7143 40C29.7143 45.6571 34.3429 50.2857 40 50.2857Z" fill="#9FA1A6"/>
</g>
<defs>
<clipPath id="clip0_1848_2328">
<rect width="24" height="24" fill="white" transform="translate(28 28)"/>
</clipPath>
</defs>
</svg>
