<svg width="90" height="90" viewBox="0 0 90 90" fill="none" xmlns="http://www.w3.org/2000/svg">
<circle opacity="0.2" cx="45" cy="45" r="45" fill="#FFD30F"/>
<circle cx="45" cy="45" r="25" fill="white"/>
<path fill-rule="evenodd" clip-rule="evenodd" d="M12 45C12 26.7746 26.7746 11.9999 45 11.9999C63.2254 11.9999 78 26.7746 78 45C78 63.2254 63.2254 78 45 78C26.7746 78 12 63.2254 12 45ZM45 50.5688C42.8357 50.5688 41.0813 48.8143 41.0813 46.65L41.0813 30.975C41.0813 28.8107 42.8357 27.0562 45 27.0562C47.1643 27.0562 48.9188 28.8107 48.9188 30.975L48.9188 46.65C48.9188 48.8143 47.1643 50.5688 45 50.5688ZM41.0813 62.325C41.0813 64.4893 42.8357 66.2438 45 66.2438C47.1643 66.2438 48.9188 64.4893 48.9188 62.325L48.9188 59.7125C48.9188 57.5482 47.1643 55.7937 45 55.7937C42.8357 55.7937 41.0813 57.5482 41.0813 59.7125L41.0813 62.325Z" fill="#FFD30F"/>
</svg>
