<svg width="14" height="15" viewBox="0 0 14 15" fill="none" xmlns="http://www.w3.org/2000/svg">
<path d="M4.8125 1.8125H3.0625C2.096 1.8125 1.3125 2.596 1.3125 3.5625V5.3125" stroke="#FFD30F" stroke-linecap="round"/>
<path d="M12.6875 5.3125L12.6875 3.5625C12.6875 2.596 11.904 1.8125 10.9375 1.8125L9.1875 1.8125" stroke="#FFD30F" stroke-linecap="round"/>
<path d="M9.1875 13.1875L10.9375 13.1875C11.904 13.1875 12.6875 12.404 12.6875 11.4375L12.6875 9.6875" stroke="#FFD30F" stroke-linecap="round"/>
<path d="M1.3125 9.6875L1.3125 11.4375C1.3125 12.404 2.096 13.1875 3.0625 13.1875L4.8125 13.1875" stroke="#FFD30F" stroke-linecap="round"/>
<path d="M11.3125 7.5C11.3125 9.88173 9.38173 11.8125 7 11.8125C4.61827 11.8125 2.6875 9.88173 2.6875 7.5C2.6875 5.11827 4.61827 3.1875 7 3.1875C9.38173 3.1875 11.3125 5.11827 11.3125 7.5Z" stroke="#FFD30F"/>
<circle cx="5.25" cy="7.5" r="0.875" fill="#FFD30F"/>
<circle cx="8.75" cy="7.5" r="0.875" fill="#FFD30F"/>
</svg>
