<svg width="24" height="24" viewBox="0 0 24 24" fill="none" xmlns="http://www.w3.org/2000/svg">
<rect x="3.59998" y="1.20001" width="16.8" height="19.2" rx="2.4" fill="#F04E3F"/>
<path fill-rule="evenodd" clip-rule="evenodd" d="M20.4 5.09979C20.2816 5.09974 20.1612 5.12319 20.0454 5.17279L12 8.62085L3.9545 5.17279C3.83876 5.12319 3.71839 5.09974 3.59998 5.09979V6.97919L11.6454 10.4273L12 10.5792L12.3545 10.4273L20.4 6.97919V5.09979Z" fill="#FFD30F"/>
<circle cx="12" cy="9.60001" r="2.4" fill="#FFD30F"/>
<rect x="2.39996" y="14.4" width="19.2" height="8.4" rx="4.2" fill="#43BC9C"/>
<path d="M11.556 18.7473C11.556 19.6125 11.4048 20.1333 10.9848 20.5701C10.506 21.0657 9.93478 21.2505 9.29638 21.2505C8.64118 21.2505 8.10358 21.0153 7.68358 20.5953C7.07878 19.9905 7.09558 19.2429 7.09558 18.2097C7.09558 17.1765 7.07878 16.4289 7.68358 15.8241C8.10358 15.4041 8.62438 15.1689 9.29638 15.1689C10.6824 15.1689 11.388 16.0761 11.5476 17.0841H10.3716C10.2372 16.5213 9.89278 16.2105 9.29638 16.2105C8.97718 16.2105 8.71678 16.3365 8.54878 16.5297C8.32198 16.7817 8.26318 17.0589 8.26318 18.2097C8.26318 19.3605 8.32198 19.6461 8.54878 19.8981C8.71678 20.0913 8.97718 20.2089 9.29638 20.2089C9.64918 20.2089 9.93478 20.0829 10.128 19.8729C10.3212 19.6545 10.3968 19.3857 10.3968 19.0749V18.8481H9.29638V17.8737H11.556V18.7473ZM16.9609 18.2097C16.9609 19.2429 16.9693 19.9905 16.3645 20.5953C15.9445 21.0153 15.4321 21.2505 14.7517 21.2505C14.0713 21.2505 13.5505 21.0153 13.1305 20.5953C12.5257 19.9905 12.5425 19.2429 12.5425 18.2097C12.5425 17.1765 12.5257 16.4289 13.1305 15.8241C13.5505 15.4041 14.0713 15.1689 14.7517 15.1689C15.4321 15.1689 15.9445 15.4041 16.3645 15.8241C16.9693 16.4289 16.9609 17.1765 16.9609 18.2097ZM15.7933 18.2097C15.7933 17.0589 15.7261 16.7817 15.4993 16.5297C15.3313 16.3365 15.0709 16.2105 14.7517 16.2105C14.4325 16.2105 14.1637 16.3365 13.9957 16.5297C13.7689 16.7817 13.7101 17.0589 13.7101 18.2097C13.7101 19.3605 13.7689 19.6377 13.9957 19.8897C14.1637 20.0829 14.4325 20.2089 14.7517 20.2089C15.0709 20.2089 15.3313 20.0829 15.4993 19.8897C15.7261 19.6377 15.7933 19.3605 15.7933 18.2097Z" fill="white"/>
</svg>
