<svg width="24" height="24" viewBox="0 0 24 24" fill="none" xmlns="http://www.w3.org/2000/svg">
<path fill-rule="evenodd" clip-rule="evenodd" d="M13.2 1.89289C12.4574 1.46417 11.5425 1.46417 10.8 1.89289L3.84691 5.90725C3.10435 6.33597 2.64691 7.12827 2.64691 7.98571V16.0144C2.64691 16.8719 3.10435 17.6642 3.84691 18.0929L10.8 22.1072C11.5425 22.536 12.4574 22.536 13.2 22.1072L20.1531 18.0929C20.8956 17.6642 21.3531 16.8719 21.3531 16.0144V7.98571C21.3531 7.12827 20.8956 6.33597 20.1531 5.90725L13.2 1.89289ZM16.8364 8.43646C17.1879 8.08499 17.1879 7.51514 16.8364 7.16367C16.4849 6.8122 15.9151 6.8122 15.5636 7.16367L7.16359 15.5637C6.81212 15.9151 6.81212 16.485 7.16359 16.8365C7.51506 17.1879 8.08491 17.1879 8.43638 16.8365L16.8364 8.43646ZM10.2 8.70007C10.2 9.5285 9.52841 10.2001 8.69999 10.2001C7.87156 10.2001 7.19999 9.5285 7.19999 8.70007C7.19999 7.87164 7.87156 7.20007 8.69999 7.20007C9.52841 7.20007 10.2 7.87164 10.2 8.70007ZM15.3 16.8001C16.1284 16.8001 16.8 16.1285 16.8 15.3001C16.8 14.4716 16.1284 13.8001 15.3 13.8001C14.4716 13.8001 13.8 14.4716 13.8 15.3001C13.8 16.1285 14.4716 16.8001 15.3 16.8001Z" fill="#C5C5C4"/>
</svg>
