<svg width="20" height="20" viewBox="0 0 20 20" fill="none" xmlns="http://www.w3.org/2000/svg">
<path fill-rule="evenodd" clip-rule="evenodd" d="M17.6942 7.38443C18.1259 7.38443 18.463 7.7398 18.5669 8.28934C18.5744 8.32801 18.75 9.25797 18.75 10.0037C18.75 10.7483 18.5744 11.678 18.5669 11.7163C18.463 12.2662 18.1253 12.6219 17.7066 12.6219H17.6194C16.4528 12.6219 15.504 13.5707 15.504 14.7373C15.504 15.1032 15.6744 15.5109 15.6883 15.5441L15.6889 15.5457C15.9035 16.0284 15.7377 16.621 15.3023 16.9253L15.2696 16.9463L13.0428 18.1735C12.9018 18.2341 12.7478 18.2663 12.5851 18.2663C12.2369 18.2663 11.8967 18.1203 11.6753 17.8778C11.4353 17.6131 10.6021 16.8597 9.95515 16.8597C9.3583 16.8597 8.54552 17.5327 8.24556 17.8568C7.92082 18.2118 7.32024 18.3393 6.87613 18.1438L6.84335 18.1289L4.69583 16.924C4.26164 16.621 4.0971 16.0284 4.31172 15.5432L4.31175 15.5431C4.31905 15.5258 4.49604 15.1078 4.49604 14.7372C4.49604 13.5707 3.54721 12.6219 2.38069 12.6219H2.30583C1.87411 12.6219 1.53701 12.2662 1.4331 11.7163C1.42536 11.678 1.25 10.7483 1.25 10.0036C1.25 9.25799 1.42536 8.32803 1.4331 8.28936C1.53701 7.7398 1.87411 7.38446 2.29225 7.38446H2.38069C3.54721 7.38446 4.49604 6.43565 4.49604 5.26878C4.49604 4.90025 4.32326 4.48956 4.3115 4.4616L4.31111 4.46067C4.09708 3.97822 4.26284 3.38475 4.69829 3.08136L4.73232 3.0597L6.99921 1.81769C7.44208 1.62812 8.03526 1.75676 8.36122 2.09942C8.59872 2.34776 9.41516 3.05661 10.0449 3.05661C10.6665 3.05661 11.4811 2.3617 11.7174 2.11798C12.0439 1.7778 12.6433 1.65625 13.0812 1.84616L13.1134 1.8619L15.3023 3.08071C15.7377 3.38532 15.9029 3.97881 15.6877 4.46311L15.687 4.46473C15.6734 4.49775 15.504 4.90801 15.504 5.26875C15.504 6.43563 16.4528 7.38443 17.6193 7.38443H17.6942ZM6.84894 9.99151C6.84894 8.27509 8.24556 6.87845 9.96198 6.87845C11.6784 6.87845 13.075 8.27509 13.075 9.99151C13.075 11.7082 11.6784 13.1043 9.96198 13.1043C8.24558 13.1043 6.84894 11.7082 6.84894 9.99151Z" fill="#737473"/>
</svg>
