<svg width="21" height="20" viewBox="0 0 21 20" fill="none" xmlns="http://www.w3.org/2000/svg">
<path fill-rule="evenodd" clip-rule="evenodd" d="M18.4286 7.3844C18.8603 7.3844 19.1973 7.73977 19.3013 8.28931C19.3087 8.32798 19.4844 9.25794 19.4844 10.0036C19.4844 10.7483 19.3087 11.6779 19.3013 11.7163C19.1974 12.2662 18.8597 12.6219 18.441 12.6219H18.3537C17.1872 12.6219 16.2384 13.5707 16.2384 14.7372C16.2384 15.1032 16.4088 15.5108 16.4227 15.5441L16.4233 15.5456C16.6379 16.0284 16.4721 16.6209 16.0367 16.9252L16.0039 16.9463L13.7772 18.1735C13.6362 18.234 13.4822 18.2663 13.3195 18.2663C12.9713 18.2663 12.6311 18.1202 12.4097 17.8778C12.1697 17.613 11.3365 16.8597 10.6895 16.8597C10.0927 16.8597 9.2799 17.5327 8.97993 17.8568C8.65519 18.2118 8.05462 18.3392 7.61051 18.1438L7.57772 18.1289L5.4302 16.924C4.99602 16.6209 4.83148 16.0284 5.04609 15.5431L5.04612 15.5431C5.05343 15.5258 5.23042 15.1078 5.23042 14.7372C5.23042 13.5707 4.28159 12.6218 3.11506 12.6218H3.04021C2.60849 12.6218 2.27138 12.2662 2.16748 11.7163C2.15973 11.6779 1.98438 10.7483 1.98438 10.0036C1.98438 9.25796 2.15973 8.328 2.16748 8.28933C2.27138 7.73977 2.60849 7.38443 3.02662 7.38443H3.11506C4.28159 7.38443 5.23042 6.43562 5.23042 5.26875C5.23042 4.90022 5.05764 4.48953 5.04587 4.46157L5.04548 4.46064C4.83145 3.97819 4.99722 3.38472 5.43267 3.08133L5.46669 3.05967L7.73358 1.81766C8.17645 1.62809 8.76964 1.75672 9.0956 2.09939C9.33309 2.34773 10.1495 3.05658 10.7792 3.05658C11.4008 3.05658 12.2155 2.36167 12.4518 2.11795C12.7783 1.77777 13.3777 1.65622 13.8156 1.84613L13.8478 1.86187L16.0367 3.08068C16.4721 3.38528 16.6373 3.97878 16.422 4.46308L16.4214 4.4647C16.4077 4.49772 16.2383 4.90797 16.2383 5.26872C16.2383 6.4356 17.1872 7.3844 18.3537 7.3844H18.4286ZM7.58331 9.99148C7.58331 8.27506 8.97994 6.87842 10.6964 6.87842C12.4128 6.87842 13.8094 8.27506 13.8094 9.99148C13.8094 11.7082 12.4128 13.1042 10.6964 13.1042C8.97996 13.1042 7.58331 11.7082 7.58331 9.99148Z" fill="#FFD30F"/>
</svg>
