<svg width="20" height="20" viewBox="0 0 20 20" fill="none" xmlns="http://www.w3.org/2000/svg">
<g id="WEB/&#233;&#128;&#154;&#231;&#148;&#168;/&#232;&#180;&#166;&#230;&#136;&#183;&#230;&#128;&#187;&#232;&#167;&#136;/&#232;&#174;&#190;&#231;&#189;&#174;-&#230;&#156;&#170;&#230;&#191;&#128;&#230;&#180;&#187;icon">
<path id="Vector" d="M16.4728 7.32446C15.0255 7.32446 14.4338 6.30097 15.1534 5.0456C15.5692 4.31796 15.3213 3.39043 14.5937 2.97463L13.2104 2.18303C12.5787 1.80722 11.7631 2.03111 11.3873 2.66279L11.2993 2.81471C10.5797 4.07009 9.3963 4.07009 8.66867 2.81471L8.58071 2.66279C8.22089 2.03111 7.4053 1.80722 6.77361 2.18303L5.3903 2.97463C4.66267 3.39043 4.41479 4.32596 4.83058 5.05359C5.55822 6.30097 4.96652 7.32446 3.51924 7.32446C2.68766 7.32446 2 8.00412 2 8.8437V10.251C2 11.0826 2.67966 11.7702 3.51924 11.7702C4.96652 11.7702 5.55822 12.7937 4.83058 14.0491C4.41479 14.7767 4.66267 15.7043 5.3903 16.1201L6.77361 16.9117C7.4053 17.2875 8.22089 17.0636 8.5967 16.4319L8.68466 16.28C9.4043 15.0246 10.5877 15.0246 11.3153 16.28L11.4033 16.4319C11.7791 17.0636 12.5947 17.2875 13.2264 16.9117L14.6097 16.1201C15.3373 15.7043 15.5852 14.7687 15.1694 14.0491C14.4418 12.7937 15.0335 11.7702 16.4808 11.7702C17.3123 11.7702 18 11.0906 18 10.251V8.8437C17.992 8.01211 17.3123 7.32446 16.4728 7.32446ZM9.996 12.146C8.56472 12.146 7.3973 10.9786 7.3973 9.54735C7.3973 8.11606 8.56472 6.94865 9.996 6.94865C11.4273 6.94865 12.5947 8.11606 12.5947 9.54735C12.5947 10.9786 11.4273 12.146 9.996 12.146Z" fill="#9FA1A6"/>
</g>
</svg>
