<svg width="24" height="24" viewBox="0 0 24 24" fill="none" xmlns="http://www.w3.org/2000/svg">
<path d="M12 4C12.1687 4 12.3364 4.00492 12.5037 4.01566C12.64 4.02407 12.7722 4.06549 12.8889 4.13635C13.0056 4.2072 13.1033 4.30537 13.1736 4.4224C13.2439 4.53942 13.2847 4.67178 13.2925 4.80808C13.3002 4.94438 13.2748 5.08053 13.2182 5.20479C12.9696 5.75201 12.8414 6.34626 12.8424 6.94732C12.8424 8.06399 13.286 9.13494 14.0755 9.92459C14.8651 10.7142 15.936 11.1579 17.0527 11.158C17.6536 11.1591 18.2477 11.0309 18.7948 10.7822C18.9187 10.7259 19.0545 10.7004 19.1904 10.708C19.3264 10.7156 19.4584 10.7561 19.5753 10.8259C19.6922 10.8958 19.7904 10.9929 19.8614 11.1091C19.9325 11.2252 19.9744 11.3568 19.9834 11.4927C19.9946 11.6591 20 11.8282 20 12C20 16.4183 16.4183 20 12 20C7.5817 20 4 16.4183 4 12C4 7.5817 7.5817 4 12 4ZM5.68393 12C5.68393 15.4882 8.5118 18.3161 12 18.3161C15.2466 18.3161 17.921 15.8667 18.2758 12.7149C17.8776 12.799 17.4678 12.842 17.0527 12.842C13.7971 12.842 11.158 10.2029 11.158 6.94732C11.158 6.53216 11.201 6.1228 11.2851 5.72419C8.13332 6.07896 5.68393 8.75338 5.68393 12Z" fill=""/>
</svg>
