<svg width="24" height="24" viewBox="0 0 24 24" fill="none" xmlns="http://www.w3.org/2000/svg">
<rect x="2.39999" y="2.39999" width="8.4" height="8.4" rx="2.4" fill="#C5C5C4"/>
<rect x="2.39999" y="13.2" width="8.4" height="8.4" rx="2.4" fill="#C5C5C4"/>
<path d="M12.6 4.2C12.6 3.53726 13.1373 3 13.8 3H20.4C21.0627 3 21.6 3.53726 21.6 4.2C21.6 4.86274 21.0627 5.4 20.4 5.4H13.8C13.1373 5.4 12.6 4.86274 12.6 4.2Z" fill="#C5C5C4"/>
<path d="M12.6 15C12.6 14.3372 13.1373 13.8 13.8 13.8H20.4C21.0627 13.8 21.6 14.3372 21.6 15C21.6 15.6627 21.0627 16.2 20.4 16.2H13.8C13.1373 16.2 12.6 15.6627 12.6 15Z" fill="#C5C5C4"/>
<path d="M12.6 8.99999C12.6 8.33725 13.1373 7.79999 13.8 7.79999H20.4C21.0627 7.79999 21.6 8.33725 21.6 8.99999C21.6 9.66273 21.0627 10.2 20.4 10.2H13.8C13.1373 10.2 12.6 9.66273 12.6 8.99999Z" fill="#C5C5C4"/>
<path d="M12.6 19.8C12.6 19.1373 13.1373 18.6 13.8 18.6H20.4C21.0627 18.6 21.6 19.1373 21.6 19.8C21.6 20.4627 21.0627 21 20.4 21H13.8C13.1373 21 12.6 20.4627 12.6 19.8Z" fill="#C5C5C4"/>
</svg>
