<svg width="24" height="24" viewBox="0 0 24 24" fill="none" xmlns="http://www.w3.org/2000/svg">
<path fill-rule="evenodd" clip-rule="evenodd" d="M18.4621 9.75744C18.2987 8.30136 17.6528 6.95375 16.6056 5.90238C15.3787 4.6755 13.7484 4 12.0155 4C10.2826 4 8.65233 4.6755 7.42545 5.90238C6.37489 6.95294 5.72862 8.29928 5.56456 9.75257C3.5409 10.1189 2 11.8933 2 14.0227C2 16.4144 3.94534 18.3621 6.33943 18.3621C6.8001 18.3621 7.17485 17.9874 7.17485 17.5267C7.17485 17.066 6.8001 16.6913 6.33943 16.6913C4.86908 16.6913 3.67085 15.493 3.67085 14.0227C3.67085 12.5524 4.86669 11.3541 6.33943 11.3541C6.62307 11.3541 6.87414 11.212 7.02522 10.9953C7.13107 10.8553 7.19392 10.6811 7.19392 10.4924C7.19392 7.83578 9.35408 5.67323 12.0131 5.67323C14.6429 5.67323 16.7885 7.79222 16.8317 10.4142C16.8274 10.4485 16.8252 10.4833 16.8252 10.5187C16.8252 10.9794 17.1999 11.3541 17.6606 11.3541C19.1309 11.3541 20.3292 12.5524 20.3292 14.0227C20.3292 15.493 19.1333 16.6913 17.6606 16.6913C17.1999 16.6913 16.8252 17.066 16.8252 17.5267C16.8252 17.9874 17.1999 18.3621 17.6606 18.3621C20.0523 18.3621 22 16.4144 22 14.0227C22 11.9045 20.4741 10.1346 18.4621 9.75744ZM11.5781 20.0418C11.7107 20.1237 11.8613 20.1643 12.0131 20.1643H12.0131C12.2508 20.1643 12.4656 20.0651 12.6179 19.9056L14.9395 17.584C15.2665 17.257 15.2665 16.7295 14.9395 16.4025C14.6125 16.0755 14.085 16.0755 13.758 16.4025L12.8486 17.3131V13.1586C12.8486 12.698 12.4738 12.3232 12.0131 12.3232C11.5525 12.3232 11.1777 12.698 11.1777 13.1586V17.3095L10.2707 16.4025C9.94365 16.0755 9.41614 16.0755 9.08914 16.4025C8.76213 16.7295 8.76213 17.257 9.08914 17.584L11.3911 19.886C11.4454 19.9465 11.5084 19.9992 11.5781 20.0418Z" fill="#2B2F33"/>
</svg>
