<svg width="20" height="20" viewBox="0 0 20 20" fill="none" xmlns="http://www.w3.org/2000/svg">
<path d="M7.81543 9.30663H12.1851C12.0885 5.21314 11.1467 2 10.0003 2C8.85385 2 7.912 5.21572 7.81543 9.30663Z" fill="#FFD30F"/>
<path d="M12.8944 3.97793C13.2942 5.43657 13.533 7.30797 13.5782 9.30558H17.9998C17.8594 7.70539 17.239 6.18428 16.2194 4.93998C15.1997 3.69568 13.8279 2.78573 12.2822 2.32843C12.5407 2.85667 12.7458 3.40923 12.8944 3.97793Z" fill="#FFD30F"/>
<path d="M12.1851 10.6939H7.81543C7.912 14.7874 8.85385 18.0005 10.0003 18.0005C11.1467 18.0005 12.0885 14.7874 12.1851 10.6939Z" fill="#FFD30F"/>
<path d="M13.5782 10.6939C13.533 12.6926 13.2942 14.564 12.8944 16.0216C12.7458 16.5903 12.5407 17.1428 12.2822 17.6711C13.8279 17.2138 15.1997 16.3038 16.2194 15.0595C17.239 13.8152 17.8594 12.2941 17.9998 10.6939H13.5782Z" fill="#FFD30F"/>
<path d="M6.42212 9.30661C6.46677 7.30797 6.70561 5.43657 7.1054 3.97897C7.25417 3.41024 7.4594 2.85768 7.71807 2.32947C6.17235 2.78675 4.80045 3.69667 3.78069 4.94097C2.76094 6.18526 2.14049 7.70638 2 9.30661H6.42212Z" fill="#FFD30F"/>
<path d="M7.108 16.0226C6.7082 14.564 6.46937 12.6926 6.42472 10.6949H2C2.14049 12.2952 2.76094 13.8163 3.78069 15.0606C4.80045 16.3049 6.17235 17.2148 7.71807 17.6721C7.46029 17.1438 7.25593 16.5912 7.108 16.0226Z" fill="#FFD30F"/>
</svg>
