<svg width="24" height="24" viewBox="0 0 24 24" fill="none" xmlns="http://www.w3.org/2000/svg">
<path d="M12 3C7.03335 3 3 7.03335 3 12C3 16.9667 7.03335 21 12 21C16.9667 21 21 16.9667 21 12C21 7.03335 16.9667 3 12 3ZM19.6334 11.3335H17.3001C17.2002 8.86665 16.5333 6.6999 15.5001 5.20005C16.653 5.78758 17.6373 6.65889 18.3604 7.73194C19.0835 8.80498 19.5216 10.0444 19.6334 11.3335ZM11.3335 4.43325V11.334H8.03325C8.16645 7.9005 9.56685 5.034 11.3335 4.4337V4.43325ZM11.3335 12.6664V19.5667C9.56685 18.9664 8.16645 16.0999 8.03325 12.6664H11.3335ZM12.6664 19.5667V12.666H15.9668C15.8336 16.0995 14.4331 18.966 12.6664 19.5663V19.5667ZM12.6664 11.3335V4.43325C14.4331 5.03355 15.8336 7.90005 15.9668 11.3335H12.666H12.6664ZM8.4666 5.20005C7.4334 6.6999 6.7665 8.86665 6.6666 11.3335H4.33335C4.6002 8.66685 6.19995 6.36645 8.4666 5.20005ZM4.36665 12.666H6.6999C6.7998 15.1329 7.4667 17.2996 8.4999 18.7995C7.34703 18.212 6.36268 17.3407 5.63957 16.2676C4.91647 15.1946 4.47841 13.9551 4.36665 12.666ZM15.5334 18.7995C16.5666 17.2996 17.2335 15.1329 17.3334 12.666H19.6667C19.3998 15.3327 17.8001 17.6331 15.5334 18.7995Z" fill=""/>
</svg>
