<svg width="24" height="24" viewBox="0 0 24 24" fill="none" xmlns="http://www.w3.org/2000/svg">
<path fill-rule="evenodd" clip-rule="evenodd" d="M6.12846 7.01391C6.04627 6.97986 5.97164 6.92987 5.90887 6.86681L5.18475 6.14231C5.05804 6.01519 4.98688 5.84302 4.98688 5.66353C4.98688 5.48404 5.05804 5.31187 5.18475 5.18475C5.31263 5.05669 5.48269 4.98637 5.66344 4.98637C5.75236 4.98617 5.84044 5.00358 5.9226 5.0376C6.00476 5.07161 6.07937 5.12156 6.14212 5.18456L6.86681 5.9085C6.99469 6.03675 7.06519 6.20681 7.06519 6.38756C7.06537 6.47655 7.04794 6.5647 7.01389 6.64692C6.97985 6.72915 6.92986 6.80382 6.86681 6.86663C6.73838 6.99469 6.56831 7.06519 6.38775 7.06519C6.29878 7.06539 6.21066 7.04796 6.12846 7.01391ZM3.11475 11.3229H4.1385C4.31802 11.3231 4.49014 11.3945 4.6171 11.5215C4.74406 11.6484 4.8155 11.8205 4.81575 12C4.8155 12.1795 4.74406 12.3516 4.61709 12.4785C4.49013 12.6054 4.31801 12.6767 4.1385 12.6769H3.11475C2.93524 12.6767 2.76312 12.6054 2.63616 12.4785C2.50919 12.3516 2.43775 12.1795 2.4375 12C2.43775 11.8205 2.50919 11.6484 2.63615 11.5215C2.76311 11.3945 2.93523 11.3231 3.11475 11.3229ZM5.90869 17.1332C6.03675 17.0051 6.207 16.9346 6.38775 16.9346C6.47671 16.9345 6.56483 16.9519 6.64702 16.9859C6.72921 17.02 6.80384 17.07 6.86663 17.133C6.9945 17.2609 7.06481 17.4309 7.06481 17.6121C7.06511 17.7011 7.04777 17.7892 7.01378 17.8715C6.9798 17.9538 6.92985 18.0285 6.86681 18.0913L6.14231 18.8151C6.01406 18.9431 5.844 19.0134 5.66344 19.0134C5.57449 19.0137 5.48638 18.9963 5.40421 18.9622C5.32204 18.9282 5.24745 18.8782 5.18475 18.8151C5.05805 18.688 4.9869 18.5158 4.9869 18.3364C4.9869 18.1569 5.05805 17.9848 5.18475 17.8577L5.90869 17.1332ZM12.6771 4.1385C12.6769 4.51181 12.3731 4.81556 12 4.81556C11.8205 4.81517 11.6485 4.74371 11.5216 4.61683C11.3947 4.48995 11.3232 4.31796 11.3228 4.1385V3.11456C11.3228 2.74125 11.6267 2.4375 12 2.4375C12.3733 2.4375 12.6771 2.74125 12.6771 3.11456V4.1385ZM17.8716 16.986C17.9539 17.0201 18.0285 17.0701 18.0913 17.1332L18.8151 17.8579C18.9418 17.985 19.0129 18.1571 19.0129 18.3366C19.0129 18.516 18.9418 18.6882 18.8151 18.8153C18.687 18.9433 18.5171 19.0136 18.3364 19.0136C18.2474 19.0139 18.1592 18.9965 18.077 18.9625C17.9948 18.9284 17.9202 18.8784 17.8575 18.8153L17.133 18.0915C17.0051 17.9634 16.9348 17.7932 16.9348 17.6122C16.9346 17.5233 16.952 17.4351 16.986 17.3529C17.02 17.2707 17.07 17.196 17.133 17.1332C17.2614 17.0051 17.4315 16.9346 17.6122 16.9346C17.7013 16.9345 17.7894 16.9519 17.8716 16.986ZM11.5214 19.3828C11.6484 19.2558 11.8205 19.1844 12 19.1842C12.3733 19.1842 12.6771 19.4882 12.6771 19.8613V20.8853C12.6771 21.2586 12.3733 21.5623 12 21.5623C11.6267 21.5623 11.3228 21.2586 11.3228 20.8853V19.8613C11.323 19.6818 11.3944 19.5097 11.5214 19.3828ZM19.8615 11.3229H20.8854C21.0649 11.3231 21.237 11.3945 21.364 11.5215C21.4909 11.6484 21.5623 11.8205 21.5625 12C21.5623 12.1795 21.4909 12.3516 21.364 12.4785C21.237 12.6054 21.0649 12.6767 20.8854 12.6769H19.8615C19.682 12.6767 19.5099 12.6053 19.383 12.4783C19.2561 12.3514 19.1848 12.1793 19.1846 11.9998C19.1848 11.8204 19.2562 11.6483 19.3831 11.5214C19.51 11.3945 19.682 11.3231 19.8615 11.3229ZM18.0773 5.03772C18.1595 5.0037 18.2476 4.98632 18.3366 4.98656C18.4255 4.98631 18.5136 5.00372 18.5958 5.03777C18.678 5.07182 18.7526 5.12185 18.8153 5.18494C18.942 5.31206 19.0131 5.48423 19.0131 5.66372C19.0131 5.84321 18.942 6.01538 18.8153 6.1425L18.0915 6.867C17.9631 6.99487 17.7928 7.06537 17.6124 7.06537C17.5234 7.06554 17.4352 7.0481 17.353 7.01406C17.2707 6.98001 17.196 6.93003 17.1332 6.867C17.0051 6.73856 16.9346 6.56831 16.9346 6.38775C16.9344 6.29874 16.9519 6.21057 16.9859 6.12834C17.02 6.04611 17.0701 5.97145 17.1332 5.90869L17.8577 5.18475C17.9205 5.12171 17.9951 5.07174 18.0773 5.03772ZM5.17969 12.0001C5.17969 8.23937 8.23931 5.17993 12 5.17993C15.7609 5.17993 18.8203 8.23937 18.8203 12.0001C18.8203 15.7609 15.7609 18.8204 12 18.8204C8.23931 18.8204 5.17969 15.7609 5.17969 12.0001ZM6.534 12.0001C6.534 15.0141 8.98594 17.4661 12 17.4661C15.0141 17.4661 17.466 15.0141 17.466 12.0001C17.466 8.98618 15.0141 6.53406 12 6.53406C8.98612 6.53406 6.534 8.98599 6.534 12.0001Z" fill=""/>
<path d="M5.90887 6.86681L5.97975 6.79627L5.9796 6.79612L5.90887 6.86681ZM5.18475 6.14231L5.11393 6.21291L5.11402 6.213L5.18475 6.14231ZM5.18475 5.18475L5.11399 5.11409L5.11393 5.11415L5.18475 5.18475ZM5.66344 4.98637V5.08637L5.66366 5.08637L5.66344 4.98637ZM6.14212 5.18456L6.07128 5.25514L6.07145 5.25531L6.14212 5.18456ZM6.86681 5.9085L6.93763 5.83789L6.93749 5.83775L6.86681 5.9085ZM7.06519 6.38756H6.96519L6.96519 6.38777L7.06519 6.38756ZM7.01389 6.64692L6.9215 6.60867L7.01389 6.64692ZM6.86681 6.86663L6.79623 6.79578L6.79621 6.79581L6.86681 6.86663ZM6.38775 7.06519V6.96519L6.38752 6.96519L6.38775 7.06519ZM4.1385 11.3229L4.13861 11.2229H4.1385V11.3229ZM3.11475 11.3229V11.2229H3.11464L3.11475 11.3229ZM4.6171 11.5215L4.6878 11.4507H4.6878L4.6171 11.5215ZM4.81575 12L4.91575 12.0001L4.91575 11.9999L4.81575 12ZM4.61709 12.4785L4.5464 12.4078H4.5464L4.61709 12.4785ZM4.1385 12.6769V12.7769H4.13858L4.1385 12.6769ZM3.11475 12.6769L3.11467 12.7769H3.11475V12.6769ZM2.63616 12.4785L2.70685 12.4078H2.70685L2.63616 12.4785ZM2.4375 12L2.3375 11.9999L2.3375 12.0001L2.4375 12ZM2.63615 11.5215L2.56545 11.4507H2.56545L2.63615 11.5215ZM6.38775 16.9346V17.0346L6.38794 17.0346L6.38775 16.9346ZM5.90869 17.1332L5.83798 17.0625L5.83795 17.0625L5.90869 17.1332ZM6.64702 16.9859L6.68529 16.8936V16.8936L6.64702 16.9859ZM6.86663 17.133L6.79577 17.2036L6.79591 17.2037L6.86663 17.133ZM7.06481 17.6121H6.96481L6.96481 17.6124L7.06481 17.6121ZM7.01378 17.8715L7.10621 17.9097L7.10621 17.9097L7.01378 17.8715ZM6.86681 18.0913L6.79621 18.0205L6.79614 18.0206L6.86681 18.0913ZM6.14231 18.8151L6.21297 18.8858L6.21299 18.8858L6.14231 18.8151ZM5.66344 19.0134V18.9134H5.66316L5.66344 19.0134ZM5.18475 18.8151L5.25568 18.7446L5.25557 18.7445L5.18475 18.8151ZM5.18475 17.8577L5.11401 17.787L5.11393 17.7871L5.18475 17.8577ZM12 4.81556L11.9998 4.91556H12V4.81556ZM12.6771 4.1385L12.7771 4.13855V4.1385H12.6771ZM11.5216 4.61683L11.5923 4.54611V4.54611L11.5216 4.61683ZM11.3228 4.1385H11.2227L11.2228 4.13875L11.3228 4.1385ZM18.0913 17.1332L18.0204 17.2037L18.0206 17.2039L18.0913 17.1332ZM18.8151 17.8579L18.8859 17.7873L18.8858 17.7872L18.8151 17.8579ZM18.8151 18.8153L18.8858 18.886L18.8859 18.8859L18.8151 18.8153ZM18.3364 19.0136V18.9136H18.3361L18.3364 19.0136ZM17.8575 18.8153L17.9284 18.7448L17.9282 18.7445L17.8575 18.8153ZM17.133 18.0915L17.0622 18.1622L17.0623 18.1622L17.133 18.0915ZM16.9348 17.6122H17.0348L17.0348 17.612L16.9348 17.6122ZM16.986 17.3529L16.8936 17.3147L16.8936 17.3147L16.986 17.3529ZM17.133 17.1332L17.2036 17.204L17.2036 17.204L17.133 17.1332ZM17.6122 16.9346V17.0346L17.6124 17.0346L17.6122 16.9346ZM12 19.1842V19.0842H11.9999L12 19.1842ZM11.5214 19.3828L11.4507 19.312L11.5214 19.3828ZM11.3228 19.8613L11.2227 19.8612V19.8613H11.3228ZM20.8854 11.3229L20.8855 11.2229H20.8854V11.3229ZM19.8615 11.3229V11.2229H19.8614L19.8615 11.3229ZM21.364 11.5215L21.4347 11.4508V11.4508L21.364 11.5215ZM21.5625 12L21.6625 12.0001V11.9999L21.5625 12ZM21.364 12.4785L21.2933 12.4077L21.364 12.4785ZM20.8854 12.6769V12.7769H20.8855L20.8854 12.6769ZM19.8615 12.6769L19.8614 12.7769H19.8615V12.6769ZM19.1846 11.9998L19.0846 11.9997V11.9999L19.1846 11.9998ZM19.3831 11.5214L19.3124 11.4507V11.4507L19.3831 11.5214ZM18.3366 4.98656L18.3363 5.08656L18.3368 5.08656L18.3366 4.98656ZM18.0773 5.03772L18.039 4.94532L18.0773 5.03772ZM18.5958 5.03777L18.5575 5.13015V5.13015L18.5958 5.03777ZM18.8153 5.18494L18.7443 5.25543L18.7444 5.25553L18.8153 5.18494ZM18.8153 6.1425L18.886 6.21317L18.8861 6.2131L18.8153 6.1425ZM18.0915 6.867L18.1621 6.93787L18.1622 6.93767L18.0915 6.867ZM17.6124 7.06537V6.96537L17.6122 6.96537L17.6124 7.06537ZM17.353 7.01406L17.3912 6.92166L17.353 7.01406ZM17.1332 6.867L17.0624 6.93761L17.0624 6.93761L17.1332 6.867ZM16.9346 6.38775H17.0346L17.0346 6.38751L16.9346 6.38775ZM16.9859 6.12834L17.0783 6.16663L17.0783 6.16662L16.9859 6.12834ZM17.1332 5.90869L17.2037 5.9796L17.2039 5.97943L17.1332 5.90869ZM17.8577 5.18475L17.9284 5.25549L17.9286 5.25531L17.8577 5.18475ZM5.838 6.93736C5.91008 7.00978 5.9958 7.0672 6.09019 7.1063L6.16674 6.92153C6.09675 6.89253 6.03319 6.84996 5.97975 6.79627L5.838 6.93736ZM5.11402 6.213L5.83815 6.93751L5.9796 6.79612L5.25548 6.07162L5.11402 6.213ZM4.88688 5.66353C4.88688 5.86949 4.96853 6.06704 5.11393 6.21291L5.25557 6.07172C5.14754 5.96334 5.08688 5.81655 5.08688 5.66353H4.88688ZM5.11393 5.11415C4.96853 5.26002 4.88688 5.45758 4.88688 5.66353H5.08688C5.08688 5.51051 5.14754 5.36372 5.25557 5.25535L5.11393 5.11415ZM5.66344 4.88637C5.4562 4.88637 5.26066 4.9672 5.11399 5.11409L5.25551 5.25541C5.36459 5.14617 5.50918 5.08637 5.66344 5.08637V4.88637ZM5.96085 4.9452C5.8665 4.90614 5.76534 4.88614 5.66321 4.88638L5.66366 5.08637C5.73938 5.0862 5.81439 5.10103 5.88435 5.12999L5.96085 4.9452ZM6.21297 5.11399C6.1409 5.04164 6.05521 4.98427 5.96085 4.9452L5.88435 5.12999C5.95431 5.15896 6.01784 5.20149 6.07128 5.25514L6.21297 5.11399ZM6.93749 5.83775L6.2128 5.11381L6.07145 5.25531L6.79614 5.97925L6.93749 5.83775ZM7.16519 6.38756C7.16519 6.18024 7.08412 5.98481 6.93763 5.83789L6.796 5.97911C6.90526 6.08869 6.96519 6.23339 6.96519 6.38756H7.16519ZM7.10628 6.68518C7.14538 6.59077 7.1654 6.48955 7.16519 6.38735L6.96519 6.38777C6.96535 6.46356 6.9505 6.53864 6.9215 6.60867L7.10628 6.68518ZM6.93739 6.93747C7.00979 6.86534 7.06719 6.7796 7.10628 6.68518L6.9215 6.60867C6.8925 6.67869 6.84993 6.74229 6.79623 6.79578L6.93739 6.93747ZM6.38775 7.16519C6.59492 7.16519 6.79034 7.08409 6.93742 6.93744L6.79621 6.79581C6.68641 6.90528 6.5417 6.96519 6.38775 6.96519V7.16519ZM6.09019 7.1063C6.18459 7.1454 6.2858 7.16542 6.38798 7.16519L6.38752 6.96519C6.31177 6.96536 6.23673 6.95052 6.16674 6.92153L6.09019 7.1063ZM4.1385 11.2229H3.11475V11.4229H4.1385V11.2229ZM4.6878 11.4507C4.54212 11.3051 4.34461 11.2232 4.13861 11.2229L4.13839 11.4229C4.29144 11.4231 4.43817 11.484 4.5464 11.5922L4.6878 11.4507ZM4.91575 11.9999C4.91547 11.7939 4.83349 11.5964 4.6878 11.4507L4.5464 11.5922C4.65464 11.7004 4.71554 11.8471 4.71575 12.0001L4.91575 11.9999ZM4.68778 12.5492C4.83348 12.4036 4.91546 12.2061 4.91575 12.0001L4.71575 11.9999C4.71554 12.1529 4.65463 12.2996 4.5464 12.4078L4.68778 12.5492ZM4.13858 12.7769C4.34457 12.7767 4.54208 12.6948 4.68778 12.5492L4.5464 12.4078C4.43817 12.5159 4.29144 12.5767 4.13842 12.5769L4.13858 12.7769ZM3.11475 12.7769H4.1385V12.5769H3.11475V12.7769ZM2.56547 12.5492C2.71117 12.6948 2.90868 12.7767 3.11467 12.7769L3.11483 12.5769C2.96181 12.5767 2.81508 12.5159 2.70685 12.4078L2.56547 12.5492ZM2.3375 12.0001C2.33778 12.2061 2.41977 12.4036 2.56547 12.5492L2.70685 12.4078C2.59862 12.2996 2.53771 12.1529 2.5375 11.9999L2.3375 12.0001ZM2.56545 11.4507C2.41976 11.5964 2.33778 11.7939 2.3375 11.9999L2.5375 12.0001C2.53771 11.8471 2.59861 11.7004 2.70685 11.5922L2.56545 11.4507ZM3.11464 11.2229C2.90864 11.2232 2.71113 11.3051 2.56545 11.4507L2.70685 11.5922C2.81508 11.484 2.96181 11.4231 3.11486 11.4229L3.11464 11.2229ZM6.38775 16.8346C6.18046 16.8346 5.98478 16.9157 5.83798 17.0625L5.9794 17.2039C6.08872 17.0946 6.23354 17.0346 6.38775 17.0346V16.8346ZM6.68529 16.8936C6.59091 16.8545 6.48972 16.8344 6.38756 16.8346L6.38794 17.0346C6.46371 17.0345 6.53875 17.0493 6.60875 17.0783L6.68529 16.8936ZM6.93748 17.0624C6.86538 16.99 6.77967 16.9327 6.68529 16.8936L6.60875 17.0783C6.67874 17.1073 6.74231 17.1499 6.79577 17.2036L6.93748 17.0624ZM7.16481 17.6121C7.16481 17.4045 7.08401 17.209 6.93734 17.0623L6.79591 17.2037C6.90499 17.3128 6.96481 17.4574 6.96481 17.6121H7.16481ZM7.10621 17.9097C7.14524 17.8152 7.16516 17.7139 7.16481 17.6117L6.96481 17.6124C6.96507 17.6882 6.9503 17.7633 6.92136 17.8333L7.10621 17.9097ZM6.93741 18.1621C7.00981 18.09 7.06718 18.0042 7.10621 17.9097L6.92136 17.8333C6.89242 17.9034 6.84989 17.967 6.79621 18.0205L6.93741 18.1621ZM6.21299 18.8858L6.93749 18.1621L6.79614 18.0206L6.07164 18.7443L6.21299 18.8858ZM5.66344 19.1134C5.87053 19.1134 6.06599 19.0326 6.21297 18.8858L6.07165 18.7443C5.96213 18.8537 5.81747 18.9134 5.66344 18.9134V19.1134ZM5.36593 19.0546C5.46032 19.0937 5.56154 19.1137 5.66372 19.1134L5.66316 18.9134C5.58744 18.9137 5.51244 18.8988 5.44249 18.8698L5.36593 19.0546ZM5.11382 18.8856C5.18584 18.958 5.27153 19.0155 5.36593 19.0546L5.44249 18.8698C5.37255 18.8409 5.30905 18.7983 5.25568 18.7446L5.11382 18.8856ZM4.8869 18.3364C4.8869 18.5423 4.96854 18.7398 5.11393 18.8857L5.25557 18.7445C5.14755 18.6361 5.0869 18.4894 5.0869 18.3364H4.8869ZM5.11393 17.7871C4.96854 17.9329 4.8869 18.1304 4.8869 18.3364H5.0869C5.0869 18.1834 5.14755 18.0366 5.25557 17.9283L5.11393 17.7871ZM5.83795 17.0625L5.11401 17.787L5.25549 17.9284L5.97943 17.2039L5.83795 17.0625ZM12 4.91556C12.4284 4.91556 12.7768 4.56702 12.7771 4.13855L12.5771 4.13845C12.5769 4.4566 12.3179 4.71556 12 4.71556V4.91556ZM11.4509 4.68755C11.5965 4.83313 11.7939 4.91511 11.9998 4.91556L12.0002 4.71556C11.8472 4.71522 11.7005 4.6543 11.5923 4.54611L11.4509 4.68755ZM11.2228 4.13875C11.2233 4.34465 11.3053 4.54197 11.4509 4.68755L11.5923 4.54611C11.4841 4.43792 11.4231 4.29128 11.4227 4.13825L11.2228 4.13875ZM11.2227 3.11456V4.1385H11.4228V3.11456H11.2227ZM12 2.3375C11.5715 2.3375 11.2227 2.68599 11.2227 3.11456H11.4228C11.4228 2.79651 11.6819 2.5375 12 2.5375V2.3375ZM12.7771 3.11456C12.7771 2.68602 12.4285 2.3375 12 2.3375V2.5375C12.3181 2.5375 12.5771 2.79648 12.5771 3.11456H12.7771ZM12.7771 4.1385V3.11456H12.5771V4.1385H12.7771ZM18.1622 17.0626C18.0901 16.9902 18.0043 16.9328 17.9099 16.8936L17.8333 17.0784C17.9034 17.1074 17.967 17.15 18.0204 17.2037L18.1622 17.0626ZM18.8858 17.7872L18.1621 17.0625L18.0206 17.2039L18.7443 17.9285L18.8858 17.7872ZM19.1129 18.3366C19.1129 18.1306 19.0313 17.9331 18.8859 17.7873L18.7442 17.9285C18.8523 18.0368 18.9129 18.1836 18.9129 18.3366H19.1129ZM18.8859 18.8859C19.0313 18.74 19.1129 18.5425 19.1129 18.3366H18.9129C18.9129 18.4896 18.8523 18.6363 18.7442 18.7446L18.8859 18.8859ZM18.3364 19.1136C18.5437 19.1136 18.739 19.0328 18.8858 18.886L18.7444 18.7445C18.635 18.8539 18.4906 18.9136 18.3364 18.9136V19.1136ZM18.0388 19.0549C18.1332 19.094 18.2345 19.114 18.3367 19.1136L18.3361 18.9136C18.2603 18.9139 18.1853 18.8991 18.1153 18.8701L18.0388 19.0549ZM17.7866 18.8857C17.8586 18.9582 17.9443 19.0157 18.0388 19.0549L18.1153 18.8701C18.0453 18.8411 17.9818 18.7985 17.9284 18.7448L17.7866 18.8857ZM17.0623 18.1622L17.7868 18.886L17.9282 18.7445L17.2037 18.0208L17.0623 18.1622ZM16.8348 17.6122C16.8348 17.8196 16.9156 18.0153 17.0622 18.1622L17.2038 18.0208C17.0946 17.9116 17.0348 17.7667 17.0348 17.6122H16.8348ZM16.8936 17.3147C16.8545 17.4091 16.8345 17.5103 16.8348 17.6125L17.0348 17.612C17.0346 17.5362 17.0494 17.4611 17.0784 17.3911L16.8936 17.3147ZM17.0624 17.0623C16.99 17.1345 16.9326 17.2202 16.8936 17.3147L17.0784 17.3911C17.1073 17.3211 17.1499 17.2575 17.2036 17.204L17.0624 17.0623ZM17.6122 16.8346C17.4049 16.8346 17.2095 16.9157 17.0624 17.0624L17.2036 17.204C17.3134 17.0945 17.4581 17.0346 17.6122 17.0346V16.8346ZM17.9099 16.8936C17.8155 16.8545 17.7143 16.8344 17.6121 16.8346L17.6124 17.0346C17.6882 17.0345 17.7633 17.0494 17.8333 17.0784L17.9099 16.8936ZM11.9999 19.0842C11.7939 19.0845 11.5964 19.1664 11.4507 19.312L11.5921 19.4535C11.7003 19.3453 11.8471 19.2844 12.0001 19.2843L11.9999 19.0842ZM12.7771 19.8613C12.7771 19.433 12.4286 19.0842 12 19.0842V19.2843C12.3181 19.2843 12.5771 19.5434 12.5771 19.8613H12.7771ZM12.7771 20.8853V19.8613H12.5771V20.8853H12.7771ZM12 21.6623C12.4285 21.6623 12.7771 21.3138 12.7771 20.8853H12.5771C12.5771 21.2033 12.3181 21.4623 12 21.4623V21.6623ZM11.2227 20.8853C11.2227 21.3138 11.5715 21.6623 12 21.6623V21.4623C11.6819 21.4623 11.4228 21.2033 11.4228 20.8853H11.2227ZM11.2227 19.8613V20.8853H11.4228V19.8613H11.2227ZM11.4507 19.312C11.305 19.4577 11.223 19.6552 11.2227 19.8612L11.4228 19.8615C11.423 19.7084 11.4839 19.5617 11.5921 19.4535L11.4507 19.312ZM20.8854 11.2229H19.8615V11.4229H20.8854V11.2229ZM21.4347 11.4508C21.289 11.3051 21.0915 11.2232 20.8855 11.2229L20.8853 11.4229C21.0384 11.4231 21.1851 11.484 21.2933 11.5922L21.4347 11.4508ZM21.6625 11.9999C21.6623 11.7939 21.5803 11.5964 21.4347 11.4508L21.2933 11.5922C21.4015 11.7004 21.4623 11.8471 21.4625 12.0001L21.6625 11.9999ZM21.4347 12.5492C21.5803 12.4036 21.6623 12.2061 21.6625 12.0001L21.4625 11.9999C21.4623 12.1529 21.4015 12.2996 21.2933 12.4077L21.4347 12.5492ZM20.8855 12.7769C21.0915 12.7767 21.289 12.6948 21.4347 12.5492L21.2933 12.4077C21.1851 12.5159 21.0384 12.5767 20.8854 12.5769L20.8855 12.7769ZM19.8615 12.7769H20.8854V12.5769H19.8615V12.7769ZM19.3123 12.549C19.4579 12.6947 19.6554 12.7766 19.8614 12.7769L19.8616 12.5769C19.7086 12.5767 19.5619 12.5158 19.4538 12.4076L19.3123 12.549ZM19.0846 11.9999C19.0848 12.2059 19.1667 12.4034 19.3123 12.549L19.4538 12.4076C19.3456 12.2994 19.2848 12.1527 19.2846 11.9997L19.0846 11.9999ZM19.3124 11.4507C19.1668 11.5963 19.0849 11.7938 19.0846 11.9997L19.2846 11.9999C19.2848 11.8469 19.3456 11.7003 19.4538 11.5921L19.3124 11.4507ZM19.8614 11.2229C19.6554 11.2232 19.458 11.3051 19.3124 11.4507L19.4538 11.5921C19.562 11.484 19.7086 11.4231 19.8616 11.4229L19.8614 11.2229ZM18.3368 4.88656C18.2347 4.88628 18.1335 4.90625 18.039 4.94532L18.1155 5.13012C18.1855 5.10116 18.2605 5.08635 18.3363 5.08656L18.3368 4.88656ZM18.6341 4.94539C18.5397 4.90627 18.4385 4.88628 18.3363 4.88656L18.3368 5.08656C18.4126 5.08635 18.4876 5.10117 18.5575 5.13015L18.6341 4.94539ZM18.8862 5.11445C18.8142 5.04197 18.7285 4.98451 18.6341 4.94539L18.5575 5.13015C18.6275 5.15914 18.6909 5.20172 18.7443 5.25543L18.8862 5.11445ZM19.1131 5.66372C19.1131 5.45776 19.0315 5.26021 18.8861 5.11434L18.7444 5.25553C18.8525 5.36391 18.9131 5.51069 18.9131 5.66372H19.1131ZM18.8861 6.2131C19.0315 6.06723 19.1131 5.86967 19.1131 5.66372H18.9131C18.9131 5.81674 18.8525 5.96353 18.7444 6.0719L18.8861 6.2131ZM18.1622 6.93767L18.886 6.21317L18.7445 6.07183L18.0208 6.79633L18.1622 6.93767ZM17.6124 7.16537C17.8194 7.16537 18.015 7.0843 18.1621 6.93787L18.0209 6.79613C17.9111 6.90545 17.7662 6.96537 17.6124 6.96537V7.16537ZM17.3148 7.10646C17.4092 7.14555 17.5104 7.16557 17.6126 7.16537L17.6122 6.96537C17.5364 6.96552 17.4613 6.95066 17.3912 6.92166L17.3148 7.10646ZM17.0624 6.93761C17.1345 7.00998 17.2203 7.06737 17.3148 7.10646L17.3912 6.92166C17.3212 6.89266 17.2575 6.85008 17.204 6.79639L17.0624 6.93761ZM16.8346 6.38775C16.8346 6.59489 16.9157 6.7905 17.0624 6.93761L17.204 6.79639C17.0946 6.68662 17.0346 6.54173 17.0346 6.38775H16.8346ZM16.8936 6.09005C16.8544 6.18449 16.8344 6.28576 16.8346 6.38799L17.0346 6.38751C17.0344 6.31172 17.0493 6.23664 17.0783 6.16663L16.8936 6.09005ZM17.0627 5.83778C16.9902 5.90986 16.9327 5.9956 16.8936 6.09005L17.0783 6.16662C17.1073 6.09661 17.15 6.03304 17.2037 5.9796L17.0627 5.83778ZM17.787 5.11401L17.0625 5.83795L17.2039 5.97943L17.9284 5.25549L17.787 5.11401ZM18.039 4.94532C17.9446 4.98439 17.8589 5.04179 17.7868 5.11419L17.9286 5.25531C17.982 5.20163 18.0455 5.15908 18.1155 5.13012L18.039 4.94532ZM12 5.07993C8.18409 5.07993 5.07969 8.18414 5.07969 12.0001H5.27969C5.27969 8.2946 8.29454 5.27993 12 5.27993V5.07993ZM18.9203 12.0001C18.9203 8.18414 15.8161 5.07993 12 5.07993V5.27993C15.7056 5.27993 18.7203 8.2946 18.7203 12.0001H18.9203ZM12 18.9204C15.8161 18.9204 18.9203 15.8162 18.9203 12.0001H18.7203C18.7203 15.7057 15.7056 18.7204 12 18.7204V18.9204ZM5.07969 12.0001C5.07969 15.8162 8.18409 18.9204 12 18.9204V18.7204C8.29454 18.7204 5.27969 15.7057 5.27969 12.0001H5.07969ZM12 17.3661C9.04117 17.3661 6.634 14.9589 6.634 12.0001H6.434C6.434 15.0693 8.93071 17.5661 12 17.5661V17.3661ZM17.366 12.0001C17.366 14.9589 14.9588 17.3661 12 17.3661V17.5661C15.0693 17.5661 17.566 15.0693 17.566 12.0001H17.366ZM12 6.63406C14.9588 6.63406 17.366 9.04141 17.366 12.0001H17.566C17.566 8.93096 15.0693 6.43406 12 6.43406V6.63406ZM6.634 12.0001C6.634 9.04122 9.04135 6.63406 12 6.63406V6.43406C8.9309 6.43406 6.434 8.93076 6.434 12.0001H6.634Z" fill=""/>
</svg>
