<svg width="24" height="24" viewBox="0 0 24 24" fill="none" xmlns="http://www.w3.org/2000/svg">
<path d="M12 4C11.8313 4 11.6636 4.00492 11.4963 4.01566C11.36 4.02407 11.2278 4.06549 11.1111 4.13635C10.9944 4.2072 10.8967 4.30537 10.8264 4.4224C10.7561 4.53942 10.7153 4.67178 10.7075 4.80808C10.6998 4.94438 10.7252 5.08053 10.7818 5.20479C11.0304 5.75201 11.1586 6.34626 11.1576 6.94732C11.1576 8.06399 10.714 9.13494 9.92446 9.92459C9.13489 10.7142 8.064 11.1579 6.94732 11.158C6.3464 11.1591 5.75228 11.0309 5.20523 10.7822C5.0813 10.7259 4.94553 10.7004 4.80959 10.708C4.67365 10.7156 4.54158 10.7561 4.42471 10.8259C4.30784 10.8958 4.20965 10.9929 4.13856 11.1091C4.06747 11.2252 4.02561 11.3568 4.01655 11.4927C4.00537 11.6591 4 11.8282 4 12C4 16.4183 7.5817 20 12 20C16.4183 20 20 16.4183 20 12C20 7.5817 16.4183 4 12 4ZM18.3161 12C18.3161 15.4882 15.4882 18.3161 12 18.3161C8.75338 18.3161 6.07896 15.8667 5.72419 12.7149C6.12236 12.799 6.53216 12.842 6.94732 12.842C10.2029 12.842 12.842 10.2029 12.842 6.94732C12.842 6.53216 12.799 6.1228 12.7149 5.72419C15.8667 6.07896 18.3161 8.75338 18.3161 12Z" fill="#2B2F33"/>
</svg>
