<svg width="24" height="24" viewBox="0 0 24 24" fill="none" xmlns="http://www.w3.org/2000/svg">
<path fill-rule="evenodd" clip-rule="evenodd" d="M12 21.6C17.302 21.6 21.6 17.302 21.6 12C21.6 6.69809 17.302 2.40002 12 2.40002C6.69809 2.40002 2.40002 6.69809 2.40002 12C2.40002 17.302 6.69809 21.6 12 21.6ZM12.8486 8.04853C12.3799 7.5799 11.6201 7.5799 11.1515 8.04853L8.04855 11.1515C7.57992 11.6201 7.57992 12.3799 8.04855 12.8485L11.1515 15.9515C11.6201 16.4201 12.3799 16.4201 12.8486 15.9515L15.9515 12.8485C16.4201 12.3799 16.4201 11.6201 15.9515 11.1515L12.8486 8.04853Z" fill="#C5C5C4"/>
</svg>
