<svg width="24" height="24" viewBox="0 0 24 24" fill="none" xmlns="http://www.w3.org/2000/svg">
<path fill-rule="evenodd" clip-rule="evenodd" d="M19.072 4.92997C19.99 5.84803 20.7128 6.9165 21.2167 8.10802C21.7383 9.34056 22 10.6512 22 12.001C22 13.3507 21.7363 14.6614 21.2148 15.8939C20.7108 17.0835 19.99 18.1539 19.072 19.072C18.1539 19.99 17.0855 20.7128 15.8939 21.2148C14.6614 21.7363 13.3507 22 12.001 22C10.6512 22 9.34056 21.7363 8.10802 21.2148C6.91845 20.7108 5.84803 19.99 4.92997 19.072C4.00996 18.1539 3.28919 17.0855 2.78523 15.8939C2.2637 14.6614 2 13.3507 2 12.001C2 10.6512 2.2637 9.34056 2.78719 8.10802C3.29114 6.91845 4.01192 5.84803 4.92997 4.92997C5.84803 4.00996 6.9165 3.28919 8.10802 2.78523C9.34056 2.2637 10.6512 2 12.001 2C13.3507 2 14.6614 2.2637 15.8939 2.78719C17.0835 3.29114 18.1539 4.01192 19.072 4.92997ZM18.2438 18.2438C19.0544 17.4331 19.6912 16.4877 20.1365 15.4369C20.5975 14.3489 20.83 13.1925 20.83 12.001C20.83 10.8095 20.5975 9.65309 20.1365 8.56509C19.6912 7.51421 19.0544 6.56881 18.2438 5.75818C17.4331 4.94755 16.4877 4.31077 15.4369 3.86542C14.3489 3.40443 13.1925 3.17199 12.001 3.17199C10.8095 3.17199 9.65309 3.40443 8.56509 3.86542C7.51421 4.31077 6.56881 4.94755 5.75818 5.75818C4.94755 6.56881 4.31077 7.51421 3.86542 8.56509C3.40443 9.65309 3.17199 10.8095 3.17199 12.001C3.17199 13.1925 3.40443 14.3489 3.86542 15.4369C4.31077 16.4877 4.94755 17.4331 5.75818 18.2438C6.56881 19.0544 7.51421 19.6912 8.56509 20.1365C9.65309 20.5975 10.8095 20.83 12.001 20.83C13.1925 20.83 14.3489 20.5975 15.4369 20.1365C16.4877 19.6912 17.4331 19.0544 18.2438 18.2438ZM14.1786 13.8859C14.6767 14.1281 15.1377 14.4543 15.5401 14.8567C15.9698 15.2845 16.3116 15.7787 16.5597 16.3159C16.7355 16.7046 16.4503 17.146 16.0245 17.146H16.0186C15.7881 17.146 15.583 17.0112 15.4873 16.8022C14.8818 15.4818 13.5477 14.5637 12.0026 14.5637C10.4575 14.5637 9.12342 15.4837 8.51789 16.8022C8.42218 17.0112 8.21513 17.146 7.98659 17.146H7.98073C7.55295 17.146 7.26777 16.7046 7.44552 16.3159C7.68968 15.7787 8.03151 15.2865 8.46124 14.8567C8.86363 14.4524 9.32461 14.1281 9.8227 13.8859C8.81284 13.1905 8.14871 12.0264 8.14871 10.7098C8.14871 8.58658 9.8774 6.8579 12.0007 6.8579C14.1239 6.8579 15.8526 8.58463 15.8526 10.7098C15.8526 12.0264 15.1885 13.1905 14.1786 13.8859ZM9.3207 10.7098C9.3207 12.1885 10.5239 13.3898 12.0007 13.3898C13.4774 13.3898 14.6806 12.1904 14.6806 10.7118C14.6806 9.23313 13.4774 8.03184 12.0007 8.03184C10.5239 8.03184 9.3207 9.23117 9.3207 10.7098Z" fill=""/>
<path d="M21.2167 8.10802L21.0325 8.18593L21.0325 8.18596L21.2167 8.10802ZM21.2148 15.8939L21.3989 15.972L21.399 15.9719L21.2148 15.8939ZM15.8939 21.2148L15.8163 21.0305L15.816 21.0306L15.8939 21.2148ZM8.10802 21.2148L8.03 21.3989L8.03008 21.399L8.10802 21.2148ZM4.92997 19.072L5.0714 18.9306L5.07124 18.9304L4.92997 19.072ZM2.78523 15.8939L2.96943 15.816L2.96942 15.816L2.78523 15.8939ZM2.78719 8.10802L2.97127 8.1862L2.97134 8.18604L2.78719 8.10802ZM4.92997 4.92997L5.0714 5.0714L5.07155 5.07124L4.92997 4.92997ZM8.10802 2.78523L8.18593 2.96943L8.18596 2.96942L8.10802 2.78523ZM15.8939 2.78719L15.8157 2.97127L15.8159 2.97134L15.8939 2.78719ZM20.1365 15.4369L20.3207 15.5149L20.3207 15.5149L20.1365 15.4369ZM18.2438 18.2438L18.1024 18.1024L18.1024 18.1024L18.2438 18.2438ZM20.1365 8.56509L20.3207 8.48707L20.3207 8.48706L20.1365 8.56509ZM18.2438 5.75818L18.1024 5.8996L18.1024 5.8996L18.2438 5.75818ZM15.4369 3.86542L15.5149 3.68127L15.5149 3.68126L15.4369 3.86542ZM8.56509 3.86542L8.48707 3.68126L8.48705 3.68127L8.56509 3.86542ZM5.75818 5.75818L5.8996 5.8996L5.75818 5.75818ZM3.86542 8.56509L3.68127 8.48705L3.68126 8.48707L3.86542 8.56509ZM3.86542 15.4369L3.68126 15.5149L3.68127 15.5149L3.86542 15.4369ZM5.75818 18.2438L5.8996 18.1024L5.8996 18.1024L5.75818 18.2438ZM8.56509 20.1365L8.48706 20.3207L8.48707 20.3207L8.56509 20.1365ZM15.4369 20.1365L15.5149 20.3207L15.5149 20.3207L15.4369 20.1365ZM15.5401 14.8567L15.3986 14.9981L15.399 14.9985L15.5401 14.8567ZM14.1786 13.8859L14.0652 13.7212L13.7826 13.9158L14.0911 14.0658L14.1786 13.8859ZM16.5597 16.3159L16.7419 16.2334L16.7413 16.232L16.5597 16.3159ZM15.4873 16.8022L15.6692 16.719L15.6691 16.7189L15.4873 16.8022ZM8.51789 16.8022L8.33614 16.7188L8.33605 16.719L8.51789 16.8022ZM7.44552 16.3159L7.6274 16.399L7.62759 16.3986L7.44552 16.3159ZM8.46124 14.8567L8.60266 14.9981L8.60301 14.9978L8.46124 14.8567ZM9.8227 13.8859L9.91017 14.0658L10.2187 13.9158L9.93613 13.7212L9.8227 13.8859ZM21.4009 8.03011C20.8868 6.81457 20.1495 5.72461 19.2134 4.78855L18.9306 5.07139C19.8306 5.97146 20.5387 7.01842 21.0325 8.18593L21.4009 8.03011ZM22.2 12.001C22.2 10.625 21.9331 9.28777 21.4009 8.03008L21.0325 8.18596C21.5434 9.39335 21.8 10.6775 21.8 12.001H22.2ZM21.399 15.9719C21.9311 14.7144 22.2 13.3772 22.2 12.001H21.8C21.8 13.3243 21.5415 14.6084 21.0306 15.816L21.399 15.9719ZM19.2134 19.2134C20.1496 18.2772 20.8849 17.1852 21.3989 15.972L21.0306 15.8159C20.5367 16.9818 19.8304 18.0307 18.9306 18.9306L19.2134 19.2134ZM15.9716 21.3991C17.1873 20.8869 18.2774 20.1494 19.2134 19.2134L18.9306 18.9306C18.0305 19.8306 16.9836 20.5387 15.8163 21.0305L15.9716 21.3991ZM12.001 22.2C13.3772 22.2 14.7144 21.9311 15.9719 21.399L15.816 21.0306C14.6084 21.5415 13.3243 21.8 12.001 21.8V22.2ZM8.03008 21.399C9.28759 21.9311 10.6248 22.2 12.001 22.2V21.8C10.6777 21.8 9.39353 21.5415 8.18596 21.0306L8.03008 21.399ZM4.78855 19.2134C5.7248 20.1496 6.81674 20.8849 8.03 21.3989L8.18604 21.0306C7.02016 20.5367 5.97127 19.8304 5.07139 18.9306L4.78855 19.2134ZM2.60103 15.9718C3.11508 17.1872 3.85046 18.2773 4.7887 19.2136L5.07124 18.9304C4.16946 18.0305 3.46329 16.9837 2.96943 15.816L2.60103 15.9718ZM1.8 12.001C1.8 13.3772 2.06894 14.7144 2.60104 15.9719L2.96942 15.816C2.45845 14.6084 2.2 13.3243 2.2 12.001H1.8ZM2.6031 8.02983C2.06895 9.28749 1.8 10.6248 1.8 12.001H2.2C2.2 10.6777 2.45845 9.39363 2.97127 8.1862L2.6031 8.02983ZM4.78855 4.78855C3.85231 5.7248 3.11702 6.81674 2.60303 8.03L2.97134 8.18604C3.46526 7.02016 4.17152 5.97127 5.07139 5.07139L4.78855 4.78855ZM8.03011 2.60103C6.81472 3.11508 5.72465 3.85046 4.7884 4.7887L5.07155 5.07124C5.97141 4.16946 7.01828 3.46329 8.18593 2.96943L8.03011 2.60103ZM12.001 1.8C10.6248 1.8 9.28759 2.06894 8.03008 2.60104L8.18596 2.96942C9.39353 2.45845 10.6777 2.2 12.001 2.2V1.8ZM15.9721 2.6031C14.7145 2.06895 13.3772 1.8 12.001 1.8V2.2C13.3243 2.2 14.6083 2.45845 15.8157 2.97127L15.9721 2.6031ZM19.2134 4.78855C18.2772 3.85231 17.1852 3.11702 15.972 2.60303L15.8159 2.97134C16.9818 3.46526 18.0307 4.17152 18.9306 5.07139L19.2134 4.78855ZM19.9524 15.3588C19.5171 16.386 18.8948 17.3099 18.1024 18.1024L18.3852 18.3852C19.214 17.5564 19.8653 16.5895 20.3207 15.5149L19.9524 15.3588ZM20.63 12.001C20.63 13.1661 20.4028 14.2959 19.9524 15.3588L20.3207 15.5149C20.7923 14.4018 21.03 13.2189 21.03 12.001H20.63ZM19.9524 8.64312C20.4028 9.70607 20.63 10.8359 20.63 12.001H21.03C21.03 10.783 20.7923 9.60011 20.3207 8.48707L19.9524 8.64312ZM18.1024 5.8996C18.8948 6.69205 19.5171 7.61593 19.9524 8.64313L20.3207 8.48706C19.8653 7.41249 19.214 6.44556 18.3852 5.61676L18.1024 5.8996ZM15.3588 4.04956C16.386 4.48488 17.3099 5.10715 18.1024 5.8996L18.3852 5.61676C17.5564 4.78795 16.5895 4.13666 15.5149 3.68127L15.3588 4.04956ZM12.001 3.37199C13.1661 3.37199 14.2959 3.5992 15.3588 4.04957L15.5149 3.68126C14.4018 3.20967 13.2189 2.97199 12.001 2.97199V3.37199ZM8.64312 4.04957C9.70607 3.5992 10.8359 3.37199 12.001 3.37199V2.97199C10.783 2.97199 9.60011 3.20967 8.48707 3.68126L8.64312 4.04957ZM5.8996 5.8996C6.69205 5.10715 7.61593 4.48488 8.64313 4.04956L8.48705 3.68127C7.41249 4.13666 6.44556 4.78795 5.61676 5.61676L5.8996 5.8996ZM4.04956 8.64313C4.48488 7.61593 5.10715 6.69205 5.8996 5.8996L5.61676 5.61676C4.78795 6.44556 4.13666 7.41249 3.68127 8.48705L4.04956 8.64313ZM3.37199 12.001C3.37199 10.8359 3.5992 9.70607 4.04957 8.64312L3.68126 8.48707C3.20967 9.60011 2.97199 10.783 2.97199 12.001H3.37199ZM4.04957 15.3588C3.5992 14.2959 3.37199 13.1661 3.37199 12.001H2.97199C2.97199 13.2189 3.20967 14.4018 3.68126 15.5149L4.04957 15.3588ZM5.8996 18.1024C5.10715 17.3099 4.48488 16.386 4.04956 15.3588L3.68127 15.5149C4.13666 16.5895 4.78795 17.5564 5.61676 18.3852L5.8996 18.1024ZM8.64313 19.9524C7.61593 19.5171 6.69205 18.8948 5.8996 18.1024L5.61676 18.3852C6.44556 19.214 7.41249 19.8653 8.48706 20.3207L8.64313 19.9524ZM12.001 20.63C10.8359 20.63 9.70607 20.4028 8.64312 19.9524L8.48707 20.3207C9.60011 20.7923 10.783 21.03 12.001 21.03V20.63ZM15.3588 19.9524C14.2959 20.4028 13.1661 20.63 12.001 20.63V21.03C13.2189 21.03 14.4018 20.7923 15.5149 20.3207L15.3588 19.9524ZM18.1024 18.1024C17.3099 18.8948 16.386 19.5171 15.3588 19.9524L15.5149 20.3207C16.5895 19.8653 17.5564 19.214 18.3852 18.3852L18.1024 18.1024ZM15.6815 14.7153C15.2633 14.2971 14.784 13.9579 14.2661 13.7061L14.0911 14.0658C14.5694 14.2983 15.0121 14.6116 15.3986 14.9981L15.6815 14.7153ZM16.7413 16.232C16.4834 15.6736 16.128 15.1598 15.6812 14.715L15.399 14.9985C15.8116 15.4092 16.1398 15.8837 16.3781 16.3997L16.7413 16.232ZM16.0245 17.346C16.5956 17.346 16.9776 16.7545 16.7419 16.2334L16.3775 16.3983C16.4934 16.6546 16.305 16.946 16.0245 16.946V17.346ZM16.0186 17.346H16.0245V16.946H16.0186V17.346ZM15.3055 16.8855C15.433 17.164 15.7081 17.346 16.0186 17.346V16.946C15.8681 16.946 15.733 16.8585 15.6692 16.719L15.3055 16.8855ZM12.0026 14.7637C13.4665 14.7637 14.7313 15.6335 15.3055 16.8856L15.6691 16.7189C15.0323 15.3301 13.6289 14.3637 12.0026 14.3637V14.7637ZM8.69964 16.8857C9.27389 15.6353 10.5388 14.7637 12.0026 14.7637V14.3637C10.3762 14.3637 8.97294 15.3322 8.33614 16.7188L8.69964 16.8857ZM7.98659 17.346C8.29474 17.346 8.57203 17.1644 8.69973 16.8855L8.33605 16.719C8.27233 16.8581 8.13551 16.946 7.98659 16.946V17.346ZM7.98073 17.346H7.98659V16.946H7.98073V17.346ZM7.26363 16.2327C7.0249 16.7548 7.40829 17.346 7.98073 17.346V16.946C7.69761 16.946 7.51064 16.6544 7.6274 16.399L7.26363 16.2327ZM8.31982 14.7153C7.87348 15.1616 7.51774 15.6736 7.26345 16.2331L7.62759 16.3986C7.86163 15.8837 8.18954 15.4113 8.60266 14.9981L8.31982 14.7153ZM9.73524 13.7061C9.21759 13.9578 8.73812 14.295 8.31948 14.7156L8.60301 14.9978C8.98913 14.6098 9.43163 14.2985 9.91017 14.0658L9.73524 13.7061ZM7.94871 10.7098C7.94871 12.0952 8.64778 13.3197 9.70928 14.0507L9.93613 13.7212C8.9779 13.0614 8.34871 11.9575 8.34871 10.7098H7.94871ZM12.0007 6.6579C9.76694 6.6579 7.94871 8.47612 7.94871 10.7098H8.34871C8.34871 8.69704 9.98785 7.0579 12.0007 7.0579V6.6579ZM16.0526 10.7098C16.0526 8.4741 14.2343 6.6579 12.0007 6.6579V7.0579C14.0135 7.0579 15.6526 8.69515 15.6526 10.7098H16.0526ZM14.292 14.0507C15.3535 13.3197 16.0526 12.0952 16.0526 10.7098H15.6526C15.6526 11.9575 15.0234 13.0614 14.0652 13.7212L14.292 14.0507ZM12.0007 13.1898C10.6343 13.1898 9.5207 12.0779 9.5207 10.7098H9.1207C9.1207 12.299 10.4136 13.5898 12.0007 13.5898V13.1898ZM14.4806 10.7118C14.4806 12.0797 13.3672 13.1898 12.0007 13.1898V13.5898C13.5875 13.5898 14.8806 12.3012 14.8806 10.7118H14.4806ZM12.0007 8.23184C13.367 8.23184 14.4806 9.34368 14.4806 10.7118H14.8806C14.8806 9.12258 13.5877 7.83184 12.0007 7.83184V8.23184ZM9.5207 10.7098C9.5207 9.34192 10.6341 8.23184 12.0007 8.23184V7.83184C10.4138 7.83184 9.1207 9.12043 9.1207 10.7098H9.5207Z" fill=""/>
</svg>
