<svg width="24" height="24" viewBox="0 0 24 24" fill="none" xmlns="http://www.w3.org/2000/svg">
<path fill-rule="evenodd" clip-rule="evenodd" d="M8.75054 3.74494C9.61705 4.04853 10.4411 4.33724 10.7989 4.4783C11.6406 4.81442 11.6406 5.4 10.5296 5.4H6.45132C5.34037 5.4 5.34037 4.66828 5.44137 4.10253C5.54236 3.53834 5.86379 2.71477 6.92344 3.09837C7.44023 3.28586 8.1071 3.5195 8.75054 3.74494ZM17.0762 3.09837C18.1363 2.71477 18.4577 3.53834 18.5586 4.10253C18.6596 4.66776 18.6596 5.4 17.5482 5.4H13.472C12.359 5.4 12.359 4.81442 13.2019 4.47987C13.5679 4.33463 14.4212 4.0354 15.309 3.72403C15.9334 3.50504 16.575 3.28004 17.0762 3.09837Z" fill="#C5C5C4"/>
<path fill-rule="evenodd" clip-rule="evenodd" d="M11.1 6.60001H4.19999C3.20588 6.60001 2.39999 7.40589 2.39999 8.40001C2.39999 9.39412 3.20588 10.2 4.19999 10.2H11.1V6.60001ZM11.1 12H3.59997V19.8C3.59997 20.7941 4.40586 21.6 5.39997 21.6H11.1V12ZM12.9 21.6V12H20.4V19.8C20.4 20.7941 19.5941 21.6 18.6 21.6H12.9ZM12.9 10.2V6.60001H19.8C20.7941 6.60001 21.6 7.40589 21.6 8.40001C21.6 9.39412 20.7941 10.2 19.8 10.2H12.9Z" fill="#C5C5C4"/>
</svg>
