<svg width="80" height="80" viewBox="0 0 80 80" fill="none" xmlns="http://www.w3.org/2000/svg">
<path d="M20.7494 34.1992C18.7872 40.6049 18.6861 46.9286 20.1193 51.9777C21.5518 57.0244 24.5279 60.8254 28.7379 62.1176L36.304 64.4397C40.514 65.7318 45.107 64.2539 49.1194 60.8782C53.1337 57.501 56.591 52.2075 58.5532 45.8017C60.5154 39.3959 60.6165 33.0723 59.1833 28.0232C57.7508 22.9764 54.7747 19.1755 50.5647 17.8833L42.9986 15.5612C38.7886 14.2691 34.1954 15.747 30.1831 19.1226C26.1688 22.4999 22.7114 27.7935 20.7494 34.1992Z" fill="white" stroke="#2B2F33" stroke-width="0.416422" stroke-linejoin="round"/>
<path fill-rule="evenodd" clip-rule="evenodd" d="M49.7369 60.0552L25.8181 52.7151L23.9575 58.7882C25.3081 60.262 26.9323 61.3404 28.7992 61.9133L36.3659 64.2352C40.7473 65.5797 45.5822 63.8683 49.7369 60.0552Z" fill="white"/>
<path fill-rule="evenodd" clip-rule="evenodd" d="M42.7362 15.7002L38.7993 28.5534L59.9546 35.0466C59.8512 26.6807 56.3794 19.8845 50.5118 18.0839L42.9453 15.7619C42.8757 15.7406 42.806 15.7201 42.7362 15.7002Z" fill="white"/>
<path d="M50.9822 43.4785C52.9443 37.0731 53.0456 30.7499 51.6126 25.7011C50.1804 20.6547 47.2047 16.854 42.995 15.5622C38.7853 14.2702 34.1926 15.7481 30.1806 19.1236C26.1666 22.5008 22.7093 27.7941 20.7473 34.1995C18.7851 40.6049 18.6839 46.9281 20.1168 51.9769C21.549 57.0233 24.5247 60.824 28.7345 62.1159C32.9441 63.4079 37.5368 61.9299 41.5489 58.5544C45.5629 55.1772 49.0201 49.8839 50.9822 43.4785Z" fill="white" stroke="#2B2F33" stroke-width="0.416422" stroke-linejoin="round"/>
<path d="M46.598 42.1324C48.1041 37.2158 48.2848 32.3911 47.3492 28.5612C46.4148 24.7363 44.3541 21.8649 41.3472 20.9422C38.3402 20.0194 35.0257 21.241 32.1099 23.8844C29.1903 26.5312 26.638 30.628 25.1319 35.5446C23.6258 40.4612 23.4451 45.2859 24.3807 49.1158C25.315 52.9408 27.3757 55.812 30.3827 56.7348C33.3897 57.6577 36.7041 56.436 39.62 53.7927C42.5395 51.1459 45.0919 47.0489 46.598 42.1324Z" fill="#2B2F33" stroke="#2B2F33" stroke-width="0.416422" stroke-linejoin="round"/>
<path fill-rule="evenodd" clip-rule="evenodd" d="M34.5461 56.5286C33.8662 56.5387 33.1953 56.4474 32.5419 56.247C26.9966 54.5455 24.8122 45.6239 27.6627 36.32C30.5133 27.0162 37.3196 20.8533 42.8649 22.5549C43.5179 22.7551 44.1244 23.0557 44.6814 23.4452C47.871 27.2009 48.7138 34.5146 46.3991 42.0691C44.0846 49.6231 39.2907 55.2068 34.5461 56.5286Z" fill="white"/>
<mask id="mask0_22_623" style="mask-type:luminance" maskUnits="userSpaceOnUse" x="21" y="18" width="33" height="43">
<path d="M53.0766 18.009H21.2024V60.2681H53.0766V18.009Z" fill="white"/>
<path fill-rule="evenodd" clip-rule="evenodd" d="M34.5464 56.5286C33.8665 56.5387 33.1955 56.4474 32.5421 56.247C26.9968 54.5455 24.8124 45.6239 27.6629 36.32C30.5135 27.0162 37.3198 20.8533 42.8651 22.5549C43.5182 22.7551 44.1246 23.0557 44.6817 23.4452C47.8713 27.2009 48.714 34.5146 46.3993 42.0691C44.0848 49.6231 39.291 55.2068 34.5464 56.5286Z" fill="black"/>
</mask>
<g mask="url(#mask0_22_623)">
<path d="M34.5464 56.5285L34.5525 56.945C34.5882 56.9445 34.6236 56.9394 34.658 56.9298L34.5464 56.5285ZM44.6817 23.4451L44.9989 23.1753C44.9758 23.1481 44.9493 23.124 44.9201 23.1036L44.6817 23.4451ZM34.5401 56.1119C33.9021 56.1215 33.2745 56.0359 32.6642 55.8486L32.4201 56.6452C33.1166 56.8588 33.8309 56.9559 34.5525 56.945L34.5401 56.1119ZM32.6642 55.8486C30.0873 55.0579 28.223 52.5664 27.3584 49.0352C26.4961 45.5138 26.6538 41.0347 28.0609 36.4422L27.265 36.1978C25.8215 40.9091 25.6461 45.5427 26.5498 49.2334C27.4511 52.9144 29.4517 55.7343 32.4201 56.6452L32.6642 55.8486ZM28.0609 36.4422C29.468 31.8497 31.8463 28.0519 34.5328 25.6194C37.2267 23.1801 40.1663 22.1624 42.7431 22.9531L42.9872 22.1564C40.0186 21.2456 36.7825 22.4587 33.9743 25.0015C31.1587 27.5509 28.7086 31.4865 27.265 36.1978L28.0609 36.4422ZM42.7431 22.9531C43.3532 23.1402 43.9206 23.4212 44.4434 23.7867L44.9201 23.1036C44.3288 22.6901 43.6832 22.37 42.9872 22.1564L42.7431 22.9531ZM44.3646 23.715C45.8879 25.5086 46.8757 28.1859 47.1903 31.3735C47.5045 34.5559 47.1441 38.2175 46.0013 41.947L46.7972 42.1913C47.9692 38.3661 48.3448 34.5937 48.0188 31.2916C47.6934 27.9947 46.6651 25.1373 44.9989 23.1753L44.3646 23.715ZM46.0013 41.947C44.8588 45.6761 43.1065 48.9104 41.064 51.3696C39.0182 53.8327 36.7007 55.4959 34.4348 56.1272L34.658 56.9298C37.1365 56.2394 39.5883 54.4498 41.7043 51.9022C43.8234 49.3505 45.6254 46.016 46.7972 42.1913L46.0013 41.947Z" fill="#2B2F33"/>
</g>
<path d="M34.2504 36.3569L29.8735 38.6649L31.8292 39.265L36.2061 36.9571L34.2504 36.3569Z" fill="white"/>
<path d="M29.0292 42.7693C29.026 42.8975 29.0991 42.9818 29.2395 43.0249L30.7269 43.4813C29.7047 43.7958 28.9334 43.9064 28.5312 43.7831L30.4869 44.3831C31.2608 44.6205 33.4026 43.9915 36.0669 42.7094L34.1113 42.1093C32.9457 42.6702 31.8802 43.106 30.9854 43.399C30.9848 43.3894 30.9846 43.3795 30.9848 43.3693L29.0292 42.7693Z" fill="white"/>
<path d="M29.0291 42.7695C29.0434 42.0769 31.2538 40.3459 34.1935 38.6486L36.1491 39.2487C33.2094 40.9461 30.999 42.6769 30.9847 43.3695L29.0291 42.7695Z" fill="white"/>
<path fill-rule="evenodd" clip-rule="evenodd" d="M34.1355 41.0199L36.9089 39.56L36.9668 37.1888C37.0548 37.1463 37.1422 37.1044 37.2288 37.0634L36.973 36.9849L37.0213 34.9081L38.9769 35.5082L38.9584 36.3061C40.3926 35.7367 41.4633 35.4789 41.8979 35.6123L42.854 35.9056C42.8895 35.8148 42.9086 35.7314 42.9102 35.6559L44.8659 36.2559C44.8458 37.1754 42.2488 39.2782 38.8401 41.2498L38.6827 47.888L36.7271 47.2878L36.8712 41.2094L36.0911 41.62L34.1355 41.0199ZM38.8826 39.4193C40.6634 38.2488 42.0285 37.1282 42.6072 36.3333C41.6893 36.5711 40.4005 37.0739 38.9225 37.7889L38.8826 39.4193Z" fill="white"/>
<path d="M37.0215 34.908L38.9771 35.5082L43.3412 33.2088L43.4168 30.0544L41.4612 29.4543L41.3856 32.6087L37.0215 34.908Z" fill="white"/>
<path d="M33.9539 48.7476L36.7273 47.2877L38.683 47.8879L35.9095 49.3478L33.9539 48.7476Z" fill="white"/>
<path d="M42.6023 35.2762C42.8066 35.3389 42.9144 35.4638 42.9102 35.6558L44.8659 36.2559C44.87 36.0639 44.7622 35.939 44.5578 35.8763L42.6023 35.2762Z" fill="white"/>
<path fill-rule="evenodd" clip-rule="evenodd" d="M29.0282 42.773C29.025 42.9012 29.0981 42.9855 29.2385 43.0286L29.4848 43.104C30.0568 43.0978 30.7113 43.0873 31.0865 43.072C31.4351 42.4622 32.6463 41.4647 34.3094 40.3793C34.2664 39.9564 34.2297 39.1733 34.2108 38.6578L34.1929 38.6523C31.253 40.3495 29.0425 42.0804 29.0282 42.773ZM35.4937 39.0514L34.7858 40.0738C35.2168 39.8021 35.6731 39.5268 36.1486 39.2523L35.4937 39.0514ZM38.9607 36.1991L38.9581 36.3098C40.3922 35.7403 41.4631 35.4826 41.8977 35.6159L42.3416 35.7522L41.9364 36.5361C41.1022 36.8106 40.0692 37.2377 38.9222 37.7926L38.8903 39.0948L35.144 41.333L34.135 41.0234L36.9086 39.5636L36.9664 37.1925C37.0544 37.1499 37.1418 37.1081 37.2284 37.0671L37.1548 37.0445L38.9607 36.1991Z" fill="white"/>
<path fill-rule="evenodd" clip-rule="evenodd" d="M36.9705 36.9641L37.0138 36.9774L38.9604 36.1042L38.9742 35.5112L37.0182 34.9112L36.9705 36.9641ZM41.3536 32.6228L43.3096 33.2229L43.3391 33.2074L43.4146 30.0531L41.4586 29.453L41.383 32.6072L41.3536 32.6228ZM42.8962 35.7572L44.8522 36.3573C44.8594 36.3216 44.8635 36.2872 44.8641 36.2543C44.8684 36.0624 44.7604 35.9374 44.556 35.8748L42.6002 35.2747C42.8045 35.3374 42.9123 35.4623 42.9082 35.6543C42.9074 35.6871 42.9035 35.7214 42.8962 35.7572ZM38.8371 41.2659L36.6099 40.5826L36.4954 41.4037L36.8683 41.2075L36.7242 47.2858L36.7064 47.2951L38.6624 47.8952L38.6802 47.8858L38.8371 41.2659Z" fill="white"/>
<path d="M12.1547 29.9099C12.1537 29.9121 12.1538 29.9129 10.3845 35.2871C8.45535 41.1468 19.6494 47.4996 28.5741 51.4159L30.5844 46.1052C21.4522 42.1421 10.6224 36.0449 12.1547 29.9099Z" fill="white" stroke="#2B2F33" stroke-width="0.416422"/>
<path d="M22.5922 29.1693C20.6114 29.0492 16.8741 29.2815 16.1543 31.4679C14.7921 35.6056 24.0203 40.4669 31.3768 43.595L29.9544 45.9061C15.6299 39.6539 10.8535 33.8194 12.1396 29.913C13.0273 27.2165 20.4989 26.2193 23.9202 26.6758L22.5922 29.1693Z" fill="white" stroke="#2B2F33" stroke-width="0.416422"/>
<path d="M21.4179 32.0905L22.5019 29.2296C17.0061 28.8587 15.6503 30.5721 16.1231 32.3611C16.1231 32.3611 17.9548 31.9098 21.4179 32.0905Z" fill="#2B2F33" stroke="#2B2F33" stroke-width="0.416422"/>
<path d="M37.7854 50.8065L27.1956 54.4265L29.4103 43.4692L37.7854 50.8065Z" fill="#07828B" stroke="#2B2F33" stroke-width="0.416422" stroke-linejoin="bevel"/>
<path d="M32.0948 40.5219L29.4097 43.5046L37.7645 50.8197L39.205 46.8262L32.0948 40.5219Z" fill="white" stroke="#2B2F33" stroke-width="0.416422" stroke-linejoin="round"/>
<path d="M68.3594 46.5256C68.3603 46.5234 68.3602 46.5224 69.9816 41.1019C71.7495 35.1916 60.3857 29.1477 51.3571 25.4773L49.4929 30.841C58.7303 34.5526 69.723 40.351 68.3594 46.5256Z" fill="white" stroke="#2B2F33" stroke-width="0.416422"/>
<path d="M57.9464 47.5513C59.9299 47.6172 63.6593 47.2826 64.3191 45.0773C65.5674 40.9039 56.2095 36.2972 48.7703 33.3717L50.1287 31.0225C64.6191 36.88 69.5535 42.5815 68.3748 46.5217C67.5612 49.2415 60.1199 50.4429 56.6873 50.0803L57.9464 47.5513Z" fill="white" stroke="#2B2F33" stroke-width="0.416422"/>
<path d="M59.0401 44.5993L58.0349 47.4889C63.5387 47.7092 64.8471 45.9593 64.3254 44.1838C64.3254 44.1838 62.5068 44.6851 59.0401 44.5993Z" fill="#2B2F33" stroke="#2B2F33" stroke-width="0.416422"/>
<path d="M41.8955 26.7003L52.3822 22.7917L50.4684 33.8055L41.8955 26.7003Z" fill="#07828B" stroke="#2B2F33" stroke-width="0.416422" stroke-linejoin="bevel"/>
<path d="M47.8674 36.8254L50.4698 33.7702L41.9177 26.6866L40.5872 30.7181L47.8674 36.8254Z" fill="white" stroke="#2B2F33" stroke-width="0.416422" stroke-linejoin="round"/>
</svg>
