<svg width="120" height="120" viewBox="0 0 120 120" fill="none" xmlns="http://www.w3.org/2000/svg">
<g opacity="0.4">
<path d="M110.76 79.3197C117.84 83.3997 117.84 89.9997 110.88 94.0797L72.8399 116.16C65.8799 120.24 54.4799 120.24 47.3999 116.16L9.11989 94.0797C2.03989 89.9997 2.0399 83.3997 8.9999 79.3197L47.0399 57.2397C53.9999 53.1597 65.3999 53.1597 72.4799 57.2397L110.76 79.3197Z" fill="#000909"/>
</g>
<path d="M116.16 75.48H3.83997V79.44C3.83997 82.08 5.63996 84.72 9.11996 86.76L47.4 108.84C54.48 112.92 65.88 112.92 72.84 108.84L110.88 86.76C114.36 84.72 116.16 82.08 116.16 79.44V75.48Z" fill="url(#paint0_linear_46_5062)"/>
<path d="M110.76 68.0399C117.84 72.1199 117.84 78.7199 110.88 82.7999L72.8399 104.88C65.8799 108.96 54.4799 108.96 47.3999 104.88L9.11989 82.7999C2.03989 78.7199 2.0399 72.1199 8.9999 68.0399L47.0399 45.9599C53.9999 41.8799 65.3999 41.8799 72.4799 45.9599L110.76 68.0399Z" fill="#152C2D"/>
<path opacity="0.2" d="M101.04 69.4796C106.8 72.7196 106.8 78.1195 101.16 81.3595L70.32 99.2396C64.68 102.48 55.44 102.48 49.68 99.2396L18.84 81.4796C13.08 78.2396 13.08 72.8396 18.72 69.5996L49.56 51.7196C55.2 48.4796 64.44 48.4796 70.2 51.7196L101.04 69.4796Z" stroke="#07828B" stroke-width="0.6" stroke-miterlimit="10"/>
<path d="M97.4399 34.0796H22.4399V74.0396C22.4399 75.8396 23.6399 77.6396 26.0399 78.9596L51.6 93.7196C56.28 96.4796 63.9599 96.4796 68.6399 93.7196L94.08 78.9596C96.36 77.6396 97.56 75.8396 97.56 74.0396V34.0796H97.4399Z" fill="url(#paint1_linear_46_5062)"/>
<path d="M93.8399 29.2797C98.5199 32.0397 98.5199 36.3597 93.9599 39.1197L68.5199 53.8797C63.8399 56.6397 56.2799 56.6397 51.4799 53.8797L25.9199 39.1197C21.2399 36.3597 21.2399 32.0397 25.9199 29.2797L51.3599 14.5197C56.0399 11.7597 63.5999 11.7597 68.2799 14.5197L93.8399 29.2797Z" fill="#1EABB6"/>
<path d="M59.8799 12.48V13.08C62.9999 13.08 65.8799 13.8 68.0399 15L93.5999 29.76C95.6399 30.96 96.8399 32.52 96.8399 34.2C96.8399 35.88 95.7599 37.44 93.5999 38.52L68.1599 53.28C65.9999 54.6 63.1199 55.2 59.9999 55.2C56.8799 55.2 53.9999 54.48 51.8399 53.28L26.2799 38.52C24.2399 37.32 23.0399 35.76 23.0399 34.08C23.0399 32.4 24.1199 30.84 26.2799 29.64L51.7199 14.88C53.8799 13.56 56.7599 12.96 59.8799 12.96V12.48ZM59.8799 12.48C56.7599 12.48 53.7599 13.2 51.3599 14.52L25.9199 29.28C21.2399 32.04 21.2399 36.36 25.9199 39.12L51.4799 53.88C53.8799 55.2 56.8799 55.92 59.9999 55.92C63.1199 55.92 66.1199 55.2 68.5199 53.88L93.9599 39.12C98.6399 36.36 98.6399 32.04 93.8399 29.28L68.2799 14.52C65.9999 13.2 62.8799 12.48 59.8799 12.48Z" fill="url(#paint2_linear_46_5062)"/>
<path d="M59.8799 17.8796C62.2799 17.8796 64.4399 18.3596 66.1199 19.4396L85.4398 30.5997C87.1198 31.5597 87.9598 32.7596 87.9598 34.0796C87.9598 35.3996 87.1198 36.5996 85.4398 37.5596L66.2398 48.7196C64.5598 49.6796 62.3999 50.2796 59.9999 50.2796C57.5999 50.2796 55.4398 49.7996 53.7598 48.7196L34.4398 37.5596C32.7598 36.5996 31.9199 35.3996 31.9199 34.0796C31.9199 32.7596 32.7598 31.5597 34.4398 30.5997L53.6398 19.4396C55.3198 18.4796 57.4799 17.8796 59.8799 17.8796ZM59.8799 17.6396C57.5999 17.6396 55.1999 18.1197 53.5199 19.1997L34.3199 30.3596C30.7199 32.3996 30.8399 35.7597 34.3199 37.7997L53.6398 48.9596C55.4398 50.0396 57.7199 50.5196 60.1199 50.5196C62.3999 50.5196 64.7999 50.0396 66.5999 48.9596L85.7999 37.7997C89.2799 35.7597 89.2799 32.3996 85.7999 30.3596L66.4799 19.1997C64.5599 18.2397 62.1599 17.6396 59.8799 17.6396Z" fill="url(#paint3_linear_46_5062)"/>
<path d="M49.9199 59.3999C51.7199 60.4799 53.1599 62.9999 53.1599 65.0399L53.0399 87.2399C53.0399 89.2799 51.5999 90.1199 49.7999 89.1599L28.5599 76.9199C26.7599 75.8399 25.3199 73.3199 25.3199 71.2799L25.4399 49.0799C25.4399 47.0399 26.8799 46.1999 28.6799 47.1599L49.9199 59.3999Z" fill="#F3F8FE"/>
<mask id="mask0_46_5062" style="mask-type:luminance" maskUnits="userSpaceOnUse" x="25" y="46" width="29" height="44">
<path d="M49.9199 59.3999C51.7199 60.4799 53.1599 62.9999 53.1599 65.0399L53.0399 87.2399C53.0399 89.2799 51.5999 90.1199 49.7999 89.1599L28.5599 76.9199C26.7599 75.8399 25.3199 73.3199 25.3199 71.2799L25.4399 49.0799C25.4399 47.0399 26.8799 46.1999 28.6799 47.1599L49.9199 59.3999Z" fill="white"/>
</mask>
<g mask="url(#mask0_46_5062)">
<path d="M49.9199 59.3999C51.7199 60.4799 53.1599 62.9999 53.1599 65.0399L53.0399 87.2399C53.0399 89.2799 51.5999 90.1199 49.7999 89.1599L28.5599 76.9199C26.7599 75.8399 25.3199 73.3199 25.3199 71.2799L25.4399 49.0799C25.4399 47.0399 26.8799 46.1999 28.6799 47.1599L49.9199 59.3999Z" fill="#F3F8FE"/>
</g>
<path d="M53.04 87.2398L53.16 65.0398C53.16 63.1198 51.96 60.8398 50.28 59.7598L25.92 73.9198C26.52 75.1198 27.48 76.3198 28.56 76.9198L49.8 89.1598C51.6 90.1198 53.04 89.2798 53.04 87.2398Z" fill="url(#paint4_linear_46_5062)"/>
<path d="M35.52 51.1196L30.3599 54.1196C29.8799 54.3596 29.52 55.0796 29.52 55.5596V67.3196C29.52 67.7996 29.8799 68.0396 30.3599 67.7996L47.4 57.9596L35.52 51.1196Z" fill="#07828B"/>
<path d="M36.1199 51.4795L30.9599 54.4795C30.4799 54.7195 30.1199 55.4395 30.1199 55.9195V67.6795C30.1199 68.1595 30.4799 68.3995 30.9599 68.1595L47.9999 58.3195L36.1199 51.4795Z" fill="#C9F4ED"/>
<path d="M33.8398 54.2395C34.0798 54.1195 34.1998 54.2395 34.1998 54.4795C34.1998 54.7195 34.0798 54.9595 33.8398 55.0795C33.5998 55.1995 33.4798 55.0795 33.4798 54.8395C33.5998 54.7195 33.7198 54.3595 33.8398 54.2395Z" fill="white"/>
<path opacity="0.8" d="M31.9198 58.3198C31.7998 58.4398 31.6798 58.5598 31.6798 58.6798V66.1198C31.6798 66.2398 31.7998 66.3598 31.9198 66.2398L41.2798 60.8398C41.3998 60.7198 41.5198 60.5998 41.5198 60.4798V54.7198L39.8398 53.7598L31.9198 58.3198Z" fill="white"/>
<path d="M31.5599 55.5598C31.7999 55.4398 31.92 55.5598 31.92 55.7998C31.92 56.0398 31.7999 56.2798 31.5599 56.3998C31.3199 56.5198 31.2 56.3998 31.2 56.1598C31.32 56.0398 31.4399 55.6798 31.5599 55.5598Z" fill="white"/>
<path d="M32.7599 54.9597C32.9999 54.8397 33.12 54.9597 33.12 55.1997C33.12 55.4397 32.9999 55.6797 32.7599 55.7997C32.5199 55.9197 32.4 55.7997 32.4 55.5597C32.4 55.3197 32.5199 55.0797 32.7599 54.9597Z" fill="white"/>
<path d="M36.9491 58.5131L33.1091 60.6731H32.9891C32.9891 60.6731 32.9891 60.5531 33.1091 60.5531L36.9491 58.3931H37.0691L36.9491 58.5131Z" fill="#6491FB"/>
<path d="M39.229 57.1932L37.549 58.1533H37.429C37.429 58.1533 37.429 58.0332 37.549 58.0332L39.229 57.0732H39.349C39.229 57.1932 39.229 57.1932 39.229 57.1932Z" fill="#FF9999"/>
<path d="M36.9491 59.0649L34.9091 60.2649H34.7891C34.7891 60.2649 34.7891 60.1448 34.9091 60.1448L36.9491 58.9448H37.0691C37.0691 59.0648 36.9491 59.0649 36.9491 59.0649Z" fill="#FF9999"/>
<path d="M34.4291 60.5047L33.1091 61.3448H32.9891C32.9891 61.3448 32.9891 61.2248 33.1091 61.2248L34.4291 60.3848H34.5491C34.5491 60.5048 34.5491 60.5047 34.4291 60.5047Z" fill="#FF9999"/>
<path d="M39.229 57.8647L37.549 58.8247H37.429C37.429 58.8247 37.429 58.7046 37.549 58.7046L39.229 57.7446H39.349C39.229 57.7446 39.229 57.7447 39.229 57.8647Z" fill="#A69CFB"/>
<path d="M35.6291 58.1542L33.2291 59.5942H33.1091C33.1091 59.5942 33.1091 59.4742 33.2291 59.4742L35.6291 58.0342H35.7491C35.6291 58.0342 35.6291 58.1542 35.6291 58.1542Z" fill="#6491FB"/>
<path d="M37.0691 57.3139L35.9891 57.9139H35.8691C35.8691 57.9139 35.8691 57.7938 35.9891 57.7938L37.0691 57.1938H37.1891C37.0691 57.1938 37.0691 57.3139 37.0691 57.3139Z" fill="#A69CFB"/>
<path d="M40.069 55.6341L37.549 57.0741H37.429C37.429 57.0741 37.429 56.9542 37.549 56.9542L40.069 55.5142H40.189C40.069 55.5142 40.069 55.5141 40.069 55.6341Z" fill="#94F2B5"/>
<path d="M37.549 61.0616L39.949 59.6215L40.069 59.5016C40.069 59.5016 40.069 59.3816 39.949 59.5016L37.549 60.9415C37.549 60.9415 37.549 60.9416 37.549 61.0616Z" fill="#6491FB"/>
<path d="M36.1091 61.9013L37.1891 61.3013L37.3091 61.1813C37.3091 61.1813 37.3091 61.0613 37.1891 61.1813L36.1091 61.7813C36.1091 61.7813 35.9891 61.7813 36.1091 61.9013Z" fill="#94F2B5"/>
<path d="M33.1091 63.7018L35.6291 62.2618L35.7491 62.1417C35.7491 62.1417 35.7491 62.0217 35.6291 62.1417L33.1091 63.5817C33.1091 63.4617 33.1091 63.5818 33.1091 63.7018Z" fill="#FF9999"/>
<path d="M34.6691 59.1922L33.1091 60.1522H32.9891C32.9891 60.1522 32.9891 60.0323 33.1091 60.0323L34.6691 59.0723H34.7891C34.7891 59.1923 34.7891 59.1922 34.6691 59.1922Z" fill="#A69CFB"/>
<path d="M38.0291 57.2724L35.0291 59.0724H34.9091C34.9091 59.0724 34.9091 58.9523 35.0291 58.9523L38.0291 57.1523H38.1491C38.1491 57.2723 38.1491 57.2724 38.0291 57.2724Z" fill="#94F2B5"/>
<path d="M40.3091 56.0722L38.3891 57.1521H38.2691C38.2691 57.1521 38.2691 57.0322 38.3891 57.0322L40.3091 55.9521H40.4291C40.4291 55.9521 40.3091 55.9522 40.3091 56.0722Z" fill="#6491FB"/>
<path d="M38.749 60.7823L40.309 59.8223H40.429C40.429 59.8223 40.429 59.9422 40.309 59.9422L38.749 60.9022H38.629C38.629 60.9022 38.629 60.7823 38.749 60.7823Z" fill="#94F2B5"/>
<path d="M35.3891 62.7023L38.3891 60.9023H38.5091C38.5091 60.9023 38.5091 61.0224 38.3891 61.0224L35.3891 62.8224H35.2691C35.2691 62.8224 35.2691 62.8223 35.3891 62.7023Z" fill="#FFC99C"/>
<path d="M33.1091 64.0224L35.0291 62.9424H35.1491C35.1491 62.9424 35.1491 63.0624 35.0291 63.0624L33.1091 64.1424H32.9891C33.1091 64.1424 33.1091 64.0224 33.1091 64.0224Z" fill="#A69CFB"/>
<path d="M36.9491 60.8446L33.1091 63.0046H32.9891C32.9891 63.0046 32.9891 62.8846 33.1091 62.8846L36.9491 60.7246H37.0691L36.9491 60.8446Z" fill="#FFC99C"/>
<path d="M39.229 59.5243L37.549 60.4843H37.429C37.429 60.4843 37.429 60.3643 37.549 60.3643L39.229 59.4043H39.349C39.229 59.4043 39.229 59.5243 39.229 59.5243Z" fill="#FF9999"/>
<path d="M34.6691 61.5233L33.1091 62.4833H32.9891C32.9891 62.4833 32.9891 62.3633 33.1091 62.3633L34.6691 61.4033H34.7891C34.7891 61.5233 34.7891 61.5233 34.6691 61.5233Z" fill="#94F2B5"/>
<path d="M38.0291 59.6039L35.0291 61.4039H34.9091C34.9091 61.4039 34.9091 61.2839 35.0291 61.2839L38.0291 59.4839H38.1491C38.1491 59.6039 38.1491 59.6039 38.0291 59.6039Z" fill="#6491FB"/>
<path d="M40.3091 58.2836L38.3891 59.3636H38.2691C38.2691 59.3636 38.2691 59.2436 38.3891 59.2436L40.3091 58.1636H40.4291C40.4291 58.2836 40.3091 58.2836 40.3091 58.2836Z" fill="#94F2B5"/>
<path d="M34.4291 61.1673L33.1091 61.8873H32.9891C32.9891 61.8873 32.9891 61.7673 33.1091 61.7673L34.4291 61.0474H34.5491C34.4291 61.0474 34.4291 61.1673 34.4291 61.1673Z" fill="#A69CFB"/>
<path d="M37.1891 59.6073L34.6691 61.0474H34.5491C34.5491 61.0474 34.5491 60.9273 34.6691 60.9273L37.1891 59.4873H37.3091C37.3091 59.4873 37.1891 59.4873 37.1891 59.6073Z" fill="#FF9999"/>
<path d="M39.9491 57.9271L37.4291 59.3671H37.3091C37.3091 59.3671 37.3091 59.2471 37.4291 59.2471L39.9491 57.8071H40.0691C40.0691 57.8071 40.0691 57.9271 39.9491 57.9271Z" fill="#FFC99C"/>
<mask id="mask1_46_5062" style="mask-type:luminance" maskUnits="userSpaceOnUse" x="25" y="46" width="29" height="44">
<path d="M49.9199 59.3999C51.7199 60.4799 53.1599 62.9999 53.1599 65.0399L53.0399 87.2399C53.0399 89.2799 51.5999 90.1199 49.7999 89.1599L28.5599 76.9199C26.7599 75.8399 25.3199 73.3199 25.3199 71.2799L25.4399 49.0799C25.4399 47.0399 26.8799 46.1999 28.6799 47.1599L49.9199 59.3999Z" fill="white"/>
</mask>
<g mask="url(#mask1_46_5062)">
<path d="M27.12 47.2797C27.48 47.2797 27.84 47.3997 28.32 47.6397L49.56 59.8797C51.12 60.8397 52.56 63.1197 52.56 65.0397L52.44 87.2397C52.44 87.5997 52.32 88.9197 51.24 88.9197C50.88 88.9197 50.52 88.7997 50.04 88.5597L28.8 76.3197C27.24 75.3597 25.8 73.0797 25.8 71.1597L25.92 48.9597C25.92 48.5997 26.04 47.2797 27.12 47.2797ZM27.12 46.6797C26.04 46.6797 25.32 47.5197 25.32 48.9597L25.2 71.1597C25.2 73.1997 26.64 75.7197 28.44 76.7997L49.68 89.0397C50.16 89.3997 50.76 89.5197 51.12 89.5197C52.2 89.5197 52.92 88.6797 52.92 87.2397L53.04 65.0397C53.04 62.9997 51.6 60.4797 49.8 59.3997L28.56 47.1597C28.08 46.7997 27.6 46.6797 27.12 46.6797Z" fill="url(#paint5_linear_46_5062)"/>
</g>
<path d="M55.4399 61.3196L51.7199 63.4796L47.5199 61.0796L46.6799 61.5596L50.8799 63.9596V65.8796C50.8799 65.9996 50.8799 66.2396 50.8799 66.3596C50.8799 66.4796 50.7599 66.5996 50.7599 66.7196C50.7599 66.8396 50.6399 66.8396 50.6399 66.9596C50.5199 67.0796 50.3999 67.1996 50.2799 67.3196L51.1199 66.8396C51.2399 66.7196 51.3599 66.5996 51.4799 66.4796C51.4799 66.4796 51.4799 66.3596 51.5999 66.3596V66.2396V66.1196V65.9996V65.8796V65.7596V65.6396V65.5196V64.5596L55.3199 62.3996L55.4399 61.3196Z" fill="#1964BA"/>
<path d="M30.12 46.6797L25.4399 49.3197L21.2399 46.9197L25.8 44.1597L30.12 46.6797Z" fill="#07828B"/>
<path d="M55.4399 61.3198L50.8799 63.9598L46.5599 61.5598L51.2399 58.7998L55.4399 61.3198Z" fill="#07828B"/>
<path d="M47.0398 56.3995L42.3599 59.0395L38.1599 56.6395L42.7199 53.9995L47.0398 56.3995Z" fill="#07828B"/>
<path d="M51.2399 58.7994L46.5599 61.5594L42.3599 59.0394L47.0399 56.3994L51.2399 58.7994Z" fill="#A6FCDF"/>
<path d="M42.7199 53.9995L38.1598 56.6395L33.9598 54.2395L38.5199 51.4795L42.7199 53.9995Z" fill="#A6FCDF"/>
<path d="M38.5198 51.4796L33.9598 54.2396L29.7598 51.7196L34.3198 49.0796L38.5198 51.4796Z" fill="#07828B"/>
<path d="M34.3199 49.0797L29.7599 51.7197L25.4399 49.3197L30.1199 46.6797L34.3199 49.0797Z" fill="#A6FCDF"/>
<path d="M29.7599 51.7198V53.6398C29.7599 54.9598 28.8 55.5598 27.6 54.8398C26.4 54.1198 25.4399 52.5598 25.4399 51.2398V49.3198L29.7599 51.7198Z" fill="#A6FCDF"/>
<path d="M25.44 49.3199V51.2399C25.44 52.5599 24.48 53.1599 23.28 52.4399C22.08 51.7199 21.12 50.1599 21.12 48.8399V46.9199L25.44 49.3199Z" fill="#07828B"/>
<path d="M42.3599 59.1598V61.0798C42.3599 62.3998 41.3999 62.9998 40.1999 62.2798C38.9999 61.5598 38.0399 59.9998 38.0399 58.6798V56.7598L42.3599 59.1598Z" fill="#07828B"/>
<path d="M38.16 56.6397V58.5597C38.16 59.8797 37.2 60.4797 36 59.7597C34.8 59.0397 33.84 57.4797 33.84 56.1597V54.2397L38.16 56.6397Z" fill="#A6FCDF"/>
<path d="M33.96 54.2398V56.1598C33.96 57.4798 33 58.0798 31.8 57.3598C30.6 56.6398 29.64 55.0798 29.64 53.7598V51.8398L33.96 54.2398Z" fill="#07828B"/>
<path d="M46.5599 61.5597V63.4797C46.5599 64.7997 45.6 65.3997 44.4 64.6797C43.2 63.9597 42.2399 62.3997 42.2399 61.0797V59.1597L46.5599 61.5597Z" fill="#A6FCDF"/>
<path d="M50.8799 63.9596V65.8796C50.8799 67.1996 49.9199 67.7996 48.7199 67.0796C47.5199 66.3596 46.5599 64.7996 46.5599 63.4796V61.5596L50.8799 63.9596Z" fill="#07828B"/>
<path d="M83.2799 33.5996V34.5596C83.2799 34.7996 83.3999 34.9196 83.6399 35.1596C84.1199 35.5196 84.9599 35.5196 85.5599 35.1596C85.7999 35.0396 85.9199 34.7996 85.9199 34.5596V33.5996H83.2799Z" fill="url(#paint6_linear_46_5062)"/>
<path d="M85.9783 33.6312C85.9795 33.2336 85.3894 32.9095 84.6604 32.9075C83.9314 32.9054 83.3395 33.2261 83.3383 33.6237C83.3372 34.0214 83.9273 34.3454 84.6563 34.3475C85.3853 34.3496 85.9772 34.0289 85.9783 33.6312Z" fill="#07828B"/>
<path d="M85.4984 33.6298C85.4991 33.3647 85.1237 33.1487 84.6598 33.1474C84.1958 33.1461 83.8191 33.3599 83.8184 33.625C83.8176 33.8901 84.1931 34.106 84.657 34.1074C85.121 34.1087 85.4976 33.8948 85.4984 33.6298Z" fill="#0CFFFC"/>
<path d="M79.4399 35.8799V36.8399C79.4399 37.0799 79.56 37.1999 79.8 37.4399C80.28 37.7999 81.12 37.7999 81.72 37.4399C81.96 37.3199 82.08 37.0799 82.08 36.8399V35.8799H79.4399Z" fill="url(#paint7_linear_46_5062)"/>
<path d="M82.0572 35.8339C82.0583 35.4362 81.4683 35.1122 80.7393 35.1101C80.0102 35.108 79.4183 35.4287 79.4172 35.8264C79.4161 36.224 80.0062 36.5481 80.7352 36.5501C81.4642 36.5522 82.0561 36.2315 82.0572 35.8339Z" fill="#07828B"/>
<path d="M81.5772 35.8324C81.578 35.5673 81.2025 35.3513 80.7386 35.35C80.2747 35.3487 79.898 35.5625 79.8972 35.8276C79.8965 36.0927 80.272 36.3087 80.7359 36.31C81.1998 36.3113 81.5765 36.0975 81.5772 35.8324Z" fill="#FFE200"/>
<path d="M79.3199 17.0398C79.6799 17.2798 80.0399 17.7598 80.0399 18.2398V30.1198C80.0399 30.5998 79.6799 30.7198 79.3199 30.4798L63.4799 21.3598C63.1199 21.1198 62.7599 20.6398 62.7599 20.1598V8.27981C62.7599 7.79981 63.1199 7.6798 63.4799 7.9198L79.3199 17.0398Z" fill="#F3F8FE"/>
<path d="M80.8799 17.6398C80.8799 17.5198 80.8799 17.5198 80.8799 17.5198C80.8799 17.5198 80.8799 17.5198 80.8799 17.3998C80.8799 17.3998 80.8799 17.3998 80.8799 17.2798C80.8799 17.2798 80.8799 17.1598 80.7599 17.1598C80.7599 17.1598 80.7599 17.0398 80.6399 17.0398C80.6399 17.0398 80.6399 17.0398 80.6399 16.9198L64.7999 7.7998L63.9599 8.2798C64.0799 8.2798 64.0799 8.2798 64.1999 8.2798C64.3199 8.2798 64.3199 8.2798 64.4399 8.3998L80.2799 17.5198C80.3999 17.5198 80.5199 17.6398 80.5199 17.7598C80.5199 17.7598 80.6399 17.8798 80.6399 17.9998L80.7599 18.1198C80.7599 18.2398 80.8799 18.3598 80.8799 18.4798C80.8799 18.5998 80.8799 18.7198 80.8799 18.8398V30.7198C80.8799 30.8398 80.8799 30.9598 80.8799 30.9598C80.8799 31.0798 80.7599 31.0798 80.7599 31.0798L81.5999 30.5998L81.7199 30.4798L80.8799 17.6398C80.8799 17.7598 80.8799 17.7598 80.8799 17.6398Z" fill="url(#paint8_linear_46_5062)"/>
<g opacity="0.35">
<path d="M66.9599 12.1195C66.5999 11.8795 66.2399 12.1196 66.2399 12.5996V19.1996C66.2399 19.6796 66.5999 20.2795 66.9599 20.5195C67.3199 20.7595 67.6799 20.5195 67.6799 20.0395V13.4395C67.6799 12.8395 67.3199 12.3595 66.9599 12.1195Z" fill="#07828B"/>
<path d="M70.4398 17.1594L70.0798 16.9194C69.7198 16.6794 69.4798 16.9194 69.4798 17.2794V21.1194C69.4798 21.4794 69.7198 21.9594 70.0798 22.0794L70.4398 22.3194C70.7998 22.5594 71.0398 22.3194 71.0398 21.9594V18.1194C71.0398 17.7594 70.7998 17.3994 70.4398 17.1594Z" fill="#07828B"/>
<path d="M73.6799 17.6395L73.5599 17.5195C73.1999 17.2795 72.9599 17.5195 72.8399 17.8795V23.0395C72.8399 23.5195 73.0799 23.9995 73.4399 24.2395L73.5599 24.3595C73.9199 24.5995 74.1599 24.3595 74.2799 23.9995V18.8395C74.3999 18.3595 74.0399 17.7595 73.6799 17.6395Z" fill="#07828B"/>
<path d="M77.1599 22.0796L76.6799 21.8396C76.4399 21.7196 76.2 21.8396 76.2 22.0796V25.0796C76.2 25.4396 76.4399 25.7996 76.6799 25.9196L77.1599 26.1595C77.3999 26.2795 77.6399 26.1596 77.6399 25.9196V22.9196C77.6399 22.6796 77.3999 22.3196 77.1599 22.0796Z" fill="#07828B"/>
</g>
<path d="M65.9999 12.5995C65.6399 12.3595 65.2799 12.5995 65.2799 13.0795V19.6795C65.2799 20.1595 65.6399 20.7595 65.9999 20.9995C66.3599 21.2395 66.7199 20.9995 66.7199 20.5195V13.9195C66.8399 13.4395 66.4799 12.8395 65.9999 12.5995Z" fill="#07828B"/>
<path d="M69.4798 17.7595L69.1198 17.5195C68.7598 17.2795 68.5198 17.5195 68.5198 17.8795V21.7195C68.5198 22.0795 68.7598 22.5595 69.1198 22.6795L69.4798 22.9195C69.8398 23.1595 70.0798 22.9195 70.0798 22.5595V18.7195C70.0798 18.3595 69.8398 17.8795 69.4798 17.7595Z" fill="#07828B"/>
<path d="M72.7199 18.1194L72.5999 17.9994C72.2399 17.7594 71.9999 17.9994 71.8799 18.3594V23.5194C71.8799 23.9994 72.1199 24.4794 72.4799 24.7194L72.5999 24.8394C72.9599 25.0794 73.1999 24.8394 73.3199 24.4794V19.3194C73.4399 18.8394 73.0799 18.3594 72.7199 18.1194Z" fill="#07828B"/>
<path d="M76.2 22.6797L75.72 22.4397C75.48 22.3197 75.2399 22.4397 75.2399 22.6797V25.6797C75.2399 26.0397 75.48 26.3996 75.72 26.5196L76.2 26.7596C76.44 26.8796 76.6799 26.7596 76.6799 26.5196V23.5196C76.7999 23.2796 76.56 22.7997 76.2 22.6797Z" fill="#07828B"/>
<path d="M91.9199 52.5594C92.1599 52.4394 92.5199 52.4395 92.6399 52.4395C92.8799 52.5595 92.9999 52.7994 92.9999 53.1594V67.4395C92.9999 68.0395 92.5199 68.8795 91.9199 69.2395L71.1599 81.2395C70.5599 81.5995 70.0799 81.3595 70.0799 80.6395V66.3594C70.0799 65.7594 70.5599 64.9194 71.1599 64.5594L91.9199 52.5594Z" fill="#07666D"/>
<path d="M92.7598 53.0394C93.3598 52.6794 93.8398 52.9194 93.8398 53.6394V67.9194C93.8398 68.5194 93.3598 69.3594 92.7598 69.7194L71.9999 81.7194C71.3999 82.0794 70.9199 81.8394 70.9199 81.1194V66.8394C70.9199 66.2394 71.3999 65.3994 71.9999 65.0394L92.7598 53.0394Z" fill="#07828B"/>
<path opacity="0.3" d="M91.92 59.6396C91.92 60.9596 91.2 62.3996 90.24 62.9996C89.28 63.5996 88.56 62.9996 88.56 61.6796C88.56 60.3596 89.28 58.9196 90.24 58.3196C91.2 57.7196 91.92 58.3196 91.92 59.6396ZM91.32 59.9996C91.32 59.1596 90.84 58.7995 90.24 59.1595C89.64 59.5195 89.16 60.4796 89.16 61.3196C89.16 62.1596 89.64 62.5195 90.24 62.1595C90.84 61.6795 91.32 60.7196 91.32 59.9996Z" fill="#67B6DE"/>
<path opacity="0.3" d="M91.92 65.2797C91.92 66.5997 91.2 68.0397 90.24 68.6397C89.28 69.2397 88.56 68.6397 88.56 67.3197C88.56 65.9997 89.28 64.5597 90.24 63.9597C91.2 63.3597 91.92 63.9597 91.92 65.2797ZM91.32 65.6397C91.32 64.7997 90.84 64.4397 90.24 64.7997C89.64 65.1597 89.16 66.1197 89.16 66.9597C89.16 67.7997 89.64 68.1597 90.24 67.7997C90.84 67.3197 91.32 66.4797 91.32 65.6397Z" fill="#67B6DE"/>
<path opacity="0.8" d="M91.92 65.2794C91.92 66.5994 91.08 68.0393 90.24 68.5193C89.28 69.1193 88.56 68.5194 88.56 67.1994C88.56 65.8794 89.28 64.4394 90.24 63.8394V64.6794C89.64 65.0394 89.16 65.9994 89.16 66.8394C89.16 67.6794 89.64 68.0394 90.24 67.6794C90.84 67.3194 91.32 66.3594 91.32 65.6394L91.92 65.2794Z" fill="white"/>
<path d="M89.16 61.1997C89.16 62.0397 89.64 62.3997 90.24 62.0397V62.8797C89.28 63.4797 88.56 62.8797 88.56 61.5597C88.56 60.2397 89.28 58.7997 90.24 58.1997V59.0397C89.64 59.5197 89.16 60.3597 89.16 61.1997Z" fill="url(#paint9_linear_46_5062)"/>
<path d="M75.96 75.5993L77.16 68.3993C77.4 67.1993 78.48 66.5993 78.72 67.5593C79.08 68.9993 80.52 68.8793 81.48 67.1993L82.32 65.7593C82.56 65.2793 83.04 65.1593 83.16 65.3993L85.92 69.8393L75.96 75.5993Z" fill="url(#paint10_linear_46_5062)"/>
<path opacity="0.8" d="M86.76 69.3596L74.28 76.5596L75.24 73.0796C75.6 71.9996 76.56 71.2796 76.92 71.9996L77.16 72.4796C77.4 72.9596 78 72.4796 78.24 71.8796L79.92 66.2396C80.28 65.1596 81.24 64.5596 81.6 65.2796L82.8 67.6796C83.04 68.1596 83.64 67.7996 83.88 67.1996C84.24 66.1196 85.2 65.6396 85.56 66.4796L86.76 69.3596Z" fill="white"/>
<defs>
<linearGradient id="paint0_linear_46_5062" x1="3.76113" y1="93.6901" x2="116.126" y2="93.6901" gradientUnits="userSpaceOnUse">
<stop stop-color="#437262"/>
<stop offset="1" stop-color="#1E3F3D"/>
</linearGradient>
<linearGradient id="paint1_linear_46_5062" x1="22.4674" y1="64.9742" x2="97.4193" y2="64.9742" gradientUnits="userSpaceOnUse">
<stop offset="0.3375" stop-color="#82DAE1"/>
<stop offset="0.5932" stop-color="#E8FFFC"/>
</linearGradient>
<linearGradient id="paint2_linear_46_5062" x1="97.1317" y1="37.559" x2="22.7552" y2="30.8073" gradientUnits="userSpaceOnUse">
<stop stop-color="white"/>
<stop offset="1" stop-color="#C9F4DF"/>
</linearGradient>
<linearGradient id="paint3_linear_46_5062" x1="88.1087" y1="36.6907" x2="31.778" y2="31.5773" gradientUnits="userSpaceOnUse">
<stop stop-color="white"/>
<stop offset="1" stop-color="#C9D9F4"/>
</linearGradient>
<linearGradient id="paint4_linear_46_5062" x1="49.9545" y1="58.4431" x2="35.5546" y2="89.4455" gradientUnits="userSpaceOnUse">
<stop stop-color="#97E1DA"/>
<stop offset="1" stop-color="#E8FEFF"/>
</linearGradient>
<linearGradient id="paint5_linear_46_5062" x1="51.6704" y1="60.9267" x2="26.7462" y2="75.3166" gradientUnits="userSpaceOnUse">
<stop stop-color="white"/>
<stop offset="1" stop-color="white" stop-opacity="0.2"/>
</linearGradient>
<linearGradient id="paint6_linear_46_5062" x1="83.3118" y1="34.4599" x2="85.9756" y2="34.4599" gradientUnits="userSpaceOnUse">
<stop stop-color="#0E4F54"/>
<stop offset="0.6426" stop-color="#4ACAD3"/>
</linearGradient>
<linearGradient id="paint7_linear_46_5062" x1="79.3924" y1="36.7422" x2="82.0562" y2="36.7422" gradientUnits="userSpaceOnUse">
<stop stop-color="#0E5054"/>
<stop offset="0.6426" stop-color="#4ACAD4"/>
</linearGradient>
<linearGradient id="paint8_linear_46_5062" x1="61.8928" y1="23.0355" x2="80.4434" y2="15.3273" gradientUnits="userSpaceOnUse">
<stop stop-color="#04474C"/>
<stop offset="0.6426" stop-color="#07828B"/>
</linearGradient>
<linearGradient id="paint9_linear_46_5062" x1="87.2086" y1="64.4791" x2="90.0886" y2="60.5827" gradientUnits="userSpaceOnUse">
<stop stop-color="#FF8000"/>
<stop offset="1" stop-color="#FFD000"/>
</linearGradient>
<linearGradient id="paint10_linear_46_5062" x1="73.679" y1="80.2533" x2="82.8837" y2="66.9262" gradientUnits="userSpaceOnUse">
<stop stop-color="#FF8000"/>
<stop offset="1" stop-color="#FFD000"/>
</linearGradient>
</defs>
</svg>
