<svg width="61" height="60" viewBox="0 0 61 60" fill="none" xmlns="http://www.w3.org/2000/svg">
<circle cx="30" cy="30" r="30" fill="#E5E7EB"/>
<path fill-rule="evenodd" clip-rule="evenodd" d="M20.3591 23.2176C16.6619 22.3608 14.3867 20.7732 14.3867 19.056C14.3831 16.4028 19.7327 14.25 26.3315 14.25C32.9267 14.25 38.2763 16.4028 38.2763 19.056C38.2763 20.7732 36.0011 22.3572 32.3039 23.2176C28.6103 24.078 24.0563 24.078 20.3591 23.2176ZM37.5563 27.0192C34.3019 27.1344 32.4407 28.1964 30.7271 29.5176C29.2907 29.7948 28.0631 29.856 26.3279 29.8524C19.7399 29.8524 14.3831 27.696 14.3831 25.0248V20.8812C14.3831 23.5308 19.8875 25.6872 26.3927 25.6872C32.8979 25.6872 38.1683 23.592 38.3375 21.0036V25.3632C38.2979 26.0868 38.1143 26.5512 37.5563 27.0192ZM14.3867 30.8244V26.6863C14.3903 29.4197 19.7443 31.5696 26.3315 31.5696C27.3611 31.5696 28.0955 31.5012 29.1179 31.3896C28.0991 32.6388 27.3107 34.176 27.2027 35.6304H26.3315C19.7435 35.6304 14.3867 33.4776 14.3867 30.8244ZM14.3579 32.682C14.3579 35.4108 19.6967 37.4808 26.3171 37.4808H27.0695C27.0695 39.0756 27.2819 40.4148 27.9659 41.6208H26.3171C19.7219 41.6208 14.3579 39.468 14.3579 36.8184V32.682Z" fill="#07828B"/>
<path fill-rule="evenodd" clip-rule="evenodd" d="M35.2657 45.2294C39.7502 46.3476 44.2917 43.6187 45.4095 39.1347L45.4095 39.1348C46.5275 34.6506 43.7988 30.1083 39.3146 28.9904C34.8315 27.8726 30.2899 30.6016 29.1725 35.0861C28.0542 39.5697 30.783 44.1115 35.2657 45.2294ZM39.1407 33.8054C40.3003 34.2048 41.1484 34.8036 40.9818 35.9174L40.9818 35.9174L40.9821 35.9176C40.8616 36.7329 40.4095 37.1277 39.8094 37.2661C40.6334 37.6951 41.0527 38.3529 40.6532 39.4935C40.1576 40.9101 38.9799 41.0296 37.4137 40.7332L37.0337 42.2564L36.1152 42.0276L36.4903 40.5248C36.2522 40.4656 36.009 40.4028 35.7584 40.3348L35.382 41.8447L34.4646 41.6159L34.8446 40.0897C34.7564 40.0672 34.6676 40.044 34.5781 40.0207C34.4501 39.9873 34.3207 39.9536 34.1898 39.9208L32.9946 39.6228L33.4506 38.5715C33.4506 38.5715 34.1273 38.7514 34.1181 38.7381C34.3782 38.8025 34.4935 38.6329 34.539 38.5199L35.1396 36.1119C35.1638 36.1177 35.1873 36.1236 35.21 36.1293L35.2101 36.1293L35.2367 36.136C35.2 36.1212 35.1668 36.1118 35.1412 36.1053L35.5697 34.3864C35.5809 34.1912 35.5136 33.945 35.1417 33.8522C35.1561 33.8426 34.4746 33.6864 34.4746 33.6864L34.719 32.7054L35.9855 33.0217L35.9845 33.0264C36.1749 33.0738 36.3711 33.1188 36.5709 33.1643L36.9473 31.6559L37.8652 31.8848L37.4964 33.3636C37.7428 33.4199 37.9908 33.4766 38.2323 33.5368L38.5985 32.0677L39.5169 32.2966L39.1407 33.8054ZM36.2356 39.2759C36.985 39.4739 38.6229 39.9065 38.8833 38.8601H38.8834C39.1501 37.7902 37.5619 37.4338 36.7868 37.2599C36.7001 37.2404 36.6235 37.2232 36.5609 37.2076L36.0566 39.2295C36.1079 39.2422 36.168 39.2581 36.2353 39.2758L36.2355 39.2759L36.2356 39.2759ZM39.1674 35.9009C38.93 36.852 37.5671 36.4882 36.9423 36.3215L36.9422 36.3215C36.8855 36.3063 36.8348 36.2928 36.7917 36.2821L37.249 34.4484C37.3014 34.4614 37.3656 34.4756 37.4384 34.4918C38.0853 34.635 39.4099 34.9282 39.1675 35.9009H39.1674Z" fill="#F0BA30"/>
</svg>
