<svg width="61" height="60" viewBox="0 0 61 60" fill="none" xmlns="http://www.w3.org/2000/svg">
<circle cx="30" cy="30" r="30" fill="#1A1A1A"/>
<path d="M14.3579 32.6816C14.3579 35.4104 19.6966 37.4804 26.3169 37.4805H27.0698C27.0698 39.0753 27.2823 40.4151 27.9663 41.6211H26.3169C19.7218 41.6211 14.3579 39.4679 14.3579 36.8184V32.6816ZM14.3862 26.6807C14.3826 29.4167 19.7399 31.5693 26.3315 31.5693C27.361 31.5693 28.0954 31.5012 29.1177 31.3896C28.0989 32.6388 27.3106 34.1765 27.2026 35.6309H26.3315C19.7435 35.6309 14.3862 33.4774 14.3862 30.8242V26.6807ZM14.3833 20.8809C14.3833 23.5305 19.8879 25.6875 26.3931 25.6875C32.8978 25.6874 38.1678 23.5921 38.3374 21.0039V25.3633C38.2978 26.0868 38.1141 26.5516 37.5562 27.0195C34.3018 27.1348 32.4406 28.1964 30.7271 29.5176C29.2907 29.7948 28.0628 29.8561 26.3276 29.8525C19.7397 29.8525 14.3833 27.6956 14.3833 25.0244V20.8809ZM26.3315 14.25C32.9264 14.25 38.2754 16.4026 38.2759 19.0557C38.2759 20.7728 36.0012 22.3574 32.3042 23.2178C28.6106 24.0782 24.0561 24.0782 20.3589 23.2178C16.6617 22.361 14.3862 20.7728 14.3862 19.0557C14.3831 16.4026 19.733 14.25 26.3315 14.25Z" fill="#07828B"/>
<path d="M29.172 35.0864C30.2893 30.6019 34.8314 27.8728 39.3145 28.9907C43.7986 30.1086 46.5272 34.6511 45.4093 39.1352L45.295 39.5503C44.008 43.7857 39.6099 46.3129 35.2657 45.2299C30.7832 44.1121 28.0538 39.5699 29.172 35.0864ZM36.5704 33.1645C36.3708 33.1191 36.1747 33.0742 35.9845 33.0268L35.9854 33.0219L34.7188 32.7055L34.4747 33.687C34.4924 33.691 35.1438 33.8401 35.1417 33.852C35.5133 33.9448 35.5805 34.1911 35.5694 34.3862L35.1407 36.1049C35.1663 36.1115 35.1998 36.1215 35.2364 36.1362L35.21 36.1294C35.1875 36.1237 35.1638 36.1176 35.1397 36.1118L34.5391 38.52C34.4937 38.633 34.3781 38.802 34.1182 38.7378C34.1274 38.7511 33.4503 38.5717 33.4503 38.5717L32.9942 39.6225L34.1895 39.9214C34.3204 39.9542 34.4502 39.9876 34.5782 40.021C34.6675 40.0443 34.7567 40.0678 34.8448 40.0903L34.4639 41.6157L35.3819 41.8452L35.7579 40.3344C36.0085 40.4025 36.2522 40.4657 36.4903 40.5249L36.1153 42.0278L37.0333 42.2563L37.4132 40.7329C38.9794 41.0293 40.1577 40.9102 40.6534 39.4936C41.0527 38.3533 40.6334 37.6951 39.8096 37.2661C40.4096 37.1276 40.861 36.7326 40.9815 35.9174C41.1481 34.8037 40.3003 34.2046 39.1407 33.8051L39.5167 32.2964L38.5987 32.0678L38.2325 33.5366C37.991 33.4764 37.7426 33.42 37.4962 33.3637L37.8653 31.8852L36.9473 31.6557L36.5704 33.1645ZM36.7862 37.2602C37.5613 37.4342 39.1493 37.7902 38.8829 38.8598C38.6225 39.9062 36.9848 39.4738 36.2354 39.2758C36.1682 39.2581 36.108 39.2427 36.0567 39.2299L36.5606 37.2075C36.6232 37.2231 36.6996 37.2408 36.7862 37.2602ZM37.4386 34.4917C38.0856 34.6349 39.4093 34.9284 39.1671 35.9008C38.9298 36.8517 37.5674 36.4885 36.9425 36.3217C36.8857 36.3066 36.8343 36.2925 36.7911 36.2817L37.2491 34.4487C37.3015 34.4617 37.366 34.4756 37.4386 34.4917Z" fill="#F0BA30"/>
</svg>
