<svg width="60" height="60" viewBox="0 0 60 60" fill="none" xmlns="http://www.w3.org/2000/svg">
<circle cx="30" cy="30" r="30" fill="#1A1A1A"/>
<circle cx="21.7652" cy="38.2354" r="11.2092" fill="#EDF0F4" stroke="#3D3D3D" stroke-width="1.11111"/>
<path d="M21.7332 31.1765L21.6396 31.4944V40.7183L21.7332 40.8116L26.0148 38.2808L21.7332 31.1765Z" fill="#343434"/>
<path d="M21.7333 31.1765L17.4517 38.2808L21.7333 40.8116V36.3346V31.1765Z" fill="#8C8C8C"/>
<path d="M21.7334 41.6223L21.6807 41.6866V44.9723L21.7334 45.1263L26.0176 39.0928L21.7334 41.6223Z" fill="#3C3C3B"/>
<path d="M21.7333 45.1263V41.6223L17.4517 39.0928L21.7333 45.1263Z" fill="#8C8C8C"/>
<path d="M21.7334 40.8115L26.0149 38.2806L21.7334 36.3345V40.8115Z" fill="#141414"/>
<path d="M17.4517 38.2806L21.7333 40.8115V36.3345L17.4517 38.2806Z" fill="#393939"/>
<path d="M38.2339 27.0264C44.424 27.0266 49.4419 32.046 49.4419 38.2363C49.4417 44.4253 44.424 49.4433 38.2319 49.4443C32.0446 49.4443 27.0261 44.4256 27.0269 38.2354V38.2344C27.0253 32.0443 32.0436 27.0264 38.2339 27.0264Z" fill="#EAB300" stroke="#3D3D3D" stroke-width="1.11111"/>
<path fill-rule="evenodd" clip-rule="evenodd" d="M42.8623 35.354C42.7107 33.7784 41.3507 33.2504 39.632 33.0998V30.9133H38.3021V33.0414C37.9529 33.0414 37.5952 33.048 37.2404 33.0555V30.9133H35.9105L35.9095 33.0979L35.8953 33.0982C35.6121 33.1037 35.3336 33.1092 35.0624 33.1092V33.1026L33.228 33.1017V34.5229C33.228 34.5229 34.2106 34.5041 34.1937 34.5219C34.733 34.5219 34.9081 34.8344 34.9589 35.1046V37.595C34.9965 37.595 35.0445 37.5969 35.0991 37.6044H34.9589L34.9579 41.0935C34.9344 41.2629 34.8346 41.533 34.4582 41.534C34.4751 41.5491 33.4915 41.534 33.4915 41.534L33.2271 43.1228H34.9589C35.1541 43.1228 35.3477 43.1248 35.5391 43.1269C35.6632 43.1282 35.7864 43.1295 35.9086 43.1303L35.9095 45.3412H37.2385V43.1538C37.6028 43.1614 37.9557 43.1642 38.3011 43.1642L38.3002 45.3412H39.6301V43.135C41.8665 43.007 43.4336 42.4432 43.6275 40.3424C43.7847 38.6511 42.9893 37.8953 41.7196 37.5903C42.4924 37.1988 42.9752 36.507 42.8623 35.354ZM41.0006 40.0807C41.0006 41.598 38.6145 41.5636 37.5261 41.5479C37.4296 41.5465 37.3432 41.5453 37.2696 41.5453V38.6153C37.3616 38.6155 37.4735 38.613 37.6003 38.6101H37.6004C38.7191 38.585 41.0006 38.5338 41.0006 40.0807ZM37.4921 37.2784C38.4028 37.2928 40.3813 37.324 40.3813 35.9479C40.3821 34.5395 38.4756 34.5899 37.5435 34.6146C37.4385 34.6174 37.3458 34.6198 37.2696 34.6198V37.2759C37.3331 37.2759 37.4081 37.2771 37.4921 37.2784Z" fill="white"/>
<path d="M34.9609 37.5366H35.1586V37.6825H34.9609V37.5366Z" fill="white"/>
<path d="M19.1274 19.0547C20.6238 13.0491 26.7059 9.39362 32.7095 10.8906C38.5268 12.3409 42.1377 18.0953 40.9966 23.9131L40.8716 24.4766C39.3744 30.4812 33.2922 34.1351 27.2866 32.6377C21.284 31.1405 17.6299 25.0588 19.1274 19.0547Z" fill="#50AF95" stroke="#3D3D3D" stroke-width="1.11111"/>
<path fill-rule="evenodd" clip-rule="evenodd" d="M31.4892 23.0984C31.4061 23.1046 30.9763 23.1303 30.0175 23.1303C29.255 23.1303 28.7136 23.1074 28.5236 23.0984C25.5767 22.9688 23.3771 22.4558 23.3771 21.8416C23.3771 21.2274 25.5767 20.7151 28.5236 20.5834V22.5875C28.7163 22.6013 29.2681 22.6339 30.0307 22.6339C30.9457 22.6339 31.404 22.5958 31.4865 22.5882V20.5848C34.4271 20.7158 36.6219 21.2288 36.6219 21.8416C36.6219 22.4544 34.4278 22.9674 31.4865 23.0977L31.4892 23.0984ZM31.4892 20.3775V18.5841H35.5931V15.8494H24.4197V18.5841H28.5229V20.3768C25.1878 20.53 22.6797 21.1907 22.6797 21.9823C22.6797 22.774 25.1878 23.4339 28.5229 23.5878V29.3347H31.4885V23.5858C34.816 23.4326 37.3199 22.7726 37.3199 21.9816C37.3199 21.1907 34.8181 20.5307 31.4885 20.3768L31.4892 20.3775Z" fill="white"/>
</svg>
