<svg width="120" height="120" viewBox="0 0 120 120" fill="none" xmlns="http://www.w3.org/2000/svg">
<g opacity="0.4">
<path d="M110.88 79.5599C117.96 83.6399 117.96 90.2399 111 94.3199L72.8402 116.4C65.8802 120.48 54.4802 120.48 47.4002 116.4L9.1202 94.3199C2.0402 90.2399 2.0402 83.6399 9.0002 79.5599L47.0402 57.4799C54.0002 53.3999 65.4002 53.3999 72.4802 57.4799L110.88 79.5599Z" fill="#000909"/>
</g>
<path d="M116.16 75.7197H3.84021V79.6797C3.84021 82.3197 5.64021 84.9597 9.12021 86.9997L47.4002 109.08C54.4802 113.16 65.8802 113.16 72.8402 109.08L110.88 86.9997C114.36 84.9597 116.16 82.3197 116.16 79.6797V75.7197Z" fill="url(#paint0_linear_46_5216)"/>
<path d="M110.88 68.2796C117.96 72.3597 117.96 78.9596 111 83.0396L72.8401 105.24C65.8801 109.32 54.4801 109.32 47.4001 105.24L9.12014 83.0396C2.04014 78.9596 2.04014 72.3597 9.00014 68.2796L47.0401 46.1996C54.0001 42.1196 65.4001 42.1196 72.4801 46.1996L110.88 68.2796Z" fill="#152C2D"/>
<path opacity="0.3" d="M99.6001 69.96C105.12 73.08 105.12 78.24 99.7201 81.48L70.0801 98.64C64.6801 101.76 55.8001 101.76 50.2801 98.64L20.4001 81.48C14.8801 78.36 14.8801 73.2 20.4001 69.96L49.9201 52.8C55.3201 49.68 64.2001 49.68 69.7201 52.8L99.6001 69.96Z" stroke="#07828B" stroke-width="0.6" stroke-miterlimit="10"/>
<path d="M65.6241 50.311C65.6292 48.5216 63.1082 47.0639 59.9933 47.055C56.8784 47.0462 54.3492 48.4896 54.3441 50.279C54.3391 52.0684 56.8601 53.5262 59.975 53.535C63.0898 53.5439 65.6191 52.1004 65.6241 50.311Z" fill="#A6CEFC"/>
<path d="M55.3203 47.0396V50.0396C55.3203 50.7596 55.8003 51.4795 56.7603 51.9595C58.5603 53.0395 61.5603 53.0395 63.4803 51.9595C64.4403 51.4795 64.8003 50.7596 64.8003 50.0396V47.0396H55.3203Z" fill="url(#paint1_linear_46_5216)"/>
<path d="M62.5203 45.5997C63.9603 46.4397 63.9603 47.7597 62.5203 48.4797C61.0803 49.3197 58.9203 49.3197 57.4803 48.4797C56.0403 47.6397 56.0403 46.3197 57.4803 45.5997C58.8003 44.7597 61.0803 44.7597 62.5203 45.5997Z" fill="url(#paint2_linear_46_5216)"/>
<path d="M63.5406 47.3491C63.5438 46.2224 61.9346 45.3045 59.9463 45.2989C57.9581 45.2932 56.3438 46.202 56.3406 47.3287C56.3374 48.4553 57.9466 49.3732 59.9348 49.3789C61.923 49.3845 63.5374 48.4757 63.5406 47.3491Z" fill="#0CFFFC"/>
<path d="M63.3602 45.1196C61.5602 44.0396 58.5602 44.0396 56.6402 45.1196C54.8402 46.1996 54.8402 47.8796 56.6402 48.9596C58.4402 50.0396 61.4402 50.0396 63.3602 48.9596C65.1602 47.8796 65.1602 46.1996 63.3602 45.1196ZM62.5202 48.4796C61.0802 49.3196 58.9202 49.3196 57.4802 48.4796C56.0402 47.6396 56.0402 46.3196 57.4802 45.5996C58.9202 44.7596 61.0802 44.7596 62.5202 45.5996C63.9602 46.4396 63.9602 47.7596 62.5202 48.4796Z" fill="#BCD0F1"/>
<path d="M63.6001 35.6396H56.4001V47.0396C56.4001 47.6396 56.7601 48.1196 57.4801 48.5996C58.9201 49.4396 61.2001 49.4396 62.5201 48.5996C63.2401 48.2396 63.6001 47.6396 63.6001 47.1596V35.6396Z" fill="url(#paint3_linear_46_5216)"/>
<path d="M108.545 75.2593C108.55 73.4699 106.029 72.0121 102.915 72.0033C99.7996 71.9944 97.2704 73.4379 97.2653 75.2273C97.2603 77.0167 99.7813 78.4744 102.896 78.4833C106.011 78.4921 108.54 77.0487 108.545 75.2593Z" fill="#07828B"/>
<path d="M98.2801 72V75C98.2801 75.72 98.7601 76.44 99.7201 76.92C101.52 78 104.52 78 106.44 76.92C107.4 76.44 107.76 75.72 107.76 75V72H98.2801Z" fill="url(#paint4_linear_46_5216)"/>
<path d="M105.48 70.5602C106.92 71.4002 106.92 72.7202 105.48 73.4402C104.04 74.2802 101.88 74.2802 100.44 73.4402C99.0001 72.6002 99.0001 71.2802 100.44 70.5602C101.76 69.7202 104.04 69.7202 105.48 70.5602Z" fill="url(#paint5_linear_46_5216)"/>
<path d="M106.582 72.2973C106.585 71.1706 104.976 70.2527 102.987 70.2471C100.999 70.2415 99.3848 71.1502 99.3816 72.2769C99.3784 73.4035 100.988 74.3215 102.976 74.3271C104.964 74.3327 106.578 73.424 106.582 72.2973Z" fill="#0CFFFC"/>
<path d="M106.2 70.08C104.4 69 101.4 69 99.4801 70.08C97.6801 71.16 97.6801 72.84 99.4801 73.92C101.28 75 104.28 75 106.2 73.92C108.12 72.96 108.12 71.16 106.2 70.08ZM105.48 73.56C104.04 74.4 101.88 74.4 100.44 73.56C99.0001 72.72 99.0001 71.4 100.44 70.68C101.88 69.84 104.04 69.84 105.48 70.68C106.8 71.4 106.8 72.72 105.48 73.56Z" fill="#25CEDA"/>
<path d="M106.56 60.6001H99.3601V72.0001C99.3601 72.6001 99.7201 73.0801 100.44 73.5601C101.88 74.4001 104.16 74.4001 105.48 73.5601C106.2 73.2001 106.56 72.6001 106.56 72.1201V60.6001Z" fill="url(#paint6_linear_46_5216)"/>
<path d="M22.6762 75.3105C22.6813 73.5211 20.1603 72.0634 17.0454 72.0545C13.9305 72.0457 11.4013 73.4892 11.3962 75.2786C11.3911 77.068 13.9121 78.5257 17.027 78.5345C20.1419 78.5434 22.6711 77.0999 22.6762 75.3105Z" fill="#07828B"/>
<path d="M12.36 72V75C12.36 75.72 12.84 76.44 13.8 76.92C15.6 78 18.6 78 20.52 76.92C21.48 76.44 21.84 75.72 21.84 75V72H12.36Z" fill="url(#paint7_linear_46_5216)"/>
<path d="M19.5601 70.5602C21.0001 71.4002 21.0001 72.7202 19.5601 73.4402C18.1201 74.2802 15.9601 74.2802 14.5201 73.4402C13.0801 72.6002 13.0801 71.2802 14.5201 70.5602C15.9601 69.7202 18.2401 69.7202 19.5601 70.5602Z" fill="url(#paint8_linear_46_5216)"/>
<path d="M20.7125 72.3491C20.7157 71.2224 19.1065 70.3045 17.1183 70.2989C15.1301 70.2932 13.5157 71.202 13.5125 72.3287C13.5093 73.4553 15.1185 74.3732 17.1067 74.3789C19.0949 74.3845 20.7093 73.4757 20.7125 72.3491Z" fill="#0CFFFC"/>
<path d="M20.4001 70.08C18.6001 69 15.6001 69 13.6801 70.08C11.8801 71.16 11.8801 72.84 13.6801 73.92C15.4801 75 18.4801 75 20.4001 73.92C22.2001 72.96 22.2001 71.16 20.4001 70.08ZM19.5601 73.56C18.1201 74.4 15.9601 74.4 14.5201 73.56C13.0801 72.72 13.0801 71.4 14.5201 70.68C15.9601 69.84 18.1201 69.84 19.5601 70.68C21.0001 71.4 21.0001 72.72 19.5601 73.56Z" fill="#25CEDA"/>
<path d="M20.6401 60.6001H13.4401V72.0001C13.4401 72.6001 13.8001 73.0801 14.5201 73.5601C15.9601 74.4001 18.2401 74.4001 19.5601 73.5601C20.2801 73.2001 20.6401 72.6001 20.6401 72.1201V60.6001Z" fill="url(#paint9_linear_46_5216)"/>
<path d="M91.4401 67.7998H28.5601V74.8798C28.5601 76.3198 29.5201 77.8798 31.5601 78.9598L53.0401 91.3198C57.0001 93.5998 63.3601 93.5998 67.3201 91.3198L88.6801 78.9598C90.6001 77.7598 91.5601 76.3198 91.5601 74.8798V67.7998H91.4401Z" fill="url(#paint10_linear_46_5216)"/>
<path d="M88.5601 63.7199C92.5201 65.9999 92.5201 69.7199 88.5601 71.9999L67.2001 84.3599C63.2401 86.6399 56.8801 86.6399 52.9201 84.3599L31.4401 71.9999C27.4801 69.7199 27.4801 65.9999 31.4401 63.7199L52.8001 51.3599C56.7601 49.0799 63.1201 49.0799 67.0801 51.3599L88.5601 63.7199Z" fill="#23A6B0"/>
<path d="M59.8801 49.5601V50.1601C62.5201 50.1601 64.9201 50.7601 66.7201 51.8401L88.2001 64.2001C89.8801 65.1601 90.8401 66.4801 90.8401 67.8001C90.8401 69.1201 89.8801 70.4401 88.2001 71.4001L66.9601 83.8801C65.1601 84.9601 62.7601 85.5601 60.1201 85.5601C57.4801 85.5601 55.0801 84.9601 53.2801 83.8801L31.8001 71.4001C30.1201 70.4401 29.1601 69.1201 29.1601 67.8001C29.1601 66.4801 30.1201 65.1601 31.8001 64.2001L53.1601 51.8401C54.9601 50.7601 57.3601 50.1601 60.0001 50.1601V49.5601M59.8801 49.5601C57.2401 49.5601 54.7201 50.1601 52.8001 51.2401L31.4401 63.7201C27.4801 66.0001 27.4801 69.7201 31.4401 72.0001L52.9201 84.3601C54.8401 85.5601 57.4801 86.0401 60.1201 86.0401C62.7601 86.0401 65.2801 85.4401 67.2001 84.3601L88.5601 72.0001C92.5201 69.7201 92.5201 66.0001 88.5601 63.7201L67.0801 51.3601C65.0401 50.1601 62.5201 49.5601 59.8801 49.5601Z" fill="url(#paint11_linear_46_5216)"/>
<path d="M91.4401 38.6396H28.5601V62.2796C28.5601 63.7197 29.5201 65.2796 31.5601 66.3596L53.0401 78.7196C57.0001 80.9996 63.3601 80.9996 67.3201 78.7196L88.6801 66.3596C90.6001 65.1596 91.5601 63.7197 91.5601 62.2796V38.6396H91.4401Z" fill="url(#paint12_linear_46_5216)"/>
<path d="M88.5601 34.5596C92.5201 36.8396 92.5201 40.5596 88.5601 42.8396L67.2001 55.1996C63.2401 57.4796 56.8801 57.4796 52.9201 55.1996L31.4401 42.7196C27.4801 40.4396 27.4801 36.7196 31.4401 34.4396L52.8001 22.0796C56.7601 19.7996 63.1201 19.7996 67.0801 22.0796L88.5601 34.5596Z" fill="#1EABB6"/>
<path d="M59.8801 20.3999V20.9999C62.5201 20.9999 64.9201 21.5999 66.7201 22.6799L88.2001 35.0399C89.8801 35.9999 90.8401 37.3199 90.8401 38.6399C90.8401 39.9599 89.8801 41.2799 88.2001 42.2399L66.9601 54.5999C65.1601 55.6799 62.7601 56.2799 60.1201 56.2799C57.4801 56.2799 55.0801 55.6799 53.2801 54.5999L31.8001 42.2399C30.1201 41.2799 29.1601 39.9599 29.1601 38.6399C29.1601 37.3199 30.1201 35.9999 31.8001 35.0399L53.1601 22.6799C54.9601 21.5999 57.3601 20.9999 60.0001 20.9999V20.3999M59.8801 20.3999C57.2401 20.3999 54.7201 20.9999 52.8001 22.0799L31.4401 34.5599C27.4801 36.8399 27.4801 40.5599 31.4401 42.8399L52.9201 55.1999C54.8401 56.3999 57.4801 56.8799 60.1201 56.8799C62.7601 56.8799 65.2801 56.2799 67.2001 55.1999L88.5601 42.8399C92.5201 40.5599 92.5201 36.8399 88.5601 34.5599L67.0801 22.0799C65.0401 20.9999 62.5201 20.3999 59.8801 20.3999Z" fill="url(#paint13_linear_46_5216)"/>
<path opacity="0.2" d="M94.4401 33.5999C99.2401 36.3599 99.2401 40.7999 94.5601 43.5599L68.7601 58.5599C63.9601 61.3199 56.2801 61.3199 51.4801 58.5599L25.5601 43.6799C20.7601 40.9199 20.7601 36.4799 25.5601 33.7199L51.3601 18.7199C56.0401 15.9599 63.8401 15.9599 68.6401 18.7199L94.4401 33.5999Z" stroke="#10D4E3" stroke-width="0.6" stroke-miterlimit="10"/>
<path d="M74.7601 36.4801C76.8001 37.6801 76.8001 39.6001 74.7601 40.8001L63.7201 47.2801C61.6801 48.4801 58.3201 48.4801 56.2801 47.2801L45.2401 40.8001C43.2001 39.6001 43.2001 37.6801 45.2401 36.4801L56.2801 30.0001C58.3201 28.8001 61.6801 28.8001 63.7201 30.0001L74.7601 36.4801Z" fill="url(#paint14_linear_46_5216)"/>
<path d="M60.0001 29.1599C61.3201 29.1599 62.6401 29.3999 63.7201 29.9999L74.8801 36.4799C76.9201 37.6799 76.9201 39.5999 74.8801 40.7999L63.8401 47.2799C62.8801 47.8799 61.4401 48.1199 60.1201 48.1199C58.8001 48.1199 57.4801 47.8799 56.4001 47.2799L45.2401 40.7999C43.2001 39.5999 43.2001 37.6799 45.2401 36.4799L56.2801 29.9999C57.2401 29.5199 58.5601 29.1599 60.0001 29.1599ZM60.0001 28.9199C58.5601 28.9199 57.2401 29.2799 56.1601 29.8799L45.1201 36.3599C44.0401 36.9599 43.4401 37.7999 43.4401 38.7599C43.4401 39.7199 44.0401 40.5599 45.1201 41.1599L56.2801 47.6399C57.3601 48.2399 58.6801 48.5999 60.1201 48.5999C61.5601 48.5999 62.8801 48.2399 63.9601 47.6399L75.0001 41.1599C76.0801 40.5599 76.6801 39.7199 76.6801 38.7599C76.6801 37.7999 76.0801 36.9599 75.0001 36.3599L63.8401 29.8799C62.7601 29.2799 61.4401 28.9199 60.0001 28.9199Z" fill="url(#paint15_linear_46_5216)"/>
<path d="M76.3201 10.4399C76.3201 9.7199 75.8401 8.8799 74.7601 8.2799L63.6001 1.7999C61.5601 0.599902 58.2001 0.599902 56.1601 1.7999L45.1201 8.2799C44.1601 8.8799 43.5601 9.5999 43.5601 10.4399V38.6399C43.5601 39.3599 44.0401 40.1999 45.1201 40.7999L56.2801 47.2799C58.3201 48.4799 61.6801 48.4799 63.7201 47.2799L74.7601 40.7999C75.7201 40.1999 76.3201 39.4799 76.3201 38.6399V10.4399Z" fill="url(#paint16_linear_46_5216)"/>
<path opacity="0.3" d="M52.5601 12.8398H52.8001C52.9201 12.8398 52.9201 12.8398 52.9201 12.9598V21.5998C52.9201 21.5998 52.9201 21.7198 52.8001 21.7198H52.4401C52.4401 21.7198 52.3201 21.7198 52.3201 21.5998V12.9598C52.4401 12.9598 52.5601 12.8398 52.5601 12.8398Z" fill="url(#paint17_linear_46_5216)"/>
<path opacity="0.4" d="M73.6802 32.1597H73.9202C74.0402 32.1597 74.0402 32.1597 74.0402 32.2797V40.6797C74.0402 40.7997 74.0402 40.7997 73.9202 40.7997H73.6802C73.5602 40.7997 73.5602 40.7997 73.5602 40.6797V32.2797L73.6802 32.1597Z" fill="url(#paint18_linear_46_5216)"/>
<path opacity="0.5" d="M61.2001 22.68C61.3989 22.68 61.5601 22.5188 61.5601 22.32C61.5601 22.1211 61.3989 21.96 61.2001 21.96C61.0013 21.96 60.8401 22.1211 60.8401 22.32C60.8401 22.5188 61.0013 22.68 61.2001 22.68Z" fill="#FBDB45"/>
<path opacity="0.5" d="M46.5601 33.24C46.759 33.24 46.9201 33.0788 46.9201 32.88C46.9201 32.6812 46.759 32.52 46.5601 32.52C46.3613 32.52 46.2001 32.6812 46.2001 32.88C46.2001 33.0788 46.3613 33.24 46.5601 33.24Z" fill="white"/>
<path opacity="0.2" d="M60.9602 37.5598C61.159 37.5598 61.3202 37.3987 61.3202 37.1998C61.3202 37.001 61.159 36.8398 60.9602 36.8398C60.7613 36.8398 60.6002 37.001 60.6002 37.1998C60.6002 37.3987 60.7613 37.5598 60.9602 37.5598Z" fill="white"/>
<path opacity="0.2" d="M74.7601 26.0398C74.959 26.0398 75.1201 25.8786 75.1201 25.6798C75.1201 25.481 74.959 25.3198 74.7601 25.3198C74.5613 25.3198 74.4001 25.481 74.4001 25.6798C74.4001 25.8786 74.5613 26.0398 74.7601 26.0398Z" fill="white"/>
<path opacity="0.4" d="M63.0001 27.1196H63.2401C63.3601 27.1196 63.3601 27.2396 63.3601 27.2396V36.8396C63.3601 36.9596 63.2401 36.9596 63.2401 36.9596H63.0001C62.8801 36.9596 62.8801 36.8396 62.8801 36.8396V27.2396C62.7601 27.2396 62.8801 27.1196 63.0001 27.1196Z" fill="url(#paint19_linear_46_5216)"/>
<path d="M72.2401 14.2798L72.1201 29.6398L62.6401 24.1198V8.75977L72.2401 14.2798Z" fill="white"/>
<path d="M72.2401 14.2798L73.0801 13.7998V29.1598L72.1201 29.6398L72.2401 14.2798Z" fill="#CFD5EA"/>
<path d="M62.6401 8.75979L63.4801 8.27979L73.0801 13.7998L72.2401 14.2798L62.6401 8.75979Z" fill="#E6EBF4"/>
<path d="M68.8802 15.3597C69.0002 15.4797 69.1202 15.7197 69.1202 15.8397C69.1202 16.0797 69.0002 16.0797 68.8802 15.9597L63.8402 13.0797C63.7202 12.9597 63.6002 12.7197 63.6002 12.5997C63.6002 12.3597 63.7202 12.3597 63.8402 12.4797L68.8802 15.3597Z" fill="#9199B5"/>
<path d="M65.7602 15.4796C65.8802 15.5996 66.0002 15.8396 66.0002 15.9596C66.0002 16.1996 65.8802 16.1996 65.7602 16.0796L63.8402 14.9996C63.7202 14.8796 63.6002 14.6396 63.6002 14.5196C63.6002 14.2796 63.7202 14.2796 63.8402 14.3996L65.7602 15.4796Z" fill="#9199B5"/>
<path d="M70.5602 18.2396C70.6802 18.3596 70.8002 18.5996 70.8002 18.7196C70.8002 18.9596 70.6802 18.9596 70.5602 18.8396L66.7202 16.7996C66.6002 16.6796 66.4802 16.4396 66.4802 16.3196C66.4802 16.0796 66.6002 16.0796 66.7202 16.0796L70.5602 18.2396Z" fill="#9199B5"/>
<path d="M70.5603 20.3996C70.6803 20.5196 70.8003 20.7596 70.8003 20.8796C70.8003 21.1196 70.6803 21.1196 70.5603 20.9996L65.4003 17.9996C65.2803 17.8796 65.1603 17.6396 65.1603 17.5196C65.1603 17.2796 65.2803 17.2796 65.4003 17.3996L70.5603 20.3996Z" fill="#9199B5"/>
<path d="M70.5602 16.3197C70.6802 16.4397 70.8002 16.6797 70.8002 16.7997C70.8002 17.0397 70.6802 17.0397 70.5602 16.9197L69.9602 16.5597C69.8402 16.4397 69.7202 16.1997 69.7202 16.0797C69.7202 15.8397 69.8402 15.8397 69.9602 15.9597L70.5602 16.3197Z" fill="#9199B5"/>
<path d="M58.4402 21.8399L58.3202 32.5199L47.0402 25.9199V15.3599L58.4402 21.8399Z" fill="white"/>
<path d="M58.4402 21.8399L59.2802 21.3599L59.1602 31.9199L58.3202 32.5199L58.4402 21.8399Z" fill="#CFD5EA"/>
<path d="M47.0401 15.3599L47.8801 14.8799L59.2801 21.3599L58.4401 21.8399L47.0401 15.3599Z" fill="#E6EBF4"/>
<path d="M53.0401 22.4399C52.9201 22.4399 52.6801 22.4399 52.5601 22.5599C52.3201 22.6799 52.2001 22.7999 51.9601 23.0399C51.8401 23.1599 51.7201 23.3999 51.6001 23.5199C51.3601 23.8799 51.2402 24.1199 50.8802 24.3599C50.7602 24.4799 50.6401 24.5999 50.5201 24.5999C50.5201 24.5999 50.5201 24.5999 50.4001 24.5999C50.4001 24.4799 50.4002 24.4799 50.2802 24.3599C50.4002 24.3599 50.4002 24.1199 50.2802 23.9999C50.1602 23.8799 50.1601 23.7599 50.0401 23.7599L49.9201 23.6399C49.8001 23.6399 49.8002 23.6399 49.6802 23.6399C49.5602 23.6399 49.5601 23.6399 49.4401 23.6399C49.3201 23.6399 49.3201 23.7599 49.2001 23.7599C49.0801 23.8799 48.9601 23.9999 48.8401 24.1199C48.8401 24.2399 48.7201 24.2399 48.7201 24.3599C48.7201 24.4799 48.6001 24.4799 48.6001 24.5999C48.4801 24.5999 48.3601 24.5999 48.2401 24.4799C48.1201 24.3599 48.0002 24.4799 47.8802 24.5999C47.7602 24.7199 47.8801 24.8399 48.0001 24.9599C48.1201 25.0799 48.3601 25.0799 48.6001 25.0799C48.7201 25.0799 48.7201 25.0799 48.8401 25.0799C48.8401 25.0799 48.9601 25.0799 48.9601 24.9599C49.0801 24.9599 49.0801 24.8399 49.2001 24.7199C49.3201 24.5999 49.3201 24.4799 49.4401 24.4799C49.5601 24.3599 49.5602 24.3599 49.6802 24.2399H49.8001C49.8001 24.2399 49.9201 24.2399 49.9201 24.3599C50.0401 24.4799 50.0401 24.5999 50.1601 24.7199C50.1601 24.8399 50.2802 25.0799 50.2802 25.1999V25.3199L50.4001 25.4399C50.4001 25.4399 50.5201 25.4399 50.6401 25.4399C50.7601 25.4399 50.7602 25.4399 50.8802 25.4399C51.0002 25.3199 51.1201 25.3199 51.2401 25.1999C51.4801 25.0799 51.6001 24.8399 51.7201 24.5999C51.8401 24.3599 52.0801 24.1199 52.2001 23.9999C52.3201 23.7599 52.4402 23.6399 52.6802 23.3999C52.8002 23.2799 52.8001 23.2799 52.9201 23.1599C53.0401 23.1599 53.0401 23.0399 53.1601 23.0399C53.2801 23.0399 53.2801 23.0399 53.4001 23.0399C53.5201 23.1599 53.7601 23.2799 53.7601 23.5199C54.0001 23.8799 54.1201 24.3599 54.1201 24.7199C54.2401 25.0799 54.3602 25.5599 54.4802 25.9199C54.4802 26.0399 54.6001 26.1599 54.7201 26.2799L54.8401 26.3999C54.8401 26.3999 54.9602 26.3999 55.0802 26.3999C55.2002 26.3999 55.2001 26.3999 55.2001 26.3999C55.3201 26.3999 55.3201 26.2799 55.4401 26.1599C55.5602 26.0399 55.5602 25.9199 55.6802 25.7999C55.8002 25.5599 55.9201 25.3199 55.9201 25.0799C55.9201 24.9599 56.0401 24.8399 56.0401 24.8399L56.1601 24.7199C56.2801 24.5999 56.4001 24.5999 56.4001 24.5999C56.5201 24.5999 56.6402 24.4799 56.6402 24.3599C56.6402 24.2399 56.5201 24.1199 56.4001 24.1199C56.1601 24.1199 56.0401 24.2399 55.9201 24.3599C55.8001 24.3599 55.8002 24.4799 55.6802 24.5999C55.5602 24.7199 55.4401 24.9599 55.4401 25.0799C55.3201 25.3199 55.2002 25.5599 55.0802 25.7999C55.0802 25.7999 55.0801 25.9199 54.9601 25.9199C54.8401 25.7999 54.8401 25.6799 54.8401 25.5599C54.7201 25.3199 54.7201 25.0799 54.6001 24.8399C54.4801 24.1199 54.2401 23.5199 54.0001 23.2799C53.8801 23.1599 53.7601 23.0399 53.6402 22.9199C53.4001 22.5599 53.2801 22.4399 53.0401 22.4399Z" fill="#E6EBF4"/>
<path d="M48.0001 23.8797C48.1201 23.9997 48.3601 23.9997 48.6001 23.9997C48.7201 23.9997 48.7201 23.9997 48.8401 23.9997C48.8401 23.9997 48.9601 23.9997 48.9601 23.8797C49.0801 23.8797 49.0801 23.7597 49.2001 23.6397C49.3201 23.5197 49.3201 23.3997 49.4401 23.3997C49.5601 23.2797 49.5602 23.2797 49.6802 23.1597H49.8001L49.9201 23.2797C50.0401 23.3997 50.0401 23.5197 50.1601 23.6397C50.1601 23.7597 50.2802 23.9997 50.2802 24.1197V24.2397L50.4001 24.3597C50.4001 24.3597 50.5201 24.3597 50.6401 24.3597C50.7601 24.3597 50.7602 24.3597 50.8802 24.3597C51.0002 24.2397 51.1201 24.2397 51.2401 24.1197C51.4801 23.9997 51.6001 23.7597 51.8401 23.5197C51.9601 23.2797 52.2001 23.0397 52.3201 22.7997C52.4401 22.5597 52.5601 22.3197 52.8001 22.1997C52.9201 22.0797 53.0401 22.0797 53.0401 21.9597C53.1601 21.9597 53.1602 21.8397 53.2802 21.8397C53.4002 21.8397 53.4001 21.8397 53.5201 21.9597C53.6401 22.0797 53.8802 22.1997 53.8802 22.4397C54.1202 22.7997 54.2401 23.2797 54.3601 23.6397C54.4801 23.9997 54.6001 24.4797 54.7201 24.8397C54.7201 24.9597 54.8401 25.0797 54.9601 25.1997L55.0802 25.3197C55.0802 25.3197 55.2001 25.3197 55.3201 25.3197C55.4401 25.3197 55.4401 25.3197 55.5601 25.3197C55.6801 25.3197 55.6801 25.1997 55.8001 25.0797C55.9201 24.9597 55.9201 24.8397 56.0401 24.7197C56.1601 24.4797 56.2801 24.2397 56.4001 23.9997C56.4001 23.8797 56.5201 23.7597 56.5201 23.7597L56.6401 23.6397C56.7601 23.5197 56.8801 23.5197 56.8801 23.5197C57.0001 23.5197 57.1201 23.3997 57.1201 23.2797C57.1201 23.1597 57.0001 23.0397 56.8801 23.0397C56.6402 23.0397 56.5201 23.1597 56.4001 23.2797C56.2801 23.3997 56.2801 23.3997 56.1601 23.5197C56.0401 23.6397 55.9201 23.8797 55.9201 23.9997C55.8001 24.2397 55.6801 24.5997 55.5601 24.7197C55.5601 24.8397 55.4401 24.8397 55.4401 24.9597V24.8397V24.7197C55.4401 24.7197 55.4401 24.5997 55.3201 24.5997C55.2001 24.4797 55.2001 24.3597 55.2001 24.1197C55.0801 23.8797 55.0801 23.6397 54.9601 23.3997C54.7201 22.5597 54.6001 22.0797 54.3601 21.7197C54.2401 21.5997 54.1201 21.4797 54.0001 21.3597C53.8801 21.2397 53.6401 21.2397 53.5201 21.2397C53.4001 21.2397 53.1601 21.2397 53.0401 21.3597C52.8001 21.4797 52.6801 21.5997 52.4401 21.8397C52.3201 21.9597 52.2002 22.1997 52.0802 22.3197C51.8401 22.6797 51.6001 22.9197 51.3601 23.1597C51.2401 23.2797 51.1201 23.3997 51.0001 23.5197C51.0001 23.5197 50.8802 23.5197 50.8802 23.6397V23.9997L51.0001 23.8797V23.9997L51.1201 23.8797L50.5201 23.9997H50.6401C50.6401 23.8797 50.5201 23.7597 50.5201 23.6397C50.4001 23.3997 50.4002 23.2797 50.2802 23.0397C50.1602 22.9197 50.1601 22.7997 50.0401 22.7997L49.9201 22.6797C49.8001 22.6797 49.8002 22.6797 49.6802 22.6797C49.5602 22.6797 49.5601 22.6797 49.4401 22.6797C49.3201 22.6797 49.3201 22.7997 49.2001 22.7997C49.0801 22.9197 48.9601 23.0397 48.8401 23.1597C48.8401 23.2797 48.7201 23.2797 48.7201 23.3997C48.7201 23.5197 48.6001 23.5197 48.6001 23.6397C48.4801 23.6397 48.3601 23.6397 48.2401 23.5197C48.1201 23.3997 48.0002 23.5197 47.8802 23.6397C47.7602 23.7597 47.8801 23.8797 48.0001 23.8797Z" fill="#07828B"/>
<path d="M64.3201 41.1598L56.7601 36.8398V47.3998C58.8001 48.3598 61.8001 48.3598 63.7201 47.2798L64.2001 47.0398L64.3201 41.1598Z" fill="white"/>
<path d="M65.1601 46.4397V40.6797L64.3201 41.1597L64.2001 46.9197L65.1601 46.4397Z" fill="#CFD5EA"/>
<path d="M56.7601 36.8399L57.6001 36.3599L65.1601 40.6799L64.3201 41.1599L56.7601 36.8399Z" fill="#E6EBF4"/>
<path d="M61.8001 42C61.9201 42.12 62.0401 42.24 62.0401 42.36C62.0401 42.48 61.9201 42.6 61.8001 42.48L57.7201 40.08C57.6001 39.96 57.4801 39.84 57.4801 39.72C57.4801 39.6 57.6001 39.48 57.7201 39.6L61.8001 42Z" fill="#9199B5"/>
<path d="M59.2802 42.1202C59.4002 42.2402 59.5202 42.3602 59.5202 42.4802C59.5202 42.6002 59.4002 42.7202 59.2802 42.6002L57.7202 41.7602C57.6002 41.6402 57.4802 41.5202 57.4802 41.4002C57.4802 41.2802 57.6002 41.1602 57.7202 41.2802L59.2802 42.1202Z" fill="#9199B5"/>
<path d="M63.1201 44.4001C63.2401 44.5201 63.3601 44.6401 63.3601 44.7601C63.3601 44.8801 63.2401 45.0001 63.1201 44.8801L60.1201 43.2001C60.0001 43.0801 59.8801 42.9601 59.8801 42.8401C59.8801 42.7201 60.0001 42.6001 60.1201 42.7201L63.1201 44.4001Z" fill="#9199B5"/>
<path d="M63.1202 45.96C63.2402 46.08 63.3602 46.2 63.3602 46.32C63.3602 46.44 63.2402 46.56 63.1202 46.44L58.9202 44.04C58.8002 43.92 58.6802 43.8 58.6802 43.68C58.6802 43.56 58.8002 43.44 58.9202 43.56L63.1202 45.96Z" fill="#9199B5"/>
<path d="M63.1201 42.7199C63.2401 42.8399 63.3601 42.9599 63.3601 43.0799C63.3601 43.1999 63.2401 43.3199 63.1201 43.1999L62.6401 42.9599C62.5201 42.8399 62.4001 42.7199 62.4001 42.5999C62.4001 42.4799 62.5201 42.3599 62.6401 42.4799L63.1201 42.7199Z" fill="#9199B5"/>
<path d="M37.2001 64.7999L38.0401 64.3199C38.1601 64.1999 38.2801 63.9599 38.2801 63.7199C38.2801 63.1199 37.8001 62.3999 37.3201 62.0399C37.0801 61.9199 36.8401 61.9199 36.6001 61.9199L35.7601 62.3999L37.2001 64.7999Z" fill="url(#paint20_linear_46_5216)"/>
<path d="M37.2392 64.7364C37.5841 64.5386 37.5697 63.8656 37.207 63.2333C36.8443 62.6009 36.2707 62.2487 35.9258 62.4465C35.5809 62.6443 35.5953 63.3173 35.958 63.9497C36.3207 64.582 36.8943 64.9342 37.2392 64.7364Z" fill="#2185F8"/>
<path d="M37.0003 64.32C37.2303 64.1881 37.2296 63.755 36.9988 63.3526C36.768 62.9502 36.3945 62.7309 36.1645 62.8628C35.9346 62.9946 35.9353 63.4278 36.1661 63.8302C36.3969 64.2326 36.7704 64.4519 37.0003 64.32Z" fill="#0CFFFC"/>
<path d="M41.16 67.0802L42 66.6002C42.12 66.4802 42.24 66.2402 42.24 66.0002C42.24 65.4002 41.76 64.6802 41.28 64.3202C41.04 64.2002 40.8 64.2002 40.56 64.2002L39.72 64.6802L41.16 67.0802Z" fill="url(#paint21_linear_46_5216)"/>
<path d="M41.209 67.0011C41.554 66.8032 41.5396 66.1303 41.1769 65.4979C40.8142 64.8656 40.2406 64.5133 39.8956 64.7111C39.5507 64.909 39.5651 65.582 39.9278 66.2143C40.2905 66.8467 40.8641 67.1989 41.209 67.0011Z" fill="#2185F8"/>
<path d="M40.9703 66.5846C41.2002 66.4528 41.1995 66.0196 40.9687 65.6172C40.7379 65.2148 40.3644 64.9955 40.1345 65.1274C39.9045 65.2593 39.9052 65.6924 40.136 66.0948C40.3668 66.4972 40.7403 66.7165 40.9703 66.5846Z" fill="#FFE200"/>
<path d="M85.68 50.7599C85.92 50.6399 86.16 50.6399 86.2801 50.7599C86.4 50.8799 86.52 50.9999 86.52 51.3599V63.1199C86.52 63.5999 86.16 64.3199 85.68 64.5599L68.64 74.3999C68.16 74.6399 67.8 74.3999 67.8 73.9199V62.1599C67.8 61.6799 68.16 60.9599 68.64 60.7199L85.68 50.7599Z" fill="#07828B"/>
<path d="M86.4 51.12C86.88 50.88 87.24 51.12 87.24 51.6V63.36C87.24 63.84 86.88 64.56 86.4 64.8L69.36 74.64C68.88 74.88 68.52 74.64 68.52 74.16V62.4C68.52 61.92 68.88 61.2 69.36 60.96L86.4 51.12Z" fill="#0ABECB"/>
<path d="M72.24 60.84C72.48 60.72 72.6 60.84 72.6 61.08C72.6 61.32 72.48 61.56 72.24 61.68C72 61.8 71.88 61.68 71.88 61.44C71.88 61.2 72 60.96 72.24 60.84Z" fill="white"/>
<path opacity="0.8" d="M79.68 59.2802C79.8 59.1602 79.92 59.2802 79.92 59.4002V66.8402C79.92 66.9602 79.8 67.0802 79.68 67.2002L70.32 72.6002C70.2 72.7202 70.08 72.6002 70.08 72.4802V65.0402C70.08 64.9202 70.2 64.8002 70.32 64.6802L79.68 59.2802Z" fill="white"/>
<path opacity="0.502" d="M85.9201 60.12C86.0401 60 86.1601 60.12 86.1601 60.24V63.24C86.1601 63.36 86.0401 63.48 85.9201 63.6L81.0001 66.48C80.8801 66.6 80.7601 66.48 80.7601 66.36V63.36C80.7601 63.24 80.8801 63.12 81.0001 63L85.9201 60.12Z" fill="white"/>
<path opacity="0.502" d="M85.9201 55.6801C86.0401 55.5601 86.1601 55.6801 86.1601 55.8001V58.8001C86.1601 58.9201 86.0401 59.0401 85.9201 59.1601L81.0001 62.0401C80.8801 62.1601 80.7601 62.0401 80.7601 61.9201V58.9201C80.7601 58.8001 80.8801 58.6801 81.0001 58.5601L85.9201 55.6801Z" fill="white"/>
<path d="M69.96 62.1599C70.2 62.0399 70.32 62.1599 70.32 62.3999C70.32 62.6399 70.2 62.8799 69.96 62.9999C69.72 63.1199 69.6 62.9999 69.6 62.7599C69.6 62.5199 69.72 62.1599 69.96 62.1599Z" fill="white"/>
<path d="M71.0401 61.4401C71.2801 61.3201 71.4001 61.4401 71.4001 61.6801C71.4001 61.9201 71.2801 62.1601 71.0401 62.2801C70.8001 62.4001 70.6801 62.2801 70.6801 62.0401C70.6801 61.8001 70.9201 61.5601 71.0401 61.4401Z" fill="white"/>
<path d="M75.2292 64.9935L71.3891 67.1535H71.2692C71.2692 67.1535 71.2691 67.0335 71.3891 67.0335L75.2292 64.8735H75.3492C75.3492 64.8735 75.3492 64.9935 75.2292 64.9935Z" fill="#6491FB"/>
<path d="M77.5091 63.6733L75.8291 64.6333H75.7091C75.7091 64.6333 75.7091 64.5132 75.8291 64.5132L77.5091 63.5532H77.6291C77.6291 63.6732 77.6291 63.6733 77.5091 63.6733Z" fill="#FF9999"/>
<path d="M75.2292 65.6649L73.1892 66.8649H73.0692C73.0692 66.8649 73.0692 66.7449 73.1892 66.7449L75.2292 65.5449H75.3492C75.3492 65.5449 75.3492 65.5449 75.2292 65.6649Z" fill="#FF9999"/>
<path d="M72.8292 66.9848L71.5092 67.8247H71.3892C71.3892 67.8247 71.3892 67.7048 71.5092 67.7048L72.8292 66.8647H72.9492C72.8292 66.9847 72.8292 66.9848 72.8292 66.9848Z" fill="#FF9999"/>
<path d="M77.5091 64.3447L75.8291 65.3046H75.7091C75.7091 65.3046 75.7091 65.1847 75.8291 65.1847L77.5091 64.2246H77.6291C77.6291 64.2246 77.6291 64.2247 77.5091 64.3447Z" fill="#A69CFB"/>
<path d="M73.9092 64.6342L71.5092 66.0742H71.3892C71.3892 66.0742 71.3892 65.9542 71.5092 65.9542L73.9092 64.5142H74.0292L73.9092 64.6342Z" fill="#6491FB"/>
<path d="M75.3492 63.7943L74.2692 64.3943H74.1492C74.1492 64.3943 74.1492 64.2743 74.2692 64.2743L75.3492 63.6743H75.4692C75.4692 63.6743 75.4692 63.7943 75.3492 63.7943Z" fill="#A69CFB"/>
<path d="M78.3491 62.1141L75.8291 63.5541H75.7091C75.7091 63.5541 75.7091 63.4342 75.8291 63.4342L78.3491 61.9941H78.4691L78.3491 62.1141Z" fill="#94F2B5"/>
<path d="M75.9493 67.5415L78.3493 66.1015L78.4693 65.9816C78.4693 65.9816 78.4693 65.8616 78.3493 65.9816L75.9493 67.4216C75.8293 67.4216 75.8293 67.4215 75.9493 67.5415C75.8293 67.5415 75.8293 67.5415 75.9493 67.5415Z" fill="#6491FB"/>
<path d="M74.3892 68.3818L75.4692 67.7818L75.5892 67.6617C75.5892 67.6617 75.5892 67.5417 75.4692 67.6617L74.3892 68.2617C74.3892 68.2617 74.3892 68.2618 74.3892 68.3818Z" fill="#94F2B5"/>
<path d="M71.5092 70.1817L74.0292 68.7417L74.1492 68.6217C74.1492 68.6217 74.1492 68.5017 74.0292 68.6217L71.5092 70.0616C71.3892 69.9416 71.3892 70.0617 71.5092 70.1817C71.3892 70.1817 71.3892 70.1817 71.5092 70.1817Z" fill="#FF9999"/>
<path d="M73.0692 65.7919L71.5092 66.7519H71.3892C71.3892 66.7519 71.3892 66.6319 71.5092 66.6319L73.0692 65.6719H73.1892C73.0692 65.6719 73.0692 65.6719 73.0692 65.7919Z" fill="#A69CFB"/>
<path d="M76.4292 63.7523L73.4292 65.5523H73.3091C73.3091 65.5523 73.3092 65.4323 73.4292 65.4323L76.4292 63.6323H76.5492C76.4292 63.7523 76.4292 63.7523 76.4292 63.7523Z" fill="#94F2B5"/>
<path d="M78.5892 62.5521L76.6692 63.6321H76.5492C76.5492 63.6321 76.5492 63.5121 76.6692 63.5121L78.5892 62.4321H78.7092C78.7092 62.4321 78.7092 62.4321 78.5892 62.5521Z" fill="#6491FB"/>
<path d="M77.0291 67.2622L78.5891 66.3022H78.7091C78.7091 66.3022 78.7091 66.4222 78.5891 66.4222L77.0291 67.3823H76.9091C77.0291 67.3823 77.0291 67.2622 77.0291 67.2622Z" fill="#94F2B5"/>
<path d="M73.6692 69.1823L76.6692 67.3823H76.7892C76.7892 67.3823 76.7892 67.5023 76.6692 67.5023L73.6692 69.3023H73.5492C73.5492 69.3023 73.6692 69.3023 73.6692 69.1823Z" fill="#FFC99C"/>
<path d="M71.5092 70.5024L73.4292 69.4224H73.5492C73.5492 69.4224 73.5492 69.5424 73.4292 69.5424L71.5092 70.6224H71.3892C71.3892 70.6224 71.3892 70.5024 71.5092 70.5024Z" fill="#A69CFB"/>
<path d="M75.2292 67.3246L71.3891 69.4845H71.2692C71.2692 69.4845 71.2691 69.3646 71.3891 69.3646L75.2292 67.2046H75.3492C75.3492 67.2046 75.3492 67.3246 75.2292 67.3246Z" fill="#FFC99C"/>
<path d="M77.5091 66.0043L75.8291 66.9643H75.7091C75.7091 66.9643 75.7091 66.8443 75.8291 66.8443L77.5091 65.8843H77.6291C77.6291 66.0043 77.6291 66.0043 77.5091 66.0043Z" fill="#FF9999"/>
<path d="M73.0692 68.1239L71.5092 69.0839H71.3892C71.3892 69.0839 71.3892 68.9639 71.5092 68.9639L73.0692 68.0039H73.1892C73.0692 68.0039 73.0692 68.0039 73.0692 68.1239Z" fill="#94F2B5"/>
<path d="M76.4292 66.0838L73.4292 67.8838H73.3091C73.3091 67.8838 73.3092 67.7639 73.4292 67.7639L76.4292 65.9639H76.5492C76.4292 66.0839 76.4292 66.0838 76.4292 66.0838Z" fill="#6491FB"/>
<path d="M78.5892 64.8836L76.6692 65.9637H76.5492C76.5492 65.9637 76.5492 65.8436 76.6692 65.8436L78.5892 64.7637H78.7092C78.7092 64.7637 78.7092 64.7636 78.5892 64.8836Z" fill="#94F2B5"/>
<path d="M72.7091 67.6473L71.3891 68.3674H71.2692C71.2692 68.3674 71.2691 68.2473 71.3891 68.2473L72.7091 67.5273H72.8292C72.8292 67.5273 72.8291 67.6473 72.7091 67.6473Z" fill="#A69CFB"/>
<path d="M75.4691 66.0873L72.9491 67.5273H72.8291C72.8291 67.5273 72.8291 67.4072 72.9491 67.4072L75.4691 65.9673H75.5891C75.5891 65.9673 75.5891 65.9673 75.4691 66.0873Z" fill="#FF9999"/>
<path d="M78.3491 64.4071L75.8291 65.8471H75.7091C75.7091 65.8471 75.7091 65.7271 75.8291 65.7271L78.3491 64.2871H78.4691C78.3491 64.4071 78.3491 64.4071 78.3491 64.4071Z" fill="#FFC99C"/>
<path d="M82.4399 59.8803H82.3199C82.3199 59.7603 82.3199 59.6403 82.3199 59.5203C82.3199 59.4003 82.1999 59.2803 82.0799 59.4003C81.9599 59.5203 81.8399 59.6403 81.8399 59.8803C81.8399 60.0003 81.8399 60.1203 81.8399 60.2403L81.7199 60.3603C81.5999 60.4803 81.5999 60.4803 81.5999 60.6003V60.7203C81.8399 60.8403 82.1999 60.6003 82.4399 60.2403C82.4399 60.0003 82.4399 60.0003 82.4399 59.8803ZM81.9599 59.5203C82.0799 59.4003 82.1999 59.4003 82.1999 59.6403C82.1999 59.7603 82.1999 59.8803 82.1999 59.8803C82.0799 60.0003 82.0799 60.1203 81.9599 60.0003C81.9599 60.0003 81.8399 59.8803 81.9599 59.8803C81.8399 59.7603 81.8399 59.6403 81.9599 59.5203ZM82.3199 60.0003C82.0799 60.3603 81.8399 60.4803 81.5999 60.3603V60.2403L81.7199 60.1203C81.7199 60.1203 81.7199 60.1203 81.8399 60.1203C81.9599 60.1203 82.0799 60.1203 82.0799 60.0003C82.0799 60.0003 82.0799 60.0003 82.1999 60.0003H82.3199Z" fill="url(#paint22_linear_46_5216)"/>
<path d="M81.96 59.1603C81.6 59.4003 81.36 59.7603 81.36 60.1203C81.36 60.2403 81.36 60.3603 81.36 60.4803C81.36 60.4803 81.36 60.4803 81.36 60.3603C81.36 60.2403 81.36 60.1203 81.36 60.1203C81.36 59.8803 81.48 59.6403 81.72 59.5203C81.96 59.2803 82.08 59.2803 82.2 59.2803C82.32 59.4003 82.44 59.5203 82.32 59.8803V60.0003C82.32 60.0003 82.32 60.0003 82.44 59.8803C82.68 59.1603 82.44 58.8003 81.96 59.1603Z" fill="url(#paint23_linear_46_5216)"/>
<path d="M82.44 64.3197H82.32C82.32 64.1997 82.32 64.0797 82.32 63.9597C82.32 63.8397 82.2 63.7197 82.08 63.8397C81.96 63.9597 81.84 64.0797 81.84 64.3197C81.84 64.4397 81.84 64.5597 81.84 64.6797L81.72 64.7997C81.6 64.6797 81.6 64.7997 81.48 64.9197V65.0397C81.72 65.1597 82.08 64.9197 82.32 64.5597C82.44 64.4397 82.44 64.4397 82.44 64.3197ZM81.96 63.9597C82.08 63.8397 82.2 63.8397 82.2 64.0797C82.2 64.1997 82.2 64.3197 82.2 64.3197C82.08 64.4397 82.08 64.5597 81.96 64.4397C81.96 64.4397 81.84 64.3197 81.96 64.3197C81.84 64.1997 81.84 64.0797 81.96 63.9597ZM82.32 64.4397C82.08 64.7997 81.84 64.9197 81.6 64.7997V64.6797L81.72 64.5597C81.72 64.5597 81.72 64.5597 81.84 64.5597C81.96 64.5597 82.08 64.5597 82.08 64.4397C82.08 64.4397 82.08 64.4397 82.2 64.4397H82.32Z" fill="url(#paint24_linear_46_5216)"/>
<path d="M81.96 63.48C81.6 63.72 81.36 64.08 81.36 64.44C81.36 64.56 81.36 64.68 81.36 64.8C81.36 64.8 81.36 64.8 81.36 64.68C81.36 64.56 81.36 64.44 81.36 64.44C81.36 64.2 81.48 63.96 81.72 63.84C81.96 63.6 82.08 63.6 82.2 63.6C82.32 63.72 82.44 63.84 82.32 64.2V64.32C82.32 64.32 82.32 64.32 82.44 64.2C82.68 63.6 82.44 63.24 81.96 63.48Z" fill="url(#paint25_linear_46_5216)"/>
<path d="M65.5975 100.258C65.6025 98.4689 63.0815 97.0111 59.9667 97.0023C56.8518 96.9935 54.3225 98.4369 54.3175 100.226C54.3124 102.016 56.8334 103.473 59.9483 103.482C63.0632 103.491 65.5924 102.048 65.5975 100.258Z" fill="#07828B"/>
<path d="M55.3203 96.96V99.96C55.3203 100.68 55.8003 101.4 56.7603 101.88C58.5603 102.96 61.5603 102.96 63.4803 101.88C64.4403 101.4 64.8003 100.68 64.8003 99.96V96.96H55.3203Z" fill="url(#paint26_linear_46_5216)"/>
<path d="M62.5203 95.52C63.9603 96.36 63.9603 97.68 62.5203 98.4C61.0803 99.24 58.9203 99.24 57.4803 98.4C56.0403 97.56 56.0403 96.24 57.4803 95.52C58.8003 94.8 61.0803 94.8 62.5203 95.52Z" fill="url(#paint27_linear_46_5216)"/>
<path d="M63.634 97.2968C63.6372 96.1702 62.028 95.2522 60.0398 95.2466C58.0516 95.241 56.4372 96.1497 56.434 97.2764C56.4308 98.4031 58.04 99.321 60.0282 99.3266C62.0164 99.3322 63.6308 98.4235 63.634 97.2968Z" fill="#34E8F5"/>
<path d="M63.3602 95.04C61.5602 93.96 58.5602 93.96 56.6402 95.04C54.8402 96.12 54.8402 97.8 56.6402 98.88C58.4402 99.96 61.4402 99.96 63.3602 98.88C65.1602 97.92 65.1602 96.12 63.3602 95.04ZM62.5202 98.52C61.0802 99.36 58.9202 99.36 57.4802 98.52C56.0402 97.68 56.0402 96.36 57.4802 95.64C58.9202 94.8 61.0802 94.8 62.5202 95.64C63.9602 96.36 63.9602 97.68 62.5202 98.52Z" fill="#25CEDA"/>
<path d="M63.6001 85.6802H56.4001V97.0802C56.4001 97.6802 56.7601 98.1602 57.4801 98.6402C58.9201 99.4802 61.2001 99.4802 62.5201 98.6402C63.2401 98.2802 63.6001 97.6802 63.6001 97.2002V85.6802Z" fill="url(#paint28_linear_46_5216)"/>
<defs>
<linearGradient id="paint0_linear_46_5216" x1="3.76137" y1="93.9298" x2="116.126" y2="93.9298" gradientUnits="userSpaceOnUse">
<stop stop-color="#437262"/>
<stop offset="1" stop-color="#1E3F3D"/>
</linearGradient>
<linearGradient id="paint1_linear_46_5216" x1="55.2891" y1="49.8776" x2="64.7116" y2="49.8776" gradientUnits="userSpaceOnUse">
<stop offset="0.3375" stop-color="#97B5E1"/>
<stop offset="0.5932" stop-color="#E8F1FF"/>
</linearGradient>
<linearGradient id="paint2_linear_46_5216" x1="56.4286" y1="47.0697" x2="63.5721" y2="47.0697" gradientUnits="userSpaceOnUse">
<stop stop-color="#103DB5"/>
<stop offset="0.6426" stop-color="#6BABFD"/>
</linearGradient>
<linearGradient id="paint3_linear_46_5216" x1="60.0001" y1="48.8288" x2="60.0001" y2="35.7622" gradientUnits="userSpaceOnUse">
<stop stop-color="#0CFFFC" stop-opacity="0.6"/>
<stop offset="1" stop-color="white" stop-opacity="0"/>
</linearGradient>
<linearGradient id="paint4_linear_46_5216" x1="98.2836" y1="74.8687" x2="107.742" y2="74.8687" gradientUnits="userSpaceOnUse">
<stop offset="0.3375" stop-color="#82DAE1"/>
<stop offset="0.5932" stop-color="#E8FFFC"/>
</linearGradient>
<linearGradient id="paint5_linear_46_5216" x1="99.3629" y1="72.0436" x2="106.506" y2="72.0436" gradientUnits="userSpaceOnUse">
<stop stop-color="#103DB5"/>
<stop offset="0.6426" stop-color="#6BABFD"/>
</linearGradient>
<linearGradient id="paint6_linear_46_5216" x1="102.935" y1="73.8027" x2="102.935" y2="60.7361" gradientUnits="userSpaceOnUse">
<stop stop-color="#0CFFFC" stop-opacity="0.6"/>
<stop offset="1" stop-color="white" stop-opacity="0"/>
</linearGradient>
<linearGradient id="paint7_linear_46_5216" x1="12.3635" y1="74.8687" x2="21.8223" y2="74.8687" gradientUnits="userSpaceOnUse">
<stop offset="0.3375" stop-color="#82DAE1"/>
<stop offset="0.5932" stop-color="#E8FFFC"/>
</linearGradient>
<linearGradient id="paint8_linear_46_5216" x1="13.4939" y1="72.0436" x2="20.6374" y2="72.0436" gradientUnits="userSpaceOnUse">
<stop stop-color="#103DB5"/>
<stop offset="0.6426" stop-color="#6BABFD"/>
</linearGradient>
<linearGradient id="paint9_linear_46_5216" x1="17.0657" y1="73.8027" x2="17.0657" y2="60.7361" gradientUnits="userSpaceOnUse">
<stop stop-color="#0CFFFC" stop-opacity="0.6"/>
<stop offset="1" stop-color="white" stop-opacity="0"/>
</linearGradient>
<linearGradient id="paint10_linear_46_5216" x1="28.5831" y1="80.431" x2="91.4421" y2="80.431" gradientUnits="userSpaceOnUse">
<stop offset="0.3375" stop-color="#82DAE1"/>
<stop offset="0.5932" stop-color="#E8FFFC"/>
</linearGradient>
<linearGradient id="paint11_linear_46_5216" x1="91.2409" y1="70.67" x2="28.7597" y2="64.9982" gradientUnits="userSpaceOnUse">
<stop stop-color="white"/>
<stop offset="1" stop-color="#C9D9F4"/>
</linearGradient>
<linearGradient id="paint12_linear_46_5216" x1="28.5831" y1="59.5615" x2="91.4421" y2="59.5615" gradientUnits="userSpaceOnUse">
<stop offset="0.3375" stop-color="#82DAE1"/>
<stop offset="0.5932" stop-color="#E8FFFC"/>
</linearGradient>
<linearGradient id="paint13_linear_46_5216" x1="91.2409" y1="41.4828" x2="28.7597" y2="35.811" gradientUnits="userSpaceOnUse">
<stop stop-color="white"/>
<stop offset="1" stop-color="#C9D9F4"/>
</linearGradient>
<linearGradient id="paint14_linear_46_5216" x1="43.6807" y1="38.6471" x2="76.3197" y2="38.6471" gradientUnits="userSpaceOnUse">
<stop stop-color="#045257"/>
<stop offset="0.6426" stop-color="#0EC2D0"/>
</linearGradient>
<linearGradient id="paint15_linear_46_5216" x1="76.6198" y1="38.647" x2="43.3807" y2="38.647" gradientUnits="userSpaceOnUse">
<stop stop-color="white"/>
<stop offset="1" stop-color="#4D9DF9"/>
</linearGradient>
<linearGradient id="paint16_linear_46_5216" x1="60.0002" y1="48.0997" x2="60.0002" y2="0.942621" gradientUnits="userSpaceOnUse">
<stop stop-color="#21F8E6" stop-opacity="0.4"/>
<stop offset="1" stop-color="white" stop-opacity="0"/>
</linearGradient>
<linearGradient id="paint17_linear_46_5216" x1="52.7125" y1="13.8217" x2="52.7125" y2="21.0289" gradientUnits="userSpaceOnUse">
<stop stop-color="#7AB4F4"/>
<stop offset="1" stop-color="#DFEDFA"/>
</linearGradient>
<linearGradient id="paint18_linear_46_5216" x1="73.8627" y1="33.083" x2="73.8627" y2="40.0957" gradientUnits="userSpaceOnUse">
<stop stop-color="white"/>
<stop offset="1" stop-color="white" stop-opacity="0"/>
</linearGradient>
<linearGradient id="paint19_linear_46_5216" x1="63.0953" y1="28.2017" x2="63.0953" y2="36.2096" gradientUnits="userSpaceOnUse">
<stop stop-color="white"/>
<stop offset="1" stop-color="white" stop-opacity="0"/>
</linearGradient>
<linearGradient id="paint20_linear_46_5216" x1="38.0178" y1="64.3449" x2="36.6859" y2="62.0381" gradientUnits="userSpaceOnUse">
<stop stop-color="#103DB5"/>
<stop offset="0.6426" stop-color="#6BABFD"/>
</linearGradient>
<linearGradient id="paint21_linear_46_5216" x1="41.9537" y1="66.5984" x2="40.6218" y2="64.2916" gradientUnits="userSpaceOnUse">
<stop stop-color="#103DB5"/>
<stop offset="0.6426" stop-color="#6BABFD"/>
</linearGradient>
<linearGradient id="paint22_linear_46_5216" x1="81.2309" y1="62.5967" x2="83.0077" y2="59.5387" gradientUnits="userSpaceOnUse">
<stop stop-color="#FF8000"/>
<stop offset="1" stop-color="#FFD000"/>
</linearGradient>
<linearGradient id="paint23_linear_46_5216" x1="81.1123" y1="62.5598" x2="82.4869" y2="59.2179" gradientUnits="userSpaceOnUse">
<stop stop-color="#FF8000"/>
<stop offset="1" stop-color="#FFD000"/>
</linearGradient>
<linearGradient id="paint24_linear_46_5216" x1="81.2309" y1="67.0111" x2="83.0078" y2="63.9531" gradientUnits="userSpaceOnUse">
<stop stop-color="#FF8000"/>
<stop offset="1" stop-color="#FFD000"/>
</linearGradient>
<linearGradient id="paint25_linear_46_5216" x1="81.1123" y1="66.9751" x2="82.4869" y2="63.6332" gradientUnits="userSpaceOnUse">
<stop stop-color="#FF8000"/>
<stop offset="1" stop-color="#FFD000"/>
</linearGradient>
<linearGradient id="paint26_linear_46_5216" x1="55.3237" y1="99.8286" x2="64.7825" y2="99.8286" gradientUnits="userSpaceOnUse">
<stop offset="0.3375" stop-color="#82DAE1"/>
<stop offset="0.5932" stop-color="#E8FFFC"/>
</linearGradient>
<linearGradient id="paint27_linear_46_5216" x1="56.4286" y1="97.0167" x2="63.5721" y2="97.0167" gradientUnits="userSpaceOnUse">
<stop stop-color="#103DB5"/>
<stop offset="0.6426" stop-color="#6BABFD"/>
</linearGradient>
<linearGradient id="paint28_linear_46_5216" x1="60.0001" y1="98.7761" x2="60.0001" y2="85.7095" gradientUnits="userSpaceOnUse">
<stop stop-color="#0CFFFC" stop-opacity="0.6"/>
<stop offset="1" stop-color="white" stop-opacity="0"/>
</linearGradient>
</defs>
</svg>
