<svg width="80" height="80" viewBox="0 0 80 80" fill="none" xmlns="http://www.w3.org/2000/svg">
<path d="M20.7496 34.1992C18.7874 40.6049 18.6863 46.9286 20.1195 51.9777C21.552 57.0244 24.5281 60.8254 28.7381 62.1176L36.3042 64.4397C40.5143 65.7318 45.1073 64.2539 49.1196 60.8782C53.1339 57.501 56.5913 52.2075 58.5535 45.8017C60.5156 39.3959 60.6167 33.0723 59.1835 28.0232C57.751 22.9764 54.7749 19.1755 50.5649 17.8833L42.9988 15.5612C38.7888 14.2691 34.1957 15.747 30.1833 19.1226C26.169 22.4999 22.7117 27.7935 20.7496 34.1992Z" fill="black" stroke="white" stroke-width="0.416422" stroke-linejoin="round"/>
<path fill-rule="evenodd" clip-rule="evenodd" d="M49.7369 60.0552L25.8181 52.7151L23.9575 58.7882C25.3081 60.262 26.9323 61.3404 28.7992 61.9133L36.3659 64.2352C40.7473 65.5797 45.5822 63.8683 49.7369 60.0552Z" fill="black"/>
<path fill-rule="evenodd" clip-rule="evenodd" d="M42.7367 15.7002L38.7998 28.5534L59.9551 35.0466C59.8517 26.6807 56.3799 19.8845 50.5123 18.0839L42.9458 15.7619C42.8762 15.7406 42.8065 15.7201 42.7367 15.7002Z" fill="black"/>
<path d="M50.9822 43.4784C52.9443 37.073 53.0456 30.7498 51.6126 25.701C50.1804 20.6546 47.2047 16.8539 42.995 15.5621C38.7853 14.2701 34.1926 15.748 30.1806 19.1235C26.1666 22.5007 22.7093 27.794 20.7473 34.1994C18.7851 40.6048 18.6839 46.9279 20.1168 51.9767C21.549 57.0232 24.5247 60.8238 28.7345 62.1158C32.9441 63.4077 37.5368 61.9298 41.5489 58.5542C45.5629 55.1771 49.0201 49.8838 50.9822 43.4784Z" fill="black" stroke="white" stroke-width="0.416422" stroke-linejoin="round"/>
<path d="M46.5984 42.1324C48.1045 37.2158 48.2853 32.3911 47.3497 28.5612C46.4153 24.7363 44.3546 21.8649 41.3477 20.9422C38.3407 20.0194 35.0262 21.241 32.1104 23.8844C29.1907 26.5312 26.6385 30.628 25.1324 35.5446C23.6263 40.4612 23.4456 45.2859 24.3812 49.1158C25.3155 52.9408 27.3762 55.812 30.3832 56.7348C33.3902 57.6577 36.7046 56.436 39.6205 53.7927C42.54 51.1459 45.0924 47.0489 46.5984 42.1324Z" fill="white" stroke="white" stroke-width="0.416422" stroke-linejoin="round"/>
<path fill-rule="evenodd" clip-rule="evenodd" d="M34.5464 56.5286C33.8665 56.5387 33.1955 56.4474 32.5421 56.247C26.9968 54.5455 24.8124 45.6239 27.6629 36.32C30.5135 27.0162 37.3198 20.8533 42.8651 22.5549C43.5182 22.7551 44.1246 23.0557 44.6817 23.4452C47.8713 27.2009 48.714 34.5146 46.3993 42.0691C44.0848 49.6231 39.291 55.2068 34.5464 56.5286Z" fill="black"/>
<mask id="mask0_844_4327" style="mask-type:luminance" maskUnits="userSpaceOnUse" x="21" y="18" width="33" height="43">
<path d="M53.0769 18.009H21.2026V60.2681H53.0769V18.009Z" fill="white"/>
<path fill-rule="evenodd" clip-rule="evenodd" d="M34.5469 56.5286C33.8669 56.5387 33.196 56.4474 32.5426 56.247C26.9973 54.5455 24.8129 45.6239 27.6634 36.32C30.514 27.0162 37.3203 20.8533 42.8656 22.5549C43.5187 22.7551 44.1251 23.0557 44.6822 23.4452C47.8717 27.2009 48.7145 34.5146 46.3998 42.0691C44.0853 49.6231 39.2915 55.2068 34.5469 56.5286Z" fill="black"/>
</mask>
<g mask="url(#mask0_844_4327)">
<path d="M34.5466 56.5286L34.5528 56.9452C34.5885 56.9446 34.6239 56.9395 34.6582 56.93L34.5466 56.5286ZM44.6819 23.4452L44.9991 23.1754C44.976 23.1482 44.9496 23.1242 44.9203 23.1038L44.6819 23.4452ZM34.5404 56.112C33.9023 56.1216 33.2748 56.036 32.6644 55.8487L32.4204 56.6453C33.1168 56.859 33.8311 56.956 34.5528 56.9452L34.5404 56.112ZM32.6644 55.8487C30.0876 55.058 28.2233 52.5665 27.3587 49.0353C26.4964 45.514 26.6541 41.0348 28.0612 36.4423L27.2653 36.198C25.8217 40.9093 25.6463 45.5428 26.5501 49.2335C27.4513 52.9145 29.4519 55.7344 32.4204 56.6453L32.6644 55.8487ZM28.0612 36.4423C29.4683 31.8498 31.8466 28.052 34.533 25.6195C37.2269 23.1802 40.1666 22.1625 42.7434 22.9532L42.9874 22.1565C40.0188 21.2457 36.7827 22.4588 33.9746 25.0016C31.1589 27.5511 28.7088 31.4867 27.2653 36.198L28.0612 36.4423ZM42.7434 22.9532C43.3534 23.1403 43.9208 23.4213 44.4436 23.7868L44.9203 23.1038C44.329 22.6903 43.6835 22.3701 42.9874 22.1565L42.7434 22.9532ZM44.3648 23.7151C45.8881 25.5087 46.876 28.186 47.1906 31.3736C47.5048 34.556 47.1443 38.2176 46.0016 41.9471L46.7975 42.1914C47.9695 38.3663 48.345 34.5938 48.019 31.2917C47.6936 27.9949 46.6654 25.1375 44.9991 23.1754L44.3648 23.7151ZM46.0016 41.9471C44.859 45.6763 43.1067 48.9105 41.0643 51.3697C39.0185 53.8328 36.701 55.496 34.435 56.1273L34.6582 56.93C37.1368 56.2395 39.5886 54.45 41.7045 51.9023C43.8237 49.3507 45.6257 46.0162 46.7975 42.1914L46.0016 41.9471Z" fill="white"/>
</g>
<path d="M34.2504 36.3569L29.8735 38.6649L31.8292 39.265L36.2061 36.9571L34.2504 36.3569Z" fill="black"/>
<path d="M29.0292 42.7694C29.026 42.8977 29.0991 42.9819 29.2395 43.025L30.7269 43.4814C29.7047 43.7959 28.9334 43.9066 28.5312 43.7832L30.4869 44.3832C31.2608 44.6206 33.4026 43.9916 36.0669 42.7095L34.1113 42.1094C32.9457 42.6703 31.8802 43.1061 30.9854 43.3991C30.9848 43.3896 30.9846 43.3797 30.9848 43.3695L29.0292 42.7694Z" fill="black"/>
<path d="M29.0293 42.7694C29.0437 42.0767 31.254 40.3458 34.1938 38.6484L36.1494 39.2486C33.2097 40.9459 30.9993 42.6768 30.9849 43.3694L29.0293 42.7694Z" fill="black"/>
<path fill-rule="evenodd" clip-rule="evenodd" d="M34.1357 41.0198L36.9091 39.5599L36.967 37.1887C37.0551 37.1461 37.1424 37.1043 37.229 37.0633L36.9732 36.9848L37.0215 34.908L38.9772 35.5081L38.9586 36.306C40.3928 35.7365 41.4635 35.4788 41.8982 35.6121L42.8543 35.9055C42.8898 35.8147 42.9088 35.7312 42.9105 35.6558L44.8661 36.2558C44.846 37.1753 42.249 39.2781 38.8404 41.2497L38.683 47.8878L36.7273 47.2877L36.8714 41.2093L36.0914 41.6199L34.1357 41.0198ZM38.8829 39.4192C40.6637 38.2487 42.0287 37.1281 42.6074 36.3332C41.6895 36.5709 40.4007 37.0738 38.9227 37.7888L38.8829 39.4192Z" fill="black"/>
<path d="M37.022 34.908L38.9776 35.5082L43.3417 33.2088L43.4173 30.0544L41.4617 29.4543L41.3861 32.6087L37.022 34.908Z" fill="black"/>
<path d="M33.9541 48.7475L36.7276 47.2876L38.6832 47.8878L35.9097 49.3476L33.9541 48.7475Z" fill="black"/>
<path d="M42.6025 35.2761C42.8068 35.3388 42.9146 35.4637 42.9105 35.6557L44.8661 36.2558C44.8703 36.0638 44.7624 35.9389 44.5581 35.8762L42.6025 35.2761Z" fill="black"/>
<path fill-rule="evenodd" clip-rule="evenodd" d="M29.0284 42.7729C29.0252 42.9011 29.0984 42.9853 29.2387 43.0284L29.485 43.1039C30.0571 43.0977 30.7115 43.0872 31.0867 43.0719C31.4353 42.4621 32.6465 41.4646 34.3096 40.3792C34.2666 39.9563 34.23 39.1732 34.211 38.6577L34.1931 38.6522C31.2533 40.3494 29.0428 42.0802 29.0284 42.7729ZM35.4939 39.0513L34.7861 40.0737C35.2171 39.802 35.6734 39.5266 36.1488 39.2522L35.4939 39.0513ZM38.9609 36.199L38.9583 36.3097C40.3925 35.7402 41.4633 35.4824 41.898 35.6158L42.3419 35.7521L41.9367 36.536C41.1025 36.8105 40.0694 37.2376 38.9224 37.7924L38.8906 39.0947L35.1442 41.3329L34.1352 41.0233L36.9088 39.5635L36.9667 37.1924C37.0547 37.1498 37.142 37.108 37.2286 37.0669L37.155 37.0443L38.9609 36.199Z" fill="black"/>
<path fill-rule="evenodd" clip-rule="evenodd" d="M36.9707 36.9642L37.0141 36.9776L38.9606 36.1043L38.9745 35.5113L37.0184 34.9113L36.9707 36.9642ZM41.3538 32.6229L43.3098 33.223L43.3393 33.2075L43.4149 30.0532L41.4588 29.4531L41.3833 32.6073L41.3538 32.6229ZM42.8964 35.7573L44.8525 36.3574C44.8597 36.3217 44.8637 36.2873 44.8643 36.2544C44.8686 36.0625 44.7607 35.9376 44.5563 35.8749L42.6005 35.2748C42.8047 35.3375 42.9126 35.4624 42.9084 35.6544C42.9077 35.6872 42.9037 35.7215 42.8964 35.7573ZM38.8374 41.266L36.6101 40.5827L36.4956 41.4038L36.8685 41.2076L36.7244 47.2859L36.7066 47.2953L38.6627 47.8953L38.6805 47.886L38.8374 41.266Z" fill="black"/>
<path d="M12.155 29.9099C12.1539 29.9121 12.154 29.9129 10.3848 35.2871C8.45559 41.1468 19.6496 47.4996 28.5743 51.4159L30.5847 46.1052C21.4524 42.1421 10.6227 36.0449 12.155 29.9099Z" fill="black" stroke="white" stroke-width="0.416422"/>
<path d="M22.5927 29.1695C20.6119 29.0493 16.8746 29.2816 16.1548 31.468C14.7926 35.6057 24.0207 40.467 31.3773 43.5952L29.9549 45.9062C15.6303 39.654 10.854 33.8195 12.1401 29.9131C13.0278 27.2166 20.4994 26.2194 23.9207 26.6759L22.5927 29.1695Z" fill="black" stroke="white" stroke-width="0.416422"/>
<path d="M21.4181 32.0904L22.5021 29.2295C17.0064 28.8586 15.6506 30.5719 16.1233 32.361C16.1233 32.361 17.9551 31.9097 21.4181 32.0904Z" fill="white" stroke="white" stroke-width="0.416422"/>
<path d="M37.7856 50.8065L27.1958 54.4265L29.4105 43.4692L37.7856 50.8065Z" fill="#07828B" stroke="white" stroke-width="0.416422" stroke-linejoin="bevel"/>
<path d="M32.0948 40.522L29.4097 43.5047L37.7645 50.8198L39.205 46.8263L32.0948 40.522Z" fill="black" stroke="white" stroke-width="0.416422" stroke-linejoin="round"/>
<path d="M68.3596 46.5256C68.3605 46.5234 68.3604 46.5224 69.9819 41.1019C71.7498 35.1916 60.3859 29.1477 51.3574 25.4773L49.4932 30.841C58.7306 34.5526 69.7233 40.351 68.3596 46.5256Z" fill="black" stroke="white" stroke-width="0.416422"/>
<path d="M57.9467 47.5513C59.9301 47.6172 63.6596 47.2826 64.3193 45.0773C65.5676 40.9039 56.2098 36.2972 48.7705 33.3717L50.129 31.0225C64.6193 36.88 69.5537 42.5815 68.375 46.5217C67.5615 49.2415 60.1201 50.4429 56.6875 50.0803L57.9467 47.5513Z" fill="black" stroke="white" stroke-width="0.416422"/>
<path d="M59.0403 44.5993L58.0352 47.4889C63.5389 47.7092 64.8473 45.9593 64.3256 44.1838C64.3256 44.1838 62.507 44.6851 59.0403 44.5993Z" fill="white" stroke="white" stroke-width="0.416422"/>
<path d="M41.8955 26.7003L52.3822 22.7917L50.4684 33.8055L41.8955 26.7003Z" fill="#07828B" stroke="white" stroke-width="0.416422" stroke-linejoin="bevel"/>
<path d="M47.8676 36.8253L50.47 33.7701L41.918 26.6865L40.5874 30.718L47.8676 36.8253Z" fill="black" stroke="white" stroke-width="0.416422" stroke-linejoin="round"/>
</svg>
