<svg width="120" height="120" viewBox="0 0 120 120" fill="none" xmlns="http://www.w3.org/2000/svg">
<g opacity="0.4">
<path d="M110.88 79.5599C117.96 83.6399 117.96 90.2399 111 94.3199L72.84 116.4C65.88 120.48 54.48 120.48 47.4 116.4L9.12002 94.3199C2.04002 90.2399 2.04002 83.6399 9.00002 79.5599L47.04 57.4799C54 53.3999 65.4 53.3999 72.48 57.4799L110.88 79.5599Z" fill="#07828B" fill-opacity="0.5"/>
</g>
<path d="M116.16 75.72H3.84009V79.68C3.84009 82.32 5.64009 84.96 9.12009 87L47.4001 109.08C54.4801 113.16 65.8801 113.16 72.8401 109.08L110.88 87C114.36 84.96 116.16 82.32 116.16 79.68V75.72Z" fill="url(#paint0_linear_22_823)"/>
<path d="M110.88 68.2799C117.96 72.3599 117.96 78.9599 111 83.0399L72.84 105.24C65.88 109.32 54.48 109.32 47.4 105.24L9.12002 83.0399C2.04002 78.9599 2.04002 72.3599 9.00002 68.2799L47.04 46.1999C54 42.1199 65.4 42.1199 72.48 46.1999L110.88 68.2799Z" fill="#F1FFF4"/>
<path opacity="0.3" d="M99.6 69.96C105.12 73.08 105.12 78.24 99.72 81.48L70.08 98.64C64.68 101.76 55.8 101.76 50.28 98.64L20.4 81.48C14.88 78.36 14.88 73.2 20.4 69.96L49.92 52.8C55.32 49.68 64.2 49.68 69.72 52.8L99.6 69.96Z" stroke="#07828B" stroke-width="0.6" stroke-miterlimit="10"/>
<path d="M65.6239 50.3115C65.629 48.5221 63.108 47.0643 59.9931 47.0555C56.8782 47.0467 54.349 48.4901 54.3439 50.2795C54.3388 52.0689 56.8598 53.5267 59.9747 53.5355C63.0896 53.5444 65.6188 52.1009 65.6239 50.3115Z" fill="#A6CEFC"/>
<path d="M55.3201 47.0399V50.0399C55.3201 50.7599 55.8001 51.4799 56.7601 51.9599C58.5601 53.0399 61.5601 53.0399 63.4801 51.9599C64.4401 51.4799 64.8001 50.7599 64.8001 50.0399V47.0399H55.3201Z" fill="url(#paint1_linear_22_823)"/>
<path d="M62.5201 45.6C63.9601 46.44 63.9601 47.76 62.5201 48.48C61.0801 49.32 58.9201 49.32 57.4801 48.48C56.0401 47.64 56.0401 46.32 57.4801 45.6C58.8001 44.76 61.0801 44.76 62.5201 45.6Z" fill="url(#paint2_linear_22_823)"/>
<path d="M63.5405 47.3493C63.5437 46.2226 61.9345 45.3047 59.9463 45.2991C57.9581 45.2935 56.3437 46.2022 56.3405 47.3289C56.3373 48.4556 57.9465 49.3735 59.9347 49.3791C61.9229 49.3847 63.5373 48.476 63.5405 47.3493Z" fill="#0CFFFC"/>
<path d="M63.36 45.1199C61.56 44.0399 58.56 44.0399 56.64 45.1199C54.84 46.1999 54.84 47.8799 56.64 48.9599C58.44 50.0399 61.44 50.0399 63.36 48.9599C65.16 47.8799 65.16 46.1999 63.36 45.1199ZM62.52 48.4799C61.08 49.3199 58.92 49.3199 57.48 48.4799C56.04 47.6399 56.04 46.3199 57.48 45.5999C58.92 44.7599 61.08 44.7599 62.52 45.5999C63.96 46.4399 63.96 47.7599 62.52 48.4799Z" fill="#BCD0F1"/>
<path d="M63.5999 35.6399H56.3999V47.0399C56.3999 47.6399 56.7599 48.1199 57.4799 48.5999C58.9199 49.4399 61.1999 49.4399 62.5199 48.5999C63.2399 48.2399 63.5999 47.6399 63.5999 47.1599V35.6399Z" fill="url(#paint3_linear_22_823)"/>
<path d="M108.545 75.2593C108.55 73.4699 106.029 72.0121 102.914 72.0033C99.7996 71.9944 97.2704 73.4379 97.2653 75.2273C97.2602 77.0167 99.7812 78.4744 102.896 78.4833C106.011 78.4921 108.54 77.0487 108.545 75.2593Z" fill="#07828B"/>
<path d="M98.2803 72V75C98.2803 75.72 98.7603 76.44 99.7203 76.92C101.52 78 104.52 78 106.44 76.92C107.4 76.44 107.76 75.72 107.76 75V72H98.2803Z" fill="url(#paint4_linear_22_823)"/>
<path d="M105.48 70.5601C106.92 71.4001 106.92 72.7201 105.48 73.4401C104.04 74.2801 101.88 74.2801 100.44 73.4401C99.0001 72.6001 99.0001 71.2801 100.44 70.5601C101.76 69.7201 104.04 69.7201 105.48 70.5601Z" fill="url(#paint5_linear_22_823)"/>
<path d="M106.582 72.2973C106.585 71.1706 104.976 70.2527 102.988 70.2471C100.999 70.2415 99.385 71.1502 99.3818 72.2769C99.3786 73.4035 100.988 74.3215 102.976 74.3271C104.964 74.3327 106.579 73.424 106.582 72.2973Z" fill="#0CFFFC"/>
<path d="M106.2 70.08C104.4 69 101.4 69 99.4801 70.08C97.6801 71.16 97.6801 72.84 99.4801 73.92C101.28 75 104.28 75 106.2 73.92C108.12 72.96 108.12 71.16 106.2 70.08ZM105.48 73.56C104.04 74.4 101.88 74.4 100.44 73.56C99.0001 72.72 99.0001 71.4 100.44 70.68C101.88 69.84 104.04 69.84 105.48 70.68C106.8 71.4 106.8 72.72 105.48 73.56Z" fill="#25CEDA"/>
<path d="M106.56 60.6H99.3601V72C99.3601 72.6 99.7201 73.08 100.44 73.56C101.88 74.4 104.16 74.4 105.48 73.56C106.2 73.2 106.56 72.6 106.56 72.12V60.6Z" fill="url(#paint6_linear_22_823)"/>
<path d="M22.6761 75.3107C22.6812 73.5213 20.1602 72.0635 17.0453 72.0547C13.9304 72.0458 11.4012 73.4893 11.3961 75.2787C11.3911 77.0681 13.9121 78.5258 17.027 78.5347C20.1418 78.5435 22.6711 77.1001 22.6761 75.3107Z" fill="#07828B"/>
<path d="M12.3601 72V75C12.3601 75.72 12.8401 76.44 13.8001 76.92C15.6001 78 18.6001 78 20.5201 76.92C21.4801 76.44 21.8401 75.72 21.8401 75V72H12.3601Z" fill="url(#paint7_linear_22_823)"/>
<path d="M19.5602 70.5601C21.0002 71.4001 21.0002 72.7201 19.5602 73.4401C18.1202 74.2801 15.9602 74.2801 14.5202 73.4401C13.0802 72.6001 13.0802 71.2801 14.5202 70.5601C15.9602 69.7201 18.2402 69.7201 19.5602 70.5601Z" fill="url(#paint8_linear_22_823)"/>
<path d="M20.7126 72.3489C20.7158 71.2223 19.1066 70.3044 17.1184 70.2987C15.1302 70.2931 13.5158 71.2019 13.5126 72.3285C13.5094 73.4552 15.1186 74.3731 17.1068 74.3787C19.0951 74.3844 20.7094 73.4756 20.7126 72.3489Z" fill="#0CFFFC"/>
<path d="M20.4001 70.08C18.6001 69 15.6001 69 13.6801 70.08C11.8801 71.16 11.8801 72.84 13.6801 73.92C15.4801 75 18.4801 75 20.4001 73.92C22.2001 72.96 22.2001 71.16 20.4001 70.08ZM19.5601 73.56C18.1201 74.4 15.9601 74.4 14.5201 73.56C13.0801 72.72 13.0801 71.4 14.5201 70.68C15.9601 69.84 18.1201 69.84 19.5601 70.68C21.0001 71.4 21.0001 72.72 19.5601 73.56Z" fill="#25CEDA"/>
<path d="M20.6402 60.6H13.4402V72C13.4402 72.6 13.8002 73.08 14.5202 73.56C15.9602 74.4 18.2402 74.4 19.5602 73.56C20.2802 73.2 20.6402 72.6 20.6402 72.12V60.6Z" fill="url(#paint9_linear_22_823)"/>
<path d="M91.4401 67.7999H28.5601V74.8799C28.5601 76.3199 29.5201 77.8799 31.5601 78.9599L53.0401 91.3199C57.0001 93.5999 63.3601 93.5999 67.3201 91.3199L88.6801 78.9599C90.6001 77.7599 91.5601 76.3199 91.5601 74.8799V67.7999H91.4401Z" fill="url(#paint10_linear_22_823)"/>
<path d="M88.56 63.7199C92.52 65.9999 92.52 69.7199 88.56 71.9999L67.2 84.3599C63.24 86.6399 56.88 86.6399 52.92 84.3599L31.44 71.9999C27.48 69.7199 27.48 65.9999 31.44 63.7199L52.8 51.3599C56.76 49.0799 63.12 49.0799 67.08 51.3599L88.56 63.7199Z" fill="#23A6B0"/>
<path d="M59.88 49.5599V50.1599C62.52 50.1599 64.92 50.7599 66.72 51.8399L88.2 64.1999C89.88 65.1599 90.84 66.4799 90.84 67.7999C90.84 69.1199 89.88 70.4399 88.2 71.3999L66.96 83.8799C65.16 84.9599 62.76 85.5599 60.12 85.5599C57.48 85.5599 55.08 84.9599 53.28 83.8799L31.8 71.3999C30.12 70.4399 29.16 69.1199 29.16 67.7999C29.16 66.4799 30.12 65.1599 31.8 64.1999L53.16 51.8399C54.96 50.7599 57.36 50.1599 60 50.1599V49.5599M59.88 49.5599C57.24 49.5599 54.72 50.1599 52.8 51.2399L31.44 63.7199C27.48 65.9999 27.48 69.7199 31.44 71.9999L52.92 84.3599C54.84 85.5599 57.48 86.0399 60.12 86.0399C62.76 86.0399 65.28 85.4399 67.2 84.3599L88.56 71.9999C92.52 69.7199 92.52 65.9999 88.56 63.7199L67.08 51.3599C65.04 50.1599 62.52 49.5599 59.88 49.5599Z" fill="url(#paint11_linear_22_823)"/>
<path d="M91.4401 38.6398H28.5601V62.2798C28.5601 63.7198 29.5201 65.2798 31.5601 66.3598L53.0401 78.7198C57.0001 80.9998 63.3601 80.9998 67.3201 78.7198L88.6801 66.3598C90.6001 65.1598 91.5601 63.7198 91.5601 62.2798V38.6398H91.4401Z" fill="url(#paint12_linear_22_823)"/>
<path d="M88.56 34.5599C92.52 36.8399 92.52 40.5599 88.56 42.8399L67.2 55.1999C63.24 57.4799 56.88 57.4799 52.92 55.1999L31.44 42.7199C27.48 40.4399 27.48 36.7199 31.44 34.4399L52.8 22.0799C56.76 19.7999 63.12 19.7999 67.08 22.0799L88.56 34.5599Z" fill="#1EABB6"/>
<path d="M59.88 20.3999V20.9999C62.52 20.9999 64.92 21.5999 66.72 22.6799L88.2 35.0399C89.88 35.9999 90.84 37.3199 90.84 38.6399C90.84 39.9599 89.88 41.2799 88.2 42.2399L66.96 54.5999C65.16 55.6799 62.76 56.2799 60.12 56.2799C57.48 56.2799 55.08 55.6799 53.28 54.5999L31.8 42.2399C30.12 41.2799 29.16 39.9599 29.16 38.6399C29.16 37.3199 30.12 35.9999 31.8 35.0399L53.16 22.6799C54.96 21.5999 57.36 20.9999 60 20.9999V20.3999M59.88 20.3999C57.24 20.3999 54.72 20.9999 52.8 22.0799L31.44 34.5599C27.48 36.8399 27.48 40.5599 31.44 42.8399L52.92 55.1999C54.84 56.3999 57.48 56.8799 60.12 56.8799C62.76 56.8799 65.28 56.2799 67.2 55.1999L88.56 42.8399C92.52 40.5599 92.52 36.8399 88.56 34.5599L67.08 22.0799C65.04 20.9999 62.52 20.3999 59.88 20.3999Z" fill="url(#paint13_linear_22_823)"/>
<path opacity="0.2" d="M94.44 33.5999C99.24 36.3599 99.24 40.7999 94.56 43.5599L68.76 58.5599C63.96 61.3199 56.28 61.3199 51.48 58.5599L25.56 43.6799C20.76 40.9199 20.76 36.4799 25.56 33.7199L51.36 18.7199C56.04 15.9599 63.84 15.9599 68.64 18.7199L94.44 33.5999Z" stroke="#10D4E3" stroke-width="0.6" stroke-miterlimit="10"/>
<path d="M74.76 36.4799C76.8 37.6799 76.8 39.5999 74.76 40.7999L63.72 47.2799C61.68 48.4799 58.32 48.4799 56.28 47.2799L45.24 40.7999C43.2 39.5999 43.2 37.6799 45.24 36.4799L56.28 29.9999C58.32 28.7999 61.68 28.7999 63.72 29.9999L74.76 36.4799Z" fill="url(#paint14_linear_22_823)"/>
<path d="M59.9999 29.1599C61.3199 29.1599 62.6399 29.3999 63.7199 29.9999L74.8799 36.4799C76.9199 37.6799 76.9199 39.5999 74.8799 40.7999L63.8399 47.2799C62.8799 47.8799 61.4399 48.1199 60.1199 48.1199C58.7999 48.1199 57.4799 47.8799 56.3999 47.2799L45.2399 40.7999C43.1999 39.5999 43.1999 37.6799 45.2399 36.4799L56.2799 29.9999C57.2399 29.5199 58.5599 29.1599 59.9999 29.1599ZM59.9999 28.9199C58.5599 28.9199 57.2399 29.2799 56.1599 29.8799L45.1199 36.3599C44.0399 36.9599 43.4399 37.7999 43.4399 38.7599C43.4399 39.7199 44.0399 40.5599 45.1199 41.1599L56.2799 47.6399C57.3599 48.2399 58.6799 48.5999 60.1199 48.5999C61.5599 48.5999 62.8799 48.2399 63.9599 47.6399L74.9999 41.1599C76.0799 40.5599 76.6799 39.7199 76.6799 38.7599C76.6799 37.7999 76.0799 36.9599 74.9999 36.3599L63.8399 29.8799C62.7599 29.2799 61.4399 28.9199 59.9999 28.9199Z" fill="url(#paint15_linear_22_823)"/>
<path d="M76.3198 10.4399C76.3198 9.7199 75.8398 8.8799 74.7598 8.2799L63.5998 1.7999C61.5598 0.599902 58.1998 0.599902 56.1598 1.7999L45.1198 8.2799C44.1598 8.8799 43.5598 9.5999 43.5598 10.4399V38.6399C43.5598 39.3599 44.0398 40.1999 45.1198 40.7999L56.2798 47.2799C58.3198 48.4799 61.6798 48.4799 63.7198 47.2799L74.7598 40.7999C75.7198 40.1999 76.3198 39.4799 76.3198 38.6399V10.4399Z" fill="url(#paint16_linear_22_823)"/>
<path opacity="0.3" d="M52.5598 12.8398H52.7998C52.9198 12.8398 52.9198 12.8398 52.9198 12.9598V21.5998C52.9198 21.5998 52.9198 21.7198 52.7998 21.7198H52.4398C52.4398 21.7198 52.3198 21.7198 52.3198 21.5998V12.9598C52.4398 12.9598 52.5598 12.8398 52.5598 12.8398Z" fill="url(#paint17_linear_22_823)"/>
<path opacity="0.4" d="M73.6801 32.1598H73.9201C74.0401 32.1598 74.0401 32.1598 74.0401 32.2798V40.6798C74.0401 40.7998 74.0401 40.7998 73.9201 40.7998H73.6801C73.5601 40.7998 73.5601 40.7998 73.5601 40.6798V32.2798L73.6801 32.1598Z" fill="url(#paint18_linear_22_823)"/>
<path opacity="0.5" d="M61.1998 22.6798C61.3987 22.6798 61.5598 22.5187 61.5598 22.3198C61.5598 22.121 61.3987 21.9598 61.1998 21.9598C61.001 21.9598 60.8398 22.121 60.8398 22.3198C60.8398 22.5187 61.001 22.6798 61.1998 22.6798Z" fill="#FBDB45"/>
<path opacity="0.5" d="M46.56 33.2399C46.7588 33.2399 46.9199 33.0787 46.9199 32.8799C46.9199 32.6811 46.7588 32.5199 46.56 32.5199C46.3611 32.5199 46.2 32.6811 46.2 32.8799C46.2 33.0787 46.3611 33.2399 46.56 33.2399Z" fill="white"/>
<path opacity="0.2" d="M60.9599 37.5598C61.1587 37.5598 61.3199 37.3987 61.3199 37.1998C61.3199 37.001 61.1587 36.8398 60.9599 36.8398C60.761 36.8398 60.5999 37.001 60.5999 37.1998C60.5999 37.3987 60.761 37.5598 60.9599 37.5598Z" fill="white"/>
<path opacity="0.2" d="M74.7599 26.0398C74.9587 26.0398 75.1199 25.8786 75.1199 25.6798C75.1199 25.481 74.9587 25.3198 74.7599 25.3198C74.5611 25.3198 74.3999 25.481 74.3999 25.6798C74.3999 25.8786 74.5611 26.0398 74.7599 26.0398Z" fill="white"/>
<path opacity="0.4" d="M62.9998 27.1199H63.2398C63.3598 27.1199 63.3598 27.2399 63.3598 27.2399V36.8399C63.3598 36.9599 63.2398 36.9599 63.2398 36.9599H62.9998C62.8798 36.9599 62.8798 36.8399 62.8798 36.8399V27.2399C62.7598 27.2399 62.8798 27.1199 62.9998 27.1199Z" fill="url(#paint19_linear_22_823)"/>
<path d="M72.2399 14.2799L72.1199 29.6399L62.6399 24.1199V8.75989L72.2399 14.2799Z" fill="white"/>
<path d="M72.2399 14.2799L73.0799 13.7999V29.1599L72.1199 29.6399L72.2399 14.2799Z" fill="#CFD5EA"/>
<path d="M62.6399 8.75991L63.4799 8.27991L73.0799 13.7999L72.2399 14.2799L62.6399 8.75991Z" fill="#E6EBF4"/>
<path d="M68.8799 15.3599C68.9999 15.4799 69.1199 15.7199 69.1199 15.8399C69.1199 16.0799 68.9999 16.0799 68.8799 15.9599L63.8399 13.0799C63.7199 12.9599 63.5999 12.7199 63.5999 12.5999C63.5999 12.3599 63.7199 12.3599 63.8399 12.4799L68.8799 15.3599Z" fill="#9199B5"/>
<path d="M65.7599 15.4799C65.8799 15.5999 65.9999 15.8399 65.9999 15.9599C65.9999 16.1999 65.8799 16.1999 65.7599 16.0799L63.8399 14.9999C63.7199 14.8799 63.5999 14.6399 63.5999 14.5199C63.5999 14.2799 63.7199 14.2799 63.8399 14.3999L65.7599 15.4799Z" fill="#9199B5"/>
<path d="M70.56 18.24C70.68 18.36 70.8 18.6 70.8 18.72C70.8 18.96 70.68 18.96 70.56 18.84L66.72 16.8C66.6 16.68 66.48 16.44 66.48 16.32C66.48 16.08 66.6 16.08 66.72 16.08L70.56 18.24Z" fill="#9199B5"/>
<path d="M70.5599 20.3999C70.6799 20.5199 70.7999 20.7599 70.7999 20.8799C70.7999 21.1199 70.6799 21.1199 70.5599 20.9999L65.3999 17.9999C65.2799 17.8799 65.1599 17.6399 65.1599 17.5199C65.1599 17.2799 65.2799 17.2799 65.3999 17.3999L70.5599 20.3999Z" fill="#9199B5"/>
<path d="M70.56 16.3199C70.68 16.4399 70.8 16.6799 70.8 16.7999C70.8 17.0399 70.68 17.0399 70.56 16.9199L69.96 16.5599C69.84 16.4399 69.72 16.1999 69.72 16.0799C69.72 15.8399 69.84 15.8399 69.96 15.9599L70.56 16.3199Z" fill="#9199B5"/>
<path d="M58.44 21.84L58.32 32.52L47.04 25.92V15.36L58.44 21.84Z" fill="white"/>
<path d="M58.4401 21.84L59.2801 21.36L59.1601 31.92L58.3201 32.52L58.4401 21.84Z" fill="#CFD5EA"/>
<path d="M47.04 15.3599L47.88 14.8799L59.28 21.3599L58.44 21.8399L47.04 15.3599Z" fill="#E6EBF4"/>
<path d="M53.04 22.4399C52.92 22.4399 52.68 22.4399 52.56 22.5599C52.32 22.6799 52.2 22.7999 51.96 23.0399C51.84 23.1599 51.72 23.3999 51.6 23.5199C51.36 23.8799 51.24 24.1199 50.88 24.3599C50.76 24.4799 50.64 24.5999 50.52 24.5999C50.52 24.5999 50.52 24.5999 50.4 24.5999C50.4 24.4799 50.4 24.4799 50.28 24.3599C50.4 24.3599 50.4 24.1199 50.28 23.9999C50.16 23.8799 50.16 23.7599 50.04 23.7599L49.92 23.6399C49.8 23.6399 49.8 23.6399 49.68 23.6399C49.56 23.6399 49.56 23.6399 49.44 23.6399C49.32 23.6399 49.32 23.7599 49.2 23.7599C49.08 23.8799 48.96 23.9999 48.84 24.1199C48.84 24.2399 48.72 24.2399 48.72 24.3599C48.72 24.4799 48.6 24.4799 48.6 24.5999C48.48 24.5999 48.36 24.5999 48.24 24.4799C48.12 24.3599 48 24.4799 47.88 24.5999C47.76 24.7199 47.88 24.8399 48 24.9599C48.12 25.0799 48.36 25.0799 48.6 25.0799C48.72 25.0799 48.72 25.0799 48.84 25.0799C48.84 25.0799 48.96 25.0799 48.96 24.9599C49.08 24.9599 49.08 24.8399 49.2 24.7199C49.32 24.5999 49.32 24.4799 49.44 24.4799C49.56 24.3599 49.56 24.3599 49.68 24.2399H49.8C49.8 24.2399 49.92 24.2399 49.92 24.3599C50.04 24.4799 50.04 24.5999 50.16 24.7199C50.16 24.8399 50.28 25.0799 50.28 25.1999V25.3199L50.4 25.4399C50.4 25.4399 50.52 25.4399 50.64 25.4399C50.76 25.4399 50.76 25.4399 50.88 25.4399C51 25.3199 51.12 25.3199 51.24 25.1999C51.48 25.0799 51.6 24.8399 51.72 24.5999C51.84 24.3599 52.08 24.1199 52.2 23.9999C52.32 23.7599 52.44 23.6399 52.68 23.3999C52.8 23.2799 52.8 23.2799 52.92 23.1599C53.04 23.1599 53.04 23.0399 53.16 23.0399C53.28 23.0399 53.28 23.0399 53.4 23.0399C53.52 23.1599 53.76 23.2799 53.76 23.5199C54 23.8799 54.12 24.3599 54.12 24.7199C54.24 25.0799 54.36 25.5599 54.48 25.9199C54.48 26.0399 54.6 26.1599 54.72 26.2799L54.84 26.3999C54.84 26.3999 54.96 26.3999 55.08 26.3999C55.2 26.3999 55.2 26.3999 55.2 26.3999C55.32 26.3999 55.32 26.2799 55.44 26.1599C55.56 26.0399 55.56 25.9199 55.68 25.7999C55.8 25.5599 55.92 25.3199 55.92 25.0799C55.92 24.9599 56.04 24.8399 56.04 24.8399L56.16 24.7199C56.28 24.5999 56.4 24.5999 56.4 24.5999C56.52 24.5999 56.64 24.4799 56.64 24.3599C56.64 24.2399 56.52 24.1199 56.4 24.1199C56.16 24.1199 56.04 24.2399 55.92 24.3599C55.8 24.3599 55.8 24.4799 55.68 24.5999C55.56 24.7199 55.44 24.9599 55.44 25.0799C55.32 25.3199 55.2 25.5599 55.08 25.7999C55.08 25.7999 55.08 25.9199 54.96 25.9199C54.84 25.7999 54.84 25.6799 54.84 25.5599C54.72 25.3199 54.72 25.0799 54.6 24.8399C54.48 24.1199 54.24 23.5199 54 23.2799C53.88 23.1599 53.76 23.0399 53.64 22.9199C53.4 22.5599 53.28 22.4399 53.04 22.4399Z" fill="#E6EBF4"/>
<path d="M48 23.88C48.12 24 48.36 24 48.6 24C48.72 24 48.72 24 48.84 24C48.84 24 48.96 24 48.96 23.88C49.08 23.88 49.08 23.76 49.2 23.64C49.32 23.52 49.32 23.4 49.44 23.4C49.56 23.28 49.56 23.28 49.68 23.16H49.8L49.92 23.28C50.04 23.4 50.04 23.52 50.16 23.64C50.16 23.76 50.28 24 50.28 24.12V24.24L50.4 24.36C50.4 24.36 50.52 24.36 50.64 24.36C50.76 24.36 50.76 24.36 50.88 24.36C51 24.24 51.12 24.24 51.24 24.12C51.48 24 51.6 23.76 51.84 23.52C51.96 23.28 52.2 23.04 52.32 22.8C52.44 22.56 52.56 22.32 52.8 22.2C52.92 22.08 53.04 22.08 53.04 21.96C53.16 21.96 53.16 21.84 53.28 21.84C53.4 21.84 53.4 21.84 53.52 21.96C53.64 22.08 53.88 22.2 53.88 22.44C54.12 22.8 54.24 23.28 54.36 23.64C54.48 24 54.6 24.48 54.72 24.84C54.72 24.96 54.84 25.08 54.96 25.2L55.08 25.32C55.08 25.32 55.2 25.32 55.32 25.32C55.44 25.32 55.44 25.32 55.56 25.32C55.68 25.32 55.68 25.2 55.8 25.08C55.92 24.96 55.92 24.84 56.04 24.72C56.16 24.48 56.28 24.24 56.4 24C56.4 23.88 56.52 23.76 56.52 23.76L56.64 23.64C56.76 23.52 56.88 23.52 56.88 23.52C57 23.52 57.12 23.4 57.12 23.28C57.12 23.16 57 23.04 56.88 23.04C56.64 23.04 56.52 23.16 56.4 23.28C56.28 23.4 56.28 23.4 56.16 23.52C56.04 23.64 55.92 23.88 55.92 24C55.8 24.24 55.68 24.6 55.56 24.72C55.56 24.84 55.44 24.84 55.44 24.96V24.84V24.72C55.44 24.72 55.44 24.6 55.32 24.6C55.2 24.48 55.2 24.36 55.2 24.12C55.08 23.88 55.08 23.64 54.96 23.4C54.72 22.56 54.6 22.08 54.36 21.72C54.24 21.6 54.12 21.48 54 21.36C53.88 21.24 53.64 21.24 53.52 21.24C53.4 21.24 53.16 21.24 53.04 21.36C52.8 21.48 52.68 21.6 52.44 21.84C52.32 21.96 52.2 22.2 52.08 22.32C51.84 22.68 51.6 22.92 51.36 23.16C51.24 23.28 51.12 23.4 51 23.52C51 23.52 50.88 23.52 50.88 23.64V24L51 23.88V24L51.12 23.88L50.52 24H50.64C50.64 23.88 50.52 23.76 50.52 23.64C50.4 23.4 50.4 23.28 50.28 23.04C50.16 22.92 50.16 22.8 50.04 22.8L49.92 22.68C49.8 22.68 49.8 22.68 49.68 22.68C49.56 22.68 49.56 22.68 49.44 22.68C49.32 22.68 49.32 22.8 49.2 22.8C49.08 22.92 48.96 23.04 48.84 23.16C48.84 23.28 48.72 23.28 48.72 23.4C48.72 23.52 48.6 23.52 48.6 23.64C48.48 23.64 48.36 23.64 48.24 23.52C48.12 23.4 48 23.52 47.88 23.64C47.76 23.76 47.88 23.88 48 23.88Z" fill="#07828B"/>
<path d="M64.32 41.16L56.76 36.84V47.4C58.8 48.36 61.8 48.36 63.72 47.28L64.2 47.04L64.32 41.16Z" fill="white"/>
<path d="M65.16 46.4399V40.6799L64.3199 41.1599L64.2 46.9199L65.16 46.4399Z" fill="#CFD5EA"/>
<path d="M56.76 36.84L57.6 36.36L65.16 40.68L64.32 41.16L56.76 36.84Z" fill="#E6EBF4"/>
<path d="M61.8 41.9999C61.92 42.1199 62.04 42.2399 62.04 42.3599C62.04 42.4799 61.92 42.5999 61.8 42.4799L57.72 40.0799C57.6 39.9599 57.48 39.8399 57.48 39.7199C57.48 39.5999 57.6 39.4799 57.72 39.5999L61.8 41.9999Z" fill="#9199B5"/>
<path d="M59.28 42.1199C59.4 42.2399 59.52 42.3599 59.52 42.4799C59.52 42.5999 59.4 42.7199 59.28 42.5999L57.72 41.7599C57.6 41.6399 57.48 41.5199 57.48 41.3999C57.48 41.2799 57.6 41.1599 57.72 41.2799L59.28 42.1199Z" fill="#9199B5"/>
<path d="M63.1201 44.3999C63.2401 44.5199 63.3601 44.6399 63.3601 44.7599C63.3601 44.8799 63.2401 44.9999 63.1201 44.8799L60.1201 43.1999C60.0001 43.0799 59.8801 42.9599 59.8801 42.8399C59.8801 42.7199 60.0001 42.5999 60.1201 42.7199L63.1201 44.3999Z" fill="#9199B5"/>
<path d="M63.1199 45.96C63.2399 46.08 63.3599 46.2 63.3599 46.32C63.3599 46.44 63.2399 46.56 63.1199 46.44L58.9199 44.04C58.7999 43.92 58.6799 43.8 58.6799 43.68C58.6799 43.56 58.7999 43.44 58.9199 43.56L63.1199 45.96Z" fill="#9199B5"/>
<path d="M63.1199 42.72C63.2399 42.84 63.3599 42.96 63.3599 43.08C63.3599 43.2 63.2399 43.32 63.1199 43.2L62.6399 42.96C62.5199 42.84 62.3999 42.72 62.3999 42.6C62.3999 42.48 62.5199 42.36 62.6399 42.48L63.1199 42.72Z" fill="#9199B5"/>
<path d="M37.2 64.7999L38.04 64.3199C38.16 64.1999 38.28 63.9599 38.28 63.7199C38.28 63.1199 37.8 62.3999 37.32 62.0399C37.08 61.9199 36.84 61.9199 36.6 61.9199L35.76 62.3999L37.2 64.7999Z" fill="url(#paint20_linear_22_823)"/>
<path d="M37.2392 64.7364C37.5841 64.5386 37.5697 63.8656 37.207 63.2333C36.8443 62.6009 36.2707 62.2487 35.9258 62.4465C35.5809 62.6443 35.5953 63.3173 35.958 63.9497C36.3207 64.582 36.8943 64.9342 37.2392 64.7364Z" fill="#2185F8"/>
<path d="M37.0004 64.3198C37.2304 64.1879 37.2297 63.7547 36.9989 63.3523C36.7681 62.9499 36.3946 62.7306 36.1646 62.8625C35.9347 62.9944 35.9354 63.4275 36.1662 63.8299C36.397 64.2323 36.7705 64.4516 37.0004 64.3198Z" fill="#0CFFFC"/>
<path d="M41.1602 67.08L42.0002 66.6C42.1202 66.48 42.2402 66.24 42.2402 66C42.2402 65.4 41.7602 64.6799 41.2802 64.3199C41.0402 64.1999 40.8002 64.2 40.5602 64.2L39.7202 64.68L41.1602 67.08Z" fill="url(#paint21_linear_22_823)"/>
<path d="M41.2092 67.001C41.5541 66.8031 41.5397 66.1301 41.177 65.4978C40.8143 64.8654 40.2407 64.5132 39.8958 64.711C39.5508 64.9088 39.5653 65.5818 39.9279 66.2142C40.2906 66.8465 40.8642 67.1988 41.2092 67.001Z" fill="#2185F8"/>
<path d="M40.9704 66.5844C41.2004 66.4525 41.1997 66.0194 40.9689 65.617C40.7381 65.2146 40.3646 64.9953 40.1346 65.1272C39.9047 65.2591 39.9054 65.6922 40.1362 66.0946C40.367 66.497 40.7405 66.7163 40.9704 66.5844Z" fill="#FFE200"/>
<path d="M85.6798 50.7599C85.9198 50.6399 86.1598 50.6399 86.2798 50.7599C86.3998 50.8799 86.5198 50.9999 86.5198 51.3599V63.1199C86.5198 63.5999 86.1598 64.3199 85.6798 64.5599L68.6398 74.3999C68.1598 74.6399 67.7998 74.3999 67.7998 73.9199V62.1599C67.7998 61.6799 68.1598 60.9599 68.6398 60.7199L85.6798 50.7599Z" fill="#07828B"/>
<path d="M86.3998 51.1199C86.8798 50.8799 87.2398 51.1199 87.2398 51.5999V63.3599C87.2398 63.8399 86.8798 64.5599 86.3998 64.7999L69.3598 74.6399C68.8798 74.8799 68.5198 74.6399 68.5198 74.1599V62.3999C68.5198 61.9199 68.8798 61.1999 69.3598 60.9599L86.3998 51.1199Z" fill="#0ABECB"/>
<path d="M72.2399 60.84C72.4799 60.72 72.5999 60.84 72.5999 61.08C72.5999 61.32 72.4799 61.56 72.2399 61.68C71.9999 61.8 71.8799 61.68 71.8799 61.44C71.8799 61.2 71.9999 60.96 72.2399 60.84Z" fill="white"/>
<path opacity="0.8" d="M79.6798 59.2799C79.7998 59.1599 79.9198 59.2799 79.9198 59.3999V66.8399C79.9198 66.9599 79.7998 67.0799 79.6798 67.1999L70.3198 72.5999C70.1998 72.7199 70.0798 72.5999 70.0798 72.4799V65.0399C70.0798 64.9199 70.1998 64.7999 70.3198 64.6799L79.6798 59.2799Z" fill="white"/>
<path opacity="0.502" d="M85.92 60.1199C86.04 59.9999 86.16 60.1199 86.16 60.2399V63.2399C86.16 63.3599 86.04 63.4799 85.92 63.5999L81 66.4799C80.88 66.5999 80.76 66.4799 80.76 66.3599V63.3599C80.76 63.2399 80.88 63.1199 81 62.9999L85.92 60.1199Z" fill="white"/>
<path opacity="0.502" d="M85.92 55.68C86.04 55.56 86.16 55.68 86.16 55.8V58.8C86.16 58.92 86.04 59.04 85.92 59.16L81 62.04C80.88 62.16 80.76 62.04 80.76 61.92V58.92C80.76 58.8 80.88 58.68 81 58.56L85.92 55.68Z" fill="white"/>
<path d="M69.9599 62.16C70.1999 62.04 70.3199 62.16 70.3199 62.4C70.3199 62.64 70.1999 62.88 69.9599 63C69.7199 63.12 69.5999 63 69.5999 62.76C69.5999 62.52 69.7199 62.16 69.9599 62.16Z" fill="white"/>
<path d="M71.0399 61.44C71.2799 61.32 71.3999 61.44 71.3999 61.68C71.3999 61.92 71.2799 62.16 71.0399 62.28C70.7999 62.4 70.6799 62.28 70.6799 62.04C70.6799 61.8 70.9199 61.56 71.0399 61.44Z" fill="white"/>
<path d="M75.229 64.9933L71.389 67.1532H71.269C71.269 67.1532 71.269 67.0333 71.389 67.0333L75.229 64.8733H75.349C75.349 64.8733 75.349 64.9933 75.229 64.9933Z" fill="#6491FB"/>
<path d="M77.509 63.6731L75.829 64.6331H75.709C75.709 64.6331 75.709 64.5131 75.829 64.5131L77.509 63.5531H77.629C77.629 63.6731 77.629 63.6731 77.509 63.6731Z" fill="#FF9999"/>
<path d="M75.2291 65.665L73.1891 66.865H73.0691C73.0691 66.865 73.0691 66.745 73.1891 66.745L75.2291 65.545H75.3491C75.3491 65.545 75.3491 65.545 75.2291 65.665Z" fill="#FF9999"/>
<path d="M72.8292 66.9849L71.5092 67.8249H71.3892C71.3892 67.8249 71.3892 67.7049 71.5092 67.7049L72.8292 66.8649H72.9492C72.8292 66.9849 72.8292 66.9849 72.8292 66.9849Z" fill="#FF9999"/>
<path d="M77.5092 64.3449L75.8292 65.3049H75.7092C75.7092 65.3049 75.7092 65.1849 75.8292 65.1849L77.5092 64.2249H77.6292C77.6292 64.2249 77.6292 64.2249 77.5092 64.3449Z" fill="#A69CFB"/>
<path d="M73.9092 64.6342L71.5092 66.0742H71.3892C71.3892 66.0742 71.3892 65.9542 71.5092 65.9542L73.9092 64.5142H74.0292L73.9092 64.6342Z" fill="#6491FB"/>
<path d="M75.3492 63.7943L74.2692 64.3943H74.1492C74.1492 64.3943 74.1492 64.2743 74.2692 64.2743L75.3492 63.6743H75.4692C75.4692 63.6743 75.4692 63.7943 75.3492 63.7943Z" fill="#A69CFB"/>
<path d="M78.3492 62.1142L75.8292 63.5542H75.7092C75.7092 63.5542 75.7092 63.4343 75.8292 63.4343L78.3492 61.9943H78.4693L78.3492 62.1142Z" fill="#94F2B5"/>
<path d="M75.9491 67.5418L78.3491 66.1018L78.4691 65.9818C78.4691 65.9818 78.4691 65.8618 78.3491 65.9818L75.9491 67.4218C75.8291 67.4218 75.8291 67.4218 75.9491 67.5418C75.8291 67.5418 75.8291 67.5418 75.9491 67.5418Z" fill="#6491FB"/>
<path d="M74.3889 68.3818L75.4689 67.7818L75.5889 67.6617C75.5889 67.6617 75.5889 67.5417 75.4689 67.6617L74.3889 68.2617C74.3889 68.2617 74.3889 68.2618 74.3889 68.3818Z" fill="#94F2B5"/>
<path d="M71.5089 70.1818L74.029 68.7418L74.149 68.6218C74.149 68.6218 74.149 68.5018 74.029 68.6218L71.5089 70.0618C71.3889 69.9418 71.3889 70.0618 71.5089 70.1818C71.3889 70.1818 71.3889 70.1818 71.5089 70.1818Z" fill="#FF9999"/>
<path d="M73.0692 65.7922L71.5092 66.7521H71.3892C71.3892 66.7521 71.3892 66.6322 71.5092 66.6322L73.0692 65.6721H73.1892C73.0692 65.6721 73.0692 65.6722 73.0692 65.7922Z" fill="#A69CFB"/>
<path d="M76.4291 63.7522L73.4291 65.5522H73.3091C73.3091 65.5522 73.3091 65.4322 73.4291 65.4322L76.4291 63.6322H76.5491C76.4291 63.7522 76.4291 63.7522 76.4291 63.7522Z" fill="#94F2B5"/>
<path d="M78.5893 62.5522L76.6693 63.6323H76.5493C76.5493 63.6323 76.5493 63.5122 76.6693 63.5122L78.5893 62.4323H78.7093C78.7093 62.4323 78.7093 62.4322 78.5893 62.5522Z" fill="#6491FB"/>
<path d="M77.0292 67.2622L78.5892 66.3022H78.7092C78.7092 66.3022 78.7092 66.4222 78.5892 66.4222L77.0292 67.3823H76.9092C77.0292 67.3823 77.0292 67.2622 77.0292 67.2622Z" fill="#94F2B5"/>
<path d="M73.6693 69.1822L76.6693 67.3822H76.7893C76.7893 67.3822 76.7893 67.5022 76.6693 67.5022L73.6693 69.3022H73.5493C73.5493 69.3022 73.6693 69.3022 73.6693 69.1822Z" fill="#FFC99C"/>
<path d="M71.5092 70.5021L73.4292 69.4221H73.5492C73.5492 69.4221 73.5492 69.5422 73.4292 69.5422L71.5092 70.6221H71.3892C71.3892 70.6221 71.3892 70.5021 71.5092 70.5021Z" fill="#A69CFB"/>
<path d="M75.229 67.3247L71.389 69.4847H71.269C71.269 69.4847 71.269 69.3647 71.389 69.3647L75.229 67.2047H75.349C75.349 67.2047 75.349 67.3247 75.229 67.3247Z" fill="#FFC99C"/>
<path d="M77.509 66.0046L75.829 66.9646H75.709C75.709 66.9646 75.709 66.8446 75.829 66.8446L77.509 65.8845H77.629C77.629 66.0045 77.629 66.0046 77.509 66.0046Z" fill="#FF9999"/>
<path d="M73.0692 68.1239L71.5092 69.0839H71.3892C71.3892 69.0839 71.3892 68.9639 71.5092 68.9639L73.0692 68.0039H73.1892C73.0692 68.0039 73.0692 68.0039 73.0692 68.1239Z" fill="#94F2B5"/>
<path d="M76.4291 66.0838L73.4291 67.8838H73.3091C73.3091 67.8838 73.3091 67.7639 73.4291 67.7639L76.4291 65.9639H76.5491C76.4291 66.0839 76.4291 66.0838 76.4291 66.0838Z" fill="#6491FB"/>
<path d="M78.5893 64.8838L76.6693 65.9638H76.5493C76.5493 65.9638 76.5493 65.8438 76.6693 65.8438L78.5893 64.7638H78.7093C78.7093 64.7638 78.7093 64.7638 78.5893 64.8838Z" fill="#94F2B5"/>
<path d="M72.709 67.6476L71.389 68.3676H71.269C71.269 68.3676 71.269 68.2476 71.389 68.2476L72.709 67.5276H72.829C72.829 67.5276 72.829 67.6476 72.709 67.6476Z" fill="#A69CFB"/>
<path d="M75.4691 66.0875L72.9491 67.5275H72.8291C72.8291 67.5275 72.8291 67.4075 72.9491 67.4075L75.4691 65.9675H75.5891C75.5891 65.9675 75.5891 65.9675 75.4691 66.0875Z" fill="#FF9999"/>
<path d="M78.349 64.4074L75.829 65.8475H75.709C75.709 65.8475 75.709 65.7275 75.829 65.7275L78.349 64.2875H78.469C78.349 64.4075 78.349 64.4074 78.349 64.4074Z" fill="#FFC99C"/>
<path d="M82.4398 59.8799H82.3199C82.3199 59.7599 82.3199 59.6399 82.3199 59.5199C82.3199 59.3999 82.1999 59.2799 82.0799 59.3999C81.9599 59.5199 81.8398 59.6399 81.8398 59.8799C81.8398 59.9999 81.8398 60.1199 81.8398 60.2399L81.7199 60.3599C81.5999 60.4799 81.5999 60.4799 81.5999 60.5999V60.7199C81.8399 60.8399 82.1998 60.5999 82.4398 60.2399C82.4398 59.9999 82.4398 59.9999 82.4398 59.8799ZM81.9599 59.5199C82.0799 59.3999 82.1999 59.3999 82.1999 59.6399C82.1999 59.7599 82.1999 59.8799 82.1999 59.8799C82.0799 59.9999 82.0799 60.1199 81.9599 59.9999C81.9599 59.9999 81.8399 59.8799 81.9599 59.8799C81.8399 59.7599 81.8399 59.6399 81.9599 59.5199ZM82.3199 59.9999C82.0799 60.3599 81.8399 60.4799 81.5999 60.3599V60.2399L81.7199 60.1199C81.7199 60.1199 81.7198 60.1199 81.8398 60.1199C81.9598 60.1199 82.0799 60.1199 82.0799 59.9999C82.0799 59.9999 82.0799 59.9999 82.1999 59.9999H82.3199Z" fill="url(#paint22_linear_22_823)"/>
<path d="M81.9599 59.1599C81.5999 59.3999 81.3599 59.7599 81.3599 60.1199C81.3599 60.2399 81.3599 60.3599 81.3599 60.4799C81.3599 60.4799 81.3599 60.4799 81.3599 60.3599C81.3599 60.2399 81.3599 60.1199 81.3599 60.1199C81.3599 59.8799 81.4799 59.6399 81.7199 59.5199C81.9599 59.2799 82.0799 59.2799 82.1999 59.2799C82.3199 59.3999 82.4399 59.5199 82.3199 59.8799V59.9999C82.3199 59.9999 82.3199 59.9999 82.4399 59.8799C82.6799 59.1599 82.4399 58.7999 81.9599 59.1599Z" fill="url(#paint23_linear_22_823)"/>
<path d="M82.4397 64.3199H82.3197C82.3197 64.1999 82.3197 64.0799 82.3197 63.9599C82.3197 63.8399 82.1997 63.7199 82.0797 63.8399C81.9597 63.9599 81.8397 64.0799 81.8397 64.3199C81.8397 64.4399 81.8397 64.5599 81.8397 64.6799L81.7197 64.7999C81.5997 64.6799 81.5997 64.7999 81.4797 64.9199V65.0399C81.7197 65.1599 82.0797 64.9199 82.3197 64.5599C82.4397 64.4399 82.4397 64.4399 82.4397 64.3199ZM81.9597 63.9599C82.0797 63.8399 82.1997 63.8399 82.1997 64.0799C82.1997 64.1999 82.1997 64.3199 82.1997 64.3199C82.0797 64.4399 82.0797 64.5599 81.9597 64.4399C81.9597 64.4399 81.8397 64.3199 81.9597 64.3199C81.8397 64.1999 81.8397 64.0799 81.9597 63.9599ZM82.3197 64.4399C82.0797 64.7999 81.8397 64.9199 81.5997 64.7999V64.6799L81.7197 64.5599C81.7197 64.5599 81.7197 64.5599 81.8397 64.5599C81.9597 64.5599 82.0797 64.5599 82.0797 64.4399C82.0797 64.4399 82.0797 64.4399 82.1997 64.4399H82.3197Z" fill="url(#paint24_linear_22_823)"/>
<path d="M81.9599 63.48C81.5999 63.72 81.3599 64.08 81.3599 64.44C81.3599 64.56 81.3599 64.68 81.3599 64.8C81.3599 64.8 81.3599 64.8 81.3599 64.68C81.3599 64.56 81.3599 64.44 81.3599 64.44C81.3599 64.2 81.4799 63.96 81.7199 63.84C81.9599 63.6 82.0799 63.6 82.1999 63.6C82.3199 63.72 82.4399 63.84 82.3199 64.2V64.32C82.3199 64.32 82.3199 64.32 82.4399 64.2C82.6799 63.6 82.4399 63.24 81.9599 63.48Z" fill="url(#paint25_linear_22_823)"/>
<path d="M65.5973 100.258C65.6024 98.4689 63.0814 97.0111 59.9665 97.0023C56.8516 96.9935 54.3224 98.4369 54.3173 100.226C54.3122 102.016 56.8332 103.473 59.9481 103.482C63.063 103.491 65.5922 102.048 65.5973 100.258Z" fill="#07828B"/>
<path d="M55.3201 96.96V99.96C55.3201 100.68 55.8001 101.4 56.7601 101.88C58.5601 102.96 61.5601 102.96 63.4801 101.88C64.4401 101.4 64.8001 100.68 64.8001 99.96V96.96H55.3201Z" fill="url(#paint26_linear_22_823)"/>
<path d="M62.5201 95.5199C63.9601 96.3599 63.9601 97.6799 62.5201 98.3999C61.0801 99.2399 58.9201 99.2399 57.4801 98.3999C56.0401 97.5599 56.0401 96.2399 57.4801 95.5199C58.8001 94.7999 61.0801 94.7999 62.5201 95.5199Z" fill="url(#paint27_linear_22_823)"/>
<path d="M63.634 97.2965C63.6372 96.1698 62.028 95.2519 60.0398 95.2462C58.0516 95.2406 56.4372 96.1494 56.434 97.276C56.4308 98.4027 58.04 99.3206 60.0282 99.3262C62.0164 99.3319 63.6308 98.4231 63.634 97.2965Z" fill="#34E8F5"/>
<path d="M63.36 95.0399C61.56 93.9599 58.56 93.9599 56.64 95.0399C54.84 96.1199 54.84 97.7999 56.64 98.8799C58.44 99.9599 61.44 99.9599 63.36 98.8799C65.16 97.9199 65.16 96.1199 63.36 95.0399ZM62.52 98.5199C61.08 99.3599 58.92 99.3599 57.48 98.5199C56.04 97.6799 56.04 96.3599 57.48 95.6399C58.92 94.7999 61.08 94.7999 62.52 95.6399C63.96 96.3599 63.96 97.6799 62.52 98.5199Z" fill="#25CEDA"/>
<path d="M63.5999 85.6799H56.3999V97.0799C56.3999 97.6799 56.7599 98.1599 57.4799 98.6399C58.9199 99.4799 61.1999 99.4799 62.5199 98.6399C63.2399 98.2799 63.5999 97.6799 63.5999 97.1999V85.6799Z" fill="url(#paint28_linear_22_823)"/>
<defs>
<linearGradient id="paint0_linear_22_823" x1="3.76125" y1="93.9301" x2="116.126" y2="93.9301" gradientUnits="userSpaceOnUse">
<stop stop-color="#92F1D0"/>
<stop offset="1" stop-color="white"/>
</linearGradient>
<linearGradient id="paint1_linear_22_823" x1="55.2889" y1="49.8779" x2="64.7114" y2="49.8779" gradientUnits="userSpaceOnUse">
<stop offset="0.3375" stop-color="#97B5E1"/>
<stop offset="0.5932" stop-color="#E8F1FF"/>
</linearGradient>
<linearGradient id="paint2_linear_22_823" x1="56.4285" y1="47.07" x2="63.5719" y2="47.07" gradientUnits="userSpaceOnUse">
<stop stop-color="#103DB5"/>
<stop offset="0.6426" stop-color="#6BABFD"/>
</linearGradient>
<linearGradient id="paint3_linear_22_823" x1="59.9999" y1="48.8291" x2="59.9999" y2="35.7624" gradientUnits="userSpaceOnUse">
<stop stop-color="#0CFFFC" stop-opacity="0.6"/>
<stop offset="1" stop-color="white" stop-opacity="0"/>
</linearGradient>
<linearGradient id="paint4_linear_22_823" x1="98.2837" y1="74.8687" x2="107.743" y2="74.8687" gradientUnits="userSpaceOnUse">
<stop offset="0.3375" stop-color="#82DAE1"/>
<stop offset="0.5932" stop-color="#E8FFFC"/>
</linearGradient>
<linearGradient id="paint5_linear_22_823" x1="99.3629" y1="72.0435" x2="106.506" y2="72.0435" gradientUnits="userSpaceOnUse">
<stop stop-color="#103DB5"/>
<stop offset="0.6426" stop-color="#6BABFD"/>
</linearGradient>
<linearGradient id="paint6_linear_22_823" x1="102.935" y1="73.8026" x2="102.935" y2="60.7359" gradientUnits="userSpaceOnUse">
<stop stop-color="#0CFFFC" stop-opacity="0.6"/>
<stop offset="1" stop-color="white" stop-opacity="0"/>
</linearGradient>
<linearGradient id="paint7_linear_22_823" x1="12.3636" y1="74.8687" x2="21.8224" y2="74.8687" gradientUnits="userSpaceOnUse">
<stop offset="0.3375" stop-color="#82DAE1"/>
<stop offset="0.5932" stop-color="#E8FFFC"/>
</linearGradient>
<linearGradient id="paint8_linear_22_823" x1="13.4941" y1="72.0435" x2="20.6375" y2="72.0435" gradientUnits="userSpaceOnUse">
<stop stop-color="#103DB5"/>
<stop offset="0.6426" stop-color="#6BABFD"/>
</linearGradient>
<linearGradient id="paint9_linear_22_823" x1="17.0657" y1="73.8026" x2="17.0657" y2="60.7359" gradientUnits="userSpaceOnUse">
<stop stop-color="#0CFFFC" stop-opacity="0.6"/>
<stop offset="1" stop-color="white" stop-opacity="0"/>
</linearGradient>
<linearGradient id="paint10_linear_22_823" x1="28.5831" y1="80.4311" x2="91.4421" y2="80.4311" gradientUnits="userSpaceOnUse">
<stop offset="0.3375" stop-color="#82DAE1"/>
<stop offset="0.5932" stop-color="#E8FFFC"/>
</linearGradient>
<linearGradient id="paint11_linear_22_823" x1="91.2408" y1="70.6699" x2="28.7595" y2="64.9981" gradientUnits="userSpaceOnUse">
<stop stop-color="white"/>
<stop offset="1" stop-color="#C9D9F4"/>
</linearGradient>
<linearGradient id="paint12_linear_22_823" x1="28.5831" y1="59.5616" x2="91.4421" y2="59.5616" gradientUnits="userSpaceOnUse">
<stop offset="0.3375" stop-color="#82DAE1"/>
<stop offset="0.5932" stop-color="#E8FFFC"/>
</linearGradient>
<linearGradient id="paint13_linear_22_823" x1="91.2408" y1="41.4828" x2="28.7595" y2="35.811" gradientUnits="userSpaceOnUse">
<stop stop-color="white"/>
<stop offset="1" stop-color="#C9D9F4"/>
</linearGradient>
<linearGradient id="paint14_linear_22_823" x1="43.6806" y1="38.6468" x2="76.3196" y2="38.6468" gradientUnits="userSpaceOnUse">
<stop stop-color="#045257"/>
<stop offset="0.6426" stop-color="#0EC2D0"/>
</linearGradient>
<linearGradient id="paint15_linear_22_823" x1="76.6196" y1="38.647" x2="43.3805" y2="38.647" gradientUnits="userSpaceOnUse">
<stop stop-color="white"/>
<stop offset="1" stop-color="#4D9DF9"/>
</linearGradient>
<linearGradient id="paint16_linear_22_823" x1="59.9999" y1="48.0997" x2="59.9999" y2="0.942621" gradientUnits="userSpaceOnUse">
<stop stop-color="#21F8E6" stop-opacity="0.4"/>
<stop offset="1" stop-color="white" stop-opacity="0"/>
</linearGradient>
<linearGradient id="paint17_linear_22_823" x1="52.7122" y1="13.8217" x2="52.7122" y2="21.0289" gradientUnits="userSpaceOnUse">
<stop stop-color="#7AB4F4"/>
<stop offset="1" stop-color="#DFEDFA"/>
</linearGradient>
<linearGradient id="paint18_linear_22_823" x1="73.8625" y1="33.0831" x2="73.8625" y2="40.0958" gradientUnits="userSpaceOnUse">
<stop stop-color="white"/>
<stop offset="1" stop-color="white" stop-opacity="0"/>
</linearGradient>
<linearGradient id="paint19_linear_22_823" x1="63.095" y1="28.2019" x2="63.095" y2="36.2098" gradientUnits="userSpaceOnUse">
<stop stop-color="white"/>
<stop offset="1" stop-color="white" stop-opacity="0"/>
</linearGradient>
<linearGradient id="paint20_linear_22_823" x1="38.0178" y1="64.3449" x2="36.6859" y2="62.0381" gradientUnits="userSpaceOnUse">
<stop stop-color="#103DB5"/>
<stop offset="0.6426" stop-color="#6BABFD"/>
</linearGradient>
<linearGradient id="paint21_linear_22_823" x1="41.9539" y1="66.5981" x2="40.6221" y2="64.2913" gradientUnits="userSpaceOnUse">
<stop stop-color="#103DB5"/>
<stop offset="0.6426" stop-color="#6BABFD"/>
</linearGradient>
<linearGradient id="paint22_linear_22_823" x1="81.2308" y1="62.5963" x2="83.0077" y2="59.5384" gradientUnits="userSpaceOnUse">
<stop stop-color="#FF8000"/>
<stop offset="1" stop-color="#FFD000"/>
</linearGradient>
<linearGradient id="paint23_linear_22_823" x1="81.1121" y1="62.5594" x2="82.4867" y2="59.2175" gradientUnits="userSpaceOnUse">
<stop stop-color="#FF8000"/>
<stop offset="1" stop-color="#FFD000"/>
</linearGradient>
<linearGradient id="paint24_linear_22_823" x1="81.2307" y1="67.0112" x2="83.0075" y2="63.9532" gradientUnits="userSpaceOnUse">
<stop stop-color="#FF8000"/>
<stop offset="1" stop-color="#FFD000"/>
</linearGradient>
<linearGradient id="paint25_linear_22_823" x1="81.1121" y1="66.9751" x2="82.4867" y2="63.6332" gradientUnits="userSpaceOnUse">
<stop stop-color="#FF8000"/>
<stop offset="1" stop-color="#FFD000"/>
</linearGradient>
<linearGradient id="paint26_linear_22_823" x1="55.3235" y1="99.8286" x2="64.7823" y2="99.8286" gradientUnits="userSpaceOnUse">
<stop offset="0.3375" stop-color="#82DAE1"/>
<stop offset="0.5932" stop-color="#E8FFFC"/>
</linearGradient>
<linearGradient id="paint27_linear_22_823" x1="56.4285" y1="97.0166" x2="63.5719" y2="97.0166" gradientUnits="userSpaceOnUse">
<stop stop-color="#103DB5"/>
<stop offset="0.6426" stop-color="#6BABFD"/>
</linearGradient>
<linearGradient id="paint28_linear_22_823" x1="59.9999" y1="98.7759" x2="59.9999" y2="85.7092" gradientUnits="userSpaceOnUse">
<stop stop-color="#0CFFFC" stop-opacity="0.6"/>
<stop offset="1" stop-color="white" stop-opacity="0"/>
</linearGradient>
</defs>
</svg>
