<svg width="120" height="120" viewBox="0 0 120 120" fill="none" xmlns="http://www.w3.org/2000/svg">
<g opacity="0.4">
<path d="M110.88 79.3197C117.96 83.3997 117.96 89.9997 111 94.0797L72.96 116.16C66 120.24 54.6 120.24 47.52 116.16L9.24002 94.0797C2.16002 89.9997 2.16001 83.3997 9.12001 79.3197L47.16 57.2397C54.12 53.1597 65.52 53.1597 72.6 57.2397L110.88 79.3197Z" fill="#000909"/>
</g>
<path d="M116.16 75.48H3.83999V79.44C3.83999 82.08 5.63999 84.72 9.11999 86.76L47.4 108.84C54.48 112.92 65.88 112.92 72.84 108.84L110.88 86.76C114.36 84.72 116.16 82.08 116.16 79.44V75.48Z" fill="url(#paint0_linear_46_5512)"/>
<path d="M110.965 68.14C118.045 72.22 118.045 78.82 111.085 82.9L73.045 104.98C66.085 109.06 54.685 109.06 47.605 104.98L9.32498 82.9C2.24498 78.82 2.24497 72.22 9.20497 68.14L47.245 46.06C54.205 41.98 65.605 41.98 72.685 46.06L110.965 68.14Z" fill="#152C2D"/>
<path d="M97.4401 61.3198H22.4401V75.9598C22.4401 77.7598 23.6401 79.5598 26.0401 80.8798L51.6001 95.6398C56.2801 98.3998 63.9601 98.3998 68.6401 95.6398L94.0801 80.8798C96.3601 79.5598 97.5601 77.7598 97.5601 75.9598V61.3198H97.4401Z" fill="url(#paint1_linear_46_5512)"/>
<path d="M83.7601 57.9597C87.0001 59.8797 87.1201 62.9997 83.7601 64.7997L66.0001 75.1197C62.7601 77.0397 57.3601 77.0397 54.1201 75.1197L36.2401 64.7997C33.0001 62.8797 32.8801 59.8797 36.2401 57.9597L54.0001 47.6397C57.2401 45.7197 62.6401 45.7197 65.8801 47.6397L83.7601 57.9597Z" fill="url(#paint2_linear_46_5512)"/>
<path d="M100.2 55.5599C105.72 58.7999 105.84 63.9599 100.32 67.1999L70.2001 84.7199C64.6801 87.9599 55.6801 87.9599 50.0401 84.7199L19.8001 67.1999C14.2801 63.9599 14.1601 58.7999 19.8001 55.5599L49.92 38.0399C55.44 34.7999 64.4401 34.7999 70.0801 38.0399L100.2 55.5599Z" stroke="#10D4E3" stroke-opacity="0.2" stroke-width="0.6" stroke-miterlimit="10"/>
<path d="M83.7601 60.3601C87.0001 62.2801 87.1201 65.4001 83.7601 67.2001L66.0001 77.5201C62.7601 79.4401 57.3601 79.4401 54.1201 77.5201L36.2401 67.2001C33.0001 65.2801 32.8801 62.2801 36.2401 60.3601L54.0001 50.0401C57.2401 48.1201 62.6401 48.1201 65.8801 50.0401L83.7601 60.3601Z" fill="url(#paint3_linear_46_5512)"/>
<path d="M93.96 56.5199L68.4 41.7599C63.72 38.9999 56.04 38.9999 51.48 41.7599L26.04 56.5199C21.36 59.2799 21.36 63.5999 26.04 66.3599L51.6 81.1199C56.28 83.8799 63.96 83.8799 68.64 81.1199L94.08 66.3599C98.64 63.5999 98.64 59.1599 93.96 56.5199ZM83.76 64.8L66 75.1199C62.76 77.0399 57.36 77.0399 54.12 75.1199L36.24 64.8C33 62.88 32.88 59.8799 36.24 57.9599L54 47.64C57.24 45.72 62.64 45.72 65.88 47.64L83.76 57.9599C87 59.8799 87 62.88 83.76 64.8Z" fill="#1EABB6"/>
<path d="M59.8801 39.7197V40.3197C63.0001 40.3197 65.8801 41.0397 68.0401 42.2397L93.6001 56.9997C95.6401 58.1997 96.8401 59.7597 96.8401 61.4397C96.8401 63.1197 95.7601 64.6797 93.6001 65.7597L68.1601 80.5197C66.0001 81.8397 63.1201 82.4397 60.0001 82.4397C56.8801 82.4397 54.0001 81.7197 51.8401 80.5197L26.2801 65.7597C24.2401 64.5597 23.0401 62.9997 23.0401 61.3197C23.0401 59.6397 24.1201 58.0797 26.2801 56.8797L51.7201 42.1197C53.8801 40.7997 56.7601 40.1997 59.8801 40.1997V39.7197ZM59.8801 39.7197C56.7601 39.7197 53.7601 40.4397 51.3601 41.7597L25.9201 56.5197C21.2401 59.2797 21.2401 63.5997 25.9201 66.3597L51.4801 81.1197C53.8801 82.4397 56.8801 83.1597 60.0001 83.1597C63.1201 83.1597 66.1201 82.4397 68.5201 81.1197L93.9601 66.3597C98.6401 63.5997 98.6401 59.2797 93.8401 56.5197L68.2801 41.7597C66.0001 40.3197 62.8801 39.7197 59.8801 39.7197Z" fill="url(#paint4_linear_46_5512)"/>
<path d="M90.24 23.3999L67.4401 10.1999C63.24 7.7999 56.52 7.7999 52.32 10.1999L29.6401 23.3999C27.6001 24.5999 26.52 26.1599 26.52 27.8399L33.72 61.3199C33.72 62.5199 34.5601 63.8399 36.2401 64.7999L54.12 75.1199C57.36 77.0399 62.7601 77.0399 66.0001 75.1199L83.7601 64.7999C85.4401 63.8399 86.1601 62.6399 86.1601 61.3199L93.3601 27.8399C93.3601 26.2799 92.28 24.5999 90.24 23.3999Z" fill="url(#paint5_linear_46_5512)"/>
<path d="M38.1601 48.8401C38.3589 48.8401 38.5201 48.6789 38.5201 48.4801C38.5201 48.2813 38.3589 48.1201 38.1601 48.1201C37.9613 48.1201 37.8001 48.2813 37.8001 48.4801C37.8001 48.6789 37.9613 48.8401 38.1601 48.8401Z" fill="white"/>
<path d="M71.88 51.3601C72.0789 51.3601 72.24 51.199 72.24 51.0001C72.24 50.8013 72.0789 50.6401 71.88 50.6401C71.6812 50.6401 71.52 50.8013 71.52 51.0001C71.52 51.199 71.6812 51.3601 71.88 51.3601Z" fill="white"/>
<path d="M79.2001 47.1599C79.3989 47.1599 79.5601 46.9988 79.5601 46.7999C79.5601 46.6011 79.3989 46.4399 79.2001 46.4399C79.0013 46.4399 78.8401 46.6011 78.8401 46.7999C78.8401 46.9988 79.0013 47.1599 79.2001 47.1599Z" fill="white"/>
<path d="M49.08 62.1599C49.2789 62.1599 49.4401 61.9988 49.4401 61.7999C49.4401 61.6011 49.2789 61.4399 49.08 61.4399C48.8812 61.4399 48.72 61.6011 48.72 61.7999C48.72 61.9988 48.8812 62.1599 49.08 62.1599Z" fill="white"/>
<path d="M72.9601 35.2801C73.1589 35.2801 73.3201 35.1189 73.3201 34.9201C73.3201 34.7212 73.1589 34.5601 72.9601 34.5601C72.7613 34.5601 72.6001 34.7212 72.6001 34.9201C72.6001 35.1189 72.7613 35.2801 72.9601 35.2801Z" fill="white"/>
<path d="M42.12 35.6399C42.3189 35.6399 42.48 35.4787 42.48 35.2799C42.48 35.0811 42.3189 34.9199 42.12 34.9199C41.9212 34.9199 41.7601 35.0811 41.7601 35.2799C41.7601 35.4787 41.9212 35.6399 42.12 35.6399Z" fill="white"/>
<path d="M53.4001 27.72C53.5989 27.72 53.7601 27.5588 53.7601 27.36C53.7601 27.1612 53.5989 27 53.4001 27C53.2013 27 53.0401 27.1612 53.0401 27.36C53.0401 27.5588 53.2013 27.72 53.4001 27.72Z" fill="white"/>
<path opacity="0.4" d="M36.48 45.6001H36.96C37.08 45.6001 37.2 45.7201 37.2 45.8401V60.1201C37.2 60.2401 37.08 60.3601 36.96 60.3601H36.48C36.36 60.3601 36.24 60.2401 36.24 60.1201V45.8401C36.24 45.7201 36.36 45.6001 36.48 45.6001Z" fill="url(#paint6_linear_46_5512)"/>
<path opacity="0.4" d="M83.04 40.6797H83.52C83.64 40.6797 83.76 40.7997 83.76 40.9197V55.1997C83.76 55.3197 83.64 55.4397 83.52 55.4397H83.04C82.92 55.4397 82.8 55.3197 82.8 55.1997V40.9197C82.8 40.7997 82.92 40.6797 83.04 40.6797Z" fill="url(#paint7_linear_46_5512)"/>
<path opacity="0.4" d="M50.4 50.2798H50.88C51 50.2798 51.12 50.3998 51.12 50.5198V64.7998C51.12 64.9198 51 65.0398 50.88 65.0398H50.4C50.28 65.0398 50.16 64.9198 50.16 64.7998V50.5198C50.28 50.3998 50.28 50.2798 50.4 50.2798Z" fill="url(#paint8_linear_46_5512)"/>
<path opacity="0.4" d="M50.4 30.96H50.88C51 30.96 51.12 31.08 51.12 31.2V45.48C51.12 45.6 51 45.72 50.88 45.72H50.4C50.28 45.72 50.16 45.6 50.16 45.48V31.2C50.28 31.08 50.28 30.96 50.4 30.96Z" fill="url(#paint9_linear_46_5512)"/>
<path d="M91.8 78.36L90.96 77.88C90.84 77.76 90.72 77.52 90.72 77.28C90.72 76.68 91.2 75.96 91.68 75.6C91.92 75.48 92.16 75.48 92.4 75.48L93.24 75.96L91.8 78.36Z" fill="url(#paint10_linear_46_5512)"/>
<path d="M93.0185 77.5665C93.3812 76.9342 93.3955 76.2612 93.0506 76.0634C92.7057 75.8656 92.1321 76.2178 91.7694 76.8501C91.4067 77.4825 91.3923 78.1555 91.7372 78.3533C92.0821 78.5511 92.6558 78.1989 93.0185 77.5665Z" fill="#2185F8"/>
<path d="M92.8102 77.4472C93.041 77.0448 93.0417 76.6117 92.8117 76.4798C92.5818 76.3479 92.2083 76.5672 91.9775 76.9696C91.7467 77.372 91.746 77.8052 91.976 77.937C92.2059 78.0689 92.5794 77.8496 92.8102 77.4472Z" fill="#0CFFFC"/>
<path d="M87.84 80.5201L87 80.0401C86.88 79.9201 86.76 79.6801 86.76 79.4401C86.76 78.8401 87.24 78.1201 87.72 77.7601C87.96 77.6401 88.2 77.6401 88.44 77.6401L89.28 78.1201L87.84 80.5201Z" fill="url(#paint11_linear_46_5512)"/>
<path d="M89.1534 79.7496C89.5161 79.1173 89.5305 78.4443 89.1855 78.2465C88.8406 78.0487 88.267 78.4009 87.9043 79.0332C87.5416 79.6656 87.5272 80.3386 87.8722 80.5364C88.2171 80.7343 88.7907 80.382 89.1534 79.7496Z" fill="#2185F8"/>
<path d="M88.9452 79.6298C89.176 79.2274 89.1767 78.7943 88.9468 78.6624C88.7168 78.5305 88.3433 78.7498 88.1125 79.1522C87.8817 79.5546 87.881 79.9878 88.111 80.1197C88.3409 80.2516 88.7144 80.0322 88.9452 79.6298Z" fill="#FFE200"/>
<path d="M60.48 38.2801V48.6001L51.48 43.4401L51.6 33.1201L60.48 38.2801Z" fill="url(#paint12_linear_46_5512)"/>
<path d="M60.48 38.2801L69.48 33.1201V43.4401L60.48 48.6001V38.2801Z" fill="url(#paint13_linear_46_5512)"/>
<path d="M51.6 33.12L60.4799 27.96L69.4799 33.12L60.4799 38.28L51.6 33.12Z" fill="url(#paint14_linear_46_5512)"/>
<path d="M49.2 44.8802V55.2002L40.2 50.0402V39.7202L49.2 44.8802Z" fill="url(#paint15_linear_46_5512)"/>
<path d="M49.2 44.8802L58.0799 39.7202V50.0402L49.2 55.2002V44.8802Z" fill="url(#paint16_linear_46_5512)"/>
<path d="M40.2 39.7201L49.08 34.5601L58.08 39.7201L49.2 44.8801L40.2 39.7201Z" fill="url(#paint17_linear_46_5512)"/>
<path d="M71.88 44.8802V55.2002L62.88 50.0402V39.7202L71.88 44.8802Z" fill="url(#paint18_linear_46_5512)"/>
<path d="M71.88 44.8802L80.76 39.7202V50.0402L71.88 55.2002V44.8802Z" fill="url(#paint19_linear_46_5512)"/>
<path d="M62.88 39.7201L71.88 34.5601L80.76 39.7201L71.88 44.8801L62.88 39.7201Z" fill="url(#paint20_linear_46_5512)"/>
<path d="M60.48 51.4803V61.8003L51.48 56.6403L51.6 46.3203L60.48 51.4803Z" fill="url(#paint21_linear_46_5512)"/>
<path d="M60.48 51.4803L69.48 46.3203V56.6403L60.48 61.8003V51.4803Z" fill="url(#paint22_linear_46_5512)"/>
<path d="M51.6 46.3202L60.4799 41.1602L69.4799 46.3202L60.4799 51.4802L51.6 46.3202Z" fill="url(#paint23_linear_46_5512)"/>
<path d="M60.48 25.1999V35.5199L51.48 30.2399L51.6 19.9199L60.48 25.1999Z" fill="url(#paint24_linear_46_5512)"/>
<path d="M60.48 25.1999L69.48 19.9199V30.2399L60.48 35.5199V25.1999Z" fill="url(#paint25_linear_46_5512)"/>
<path d="M51.6 19.9198L60.48 14.7598L69.48 19.9198L60.48 25.1998L51.6 19.9198Z" fill="url(#paint26_linear_46_5512)"/>
<path d="M49.2 31.68V42L40.2 36.84V26.52L49.2 31.68Z" fill="url(#paint27_linear_46_5512)"/>
<path d="M49.2 31.68L58.08 26.52V36.84L49.2 42V31.68Z" fill="url(#paint28_linear_46_5512)"/>
<path d="M40.2 26.5199L49.08 21.3599L58.08 26.5199L49.2 31.6799L40.2 26.5199Z" fill="url(#paint29_linear_46_5512)"/>
<path d="M71.8799 31.6797L79.1999 38.9997L69.1199 41.6397L61.9199 34.3197L71.8799 31.6797Z" fill="url(#paint30_linear_46_5512)"/>
<path d="M71.8799 31.6797L74.5199 21.7197L81.8399 29.0397L79.1999 38.9997L71.8799 31.6797Z" fill="url(#paint31_linear_46_5512)"/>
<path d="M61.9199 34.3197L64.56 24.3597L74.5199 21.7197L71.88 31.6797L61.9199 34.3197Z" fill="url(#paint32_linear_46_5512)"/>
<path d="M60.48 38.2801V48.6001L51.48 43.4401L51.6 33.1201L60.48 38.2801Z" fill="url(#paint33_linear_46_5512)"/>
<path d="M60.48 38.2801L69.48 33.1201V43.4401L60.48 48.6001V38.2801Z" fill="url(#paint34_linear_46_5512)"/>
<path d="M51.6 33.12L60.48 27.96L69.48 33.12L60.48 38.28L51.6 33.12Z" fill="url(#paint35_linear_46_5512)"/>
<defs>
<linearGradient id="paint0_linear_46_5512" x1="3.76115" y1="93.6901" x2="116.126" y2="93.6901" gradientUnits="userSpaceOnUse">
<stop stop-color="#437262"/>
<stop offset="1" stop-color="#1E3F3D"/>
</linearGradient>
<linearGradient id="paint1_linear_46_5512" x1="22.4676" y1="79.5382" x2="97.4195" y2="79.5382" gradientUnits="userSpaceOnUse">
<stop offset="0.3375" stop-color="#82DAE1"/>
<stop offset="0.5932" stop-color="#E8FFFC"/>
</linearGradient>
<linearGradient id="paint2_linear_46_5512" x1="33.754" y1="61.384" x2="86.1896" y2="61.384" gradientUnits="userSpaceOnUse">
<stop offset="0.3375" stop-color="#97B5E1"/>
<stop offset="0.5932" stop-color="#E8F1FF"/>
</linearGradient>
<linearGradient id="paint3_linear_46_5512" x1="33.7841" y1="63.7996" x2="86.137" y2="63.7996" gradientUnits="userSpaceOnUse">
<stop offset="0.3375" stop-color="#82DAE1"/>
<stop offset="0.5932" stop-color="#E8FFFC"/>
</linearGradient>
<linearGradient id="paint4_linear_46_5512" x1="97.1602" y1="64.7598" x2="22.7837" y2="58.0082" gradientUnits="userSpaceOnUse">
<stop stop-color="white"/>
<stop offset="1" stop-color="#C9D9F4"/>
</linearGradient>
<linearGradient id="paint5_linear_46_5512" x1="59.9718" y1="76.4857" x2="59.9718" y2="8.46783" gradientUnits="userSpaceOnUse">
<stop stop-color="#0CFFFC" stop-opacity="0.6"/>
<stop offset="1" stop-color="white" stop-opacity="0"/>
</linearGradient>
<linearGradient id="paint6_linear_46_5512" x1="36.7219" y1="47.1866" x2="36.7219" y2="59.1008" gradientUnits="userSpaceOnUse">
<stop offset="0.2578" stop-color="white"/>
<stop offset="1" stop-color="white" stop-opacity="0"/>
</linearGradient>
<linearGradient id="paint7_linear_46_5512" x1="83.2214" y1="42.2661" x2="83.2214" y2="54.1897" gradientUnits="userSpaceOnUse">
<stop offset="0.2578" stop-color="white"/>
<stop offset="1" stop-color="white" stop-opacity="0"/>
</linearGradient>
<linearGradient id="paint8_linear_46_5512" x1="50.6637" y1="51.8274" x2="50.6637" y2="63.7416" gradientUnits="userSpaceOnUse">
<stop offset="0.2578" stop-color="white"/>
<stop offset="1" stop-color="white" stop-opacity="0"/>
</linearGradient>
<linearGradient id="paint9_linear_46_5512" x1="50.6637" y1="32.5007" x2="50.6637" y2="44.4242" gradientUnits="userSpaceOnUse">
<stop offset="0.2578" stop-color="white"/>
<stop offset="1" stop-color="white" stop-opacity="0"/>
</linearGradient>
<linearGradient id="paint10_linear_46_5512" x1="91.0229" y1="77.8845" x2="92.3548" y2="75.5777" gradientUnits="userSpaceOnUse">
<stop stop-color="#103DB5"/>
<stop offset="0.6426" stop-color="#6BABFD"/>
</linearGradient>
<linearGradient id="paint11_linear_46_5512" x1="87.0869" y1="80.1379" x2="88.4188" y2="77.8311" gradientUnits="userSpaceOnUse">
<stop stop-color="#103DB5"/>
<stop offset="0.6426" stop-color="#6BABFD"/>
</linearGradient>
<linearGradient id="paint12_linear_46_5512" x1="50.2231" y1="43.9182" x2="61.8722" y2="37.8403" gradientUnits="userSpaceOnUse">
<stop stop-color="#97B5E1"/>
<stop offset="1" stop-color="#E8F1FF"/>
</linearGradient>
<linearGradient id="paint13_linear_46_5512" x1="61.4894" y1="38.6053" x2="66.149" y2="41.6443" gradientUnits="userSpaceOnUse">
<stop stop-color="white"/>
<stop offset="1" stop-color="#C9D9F4"/>
</linearGradient>
<linearGradient id="paint14_linear_46_5512" x1="51.5629" y1="33.1359" x2="69.4587" y2="33.1359" gradientUnits="userSpaceOnUse">
<stop stop-color="white"/>
<stop offset="1" stop-color="#C9D9F4"/>
</linearGradient>
<linearGradient id="paint15_linear_46_5512" x1="37.8644" y1="50.1318" x2="49.5135" y2="45.5735" gradientUnits="userSpaceOnUse">
<stop stop-color="#97B5E1"/>
<stop offset="1" stop-color="#E8F1FF"/>
</linearGradient>
<linearGradient id="paint16_linear_46_5512" x1="50.0052" y1="43.7573" x2="55.4751" y2="49.3285" gradientUnits="userSpaceOnUse">
<stop stop-color="white"/>
<stop offset="1" stop-color="#C9D9F4"/>
</linearGradient>
<linearGradient id="paint17_linear_46_5512" x1="40.2187" y1="39.7108" x2="58.1145" y2="39.7108" gradientUnits="userSpaceOnUse">
<stop stop-color="white"/>
<stop offset="1" stop-color="#C9D9F4"/>
</linearGradient>
<linearGradient id="paint18_linear_46_5512" x1="62.2095" y1="48.6834" x2="71.6301" y2="46.4547" gradientUnits="userSpaceOnUse">
<stop stop-color="#97B5E1"/>
<stop offset="1" stop-color="#E8F1FF"/>
</linearGradient>
<linearGradient id="paint19_linear_46_5512" x1="72.7666" y1="44.8298" x2="81.5051" y2="51.2763" gradientUnits="userSpaceOnUse">
<stop stop-color="white"/>
<stop offset="1" stop-color="#C9D9F4"/>
</linearGradient>
<linearGradient id="paint20_linear_46_5512" x1="67.3804" y1="35.2345" x2="76.3279" y2="44.182" gradientUnits="userSpaceOnUse">
<stop stop-color="white"/>
<stop offset="1" stop-color="#C9D9F4"/>
</linearGradient>
<linearGradient id="paint21_linear_46_5512" x1="50.9714" y1="56.7213" x2="61.6075" y2="51.15" gradientUnits="userSpaceOnUse">
<stop stop-color="#97B5E1"/>
<stop offset="1" stop-color="#E8F1FF"/>
</linearGradient>
<linearGradient id="paint22_linear_46_5512" x1="60.7177" y1="52.6798" x2="69.1254" y2="55.4149" gradientUnits="userSpaceOnUse">
<stop stop-color="white"/>
<stop offset="1" stop-color="#C9D9F4"/>
</linearGradient>
<linearGradient id="paint23_linear_46_5512" x1="51.5629" y1="46.3188" x2="69.4587" y2="46.3188" gradientUnits="userSpaceOnUse">
<stop stop-color="white"/>
<stop offset="1" stop-color="#C9D9F4"/>
</linearGradient>
<linearGradient id="paint24_linear_46_5512" x1="50.2231" y1="30.752" x2="61.8722" y2="24.6741" gradientUnits="userSpaceOnUse">
<stop stop-color="#97B5E1"/>
<stop offset="1" stop-color="#E8F1FF"/>
</linearGradient>
<linearGradient id="paint25_linear_46_5512" x1="61.4894" y1="25.4391" x2="66.149" y2="28.4781" gradientUnits="userSpaceOnUse">
<stop stop-color="white"/>
<stop offset="1" stop-color="#C9D9F4"/>
</linearGradient>
<linearGradient id="paint26_linear_46_5512" x1="51.5629" y1="19.9696" x2="69.4587" y2="19.9696" gradientUnits="userSpaceOnUse">
<stop stop-color="white"/>
<stop offset="1" stop-color="#C9D9F4"/>
</linearGradient>
<linearGradient id="paint27_linear_46_5512" x1="37.8644" y1="36.9655" x2="49.5135" y2="32.4072" gradientUnits="userSpaceOnUse">
<stop stop-color="#97B5E1"/>
<stop offset="1" stop-color="#E8F1FF"/>
</linearGradient>
<linearGradient id="paint28_linear_46_5512" x1="50.0052" y1="30.591" x2="55.4751" y2="36.1623" gradientUnits="userSpaceOnUse">
<stop stop-color="white"/>
<stop offset="1" stop-color="#C9D9F4"/>
</linearGradient>
<linearGradient id="paint29_linear_46_5512" x1="40.2187" y1="26.5446" x2="58.1145" y2="26.5446" gradientUnits="userSpaceOnUse">
<stop stop-color="white"/>
<stop offset="1" stop-color="#C9D9F4"/>
</linearGradient>
<linearGradient id="paint30_linear_46_5512" x1="64.3507" y1="37.1216" x2="77.3165" y2="36.2098" gradientUnits="userSpaceOnUse">
<stop stop-color="#97B5E1"/>
<stop offset="1" stop-color="#E8F1FF"/>
</linearGradient>
<linearGradient id="paint31_linear_46_5512" x1="72.4706" y1="31.0209" x2="83.2079" y2="29.4002" gradientUnits="userSpaceOnUse">
<stop stop-color="white"/>
<stop offset="1" stop-color="#C9D9F4"/>
</linearGradient>
<linearGradient id="paint32_linear_46_5512" x1="61.8769" y1="28.0447" x2="74.5307" y2="28.0447" gradientUnits="userSpaceOnUse">
<stop stop-color="white"/>
<stop offset="1" stop-color="#C9D9F4"/>
</linearGradient>
<linearGradient id="paint33_linear_46_5512" x1="50.9714" y1="43.5551" x2="61.6075" y2="37.9837" gradientUnits="userSpaceOnUse">
<stop stop-color="#97B5E1"/>
<stop offset="1" stop-color="#E8F1FF"/>
</linearGradient>
<linearGradient id="paint34_linear_46_5512" x1="60.7177" y1="39.5136" x2="69.1254" y2="42.2486" gradientUnits="userSpaceOnUse">
<stop stop-color="white"/>
<stop offset="1" stop-color="#C9D9F4"/>
</linearGradient>
<linearGradient id="paint35_linear_46_5512" x1="51.5629" y1="33.1526" x2="69.4587" y2="33.1526" gradientUnits="userSpaceOnUse">
<stop stop-color="white"/>
<stop offset="1" stop-color="#C9D9F4"/>
</linearGradient>
</defs>
</svg>
