<svg width="120" height="120" viewBox="0 0 120 120" fill="none" xmlns="http://www.w3.org/2000/svg">
<g opacity="0.4">
<path d="M110.88 79.3201C117.96 83.4001 117.96 90.0001 111 94.0801L72.9602 116.16C66.0001 120.24 54.6001 120.24 47.5201 116.16L9.24014 94.0801C2.16014 90.0001 2.16013 83.4001 9.12013 79.3201L47.1601 57.2401C54.1201 53.1601 65.5201 53.1601 72.6001 57.2401L110.88 79.3201Z" fill="#07828B" fill-opacity="0.5"/>
</g>
<path d="M116.16 75.48H3.84009V79.44C3.84009 82.08 5.64008 84.72 9.12008 86.76L47.4001 108.84C54.4801 112.92 65.8801 112.92 72.8401 108.84L110.88 86.76C114.36 84.72 116.16 82.08 116.16 79.44V75.48Z" fill="url(#paint0_linear_22_1028)"/>
<path d="M110.88 68.04C117.96 72.12 117.96 78.72 111 82.8L72.96 104.88C66 108.96 54.6 108.96 47.52 104.88L9.12002 82.8C2.04002 78.72 2.04001 72.12 9.00001 68.04L47.04 45.96C54 41.88 65.4 41.88 72.48 45.96L110.88 68.04Z" fill="#F1FFF4"/>
<path d="M107.4 64.2H12.6001V74.88C12.6001 77.16 14.1601 79.4399 17.0401 81.1199L49.3201 99.84C55.3201 103.32 64.9201 103.32 70.8001 99.84L102.96 81.1199C105.96 79.4399 107.4 77.16 107.4 74.88V64.2Z" fill="url(#paint1_linear_22_1028)"/>
<path d="M102.96 57.96C108.96 61.44 108.96 66.96 103.08 70.44L70.9201 89.16C65.0401 92.64 55.4401 92.64 49.4401 89.16L17.1601 70.44C11.1601 66.96 11.1601 61.44 17.0401 57.96L49.2001 39.24C55.0801 35.76 64.6801 35.76 70.6801 39.24L102.96 57.96Z" fill="#1EABB6"/>
<path d="M59.8801 37.32C63.8401 37.32 67.5601 38.16 70.3201 39.84L102.6 58.56C105.24 60.12 106.8 62.16 106.8 64.32C106.8 66.48 105.36 68.4 102.72 69.96L70.5601 88.68C67.8001 90.24 64.0801 91.2 60.1201 91.2C56.1601 91.2 52.4401 90.36 49.6801 88.68L17.4001 69.96C14.7601 68.4 13.2001 66.36 13.2001 64.2C13.2001 62.04 14.6401 60.12 17.2801 58.56L49.4401 39.84C52.2001 38.28 55.9201 37.32 59.8801 37.32ZM59.8801 36.72C56.0401 36.72 52.0801 37.56 49.2001 39.24L17.0401 57.96C11.1601 61.44 11.1601 66.96 17.1601 70.44L49.4401 89.16C52.4401 90.84 56.2801 91.68 60.2401 91.68C64.2001 91.68 68.0401 90.84 70.9201 89.16L103.08 70.44C108.96 66.96 108.96 61.44 102.96 57.96L70.6801 39.24C67.6801 37.56 63.7201 36.72 59.8801 36.72Z" fill="url(#paint2_linear_22_1028)"/>
<path d="M41.0401 87.84C41.6401 88.2 42.0001 88.92 42.0001 89.64V91.44C42.0001 92.04 41.5201 92.4 40.9201 92.04L21.6001 80.88C21.0001 80.52 20.6401 79.8 20.6401 79.08V77.28C20.6401 76.68 21.1201 76.32 21.7201 76.68L41.0401 87.84Z" fill="#0CFFFC"/>
<path d="M42.0002 91.44L22.6803 80.28C22.0803 79.92 21.7202 79.2 21.7202 78.48V76.68C21.2402 76.44 20.7603 76.68 20.7603 77.28V79.08C20.7603 79.68 21.2402 80.52 21.7202 80.88L41.0402 92.04C41.6402 92.4 42.1202 92.16 42.0002 91.44Z" fill="#1964BA"/>
<path d="M94.4402 59.1601C99.2402 61.9201 99.2402 66.3601 94.5602 69.1201L68.7602 84.1201C63.9602 86.8801 56.2802 86.8801 51.4802 84.1201L25.5602 69.1201C20.7602 66.3601 20.7602 61.9201 25.5602 59.1601L51.3602 44.1601C56.0402 41.4001 63.8402 41.4001 68.5202 44.1601L94.4402 59.1601Z" stroke="white" stroke-opacity="0.1" stroke-width="0.3" stroke-miterlimit="10"/>
<path d="M91.9202 59.5201C96.3602 62.0401 96.3602 66.2401 91.9202 68.7601L68.0402 82.6801C63.6002 85.2001 56.5202 85.2001 52.0802 82.6801L28.0802 68.7601C23.6402 66.2401 23.6402 62.0401 28.0802 59.5201L51.9602 45.6001C56.4002 43.0801 63.4802 43.0801 67.9202 45.6001L91.9202 59.5201Z" stroke="white" stroke-opacity="0.1" stroke-width="0.3" stroke-miterlimit="10"/>
<path d="M89.4001 59.8801C93.4801 62.2801 93.4801 66.0001 89.4001 68.4001L67.4402 81.1201C63.3602 83.5201 56.7601 83.5201 52.8001 81.1201L30.7202 68.4001C26.6402 66.0001 26.6402 62.2801 30.7202 59.8801L52.6802 47.1601C56.7602 44.7601 63.2402 44.7601 67.3202 47.1601L89.4001 59.8801Z" stroke="white" stroke-opacity="0.1" stroke-width="0.3" stroke-miterlimit="10"/>
<path d="M86.8802 60.24C90.6002 62.4 90.6002 65.88 86.8802 68.04L66.8402 79.68C63.1202 81.84 57.1202 81.84 53.4002 79.68L33.2402 68.04C29.5202 65.88 29.5202 62.4 33.2402 60.24L53.2802 48.6C57.0002 46.44 63.0002 46.44 66.7202 48.6L86.8802 60.24Z" stroke="white" stroke-opacity="0.1" stroke-width="0.3" stroke-miterlimit="10"/>
<path d="M84.3601 60.6001C87.7201 62.5201 87.7201 65.6401 84.3601 67.6801L66.1201 78.2401C62.7601 80.1601 57.3601 80.1601 54.0001 78.2401L35.6401 67.6801C32.2801 65.7601 32.2801 62.6401 35.6401 60.6001L53.8801 50.0401C57.2401 48.1201 62.6401 48.1201 66.0001 50.0401L84.3601 60.6001Z" stroke="white" stroke-opacity="0.1" stroke-width="0.3" stroke-miterlimit="10"/>
<path d="M96.84 81L96 80.52C95.88 80.4 95.76 80.16 95.76 79.92C95.76 79.32 96.24 78.6 96.72 78.24C96.96 78.12 97.2 78.12 97.44 78.12L98.28 78.6L96.84 81Z" fill="url(#paint3_linear_22_1028)"/>
<path d="M98.1113 80.1644C98.474 79.5321 98.4884 78.8591 98.1435 78.6613C97.7986 78.4634 97.225 78.8157 96.8623 79.448C96.4996 80.0804 96.4852 80.7534 96.8301 80.9512C97.175 81.149 97.7486 80.7968 98.1113 80.1644Z" fill="#2185F8"/>
<path d="M97.9032 80.045C98.134 79.6426 98.1347 79.2095 97.9047 79.0776C97.6748 78.9457 97.3013 79.165 97.0705 79.5674C96.8397 79.9698 96.839 80.4029 97.0689 80.5348C97.2989 80.6667 97.6724 80.4474 97.9032 80.045Z" fill="#0CFFFC"/>
<path d="M92.8801 83.28L92.0401 82.8C91.9201 82.68 91.8 82.44 91.8 82.2C91.8 81.6 92.2801 80.88 92.7601 80.52C93.0001 80.4 93.2401 80.4 93.4801 80.4L94.3201 80.88L92.8801 83.28Z" fill="url(#paint4_linear_22_1028)"/>
<path d="M94.1867 82.4516C94.5494 81.8192 94.5638 81.1462 94.2189 80.9484C93.874 80.7506 93.3004 81.1028 92.9377 81.7352C92.575 82.3675 92.5606 83.0405 92.9055 83.2383C93.2504 83.4362 93.8241 83.0839 94.1867 82.4516Z" fill="#2185F8"/>
<path d="M93.9784 82.332C94.2092 81.9296 94.2099 81.4965 93.9799 81.3646C93.75 81.2327 93.3765 81.452 93.1457 81.8544C92.9149 82.2568 92.9142 82.6899 93.1441 82.8218C93.3741 82.9537 93.7476 82.7344 93.9784 82.332Z" fill="#FFE200"/>
<path d="M42.1201 89.6401C42.1201 89.0401 41.6401 88.2001 41.1601 87.8401L21.8401 76.6801C21.6001 76.5601 21.3601 76.5601 21.2401 76.5601L17.1601 77.6401C16.9201 77.7601 16.8 78.0001 16.8 78.3601V81.0001C16.8 81.7201 17.28 82.6801 18 83.0401L39.2401 96.0001C39.7201 96.2401 40.2001 96.0001 40.3201 95.7601C41.2801 94.5601 41.8801 92.0401 41.8801 92.0401C41.8801 92.0401 42.1201 91.9201 42.1201 91.4401V89.6401Z" fill="url(#paint5_linear_22_1028)"/>
<path opacity="0.2" d="M85.3201 57.9601C85.3201 57.9601 85.3201 57.8401 85.4401 57.8401C85.5601 57.7201 85.5601 57.6001 85.5601 57.4801C85.5601 57.3601 85.5602 57.3601 85.6802 57.2401C85.6802 57.1201 85.6802 57.0001 85.6802 56.8801C85.6802 56.7601 85.6802 56.7601 85.6802 56.6401C85.6802 56.5201 85.6802 56.4001 85.6802 56.2801C85.5602 55.5601 85.0802 54.9601 84.4802 54.6001L74.1601 48.6001C72.8401 47.8801 71.1601 47.8801 69.8401 48.6001L36.8401 67.4401C36.2401 67.8001 35.7601 68.4001 35.6401 69.1201C35.6401 69.2401 35.6401 69.3601 35.6401 69.4801C35.6401 69.6001 35.6401 69.6001 35.6401 69.7201C35.6401 69.8401 35.6401 69.9601 35.6401 70.0801C35.6401 70.2001 35.6401 70.2001 35.7601 70.3201C35.7601 70.4401 35.8802 70.5601 35.8802 70.6801C35.8802 70.6801 35.8801 70.8001 36.0001 70.8001C36.1201 70.9201 36.2401 71.1601 36.3601 71.2801C36.3601 71.2801 36.3602 71.2801 36.4802 71.4001C36.6002 71.5201 36.8401 71.6401 36.9601 71.7601L47.2802 77.7601C47.4002 77.8801 47.6401 77.8801 47.7601 78.0001C48.6001 78.3601 49.5601 78.4801 50.5201 78.1201C50.8801 78.0001 51.2401 77.8801 51.6001 77.6401L84.3601 58.8001C84.4801 58.6801 84.7201 58.5601 84.8401 58.4401C84.8401 58.4401 84.9601 58.4401 84.9601 58.3201C85.0801 58.2001 85.2001 58.0801 85.3201 57.9601Z" fill="#00357C" fill-opacity="0.4"/>
<path d="M69.12 37.08L35.52 56.4C34.32 57.12 33.84 58.68 34.56 59.88C34.8 60.24 35.16 60.6 35.52 60.84L46.08 66.96C47.4 67.8 49.08 67.8 50.52 66.96L84.12 47.64C85.32 46.92 85.8 45.36 85.08 44.16C84.84 43.8 84.48 43.44 84.12 43.2L73.56 37.08C72.12 36.24 70.44 36.24 69.12 37.08Z" fill="#E9EDFC"/>
<path d="M66.4801 39.1199L40.5601 53.9999C39.6001 54.5999 39.3601 55.7999 39.8401 56.6399C39.9601 56.8799 40.2001 57.2399 40.5601 57.3599L41.7601 58.0799C42.8401 58.6799 44.1601 58.6799 45.1201 58.0799L71.0401 43.1999C72.0001 42.5999 72.2401 41.3999 71.7601 40.5599C71.6401 40.3199 71.2801 39.9599 71.0401 39.8399L69.8401 39.1199C68.8801 38.5199 67.5601 38.5199 66.4801 39.1199Z" fill="#D3DBF9"/>
<path d="M84.1199 46.56L50.5199 65.88C49.1999 66.72 47.52 66.72 46.08 65.88L35.5199 59.76C34.9199 59.4 34.4399 58.8 34.3199 58.08C34.0799 59.16 34.5599 60.24 35.5199 60.84L46.08 66.96C47.4 67.8 49.0799 67.8 50.5199 66.96L84.1199 47.64C85.0799 47.04 85.5599 45.96 85.3199 44.88C85.0799 45.6 84.7199 46.2 84.1199 46.56Z" fill="url(#paint6_linear_22_1028)"/>
<path d="M38.64 24L70.68 5.52002C71.64 4.92002 72.84 5.28002 73.44 6.24002C73.56 6.60002 73.68 6.84002 73.68 7.20002V37.56C73.68 38.52 73.2 39.48 72.24 39.96L40.2 58.44C39.24 59.04 38.04 58.68 37.44 57.72C37.32 57.36 37.2 57.12 37.2 56.76V26.4C37.2 25.32 37.68 24.48 38.64 24Z" fill="#00357C" fill-opacity="0.4"/>
<path d="M38.6401 24.0001L70.6801 5.52011C71.5201 5.04011 72.6001 5.28011 73.2001 6.00011C72.7201 5.88011 72.1201 5.88011 71.6401 6.12011L39.4801 24.6001C38.6401 25.0801 38.0401 26.0401 38.0401 27.0001V57.3601C38.0401 57.8401 38.1601 58.3201 38.5201 58.6801C37.6801 58.4401 37.0801 57.6001 37.0801 56.7601V26.4001C37.2001 25.3201 37.6801 24.4801 38.6401 24.0001Z" fill="#07828B"/>
<g opacity="0.9">
<path d="M47.0399 38.8801C47.2799 38.7601 47.5199 38.8801 47.5199 39.1201V45.3601C47.5199 45.7201 47.2799 46.0801 47.0399 46.3201L42.5999 48.9601C42.3599 49.0801 42.1199 48.9601 42.1199 48.6001V42.3601C42.1199 42.0001 42.3599 41.6401 42.5999 41.4001L47.0399 38.8801Z" fill="white"/>
</g>
<path d="M47.5201 46.4401V46.9201L44.6401 48.6001V48.1201L47.5201 46.4401Z" fill="#FFE200"/>
<path d="M47.52 47.28V47.76L42 51V50.52L47.52 47.28Z" fill="url(#paint7_linear_22_1028)"/>
<path d="M54.8399 34.32C55.0799 34.2 55.3199 34.32 55.3199 34.56V40.8C55.3199 41.16 55.0799 41.52 54.8399 41.76L50.3999 44.4C50.1599 44.52 49.9199 44.4 49.9199 44.04V37.8C49.9199 37.44 50.1599 37.08 50.3999 36.84L54.8399 34.32Z" fill="url(#paint8_linear_22_1028)"/>
<g opacity="0.9">
<path d="M55.4399 42.72V43.2L49.9199 46.44V45.96L55.4399 42.72Z" fill="white"/>
</g>
<g opacity="0.9">
<path d="M55.4398 41.88V42.36L52.5598 44.04V43.56L55.4398 41.88Z" fill="white"/>
</g>
<path d="M63.3601 37.3201V37.8001L60.3601 39.4801V39.0001L63.3601 37.3201Z" fill="#FFE200"/>
<g opacity="0.9">
<path d="M62.7601 29.7601C63.0001 29.6401 63.2401 29.7601 63.2401 30.0001V36.2401C63.2401 36.6001 63.0001 36.9601 62.7601 37.2001L58.3201 39.8401C58.0801 39.9601 57.8401 39.8401 57.8401 39.4801V33.2401C57.8401 32.8801 58.0801 32.5201 58.3201 32.2801L62.7601 29.7601Z" fill="white"/>
</g>
<path d="M63.3601 38.16V38.64L57.8401 41.88V41.4L63.3601 38.16Z" fill="url(#paint9_linear_22_1028)"/>
<path d="M70.68 25.2C70.92 25.08 71.16 25.2 71.16 25.44V31.68C71.16 32.04 70.92 32.4 70.68 32.64L66.24 35.28C66 35.4 65.76 35.28 65.76 34.92V28.68C65.76 28.32 66 27.96 66.24 27.72L70.68 25.2Z" fill="url(#paint10_linear_22_1028)"/>
<g opacity="0.9">
<path d="M71.28 32.76V33.24L68.28 34.92V34.44L71.28 32.76Z" fill="white"/>
<path d="M71.28 33.6V34.08L65.76 37.32V36.84L71.28 33.6Z" fill="white"/>
</g>
<g opacity="0.8">
<path d="M70.9201 13.8001C71.0401 13.6801 71.1601 13.8001 71.1601 13.9201V14.5201C71.1601 14.6401 71.0401 14.8801 70.9201 15.0001L53.0401 25.3201C52.9201 25.4401 52.8 25.3201 52.8 25.2001V24.6001C52.8 24.4801 52.9201 24.2401 53.0401 24.1201L70.9201 13.8001Z" fill="white"/>
<path d="M59.6401 25.8L59.8801 25.92V26.64L59.6401 27L52.9201 30.84L52.8 30.72V30L52.9201 29.64L59.6401 25.8Z" fill="white"/>
<path d="M59.6401 23.6401H59.8801V24.4801L59.6401 24.7201L52.9201 28.6801L52.8 28.5601V27.7201L52.9201 27.4801L59.6401 23.6401Z" fill="white"/>
</g>
<path d="M45.48 27.72C46.56 27.12 47.4 27.6 47.4 28.8C47.4 29.76 46.92 30.84 46.2 31.56C47.4 31.08 48.48 31.56 48.96 32.52C48.36 33.84 47.4 35.04 46.32 36C46.32 36 46.2 36 46.2 36.12C46.2 36.12 46.2 36.12 46.08 36.24L45.96 36.36C45.84 36.36 45.84 36.48 45.72 36.48C45.6 36.48 45.6 36.6 45.48 36.6C45.36 36.6 45.36 36.72 45.24 36.72C45.12 36.72 45.12 36.84 45 36.84C45 36.84 44.88 36.84 44.88 36.96H44.76C44.76 36.96 44.76 36.96 44.64 36.96C43.56 37.32 42.6 37.2 42 36.6C42.48 35.04 43.44 33.36 44.76 32.4C44.04 32.52 43.56 32.04 43.56 31.08C43.56 29.76 44.4 28.32 45.48 27.72Z" fill="white"/>
<path d="M45.4801 26.4001C47.8801 24.9601 49.92 26.1601 49.92 28.9201C49.92 31.4401 48.36 34.3201 46.32 36.0001C47.4 35.1601 48.36 33.9601 48.96 32.5201C48.48 31.4401 47.4 31.0801 46.2 31.5601C46.92 30.8401 47.4 29.7601 47.4 28.8001C47.4 27.6001 46.5601 27.1201 45.4801 27.7201C44.4001 28.3201 43.56 29.7601 43.56 30.9601C43.56 31.9201 44.04 32.4001 44.76 32.2801C43.44 33.2401 42.48 34.9201 42 36.4801C42.6 37.0801 43.56 37.2001 44.64 36.8401C42.6 37.5601 41.04 36.4801 41.04 33.9601C41.04 31.2001 42.9601 27.8401 45.4801 26.4001Z" fill="#7AB6FB"/>
<path opacity="0.2" d="M94.7999 36.8401L74.28 24.9601V25.6801L94.44 37.3201C96.72 38.6401 97.92 40.3201 97.92 42.1201C97.92 43.9201 96.72 45.6001 94.56 46.9201L68.64 62.0401C63.96 64.8001 56.2799 64.8001 51.5999 62.0401L25.44 46.9201C23.16 45.6001 21.96 43.9201 21.96 42.1201C21.96 40.3201 23.16 38.6401 25.44 37.3201L36.84 30.7201V30.0001L25.2 36.7201C22.8 38.1601 21.48 39.9601 21.48 42.0001C21.48 44.0401 22.8 45.9601 25.2 47.2801L51.36 62.4001C53.76 63.8401 57 64.5601 60.24 64.5601C63.48 64.5601 66.6 63.8401 69.12 62.4001L95.04 47.2801C97.44 45.8401 98.76 44.0401 98.76 42.0001C98.52 40.2001 97.1999 38.2801 94.7999 36.8401Z" fill="#10D4E3"/>
<defs>
<linearGradient id="paint0_linear_22_1028" x1="3.76125" y1="93.6901" x2="116.126" y2="93.6901" gradientUnits="userSpaceOnUse">
<stop stop-color="#92F1D0"/>
<stop offset="1" stop-color="white"/>
</linearGradient>
<linearGradient id="paint1_linear_22_1028" x1="12.6348" y1="83.3495" x2="107.223" y2="83.3495" gradientUnits="userSpaceOnUse">
<stop offset="0.3375" stop-color="#82DAE1"/>
<stop offset="0.5932" stop-color="#E8FFFC"/>
</linearGradient>
<linearGradient id="paint2_linear_22_1028" x1="107.087" y1="68.4343" x2="12.9835" y2="59.892" gradientUnits="userSpaceOnUse">
<stop stop-color="white"/>
<stop offset="1" stop-color="#C9D9F4"/>
</linearGradient>
<linearGradient id="paint3_linear_22_1028" x1="96.0964" y1="80.5535" x2="97.4282" y2="78.2467" gradientUnits="userSpaceOnUse">
<stop stop-color="#103DB5"/>
<stop offset="0.6426" stop-color="#6BABFD"/>
</linearGradient>
<linearGradient id="paint4_linear_22_1028" x1="92.1604" y1="82.8067" x2="93.4923" y2="80.4999" gradientUnits="userSpaceOnUse">
<stop stop-color="#103DB5"/>
<stop offset="0.6426" stop-color="#6BABFD"/>
</linearGradient>
<linearGradient id="paint5_linear_22_1028" x1="31.5741" y1="82.6748" x2="27.8614" y2="87.8836" gradientUnits="userSpaceOnUse">
<stop stop-color="#0CFFFC" stop-opacity="0.6"/>
<stop offset="1" stop-color="white" stop-opacity="0"/>
</linearGradient>
<linearGradient id="paint6_linear_22_1028" x1="-398.087" y1="56.1835" x2="-346.887" y2="56.1835" gradientUnits="userSpaceOnUse">
<stop stop-color="#92A6F1"/>
<stop offset="1" stop-color="white"/>
</linearGradient>
<linearGradient id="paint7_linear_22_1028" x1="42.0152" y1="49.1392" x2="47.5488" y2="49.1392" gradientUnits="userSpaceOnUse">
<stop stop-color="#FF8000"/>
<stop offset="1" stop-color="#FFD000"/>
</linearGradient>
<linearGradient id="paint8_linear_22_1028" x1="49.8911" y1="39.2745" x2="55.4409" y2="39.2745" gradientUnits="userSpaceOnUse">
<stop stop-color="#FF8000"/>
<stop offset="1" stop-color="#FFD000"/>
</linearGradient>
<linearGradient id="paint9_linear_22_1028" x1="57.8134" y1="40.0154" x2="63.3565" y2="40.0154" gradientUnits="userSpaceOnUse">
<stop stop-color="#FF8000"/>
<stop offset="1" stop-color="#FFD000"/>
</linearGradient>
<linearGradient id="paint10_linear_22_1028" x1="65.6988" y1="30.1503" x2="71.2486" y2="30.1503" gradientUnits="userSpaceOnUse">
<stop stop-color="#FF8000"/>
<stop offset="1" stop-color="#FFD000"/>
</linearGradient>
</defs>
</svg>
