<svg width="80" height="80" viewBox="0 0 80 80" fill="none" xmlns="http://www.w3.org/2000/svg">
<path d="M38.5947 44.8444L51.5681 38.835V53.3272L38.5947 60.1259V44.8444Z" fill="black" stroke="white" stroke-width="0.403192" stroke-linejoin="round"/>
<path d="M38.5929 44.844L26.6387 39.4519V54.4129L38.5929 60.1254V44.844Z" fill="black" stroke="white" stroke-width="0.403192" stroke-linejoin="round"/>
<path d="M26.6387 39.4519L38.5929 44.844L51.5662 38.8346L39.1024 33.2354L26.6387 39.4519Z" fill="black" stroke="white" stroke-width="0.403192" stroke-linejoin="round"/>
<path d="M55.0023 53.3391L43.0482 47.947L43.0479 51.8873L55.0021 57.5997L55.0023 53.3391Z" fill="black" stroke="white" stroke-width="0.403192" stroke-linejoin="round"/>
<path d="M43.0479 47.9095L55.002 53.3016L59.2383 51.8237L46.7746 46.2246L43.0479 47.9095Z" fill="black" stroke="white" stroke-width="0.403192" stroke-linejoin="round"/>
<path d="M35.0825 24.7983V39.0483L38.5952 40.5448V26.4159L35.0825 24.7983Z" fill="black" stroke="white" stroke-width="0.403192" stroke-linejoin="round"/>
<path d="M38.5947 26.4159V40.5448L41.9285 39.0483V24.7983L38.5947 26.4159Z" fill="white" stroke="white" stroke-width="0.403192" stroke-linejoin="round"/>
<path d="M38.6992 20.9044L49.0209 16.1233V27.902L38.6992 33.0625V20.9044Z" fill="black" stroke="white" stroke-width="0.403192" stroke-linejoin="round"/>
<path d="M38.6989 20.9058L29.188 16.6157V28.519L38.6989 33.0638V20.9058Z" fill="black" stroke="white" stroke-width="0.403192" stroke-linejoin="round"/>
<path d="M29.188 16.6147L38.6989 20.9047L49.0206 16.1236L39.5252 11.8584L29.188 16.6147Z" fill="black" stroke="white" stroke-width="0.403192" stroke-linejoin="round"/>
<path d="M29.7075 46.4363L33.9399 48.5032L14.4856 57.8144L10.5723 56.1147L29.7075 46.4363Z" fill="black" stroke="white" stroke-width="0.403192" stroke-linejoin="round"/>
<path d="M33.9384 48.5051V52.7173L13.8501 63.0559V57.7421L33.9384 48.5051Z" fill="white" stroke="white" stroke-width="0.403192" stroke-linejoin="round"/>
<path d="M19.4453 55.1953L29.9022 50.3484V61.9161L19.4453 67.5095V55.1953Z" fill="black" stroke="white" stroke-width="0.403192" stroke-linejoin="round"/>
<path d="M19.4455 55.1984L9.81006 50.8523V62.9113L19.4455 67.5126V55.1984Z" fill="black" stroke="white" stroke-width="0.403192" stroke-linejoin="round"/>
<path d="M9.81006 50.849L19.4455 55.466L29.9024 50.3482L20.1228 45.6997L9.81006 50.849Z" fill="black" stroke="white" stroke-width="0.403192" stroke-linejoin="round"/>
<path d="M59.3525 55.1912L69.8094 50.3442V61.912L59.3525 67.5053V55.1912Z" fill="black" stroke="white" stroke-width="0.403192" stroke-linejoin="round"/>
<path d="M59.3533 55.1941L49.7178 50.8479V62.907L59.3533 67.5083V55.1941Z" fill="black" stroke="white" stroke-width="0.403192" stroke-linejoin="round"/>
<path d="M49.7178 50.8473L59.3533 55.4643L69.8101 50.3465L60.0305 45.698L49.7178 50.8473Z" fill="black" stroke="white" stroke-width="0.403192" stroke-linejoin="round"/>
<path d="M61.6229 50.229L54.998 53.2571V57.506L56.9274 58.471L56.9275 54.1441L63.4595 51.0256L61.6229 50.229Z" fill="#07828B" stroke="white" stroke-width="0.403192" stroke-linejoin="round"/>
<path d="M33.0742 22.3434L38.6365 24.9179L41.3163 23.5794V21.6089L38.6322 22.7943L33.0742 20.3433V22.3434Z" fill="#07828B" stroke="white" stroke-width="0.403192" stroke-linejoin="round"/>
<path d="M21.0655 51.9399L23.632 53.2082V60.3234L21.7026 61.4604V54.0952L18.9883 52.862L21.0655 51.9399Z" fill="#07828B" stroke="white" stroke-width="0.403192" stroke-linejoin="round"/>
</svg>
