<svg width="61" height="60" viewBox="0 0 61 60" fill="none" xmlns="http://www.w3.org/2000/svg">
<circle cx="30" cy="30" r="30" fill="#E5E7EB"/>
<circle cx="21.7649" cy="38.2353" r="11.2092" fill="#EDF0F4" stroke="#E5E7EB" stroke-width="1.11111"/>
<path d="M21.733 31.1765L21.6394 31.4944V40.7183L21.733 40.8116L26.0145 38.2808L21.733 31.1765Z" fill="#343434"/>
<path d="M21.7331 31.1765L17.4514 38.2808L21.7331 40.8116V36.3346V31.1765Z" fill="#8C8C8C"/>
<path d="M21.7332 41.6223L21.6804 41.6866V44.9723L21.7332 45.1263L26.0173 39.0928L21.7332 41.6223Z" fill="#3C3C3B"/>
<path d="M21.7331 45.1263V41.6223L17.4514 39.0928L21.7331 45.1263Z" fill="#8C8C8C"/>
<path d="M21.7329 40.8116L26.0144 38.2808L21.7329 36.3346V40.8116Z" fill="#141414"/>
<path d="M17.4514 38.2808L21.7331 40.8116V36.3346L17.4514 38.2808Z" fill="#393939"/>
<path d="M27.0263 38.2347L27.0263 38.2349C27.0254 44.4253 32.0437 49.4444 38.2311 49.4444L27.0263 38.2347ZM27.0263 38.2347C27.0245 32.0444 32.0426 27.0261 38.2331 27.0261C44.4234 27.0261 49.4417 32.0453 49.4417 38.2358C49.4417 44.4251 44.4236 49.4435 38.2312 49.4444L27.0263 38.2347Z" fill="#EAB300" stroke="#E5E7EB" stroke-width="1.11111"/>
<path fill-rule="evenodd" clip-rule="evenodd" d="M42.8618 35.3538C42.7102 33.7782 41.3502 33.2502 39.6315 33.0996V30.9131H38.3016V33.0412C37.9524 33.0412 37.5947 33.0478 37.2399 33.0554V30.9131H35.91L35.909 33.0977L35.8948 33.098C35.6117 33.1035 35.3332 33.109 35.0619 33.109V33.1024L33.2275 33.1015V34.5227C33.2275 34.5227 34.2101 34.5039 34.1932 34.5218C34.7325 34.5218 34.9076 34.8342 34.9584 35.1044V37.5948C34.996 37.5948 35.044 37.5967 35.0986 37.6042H34.9584L34.9575 41.0933C34.9339 41.2627 34.8342 41.5329 34.4577 41.5338C34.4746 41.5489 33.491 41.5338 33.491 41.5338L33.2266 43.1226H34.9584C35.1537 43.1226 35.3472 43.1247 35.5386 43.1267C35.6627 43.128 35.7859 43.1294 35.9081 43.1301L35.909 45.341H37.238V43.1536C37.6023 43.1612 37.9552 43.164 38.3006 43.164L38.2997 45.341H39.6296V43.1348C41.866 43.0068 43.4331 42.443 43.627 40.3422C43.7842 38.6509 42.9888 37.8951 41.7191 37.5901C42.4919 37.1986 42.9747 36.5068 42.8618 35.3538ZM41.0001 40.0806C41.0001 41.5978 38.614 41.5634 37.5256 41.5477C37.4291 41.5463 37.3427 41.5451 37.2692 41.5451V38.6151C37.3611 38.6153 37.473 38.6128 37.5999 38.6099H37.5999C38.7186 38.5848 41.0001 38.5336 41.0001 40.0806ZM37.4916 37.2782C38.4023 37.2926 40.3808 37.3238 40.3808 35.9477C40.3817 34.5393 38.4751 34.5898 37.543 34.6144C37.438 34.6172 37.3453 34.6197 37.2692 34.6197V37.2758C37.3326 37.2757 37.4076 37.2769 37.4916 37.2782Z" fill="white"/>
<path d="M34.9604 37.5365H35.1581V37.6824H34.9604V37.5365Z" fill="white"/>
<path d="M40.8712 24.4764L40.8575 24.5311C39.3372 30.5033 33.2741 34.131 27.2867 32.6381C21.2838 31.1411 17.6293 25.0588 19.127 19.0544L19.127 19.0543C20.6234 13.0487 26.7054 9.39408 32.709 10.8911L32.709 10.8911C38.7141 12.3881 42.3684 18.4711 40.8712 24.4764Z" fill="#50AF95" stroke="#E5E7EB" stroke-width="1.11111"/>
<path fill-rule="evenodd" clip-rule="evenodd" d="M31.489 23.0985C31.4058 23.1047 30.976 23.1303 30.0173 23.1303C29.2547 23.1303 28.7133 23.1075 28.5234 23.0985C25.5765 22.9688 23.3769 22.4558 23.3769 21.8416C23.3769 21.2274 25.5765 20.7151 28.5234 20.5834V22.5875C28.7161 22.6014 29.2679 22.634 30.0304 22.634C30.9455 22.634 31.4037 22.5959 31.4862 22.5882V20.5848C34.4269 20.7158 36.6216 21.2288 36.6216 21.8416C36.6216 22.4544 34.4276 22.9674 31.4862 23.0978L31.489 23.0985ZM31.489 20.3776V18.5842H35.5929V15.8494H24.4194V18.5842H28.5226V20.3769C25.1875 20.5301 22.6794 21.1907 22.6794 21.9824C22.6794 22.7741 25.1875 23.434 28.5226 23.5879V29.3348H31.4883V23.5858C34.8158 23.4326 37.3197 22.7727 37.3197 21.9817C37.3197 21.1907 34.8178 20.5308 31.4883 20.3769L31.489 20.3776Z" fill="white"/>
</svg>
