<svg width="80" height="80" viewBox="0 0 80 80" fill="none" xmlns="http://www.w3.org/2000/svg">
<path d="M38.5945 44.8443L51.5679 38.8348V53.3271L38.5945 60.1258V44.8443Z" fill="white" stroke="#2B2F33" stroke-width="0.403192" stroke-linejoin="round"/>
<path d="M38.5929 44.8439L26.6387 39.4518V54.4128L38.5929 60.1253V44.8439Z" fill="white" stroke="#2B2F33" stroke-width="0.403192" stroke-linejoin="round"/>
<path d="M26.6387 39.4516L38.5929 44.8437L51.5662 38.8343L39.1024 33.2351L26.6387 39.4516Z" fill="white" stroke="#2B2F33" stroke-width="0.403192" stroke-linejoin="round"/>
<path d="M55.0023 53.3389L43.0482 47.9468L43.0479 51.8871L55.0021 57.5995L55.0023 53.3389Z" fill="white" stroke="#2B2F33" stroke-width="0.403192" stroke-linejoin="round"/>
<path d="M43.0479 47.9094L55.002 53.3015L59.2383 51.8236L46.7746 46.2245L43.0479 47.9094Z" fill="white" stroke="#2B2F33" stroke-width="0.403192" stroke-linejoin="round"/>
<path d="M35.0825 24.7981V39.048L38.5952 40.5446V26.4157L35.0825 24.7981Z" fill="white" stroke="#2B2F33" stroke-width="0.403192" stroke-linejoin="round"/>
<path d="M38.5945 26.4157V40.5446L41.9283 39.048V24.7981L38.5945 26.4157Z" fill="#2B2F33" stroke="#2B2F33" stroke-width="0.403192" stroke-linejoin="round"/>
<path d="M38.6992 20.9043L49.0209 16.1232V27.9019L38.6992 33.0624V20.9043Z" fill="white" stroke="#2B2F33" stroke-width="0.403192" stroke-linejoin="round"/>
<path d="M38.6989 20.9058L29.188 16.6157V28.519L38.6989 33.0638V20.9058Z" fill="white" stroke="#2B2F33" stroke-width="0.403192" stroke-linejoin="round"/>
<path d="M29.188 16.6145L38.6989 20.9046L49.0206 16.1234L39.5252 11.8583L29.188 16.6145Z" fill="white" stroke="#2B2F33" stroke-width="0.403192" stroke-linejoin="round"/>
<path d="M29.7072 46.4363L33.9396 48.5032L14.4854 57.8144L10.572 56.1147L29.7072 46.4363Z" fill="white" stroke="#2B2F33" stroke-width="0.403192" stroke-linejoin="round"/>
<path d="M33.9382 48.505V52.7172L13.8499 63.0558V57.7419L33.9382 48.505Z" fill="#2B2F33" stroke="#2B2F33" stroke-width="0.403192" stroke-linejoin="round"/>
<path d="M19.4451 55.195L29.902 50.3481V61.9158L19.4451 67.5092V55.195Z" fill="white" stroke="#2B2F33" stroke-width="0.403192" stroke-linejoin="round"/>
<path d="M19.4455 55.1983L9.81006 50.8522V62.9111L19.4455 67.5125V55.1983Z" fill="white" stroke="#2B2F33" stroke-width="0.403192" stroke-linejoin="round"/>
<path d="M9.81006 50.849L19.4455 55.466L29.9024 50.3482L20.1228 45.6997L9.81006 50.849Z" fill="white" stroke="#2B2F33" stroke-width="0.403192" stroke-linejoin="round"/>
<path d="M59.3528 55.191L69.8097 50.344V61.9118L59.3528 67.5051V55.191Z" fill="white" stroke="#2B2F33" stroke-width="0.403192" stroke-linejoin="round"/>
<path d="M59.3533 55.1941L49.7178 50.8479V62.907L59.3533 67.5083V55.1941Z" fill="white" stroke="#2B2F33" stroke-width="0.403192" stroke-linejoin="round"/>
<path d="M49.7178 50.8471L59.3533 55.4642L69.8101 50.3464L60.0305 45.6979L49.7178 50.8471Z" fill="white" stroke="#2B2F33" stroke-width="0.403192" stroke-linejoin="round"/>
<path d="M61.6226 50.2288L54.9978 53.2568V57.5058L56.9272 58.4707L56.9273 54.1439L63.4593 51.0254L61.6226 50.2288Z" fill="#07828B" stroke="#2B2F33" stroke-width="0.403192" stroke-linejoin="round"/>
<path d="M33.0742 22.3433L38.6365 24.9178L41.3163 23.5793V21.6088L38.6322 22.7941L33.0742 20.3431V22.3433Z" fill="#07828B" stroke="#2B2F33" stroke-width="0.403192" stroke-linejoin="round"/>
<path d="M21.0655 51.9399L23.632 53.2082V60.3234L21.7026 61.4604V54.0952L18.9883 52.862L21.0655 51.9399Z" fill="#07828B" stroke="#2B2F33" stroke-width="0.403192" stroke-linejoin="round"/>
</svg>
