<svg width="560" height="401" viewBox="0 0 560 401" fill="none" xmlns="http://www.w3.org/2000/svg">
<mask id="mask0_36_1117" style="mask-type:alpha" maskUnits="userSpaceOnUse" x="0" y="0" width="560" height="401">
<rect y="0.5" width="560" height="400" fill="#D9D9D9"/>
</mask>
<g mask="url(#mask0_36_1117)">
<path d="M91.8506 196.877L143.576 197.386C144.396 178.032 144.924 159.397 145.251 142.424C114.258 142.325 94.4306 142.583 93.7626 142.593C93.625 142.596 93.4883 142.571 93.3604 142.52C93.2325 142.469 93.1159 142.394 93.0172 142.298C92.9186 142.202 92.8398 142.087 92.7856 141.961C92.7313 141.835 92.7025 141.699 92.7008 141.561C92.6975 141.283 92.8045 141.015 92.9985 140.816C93.1924 140.617 93.4575 140.503 93.7354 140.499C94.4034 140.499 114.258 140.231 145.291 140.33C145.709 117.659 145.793 98.1435 145.758 83.9432H92.7218C92.5787 83.9523 92.4353 83.9319 92.3004 83.8834C92.1655 83.8349 92.042 83.7592 91.9375 83.6611C91.8329 83.563 91.7496 83.4445 91.6927 83.3129C91.6357 83.1814 91.6064 83.0395 91.6064 82.8962C91.6064 82.7528 91.6357 82.611 91.6927 82.4794C91.7496 82.3479 91.8329 82.2294 91.9375 82.1312C92.042 82.0331 92.1655 81.9575 92.3004 81.909C92.4353 81.8604 92.5787 81.8401 92.7218 81.8491H145.764C145.72 68.2373 145.575 60.022 145.569 59.6514C145.566 59.5137 145.59 59.3768 145.64 59.2484C145.69 59.1201 145.764 59.0029 145.86 58.9036C145.955 58.8043 146.069 58.7249 146.195 58.6699C146.322 58.6149 146.458 58.5855 146.595 58.5833C146.873 58.5789 147.141 58.6845 147.341 58.8771C147.542 59.0698 147.657 59.3338 147.663 59.6116C147.663 59.9927 147.814 68.1179 147.858 81.757H209.52C209.444 57.7017 208.975 57.708 210.477 57.7038C212.033 57.7038 211.54 57.7666 211.614 81.7612H281.654C281.991 57.1447 281.524 56.2756 283.024 56.529C284.521 56.5458 284.094 56.5772 283.748 81.8009C303.975 81.847 324.246 81.9203 343.68 82.0292C343.638 67.9986 343.489 59.599 343.483 59.2032C343.481 59.0657 343.505 58.929 343.555 58.801C343.605 58.673 343.68 58.5561 343.776 58.457C343.871 58.3579 343.985 58.2786 344.111 58.2236C344.237 58.1685 344.373 58.1389 344.51 58.1363C344.788 58.131 345.056 58.2362 345.257 58.4289C345.356 58.5242 345.435 58.6382 345.49 58.7642C345.545 58.8903 345.575 59.0259 345.577 59.1634C345.577 59.5529 345.732 67.9776 345.774 82.0334C367.84 82.159 388.779 82.3287 407.289 82.559C407.214 57.2745 406.74 57.262 408.244 57.2557C409.731 57.151 409.308 57.5049 409.385 82.5946C453.423 83.1579 453.676 82.9506 453.636 84.4793C453.586 86.2216 453.691 85.2604 409.45 84.6888V150.765C425.937 152.34 441.725 154.147 456.267 156.22C456.541 156.26 456.789 156.407 456.955 156.629C457.122 156.851 457.193 157.13 457.155 157.405C456.853 159.522 456.292 157.347 409.482 152.869V202.259C454.126 203.884 452.02 204.718 451.871 205.845C451.63 207.671 451.814 205.893 409.452 204.351C409.404 224.503 409.32 244.896 409.18 264.189C454.279 264.759 454.269 264.566 454.229 266.074C454.179 267.816 454.219 266.846 409.165 266.283C408.981 291.153 408.705 314.096 408.303 332.213C425.441 333.825 441.788 335.687 456.855 337.835C457.06 337.865 457.252 337.954 457.406 338.092C457.56 338.23 457.669 338.411 457.72 338.612C457.771 338.812 457.762 339.023 457.693 339.218C457.624 339.414 457.498 339.584 457.333 339.707C457.113 339.875 456.834 339.946 456.56 339.909C441.568 337.773 425.305 335.917 408.255 334.311C407.896 349.807 408.156 350.436 406.751 350.344C405.26 350.256 405.806 349.598 406.167 334.114C382.599 331.928 357.583 330.204 332.353 328.852C331.142 336.987 329.823 344.83 328.387 352.285C328.362 352.421 328.311 352.551 328.236 352.667C328.161 352.783 328.063 352.883 327.949 352.961C327.835 353.039 327.706 353.094 327.57 353.121C327.435 353.149 327.295 353.149 327.159 353.122C325.417 352.787 326.684 352.643 330.252 328.747C312.637 327.815 294.941 327.072 277.596 326.456C276.289 348.392 275.746 348.938 274.471 348.723C272.836 348.438 274.182 348.61 275.508 326.383C252.969 325.608 231.051 325.076 210.699 324.718C210.207 350.817 210.449 350.878 208.986 350.792C207.407 350.7 208.112 350.769 208.607 324.68C184.142 324.264 159.674 324.046 135.205 324.027C133.79 334.058 132.217 343.68 130.473 352.733C130.448 352.869 130.397 352.999 130.321 353.115C130.246 353.231 130.149 353.331 130.034 353.409C129.92 353.487 129.792 353.541 129.656 353.569C129.521 353.597 129.381 353.597 129.245 353.571C127.361 353.208 128.967 353.152 133.09 324.031C93.3018 324.031 93.3312 324.816 93.3018 323.193C93.2788 321.658 93.2788 321.926 133.379 321.937C135.855 304.086 137.846 284.98 139.452 265.519C92.2757 265.615 92.2883 266.298 92.282 264.599C92.282 262.983 92.2967 263.521 139.624 263.425C141.341 242.106 142.593 220.403 143.5 199.495L91.8527 198.986C91.7141 198.987 91.5768 198.96 91.4486 198.907C91.3205 198.855 91.204 198.777 91.1059 198.679C91.0078 198.581 90.93 198.465 90.8771 198.337C90.8241 198.209 90.797 198.071 90.7973 197.933C90.7984 197.654 90.9096 197.386 91.1069 197.189C91.3041 196.991 91.5714 196.879 91.8506 196.877ZM145.67 197.409L209.612 198.18V143.086C186.31 142.677 165.093 142.495 147.349 142.43C147.025 159.407 146.497 178.045 145.67 197.409ZM281.673 201.346C281.214 222.539 280.695 243.914 280.111 263.496H337.477C339.125 243.143 340.35 222.528 341.247 202.479C322.224 202.067 302.024 201.688 281.679 201.346H281.673ZM341.347 200.389C342.155 182.026 342.698 164.253 343.054 147.869C322.99 146.696 302.681 145.774 282.768 145.037C282.469 162.209 282.121 180.677 281.721 199.254C302.082 199.596 322.299 199.975 341.347 200.389ZM279.587 201.311C256.6 200.928 233.474 200.59 211.691 200.301C211.645 221.452 211.561 243.022 211.417 263.36H278.019C278.609 243.778 279.131 222.522 279.587 201.311ZM279.633 199.217C280.029 180.629 280.377 162.151 280.68 144.96C256.717 144.093 233.353 143.509 211.716 143.119V198.195C233.506 198.498 256.629 198.835 279.633 199.219V199.217ZM147.864 83.8092C147.898 98.0116 147.822 117.663 147.397 140.338C165.13 140.401 186.296 140.583 209.58 140.991V83.8092H147.864ZM211.675 83.8092V141.029C233.313 141.419 256.734 142.003 280.712 142.87L281.625 83.8155L211.675 83.8092ZM283.713 83.9998L282.797 142.947C302.713 143.678 323.023 144.606 343.094 145.777C343.613 120.978 343.722 99.3707 343.68 83.9998H283.713ZM407.35 84.6469C386.828 84.405 366.305 84.2298 345.782 84.1212C345.816 99.5194 345.718 121.051 345.194 145.898C366.487 147.154 387.426 148.698 407.354 150.57L407.35 84.6469ZM407.381 152.666C387.445 150.782 366.458 149.249 345.146 147.986C344.788 164.349 344.245 182.095 343.439 200.431C367.354 200.957 389.372 201.541 407.381 202.18V152.666ZM407.354 204.272C389.345 203.631 367.31 203.047 343.345 202.521C342.442 222.556 341.221 243.258 339.575 263.605C362.078 263.713 384.58 263.897 407.082 264.158C407.226 244.848 407.306 224.447 407.354 204.276V204.272ZM406.206 332.014C406.606 313.931 406.881 291.05 407.065 266.258C386.815 266.009 363.698 265.829 339.404 265.703C337.659 286.868 335.448 307.609 332.654 326.772C357.782 328.123 382.715 329.84 406.206 332.016V332.014ZM330.554 326.657C333.348 307.535 335.559 286.726 337.305 265.588H280.054C279.359 288.659 278.576 309.165 277.711 324.355C295.117 324.967 312.875 325.723 330.554 326.659V326.657ZM275.623 324.282C276.488 309.144 277.269 288.525 277.966 265.452H211.402C211.249 286.416 211.034 306.026 210.732 322.621C231.11 322.975 253.054 323.507 275.623 324.284V324.282ZM135.492 321.922C154.993 321.939 180.242 322.092 208.638 322.578C208.94 306.002 209.155 286.412 209.308 265.46H141.544C139.949 284.917 137.961 304.061 135.492 321.924V321.922ZM141.714 263.366H209.331C209.476 243.013 209.559 221.435 209.606 200.272L145.594 199.501C144.679 220.399 143.429 242.054 141.714 263.368V263.366Z" fill="#D7D9DE"/>
<path d="M121.612 66.682C131.302 70.9415 156.115 84.5952 159.051 86.7982C160.645 87.6063 161.896 88.9604 162.575 90.6137C162.596 92.1383 162.134 93.6293 161.254 94.8732C160.079 93.2565 123.669 73.5843 111.623 67.4171C109.256 66.0474 106.661 65.1166 103.963 64.6696C110.275 61.0467 116.54 64.3617 121.612 66.682Z" fill="white"/>
<path d="M110.319 86.0253C110.929 87.4307 111.464 88.8672 111.923 90.3288C111.923 89.889 112.216 120.134 103.848 118.371L102.633 118.325C104.69 112.753 102.864 73.6742 110.319 86.0253Z" fill="white"/>
<path d="M117.355 82.5471C117.443 79.0331 122.029 80.9409 124.515 82.2287C140.688 106.879 197.931 190.089 221.892 200.738C214.954 209.499 207.993 213.038 138.497 114.849C118.101 86.1845 117.29 85.1668 117.355 82.5471Z" fill="white"/>
<path d="M281.645 180.917C316.286 239.088 331.515 285.571 343.311 284.576L343.897 284.87C334.321 301.076 322.108 273.999 313.212 257.12C307.652 246.568 267.922 166.677 255.952 166.677V166.235C267.11 159.921 275.011 169.776 281.645 180.917Z" fill="white"/>
<path d="M408.939 231.281C419.399 241.816 458.136 298.27 460.036 304.397C460.44 305.712 460.461 307.114 460.097 308.44C459.733 309.766 458.999 310.961 457.981 311.886C457.772 311.886 419.625 252.444 398.519 230.694C382.769 214.463 379.433 221.47 379.433 218.948C389.118 210.723 403.379 225.679 408.939 231.281Z" fill="white"/>
<path d="M99.5902 67.7292C99.9043 64.5755 106.955 58.8229 122.033 65.744C131.534 69.9176 156.561 83.6404 159.635 85.9461C164.988 89.5061 164.912 91.4222 159.361 97.8952C158.523 99.0595 157.591 100.033 157.29 99.8825C155.516 98.9506 126.59 83.3137 126.37 83.1776C157.225 130.584 211.391 200.009 222.557 199.504C223.867 197.788 225.211 196.099 226.589 194.437C251.226 165.161 263.697 148.812 282.399 180.389C316.115 236.704 335.866 292.995 345.07 282.373C354.391 263.095 362.451 224.297 377.261 219.625C386.01 209.665 398.598 219.267 407.898 228.713C422.651 243.703 459.502 299.139 461.024 304.066C462.293 308.164 457.998 314.03 453.992 315.622C451.496 317.657 448.82 319.027 446.964 317.171C442.414 312.619 411.573 263.287 398.221 247.437C394.11 242.593 387.943 233.048 380.896 234.076C368.751 236.149 356.186 307.293 338.465 306.9C324.37 306.604 308.519 272.104 303.523 264.615C289.72 244.208 268.578 194.881 258.449 186.655C252.723 181.956 250.227 186.213 246.703 190.619C239.949 199.134 225.121 223.212 215.291 220.423C189.608 213.133 127.013 114.715 113.307 91.8075C112.26 108.716 109.707 117.775 105.523 119.471C102.7 120.026 99.8038 120.105 96.9537 119.703C95.8982 118.836 96.0658 83.7221 99.5902 67.7292ZM398.514 230.544C413.95 246.249 451.628 300.598 457.271 310.33C457.945 309.564 458.45 308.664 458.752 307.69C459.054 306.716 459.147 305.688 459.024 304.676C457.539 299.872 420.829 244.769 406.369 230.139C399.587 223.279 388.544 213.579 380.752 219.223C387.497 219.654 394.408 226.437 398.514 230.544ZM313.212 256.969C321.12 272.273 334.388 300.238 343.386 285.602C333.624 286.681 319.304 253.893 314.774 244.964C280.523 177.3 271.164 159.689 257.219 166.738C270.324 171.154 306.873 244.809 313.212 256.969ZM159.836 93.8891C161.943 90.9824 162.521 90.3814 158.423 87.6444C155.7 85.5963 131.216 72.0557 121.174 67.6434C116.812 65.6393 111.569 63.231 106.166 64.988C110.924 66.4225 154.469 90.3793 159.836 93.8891ZM122.2 91.795C132.085 106.347 196.228 199.224 213.086 204.26C217.167 205.483 218.727 204.31 221.156 201.328C204.881 196.57 149.118 122.449 122.63 81.2322C120.178 80.227 117.304 79.6323 117.212 82.3986C117.061 85.3367 120.732 89.7427 122.2 91.7971V91.795ZM111.38 88.6056C102.604 74.4346 105.726 109.729 103.339 117.544C109.606 119.435 110.97 94.9299 111.38 88.6077V88.6056Z" fill="#2AB26C"/>
<path d="M165.805 72.7107C165.805 65.4629 168.396 65.5383 169.036 68.7465C169.216 69.5255 169.489 70.3255 169.748 71.1401C170.281 68.299 170.975 65.4905 171.826 62.728C172.649 59.7606 174.322 58.5963 174.322 62.5814C174.322 64.0682 174.395 65.71 174.418 67.3393C174.913 65.6912 175.509 64.0703 176.083 62.4327C176.23 61.8464 177.111 59.057 177.844 59.5009C178.433 59.7941 178.286 61.4087 178.286 61.9971C178.286 63.7876 178.383 65.8189 178.355 67.7204C180.751 61.9092 181.233 60.2381 182.25 60.5292C185.029 61.5762 180.784 75.0687 180.784 77.1188C181.088 78.0298 184.539 71.5338 185.775 73.5965C187.146 75.9964 181.959 86.9424 184.361 89.0177C182.326 92.0709 182.772 93.8677 182.24 93.8677C176.665 92.7536 171.813 96.6822 174.471 103.107C175.499 105.457 178.142 107.658 177.995 110.3C177.846 112.21 175.939 113.825 175.063 115.439C170.856 123.152 180.299 131.882 188.866 131.882C188.529 127.189 187.842 122.528 186.809 117.935C187.589 116.795 188.091 115.487 188.275 114.118C188.275 110.558 192.153 114.514 193.707 115.293C200.199 118.689 207.947 118.779 207.947 111.329C207.947 111.035 207.508 107.658 207.801 107.658C209.627 107.658 216.961 115.883 227.965 115.883C226.311 105.695 223.94 95.6363 220.868 85.7822C221.593 85.42 222.334 85.0828 223.117 84.7812C221.91 79.8544 221.108 74.8368 220.722 69.7789C219.256 61.4171 214.783 54.7305 217.49 53.4824C219.147 52.6552 222.041 57.2833 222.935 58.8915C222.516 56.9775 220.751 49.5287 222.334 49.0764C223.852 48.7392 225.243 51.3799 227.766 55.12C226.212 47.9246 225.882 47.2587 226.445 46.5802C227.923 44.796 232.296 51.4469 233.397 53.518C232.56 51.3045 230.392 44.819 232.769 44.819C238.069 44.819 242.961 57.3607 239.376 70.5119C238.432 74.2813 237.259 77.9879 235.862 81.6107C236.365 81.5432 236.857 81.4131 237.328 81.2233C238.356 80.9302 248.192 106.476 250.395 115.148C260.246 155.195 259.334 197.134 247.753 236.714C222.531 236.714 218.098 236.086 190.639 222.768C186.491 221.329 182.505 219.459 178.747 217.187C170.052 212.242 178.6 209.696 178.6 182.097C178.6 115.1 164.073 106.989 169.351 97.6769C168.406 97.2078 165.539 83.9101 165.805 72.7107Z" fill="white"/>
<path d="M187.146 368.71C187.404 369.992 203.271 382.454 212.347 395.274C212.935 396.009 216.745 400.559 215.279 401.734C214.251 402.469 211.754 401.148 210.726 400.706C206.615 398.945 170.483 380.45 170.058 378.977C169.296 376.343 173.869 367.537 174.605 365.041C177.203 368.013 183.096 370.735 187.146 368.71Z" fill="white"/>
<path d="M154.212 277.232C157.144 279.433 171.384 279.433 171.537 278.405C171.782 278.652 171.707 288.978 169.774 290.739C168.201 292.171 128.101 293.139 125.728 288.096C123.862 284.151 148.713 278.329 154.212 277.232Z" fill="white"/>
<path d="M177.994 110.738C178.161 108.096 175.462 105.761 174.469 103.543C172.065 98.1715 175.152 92.9969 182.251 93.7005C182.922 91.155 184.154 88.792 185.857 86.7848C187.56 84.7776 189.691 83.1773 192.093 82.1011C196.646 80.6352 201.05 82.8362 204.279 86.0653C205.307 86.9469 206.482 89.1479 207.803 89.5897C208.538 89.7363 210.735 85.6255 211.621 85.1921C216.019 82.321 222.632 88.2474 222.632 90.4776C225.017 98.7785 226.925 107.209 228.345 115.729C216.76 115.729 211.127 108.655 208.231 108.242C207.791 108.242 208.377 111.618 208.377 111.911C208.377 119.259 200.725 119.24 194.137 115.875C193.26 115.427 190.313 112.918 189.291 113.232C188.847 113.371 188.852 114.261 188.705 114.698C188.506 116.063 188.005 117.367 187.239 118.514C187.239 118.514 189.293 132.251 189.293 132.463C183.405 132.463 176.084 128.078 174.611 121.452C173.77 115.949 177.803 113.718 177.994 110.738Z" fill="#F0BA30"/>
<path d="M190.472 138.192C190.472 139.204 190.874 140.175 191.59 140.891C192.306 141.607 193.277 142.009 194.29 142.009C195.302 142.009 196.273 141.607 196.989 140.891C197.705 140.175 198.107 139.204 198.107 138.192C198.107 132.963 190.472 133.421 190.472 138.192Z" fill="#FCCAC2"/>
<path d="M223.065 133.348C222.321 133.364 221.598 133.598 220.985 134.019C220.372 134.441 219.895 135.033 219.615 135.723C219.334 136.412 219.261 137.168 219.405 137.898C219.549 138.629 219.903 139.301 220.424 139.832C221.12 140.544 222.068 140.959 223.065 140.982C223.809 140.966 224.532 140.732 225.145 140.311C225.759 139.889 226.235 139.297 226.516 138.607C226.796 137.918 226.869 137.162 226.725 136.432C226.581 135.701 226.227 135.029 225.706 134.498C225.011 133.786 224.062 133.371 223.065 133.348Z" fill="#FCCAC2"/>
<path d="M124.737 286.911C126.513 282.593 147.888 277.488 153.181 276.514C150.227 272.497 148.533 266.156 146.572 261.815C141.58 250.951 135.708 239.793 132.919 228.047C126.58 200.79 152.415 193.913 173.731 211.571C173.985 207.747 185.538 173.382 169.643 113.515C168.504 109.224 165.847 102.584 168.043 97.8616C166.368 92.9906 161.918 67.2475 167.091 65.7C168.515 65.2225 169.271 66.5376 169.675 67.4904C171.35 56.645 174.971 58.0417 175.329 61.2772C176.525 57.4093 179.446 56.8586 179.337 62.6509C182.231 56.1382 186.7 59.3631 182.367 73.9592C183.865 72.2462 185.655 71.3353 186.694 73.0671C188.325 75.9256 183.907 83.921 185.037 88.4548C185.41 89.9395 180.242 93.2713 184.464 77.871C186.734 69.5888 182.728 78.5705 180.694 78.2208C177.762 77.7161 183.071 68.1166 182.026 61.7693C180.692 64.9121 179.691 68.1864 179.042 71.5384C178.814 72.9226 178.294 74.9539 176.925 74.2147C176.286 73.8754 176.37 73.4105 176.384 72.0933C176.451 71.6996 177.871 59.6438 177.084 62.7724C176.03 65.9865 175.319 69.3032 174.965 72.6671C174.828 74.3424 174.718 75.3204 174.194 75.6471C174.018 75.8181 173.793 75.9302 173.551 75.9678C173.309 76.0053 173.06 75.9664 172.841 75.8565C171.913 75.3183 172.508 74.2482 172.567 73.5529C173.064 69.6697 173.299 65.7574 173.27 61.8426C171.788 66.3379 171.063 71.0481 171.124 75.7811C171.155 77.5506 171.147 78.0658 170.36 78.3255C167.47 79.2511 169.773 72.2127 167.583 67.8967C165.424 71.7981 168.058 89.8327 169.604 95.5685C171.875 93.7065 174.788 92.8148 177.712 93.087C177.855 93.0779 177.999 93.0983 178.133 93.1468C178.268 93.1953 178.392 93.271 178.496 93.3691C178.601 93.4672 178.684 93.5857 178.741 93.7173C178.798 93.8488 178.828 93.9907 178.828 94.134C178.828 94.2774 178.798 94.4192 178.741 94.5508C178.684 94.6824 178.601 94.8009 178.496 94.899C178.392 94.9971 178.268 95.0727 178.133 95.1213C177.999 95.1698 177.855 95.1902 177.712 95.1811C165.34 95.1811 169.689 105.078 172.249 115.22C177.484 135.977 179.639 148.085 179.639 182.079C179.639 210.928 171.294 211.206 179.01 216.104C182.828 218.525 208.157 231.438 221.102 234.355C229.758 235.959 238.561 236.625 247.359 236.34C258.757 197.133 259.601 155.612 249.807 115.974C246.474 104.708 242.346 93.6927 237.451 83.0121C232.383 83.8823 227.398 85.1775 222.547 86.8842C230.574 112.286 235.03 143.535 225.374 168.365C225.265 168.612 225.065 168.808 224.816 168.912C224.566 169.015 224.286 169.019 224.034 168.922C223.781 168.825 223.576 168.633 223.462 168.387C223.348 168.141 223.335 167.86 223.425 167.604C227.175 157.948 223.833 167.563 215.976 167.801C210.808 167.925 206.134 162.386 205.891 160.497C203.165 160.076 200.553 159.105 198.213 157.645C195.874 156.185 193.855 154.265 192.279 152.001C186.69 144.136 189.533 134.926 186.679 120.296C185.086 121.687 183.162 122.645 181.092 123.077C180.837 123.077 180.59 122.983 180.399 122.814C180.208 122.644 180.085 122.411 180.054 122.158C180.023 121.904 180.085 121.648 180.23 121.437C180.374 121.227 180.591 121.076 180.839 121.014C191.592 118.321 184.495 107.553 193.577 114.2C199.097 118.235 208.236 118.491 207.292 111.423C206.521 105.715 207.92 106.724 211.348 108.701C214.835 110.724 223.854 115.953 227.02 114.971C221.519 84.8152 217.836 86.547 222.413 84.6686C219.766 78.6207 220.968 70.6903 217.124 61.1683C216.064 58.5464 214.642 54.4336 217.249 53.2315C218.359 52.7583 219.429 53.1017 221.1 54.8335C221.775 55.6188 221.63 55.912 221.186 53.3677C220.225 48.5344 223.435 47.3596 226.086 50.9447C225.525 48.6998 225.222 46.057 227.552 46.1282C229.038 46.5192 230.341 47.4151 231.238 48.6621C230.059 43.2279 236.186 42.6122 239.753 50.3584C243.12 57.424 243.593 68.0517 237.03 80.9431C237.235 80.8305 237.464 80.7676 237.698 80.7596C237.932 80.7516 238.165 80.7987 238.377 80.8971C240.44 82.0802 250.158 108.762 251.857 115.45C261.796 155.672 260.882 197.812 249.208 237.565C249.021 238.221 248.236 238.334 247.648 238.403C241.803 273.306 224.022 322.289 208.559 344.317C202.651 352.443 191.045 366.817 188.736 368.745C195.929 374.094 209.398 389.444 213.157 394.746C214.946 396.953 218.003 400.894 215.775 402.576C214.428 403.59 212.192 402.557 210.659 401.862C208.45 400.863 169.564 381.639 168.923 379.046C168.025 375.411 173.685 365.127 175.379 360.467C180.797 344.602 190.248 309.967 199.311 284.561C200.32 281.785 206.573 265.281 205.476 262.54C205.122 261.597 205.589 262.161 189.619 253.29C173.758 244.637 170.427 241.791 167.744 242.865C165.022 244 171.888 264.464 171.402 276.658C173.147 281.092 173.015 289.642 170.462 291.832C168.387 293.516 121.227 295.484 124.737 286.911ZM210.041 162.893C215.905 168.672 220.39 164.788 226.13 159.048C230.141 142.682 226.901 162.112 208.182 160.773C208.729 161.54 209.352 162.25 210.041 162.893ZM210.28 110.539C208.931 109.756 209.139 109.639 209.348 111.168C210.567 120.223 199.518 121.176 192.323 115.913C188.252 112.933 190.916 114.51 188.38 118.338C188.604 118.993 189.154 122.359 189.328 123.611C189.86 122.814 190.552 122.138 191.362 121.626C192.172 121.114 193.08 120.778 194.028 120.64C194.976 120.501 195.942 120.564 196.864 120.823C197.786 121.083 198.643 121.533 199.38 122.145C199.581 122.331 199.701 122.587 199.715 122.86C199.729 123.133 199.635 123.401 199.455 123.606C199.274 123.811 199.02 123.937 198.748 123.958C198.475 123.978 198.205 123.891 197.996 123.716C197.145 123.019 196.079 122.64 194.98 122.644C193.88 122.648 192.817 123.034 191.971 123.737C191.41 124.202 190.964 124.788 190.666 125.454C190.57 125.644 190.419 125.8 190.232 125.902C190.045 126.004 189.831 126.047 189.619 126.026C190.966 138.186 189.72 144.843 193.967 150.82C195.495 153.007 197.481 154.836 199.788 156.178C202.094 157.521 204.664 158.346 207.321 158.595C221.846 160.321 227.617 148.125 228.145 147.844C229.283 137.595 229.017 127.238 227.353 117.061C223.515 117.925 216.585 114.189 210.28 110.533V110.539ZM238.792 71.1154C243.75 52.9279 232.193 42.6625 233.194 47.9774C234.023 51.7606 235.215 55.455 236.754 59.0092C237.744 61.4908 235.592 61.6541 235.041 60.5526C234.385 59.3213 233.881 58.0187 233.539 56.6659C232.367 53.8158 229.594 49.2297 227.661 48.3166C227.626 49.527 230.164 57.6187 230.532 58.9485C231.579 62.7745 232.677 64.3639 231.611 65.1953C231.399 65.3375 231.147 65.4105 230.892 65.4041C230.637 65.3977 230.39 65.3123 230.185 65.1597C228.235 63.6017 230.032 60.9714 225.121 53.3237C223.865 51.3657 223.375 51.083 223.138 50.9971C222.66 52.62 225.86 64.5566 226.298 65.4466C227.119 67.1219 226.52 67.8779 225.578 67.8779C223.37 67.8779 224.581 62.1756 219.53 56.268C218.994 55.7256 218.324 55.043 218.064 55.156C217.436 55.4471 218.018 57.8931 219.027 60.3914C223.167 70.6777 221.172 74.445 224.334 83.9356C226.704 83.1336 231.42 82.0949 234.321 81.5064C236.116 78.182 237.612 74.7047 238.792 71.1154ZM174.95 366.806C173.025 370.77 170.709 376.538 170.9 378.399C173.633 380.86 211.16 400.559 214.42 401.016C214.981 398.769 194.438 375.302 186.788 369.906C183.297 371.353 175.153 366.833 174.944 366.796L174.95 366.806ZM126.68 287.975C128.333 291.698 166.337 291.759 169.088 290.249C170.326 289.187 170.961 283.269 169.926 279.014C165.201 279.468 160.435 279.194 155.793 278.202C149.684 279.173 125.522 285.454 126.68 287.964V287.975Z" fill="#2B2F33"/>
<path d="M225.147 122.928C224.873 122.973 224.593 122.908 224.367 122.747C224.141 122.585 223.989 122.341 223.943 122.067C223.648 120.302 218.237 117.416 215.062 121.391C214.984 121.523 214.879 121.637 214.752 121.724C214.626 121.811 214.483 121.87 214.331 121.896C214.18 121.922 214.025 121.914 213.877 121.874C213.729 121.834 213.592 121.762 213.474 121.663C213.295 121.516 213.17 121.314 213.117 121.088C213.065 120.863 213.088 120.626 213.183 120.415C213.246 120.276 213.338 120.151 213.454 120.051C219.64 112.623 229.233 122.247 225.147 122.928Z" fill="#501200"/>
<path d="M221.151 124.999C225.465 126.233 226.198 129.721 224.253 129.721C222.699 129.721 224.01 127.994 220.569 126.999C215.778 125.602 214.829 130.128 213.254 128.674C211.631 127.188 216.529 123.642 221.151 124.999Z" fill="#501200"/>
<path d="M198.224 130.321C197.261 129.886 196.178 129.796 195.156 130.065C194.134 130.334 193.236 130.946 192.612 131.799C192.526 131.907 192.42 131.996 192.3 132.063C192.179 132.129 192.047 132.171 191.91 132.187C191.773 132.202 191.635 132.19 191.503 132.152C191.371 132.114 191.247 132.05 191.14 131.964C191.032 131.879 190.943 131.773 190.876 131.652C190.81 131.532 190.768 131.399 190.752 131.263C190.737 131.126 190.749 130.988 190.787 130.855C190.825 130.723 190.889 130.6 190.974 130.492C194.467 126.12 200.622 127.866 199.629 129.851C199.569 129.975 199.484 130.086 199.38 130.176C199.276 130.266 199.155 130.335 199.024 130.377C198.894 130.421 198.756 130.438 198.619 130.429C198.481 130.419 198.347 130.382 198.224 130.321Z" fill="#501200"/>
<path d="M201.849 135.893C200.972 135.937 200.852 135.474 201.765 139.114C201.829 139.382 201.785 139.665 201.643 139.901C201.5 140.138 201.27 140.308 201.003 140.377C200.735 140.444 200.451 140.403 200.213 140.261C199.975 140.12 199.803 139.891 199.734 139.623C198.66 135.324 199.125 135.177 199.506 134.672C200.525 133.311 202.536 134.222 203.332 133.252C205.373 130.769 203.526 128.842 205.241 128.503C207.465 128.042 206.485 132.71 204.948 134.576C204.561 135.011 204.083 135.355 203.547 135.583C203.011 135.811 202.431 135.917 201.849 135.893Z" fill="#501200"/>
<path d="M210.108 152.541C207.637 152.541 203.56 146.606 202.454 144.397C202.382 144.25 202.344 144.088 202.345 143.924C202.346 143.761 202.385 143.599 202.458 143.453C202.534 143.307 202.642 143.181 202.774 143.085C202.906 142.988 203.059 142.923 203.221 142.896C204.404 142.699 210.575 142.14 212.435 143.166C215.687 145.019 212.638 152.541 210.108 152.541ZM211.74 145.616C211.61 144.824 211.233 144.665 208.157 144.665C207.128 144.665 206.018 144.711 205.064 144.789C205.949 146.238 209.417 150.6 210.089 150.428C211.159 149.048 211.74 147.352 211.74 145.605V145.616Z" fill="#501200"/>
<path d="M177.614 82.9349C175.673 85.1986 176.46 86.6792 175.057 86.6792C172.48 86.6792 175.422 81.1381 177.874 80.1874C178.005 80.1091 178.151 80.06 178.303 80.0434C178.455 80.0269 178.608 80.0433 178.753 80.0915C178.898 80.1398 179.03 80.2187 179.142 80.3229C179.253 80.4271 179.341 80.5542 179.399 80.6954C179.456 80.8366 179.483 80.9887 179.477 81.1411C179.47 81.2936 179.431 81.4428 179.362 81.5787C179.292 81.7146 179.194 81.8339 179.075 81.9285C178.955 82.023 178.816 82.0906 178.668 82.1266C178.295 82.3674 177.943 82.6375 177.614 82.9349Z" fill="#501200"/>
<path d="M189.737 5.76159C215.729 -0.476814 243.84 12.0251 246.117 37.0332C246.626 37.0332 250.569 54.1695 239.656 69.1865C230.962 81.1544 218.204 89.2126 200.308 90.6219C179.366 92.2721 158.063 80.633 152.298 54.7998C147.621 33.8418 164.044 11.9267 189.737 5.76159Z" fill="#07828B"/>
<path d="M181.956 36.5935L180.635 68.7468L211.906 57.7358L189.589 56.4144L181.956 36.5935Z" fill="white"/>
<path d="M185.039 32.4825L193.261 52.0081L214.989 53.4782L217.192 17.3587L185.039 32.4825Z" fill="white"/>
<path d="M189.34 4.74595C216.256 -1.87359 244.28 10.4713 247.882 39.364C250.895 63.5365 233.204 84.2202 211.496 89.6377C147.682 105.566 124.079 20.4017 189.34 4.74595ZM246.133 47.9436C244.996 52.8622 242.845 57.4896 239.819 61.5303L239.928 66.8054C243.614 61.1708 245.754 54.6661 246.133 47.9436ZM237.893 69.6514L237.777 64.1166C230.735 72.5538 231.826 67.1908 232.019 76.0531C234.157 74.0921 236.122 71.9503 237.893 69.6514ZM212.219 87.2672C215.205 86.3834 218.102 85.2239 220.874 83.8035L220.614 77.6991C217.835 79.0933 214.938 80.2398 211.957 81.1251L212.219 87.2672ZM222.922 82.6936C225.403 81.2739 227.76 79.648 229.968 77.8331L229.843 71.8355C227.581 73.618 225.181 75.2167 222.664 76.6164L222.922 82.6936ZM210.148 87.82L209.888 81.7198C207.011 82.57 204.062 83.1564 201.08 83.4768L201.331 89.3655C204.304 89.0961 207.25 88.5792 210.137 87.82H210.148ZM199.241 89.4953L198.994 83.6904C196.41 83.883 193.817 83.9061 191.231 83.7616L191.497 89.2335C194.066 89.5216 196.653 89.6064 199.235 89.4869L199.241 89.4953ZM181.558 82.3857L181.674 87.085C184.189 87.9162 186.769 88.5396 189.386 88.9488L189.127 83.6066C186.576 83.3734 184.044 82.9662 181.548 82.3878L181.558 82.3857ZM179.45 81.8392C177.111 81.1647 174.825 80.3199 172.61 79.3116L172.721 83.081C174.905 84.3609 177.193 85.453 179.561 86.3457L179.45 81.8392ZM170.587 81.7345L170.485 78.275C165.896 75.935 161.795 72.7433 158.4 68.8702C161.427 74.0264 165.592 78.4234 170.577 81.7261L170.587 81.7345ZM153.173 54.3852C162.433 88.3331 214.968 90.8607 237.669 60.9126C240.689 57.2378 242.869 52.9472 244.057 48.3411C245.245 43.7351 245.412 38.9251 244.545 34.2479C243.679 29.5707 241.801 25.1395 239.042 21.2646C236.283 17.3897 232.71 14.1648 228.574 11.8157C195.746 -8.19367 144.788 19.4195 153.164 54.3768L153.173 54.3852Z" fill="white"/>
<path d="M330.684 135.109C348.89 138.634 361.223 153.462 358.287 168.144C355.531 190.189 331.122 199.793 312.773 191.929C277.535 179.006 287.874 126.823 330.684 135.109Z" fill="#07828B"/>
<path d="M316.736 152.581L306.458 172.695L329.654 174.752L315.854 167.556L316.736 152.581Z" fill="white"/>
<path d="M319.818 150.747L319.379 165.795L332.886 172.988L344.778 150.747H319.818Z" fill="white"/>
<path d="M330.884 134.375C374.184 142.825 365.062 196.03 326.177 196.024C316.495 195.999 307.189 192.281 300.155 185.629C289.732 175.631 290.122 166.273 291.15 157.986C293.47 139.33 312.946 130.874 330.884 134.375ZM296.222 177.369C296.445 176.869 296.593 176.338 296.662 175.795C296.662 175.795 295.33 174.85 293.211 170.023C293.852 172.605 294.867 175.08 296.222 177.369ZM353.434 150.908C346.854 141.089 334.651 135.684 322.83 135.684C286.989 135.684 280.686 179.461 320.3 187.67C346.919 193.184 366.824 170.888 353.434 150.908ZM306.018 187.691C307.61 183.922 307.958 186.135 303.051 182.324L302.121 184.609C303.345 185.729 304.647 186.759 306.018 187.691ZM312.091 191.011L313.392 187.907C311.886 187.39 310.418 186.772 308.994 186.058L307.819 188.833C309.191 189.651 310.616 190.379 312.083 191.011H312.091ZM342.647 189.323C344.027 186.031 344.553 187.206 338.919 188.849L337.575 192.06C339.3 191.468 340.973 190.731 342.574 189.857C342.548 189.676 342.571 189.492 342.638 189.323H342.647ZM336.377 189.499C329.984 190.898 331.847 188.87 329.728 193.76C331.533 193.583 333.321 193.266 335.077 192.812C335.068 192.508 335.051 192.64 336.369 189.499H336.377ZM352.106 181.497C350.389 183.114 348.481 184.521 346.429 185.685L345.426 188.079C348.009 186.279 350.268 184.053 352.106 181.497ZM327.437 193.911C327.797 192.697 328.283 191.524 328.888 190.412C326.924 190.468 324.96 190.391 323.008 190.175L321.509 193.632C323.475 193.886 325.456 193.98 327.437 193.911ZM319.389 193.297C319.425 193.151 319.402 193.23 320.855 189.886C313.945 188.785 316.039 186.998 314.047 191.758C315.792 192.386 317.576 192.902 319.389 193.297ZM300.507 183.024C301.738 180 301.874 181.93 298.279 177.864L297.625 179.539C298.502 180.767 299.465 181.932 300.507 183.024Z" fill="white"/>
<path d="M401.157 200.005C403.622 180.225 422.873 173.124 439.624 176.366C457.831 179.888 470.163 194.719 467.373 209.401C466.549 214.683 464.391 219.666 461.102 223.881C457.814 228.095 453.504 231.4 448.581 233.483C423.912 243.307 396.697 223.157 401.157 200.005Z" fill="#07828B"/>
<path d="M420.832 185.323L423.475 210.576L438.743 208.813L443.882 194.866L420.832 185.323Z" fill="white"/>
<path d="M425.824 213.365L448.139 220.119L446.231 197.655L441.386 211.748L425.824 213.365Z" fill="white"/>
<path d="M406.399 223.379C395.769 209.939 397.949 189.762 411.672 180.471C435.53 164.321 473.518 183.459 468.559 209.531C464.789 239.661 425.085 246.251 406.734 223.796C406.588 223.689 406.472 223.545 406.399 223.379ZM406.204 219.505C406.058 214.553 406.177 218.904 402.671 211.378C403.41 214.257 404.603 217.001 406.204 219.505ZM412.847 182.205C391.939 196.357 404.089 226.962 434.994 229.35C451.588 230.422 465.087 220.146 466.492 209.204C471.076 185.074 435.323 166.991 412.847 182.205ZM420.704 228.089C420.773 229.333 420.763 230.581 420.672 231.825C422.473 232.635 424.337 233.297 426.245 233.802V230.024C424.354 229.513 422.502 228.866 420.704 228.089ZM414.097 224.464C414.183 225.616 414.167 226.774 414.049 227.924C415.494 229.004 417.016 229.972 418.61 230.816C418.61 225.585 419.571 228.202 414.093 224.464H414.097ZM449.726 232.066C451.147 231.427 452.518 230.682 453.829 229.84L453.745 227.815C448.623 230.319 449.599 228.372 449.726 232.066ZM447.563 230.114C446.022 230.533 444.458 230.86 442.876 231.094L442.987 234.279C444.576 233.941 446.138 233.485 447.659 232.916L447.563 230.114ZM440.791 231.348C439.196 231.5 437.594 231.549 435.993 231.496L436.098 235.056C437.71 235.022 439.319 234.886 440.914 234.65L440.791 231.348ZM461.839 222.041C455.378 228.604 455.709 224.778 455.86 228.401C458.182 226.617 460.201 224.469 461.839 222.041ZM433.987 235.05C433.834 229.815 434.971 231.932 429.133 230.69C428.058 230.46 428.324 229.838 428.324 234.212C430.18 234.7 432.083 234.983 434.002 235.05H433.987ZM411.999 226.255C411.999 221.369 412.74 224.221 408.298 219.553L408.388 222.525C409.489 223.863 410.697 225.111 411.999 226.255Z" fill="white"/>
<path d="M217.778 54.3579C219.112 53.7171 221.211 55.9013 222.897 58.4498C222.643 56.6237 222.478 54.7055 222.184 53.1831C221.504 49.5456 223.158 48.3394 226.002 52.7433C226.67 53.7715 227.286 54.8332 227.845 55.9243C226.907 52.0941 226.312 48.1467 226.882 47.4577C227.747 46.4107 229.966 48.7791 230.406 49.3655C231.573 50.7359 232.646 52.1842 233.616 53.7003C233.015 51.8994 232.532 50.0565 232.167 48.1928C230.492 39.2697 250.531 53.9223 235.398 81.6674L223.506 84.4568C222.154 79.9675 221.318 75.339 221.014 70.6607C219.496 61.9512 215.025 55.6835 217.778 54.3579Z" fill="white"/>
<path d="M217.207 53.2543C217.537 53.1138 217.895 53.0499 218.254 53.0673C218.613 53.0847 218.963 53.183 219.278 53.3549C220.007 53.7596 220.648 54.3056 221.163 54.9611C220.26 49.5038 221.774 48.9991 222.39 48.7938C223.542 48.4127 224.744 49.2483 225.877 50.689C225.395 48.4504 225.42 47.2589 225.929 46.6411C226.105 46.438 226.325 46.2765 226.571 46.1679C226.817 46.0593 227.084 46.0063 227.353 46.0128C228.905 46.0505 230.616 48.0148 230.982 48.4609C230.733 47.4289 230.86 46.342 231.34 45.3951C231.519 45.1223 231.763 44.8987 232.05 44.7446C232.337 44.5906 232.658 44.5111 232.984 44.5134C234.168 44.6006 235.307 45 236.286 45.671C237.265 46.342 238.048 47.2606 238.557 48.3331C242.829 55.093 243.744 68.1352 236.163 82.0318C236.092 82.1608 235.995 82.2735 235.878 82.3629C235.762 82.4524 235.627 82.5165 235.484 82.5512L223.592 85.3406C223.344 85.3979 223.083 85.363 222.858 85.2425C222.634 85.1219 222.46 84.9238 222.371 84.6851C221.192 81.3492 220.455 77.8735 220.176 74.3464C219.804 69.8181 218.755 65.3711 217.065 61.1534C216.342 59.321 214.403 54.5024 217.207 53.2543ZM219.046 60.4267C220.794 64.7972 221.881 69.404 222.271 74.0951C222.521 77.1459 223.114 80.1588 224.038 83.0768L234.559 80.6078C241.455 67.6787 240.575 55.4176 236.8 49.4409C235.644 47.6107 234.287 46.5489 233.116 46.5489H233.087C232.745 47.018 232.71 49.1059 236.289 57.8363C237.231 60.1398 237.428 60.6194 236.534 61.0969C236.209 61.2665 235.575 61.4235 234.909 60.4058C234.488 59.5283 234.113 58.63 233.788 57.7127C232.856 54.8305 231.37 52.1585 229.412 49.8472C228.901 49.1993 228.283 48.6433 227.585 48.2033C228.237 51.8504 229.179 55.4393 230.404 58.9357C232.046 64.1564 232.142 64.4705 231.38 65.0443C231.182 65.1813 230.945 65.252 230.704 65.2464C230.463 65.2407 230.23 65.159 230.038 65.0129C229.211 64.0352 228.712 62.8218 228.614 61.545C228.528 61.1471 228.455 60.7932 228.377 60.5629C226.218 54.0857 223.914 51.3487 223.096 50.8691C222.817 51.6879 222.817 54.7747 225.19 62.2444C225.385 62.7514 225.552 63.2688 225.69 63.7941C225.74 63.9898 225.732 64.1959 225.667 64.3872C225.602 64.5785 225.483 64.7468 225.324 64.8717C225.166 64.9966 224.974 65.0726 224.773 65.0906C224.571 65.1086 224.369 65.0678 224.191 64.9731C223.951 64.8493 223.768 64.6367 223.682 64.3804C223.504 63.8443 223.336 63.3334 223.179 62.8329C222.132 60.0791 219.902 55.9914 218.363 55.2375C218.313 55.2123 218.137 55.1349 218.059 55.1684C218.049 55.1642 217.153 55.7233 219.046 60.4267Z" fill="#501200"/>
</g>
</svg>
