<svg width="120" height="120" viewBox="0 0 120 120" fill="none" xmlns="http://www.w3.org/2000/svg">
<g opacity="0.4">
<path d="M110.76 79.32C117.84 83.4 117.84 90 110.88 94.08L72.84 116.16C65.88 120.24 54.48 120.24 47.4 116.16L9.12001 94.08C2.04001 90 2.04002 83.4 9.00002 79.32L47.04 57.2401C54 53.1601 65.4 53.1601 72.48 57.2401L110.76 79.32Z" fill="#07828B" fill-opacity="0.5"/>
</g>
<path d="M116.16 75.48H3.84009V79.44C3.84009 82.08 5.64008 84.72 9.12008 86.76L47.4001 108.84C54.4801 112.92 65.8801 112.92 72.8401 108.84L110.88 86.76C114.36 84.72 116.16 82.08 116.16 79.44V75.48Z" fill="url(#paint0_linear_22_669)"/>
<path d="M110.76 68.04C117.84 72.12 117.84 78.72 110.88 82.8L72.84 104.88C65.88 108.96 54.48 108.96 47.4 104.88L9.12001 82.8C2.04001 78.72 2.04002 72.12 9.00002 68.04L47.04 45.96C54 41.88 65.4 41.88 72.48 45.96L110.76 68.04Z" fill="#F1FFF4"/>
<path opacity="0.2" d="M101.04 69.4799C106.8 72.7199 106.8 78.1199 101.16 81.3599L70.32 99.2399C64.68 102.48 55.44 102.48 49.68 99.2399L18.84 81.4799C13.08 78.2399 13.08 72.8399 18.72 69.5999L49.56 51.7199C55.2 48.4799 64.44 48.4799 70.2 51.7199L101.04 69.4799Z" stroke="#07828B" stroke-width="0.6" stroke-miterlimit="10"/>
<path d="M97.4402 34.0801H22.4402V74.0401C22.4402 75.8401 23.6402 77.6401 26.0402 78.9601L51.6002 93.7201C56.2802 96.4801 63.9602 96.4801 68.6402 93.7201L94.0802 78.9601C96.3602 77.6401 97.5602 75.8401 97.5602 74.0401V34.0801H97.4402Z" fill="url(#paint1_linear_22_669)"/>
<path d="M93.8401 29.28C98.5201 32.04 98.5201 36.36 93.9601 39.1199L68.5202 53.88C63.8402 56.6399 56.2801 56.6399 51.4801 53.88L25.9202 39.1199C21.2402 36.36 21.2402 32.04 25.9202 29.28L51.3601 14.52C56.0401 11.76 63.6001 11.76 68.2801 14.52L93.8401 29.28Z" fill="#1EABB6"/>
<path d="M59.8801 12.48V13.08C63.0001 13.08 65.8801 13.8 68.0401 15L93.6002 29.76C95.6402 30.96 96.8401 32.52 96.8401 34.2C96.8401 35.88 95.7601 37.44 93.6002 38.52L68.1601 53.28C66.0001 54.6 63.1201 55.2 60.0001 55.2C56.8801 55.2 54.0001 54.48 51.8401 53.28L26.2801 38.52C24.2401 37.32 23.0401 35.76 23.0401 34.08C23.0401 32.4 24.1201 30.84 26.2801 29.64L51.7202 14.88C53.8802 13.56 56.7601 12.96 59.8801 12.96V12.48ZM59.8801 12.48C56.7601 12.48 53.7601 13.2 51.3601 14.52L25.9202 29.28C21.2402 32.04 21.2402 36.36 25.9202 39.12L51.4801 53.88C53.8801 55.2 56.8801 55.92 60.0001 55.92C63.1201 55.92 66.1202 55.2 68.5202 53.88L93.9601 39.12C98.6401 36.36 98.6401 32.04 93.8401 29.28L68.2801 14.52C66.0001 13.2 62.8801 12.48 59.8801 12.48Z" fill="url(#paint2_linear_22_669)"/>
<path d="M59.88 17.8799C62.28 17.8799 64.44 18.3599 66.12 19.4399L85.44 30.5999C87.12 31.5599 87.96 32.7599 87.96 34.0799C87.96 35.3999 87.12 36.5999 85.44 37.5599L66.24 48.7199C64.56 49.6799 62.4 50.2799 60 50.2799C57.6 50.2799 55.44 49.7999 53.76 48.7199L34.44 37.5599C32.76 36.5999 31.92 35.3999 31.92 34.0799C31.92 32.7599 32.76 31.5599 34.44 30.5999L53.64 19.4399C55.32 18.4799 57.48 17.8799 59.88 17.8799ZM59.88 17.6399C57.6 17.6399 55.2 18.1199 53.52 19.1999L34.32 30.3599C30.72 32.3999 30.84 35.7599 34.32 37.7999L53.64 48.9599C55.44 50.0399 57.72 50.5199 60.12 50.5199C62.4 50.5199 64.8 50.0399 66.6 48.9599L85.8 37.7999C89.28 35.7599 89.28 32.3999 85.8 30.3599L66.48 19.1999C64.56 18.2399 62.16 17.6399 59.88 17.6399Z" fill="url(#paint3_linear_22_669)"/>
<path d="M49.9201 59.4C51.7201 60.48 53.16 63 53.16 65.04L53.04 87.24C53.04 89.28 51.6001 90.12 49.8001 89.16L28.56 76.92C26.76 75.84 25.3201 73.32 25.3201 71.28L25.44 49.08C25.44 47.04 26.8801 46.2 28.6801 47.16L49.9201 59.4Z" fill="#F3F8FE"/>
<mask id="mask0_22_669" style="mask-type:luminance" maskUnits="userSpaceOnUse" x="25" y="46" width="29" height="44">
<path d="M49.9201 59.4C51.7201 60.48 53.16 63 53.16 65.04L53.04 87.24C53.04 89.28 51.6001 90.12 49.8001 89.16L28.56 76.92C26.76 75.84 25.3201 73.32 25.3201 71.28L25.44 49.08C25.44 47.04 26.8801 46.2 28.6801 47.16L49.9201 59.4Z" fill="white"/>
</mask>
<g mask="url(#mask0_22_669)">
<path d="M49.9201 59.4C51.7201 60.48 53.16 63 53.16 65.04L53.04 87.24C53.04 89.28 51.6001 90.12 49.8001 89.16L28.56 76.92C26.76 75.84 25.3201 73.32 25.3201 71.28L25.44 49.08C25.44 47.04 26.8801 46.2 28.6801 47.16L49.9201 59.4Z" fill="#F3F8FE"/>
</g>
<path d="M53.0401 87.24L53.1601 65.04C53.1601 63.12 51.9602 60.84 50.2802 59.76L25.9202 73.92C26.5202 75.12 27.4801 76.32 28.5601 76.92L49.8002 89.16C51.6002 90.12 53.0401 89.28 53.0401 87.24Z" fill="url(#paint4_linear_22_669)"/>
<path d="M35.52 51.12L30.36 54.12C29.88 54.36 29.52 55.08 29.52 55.56V67.32C29.52 67.8 29.88 68.04 30.36 67.8L47.4 57.96L35.52 51.12Z" fill="#07828B"/>
<path d="M36.1199 51.48L30.9599 54.48C30.4799 54.72 30.1199 55.44 30.1199 55.92V67.68C30.1199 68.16 30.4799 68.4 30.9599 68.16L47.9999 58.32L36.1199 51.48Z" fill="#C9F4ED"/>
<path d="M33.84 54.2399C34.08 54.1199 34.2 54.2399 34.2 54.4799C34.2 54.7199 34.08 54.9599 33.84 55.0799C33.6 55.1999 33.48 55.0799 33.48 54.8399C33.6 54.7199 33.72 54.3599 33.84 54.2399Z" fill="white"/>
<path opacity="0.8" d="M31.9199 58.3199C31.7999 58.4399 31.6799 58.5599 31.6799 58.6799V66.1199C31.6799 66.2399 31.7999 66.3599 31.9199 66.2399L41.2799 60.8399C41.3999 60.7199 41.5199 60.5999 41.5199 60.4799V54.7199L39.8399 53.7599L31.9199 58.3199Z" fill="white"/>
<path d="M31.5599 55.56C31.7999 55.44 31.92 55.56 31.92 55.8C31.92 56.04 31.7999 56.28 31.5599 56.4C31.3199 56.52 31.2 56.4 31.2 56.16C31.32 56.04 31.4399 55.68 31.5599 55.56Z" fill="white"/>
<path d="M32.7599 54.9599C32.9999 54.8399 33.1199 54.9599 33.1199 55.1999C33.1199 55.4399 32.9999 55.6799 32.7599 55.7999C32.5199 55.9199 32.3999 55.7999 32.3999 55.5599C32.3999 55.3199 32.5199 55.0799 32.7599 54.9599Z" fill="white"/>
<path d="M36.9493 58.5132L33.1093 60.6732H32.9893C32.9893 60.6732 32.9893 60.5532 33.1093 60.5532L36.9493 58.3932H37.0693L36.9493 58.5132Z" fill="#6491FB"/>
<path d="M39.2292 57.1932L37.5492 58.1533H37.4292C37.4292 58.1533 37.4292 58.0332 37.5492 58.0332L39.2292 57.0732H39.3492C39.2292 57.1932 39.2292 57.1932 39.2292 57.1932Z" fill="#FF9999"/>
<path d="M36.9493 59.0651L34.9093 60.2651H34.7893C34.7893 60.2651 34.7893 60.1451 34.9093 60.1451L36.9493 58.9451H37.0693C37.0693 59.0651 36.9493 59.0651 36.9493 59.0651Z" fill="#FF9999"/>
<path d="M34.4293 60.505L33.1093 61.345H32.9893C32.9893 61.345 32.9893 61.225 33.1093 61.225L34.4293 60.385H34.5493C34.5493 60.505 34.5493 60.505 34.4293 60.505Z" fill="#FF9999"/>
<path d="M39.2292 57.865L37.5492 58.825H37.4292C37.4292 58.825 37.4292 58.705 37.5492 58.705L39.2292 57.745H39.3492C39.2292 57.745 39.2292 57.745 39.2292 57.865Z" fill="#A69CFB"/>
<path d="M35.6294 58.1543L33.2294 59.5943H33.1094C33.1094 59.5943 33.1094 59.4743 33.2294 59.4743L35.6294 58.0343H35.7494C35.6294 58.0343 35.6294 58.1543 35.6294 58.1543Z" fill="#6491FB"/>
<path d="M37.0694 57.3143L35.9894 57.9143H35.8694C35.8694 57.9143 35.8694 57.7942 35.9894 57.7942L37.0694 57.1942H37.1894C37.0694 57.1942 37.0694 57.3143 37.0694 57.3143Z" fill="#A69CFB"/>
<path d="M40.0694 55.6344L37.5494 57.0744H37.4294C37.4294 57.0744 37.4294 56.9544 37.5494 56.9544L40.0694 55.5144H40.1894C40.0694 55.5144 40.0694 55.5144 40.0694 55.6344Z" fill="#94F2B5"/>
<path d="M37.5493 61.0619L39.9493 59.6219L40.0693 59.5019C40.0693 59.5019 40.0693 59.3819 39.9493 59.5019L37.5493 60.9419C37.5493 60.9419 37.5493 60.9419 37.5493 61.0619Z" fill="#6491FB"/>
<path d="M36.1095 61.9019L37.1895 61.3019L37.3095 61.1819C37.3095 61.1819 37.3095 61.0619 37.1895 61.1819L36.1095 61.7819C36.1095 61.7819 35.9895 61.7819 36.1095 61.9019Z" fill="#94F2B5"/>
<path d="M33.1094 63.702L35.6294 62.262L35.7494 62.142C35.7494 62.142 35.7494 62.022 35.6294 62.142L33.1094 63.582C33.1094 63.462 33.1094 63.582 33.1094 63.702Z" fill="#FF9999"/>
<path d="M34.6693 59.1925L33.1093 60.1525H32.9893C32.9893 60.1525 32.9893 60.0325 33.1093 60.0325L34.6693 59.0725H34.7893C34.7893 59.1925 34.7893 59.1925 34.6693 59.1925Z" fill="#A69CFB"/>
<path d="M38.0292 57.2724L35.0292 59.0724H34.9092C34.9092 59.0724 34.9092 58.9523 35.0292 58.9523L38.0292 57.1523H38.1492C38.1492 57.2723 38.1492 57.2724 38.0292 57.2724Z" fill="#94F2B5"/>
<path d="M40.3093 56.0724L38.3893 57.1524H38.2693C38.2693 57.1524 38.2693 57.0324 38.3893 57.0324L40.3093 55.9524H40.4293C40.4293 55.9524 40.3093 55.9524 40.3093 56.0724Z" fill="#6491FB"/>
<path d="M38.7491 60.7825L40.3091 59.8225H40.4292C40.4292 59.8225 40.4291 59.9425 40.3091 59.9425L38.7491 60.9025H38.6292C38.6292 60.9025 38.6291 60.7825 38.7491 60.7825Z" fill="#94F2B5"/>
<path d="M35.3893 62.7023L38.3893 60.9023H38.5093C38.5093 60.9023 38.5093 61.0224 38.3893 61.0224L35.3893 62.8224H35.2693C35.2693 62.8224 35.2693 62.8223 35.3893 62.7023Z" fill="#FFC99C"/>
<path d="M33.1093 64.0224L35.0293 62.9424H35.1493C35.1493 62.9424 35.1493 63.0624 35.0293 63.0624L33.1093 64.1424H32.9893C33.1093 64.1424 33.1093 64.0224 33.1093 64.0224Z" fill="#A69CFB"/>
<path d="M36.9493 60.8448L33.1093 63.0048H32.9893C32.9893 63.0048 32.9893 62.8848 33.1093 62.8848L36.9493 60.7249H37.0693L36.9493 60.8448Z" fill="#FFC99C"/>
<path d="M39.2292 59.5247L37.5492 60.4847H37.4292C37.4292 60.4847 37.4292 60.3646 37.5492 60.3646L39.2292 59.4047H39.3492C39.2292 59.4047 39.2292 59.5247 39.2292 59.5247Z" fill="#FF9999"/>
<path d="M34.6693 61.5239L33.1093 62.484H32.9893C32.9893 62.484 32.9893 62.3639 33.1093 62.3639L34.6693 61.4039H34.7893C34.7893 61.5239 34.7893 61.5239 34.6693 61.5239Z" fill="#94F2B5"/>
<path d="M38.0292 59.6041L35.0292 61.4041H34.9092C34.9092 61.4041 34.9092 61.2841 35.0292 61.2841L38.0292 59.4841H38.1492C38.1492 59.6041 38.1492 59.6041 38.0292 59.6041Z" fill="#6491FB"/>
<path d="M40.3093 58.284L38.3893 59.3639H38.2693C38.2693 59.3639 38.2693 59.244 38.3893 59.244L40.3093 58.1639H40.4293C40.4293 58.2839 40.3093 58.284 40.3093 58.284Z" fill="#94F2B5"/>
<path d="M34.4293 61.1676L33.1093 61.8875H32.9893C32.9893 61.8875 32.9893 61.7676 33.1093 61.7676L34.4293 61.0476H34.5493C34.4293 61.0476 34.4293 61.1676 34.4293 61.1676Z" fill="#A69CFB"/>
<path d="M37.1893 59.6076L34.6693 61.0476H34.5493C34.5493 61.0476 34.5493 60.9276 34.6693 60.9276L37.1893 59.4875H37.3093C37.3093 59.4875 37.1893 59.4876 37.1893 59.6076Z" fill="#FF9999"/>
<path d="M39.9493 57.9276L37.4293 59.3676H37.3093C37.3093 59.3676 37.3093 59.2476 37.4293 59.2476L39.9493 57.8076H40.0693C40.0693 57.8076 40.0693 57.9276 39.9493 57.9276Z" fill="#FFC99C"/>
<mask id="mask1_22_669" style="mask-type:luminance" maskUnits="userSpaceOnUse" x="25" y="46" width="29" height="44">
<path d="M49.9201 59.4C51.7201 60.48 53.16 63 53.16 65.04L53.04 87.24C53.04 89.28 51.6001 90.12 49.8001 89.16L28.56 76.92C26.76 75.84 25.3201 73.32 25.3201 71.28L25.44 49.08C25.44 47.04 26.8801 46.2 28.6801 47.16L49.9201 59.4Z" fill="white"/>
</mask>
<g mask="url(#mask1_22_669)">
<path d="M27.1202 47.2801C27.4802 47.2801 27.8402 47.4001 28.3202 47.6401L49.5602 59.8801C51.1202 60.8401 52.5602 63.1201 52.5602 65.0401L52.4402 87.2401C52.4402 87.6001 52.3202 88.9201 51.2402 88.9201C50.8802 88.9201 50.5202 88.8 50.0402 88.56L28.8002 76.3201C27.2402 75.3601 25.8002 73.08 25.8002 71.16L25.9202 48.96C25.9202 48.6 26.0402 47.2801 27.1202 47.2801ZM27.1202 46.6801C26.0402 46.6801 25.3202 47.52 25.3202 48.96L25.2002 71.16C25.2002 73.2 26.6402 75.7201 28.4402 76.8001L49.6802 89.0401C50.1602 89.4001 50.7602 89.5201 51.1202 89.5201C52.2002 89.5201 52.9202 88.6801 52.9202 87.2401L53.0402 65.0401C53.0402 63.0001 51.6002 60.4801 49.8002 59.4001L28.5602 47.16C28.0802 46.8 27.6002 46.6801 27.1202 46.6801Z" fill="url(#paint5_linear_22_669)"/>
</g>
<path d="M55.4399 61.3201L51.7199 63.4801L47.5199 61.0801L46.6799 61.5601L50.8799 63.9601V65.8801C50.8799 66.0001 50.8799 66.2401 50.8799 66.3601C50.8799 66.4801 50.7599 66.6001 50.7599 66.7201C50.7599 66.8401 50.6399 66.8401 50.6399 66.9601C50.5199 67.0801 50.3999 67.2001 50.2799 67.3201L51.1199 66.8401C51.2399 66.7201 51.3599 66.6001 51.4799 66.4801C51.4799 66.4801 51.4799 66.3601 51.5999 66.3601V66.2401V66.1201V66.0001V65.8801V65.7601V65.6401V65.5201V64.5601L55.3199 62.4001L55.4399 61.3201Z" fill="#1964BA"/>
<path d="M30.12 46.68L25.44 49.32L21.24 46.92L25.8 44.16L30.12 46.68Z" fill="#07828B"/>
<path d="M55.4398 61.32L50.8798 63.96L46.5598 61.56L51.2398 58.8L55.4398 61.32Z" fill="#07828B"/>
<path d="M47.0399 56.4L42.3599 59.04L38.1599 56.64L42.7199 54L47.0399 56.4Z" fill="#07828B"/>
<path d="M51.2399 58.8L46.5599 61.56L42.3599 59.04L47.0399 56.4L51.2399 58.8Z" fill="#A6FCDF"/>
<path d="M42.72 54L38.16 56.64L33.96 54.24L38.52 51.48L42.72 54Z" fill="#A6FCDF"/>
<path d="M38.52 51.4801L33.96 54.2401L29.76 51.7201L34.32 49.0801L38.52 51.4801Z" fill="#07828B"/>
<path d="M34.32 49.0801L29.7599 51.72L25.4399 49.3201L30.12 46.6801L34.32 49.0801Z" fill="#A6FCDF"/>
<path d="M29.7599 51.7201V53.6401C29.7599 54.9601 28.8 55.5601 27.6 54.8401C26.4 54.1201 25.4399 52.5601 25.4399 51.2401V49.3201L29.7599 51.7201Z" fill="#A6FCDF"/>
<path d="M25.4401 49.3202V51.2402C25.4401 52.5602 24.4801 53.1602 23.2801 52.4402C22.0801 51.7202 21.1201 50.1602 21.1201 48.8402V46.9202L25.4401 49.3202Z" fill="#07828B"/>
<path d="M42.36 59.16V61.08C42.36 62.4 41.4001 63 40.2001 62.28C39.0001 61.56 38.04 60 38.04 58.68V56.76L42.36 59.16Z" fill="#07828B"/>
<path d="M38.1601 56.6401V58.5601C38.1601 59.8801 37.2001 60.4801 36.0001 59.7601C34.8001 59.0401 33.8401 57.4801 33.8401 56.1601V54.2401L38.1601 56.6401Z" fill="#A6FCDF"/>
<path d="M33.9601 54.2401V56.1601C33.9601 57.4801 33.0002 58.0801 31.8002 57.3601C30.6002 56.6401 29.6401 55.0801 29.6401 53.7601V51.8401L33.9601 54.2401Z" fill="#07828B"/>
<path d="M46.56 61.56V63.48C46.56 64.8 45.6 65.4 44.4 64.68C43.2 63.96 42.24 62.4 42.24 61.08V59.16L46.56 61.56Z" fill="#A6FCDF"/>
<path d="M50.8798 63.9601V65.8801C50.8798 67.2001 49.9198 67.8001 48.7198 67.0801C47.5198 66.3601 46.5598 64.8001 46.5598 63.4801V61.5601L50.8798 63.9601Z" fill="#07828B"/>
<path d="M83.28 33.6V34.56C83.28 34.8 83.4 34.92 83.64 35.16C84.12 35.52 84.96 35.52 85.56 35.16C85.8 35.04 85.92 34.8 85.92 34.56V33.6H83.28Z" fill="url(#paint6_linear_22_669)"/>
<path d="M85.9785 33.6316C85.9796 33.2339 85.3895 32.9099 84.6605 32.9078C83.9315 32.9058 83.3396 33.2265 83.3385 33.6241C83.3373 34.0218 83.9274 34.3458 84.6564 34.3479C85.3854 34.3499 85.9773 34.0292 85.9785 33.6316Z" fill="#07828B"/>
<path d="M85.4985 33.6305C85.4993 33.3654 85.1238 33.1494 84.6599 33.1481C84.196 33.1468 83.8193 33.3606 83.8185 33.6257C83.8177 33.8908 84.1932 34.1068 84.6572 34.1081C85.1211 34.1094 85.4978 33.8956 85.4985 33.6305Z" fill="#0CFFFC"/>
<path d="M79.4399 35.8799V36.8399C79.4399 37.0799 79.56 37.1999 79.8 37.4399C80.28 37.7999 81.12 37.7999 81.72 37.4399C81.96 37.3199 82.08 37.0799 82.08 36.8399V35.8799H79.4399Z" fill="url(#paint7_linear_22_669)"/>
<path d="M82.0573 35.8341C82.0585 35.4365 81.4684 35.1124 80.7394 35.1104C80.0104 35.1083 79.4185 35.429 79.4173 35.8266C79.4162 36.2243 80.0063 36.5483 80.7353 36.5504C81.4643 36.5524 82.0562 36.2318 82.0573 35.8341Z" fill="#07828B"/>
<path d="M81.5773 35.833C81.5781 35.5679 81.2026 35.3519 80.7387 35.3506C80.2748 35.3493 79.8981 35.5631 79.8974 35.8282C79.8966 36.0933 80.2721 36.3093 80.736 36.3106C81.1999 36.3119 81.5766 36.0981 81.5773 35.833Z" fill="#FFE200"/>
<path d="M79.32 17.0401C79.68 17.2801 80.04 17.7601 80.04 18.2401V30.12C80.04 30.6 79.68 30.7201 79.32 30.4801L63.48 21.36C63.12 21.12 62.76 20.64 62.76 20.16V8.28005C62.76 7.80005 63.12 7.68005 63.48 7.92005L79.32 17.0401Z" fill="#F3F8FE"/>
<path d="M80.88 17.64C80.88 17.52 80.88 17.52 80.88 17.52C80.88 17.52 80.88 17.52 80.88 17.4C80.88 17.4 80.88 17.4 80.88 17.28C80.88 17.28 80.88 17.16 80.76 17.16C80.76 17.16 80.76 17.04 80.64 17.04C80.64 17.04 80.64 17.04 80.64 16.92L64.8 7.80005L63.96 8.28004C64.08 8.28004 64.08 8.28004 64.2 8.28004C64.32 8.28004 64.32 8.28005 64.44 8.40005L80.28 17.52C80.4 17.52 80.52 17.64 80.52 17.76C80.52 17.76 80.64 17.88 80.64 18L80.76 18.12C80.76 18.24 80.88 18.36 80.88 18.48C80.88 18.6 80.88 18.72 80.88 18.84V30.72C80.88 30.84 80.88 30.96 80.88 30.96C80.88 31.08 80.76 31.08 80.76 31.08L81.6 30.6L81.72 30.48L80.88 17.64C80.88 17.76 80.88 17.76 80.88 17.64Z" fill="url(#paint8_linear_22_669)"/>
<g opacity="0.35">
<path d="M66.96 12.1199C66.6 11.8799 66.24 12.1199 66.24 12.5999V19.1999C66.24 19.6799 66.6 20.2799 66.96 20.5199C67.32 20.7599 67.68 20.5199 67.68 20.0399V13.4399C67.68 12.8399 67.32 12.3599 66.96 12.1199Z" fill="#07828B"/>
<path d="M70.44 17.1598L70.08 16.9198C69.72 16.6798 69.48 16.9199 69.48 17.2799V21.1198C69.48 21.4798 69.72 21.9599 70.08 22.0799L70.44 22.3198C70.8 22.5598 71.04 22.3198 71.04 21.9598V18.1198C71.04 17.7598 70.8 17.3998 70.44 17.1598Z" fill="#07828B"/>
<path d="M73.6799 17.64L73.5599 17.5199C73.1999 17.2799 72.9598 17.52 72.8398 17.88V23.04C72.8398 23.52 73.0798 24 73.4398 24.24L73.5599 24.3599C73.9199 24.5999 74.1599 24.36 74.2799 24V18.84C74.3999 18.36 74.0399 17.76 73.6799 17.64Z" fill="#07828B"/>
<path d="M77.1599 22.08L76.6799 21.84C76.4399 21.72 76.2 21.84 76.2 22.08V25.08C76.2 25.44 76.4399 25.8 76.6799 25.92L77.1599 26.16C77.3999 26.28 77.6399 26.16 77.6399 25.92V22.92C77.6399 22.68 77.3999 22.32 77.1599 22.08Z" fill="#07828B"/>
</g>
<path d="M66 12.6C65.64 12.36 65.28 12.6 65.28 13.08V19.68C65.28 20.16 65.64 20.76 66 21C66.36 21.24 66.72 21 66.72 20.52V13.92C66.84 13.44 66.48 12.84 66 12.6Z" fill="#07828B"/>
<path d="M69.48 17.7599L69.12 17.5199C68.76 17.2799 68.52 17.52 68.52 17.88V21.7199C68.52 22.0799 68.76 22.56 69.12 22.68L69.48 22.9199C69.84 23.1599 70.08 22.9199 70.08 22.5599V18.7199C70.08 18.3599 69.84 17.8799 69.48 17.7599Z" fill="#07828B"/>
<path d="M72.7199 18.1199L72.5999 17.9999C72.2399 17.7599 71.9999 17.9999 71.8799 18.3599V23.5199C71.8799 23.9999 72.1199 24.4799 72.4799 24.7199L72.5999 24.8399C72.9599 25.0799 73.1999 24.8399 73.3199 24.4799V19.3199C73.4399 18.8399 73.0799 18.3599 72.7199 18.1199Z" fill="#07828B"/>
<path d="M76.2 22.68L75.72 22.44C75.48 22.32 75.24 22.44 75.24 22.68V25.68C75.24 26.04 75.48 26.4 75.72 26.52L76.2 26.76C76.44 26.88 76.68 26.76 76.68 26.52V23.52C76.8 23.28 76.56 22.8 76.2 22.68Z" fill="#07828B"/>
<path d="M91.9201 52.5599C92.1601 52.4399 92.5201 52.4399 92.6401 52.4399C92.8801 52.5599 93.0001 52.7999 93.0001 53.1599V67.4399C93.0001 68.0399 92.5201 68.8799 91.9201 69.2399L71.1601 81.2399C70.5601 81.5999 70.0801 81.3599 70.0801 80.6399V66.3599C70.0801 65.7599 70.5601 64.9199 71.1601 64.5599L91.9201 52.5599Z" fill="#07666D"/>
<path d="M92.7601 53.0399C93.3601 52.6799 93.8401 52.9199 93.8401 53.6399V67.9199C93.8401 68.5199 93.3601 69.3599 92.7601 69.7199L72.0002 81.7199C71.4002 82.0799 70.9202 81.8399 70.9202 81.1199V66.8399C70.9202 66.2399 71.4002 65.3999 72.0002 65.0399L92.7601 53.0399Z" fill="#07828B"/>
<path opacity="0.3" d="M91.9201 59.6399C91.9201 60.9599 91.2001 62.3999 90.2401 62.9999C89.2801 63.5999 88.5601 62.9999 88.5601 61.6799C88.5601 60.3599 89.2801 58.9199 90.2401 58.3199C91.2001 57.7199 91.9201 58.3199 91.9201 59.6399ZM91.3201 59.9999C91.3201 59.1599 90.8401 58.7999 90.2401 59.1599C89.6401 59.5199 89.1601 60.4799 89.1601 61.3199C89.1601 62.1599 89.6401 62.5199 90.2401 62.1599C90.8401 61.6799 91.3201 60.7199 91.3201 59.9999Z" fill="#67B6DE"/>
<path opacity="0.3" d="M91.9201 65.2798C91.9201 66.5998 91.2001 68.0398 90.2401 68.6398C89.2801 69.2398 88.5601 68.6398 88.5601 67.3198C88.5601 65.9998 89.2801 64.5598 90.2401 63.9598C91.2001 63.3598 91.9201 63.9598 91.9201 65.2798ZM91.3201 65.6398C91.3201 64.7998 90.8401 64.4398 90.2401 64.7998C89.6401 65.1598 89.1601 66.1198 89.1601 66.9598C89.1601 67.7998 89.6401 68.1598 90.2401 67.7998C90.8401 67.3198 91.3201 66.4798 91.3201 65.6398Z" fill="#67B6DE"/>
<path opacity="0.8" d="M91.9201 65.28C91.9201 66.6 91.0801 68.04 90.2401 68.52C89.2801 69.12 88.5601 68.52 88.5601 67.2C88.5601 65.88 89.2801 64.44 90.2401 63.84V64.68C89.6401 65.04 89.1601 66 89.1601 66.84C89.1601 67.68 89.6401 68.04 90.2401 67.68C90.8401 67.32 91.3201 66.36 91.3201 65.64L91.9201 65.28Z" fill="white"/>
<path d="M89.1601 61.1998C89.1601 62.0398 89.6401 62.3998 90.2401 62.0398V62.8798C89.2801 63.4798 88.5601 62.8798 88.5601 61.5598C88.5601 60.2398 89.2801 58.7998 90.2401 58.1998V59.0398C89.6401 59.5198 89.1601 60.3598 89.1601 61.1998Z" fill="url(#paint9_linear_22_669)"/>
<path d="M75.96 75.5999L77.16 68.3999C77.4 67.1999 78.48 66.5999 78.72 67.5599C79.08 68.9999 80.52 68.8799 81.48 67.1999L82.32 65.7599C82.56 65.2799 83.04 65.1599 83.16 65.3999L85.92 69.8399L75.96 75.5999Z" fill="url(#paint10_linear_22_669)"/>
<path opacity="0.8" d="M86.76 69.36L74.28 76.56L75.24 73.08C75.6 72 76.56 71.28 76.92 72L77.16 72.48C77.4 72.96 78 72.48 78.24 71.88L79.92 66.24C80.28 65.16 81.24 64.56 81.6 65.28L82.8 67.68C83.04 68.16 83.64 67.8 83.88 67.2C84.24 66.12 85.2 65.64 85.56 66.48L86.76 69.36Z" fill="white"/>
<defs>
<linearGradient id="paint0_linear_22_669" x1="3.76125" y1="93.6901" x2="116.126" y2="93.6901" gradientUnits="userSpaceOnUse">
<stop stop-color="#92F1D0"/>
<stop offset="1" stop-color="white"/>
</linearGradient>
<linearGradient id="paint1_linear_22_669" x1="22.4677" y1="64.9747" x2="97.4196" y2="64.9747" gradientUnits="userSpaceOnUse">
<stop offset="0.3375" stop-color="#82DAE1"/>
<stop offset="0.5932" stop-color="#E8FFFC"/>
</linearGradient>
<linearGradient id="paint2_linear_22_669" x1="97.132" y1="37.559" x2="22.7554" y2="30.8073" gradientUnits="userSpaceOnUse">
<stop stop-color="white"/>
<stop offset="1" stop-color="#C9F4DF"/>
</linearGradient>
<linearGradient id="paint3_linear_22_669" x1="88.1088" y1="36.691" x2="31.7781" y2="31.5775" gradientUnits="userSpaceOnUse">
<stop stop-color="white"/>
<stop offset="1" stop-color="#C9D9F4"/>
</linearGradient>
<linearGradient id="paint4_linear_22_669" x1="49.9547" y1="58.4434" x2="35.5548" y2="89.4457" gradientUnits="userSpaceOnUse">
<stop stop-color="#97E1DA"/>
<stop offset="1" stop-color="#E8FEFF"/>
</linearGradient>
<linearGradient id="paint5_linear_22_669" x1="51.6706" y1="60.9271" x2="26.7464" y2="75.317" gradientUnits="userSpaceOnUse">
<stop stop-color="white"/>
<stop offset="1" stop-color="white" stop-opacity="0.2"/>
</linearGradient>
<linearGradient id="paint6_linear_22_669" x1="83.3119" y1="34.4602" x2="85.9757" y2="34.4602" gradientUnits="userSpaceOnUse">
<stop stop-color="#0E4F54"/>
<stop offset="0.6426" stop-color="#4ACAD3"/>
</linearGradient>
<linearGradient id="paint7_linear_22_669" x1="79.3924" y1="36.7422" x2="82.0562" y2="36.7422" gradientUnits="userSpaceOnUse">
<stop stop-color="#0E5054"/>
<stop offset="0.6426" stop-color="#4ACAD4"/>
</linearGradient>
<linearGradient id="paint8_linear_22_669" x1="61.8928" y1="23.0357" x2="80.4434" y2="15.3275" gradientUnits="userSpaceOnUse">
<stop stop-color="#04474C"/>
<stop offset="0.6426" stop-color="#07828B"/>
</linearGradient>
<linearGradient id="paint9_linear_22_669" x1="87.2086" y1="64.4792" x2="90.0886" y2="60.5828" gradientUnits="userSpaceOnUse">
<stop stop-color="#FF8000"/>
<stop offset="1" stop-color="#FFD000"/>
</linearGradient>
<linearGradient id="paint10_linear_22_669" x1="73.679" y1="80.2539" x2="82.8837" y2="66.9268" gradientUnits="userSpaceOnUse">
<stop stop-color="#FF8000"/>
<stop offset="1" stop-color="#FFD000"/>
</linearGradient>
</defs>
</svg>
