<svg width="120" height="120" viewBox="0 0 120 120" fill="none" xmlns="http://www.w3.org/2000/svg">
<g opacity="0.4">
<path d="M110.88 79.3197C117.96 83.3997 117.96 89.9997 111 94.0797L72.96 116.16C66 120.24 54.6 120.24 47.52 116.16L9.23999 94.0797C2.15999 89.9997 2.15998 83.3997 9.11998 79.3197L47.16 57.2397C54.12 53.1597 65.52 53.1597 72.6 57.2397L110.88 79.3197Z" fill="#000909"/>
</g>
<path d="M116.16 75.48H3.83997V79.44C3.83997 82.08 5.63996 84.72 9.11996 86.76L47.4 108.84C54.48 112.92 65.88 112.92 72.84 108.84L110.88 86.76C114.36 84.72 116.16 82.08 116.16 79.44V75.48Z" fill="url(#paint0_linear_46_5421)"/>
<path d="M111.085 68.14C118.165 72.22 118.165 78.82 111.205 82.9L73.165 104.98C66.2051 109.06 54.805 109.06 47.725 104.98L9.32504 82.9C2.24504 78.82 2.24503 72.22 9.20503 68.14L47.245 46.06C54.205 41.98 65.6051 41.98 72.6851 46.06L111.085 68.14Z" fill="#152C2D"/>
<path d="M107.4 64.1997H12.6V74.8797C12.6 77.1597 14.16 79.4397 17.04 81.1197L49.32 99.8397C55.32 103.32 64.92 103.32 70.8 99.8397L102.96 81.1197C105.96 79.4397 107.4 77.1597 107.4 74.8797V64.1997Z" fill="url(#paint1_linear_46_5421)"/>
<path d="M102.96 57.9599C108.96 61.4399 108.96 66.9599 103.08 70.4399L70.92 89.1599C65.04 92.6399 55.44 92.6399 49.44 89.1599L17.16 70.4399C11.16 66.9599 11.16 61.4399 17.04 57.9599L49.2 39.2399C55.08 35.7599 64.68 35.7599 70.68 39.2399L102.96 57.9599Z" fill="#1EABB6"/>
<path d="M59.88 37.3197C63.84 37.3197 67.56 38.1597 70.32 39.8397L102.6 58.5597C105.24 60.1197 106.8 62.1597 106.8 64.3197C106.8 66.4797 105.36 68.3997 102.72 69.9597L70.56 88.6797C67.8 90.2397 64.08 91.1997 60.12 91.1997C56.16 91.1997 52.44 90.3597 49.68 88.6797L17.4 69.9597C14.76 68.3997 13.2 66.3597 13.2 64.1997C13.2 62.0397 14.64 60.1197 17.28 58.5597L49.44 39.8397C52.2 38.2797 55.92 37.3197 59.88 37.3197ZM59.88 36.7197C56.04 36.7197 52.08 37.5597 49.2 39.2397L17.04 57.9597C11.16 61.4397 11.16 66.9597 17.16 70.4397L49.44 89.1597C52.44 90.8397 56.28 91.6797 60.24 91.6797C64.2 91.6797 68.04 90.8397 70.92 89.1597L103.08 70.4397C108.96 66.9597 108.96 61.4397 102.96 57.9597L70.68 39.2397C67.68 37.5597 63.72 36.7197 59.88 36.7197Z" fill="url(#paint2_linear_46_5421)"/>
<path d="M41.04 87.8398C41.64 88.1998 42 88.9198 42 89.6398V91.4398C42 92.0398 41.52 92.3998 40.92 92.0398L21.6 80.8798C21 80.5198 20.64 79.7998 20.64 79.0798V77.2798C20.64 76.6798 21.12 76.3198 21.72 76.6798L41.04 87.8398Z" fill="#0CFFFC"/>
<path d="M42 91.4399L22.6801 80.2799C22.0801 79.9199 21.7201 79.1999 21.7201 78.4799V76.6799C21.2401 76.4399 20.7601 76.6799 20.7601 77.2799V79.0799C20.7601 79.6799 21.2401 80.5199 21.7201 80.8799L41.0401 92.0399C41.6401 92.3999 42.1201 92.1599 42 91.4399Z" fill="#1964BA"/>
<path d="M94.44 59.1598C99.24 61.9198 99.24 66.3598 94.56 69.1198L68.76 84.1198C63.96 86.8798 56.2801 86.8798 51.4801 84.1198L25.5601 69.1198C20.7601 66.3598 20.7601 61.9198 25.5601 59.1598L51.3601 44.1598C56.0401 41.3998 63.84 41.3998 68.52 44.1598L94.44 59.1598Z" stroke="white" stroke-opacity="0.1" stroke-width="0.3" stroke-miterlimit="10"/>
<path d="M91.92 59.52C96.36 62.04 96.36 66.24 91.92 68.76L68.04 82.68C63.6 85.2 56.52 85.2 52.08 82.68L28.08 68.76C23.64 66.24 23.64 62.04 28.08 59.52L51.96 45.6C56.4 43.08 63.48 43.08 67.92 45.6L91.92 59.52Z" stroke="white" stroke-opacity="0.1" stroke-width="0.3" stroke-miterlimit="10"/>
<path d="M89.4 59.8799C93.48 62.2799 93.48 65.9999 89.4 68.3999L67.44 81.1199C63.36 83.5199 56.76 83.5199 52.8 81.1199L30.72 68.3999C26.64 65.9999 26.64 62.2799 30.72 59.8799L52.6801 47.1599C56.7601 44.7599 63.24 44.7599 67.32 47.1599L89.4 59.8799Z" stroke="white" stroke-opacity="0.1" stroke-width="0.3" stroke-miterlimit="10"/>
<path d="M86.88 60.24C90.6 62.4 90.6 65.88 86.88 68.04L66.84 79.68C63.12 81.84 57.12 81.84 53.4 79.68L33.24 68.04C29.52 65.88 29.52 62.4 33.24 60.24L53.28 48.6C57 46.44 63 46.44 66.72 48.6L86.88 60.24Z" stroke="white" stroke-opacity="0.1" stroke-width="0.3" stroke-miterlimit="10"/>
<path d="M84.36 60.6001C87.72 62.5201 87.72 65.6401 84.36 67.6801L66.12 78.2401C62.76 80.1601 57.36 80.1601 54 78.2401L35.64 67.6801C32.28 65.7601 32.28 62.6401 35.64 60.6001L53.88 50.0401C57.24 48.1201 62.64 48.1201 66 50.0401L84.36 60.6001Z" stroke="white" stroke-opacity="0.1" stroke-width="0.3" stroke-miterlimit="10"/>
<path d="M96.84 80.9996L96 80.5196C95.88 80.3996 95.7601 80.1596 95.7601 79.9196C95.7601 79.3196 96.24 78.5996 96.72 78.2396C96.96 78.1196 97.2 78.1196 97.44 78.1196L98.2801 78.5996L96.84 80.9996Z" fill="url(#paint3_linear_46_5421)"/>
<path d="M98.1114 80.1642C98.4741 79.5318 98.4885 78.8589 98.1435 78.661C97.7986 78.4632 97.225 78.8155 96.8623 79.4478C96.4996 80.0801 96.4852 80.7531 96.8301 80.951C97.1751 81.1488 97.7487 80.7965 98.1114 80.1642Z" fill="#2185F8"/>
<path d="M97.9032 80.0444C98.134 79.642 98.1347 79.2089 97.9047 79.077C97.6748 78.9451 97.3013 79.1644 97.0705 79.5668C96.8397 79.9692 96.839 80.4023 97.0689 80.5342C97.2989 80.6661 97.6724 80.4468 97.9032 80.0444Z" fill="#0CFFFC"/>
<path d="M92.88 83.2794L92.04 82.7994C91.92 82.6794 91.8 82.4394 91.8 82.1994C91.8 81.5994 92.28 80.8794 92.76 80.5194C93 80.3994 93.24 80.3994 93.48 80.3994L94.32 80.8794L92.88 83.2794Z" fill="url(#paint4_linear_46_5421)"/>
<path d="M94.1867 82.4513C94.5494 81.819 94.5638 81.146 94.2189 80.9482C93.8739 80.7503 93.3003 81.1026 92.9376 81.7349C92.5749 82.3673 92.5606 83.0403 92.9055 83.2381C93.2504 83.4359 93.824 83.0837 94.1867 82.4513Z" fill="#2185F8"/>
<path d="M93.9784 82.331C94.2092 81.9286 94.2099 81.4955 93.98 81.3636C93.75 81.2317 93.3765 81.451 93.1457 81.8534C92.9149 82.2558 92.9143 82.6889 93.1442 82.8208C93.3741 82.9527 93.7476 82.7334 93.9784 82.331Z" fill="#FFE200"/>
<path d="M42.12 89.6401C42.12 89.0401 41.64 88.2001 41.16 87.8401L21.84 76.6801C21.6 76.5601 21.36 76.5601 21.24 76.5601L17.16 77.6401C16.92 77.7601 16.8 78.0001 16.8 78.3601V81.0001C16.8 81.7201 17.28 82.6801 18 83.0401L39.24 96.0001C39.72 96.2401 40.2 96.0001 40.32 95.7601C41.28 94.5601 41.88 92.0401 41.88 92.0401C41.88 92.0401 42.12 91.9201 42.12 91.4401V89.6401Z" fill="url(#paint5_linear_46_5421)"/>
<path opacity="0.2" d="M85.32 57.9601C85.32 57.9601 85.32 57.8401 85.44 57.8401C85.56 57.7201 85.56 57.6001 85.56 57.4801C85.56 57.3601 85.56 57.3601 85.68 57.2401C85.68 57.1201 85.68 57.0001 85.68 56.8801C85.68 56.7601 85.68 56.7601 85.68 56.6401C85.68 56.5201 85.68 56.4001 85.68 56.2801C85.56 55.5601 85.08 54.9601 84.48 54.6001L74.16 48.6001C72.84 47.8801 71.16 47.8801 69.84 48.6001L36.84 67.4401C36.24 67.8001 35.76 68.4001 35.64 69.1201C35.64 69.2401 35.64 69.3601 35.64 69.4801C35.64 69.6001 35.64 69.6001 35.64 69.7201C35.64 69.8401 35.64 69.9601 35.64 70.0801C35.64 70.2001 35.64 70.2001 35.76 70.3201C35.76 70.4401 35.88 70.5601 35.88 70.6801C35.88 70.6801 35.88 70.8001 36 70.8001C36.12 70.9201 36.24 71.1601 36.36 71.2801C36.36 71.2801 36.36 71.2801 36.48 71.4001C36.6 71.5201 36.84 71.6401 36.96 71.7601L47.28 77.7601C47.4 77.8801 47.64 77.8801 47.76 78.0001C48.6 78.3601 49.56 78.4801 50.52 78.1201C50.88 78.0001 51.24 77.8801 51.6 77.6401L84.36 58.8001C84.48 58.6801 84.72 58.5601 84.84 58.4401C84.84 58.4401 84.96 58.4401 84.96 58.3201C85.08 58.2001 85.2 58.0801 85.32 57.9601Z" fill="#00357C" fill-opacity="0.4"/>
<path d="M69.1199 37.0797L35.5199 56.3997C34.3199 57.1197 33.8399 58.6797 34.5599 59.8797C34.7999 60.2397 35.1599 60.5997 35.5199 60.8397L46.08 66.9597C47.4 67.7997 49.0799 67.7997 50.5199 66.9597L84.1199 47.6397C85.3199 46.9197 85.7999 45.3597 85.08 44.1597C84.84 43.7997 84.4799 43.4397 84.1199 43.1997L73.5599 37.0797C72.1199 36.2397 70.4399 36.2397 69.1199 37.0797Z" fill="#E9EDFC"/>
<path d="M66.48 39.1199L40.56 53.9999C39.6 54.5999 39.36 55.7999 39.84 56.6399C39.96 56.8799 40.2 57.2399 40.56 57.3599L41.76 58.0799C42.84 58.6799 44.16 58.6799 45.12 58.0799L71.04 43.1999C72 42.5999 72.24 41.3999 71.76 40.5599C71.64 40.3199 71.28 39.9599 71.04 39.8399L69.84 39.1199C68.88 38.5199 67.56 38.5199 66.48 39.1199Z" fill="#D3DBF9"/>
<path d="M84.1199 46.5599L50.5199 65.8799C49.1999 66.7199 47.52 66.7199 46.08 65.8799L35.5199 59.7599C34.9199 59.3999 34.4399 58.7999 34.3199 58.0799C34.0799 59.1599 34.5599 60.2399 35.5199 60.8399L46.08 66.9599C47.4 67.7999 49.0799 67.7999 50.5199 66.9599L84.1199 47.6399C85.0799 47.0399 85.5599 45.9599 85.3199 44.8799C85.0799 45.5999 84.7199 46.1999 84.1199 46.5599Z" fill="url(#paint6_linear_46_5421)"/>
<path d="M38.64 23.9999L70.68 5.5199C71.64 4.9199 72.84 5.2799 73.44 6.2399C73.56 6.5999 73.68 6.8399 73.68 7.1999V37.5599C73.68 38.5199 73.2 39.4799 72.24 39.9599L40.2 58.4399C39.24 59.0399 38.04 58.6799 37.44 57.7199C37.32 57.3599 37.2 57.1199 37.2 56.7599V26.3999C37.2 25.3199 37.68 24.4799 38.64 23.9999Z" fill="#00357C" fill-opacity="0.4"/>
<path d="M38.64 23.9997L70.68 5.51974C71.52 5.03974 72.6 5.27974 73.2 5.99974C72.72 5.87974 72.12 5.87974 71.64 6.11974L39.48 24.5997C38.64 25.0797 38.04 26.0397 38.04 26.9997V57.3597C38.04 57.8397 38.16 58.3197 38.52 58.6797C37.68 58.4398 37.08 57.5997 37.08 56.7597V26.3997C37.2 25.3197 37.68 24.4797 38.64 23.9997Z" fill="#07828B"/>
<g opacity="0.9">
<path d="M47.0399 38.8801C47.2799 38.7601 47.5199 38.8801 47.5199 39.1201V45.3601C47.5199 45.7201 47.2799 46.0801 47.0399 46.3201L42.5999 48.9601C42.3599 49.0801 42.1199 48.9601 42.1199 48.6001V42.3601C42.1199 42.0001 42.3599 41.6401 42.5999 41.4001L47.0399 38.8801Z" fill="white"/>
</g>
<path d="M47.52 46.4399V46.9199L44.64 48.5999V48.1199L47.52 46.4399Z" fill="#FFE200"/>
<path d="M47.52 47.2803V47.7603L42 51.0003V50.5203L47.52 47.2803Z" fill="url(#paint7_linear_46_5421)"/>
<path d="M54.84 34.32C55.08 34.2 55.32 34.32 55.32 34.56V40.8C55.32 41.16 55.08 41.52 54.84 41.76L50.3999 44.4C50.1599 44.52 49.92 44.4 49.92 44.04V37.8C49.92 37.44 50.1599 37.08 50.3999 36.84L54.84 34.32Z" fill="url(#paint8_linear_46_5421)"/>
<g opacity="0.9">
<path d="M55.44 42.7197V43.1997L49.92 46.4397V45.9597L55.44 42.7197Z" fill="white"/>
</g>
<g opacity="0.9">
<path d="M55.44 41.8799V42.3599L52.56 44.0399V43.5599L55.44 41.8799Z" fill="white"/>
</g>
<path d="M63.36 37.3198V37.7998L60.36 39.4798V38.9998L63.36 37.3198Z" fill="#FFE200"/>
<g opacity="0.9">
<path d="M62.76 29.76C63 29.64 63.24 29.76 63.24 30V36.24C63.24 36.6 63 36.96 62.76 37.2L58.32 39.84C58.08 39.96 57.84 39.84 57.84 39.48V33.24C57.84 32.88 58.08 32.52 58.32 32.28L62.76 29.76Z" fill="white"/>
</g>
<path d="M63.36 38.1602V38.6402L57.84 41.8802V41.4002L63.36 38.1602Z" fill="url(#paint9_linear_46_5421)"/>
<path d="M70.68 25.1999C70.92 25.0799 71.16 25.1999 71.16 25.4399V31.6799C71.16 32.0399 70.92 32.3999 70.68 32.6399L66.24 35.2799C66 35.3999 65.76 35.2799 65.76 34.9199V28.6799C65.76 28.3199 66 27.9599 66.24 27.7199L70.68 25.1999Z" fill="url(#paint10_linear_46_5421)"/>
<g opacity="0.9">
<path d="M71.28 32.7598V33.2398L68.28 34.9198V34.4398L71.28 32.7598Z" fill="white"/>
<path d="M71.28 33.5996V34.0796L65.76 37.3196V36.8396L71.28 33.5996Z" fill="white"/>
</g>
<g opacity="0.8">
<path d="M70.9199 13.7997C71.0399 13.6797 71.1599 13.7997 71.1599 13.9197V14.5197C71.1599 14.6397 71.0399 14.8797 70.9199 14.9997L53.0399 25.3197C52.9199 25.4397 52.7999 25.3197 52.7999 25.1997V24.5997C52.7999 24.4797 52.9199 24.2397 53.0399 24.1197L70.9199 13.7997Z" fill="white"/>
<path d="M59.6399 25.7998L59.88 25.9198V26.6398L59.6399 26.9998L52.9199 30.8398L52.7999 30.7198V29.9998L52.9199 29.6398L59.6399 25.7998Z" fill="white"/>
<path d="M59.6399 23.6396H59.88V24.4796L59.6399 24.7196L52.9199 28.6796L52.7999 28.5596V27.7196L52.9199 27.4796L59.6399 23.6396Z" fill="white"/>
</g>
<path d="M45.48 27.7197C46.56 27.1197 47.4 27.5997 47.4 28.7997C47.4 29.7597 46.92 30.8397 46.2 31.5597C47.4 31.0797 48.48 31.5597 48.96 32.5197C48.36 33.8397 47.4 35.0397 46.32 35.9997C46.32 35.9997 46.2 35.9997 46.2 36.1197C46.2 36.1197 46.2 36.1197 46.08 36.2397L45.96 36.3597C45.84 36.3597 45.84 36.4797 45.72 36.4797C45.6 36.4797 45.6 36.5997 45.48 36.5997C45.36 36.5997 45.36 36.7197 45.24 36.7197C45.12 36.7197 45.12 36.8397 45 36.8397C45 36.8397 44.88 36.8397 44.88 36.9597H44.76C44.76 36.9597 44.76 36.9597 44.64 36.9597C43.56 37.3197 42.6 37.1997 42 36.5997C42.48 35.0397 43.44 33.3597 44.76 32.3997C44.04 32.5197 43.56 32.0397 43.56 31.0797C43.56 29.7597 44.4 28.3197 45.48 27.7197Z" fill="white"/>
<path d="M45.48 26.3997C47.88 24.9597 49.9199 26.1597 49.9199 28.9197C49.9199 31.4397 48.3599 34.3197 46.3199 35.9997C47.3999 35.1597 48.36 33.9597 48.96 32.5197C48.48 31.4397 47.3999 31.0797 46.1999 31.5597C46.9199 30.8397 47.3999 29.7597 47.3999 28.7997C47.3999 27.5997 46.56 27.1197 45.48 27.7197C44.4 28.3197 43.56 29.7597 43.56 30.9597C43.56 31.9197 44.04 32.3997 44.76 32.2797C43.44 33.2397 42.4799 34.9197 41.9999 36.4797C42.5999 37.0797 43.5599 37.1997 44.6399 36.8397C42.5999 37.5597 41.0399 36.4797 41.0399 33.9597C41.0399 31.1997 42.96 27.8397 45.48 26.3997Z" fill="#7AB6FB"/>
<path opacity="0.2" d="M94.8 36.84L74.28 24.96V25.68L94.44 37.32C96.72 38.64 97.92 40.32 97.92 42.12C97.92 43.92 96.72 45.6 94.56 46.92L68.64 62.04C63.96 64.8 56.28 64.8 51.6 62.04L25.44 46.92C23.16 45.6 21.96 43.92 21.96 42.12C21.96 40.32 23.16 38.64 25.44 37.32L36.84 30.72V30L25.2 36.72C22.8 38.16 21.48 39.96 21.48 42C21.48 44.04 22.8 45.96 25.2 47.28L51.36 62.4C53.76 63.84 57 64.56 60.24 64.56C63.48 64.56 66.6 63.84 69.12 62.4L95.04 47.28C97.44 45.84 98.76 44.04 98.76 42C98.52 40.2 97.2 38.28 94.8 36.84Z" fill="#10D4E3"/>
<defs>
<linearGradient id="paint0_linear_46_5421" x1="3.76113" y1="93.6901" x2="116.126" y2="93.6901" gradientUnits="userSpaceOnUse">
<stop stop-color="#437262"/>
<stop offset="1" stop-color="#1E3F3D"/>
</linearGradient>
<linearGradient id="paint1_linear_46_5421" x1="12.6347" y1="83.3493" x2="107.223" y2="83.3493" gradientUnits="userSpaceOnUse">
<stop offset="0.3375" stop-color="#82DAE1"/>
<stop offset="0.5932" stop-color="#E8FFFC"/>
</linearGradient>
<linearGradient id="paint2_linear_46_5421" x1="107.087" y1="68.4341" x2="12.9834" y2="59.8917" gradientUnits="userSpaceOnUse">
<stop stop-color="white"/>
<stop offset="1" stop-color="#C9D9F4"/>
</linearGradient>
<linearGradient id="paint3_linear_46_5421" x1="96.0964" y1="80.5531" x2="97.4283" y2="78.2463" gradientUnits="userSpaceOnUse">
<stop stop-color="#103DB5"/>
<stop offset="0.6426" stop-color="#6BABFD"/>
</linearGradient>
<linearGradient id="paint4_linear_46_5421" x1="92.1604" y1="82.8061" x2="93.4922" y2="80.4993" gradientUnits="userSpaceOnUse">
<stop stop-color="#103DB5"/>
<stop offset="0.6426" stop-color="#6BABFD"/>
</linearGradient>
<linearGradient id="paint5_linear_46_5421" x1="31.574" y1="82.6748" x2="27.8614" y2="87.8836" gradientUnits="userSpaceOnUse">
<stop stop-color="#0CFFFC" stop-opacity="0.6"/>
<stop offset="1" stop-color="white" stop-opacity="0"/>
</linearGradient>
<linearGradient id="paint6_linear_46_5421" x1="-398.087" y1="56.1834" x2="-346.887" y2="56.1834" gradientUnits="userSpaceOnUse">
<stop stop-color="#92A6F1"/>
<stop offset="1" stop-color="white"/>
</linearGradient>
<linearGradient id="paint7_linear_46_5421" x1="42.0152" y1="49.1394" x2="47.5488" y2="49.1394" gradientUnits="userSpaceOnUse">
<stop stop-color="#FF8000"/>
<stop offset="1" stop-color="#FFD000"/>
</linearGradient>
<linearGradient id="paint8_linear_46_5421" x1="49.8912" y1="39.2745" x2="55.4409" y2="39.2745" gradientUnits="userSpaceOnUse">
<stop stop-color="#FF8000"/>
<stop offset="1" stop-color="#FFD000"/>
</linearGradient>
<linearGradient id="paint9_linear_46_5421" x1="57.8134" y1="40.0155" x2="63.3564" y2="40.0155" gradientUnits="userSpaceOnUse">
<stop stop-color="#FF8000"/>
<stop offset="1" stop-color="#FFD000"/>
</linearGradient>
<linearGradient id="paint10_linear_46_5421" x1="65.6988" y1="30.1501" x2="71.2486" y2="30.1501" gradientUnits="userSpaceOnUse">
<stop stop-color="#FF8000"/>
<stop offset="1" stop-color="#FFD000"/>
</linearGradient>
</defs>
</svg>
