<svg width="14" height="14" viewBox="0 0 14 14" fill="none" xmlns="http://www.w3.org/2000/svg">
<g id="file-eye-02">
<path id="Icon" d="M6.29999 12.6H2.79999C2.02679 12.6 1.39999 11.9732 1.39999 11.2L1.40005 2.80002C1.40005 2.02682 2.02685 1.40002 2.80005 1.40002H9.1002C9.8734 1.40002 10.5002 2.02683 10.5002 2.80002V5.60002M10.15 10.1203V10.0834M3.85021 4.20002H8.05021M3.85021 6.30002H8.05021M3.85021 8.40002H5.95021M12.6 10.15C12.6 10.15 12.0189 11.8648 10.15 11.8349C8.28108 11.8049 7.69999 10.15 7.69999 10.15C7.69999 10.15 8.25753 8.40526 10.15 8.40526C12.0425 8.40526 12.6 10.15 12.6 10.15Z" stroke="#A5A8AC" stroke-width="1.16667" stroke-linecap="round" stroke-linejoin="round"/>
</g>
</svg>
