<svg width="6" height="9" viewBox="0 0 6 9" fill="none" xmlns="http://www.w3.org/2000/svg">
<path fill-rule="evenodd" clip-rule="evenodd" d="M1.30805 1.2376C1.18847 1.24731 1.15629 1.07667 1.27119 1.04216L4.7005 0.0121052C4.76467 -0.00716873 4.82927 0.0408779 4.82927 0.107878V0.859536C4.82927 0.911627 4.78928 0.954993 4.73736 0.959208L1.30805 1.2376ZM4.5 3.16241C4.5 3.11899 4.47198 3.08053 4.43066 3.06722L0.130657 1.68228C0.0660944 1.66148 0 1.70963 0 1.77746V7.40267C0 7.44529 0.0270101 7.48323 0.0672821 7.49717L4.36728 8.98599C4.43224 9.00848 4.5 8.96023 4.5 8.89149V3.16241ZM6 1.74019C6 1.68497 5.95523 1.64019 5.9 1.64019H2.64431C2.52091 1.64019 2.50698 1.81999 2.62891 1.839L5.22028 2.24298C5.26897 2.25058 5.30488 2.29251 5.30488 2.34179V7.44634C5.30488 7.50157 5.34965 7.54634 5.40488 7.54634H5.9C5.95523 7.54634 6 7.50157 6 7.44634V1.74019ZM1.89323 3.50759C1.82749 3.48096 1.75568 3.52934 1.75568 3.60028V4.2541C1.75568 4.29483 1.78038 4.33149 1.81813 4.34678L2.42301 4.59186C2.48875 4.61849 2.56056 4.57011 2.56056 4.49917V3.84535C2.56056 3.80462 2.53586 3.76796 2.49811 3.75267L1.89323 3.50759ZM1.75568 5.23708C1.75568 5.16451 1.83056 5.1161 1.89673 5.14589L2.50161 5.4182C2.53749 5.43435 2.56056 5.47004 2.56056 5.50938V7.25296C2.56056 7.3239 2.48875 7.37228 2.42301 7.34564L1.81813 7.10057C1.78038 7.08527 1.75568 7.04862 1.75568 7.00789V5.23708Z" fill="#9E9E9D"/>
</svg>
