<svg width="28" height="29" viewBox="0 0 28 29" fill="none" xmlns="http://www.w3.org/2000/svg">
<circle cx="14" cy="14.2969" r="14" fill="#FFD30F"/>
<rect x="7.41162" y="10.1797" width="9.88235" height="4.11765" fill="#F5F5F3"/>
<path fill-rule="evenodd" clip-rule="evenodd" d="M7.58283 7.70801C6.57868 7.70801 5.76465 8.52203 5.76465 9.52619V17.8684C5.76465 18.6176 6.61989 19.0452 7.21919 18.5957L8.27445 17.8043C8.58917 17.5682 8.97196 17.4406 9.36536 17.4406H17.4224C18.4265 17.4406 19.2406 16.6266 19.2406 15.6224V9.52619C19.2406 8.52204 18.4265 7.70801 17.4224 7.70801H7.58283ZM8.7593 13.323C9.17277 13.323 9.50796 12.9878 9.50796 12.5743C9.50796 12.1608 9.17277 11.8257 8.7593 11.8257C8.34582 11.8257 8.01064 12.1608 8.01064 12.5743C8.01064 12.9878 8.34582 13.323 8.7593 13.323ZM13.2513 12.5743C13.2513 12.9878 12.9161 13.323 12.5026 13.323C12.0891 13.323 11.754 12.9878 11.754 12.5743C11.754 12.1608 12.0891 11.8257 12.5026 11.8257C12.9161 11.8257 13.2513 12.1608 13.2513 12.5743ZM16.2459 13.323C16.6594 13.323 16.9946 12.9878 16.9946 12.5743C16.9946 12.1608 16.6594 11.8257 16.2459 11.8257C15.8325 11.8257 15.4973 12.1608 15.4973 12.5743C15.4973 12.9878 15.8325 13.323 16.2459 13.323Z" fill="#202323"/>
<path fill-rule="evenodd" clip-rule="evenodd" d="M8.89697 18.5637C9.16998 19.223 9.81959 19.6867 10.5775 19.6867H18.6346C19.028 19.6867 19.4107 19.8143 19.7255 20.0504L20.7807 20.8418C21.38 21.2913 22.2353 20.8637 22.2353 20.1145V11.7723C22.2353 10.7681 21.4212 9.9541 20.4171 9.9541H20.226C20.3147 10.1683 20.3636 10.4031 20.3636 10.6493V16.7455C20.3636 17.7497 19.5496 18.5637 18.5454 18.5637H8.89697Z" fill="#202323"/>
</svg>
