<svg width="96" height="17" viewBox="0 0 96 17" fill="none" xmlns="http://www.w3.org/2000/svg">
<path d="M14.3095 10.256C14.023 10.4311 13.6887 10.4629 13.434 10.3196C13.1157 10.1286 12.9247 9.69883 12.9247 9.10986V7.31113C12.9247 6.45156 12.5904 5.83076 12.0173 5.67158C11.0463 5.38506 10.3141 6.57891 10.0435 7.02461L8.32436 9.77842V6.38789C8.30845 5.60791 8.05376 5.14629 7.57622 5.00303C7.25786 4.90752 6.78032 4.95528 6.3187 5.65567L2.48247 11.8C1.9731 10.829 1.70249 9.74658 1.70249 8.64824C1.70249 4.93936 4.67915 1.93086 8.32436 1.93086C11.9696 1.93086 14.9462 4.93936 14.9462 8.64824V8.66416V8.68008C14.9781 9.39639 14.7552 9.96943 14.3095 10.256ZM16.4107 8.64824V8.63232V8.61641C16.3948 4.11162 12.7655 0.43457 8.32436 0.43457C3.86733 0.43457 0.238037 4.11162 0.238037 8.64824C0.238037 13.1689 3.86733 16.8619 8.32436 16.8619C10.3778 16.8619 12.3198 16.0819 13.8161 14.6652C14.1185 14.3787 14.1344 13.9171 13.8479 13.6147C13.5773 13.3122 13.1157 13.2963 12.8132 13.5669C12.8132 13.5669 12.8132 13.5669 12.7973 13.5828C11.5875 14.7289 9.96392 15.3815 8.29253 15.3815C6.33462 15.3815 4.58364 14.522 3.37388 13.153L6.82808 7.61357V10.1764C6.82808 11.4021 7.30561 11.8 7.70356 11.9114C8.10151 12.0229 8.7064 11.9433 9.35903 10.9086L11.2533 7.83643C11.3169 7.74092 11.3647 7.64541 11.4284 7.58174V9.1417C11.4284 10.2878 11.89 11.211 12.6859 11.6567C13.4022 12.0706 14.3095 12.0229 15.0577 11.5612C15.9809 10.9563 16.4744 9.90576 16.4107 8.64824ZM27.6806 5.84668C27.8716 5.95811 28.0467 6.22871 28.0467 6.46748C28.0467 6.84951 27.7284 7.16787 27.3623 7.16787C27.2667 7.16787 27.1872 7.13603 27.1076 7.12012C26.6778 6.80176 26.1366 6.59483 25.5635 6.59483C24.2105 6.59483 23.2873 7.69317 23.2873 9.06211C23.2873 10.4311 24.2264 11.5135 25.5635 11.5135C26.2321 11.5135 26.837 11.2429 27.2827 10.8131C27.3941 10.7335 27.5374 10.6857 27.6806 10.6857C28.0467 10.6857 28.3333 10.9723 28.3333 11.3384C28.3333 11.5771 28.19 11.7841 28.0149 11.8955C27.3623 12.4526 26.4868 12.8188 25.5794 12.8188C23.5101 12.8188 21.8228 11.1155 21.8228 9.01435C21.8228 6.91318 23.5101 5.20996 25.5794 5.20996C26.3435 5.19404 27.0757 5.43281 27.6806 5.84668ZM31.4691 7.43848C32.8858 7.43848 34.0637 8.63233 34.0637 10.1127C34.0637 11.5772 32.8699 12.8347 31.4691 12.8347C29.9887 12.8347 28.763 11.5931 28.763 10.1127C28.763 8.63233 29.9887 7.43848 31.4691 7.43848ZM31.4532 11.5135C32.074 11.5135 32.5993 10.9245 32.5993 10.1286C32.5993 9.33271 32.074 8.82334 31.4532 8.82334C30.7846 8.82334 30.2275 9.3168 30.2275 10.1286C30.2275 10.9086 30.7846 11.5135 31.4532 11.5135ZM34.9551 12.0069V8.25029C34.9551 7.83643 35.2735 7.50215 35.6874 7.50215C36.0853 7.50215 36.4196 7.83643 36.4196 8.25029V12.0069C36.4196 12.4208 36.0853 12.7551 35.6874 12.7551C35.2894 12.7551 34.9551 12.4049 34.9551 12.0069ZM34.8437 6.08545C34.8437 5.59199 35.2257 5.20996 35.6874 5.20996C36.1649 5.20996 36.5469 5.60791 36.5469 6.08545C36.5469 6.56299 36.1649 6.94502 35.6874 6.94502C35.2098 6.9291 34.8437 6.54707 34.8437 6.08545ZM39.2211 9.96943V12.0069C39.2211 12.4208 38.8869 12.7551 38.4889 12.7551C38.091 12.7551 37.7567 12.4208 37.7567 12.0069V8.0752C37.7567 7.75684 38.0114 7.50215 38.3297 7.50215C38.6481 7.50215 38.8869 7.77275 38.8869 8.0752C39.4758 7.51807 40.0011 7.43848 40.4946 7.43848C41.959 7.43848 42.6117 8.53682 42.6117 9.79434V12.0069C42.6117 12.4208 42.2774 12.7551 41.8794 12.7551C41.4815 12.7551 41.1472 12.4208 41.1472 12.0069V9.96943C41.1472 9.33271 41.0676 8.7915 40.1444 8.7915C39.4917 8.7915 39.2211 9.33271 39.2211 9.96943ZM47.3552 10.7494C47.1801 10.7494 47.0687 10.6698 46.9732 10.5584L45.27 8.71191V12.0069C45.27 12.4208 44.9357 12.7551 44.5377 12.7551C44.1398 12.7551 43.8055 12.4208 43.8055 12.0069V5.48057C43.8533 5.36914 43.9647 5.28955 44.0761 5.28955C44.2035 5.28955 44.3149 5.40098 44.3945 5.48057L47.1165 8.53682C47.196 8.63232 47.2916 8.68008 47.3552 8.68008C47.403 8.68008 47.5144 8.63232 47.594 8.53682L50.316 5.48057C50.3956 5.40098 50.4911 5.28955 50.6343 5.28955C50.7617 5.28955 50.8731 5.36914 50.9049 5.48057V12.0069C50.9049 12.4208 50.5866 12.7551 50.1727 12.7551C49.7748 12.7551 49.4405 12.4208 49.4405 12.0069V8.71191L47.7373 10.5584C47.6099 10.6698 47.4985 10.7494 47.3552 10.7494ZM54.391 11.5135C55.0436 11.5135 55.6007 10.9245 55.6007 10.1286C55.6007 9.33271 55.0277 8.80742 54.391 8.80742C53.7542 8.80742 53.229 9.34863 53.229 10.1286C53.229 10.8927 53.7383 11.5135 54.391 11.5135ZM55.9509 12.182L55.9191 12.0069C55.6326 12.5641 54.7252 12.8188 54.1522 12.8188C52.7832 12.8188 51.7645 11.5772 51.7645 10.0968C51.7645 8.63233 52.7992 7.42256 54.2318 7.42256C54.4706 7.42256 55.2983 7.48623 55.935 8.23438L55.9668 8.05928C55.9668 7.74092 56.2056 7.48623 56.524 7.48623C56.8423 7.48623 57.097 7.75683 57.097 8.05928V12.1661C57.097 12.4845 56.8423 12.7392 56.524 12.7392C56.1897 12.7551 55.9509 12.4845 55.9509 12.182ZM61.1243 8.7915H60.9651C60.0418 8.83926 59.8667 9.36455 59.8667 9.96943V12.0069C59.8667 12.4208 59.5325 12.7551 59.1345 12.7551C58.7366 12.7551 58.4023 12.4208 58.4023 12.0069V8.0752C58.4023 7.75684 58.657 7.50215 58.9753 7.50215C59.2937 7.50215 59.5325 7.77275 59.5325 8.0752C60.0737 7.56582 60.5194 7.45439 60.9651 7.43848H61.1083C61.4585 7.43848 61.7769 7.74092 61.7769 8.12295C61.7928 8.47315 61.4745 8.7915 61.1243 8.7915ZM66.7751 11.6567C66.8388 11.7682 66.8866 11.8796 66.8866 12.0069C66.8866 12.389 66.5364 12.7392 66.1543 12.7392C65.8997 12.7392 65.6768 12.5481 65.5017 12.3253L63.8144 10.3674V11.991C63.8144 12.4049 63.4801 12.7392 63.0822 12.7392C62.6842 12.7392 62.3499 12.4049 62.3499 11.991V6.02178C62.3499 5.60791 62.6683 5.27363 63.0822 5.27363C63.496 5.27363 63.8144 5.60791 63.8144 6.02178V9.74658L65.5017 7.88418C65.6768 7.69317 65.8837 7.48623 66.1384 7.48623C66.5045 7.48623 66.8388 7.82051 66.8388 8.20254C66.8388 8.31397 66.807 8.44131 66.7433 8.53682L65.4062 10.0013L66.7751 11.6567ZM69.6404 8.80742C69.2424 8.80742 68.5898 9.01436 68.5898 9.63516H70.7069C70.691 9.01436 70.0224 8.80742 69.6404 8.80742ZM71.5505 10.5743H68.5898C68.5898 11.4498 69.4334 11.5931 69.7996 11.5931C70.0702 11.5931 70.4522 11.5453 70.7546 11.4021C70.8501 11.3384 70.9934 11.2906 71.1367 11.2906C71.455 11.2906 71.7256 11.5612 71.7256 11.8955C71.7256 12.1184 71.5824 12.3094 71.4073 12.4208C70.9616 12.7551 70.3726 12.8347 69.8155 12.8347C68.3351 12.8347 67.1094 12.0388 67.1094 10.1764C67.1094 8.71192 67.8576 7.43848 69.6085 7.43848C71.0252 7.43848 72.0917 8.36172 72.1236 10.0013C72.1236 10.3037 71.8689 10.5743 71.5505 10.5743ZM75.6255 12.8188H75.2276C74.1133 12.8188 73.4607 12.3253 73.4607 10.5902V8.7915H73.0787C72.7285 8.7915 72.426 8.47315 72.426 8.12295C72.426 7.74092 72.7444 7.43848 73.0787 7.43848H73.4607V6.05362C73.4607 5.63975 73.7791 5.30547 74.1929 5.30547C74.5909 5.30547 74.9251 5.63975 74.9251 6.05362V7.43848H75.53C75.8802 7.43848 76.1827 7.74092 76.1827 8.12295C76.1827 8.47315 75.8643 8.7915 75.53 8.7915H74.9251V10.3037C74.9251 11.3065 74.9729 11.5135 75.4186 11.5135H75.6255C75.9757 11.5135 76.2782 11.8 76.2782 12.1661C76.2782 12.5163 75.9757 12.8188 75.6255 12.8188ZM82.709 5.84668C82.9 5.95811 83.0751 6.22871 83.0751 6.46748C83.0751 6.84951 82.7568 7.16787 82.3907 7.16787C82.2952 7.16787 82.2156 7.13603 82.136 7.12012C81.7062 6.80176 81.165 6.59483 80.5919 6.59483C79.2389 6.59483 78.3157 7.69317 78.3157 9.06211C78.3157 10.4311 79.2548 11.5135 80.5919 11.5135C81.2605 11.5135 81.8654 11.2429 82.3111 10.8131C82.4225 10.7335 82.5658 10.6857 82.709 10.6857C83.0751 10.6857 83.3617 10.9723 83.3617 11.3384C83.3617 11.5771 83.2184 11.7841 83.0433 11.8955C82.3907 12.4526 81.5152 12.8188 80.6079 12.8188C78.5385 12.8188 76.8512 11.1155 76.8512 9.01435C76.8512 6.91318 78.5385 5.20996 80.6079 5.20996C81.3719 5.19404 82.1201 5.43281 82.709 5.84668ZM86.4179 11.5135C87.0705 11.5135 87.6277 10.9245 87.6277 10.1286C87.6277 9.33271 87.0546 8.80742 86.4179 8.80742C85.7653 8.80742 85.2559 9.34863 85.2559 10.1286C85.2559 10.8927 85.7812 11.5135 86.4179 11.5135ZM87.9779 12.182L87.946 12.0069C87.6595 12.5641 86.7522 12.8188 86.1791 12.8188C84.8102 12.8188 83.7915 11.5772 83.7915 10.0968C83.7915 8.63233 84.8261 7.42256 86.2587 7.42256C86.4975 7.42256 87.3252 7.48623 87.962 8.23438L87.9938 8.05928C87.9938 7.74092 88.2326 7.48623 88.5509 7.48623C88.8693 7.48623 89.124 7.75683 89.124 8.05928V12.1661C89.124 12.4845 88.8693 12.7392 88.5509 12.7392C88.2167 12.7551 87.9779 12.4845 87.9779 12.182ZM93.1194 11.5135C93.772 11.5135 94.2814 10.8927 94.2814 10.1286C94.2814 9.33271 93.7561 8.80742 93.1194 8.80742C92.4668 8.80742 91.9096 9.33271 91.9096 10.1286C91.9096 10.9245 92.4668 11.5135 93.1194 11.5135ZM91.9096 12.389V14.2514C91.9096 14.6652 91.5753 14.9995 91.1774 14.9995C90.7794 14.9995 90.4452 14.6652 90.4452 14.2514V8.0752C90.4452 7.75684 90.6999 7.50215 91.0182 7.50215C91.3366 7.50215 91.5753 7.77275 91.5753 8.13887C92.1166 7.58174 92.7851 7.43848 93.2945 7.43848C94.7112 7.43848 95.7618 8.63233 95.7618 10.1127C95.7618 11.5772 94.7589 12.8347 93.3741 12.8347C92.9443 12.8187 92.3076 12.6914 91.9096 12.389Z" fill="#737473"/>
</svg>
