<svg width="28" height="29" viewBox="0 0 28 29" fill="none" xmlns="http://www.w3.org/2000/svg">
<circle cx="14" cy="14.2969" r="14" fill="#F5F5F3"/>
<path fill-rule="evenodd" clip-rule="evenodd" d="M0 14.2969C0 6.56563 6.26875 0.296875 14 0.296875C21.7313 0.296875 28 6.56563 28 14.2969C28 22.0281 21.7313 28.2969 14 28.2969C6.26875 28.2969 0 22.0281 0 14.2969ZM21.875 16.5469C21.875 16.0938 21.8 15.6531 21.6562 15.2313C22.4469 14.8813 23 14.0906 23.0031 13.175C23.0031 11.9313 21.9969 10.925 20.7531 10.925C19.9062 10.925 19.1719 11.3906 18.7875 12.0813C17.6313 11.45 16.2219 11.0406 14.6875 10.9469L16.0312 7.93125L18.6 8.67188C18.8313 9.32812 19.4562 9.8 20.1906 9.8C21.1219 9.8 21.8781 9.04375 21.8781 8.1125C21.8781 7.18125 21.1219 6.425 20.1906 6.425C19.5469 6.425 18.9875 6.78438 18.7031 7.3125L15.8406 6.48438C15.5188 6.39062 15.1781 6.54687 15.0438 6.85312L13.2188 10.95C11.7219 11.0531 10.3469 11.4594 9.21562 12.0781C8.83125 11.3875 8.09688 10.9219 7.25 10.9219C6.00625 10.9219 5 11.9281 5 13.1719C5 14.0938 5.55312 14.8813 6.34375 15.2313C6.2 15.6531 6.125 16.0938 6.125 16.5469C6.125 19.6531 9.65 22.1719 14 22.1719C18.35 22.1719 21.875 19.6531 21.875 16.5469ZM20.7514 12.047C20.3045 12.047 19.9139 12.3095 19.7358 12.6908C20.3233 13.1377 20.8108 13.6502 21.1701 14.2158C21.5826 14.0502 21.8764 13.6439 21.8764 13.172C21.8764 12.5502 21.3733 12.047 20.7514 12.047ZM16.2486 15.4219C16.2486 15.7202 16.3671 16.0064 16.5781 16.2174C16.7891 16.4283 17.0753 16.5469 17.3736 16.5469C17.672 16.5469 17.9581 16.4283 18.1691 16.2174C18.3801 16.0064 18.4986 15.7202 18.4986 15.4219C18.4986 15.1235 18.3801 14.8374 18.1691 14.6264C17.9581 14.4154 17.672 14.2969 17.3736 14.2969C17.0753 14.2969 16.7891 14.4154 16.5781 14.6264C16.3671 14.8374 16.2486 15.1235 16.2486 15.4219ZM16.3031 17.8252C15.8375 18.1908 14.9187 18.5845 14 18.5845C13.0813 18.5845 12.1594 18.1908 11.6969 17.8252C11.4062 17.597 10.9875 17.647 10.7594 17.9377C10.5312 18.2283 10.5813 18.647 10.8719 18.8752C11.675 19.5127 12.9031 19.922 14 19.922C15.0969 19.922 16.325 19.5127 17.1313 18.8752C17.4219 18.647 17.4719 18.2252 17.2437 17.9377C17.0156 17.647 16.5938 17.597 16.3031 17.8252ZM7.25 12.047C6.62813 12.047 6.125 12.5502 6.125 13.172C6.125 13.6439 6.41875 14.0502 6.83125 14.2158C7.19063 13.6502 7.67812 13.1377 8.26562 12.6908C8.0875 12.3095 7.69688 12.047 7.25 12.047ZM9.82905 16.2174C9.61807 16.0064 9.49954 15.7202 9.49954 15.4219C9.49954 15.1235 9.61807 14.8374 9.82905 14.6264C10.04 14.4154 10.3262 14.2969 10.6245 14.2969C10.9229 14.2969 11.2091 14.4154 11.42 14.6264C11.631 14.8374 11.7495 15.1235 11.7495 15.4219C11.7495 15.7202 11.631 16.0064 11.42 16.2174C11.2091 16.4283 10.9229 16.5469 10.6245 16.5469C10.3262 16.5469 10.04 16.4283 9.82905 16.2174Z" fill="#F14923"/>
</svg>
