<svg width="41" height="40" viewBox="0 0 41 40" fill="none" xmlns="http://www.w3.org/2000/svg">
<g id="twitter" clip-path="url(#clip0_1635_9571)">
<path id="Vector" d="M0.800781 20C0.800781 25.3043 2.90586 30.3914 6.65293 34.1421C10.4 37.8929 15.4821 40 20.7813 40C26.0804 40 31.1625 37.8929 34.9096 34.1421C38.6567 30.3914 40.7618 25.3043 40.7618 20C40.7618 14.6957 38.6567 9.60859 34.9096 5.85786C31.1625 2.10714 26.0804 0 20.7813 0C15.4821 0 10.4 2.10714 6.65293 5.85786C2.90586 9.60859 0.800781 14.6957 0.800781 20Z" fill="white"/>
<path id="Vector_2" d="M8.7865 8.30943C8.77607 8.32509 9.60084 9.4508 10.6133 10.8053C11.6258 12.1607 13.7786 15.0437 15.3968 17.209L18.3387 21.1463L18.1501 21.3603C18.0432 21.4778 15.88 23.8153 13.3458 26.5565C10.8115 29.302 8.73 31.5639 8.72479 31.5891C8.71436 31.6143 9.1576 31.6352 9.79378 31.63L10.8775 31.6248L11.2339 31.2324C11.432 31.0184 13.2745 29.0263 15.3308 26.8009C17.3871 24.5756 19.127 22.6896 19.1983 22.6087L19.3251 22.4608L20.3428 23.8257C20.9025 24.5748 22.4443 26.6426 23.768 28.4156L26.1806 31.6352H29.8699C32.9386 31.6352 33.5548 31.6248 33.534 31.5691C33.5183 31.5282 32.5823 30.2651 31.4525 28.7522C30.3227 27.2446 29.0303 25.5126 28.5819 24.9114C28.1291 24.3103 26.8002 22.5226 25.62 20.948C24.4389 19.369 23.4725 18.0545 23.4725 18.0345C23.4725 17.9989 29.7117 11.2185 31.834 8.95145L32.4398 8.30421H31.3256L30.2158 8.30943L28.9182 9.71526C28.2055 10.4895 26.4604 12.3842 25.0351 13.918L22.4547 16.7096L19.3251 12.5226L16.1903 8.33031L12.501 8.30508C10.4708 8.28855 8.79606 8.29377 8.7865 8.30943ZM17.5296 12.8227C18.7359 14.4425 20.5984 16.934 21.6673 18.3651C22.7363 19.7918 25.1072 22.9706 26.9401 25.4203C28.7722 27.8753 30.2888 29.9084 30.314 29.9441C30.3444 29.9902 29.9828 30.0049 28.6653 30.0049H26.981L23.6419 25.5326C15.9365 15.2272 12.0491 10.0206 12.003 9.94405C11.9726 9.89795 12.3185 9.88316 13.6465 9.88316H15.3308L17.5296 12.8227Z" fill="black"/>
</g>
<defs>
<clipPath id="clip0_1635_9571">
<rect width="40" height="40" fill="white" transform="translate(0.800781)"/>
</clipPath>
</defs>
</svg>
