<svg width="25" height="24" viewBox="0 0 25 24" fill="none" xmlns="http://www.w3.org/2000/svg">
<path fill-rule="evenodd" clip-rule="evenodd" d="M16.6437 2C16.7837 3.212 16.2787 4.405 15.5397 5.283C14.7697 6.147 13.5357 6.807 12.3357 6.722C12.1787 5.557 12.7867 4.317 13.4677 3.561C14.2377 2.701 15.5747 2.044 16.6437 2ZM20.4827 8.509C20.3407 8.589 18.1287 9.849 18.1527 12.411C18.1807 15.513 21.0097 16.538 21.0427 16.549C21.0267 16.621 20.5997 18.029 19.5407 19.457C18.6547 20.715 17.7257 21.945 16.2527 21.967C15.5527 21.983 15.0787 21.791 14.5857 21.592C14.0717 21.384 13.5357 21.167 12.6967 21.167C11.8087 21.167 11.2487 21.391 10.7087 21.607C10.2417 21.793 9.79073 21.974 9.15373 21.999C7.75073 22.049 6.67773 20.656 5.75973 19.409C3.92673 16.865 2.49873 12.236 4.41273 9.087C5.34073 7.542 7.03273 6.547 8.84073 6.521C9.63673 6.505 10.4007 6.797 11.0707 7.052C11.5827 7.248 12.0397 7.422 12.4137 7.422C12.7427 7.422 13.1867 7.255 13.7047 7.06C14.5207 6.752 15.5177 6.376 16.5347 6.477C17.2297 6.497 19.2097 6.737 20.4857 8.507L20.4827 8.509Z" fill="white"/>
</svg>
