<svg width="25" height="24" viewBox="0 0 25 24" fill="none" xmlns="http://www.w3.org/2000/svg">
<g id="Frame">
<path id="Vector" fill-rule="evenodd" clip-rule="evenodd" d="M16.1437 2C16.2837 3.212 15.7787 4.405 15.0397 5.283C14.2697 6.147 13.0357 6.807 11.8357 6.722C11.6787 5.557 12.2867 4.317 12.9677 3.561C13.7377 2.701 15.0747 2.044 16.1437 2ZM19.9827 8.509C19.8407 8.589 17.6287 9.849 17.6527 12.411C17.6807 15.513 20.5097 16.538 20.5427 16.549C20.5267 16.621 20.0997 18.029 19.0407 19.457C18.1547 20.715 17.2257 21.945 15.7527 21.967C15.0527 21.983 14.5787 21.791 14.0857 21.592C13.5717 21.384 13.0357 21.167 12.1967 21.167C11.3087 21.167 10.7487 21.391 10.2087 21.607C9.74173 21.793 9.29073 21.974 8.65373 21.999C7.25073 22.049 6.17773 20.656 5.25973 19.409C3.42673 16.865 1.99873 12.236 3.91273 9.087C4.84073 7.542 6.53273 6.547 8.34073 6.521C9.13673 6.505 9.90073 6.797 10.5707 7.052C11.0827 7.248 11.5397 7.422 11.9137 7.422C12.2427 7.422 12.6867 7.255 13.2047 7.06C14.0207 6.752 15.0177 6.376 16.0347 6.477C16.7297 6.497 18.7097 6.737 19.9857 8.507L19.9827 8.509Z" fill="#141717"/>
</g>
</svg>
