<svg width="25" height="24" viewBox="0 0 25 24" fill="none" xmlns="http://www.w3.org/2000/svg">
<mask id="mask0_6376_6300" style="mask-type:luminance" maskUnits="userSpaceOnUse" x="3" y="2" width="20" height="20">
<path d="M22.36 2.40234H3.15234V21.6232H22.36V2.40234Z" fill="white"/>
</mask>
<g mask="url(#mask0_6376_6300)">
<path d="M7.16854 12.001C7.1693 11.3949 7.26886 10.793 7.46329 10.219L4.15673 7.74805C3.49489 9.06757 3.15015 10.5232 3.1499 11.9992C3.14965 13.4753 3.4939 14.931 4.15529 16.2508L7.45921 13.7758C7.26655 13.2042 7.16813 12.6051 7.16782 12.0019" fill="#FBBC05"/>
<path d="M12.9725 6.32779C14.2869 6.32459 15.5629 6.77096 16.5884 7.59273L19.4479 4.80036C17.706 3.3168 15.4734 2.40039 12.9725 2.40039C9.09055 2.40039 5.75352 4.57288 4.15576 7.74759L7.46305 10.2185C8.22547 7.95517 10.3964 6.32779 12.9725 6.32779Z" fill="#EA4335"/>
</g>
<path d="M12.9725 17.6729C10.3945 17.6729 8.22381 16.0456 7.46163 13.7822L4.15674 16.2531C5.75354 19.4279 9.0908 21.6003 12.9725 21.6003C15.3677 21.6003 17.655 20.7681 19.3724 19.2078L16.2342 16.8335C15.3492 17.3791 14.2342 17.6725 12.9725 17.6725" fill="#34A853"/>
<path d="M22.3501 12.0002C22.3501 11.4333 22.2602 10.822 22.1268 10.2549H12.9727V13.9644H18.2415C17.9777 15.2293 17.2616 16.2014 16.2358 16.8339L19.3735 19.2071C21.1771 17.5699 22.3501 15.1299 22.3501 12.0002Z" fill="#4285F4"/>
</svg>
