<svg width="21" height="24" viewBox="0 0 21 24" fill="none" xmlns="http://www.w3.org/2000/svg">
<path d="M10.5 6.75128V10.5013M10.5 14.2512V10.5013M10.5 10.5013H14.25H6.00004" stroke="#141717" stroke-width="1.5" stroke-linecap="round"/>
<path d="M20.2498 10.501C20.2498 11.7686 19.7532 13.2057 18.9169 14.6884C18.0859 16.1615 16.9529 17.6213 15.7603 18.9179C14.5687 20.2134 13.3344 21.328 12.3155 22.113C11.805 22.5063 11.3602 22.8079 11.0105 23.007C10.8352 23.1068 10.6959 23.174 10.5925 23.2143C10.5485 23.2315 10.5181 23.2409 10.4998 23.246C10.4815 23.2409 10.4512 23.2315 10.4071 23.2143C10.3037 23.174 10.1644 23.1068 9.98912 23.007C9.63943 22.8079 9.19462 22.5063 8.6841 22.113C7.66521 21.328 6.43089 20.2134 5.23932 18.9179C4.04676 17.6213 2.91367 16.1615 2.08274 14.6884C1.24647 13.2057 0.749807 11.7686 0.749807 10.501C0.749807 5.1163 5.11503 0.751097 10.4998 0.751097C15.8846 0.751097 20.2498 5.1163 20.2498 10.501Z" stroke="#141717" stroke-width="1.5"/>
</svg>
