<svg version="1.1" id="logo" xmlns="http://www.w3.org/2000/svg" xmlns:xlink="http://www.w3.org/1999/xlink" x="0px"
    y="0px" viewBox="0 0 1920 479" style="enable-background:new 0 0 1920 479;" xml:space="preserve">
  <style type="text/css">
      .st0 {
    opacity: 0.08;
      }

      .st1 {
    fill: #798296;
      }
  </style>
  <g class="st0">
    <g>
      <polygon class="st1" points="149.44,-0.28 0.09,-0.28 186.07,322.08 260.46,193.02 		" />
      <g>
        <polygon class="st1" points="404.17,-0.28 404.17,0.28 383.32,35.78 458.28,164.84 553.52,-0.28 			" />
        <polygon class="st1" points="218.19,63.96 293.15,193.02 276.8,220.64 202.41,349.69 260.46,451.14 276.8,478.75 351.2,349.69 
				351.2,349.69 441.93,193.02 441.93,193.02 367.54,63.96 			" />
      </g>
    </g>
    <g>
      <polygon class="st1"
          points="1800.21,81.52 1556.33,81.52 1556.33,396.94 1630.09,396.94 1630.09,146.38 1800.21,146.38 		" />
      <rect x="1665.46" y="210.2" class="st1" width="101.79" height="59.63" />
      <rect x="1850.95" y="181.75" class="st1" width="69.05" height="215.19" />
      <rect x="1850.95" y="81.52" class="st1" width="69.05" height="64.86" />
      <path class="st1" d="M864.29,234.62L864.29,234.62c16.92-10,23.85-42.99,23.85-56.16v-0.53c0-53.24-43.16-96.4-96.4-96.4H655.81
			v66.16h130.01c16.57,0,30,13.43,30,30l0,0c0,16.57-13.43,30-30,30H655.81v189.25h150.98c51.3,0,92.89-41.59,92.89-92.89v-0.19
			C899.68,286.86,899.68,252.31,864.29,234.62z M829.67,303.86c0,18.69-15.16,33.85-33.85,33.85h-70.01v-67.7h70.01
			C814.52,270.01,829.67,285.16,829.67,303.86L829.67,303.86z" />
      <polygon class="st1"
          points="1108.65,81.52 1184.94,81.52 1082.62,249.24 1082.62,396.94 1011.85,396.94 1011.85,249.24 		" />
      <path class="st1" d="M1235.69,81.52v315.42h85.84h24.48c88.14,0,159.58-71.45,159.58-159.58v-4.03v-0.6
			c0-83.51-67.7-151.21-151.21-151.21h-15.67v58.99h0.39c52.85,0,95.69,42.84,95.69,95.69v0c0,55.32-44.85,100.17-100.17,100.17
			h-31.3V81.52H1235.69z" />
      <polygon class="st1" points="991.41,213.81 1067.79,81.52 915.04,81.52 		" />
    </g>
  </g>
</svg>