<svg width="19" height="18" viewBox="0 0 19 18" fill="none" xmlns="http://www.w3.org/2000/svg">
<circle cx="9.4998" cy="8.9998" r="6.525" stroke="#9E9E9D" stroke-width="1.35"/>
<path d="M11.8223 6.85973C11.8223 7.33853 11.6207 7.85513 11.2175 8.40953L10.2473 9.77033C10.0961 9.98033 10.0205 10.2071 10.0205 10.4507V10.8287H8.73532V10.3877C8.73532 9.93413 8.87812 9.51833 9.16372 9.14033L10.1465 7.81733C10.4069 7.47293 10.5371 7.15373 10.5371 6.85973C10.5371 6.49853 10.4195 6.20033 10.1843 5.96513C9.95752 5.72153 9.66352 5.59973 9.30232 5.59973C8.92432 5.59973 8.62612 5.72573 8.40772 5.97773C8.18932 6.22133 8.08012 6.51953 8.08012 6.87233H6.79492C6.79492 6.16673 7.03432 5.58713 7.51312 5.13353C7.99192 4.67993 8.58832 4.45312 9.30232 4.45312C10.0079 4.45312 10.6043 4.67573 11.0915 5.12093C11.5787 5.55773 11.8223 6.13733 11.8223 6.85973ZM10.0835 13.4999H8.65972V12.1265H10.0835V13.4999Z" fill="#9E9E9D"/>
</svg>
