<svg xmlns="http://www.w3.org/2000/svg" width="24" height="24" viewBox="0 0 24 24" fill="none">
  <g clip-path="url(#clip0_2941_4867)">
    <path d="M19 0H5C2.23858 0 0 2.23858 0 5V19C0 21.7614 2.23858 24 5 24H19C21.7614 24 24 21.7614 24 19V5C24 2.23858 21.7614 0 19 0Z" fill="#D7D9DE"/>
    <path d="M17.0001 6.60001H7.0001C6.2269 6.60001 5.6001 7.22681 5.6001 8.00001V16C5.6001 16.7732 6.2269 17.4 7.0001 17.4H17.0001C17.7733 17.4 18.4001 16.7732 18.4001 16V8.00001C18.4001 7.22681 17.7733 6.60001 17.0001 6.60001Z" stroke="#9FA1A6" stroke-width="1.2"/>
    <path d="M10.5 10.5C10.5 11.0523 10.0523 11.5 9.5 11.5C8.94772 11.5 8.5 11.0523 8.5 10.5C8.5 9.94772 8.94772 9.5 9.5 9.5C10.0523 9.5 10.5 9.94772 10.5 10.5Z" fill="#9FA1A6" stroke="#9FA1A6"/>
    <path d="M8.75 14H15.25H8.75Z" fill="#9FA1A6"/>
    <path d="M8.75 14H15.25" stroke="#9FA1A6" stroke-width="1.2" stroke-linecap="round"/>
    <path d="M12.75 9.5H15.25H12.75Z" fill="#9FA1A6"/>
    <path d="M12.75 9.5H15.25" stroke="#9FA1A6" stroke-width="1.2" stroke-linecap="round"/>
    <path d="M12.75 11.5H15.25H12.75Z" fill="#9FA1A6"/>
    <path d="M12.75 11.5H15.25" stroke="#9FA1A6" stroke-width="1.2" stroke-linecap="round"/>
  </g>
  <defs>
    <clipPath id="clip0_2941_4867">
      <rect width="24" height="24" fill="white"/>
    </clipPath>
  </defs>
</svg>