<svg width="205" height="130" viewBox="0 0 205 130" fill="none" xmlns="http://www.w3.org/2000/svg">
<rect width="204.614" height="129.487" rx="9.77259" fill="#F5F5F3"/>
<rect x="11.0001" y="16.4995" width="29.0004" height="16.0002" rx="3.00004" fill="#C5C5C4"/>
<rect x="48.0007" y="16.4995" width="144.002" height="5.00007" rx="2.50004" fill="#C5C5C4"/>
<rect x="48.0007" y="27.4998" width="144.002" height="5.00007" rx="2.50004" fill="#C5C5C4"/>
<rect x="159.002" y="43.5" width="19.0003" height="5.00007" rx="2.50004" fill="#C5C5C4"/>
<rect x="89.0013" y="43.5" width="19.0003" height="5.00007" rx="2.50004" fill="#C5C5C4"/>
<rect x="159.002" y="53.5002" width="33.0005" height="5.00007" rx="2.50004" fill="#C5C5C4"/>
<rect x="89.0013" y="53.5002" width="33.0005" height="5.00007" rx="2.50004" fill="#C5C5C4"/>
<rect x="159.002" y="70.5002" width="19.0003" height="5.00007" rx="2.50004" fill="#C5C5C4"/>
<rect x="89.0013" y="70.5002" width="19.0003" height="5.00007" rx="2.50004" fill="#C5C5C4"/>
<rect x="159.002" y="80.5005" width="33.0005" height="5.00007" rx="2.50004" fill="#C5C5C4"/>
<rect x="89.0013" y="80.5005" width="33.0005" height="5.00007" rx="2.50004" fill="#C5C5C4"/>
<rect x="159.002" y="97.5007" width="19.0003" height="5.00007" rx="2.50004" fill="#C5C5C4"/>
<rect x="89.0013" y="97.5007" width="19.0003" height="5.00007" rx="2.50004" fill="#C5C5C4"/>
<rect x="159.002" y="107.501" width="33.0005" height="5.00007" rx="2.50004" fill="#C5C5C4"/>
<rect x="89.0013" y="107.501" width="33.0005" height="5.00007" rx="2.50004" fill="#C5C5C4"/>
<rect x="11.0001" y="43.5" width="61.0009" height="69.001" rx="3.00004" fill="#C5C5C4"/>
<circle cx="41.5006" cy="66.0002" r="14.5002" fill="#F5F5F3"/>
<path d="M16.0002 100.501C16.0002 92.2166 22.716 85.5007 31.0004 85.5007H52.0007C60.2851 85.5007 67.0009 92.2166 67.0009 100.501V105.501C67.0009 107.158 65.6577 108.501 64.0009 108.501H19.0002C17.3433 108.501 16.0002 107.158 16.0002 105.501V100.501Z" fill="#F5F5F3"/>
<rect x="80.0012" y="43.0007" width="44.0006" height="43.0006" rx="3.00004" fill="#F5F5F3"/>
<rect x="83.8889" y="47.2573" width="35.0005" height="35.0005" rx="8.50012" fill="#9E9E9D"/>
<path fill-rule="evenodd" clip-rule="evenodd" d="M103.983 58.6482C103.612 58.0918 102.987 57.7576 102.319 57.7576H100.459C99.7907 57.7576 99.1662 58.0918 98.7953 58.6482L98.316 59.3671C97.9451 59.9235 97.3206 60.2577 96.6519 60.2577H96.389C95.2844 60.2577 94.389 61.1531 94.389 62.2577V68.7578C94.389 69.8624 95.2844 70.7578 96.389 70.7578H106.389C107.494 70.7578 108.389 69.8624 108.389 68.7578V62.2577C108.389 61.1531 107.494 60.2577 106.389 60.2577H106.126C105.457 60.2577 104.833 59.9235 104.462 59.3671L103.983 58.6482ZM104.389 64.7575C104.389 66.4144 103.046 67.7576 101.389 67.7576C99.7322 67.7576 98.3891 66.4144 98.3891 64.7575C98.3891 63.1007 99.7322 61.7575 101.389 61.7575C103.046 61.7575 104.389 63.1007 104.389 64.7575ZM104.889 61.7575C104.613 61.7575 104.389 61.9814 104.389 62.2575C104.389 62.5337 104.613 62.7575 104.889 62.7575H106.389C106.665 62.7575 106.889 62.5337 106.889 62.2575C106.889 61.9814 106.665 61.7575 106.389 61.7575H104.889Z" fill="#FFD30F"/>
<rect x="83.8889" y="47.2573" width="35.0005" height="35.0005" rx="8.50012" stroke="#FFD30F" stroke-width="1.00001"/>
<g opacity="0.5">
<path d="M88.0013 42.501H84.0013C81.7921 42.501 80.0012 44.2919 80.0012 46.501V50.5011" stroke="#FFD30F" stroke-width="1.00001" stroke-linecap="round"/>
<path d="M124.002 50.5011L124.002 46.501C124.002 44.2919 122.211 42.501 120.002 42.501L116.002 42.501" stroke="#FFD30F" stroke-width="1.00001" stroke-linecap="round"/>
<path d="M116.002 86.5015L120.002 86.5015C122.211 86.5015 124.002 84.7106 124.002 82.5014L124.002 78.5014" stroke="#FFD30F" stroke-width="1.00001" stroke-linecap="round"/>
<path d="M80.0012 78.5013L80.0012 82.5014C80.0012 84.7106 81.792 86.5015 84.0012 86.5015L88.0013 86.5015" stroke="#FFD30F" stroke-width="1.00001" stroke-linecap="round"/>
</g>
</svg>
