<svg xmlns="http://www.w3.org/2000/svg" width="205" height="130" viewBox="0 0 205 130" fill="none">
  <g clip-path="url(#clip0_2716_4127)">
    <path d="M194.841 0H9.77259C4.37534 0 0 4.37534 0 9.77259V119.714C0 125.112 4.37534 129.487 9.77259 129.487H194.841C200.239 129.487 204.614 125.112 204.614 119.714V9.77259C204.614 4.37534 200.239 0 194.841 0Z" fill="#F4F5F6"/>
    <path d="M37.0004 16.4995H14C12.3432 16.4995 11 17.8427 11 19.4995V29.4997C11 31.1565 12.3432 32.4997 14 32.4997H37.0004C38.6572 32.4997 40.0004 31.1565 40.0004 29.4997V19.4995C40.0004 17.8427 38.6572 16.4995 37.0004 16.4995Z" fill="#D7D9DE"/>
    <path d="M189.502 16.4995H50.5005C49.1198 16.4995 48.0005 17.6188 48.0005 18.9995C48.0005 20.3803 49.1198 21.4996 50.5005 21.4996H189.502C190.883 21.4996 192.002 20.3803 192.002 18.9995C192.002 17.6188 190.883 16.4995 189.502 16.4995Z" fill="#D7D9DE"/>
    <path d="M189.502 27.4998H50.5005C49.1198 27.4998 48.0005 28.6191 48.0005 29.9998C48.0005 31.3806 49.1198 32.4999 50.5005 32.4999H189.502C190.883 32.4999 192.002 31.3806 192.002 29.9998C192.002 28.6191 190.883 27.4998 189.502 27.4998Z" fill="#D7D9DE"/>
    <path d="M175.502 43.5H161.502C160.121 43.5 159.002 44.6193 159.002 46C159.002 47.3808 160.121 48.5001 161.502 48.5001H175.502C176.883 48.5001 178.002 47.3808 178.002 46C178.002 44.6193 176.883 43.5 175.502 43.5Z" fill="#D7D9DE"/>
    <path d="M105.502 43.5H91.5015C90.1208 43.5 89.0015 44.6193 89.0015 46C89.0015 47.3808 90.1208 48.5001 91.5015 48.5001H105.502C106.882 48.5001 108.002 47.3808 108.002 46C108.002 44.6193 106.882 43.5 105.502 43.5Z" fill="#C5C5C4"/>
    <path d="M189.502 53.5002H161.502C160.121 53.5002 159.002 54.6195 159.002 56.0002C159.002 57.381 160.121 58.5003 161.502 58.5003H189.502C190.883 58.5003 192.002 57.381 192.002 56.0002C192.002 54.6195 190.883 53.5002 189.502 53.5002Z" fill="#D7D9DE"/>
    <path d="M119.502 53.5002H91.5015C90.1208 53.5002 89.0015 54.6195 89.0015 56.0002C89.0015 57.381 90.1208 58.5003 91.5015 58.5003H119.502C120.883 58.5003 122.002 57.381 122.002 56.0002C122.002 54.6195 120.883 53.5002 119.502 53.5002Z" fill="#C5C5C4"/>
    <path d="M175.502 70.5002H161.502C160.121 70.5002 159.002 71.6195 159.002 73.0002C159.002 74.381 160.121 75.5003 161.502 75.5003H175.502C176.883 75.5003 178.002 74.381 178.002 73.0002C178.002 71.6195 176.883 70.5002 175.502 70.5002Z" fill="#D7D9DE"/>
    <path d="M105.502 70.5002H91.5015C90.1208 70.5002 89.0015 71.6195 89.0015 73.0002C89.0015 74.381 90.1208 75.5003 91.5015 75.5003H105.502C106.882 75.5003 108.002 74.381 108.002 73.0002C108.002 71.6195 106.882 70.5002 105.502 70.5002Z" fill="#C5C5C4"/>
    <path d="M189.502 80.5005H161.502C160.121 80.5005 159.002 81.6198 159.002 83.0005C159.002 84.3813 160.121 85.5006 161.502 85.5006H189.502C190.883 85.5006 192.002 84.3813 192.002 83.0005C192.002 81.6198 190.883 80.5005 189.502 80.5005Z" fill="#D7D9DE"/>
    <path d="M119.502 80.5005H91.5015C90.1208 80.5005 89.0015 81.6198 89.0015 83.0005C89.0015 84.3813 90.1208 85.5006 91.5015 85.5006H119.502C120.883 85.5006 122.002 84.3813 122.002 83.0005C122.002 81.6198 120.883 80.5005 119.502 80.5005Z" fill="#C5C5C4"/>
    <path d="M175.502 97.5007H161.502C160.121 97.5007 159.002 98.62 159.002 100.001C159.002 101.381 160.121 102.501 161.502 102.501H175.502C176.883 102.501 178.002 101.381 178.002 100.001C178.002 98.62 176.883 97.5007 175.502 97.5007Z" fill="#D7D9DE"/>
    <path d="M105.502 97.5007H91.5015C90.1208 97.5007 89.0015 98.62 89.0015 100.001C89.0015 101.381 90.1208 102.501 91.5015 102.501H105.502C106.882 102.501 108.002 101.381 108.002 100.001C108.002 98.62 106.882 97.5007 105.502 97.5007Z" fill="#D7D9DE"/>
    <path d="M189.502 107.501H161.502C160.121 107.501 159.002 108.62 159.002 110.001C159.002 111.382 160.121 112.501 161.502 112.501H189.502C190.883 112.501 192.002 111.382 192.002 110.001C192.002 108.62 190.883 107.501 189.502 107.501Z" fill="#D7D9DE"/>
    <path d="M119.502 107.501H91.5015C90.1208 107.501 89.0015 108.62 89.0015 110.001C89.0015 111.382 90.1208 112.501 91.5015 112.501H119.502C120.883 112.501 122.002 111.382 122.002 110.001C122.002 108.62 120.883 107.501 119.502 107.501Z" fill="#D7D9DE"/>
    <path d="M69.0009 43.5H14C12.3432 43.5 11 44.8432 11 46.5V109.501C11 111.158 12.3432 112.501 14 112.501H69.0009C70.6577 112.501 72.0009 111.158 72.0009 109.501V46.5C72.0009 44.8432 70.6577 43.5 69.0009 43.5Z" fill="#D7D9DE"/>
    <path d="M41.5007 80.5004C49.5089 80.5004 56.0009 74.0084 56.0009 66.0002C56.0009 57.992 49.5089 51.5 41.5007 51.5C33.4924 51.5 27.0005 57.992 27.0005 66.0002C27.0005 74.0084 33.4924 80.5004 41.5007 80.5004Z" fill="#F4F5F6"/>
    <path d="M16 100.501C16 92.2166 22.7158 85.5007 31.0002 85.5007H52.0005C60.2849 85.5007 67.0007 92.2166 67.0007 100.501V105.501C67.0007 107.158 65.6575 108.501 64.0007 108.501H19C17.3431 108.501 16 107.158 16 105.501V100.501Z" fill="#F4F5F6"/>
    <path d="M121.002 43.0007H83.001C81.3441 43.0007 80.001 44.3439 80.001 46.0007V83.0013C80.001 84.6581 81.3441 86.0013 83.001 86.0013H121.002C122.658 86.0013 124.002 84.6581 124.002 83.0013V46.0007C124.002 44.3439 122.658 43.0007 121.002 43.0007Z" fill="#F5F5F3"/>
    <path d="M110.389 47.2573H92.3888C87.6943 47.2573 83.8887 51.0629 83.8887 55.7574V73.7577C83.8887 78.4522 87.6943 82.2578 92.3888 82.2578H110.389C115.084 82.2578 118.889 78.4522 118.889 73.7577V55.7574C118.889 51.0629 115.084 47.2573 110.389 47.2573Z" fill="#D7D9DE"/>
    <path fill-rule="evenodd" clip-rule="evenodd" d="M103.983 58.6482C103.612 58.0918 102.987 57.7576 102.319 57.7576H100.459C99.7909 57.7576 99.1664 58.0918 98.7955 58.6482L98.3162 59.3671C97.9453 59.9235 97.3208 60.2577 96.6521 60.2577H96.3892C95.2846 60.2577 94.3892 61.1531 94.3892 62.2577V68.7578C94.3892 69.8624 95.2846 70.7578 96.3892 70.7578H106.389C107.494 70.7578 108.389 69.8624 108.389 68.7578V62.2577C108.389 61.1531 107.494 60.2577 106.389 60.2577H106.126C105.457 60.2577 104.833 59.9235 104.462 59.3671L103.983 58.6482ZM104.389 64.7575C104.389 66.4144 103.046 67.7576 101.389 67.7576C99.7324 67.7576 98.3893 66.4144 98.3893 64.7575C98.3893 63.1007 99.7324 61.7575 101.389 61.7575C103.046 61.7575 104.389 63.1007 104.389 64.7575ZM104.889 61.7575C104.613 61.7575 104.389 61.9814 104.389 62.2575C104.389 62.5337 104.613 62.7575 104.889 62.7575H106.389C106.665 62.7575 106.889 62.5337 106.889 62.2575C106.889 61.9814 106.665 61.7575 106.389 61.7575H104.889Z" fill="#07828B"/>
    <path d="M110.389 47.2573H92.3888C87.6943 47.2573 83.8887 51.0629 83.8887 55.7574V73.7577C83.8887 78.4522 87.6943 82.2578 92.3888 82.2578H110.389C115.084 82.2578 118.889 78.4522 118.889 73.7577V55.7574C118.889 51.0629 115.084 47.2573 110.389 47.2573Z" stroke="#07828B" stroke-width="1.00001"/>
    <g opacity="0.5">
      <path d="M88.0011 42.501H84.0011C81.7919 42.501 80.001 44.2919 80.001 46.501V50.5011" stroke="#07828B" stroke-width="1.00001" stroke-linecap="round"/>
      <path d="M124.002 50.5011V46.501C124.002 44.2919 122.211 42.501 120.002 42.501H116.002" stroke="#07828B" stroke-width="1.00001" stroke-linecap="round"/>
      <path d="M116.002 86.5015H120.002C122.211 86.5015 124.002 84.7106 124.002 82.5014V78.5014" stroke="#07828B" stroke-width="1.00001" stroke-linecap="round"/>
      <path d="M80.001 78.5013V82.5014C80.001 84.7106 81.7918 86.5015 84.001 86.5015H88.0011" stroke="#07828B" stroke-width="1.00001" stroke-linecap="round"/>
    </g>
  </g>
  <defs>
    <clipPath id="clip0_2716_4127">
      <rect width="205" height="130" fill="white"/>
    </clipPath>
  </defs>
</svg>