<svg width="205" height="130" viewBox="0 0 205 130" fill="none" xmlns="http://www.w3.org/2000/svg">
<rect x="0.386292" width="204.614" height="129.487" rx="9.77259" fill="#F5F5F3"/>
<rect x="18.7099" y="25.6531" width="34.2041" height="34.2041" rx="3.00004" fill="#C5C5C4"/>
<rect x="71.2376" y="26.8748" width="120.936" height="9.77259" rx="3.00004" fill="#C5C5C4"/>
<rect x="71.2376" y="48.863" width="120.936" height="9.77259" rx="3.00004" fill="#C5C5C4"/>
<rect x="18.7099" y="103.834" width="173.464" height="9.77259" rx="3.00004" fill="#C5C5C4"/>
<rect x="59.0219" y="84.2886" width="133.152" height="9.77259" rx="3.00004" fill="#C5C5C4"/>
<rect x="18.7099" y="84.2886" width="34.2041" height="9.77259" rx="3.00004" fill="#C5C5C4"/>
<rect x="81.0103" y="43.2549" width="44.0006" height="43.0006" rx="3.00004" fill="#F5F5F3"/>
<rect x="84.8979" y="47.5115" width="35.0005" height="35.0005" rx="8.50012" fill="#9E9E9D"/>
<path fill-rule="evenodd" clip-rule="evenodd" d="M104.992 58.9023C104.621 58.3459 103.996 58.0117 103.328 58.0117H101.468C100.8 58.0117 100.175 58.3459 99.8043 58.9023L99.3251 59.6212C98.9541 60.1776 98.3297 60.5118 97.6609 60.5118H97.398C96.2935 60.5118 95.398 61.4073 95.398 62.5119V69.012C95.398 70.1165 96.2935 71.012 97.398 71.012H107.398C108.503 71.012 109.398 70.1165 109.398 69.012V62.5119C109.398 61.4073 108.503 60.5118 107.398 60.5118H107.135C106.467 60.5118 105.842 60.1776 105.471 59.6212L104.992 58.9023ZM105.398 65.0116C105.398 66.6685 104.055 68.0117 102.398 68.0117C100.741 68.0117 99.3981 66.6685 99.3981 65.0116C99.3981 63.3548 100.741 62.0116 102.398 62.0116C104.055 62.0116 105.398 63.3548 105.398 65.0116ZM105.898 62.0116C105.622 62.0116 105.398 62.2355 105.398 62.5116C105.398 62.7878 105.622 63.0116 105.898 63.0116H107.398C107.674 63.0116 107.898 62.7878 107.898 62.5116C107.898 62.2355 107.674 62.0116 107.398 62.0116H105.898Z" fill="#FFD30F"/>
<rect x="84.8979" y="47.5115" width="35.0005" height="35.0005" rx="8.50012" stroke="#FFD30F" stroke-width="1.00001"/>
<g opacity="0.5">
<path d="M89.0104 42.7551H85.0103C82.8011 42.7551 81.0103 44.546 81.0103 46.7552V50.7552" stroke="#FFD30F" stroke-width="1.00001" stroke-linecap="round"/>
<path d="M125.011 50.7552L125.011 46.7552C125.011 44.546 123.22 42.7551 121.011 42.7551L117.011 42.7551" stroke="#FFD30F" stroke-width="1.00001" stroke-linecap="round"/>
<path d="M117.011 86.7556L121.011 86.7556C123.22 86.7556 125.011 84.9647 125.011 82.7556L125.011 78.7555" stroke="#FFD30F" stroke-width="1.00001" stroke-linecap="round"/>
<path d="M81.0103 78.7555L81.0103 82.7556C81.0103 84.9647 82.8011 86.7556 85.0103 86.7556L89.0104 86.7556" stroke="#FFD30F" stroke-width="1.00001" stroke-linecap="round"/>
</g>
</svg>
