<svg xmlns="http://www.w3.org/2000/svg" width="205" height="130" viewBox="0 0 205 130" fill="none">
  <g clip-path="url(#clip0_2716_4157)">
    <path d="M195.228 0H10.1588C4.76157 0 0.38623 4.37534 0.38623 9.77259V119.714C0.38623 125.112 4.76157 129.487 10.1588 129.487H195.228C200.625 129.487 205 125.112 205 119.714V9.77259C205 4.37534 200.625 0 195.228 0Z" fill="#F4F5F6"/>
    <path d="M49.914 25.6531H21.71C20.0531 25.6531 18.71 26.9963 18.71 28.6531V56.8572C18.71 58.514 20.0531 59.8572 21.71 59.8572H49.914C51.5709 59.8572 52.9141 58.514 52.9141 56.8572V28.6531C52.9141 26.9963 51.5709 25.6531 49.914 25.6531Z" fill="#D7D9DE"/>
    <path d="M189.174 26.8748H74.2378C72.581 26.8748 71.2378 28.218 71.2378 29.8748V33.6474C71.2378 35.3042 72.581 36.6474 74.2378 36.6474H189.174C190.831 36.6474 192.174 35.3042 192.174 33.6474V29.8748C192.174 28.218 190.831 26.8748 189.174 26.8748Z" fill="#D7D9DE"/>
    <path d="M189.174 48.863H74.2378C72.581 48.863 71.2378 50.2062 71.2378 51.863V55.6356C71.2378 57.2924 72.581 58.6356 74.2378 58.6356H189.174C190.831 58.6356 192.174 57.2924 192.174 55.6356V51.863C192.174 50.2062 190.831 48.863 189.174 48.863Z" fill="#D7D9DE"/>
    <path d="M189.174 103.834H21.71C20.0531 103.834 18.71 105.177 18.71 106.834V110.607C18.71 112.263 20.0531 113.607 21.71 113.607H189.174C190.831 113.607 192.174 112.263 192.174 110.607V106.834C192.174 105.177 190.831 103.834 189.174 103.834Z" fill="#D7D9DE"/>
    <path d="M189.174 84.2886H62.022C60.3651 84.2886 59.022 85.6318 59.022 87.2886V91.0611C59.022 92.718 60.3651 94.0612 62.022 94.0612H189.174C190.831 94.0612 192.174 92.718 192.174 91.0611V87.2886C192.174 85.6318 190.831 84.2886 189.174 84.2886Z" fill="#D7D9DE"/>
    <path d="M49.914 84.2886H21.71C20.0531 84.2886 18.71 85.6318 18.71 87.2886V91.0611C18.71 92.718 20.0531 94.0612 21.71 94.0612H49.914C51.5709 94.0612 52.9141 92.718 52.9141 91.0611V87.2886C52.9141 85.6318 51.5709 84.2886 49.914 84.2886Z" fill="#D7D9DE"/>
    <path d="M122.011 43.2549H84.0103C82.3534 43.2549 81.0103 44.5981 81.0103 46.2549V83.2555C81.0103 84.9123 82.3534 86.2555 84.0103 86.2555H122.011C123.668 86.2555 125.011 84.9123 125.011 83.2555V46.2549C125.011 44.5981 123.668 43.2549 122.011 43.2549Z" fill="#F5F5F3"/>
    <path d="M111.398 47.5115H93.3981C88.7036 47.5115 84.8979 51.3171 84.8979 56.0116V74.0119C84.8979 78.7064 88.7036 82.512 93.3981 82.512H111.398C116.093 82.512 119.898 78.7064 119.898 74.0119V56.0116C119.898 51.3171 116.093 47.5115 111.398 47.5115Z" fill="#D7D9DE"/>
    <path fill-rule="evenodd" clip-rule="evenodd" d="M104.992 58.9023C104.621 58.3459 103.996 58.0117 103.328 58.0117H101.468C100.8 58.0117 100.175 58.3459 99.8042 58.9023L99.3251 59.6212C98.9541 60.1776 98.3296 60.5118 97.6608 60.5118H97.3979C96.2934 60.5118 95.3979 61.4073 95.3979 62.5119V69.012C95.3979 70.1165 96.2934 71.012 97.3979 71.012H107.398C108.503 71.012 109.398 70.1165 109.398 69.012V62.5119C109.398 61.4073 108.503 60.5118 107.398 60.5118H107.135C106.467 60.5118 105.842 60.1776 105.471 59.6212L104.992 58.9023ZM105.398 65.0116C105.398 66.6685 104.055 68.0117 102.398 68.0117C100.741 68.0117 99.398 66.6685 99.398 65.0116C99.398 63.3548 100.741 62.0116 102.398 62.0116C104.055 62.0116 105.398 63.3548 105.398 65.0116ZM105.898 62.0116C105.622 62.0116 105.398 62.2355 105.398 62.5116C105.398 62.7878 105.622 63.0116 105.898 63.0116H107.398C107.674 63.0116 107.898 62.7878 107.898 62.5116C107.898 62.2355 107.674 62.0116 107.398 62.0116H105.898Z" fill="#07828B"/>
    <path d="M111.398 47.5115H93.3981C88.7036 47.5115 84.8979 51.3171 84.8979 56.0116V74.0119C84.8979 78.7064 88.7036 82.512 93.3981 82.512H111.398C116.093 82.512 119.898 78.7064 119.898 74.0119V56.0116C119.898 51.3171 116.093 47.5115 111.398 47.5115Z" stroke="#07828B" stroke-width="1.00001"/>
    <g opacity="0.5">
      <path d="M89.0104 42.7551H85.0103C82.8011 42.7551 81.0103 44.546 81.0103 46.7552V50.7552" stroke="#07828B" stroke-width="1.00001" stroke-linecap="round"/>
      <path d="M125.011 50.7552V46.7552C125.011 44.546 123.22 42.7551 121.011 42.7551H117.011" stroke="#07828B" stroke-width="1.00001" stroke-linecap="round"/>
      <path d="M117.011 86.7556H121.011C123.22 86.7556 125.011 84.9647 125.011 82.7556V78.7555" stroke="#07828B" stroke-width="1.00001" stroke-linecap="round"/>
      <path d="M81.0103 78.7555V82.7556C81.0103 84.9647 82.8011 86.7556 85.0103 86.7556H89.0104" stroke="#07828B" stroke-width="1.00001" stroke-linecap="round"/>
    </g>
  </g>
  <defs>
    <clipPath id="clip0_2716_4157">
      <rect width="205" height="130" fill="white"/>
    </clipPath>
  </defs>
</svg>