<svg xmlns="http://www.w3.org/2000/svg" width="204" height="130" viewBox="0 0 204 130" fill="none">
  <g clip-path="url(#clip0_2716_4065)">
    <path d="M196 0H8C3.58172 0 0 3.58172 0 8V122C0 126.418 3.58172 130 8 130H196C200.418 130 204 126.418 204 122V8C204 3.58172 200.418 0 196 0Z" fill="#F4F5F6"/>
    <path d="M142 16H14C12.3431 16 11 17.3431 11 19V22C11 23.6569 12.3431 25 14 25H142C143.657 25 145 23.6569 145 22V19C145 17.3431 143.657 16 142 16Z" fill="#D7D9DE"/>
    <path d="M120.5 50H91.5C90.1193 50 89 51.1193 89 52.5C89 53.8807 90.1193 55 91.5 55H120.5C121.881 55 123 53.8807 123 52.5C123 51.1193 121.881 50 120.5 50Z" fill="#C5C5C4"/>
    <path d="M156.5 60H91.5C90.1193 60 89 61.1193 89 62.5C89 63.8807 90.1193 65 91.5 65H156.5C157.881 65 159 63.8807 159 62.5C159 61.1193 157.881 60 156.5 60Z" fill="#D7D9DE"/>
    <path d="M120.5 70H91.5C90.1193 70 89 71.1193 89 72.5C89 73.8807 90.1193 75 91.5 75H120.5C121.881 75 123 73.8807 123 72.5C123 71.1193 121.881 70 120.5 70Z" fill="#C5C5C4"/>
    <path d="M180.5 80H91.5C90.1193 80 89 81.1193 89 82.5C89 83.8807 90.1193 85 91.5 85H180.5C181.881 85 183 83.8807 183 82.5C183 81.1193 181.881 80 180.5 80Z" fill="#D7D9DE"/>
    <path d="M120.5 90H91.5C90.1193 90 89 91.1193 89 92.5C89 93.8807 90.1193 95 91.5 95H120.5C121.881 95 123 93.8807 123 92.5C123 91.1193 121.881 90 120.5 90Z" fill="#D7D9DE"/>
    <path d="M156.5 100H91.5C90.1193 100 89 101.119 89 102.5C89 103.881 90.1193 105 91.5 105H156.5C157.881 105 159 103.881 159 102.5C159 101.119 157.881 100 156.5 100Z" fill="#D7D9DE"/>
    <path d="M69 43H14C12.3431 43 11 44.3431 11 46V109C11 110.657 12.3431 112 14 112H69C70.6569 112 72 110.657 72 109V46C72 44.3431 70.6569 43 69 43Z" fill="#D7D9DE"/>
    <path d="M41.5 80.5C49.5081 80.5 56 74.0081 56 66C56 57.9919 49.5081 51.5 41.5 51.5C33.4919 51.5 27 57.9919 27 66C27 74.0081 33.4919 80.5 41.5 80.5Z" fill="#F4F5F6"/>
    <path d="M16 100.5C16 92.2157 22.7157 85.5 31 85.5H52C60.2843 85.5 67 92.2157 67 100.5V105.5C67 107.157 65.6569 108.5 64 108.5H19C17.3431 108.5 16 107.157 16 105.5V100.5Z" fill="#F4F5F6"/>
    <path d="M176 40C184.837 40 192 32.8366 192 24C192 15.1634 184.837 8 176 8C167.163 8 160 15.1634 160 24C160 32.8366 167.163 40 176 40Z" fill="#D7D9DE"/>
    <path fill-rule="evenodd" clip-rule="evenodd" d="M179.279 25.0004H172.648C172.751 27.8148 173.283 30.2673 174.03 32.0121C174.45 32.9899 174.897 33.6534 175.292 34.0434C175.679 34.4249 175.903 34.4448 175.963 34.4448C176.023 34.4448 176.248 34.4249 176.635 34.0434C177.03 33.6534 177.477 32.9899 177.896 32.0121C178.644 30.2673 179.176 27.8148 179.279 25.0004ZM172.648 23.0004C172.751 20.186 173.283 17.7334 174.03 15.9886C174.45 15.0109 174.897 14.3474 175.292 13.9573C175.679 13.5758 175.903 13.5559 175.963 13.5559C176.023 13.5559 176.248 13.5758 176.635 13.9573C177.03 14.3474 177.477 15.0109 177.896 15.9886C178.644 17.7334 179.176 20.186 179.279 23.0004H172.648ZM170.647 23.0004H165.343C165.751 18.6091 168.821 14.9903 172.924 13.7729C171.648 15.8417 170.777 19.1778 170.647 23.0004ZM170.647 25.0004H165.343C165.751 29.3916 168.821 33.0104 172.924 34.2278C171.648 32.159 170.777 28.8229 170.647 25.0004ZM181.28 25.0004H186.584C186.176 29.3916 183.105 33.0104 179.003 34.2278C180.279 32.159 181.15 28.8229 181.28 25.0004ZM186.584 23.0004H181.28C181.15 19.1778 180.279 15.8417 179.003 13.7729C183.105 14.9903 186.176 18.6091 186.584 23.0004Z" fill="#F4F5F6"/>
    <path d="M121 43.5H83C81.3431 43.5 80 44.8431 80 46.5V83.5C80 85.1569 81.3431 86.5 83 86.5H121C122.657 86.5 124 85.1569 124 83.5V46.5C124 44.8431 122.657 43.5 121 43.5Z" fill="#F4F5F6"/>
    <path d="M111 47.5H93C88.3056 47.5 84.5 51.3056 84.5 56V74C84.5 78.6944 88.3056 82.5 93 82.5H111C115.694 82.5 119.5 78.6944 119.5 74V56C119.5 51.3056 115.694 47.5 111 47.5Z" fill="#D7D9DE"/>
    <path fill-rule="evenodd" clip-rule="evenodd" d="M104.594 58.8906C104.223 58.3342 103.598 58 102.93 58H101.07C100.402 58 99.7772 58.3342 99.4063 58.8906L98.9271 59.6094C98.5561 60.1658 97.9317 60.5 97.263 60.5H97C95.8954 60.5 95 61.3954 95 62.5V69C95 70.1046 95.8954 71 97 71H107C108.105 71 109 70.1046 109 69V62.5C109 61.3954 108.105 60.5 107 60.5H106.737C106.068 60.5 105.444 60.1658 105.073 59.6094L104.594 58.8906ZM105 65C105 66.6569 103.657 68 102 68C100.343 68 99 66.6569 99 65C99 63.3431 100.343 62 102 62C103.657 62 105 63.3431 105 65ZM105.5 62C105.224 62 105 62.2239 105 62.5C105 62.7761 105.224 63 105.5 63H107C107.276 63 107.5 62.7761 107.5 62.5C107.5 62.2239 107.276 62 107 62H105.5Z" fill="#07828B"/>
    <path d="M111 47.5H93C88.3056 47.5 84.5 51.3056 84.5 56V74C84.5 78.6944 88.3056 82.5 93 82.5H111C115.694 82.5 119.5 78.6944 119.5 74V56C119.5 51.3056 115.694 47.5 111 47.5Z" stroke="#07828B"/>
    <g opacity="0.5">
      <path d="M88 43H84C81.7909 43 80 44.7909 80 47V51" stroke="#07828B" stroke-linecap="round"/>
      <path d="M124 51V47C124 44.7909 122.209 43 120 43H116" stroke="#07828B" stroke-linecap="round"/>
      <path d="M116 87H120C122.209 87 124 85.2091 124 83V79" stroke="#07828B" stroke-linecap="round"/>
      <path d="M80 79V83C80 85.2091 81.7909 87 84 87H88" stroke="#07828B" stroke-linecap="round"/>
    </g>
  </g>
  <defs>
    <clipPath id="clip0_2716_4065">
      <rect width="204" height="130" fill="white"/>
    </clipPath>
  </defs>
</svg>