<svg xmlns="http://www.w3.org/2000/svg" width="24" height="24" viewBox="0 0 24 24" fill="none">
  <g clip-path="url(#clip0_2941_4859)">
    <path d="M19 0H5C2.23858 0 0 2.23858 0 5V19C0 21.7614 2.23858 24 5 24H19C21.7614 24 24 21.7614 24 19V5C24 2.23858 21.7614 0 19 0Z" fill="#07828B"/>
    <path d="M17.3999 17V7.00001C17.3999 6.22681 16.7731 5.60001 15.9999 5.60001L7.9999 5.60001C7.2267 5.60001 6.5999 6.22681 6.5999 7.00001V17C6.5999 17.7732 7.2267 18.4 7.9999 18.4H15.9999C16.7731 18.4 17.3999 17.7732 17.3999 17Z" stroke="white" stroke-width="1.2"/>
    <path d="M9.5 16H14.5" stroke="white" stroke-width="1.2" stroke-linecap="round"/>
    <path fill-rule="evenodd" clip-rule="evenodd" d="M13.0925 11.2301H10.9075C10.9414 12.1576 11.1166 12.9658 11.363 13.5408C11.5011 13.863 11.6486 14.0817 11.7788 14.2102C11.9062 14.3359 11.9802 14.3425 12 14.3425C12.0198 14.3425 12.0938 14.3359 12.2212 14.2102C12.3514 14.0817 12.4989 13.863 12.637 13.5408C12.8834 12.9658 13.0586 12.1576 13.0925 11.2301ZM10.9075 10.5709C10.9414 9.64345 11.1166 8.8352 11.363 8.26021C11.5011 7.93798 11.6486 7.71932 11.7788 7.59079C11.9062 7.46506 11.9802 7.4585 12 7.4585C12.0198 7.4585 12.0938 7.46506 12.2212 7.59079C12.3514 7.71932 12.4989 7.93798 12.637 8.26021C12.8834 8.8352 13.0586 9.64345 13.0925 10.5709H10.9075ZM10.248 10.5709H8.5C8.63455 9.12381 9.64631 7.93121 10.9984 7.53002C10.5778 8.21179 10.2909 9.3112 10.248 10.5709ZM10.248 11.2301H8.5C8.63455 12.6772 9.64631 13.8698 10.9984 14.271C10.5778 13.5892 10.2909 12.4898 10.248 11.2301ZM13.752 11.2301H15.5C15.3654 12.6772 14.3537 13.8698 13.0016 14.271C13.4222 13.5892 13.7091 12.4898 13.752 11.2301ZM15.5 10.5709H13.752C13.7091 9.3112 13.4222 8.21179 13.0016 7.53002C14.3537 7.93121 15.3654 9.12381 15.5 10.5709Z" fill="white"/>
  </g>
  <defs>
    <clipPath id="clip0_2941_4859">
      <rect width="24" height="24" fill="white"/>
    </clipPath>
  </defs>
</svg>