<svg width="204" height="130" viewBox="0 0 204 130" fill="none" xmlns="http://www.w3.org/2000/svg">
<rect width="204" height="130" rx="8" fill="#F5F5F3"/>
<rect x="11" y="16" width="134" height="9" rx="3" fill="#C5C5C4"/>
<rect x="89" y="50" width="34" height="5" rx="2.5" fill="#C5C5C4"/>
<rect x="89" y="60" width="70" height="5" rx="2.5" fill="#C5C5C4"/>
<rect x="89" y="70" width="34" height="5" rx="2.5" fill="#C5C5C4"/>
<rect x="89" y="80" width="94" height="5" rx="2.5" fill="#C5C5C4"/>
<rect x="89" y="90" width="34" height="5" rx="2.5" fill="#C5C5C4"/>
<rect x="89" y="100" width="70" height="5" rx="2.5" fill="#C5C5C4"/>
<rect x="11" y="43" width="61" height="69" rx="3" fill="#C5C5C4"/>
<circle cx="41.5" cy="66" r="14.5" fill="#F5F5F3"/>
<path d="M16 100.5C16 92.2157 22.7157 85.5 31 85.5H52C60.2843 85.5 67 92.2157 67 100.5V105.5C67 107.157 65.6569 108.5 64 108.5H19C17.3431 108.5 16 107.157 16 105.5V100.5Z" fill="#F5F5F3"/>
<circle cx="176" cy="24" r="16" fill="#C5C5C4"/>
<path fill-rule="evenodd" clip-rule="evenodd" d="M179.279 25.0004H172.648C172.751 27.8148 173.283 30.2673 174.03 32.0121C174.45 32.9899 174.897 33.6534 175.292 34.0434C175.679 34.4249 175.903 34.4448 175.963 34.4448C176.023 34.4448 176.248 34.4249 176.635 34.0434C177.03 33.6534 177.477 32.9899 177.896 32.0121C178.644 30.2673 179.176 27.8148 179.279 25.0004ZM172.648 23.0004C172.751 20.186 173.283 17.7334 174.03 15.9886C174.45 15.0109 174.897 14.3474 175.292 13.9573C175.679 13.5758 175.903 13.5559 175.963 13.5559C176.023 13.5559 176.248 13.5758 176.635 13.9573C177.03 14.3474 177.477 15.0109 177.896 15.9886C178.644 17.7334 179.176 20.186 179.279 23.0004H172.648ZM170.647 23.0004H165.343C165.751 18.6091 168.821 14.9903 172.924 13.7729C171.648 15.8417 170.777 19.1778 170.647 23.0004ZM170.647 25.0004H165.343C165.751 29.3916 168.821 33.0104 172.924 34.2278C171.648 32.159 170.777 28.8229 170.647 25.0004ZM181.28 25.0004H186.584C186.176 29.3916 183.105 33.0104 179.003 34.2278C180.279 32.159 181.15 28.8229 181.28 25.0004ZM186.584 23.0004H181.28C181.15 19.1778 180.279 15.8417 179.003 13.7729C183.105 14.9903 186.176 18.6091 186.584 23.0004Z" fill="#F5F5F3"/>
<rect x="80" y="43.5" width="44" height="43" rx="3" fill="#F5F5F3"/>
<rect x="84.5" y="47.5" width="35" height="35" rx="8.5" fill="#9E9E9D"/>
<path fill-rule="evenodd" clip-rule="evenodd" d="M104.594 58.8906C104.223 58.3342 103.598 58 102.93 58H101.07C100.402 58 99.7772 58.3342 99.4063 58.8906L98.9271 59.6094C98.5561 60.1658 97.9317 60.5 97.263 60.5H97C95.8954 60.5 95 61.3954 95 62.5V69C95 70.1046 95.8954 71 97 71H107C108.105 71 109 70.1046 109 69V62.5C109 61.3954 108.105 60.5 107 60.5H106.737C106.068 60.5 105.444 60.1658 105.073 59.6094L104.594 58.8906ZM105 65C105 66.6569 103.657 68 102 68C100.343 68 99 66.6569 99 65C99 63.3431 100.343 62 102 62C103.657 62 105 63.3431 105 65ZM105.5 62C105.224 62 105 62.2239 105 62.5C105 62.7761 105.224 63 105.5 63H107C107.276 63 107.5 62.7761 107.5 62.5C107.5 62.2239 107.276 62 107 62H105.5Z" fill="#FFD30F"/>
<rect x="84.5" y="47.5" width="35" height="35" rx="8.5" stroke="#FFD30F"/>
<g opacity="0.5">
<path d="M88 43H84C81.7909 43 80 44.7909 80 47V51" stroke="#FFD30F" stroke-linecap="round"/>
<path d="M124 51L124 47C124 44.7909 122.209 43 120 43L116 43" stroke="#FFD30F" stroke-linecap="round"/>
<path d="M116 87L120 87C122.209 87 124 85.2091 124 83L124 79" stroke="#FFD30F" stroke-linecap="round"/>
<path d="M80 79L80 83C80 85.2091 81.7909 87 84 87L88 87" stroke="#FFD30F" stroke-linecap="round"/>
</g>
</svg>
