<svg width="14" height="14" viewBox="0 0 14 14" fill="none" xmlns="http://www.w3.org/2000/svg">
<path fill-rule="evenodd" clip-rule="evenodd" d="M4.66667 4.08325C5.311 4.08325 5.83333 3.56092 5.83333 2.91659C5.83333 2.27225 5.311 1.74992 4.66667 1.74992C4.02233 1.74992 3.5 2.27225 3.5 2.91659C3.5 3.56092 4.02233 4.08325 4.66667 4.08325ZM1.55556 7.58325C1.34078 7.58325 1.16667 7.75736 1.16667 7.97214V9.91659H3.52758C3.5094 10.0436 3.5 10.1735 3.5 10.3056V11.0833H1.16667H0V9.91659V7.97214C0 7.11303 0.696447 6.41659 1.55556 6.41659H4.66667H6.03246C6.1861 6.85131 6.42318 7.24661 6.72447 7.58325H1.55556ZM4.66667 0.583252C5.86668 0.583252 6.8551 1.48912 6.98543 2.65433C6.35215 3.22751 5.92959 4.02919 5.84783 4.92931C5.50137 5.13306 5.09767 5.24992 4.66667 5.24992C3.378 5.24992 2.33333 4.20525 2.33333 2.91659C2.33333 1.62792 3.378 0.583252 4.66667 0.583252Z" fill="#141717"/>
<path d="M11.0834 5.25008C11.0834 6.21658 10.2999 7.00008 9.33342 7.00008C8.36691 7.00008 7.58342 6.21658 7.58342 5.25008C7.58342 4.28358 8.36691 3.50008 9.33342 3.50008C10.2999 3.50008 11.0834 4.28358 11.0834 5.25008ZM5.25008 10.3056C5.25008 9.76869 5.68536 9.33342 6.2223 9.33342H12.4445C12.9815 9.33342 13.4167 9.76869 13.4167 10.3056V12.8334H5.25008V10.3056Z" stroke="#141717" stroke-width="1.16667"/>
</svg>
