<svg width="80" height="80" viewBox="0 0 80 80" fill="none" xmlns="http://www.w3.org/2000/svg">
<path d="M66.2715 25.0219H2.96423V64.9682H66.2715V25.0219Z" fill="#C5C5C4"/>
<path d="M60.2938 17.978H2.96423V25.0201H60.2938V17.978Z" fill="#9E9E9D"/>
<path d="M2.98535 12.0912H22.0893L28.067 17.9625H2.98535V12.0912Z" fill="#C5C5C4"/>
<path d="M48.3395 33.2314H36.4017V36.7613H48.3395V33.2314Z" fill="#9E9E9D"/>
<path d="M59.0888 40.2922H36.4017V43.8221H59.0888V40.2922Z" fill="white"/>
<path d="M59.0888 47.3362H36.4017V50.866H59.0888V47.3362Z" fill="white"/>
<path d="M59.0888 54.3969H36.4017V57.9268H59.0888V54.3969Z" fill="white"/>
<path d="M30.4212 33.2314H11.3173V57.9051H30.4212V33.2314Z" fill="white"/>
<path d="M21.485 47.3337C24.4533 47.3337 26.8596 44.9671 26.8596 42.0478C26.8596 39.1284 24.4533 36.7618 21.485 36.7618C18.5167 36.7618 16.1104 39.1284 16.1104 42.0478C16.1104 44.9671 18.5167 47.3337 21.485 47.3337Z" fill="#FFD30F"/>
<path d="M16.8693 49.6799H11.3173V57.9104H30.4212V49.6799H25.49L21.1796 53.7952L16.8693 49.6799Z" fill="#9E9E9D"/>
<path d="M63.879 67.0981C69.4826 67.0981 74.0252 62.627 74.0252 57.1116C74.0252 51.5961 69.4826 47.125 63.879 47.125C58.2754 47.125 53.7328 51.5961 53.7328 57.1116C53.7328 62.627 58.2754 67.0981 63.879 67.0981Z" fill="#202323"/>
<path fill-rule="evenodd" clip-rule="evenodd" d="M63.8743 71.2668C66.5108 71.2248 69.0761 70.4045 71.2477 68.9088C73.4193 67.4131 75.1004 65.3089 76.0796 62.8606C77.0588 60.4123 77.2924 57.7291 76.7511 55.1484C76.2098 52.5677 74.9178 50.2046 73.0374 48.3561C71.1569 46.5076 68.772 45.2562 66.1825 44.7592C63.5929 44.2621 60.9141 44.5417 58.483 45.5626C56.0518 46.5836 53.9766 48.3004 52.5183 50.4973C51.0601 52.6942 50.2837 55.2731 50.2869 57.91C50.3197 61.4823 51.7691 64.8955 54.3167 67.3999C56.8644 69.9044 60.3019 71.2951 63.8743 71.2668ZM70.9695 54.0608C71.1611 53.8386 71.2624 53.5526 71.2531 53.2594C71.2439 52.9661 71.1249 52.687 70.9197 52.4773C70.7144 52.2676 70.438 52.1427 70.145 52.1271C69.852 52.1116 69.5639 52.2066 69.3376 52.3934L62.2424 59.329L58.4819 55.6395C58.2626 55.4218 57.9661 55.2996 57.6571 55.2996C57.348 55.2996 57.0515 55.4218 56.8322 55.6395C56.7223 55.7469 56.6349 55.8752 56.5753 56.0168C56.5156 56.1585 56.4849 56.3106 56.4849 56.4643C56.4849 56.618 56.5156 56.7701 56.5753 56.9118C56.6349 57.0534 56.7223 57.1818 56.8322 57.2891L61.4087 61.7946C61.6272 62.007 61.9199 62.1258 62.2246 62.1258C62.5293 62.1258 62.8221 62.007 63.0406 61.7946L70.9695 54.0608Z" fill="#FFD30F"/>
<path d="M14.7052 67.3108L18.0755 70.6278L14.7052 73.9626L11.3173 70.6278L14.7052 67.3108Z" fill="#D9D9D9"/>
<path d="M35.9924 7.40793L39.3804 10.725L35.9924 14.0597L32.6222 10.725L35.9924 7.40793Z" fill="#D9D9D9"/>
<path d="M72.1283 37.9358H69.7336V40.2772H72.1283V37.9358Z" fill="#D9D9D9"/>
</svg>
