<svg width="432" height="275" viewBox="0 0 432 275" fill="none" xmlns="http://www.w3.org/2000/svg">
<g clip-path="url(#clip0_2717_4348)">
<path d="M10.0758 0.516746H421.924C427.203 0.516746 431.483 4.79648 431.483 10.0758V264.49C431.483 269.769 427.203 274.049 421.924 274.049H10.0758C4.79648 274.049 0.516746 269.769 0.516746 264.49V10.0758C0.516746 4.79648 4.79648 0.516746 10.0758 0.516746Z" fill="#F4F5F6" stroke="#D7D9DE" stroke-width="1.03349"/>
<path d="M378.601 134.763H242.698C238.735 134.763 235.522 137.976 235.522 141.94V222.674C235.522 226.637 238.735 229.85 242.698 229.85H378.601C382.564 229.85 385.777 226.637 385.777 222.674V141.94C385.777 137.976 382.564 134.763 378.601 134.763Z" fill="#D7D9DE"/>
<path d="M262.693 146.88H245.803C244.586 146.88 243.6 147.866 243.6 149.083V156.427C243.6 157.643 244.586 158.63 245.803 158.63H262.693C263.909 158.63 264.896 157.643 264.896 156.427V149.083C264.896 147.866 263.909 146.88 262.693 146.88Z" fill="#F4F5F6"/>
<path d="M374.681 146.88H272.607C271.593 146.88 270.771 147.702 270.771 148.716C270.771 149.73 271.593 150.552 272.607 150.552H374.681C375.695 150.552 376.517 149.73 376.517 148.716C376.517 147.702 375.695 146.88 374.681 146.88Z" fill="#F4F5F6"/>
<path d="M374.681 154.958H272.607C271.593 154.958 270.771 155.78 270.771 156.794V156.794C270.771 157.808 271.593 158.63 272.607 158.63H374.681C375.695 158.63 376.517 157.808 376.517 156.794C376.517 155.78 375.695 154.958 374.681 154.958Z" fill="#F4F5F6"/>
<path d="M364.4 166.708H354.12C353.106 166.708 352.284 167.53 352.284 168.543C352.284 169.557 353.106 170.379 354.12 170.379H364.4C365.414 170.379 366.236 169.557 366.236 168.543C366.236 167.53 365.414 166.708 364.4 166.708Z" fill="#F4F5F6"/>
<path d="M312.995 166.708H302.714C301.7 166.708 300.878 167.53 300.878 168.543C300.878 169.557 301.7 170.379 302.714 170.379H312.995C314.009 170.379 314.831 169.557 314.831 168.543C314.831 167.53 314.009 166.708 312.995 166.708Z" fill="#F4F5F6"/>
<path d="M374.681 174.052H354.12C353.106 174.052 352.284 174.874 352.284 175.887V175.887C352.284 176.901 353.106 177.723 354.12 177.723H374.681C375.695 177.723 376.517 176.901 376.517 175.887V175.887C376.517 174.874 375.695 174.052 374.681 174.052Z" fill="#F4F5F6"/>
<path d="M323.276 174.052H302.714C301.7 174.052 300.878 174.874 300.878 175.887V175.887C300.878 176.901 301.7 177.723 302.714 177.723H323.276C324.29 177.723 325.112 176.901 325.112 175.887V175.887C325.112 174.874 324.29 174.052 323.276 174.052Z" fill="#F4F5F6"/>
<path d="M364.4 186.535H354.12C353.106 186.535 352.284 187.357 352.284 188.371C352.284 189.385 353.106 190.207 354.12 190.207H364.4C365.414 190.207 366.236 189.385 366.236 188.371C366.236 187.357 365.414 186.535 364.4 186.535Z" fill="#F4F5F6"/>
<path d="M312.995 186.535H302.714C301.7 186.535 300.878 187.357 300.878 188.371C300.878 189.385 301.7 190.207 302.714 190.207H312.995C314.009 190.207 314.831 189.385 314.831 188.371C314.831 187.357 314.009 186.535 312.995 186.535Z" fill="#F4F5F6"/>
<path d="M374.681 193.878H354.12C353.106 193.878 352.284 194.7 352.284 195.714V195.714C352.284 196.728 353.106 197.55 354.12 197.55H374.681C375.695 197.55 376.517 196.728 376.517 195.714V195.714C376.517 194.7 375.695 193.878 374.681 193.878Z" fill="#F4F5F6"/>
<path d="M323.276 193.878H302.714C301.7 193.878 300.878 194.7 300.878 195.714V195.714C300.878 196.728 301.7 197.55 302.714 197.55H323.276C324.29 197.55 325.112 196.728 325.112 195.714V195.714C325.112 194.7 324.29 193.878 323.276 193.878Z" fill="#F4F5F6"/>
<path d="M364.4 206.363H354.12C353.106 206.363 352.284 207.185 352.284 208.199V208.199C352.284 209.213 353.106 210.034 354.12 210.034H364.4C365.414 210.034 366.236 209.213 366.236 208.199V208.199C366.236 207.185 365.414 206.363 364.4 206.363Z" fill="#F4F5F6"/>
<path d="M312.995 206.363H302.714C301.7 206.363 300.878 207.185 300.878 208.199V208.199C300.878 209.213 301.7 210.034 302.714 210.034H312.995C314.009 210.034 314.831 209.213 314.831 208.199V208.199C314.831 207.185 314.009 206.363 312.995 206.363Z" fill="#F4F5F6"/>
<path d="M374.681 213.706H354.12C353.106 213.706 352.284 214.528 352.284 215.542V215.542C352.284 216.555 353.106 217.377 354.12 217.377H374.681C375.695 217.377 376.517 216.555 376.517 215.542V215.542C376.517 214.528 375.695 213.706 374.681 213.706Z" fill="#F4F5F6"/>
<path d="M323.276 213.706H302.714C301.7 213.706 300.878 214.528 300.878 215.542V215.542C300.878 216.555 301.7 217.377 302.714 217.377H323.276C324.29 217.377 325.112 216.555 325.112 215.542V215.542C325.112 214.528 324.29 213.706 323.276 213.706Z" fill="#F4F5F6"/>
<path d="M286.192 166.708H245.803C244.586 166.708 243.6 167.694 243.6 168.911V215.175C243.6 216.391 244.586 217.378 245.803 217.378H286.192C287.408 217.378 288.395 216.391 288.395 215.175V168.911C288.395 167.694 287.408 166.708 286.192 166.708Z" fill="#F4F5F6"/>
<path d="M265.998 193.878C271.878 193.878 276.646 189.111 276.646 183.23C276.646 177.349 271.878 172.582 265.998 172.582C260.117 172.582 255.35 177.349 255.35 183.23C255.35 189.111 260.117 193.878 265.998 193.878Z" fill="#D7D9DE"/>
<path d="M247.271 208.565C247.271 202.482 252.203 197.55 258.286 197.55H273.708C279.791 197.55 284.723 202.482 284.723 208.565V212.237C284.723 213.453 283.736 214.44 282.519 214.44H249.473C248.257 214.44 247.271 213.453 247.271 212.237V208.565Z" fill="#D7D9DE"/>
<path d="M379.885 30.2276H241.414C238.16 30.2276 235.522 32.8657 235.522 36.12V120.086C235.522 123.34 238.16 125.979 241.414 125.979H379.885C383.139 125.979 385.777 123.34 385.777 120.086V36.12C385.777 32.8657 383.139 30.2276 379.885 30.2276Z" fill="#D7D9DE"/>
<path fill-rule="evenodd" clip-rule="evenodd" d="M282.423 55.8086L277.276 65.1101L271.943 55.8086H266.641L274.888 69.5437V78.5041H279.384V69.5747L287.29 55.8086H282.423ZM308.892 55.8086H312.303V78.5041H308.024V63.8699L302.257 72.4582H299.901L294.103 63.8079V78.5041H289.855V55.8086H293.421L301.172 67.5594L308.892 55.8086ZM321.571 68.9237H330.78V65.0481H321.571V59.7152H331.865V55.8086H317.075V78.5041H332.206V74.5665H321.571V68.9237ZM347.225 66.8773L355.193 55.8086H349.984L344.775 63.3118L339.567 55.8086H334.079L342.016 66.9703L333.707 78.5041H338.915L344.465 70.5359L349.984 78.5041H355.565L347.225 66.8773Z" fill="#F4F5F6"/>
<path d="M267.568 104.98C267.333 104.98 267.119 104.962 266.926 104.922C266.733 104.887 266.589 104.849 266.495 104.807L266.873 103.518C267.161 103.595 267.417 103.628 267.641 103.618C267.867 103.608 268.064 103.523 268.237 103.366C268.411 103.208 268.566 102.95 268.699 102.592L268.894 102.056L265.937 93.8701H267.621L269.667 100.141H269.752L271.798 93.8701H273.487L270.156 103.029C270.002 103.45 269.805 103.806 269.567 104.096C269.329 104.391 269.045 104.612 268.715 104.76C268.385 104.907 268.003 104.98 267.568 104.98ZM275.959 104.98C275.724 104.98 275.51 104.962 275.317 104.922C275.124 104.887 274.98 104.849 274.885 104.807L275.264 103.518C275.552 103.595 275.808 103.628 276.032 103.618C276.256 103.608 276.455 103.523 276.626 103.366C276.802 103.208 276.956 102.95 277.089 102.592L277.285 102.056L274.328 93.8701H276.011L278.058 100.141H278.142L280.188 93.8701H281.877L278.547 103.029C278.393 103.45 278.196 103.806 277.958 104.096C277.719 104.391 277.435 104.612 277.106 104.76C276.776 104.907 276.394 104.98 275.959 104.98ZM284.35 104.98C284.114 104.98 283.9 104.962 283.708 104.922C283.515 104.887 283.371 104.849 283.276 104.807L283.655 103.518C283.943 103.595 284.199 103.628 284.423 103.618C284.647 103.608 284.846 103.523 285.017 103.366C285.193 103.208 285.347 102.95 285.48 102.592L285.675 102.056L282.719 93.8701H284.402L286.449 100.141H286.532L288.579 93.8701H290.267L286.938 103.029C286.784 103.45 286.587 103.806 286.348 104.096C286.11 104.391 285.826 104.612 285.496 104.76C285.166 104.907 284.784 104.98 284.35 104.98ZM292.74 104.98C292.505 104.98 292.291 104.962 292.098 104.922C291.906 104.887 291.762 104.849 291.667 104.807L292.046 103.518C292.333 103.595 292.589 103.628 292.814 103.618C293.038 103.608 293.237 103.523 293.408 103.366C293.584 103.208 293.738 102.95 293.871 102.592L294.066 102.056L291.109 93.8701H292.792L294.839 100.141H294.923L296.97 93.8701H298.658L295.329 103.029C295.173 103.45 294.977 103.806 294.739 104.096C294.501 104.391 294.216 104.612 293.887 104.76C293.557 104.907 293.175 104.98 292.74 104.98ZM304.898 96.7161V98.0786H300.121V96.7161H304.898ZM306.994 101.95V93.8701H308.503V95.1853H308.604C308.772 94.7399 309.047 94.3927 309.429 94.1436C309.812 93.8912 310.27 93.7649 310.802 93.7649C311.342 93.7649 311.795 93.8912 312.16 94.1436C312.528 94.3961 312.8 94.7434 312.975 95.1853H313.059C313.252 94.7539 313.559 94.4102 313.98 94.1542C314.401 93.8947 314.902 93.7649 315.485 93.7649C316.217 93.7649 316.815 93.9946 317.278 94.454C317.745 94.9135 317.978 95.6061 317.978 96.5319V101.95H316.405V96.6793C316.405 96.1322 316.256 95.7358 315.958 95.4904C315.659 95.2449 315.304 95.1222 314.889 95.1222C314.378 95.1222 313.98 95.28 313.696 95.5956C313.412 95.9077 313.27 96.3093 313.27 96.8002V101.95H311.702V96.5794C311.702 96.141 311.565 95.7885 311.292 95.5219C311.018 95.2554 310.662 95.1222 310.223 95.1222C309.926 95.1222 309.651 95.201 309.397 95.3588C309.148 95.5132 308.947 95.7288 308.793 96.0059C308.642 96.283 308.567 96.6039 308.567 96.9686V101.95H306.994ZM320.086 101.95V93.8701H321.596V95.1853H321.696C321.864 94.7399 322.139 94.3927 322.522 94.1436C322.904 93.8912 323.362 93.7649 323.894 93.7649C324.435 93.7649 324.887 93.8912 325.252 94.1436C325.62 94.3961 325.892 94.7434 326.068 95.1853H326.151C326.345 94.7539 326.652 94.4102 327.072 94.1542C327.493 93.8947 327.994 93.7649 328.577 93.7649C329.31 93.7649 329.908 93.9946 330.37 94.454C330.837 94.9135 331.07 95.6061 331.07 96.5319V101.95H329.497V96.6793C329.497 96.1322 329.348 95.7358 329.05 95.4904C328.752 95.2449 328.396 95.1222 327.983 95.1222C327.47 95.1222 327.072 95.28 326.788 95.5956C326.504 95.9077 326.362 96.3093 326.362 96.8002V101.95H324.794V96.5794C324.794 96.141 324.658 95.7885 324.384 95.5219C324.11 95.2554 323.755 95.1222 323.317 95.1222C323.018 95.1222 322.743 95.201 322.49 95.3588C322.241 95.5132 322.039 95.7288 321.885 96.0059C321.734 96.283 321.659 96.6039 321.659 96.9686V101.95H320.086ZM337.939 96.7161V98.0786H333.163V96.7161H337.939ZM343.06 102.108C342.408 102.108 341.826 101.942 341.314 101.608C340.805 101.272 340.405 100.793 340.115 100.172C339.827 99.5481 339.683 98.7993 339.683 97.926C339.683 97.0528 339.829 96.3058 340.12 95.685C340.415 95.0643 340.818 94.5891 341.329 94.2594C341.842 93.9297 342.423 93.7649 343.071 93.7649C343.573 93.7649 343.976 93.8491 344.281 94.0175C344.59 94.1822 344.828 94.3752 344.996 94.5961C345.169 94.8171 345.302 95.0117 345.396 95.18H345.491V91.1767H347.064V101.95H345.527V100.693H345.396C345.302 100.865 345.165 101.061 344.986 101.282C344.81 101.503 344.568 101.696 344.26 101.861C343.951 102.026 343.551 102.108 343.06 102.108ZM343.408 100.767C343.86 100.767 344.243 100.648 344.555 100.409C344.87 100.167 345.109 99.8322 345.27 99.4043C345.434 98.9765 345.517 98.4784 345.517 97.9103C345.517 97.3491 345.436 96.8581 345.275 96.4373C345.114 96.0164 344.877 95.6885 344.565 95.4536C344.253 95.2186 343.868 95.1011 343.408 95.1011C342.934 95.1011 342.539 95.2239 342.224 95.4693C341.908 95.7149 341.67 96.0497 341.509 96.4741C341.351 96.8985 341.271 97.3772 341.271 97.9103C341.271 98.4503 341.353 98.9361 341.514 99.3674C341.675 99.7988 341.913 100.141 342.229 100.393C342.549 100.642 342.942 100.767 343.408 100.767ZM352.334 102.108C351.682 102.108 351.099 101.942 350.587 101.608C350.079 101.272 349.679 100.793 349.387 100.172C349.1 99.5481 348.956 98.7993 348.956 97.926C348.956 97.0528 349.102 96.3058 349.393 95.685C349.687 95.0643 350.091 94.5891 350.603 94.2594C351.115 93.9297 351.695 93.7649 352.344 93.7649C352.845 93.7649 353.249 93.8491 353.554 94.0175C353.862 94.1822 354.101 94.3752 354.27 94.5961C354.441 94.8171 354.575 95.0117 354.67 95.18H354.764V91.1767H356.337V101.95H354.801V100.693H354.67C354.575 100.865 354.438 101.061 354.259 101.282C354.084 101.503 353.842 101.696 353.533 101.861C353.225 102.026 352.825 102.108 352.334 102.108ZM352.681 100.767C353.133 100.767 353.515 100.648 353.827 100.409C354.144 100.167 354.382 99.8322 354.544 99.4043C354.708 98.9765 354.791 98.4784 354.791 97.9103C354.791 97.3491 354.71 96.8581 354.549 96.4373C354.387 96.0164 354.151 95.6885 353.839 95.4536C353.527 95.2186 353.14 95.1011 352.681 95.1011C352.208 95.1011 351.813 95.2239 351.497 95.4693C351.182 95.7149 350.943 96.0497 350.782 96.4741C350.623 96.8985 350.545 97.3772 350.545 97.9103C350.545 98.4503 350.626 98.9361 350.787 99.3674C350.948 99.7988 351.187 100.141 351.503 100.393C351.821 100.642 352.214 100.767 352.681 100.767Z" fill="#F4F5F6"/>
<path d="M150.052 98.9308C150.052 121.982 131.365 140.668 108.314 140.668C85.2633 140.668 66.5768 121.982 66.5768 98.9308C66.5768 75.8799 85.2633 57.1934 108.314 57.1934C131.365 57.1934 150.052 75.8799 150.052 98.9308Z" fill="#D7D9DE" stroke="#F4F5F6" stroke-width="1.03349"/>
<path d="M34.5226 199.466C34.5226 175.61 53.8615 156.272 77.717 156.272H138.913C162.769 156.272 182.108 175.61 182.108 199.466V214.036C182.108 218.579 178.424 222.262 173.882 222.262H42.7481C38.2053 222.262 34.5226 218.579 34.5226 214.036V199.466Z" fill="#D7D9DE" stroke="#F4F5F6" stroke-width="1.03349"/>
<path d="M53.5278 178.846C53.5278 169.455 45.9153 161.843 36.5249 161.843C27.1344 161.843 19.522 169.455 19.522 178.846V212.852C19.522 222.242 27.1344 229.855 36.5249 229.855C45.9153 229.855 53.5278 222.242 53.5278 212.852V178.846Z" fill="#D7D9DE" stroke="#F4F5F6" stroke-width="6.29737"/>
<path d="M199.627 178.846C199.627 169.455 192.014 161.843 182.624 161.843C173.234 161.843 165.621 169.455 165.621 178.846V212.852C165.621 222.242 173.234 229.855 182.624 229.855C192.014 229.855 199.627 222.242 199.627 212.852V178.846Z" fill="#D7D9DE" stroke="#F4F5F6" stroke-width="6.29737"/>
<path d="M69.2708 182.624H35.265C33.8739 182.624 32.7461 183.752 32.7461 185.143V209.073C32.7461 210.465 33.8739 211.592 35.265 211.592H69.2708C70.662 211.592 71.7898 210.465 71.7898 209.073V185.143C71.7898 183.752 70.662 182.624 69.2708 182.624Z" fill="#F4F5F6"/>
<path d="M180.104 182.624H146.099C144.707 182.624 143.58 183.752 143.58 185.143V209.073C143.58 210.465 144.707 211.592 146.099 211.592H180.104C181.496 211.592 182.623 210.465 182.623 209.073V185.143C182.623 183.752 181.496 182.624 180.104 182.624Z" fill="#F4F5F6"/>
<path d="M40.3032 181.994V49.1196C40.3032 47.7284 41.431 46.6005 42.8222 46.6005H223.557" stroke="#D7D9DE" stroke-width="1.25948" stroke-linecap="round"/>
<path d="M182.625 197.737H223.557" stroke="#D7D9DE" stroke-width="1.25948" stroke-linecap="round"/>
<path d="M182.625 197.737H195.848" stroke="#F4F5F6" stroke-width="1.25948" stroke-linecap="round"/>
<path d="M40.3032 186.403V165.621" stroke="#F4F5F6" stroke-width="1.25948" stroke-linecap="round"/>
<path d="M219.779 51.6383L223.63 47.7879C224.285 47.1321 224.285 46.0688 223.63 45.4129L219.779 41.5626" stroke="#D7D9DE" stroke-width="1.25948" stroke-linecap="round"/>
<path d="M219.779 202.775L223.63 198.925C224.285 198.269 224.285 197.206 223.63 196.551L219.779 192.7" stroke="#D7D9DE" stroke-width="1.25948" stroke-linecap="round"/>
<path d="M380.362 51.6382C388.013 51.6382 394.216 45.4354 394.216 37.784C394.216 30.1325 388.013 23.9298 380.362 23.9298C372.71 23.9298 366.507 30.1325 366.507 37.784C366.507 45.4354 372.71 51.6382 380.362 51.6382Z" fill="#F4F5F6"/>
<path fill-rule="evenodd" clip-rule="evenodd" d="M380.361 49.1195C386.621 49.1195 391.697 44.0445 391.697 37.7842C391.697 31.5239 386.621 26.4489 380.361 26.4489C374.101 26.4489 369.026 31.5239 369.026 37.7842C369.026 44.0445 374.101 49.1195 380.361 49.1195ZM386.319 34.485C386.688 34.1161 386.688 33.518 386.319 33.1491C385.95 32.7802 385.352 32.7802 384.983 33.1491L379.3 38.8323C379.177 38.9551 378.977 38.9551 378.854 38.8323L375.929 35.9058C375.56 35.537 374.961 35.537 374.592 35.9058C374.223 36.2747 374.223 36.8728 374.592 37.2417L377.519 40.168C378.379 41.0288 379.775 41.0288 380.636 40.168L386.319 34.485Z" fill="#D7D9DE"/>
<path d="M380.362 167.51C388.013 167.51 394.216 161.307 394.216 153.656C394.216 146.004 388.013 139.801 380.362 139.801C372.71 139.801 366.507 146.004 366.507 153.656C366.507 161.307 372.71 167.51 380.362 167.51Z" fill="#F4F5F6"/>
<path fill-rule="evenodd" clip-rule="evenodd" d="M380.361 164.991C386.621 164.991 391.697 159.916 391.697 153.656C391.697 147.396 386.621 142.32 380.361 142.32C374.101 142.32 369.026 147.396 369.026 153.656C369.026 159.916 374.101 164.991 380.361 164.991ZM386.319 150.357C386.688 149.988 386.688 149.389 386.319 149.02C385.95 148.652 385.352 148.652 384.983 149.02L379.3 154.704C379.177 154.827 378.977 154.827 378.854 154.704L375.929 151.778C375.56 151.409 374.961 151.409 374.592 151.778C374.223 152.147 374.223 152.744 374.592 153.113L377.519 156.04C378.379 156.901 379.775 156.901 380.636 156.04L386.319 150.357Z" fill="#D7D9DE"/>
<path d="M240.56 110.204H192.7C190.613 110.204 188.921 111.896 188.921 113.983V160.583C188.921 162.67 190.613 164.362 192.7 164.362H240.56C242.647 164.362 244.338 162.67 244.338 160.583V113.983C244.338 111.896 242.647 110.204 240.56 110.204Z" fill="#F4F5F6"/>
<path d="M227.336 115.414H204.665C198.753 115.414 193.959 120.207 193.959 126.12V148.79C193.959 154.703 198.753 159.496 204.665 159.496H227.336C233.248 159.496 238.041 154.703 238.041 148.79V126.12C238.041 120.207 233.248 115.414 227.336 115.414Z" fill="#D7D9DE"/>
<path fill-rule="evenodd" clip-rule="evenodd" d="M219.267 129.76C218.8 129.059 218.013 128.638 217.171 128.638H214.829C213.987 128.638 213.2 129.059 212.733 129.76L212.129 130.666C211.662 131.366 210.876 131.787 210.033 131.787H209.703C208.312 131.787 207.183 132.914 207.183 134.306V142.493C207.183 143.884 208.312 145.011 209.703 145.011H222.297C223.688 145.011 224.817 143.884 224.817 142.493V134.306C224.817 132.914 223.688 131.787 222.297 131.787H221.966C221.124 131.787 220.337 131.366 219.87 130.666L219.267 129.76ZM219.778 137.455C219.778 139.541 218.086 141.233 216 141.233C213.913 141.233 212.221 139.541 212.221 137.455C212.221 135.368 213.913 133.676 216 133.676C218.086 133.676 219.778 135.368 219.778 137.455ZM220.408 133.676C220.06 133.676 219.778 133.958 219.778 134.306C219.778 134.654 220.06 134.936 220.408 134.936H222.297C222.645 134.936 222.927 134.654 222.927 134.306C222.927 133.958 222.645 133.676 222.297 133.676H220.408Z" fill="#07828B"/>
<path d="M227.336 115.414H204.665C198.753 115.414 193.959 120.207 193.959 126.12V148.79C193.959 154.703 198.753 159.496 204.665 159.496H227.336C233.248 159.496 238.041 154.703 238.041 148.79V126.12C238.041 120.207 233.248 115.414 227.336 115.414Z" stroke="#07828B" stroke-width="1.25948"/>
<g opacity="0.5">
<path d="M198.997 109.574H193.959C191.176 109.574 188.921 111.83 188.921 114.612V119.651" stroke="#07828B" stroke-width="1.25948" stroke-linecap="round"/>
<path d="M244.338 119.651V114.612C244.338 111.83 242.082 109.574 239.3 109.574H234.263" stroke="#07828B" stroke-width="1.25948" stroke-linecap="round"/>
<path d="M234.263 164.991H239.3C242.082 164.991 244.338 162.736 244.338 159.954V154.915" stroke="#07828B" stroke-width="1.25948" stroke-linecap="round"/>
<path d="M188.921 154.915V159.954C188.921 162.736 191.176 164.991 193.959 164.991H198.997" stroke="#07828B" stroke-width="1.25948" stroke-linecap="round"/>
</g>
</g>
<defs>
<clipPath id="clip0_2717_4348">
<rect width="432" height="274.909" fill="white"/>
</clipPath>
</defs>
</svg>
