<svg width="418" height="266" viewBox="0 0 418 266" fill="none" xmlns="http://www.w3.org/2000/svg">
<rect width="418" height="265.668" rx="9.74927" fill="#F5F5F3"/>
<rect x="227.889" y="130.396" width="145.386" height="92.0055" rx="6.94381" fill="#C5C5C4"/>
<rect x="235.705" y="142.12" width="20.6059" height="11.3688" rx="2.13165" fill="#F5F5F3"/>
<rect x="261.996" y="142.12" width="102.319" height="3.55275" rx="1.77637" fill="#F5F5F3"/>
<rect x="261.996" y="149.936" width="102.319" height="3.55275" rx="1.77637" fill="#F5F5F3"/>
<rect x="340.867" y="161.305" width="13.5004" height="3.55275" rx="1.77637" fill="#F5F5F3"/>
<rect x="291.128" y="161.305" width="13.5004" height="3.55275" rx="1.77637" fill="#F5F5F3"/>
<rect x="340.867" y="168.411" width="23.4481" height="3.55275" rx="1.77637" fill="#F5F5F3"/>
<rect x="291.128" y="168.411" width="23.4481" height="3.55275" rx="1.77637" fill="#F5F5F3"/>
<rect x="340.867" y="180.49" width="13.5004" height="3.55275" rx="1.77637" fill="#F5F5F3"/>
<rect x="291.128" y="180.49" width="13.5004" height="3.55275" rx="1.77637" fill="#F5F5F3"/>
<rect x="340.867" y="187.595" width="23.4481" height="3.55275" rx="1.77637" fill="#F5F5F3"/>
<rect x="291.128" y="187.595" width="23.4481" height="3.55275" rx="1.77637" fill="#F5F5F3"/>
<rect x="340.867" y="199.675" width="13.5004" height="3.55275" rx="1.77637" fill="#F5F5F3"/>
<rect x="291.128" y="199.675" width="13.5004" height="3.55275" rx="1.77637" fill="#F5F5F3"/>
<rect x="340.867" y="206.78" width="23.4481" height="3.55275" rx="1.77637" fill="#F5F5F3"/>
<rect x="291.128" y="206.78" width="23.4481" height="3.55275" rx="1.77637" fill="#F5F5F3"/>
<rect x="235.705" y="161.305" width="43.3435" height="49.0279" rx="2.13165" fill="#F5F5F3"/>
<circle cx="257.377" cy="177.292" r="10.303" fill="#C5C5C4"/>
<path d="M239.258 201.806C239.258 195.92 244.03 191.148 249.916 191.148H264.838C270.724 191.148 275.496 195.92 275.496 201.806V205.359C275.496 206.536 274.541 207.491 273.364 207.491H241.389C240.212 207.491 239.258 206.536 239.258 205.359V201.806Z" fill="#C5C5C4"/>
<rect x="227.889" y="29.248" width="145.386" height="92.6479" rx="5.70141" fill="#C5C5C4"/>
<path d="M258.495 76.6465V54.0598H266.767C268.37 54.0598 269.697 54.3245 270.748 54.8539C271.799 55.3759 272.586 56.0854 273.108 56.9824C273.63 57.8721 273.891 58.8757 273.891 59.9932C273.891 60.9344 273.718 61.7284 273.373 62.3754C273.027 63.0151 272.564 63.5298 271.983 63.9194C271.41 64.3018 270.777 64.5812 270.086 64.7576V64.9782C270.836 65.015 271.568 65.2576 272.281 65.7061C273.002 66.1472 273.597 66.7759 274.068 67.592C274.538 68.4081 274.773 69.4007 274.773 70.5697C274.773 71.724 274.501 72.7607 273.957 73.6798C273.421 74.5915 272.59 75.3157 271.465 75.8524C270.34 76.3818 268.903 76.6465 267.153 76.6465H258.495ZM261.903 73.7239H266.822C268.454 73.7239 269.623 73.4077 270.329 72.7754C271.035 72.1431 271.388 71.3527 271.388 70.4043C271.388 69.6911 271.208 69.0367 270.847 68.4412C270.487 67.8456 269.972 67.3714 269.303 67.0185C268.642 66.6656 267.855 66.4891 266.943 66.4891H261.903V73.7239ZM261.903 63.8312H266.469C267.234 63.8312 267.921 63.6842 268.531 63.3901C269.149 63.096 269.638 62.6842 269.998 62.1549C270.366 61.6181 270.549 60.9858 270.549 60.2579C270.549 59.3242 270.222 58.5411 269.568 57.9088C268.914 57.2765 267.91 56.9604 266.557 56.9604H261.903V63.8312ZM277.073 54.0598H280.944L286.844 64.3275H287.087L292.987 54.0598H296.858L288.664 67.7795V76.6465H285.267V67.7795L277.073 54.0598ZM307.388 76.6465H300.076V54.0598H307.619C309.833 54.0598 311.733 54.512 313.321 55.4164C314.909 56.3134 316.126 57.6037 316.972 59.2874C317.825 60.9638 318.251 62.9747 318.251 65.3201C318.251 67.6729 317.821 69.6948 316.961 71.3858C316.108 73.0769 314.873 74.3783 313.255 75.29C311.638 76.1943 309.682 76.6465 307.388 76.6465ZM303.484 73.6688H307.2C308.921 73.6688 310.351 73.3452 311.491 72.6982C312.63 72.0439 313.483 71.0991 314.049 69.8639C314.615 68.6213 314.898 67.1067 314.898 65.3201C314.898 63.5481 314.615 62.0446 314.049 60.8094C313.49 59.5742 312.656 58.6367 311.546 57.9971C310.435 57.3574 309.057 57.0376 307.41 57.0376H303.484V73.6688ZM322.489 76.6465V54.0598H336.495V56.9935H325.897V63.8753H335.492V66.7979H325.897V76.6465H322.489ZM340.421 76.6465V59.7065H343.719V76.6465H340.421ZM342.087 57.0927C341.513 57.0927 341.021 56.9016 340.609 56.5192C340.205 56.1295 340.002 55.6663 340.002 55.1296C340.002 54.5855 340.205 54.1223 340.609 53.74C341.021 53.3503 341.513 53.1555 342.087 53.1555C342.66 53.1555 343.149 53.3503 343.554 53.74C343.965 54.1223 344.171 54.5855 344.171 55.1296C344.171 55.6663 343.965 56.1295 343.554 56.5192C343.149 56.9016 342.66 57.0927 342.087 57.0927Z" fill="#F5F5F3"/>
<path d="M258.897 101.578C258.67 101.578 258.463 101.56 258.276 101.522C258.089 101.488 257.95 101.451 257.859 101.41L258.225 100.163C258.503 100.238 258.751 100.27 258.968 100.26C259.186 100.25 259.377 100.168 259.544 100.016C259.713 99.863 259.863 99.6136 259.991 99.2675L260.18 98.7483L257.319 90.828H258.948L260.928 96.8955H261.01L262.99 90.828H264.624L261.401 99.69C261.252 100.097 261.062 100.442 260.831 100.723C260.601 101.008 260.326 101.222 260.007 101.365C259.688 101.507 259.318 101.578 258.897 101.578ZM267.016 101.578C266.789 101.578 266.582 101.56 266.395 101.522C266.208 101.488 266.069 101.451 265.977 101.41L266.344 100.163C266.622 100.238 266.87 100.27 267.087 100.26C267.304 100.25 267.496 100.168 267.662 100.016C267.832 99.863 267.981 99.6136 268.11 99.2675L268.299 98.7483L265.438 90.828H267.067L269.047 96.8955H269.128L271.108 90.828H272.742L269.52 99.69C269.371 100.097 269.181 100.442 268.95 100.723C268.719 101.008 268.444 101.222 268.126 101.365C267.807 101.507 267.437 101.578 267.016 101.578ZM275.135 101.578C274.907 101.578 274.7 101.56 274.514 101.522C274.327 101.488 274.188 101.451 274.096 101.41L274.463 100.163C274.741 100.238 274.989 100.27 275.206 100.26C275.423 100.25 275.615 100.168 275.781 100.016C275.951 99.863 276.1 99.6136 276.229 99.2675L276.417 98.7483L273.557 90.828H275.186L277.166 96.8955H277.247L279.227 90.828H280.861L277.639 99.69C277.49 100.097 277.3 100.442 277.069 100.723C276.838 101.008 276.563 101.222 276.244 101.365C275.925 101.507 275.555 101.578 275.135 101.578ZM283.253 101.578C283.026 101.578 282.819 101.56 282.632 101.522C282.446 101.488 282.307 101.451 282.215 101.41L282.582 100.163C282.86 100.238 283.107 100.27 283.325 100.26C283.542 100.25 283.734 100.168 283.9 100.016C284.07 99.863 284.219 99.6136 284.348 99.2675L284.536 98.7483L281.675 90.828H283.304L285.284 96.8955H285.366L287.346 90.828H288.98L285.758 99.69C285.608 100.097 285.418 100.442 285.188 100.723C284.957 101.008 284.682 101.222 284.363 101.365C284.044 101.507 283.674 101.578 283.253 101.578ZM295.017 93.5818V94.9001H290.395V93.5818H295.017ZM297.045 98.6465V90.828H298.506V92.1006H298.603C298.766 91.6696 299.032 91.3337 299.402 91.0927C299.772 90.8484 300.215 90.7262 300.73 90.7262C301.253 90.7262 301.691 90.8484 302.044 91.0927C302.4 91.337 302.663 91.673 302.833 92.1006H302.914C303.101 91.6832 303.398 91.3506 303.805 91.1029C304.212 90.8518 304.697 90.7262 305.261 90.7262C305.97 90.7262 306.548 90.9485 306.996 91.393C307.448 91.8376 307.673 92.5078 307.673 93.4036V98.6465H306.151V93.5462C306.151 93.0168 306.007 92.6333 305.719 92.3958C305.43 92.1583 305.086 92.0395 304.685 92.0395C304.19 92.0395 303.805 92.1922 303.53 92.4976C303.255 92.7996 303.118 93.1882 303.118 93.6632V98.6465H301.601V93.4495C301.601 93.0253 301.468 92.6842 301.204 92.4263C300.939 92.1684 300.595 92.0395 300.17 92.0395C299.882 92.0395 299.616 92.1158 299.371 92.2685C299.13 92.4179 298.935 92.6265 298.786 92.8946C298.64 93.1627 298.567 93.4732 298.567 93.8261V98.6465H297.045ZM309.713 98.6465V90.828H311.174V92.1006H311.271C311.434 91.6696 311.7 91.3337 312.07 91.0927C312.44 90.8484 312.883 90.7262 313.398 90.7262C313.921 90.7262 314.359 90.8484 314.712 91.0927C315.068 91.337 315.331 91.673 315.501 92.1006H315.582C315.769 91.6832 316.066 91.3506 316.473 91.1029C316.88 90.8518 317.365 90.7262 317.929 90.7262C318.638 90.7262 319.217 90.9485 319.664 91.393C320.116 91.8376 320.341 92.5078 320.341 93.4036V98.6465H318.819V93.5462C318.819 93.0168 318.675 92.6333 318.387 92.3958C318.098 92.1583 317.754 92.0395 317.354 92.0395C316.858 92.0395 316.473 92.1922 316.198 92.4976C315.923 92.7996 315.786 93.1882 315.786 93.6632V98.6465H314.269V93.4495C314.269 93.0253 314.137 92.6842 313.872 92.4263C313.607 92.1684 313.263 92.0395 312.839 92.0395C312.55 92.0395 312.284 92.1158 312.039 92.2685C311.798 92.4179 311.603 92.6265 311.454 92.8946C311.308 93.1627 311.235 93.4732 311.235 93.8261V98.6465H309.713ZM326.988 93.5818V94.9001H322.366V93.5818H326.988ZM331.943 98.7992C331.312 98.7992 330.749 98.638 330.253 98.3156C329.761 97.9899 329.374 97.5267 329.093 96.926C328.814 96.322 328.675 95.5975 328.675 94.7525C328.675 93.9076 328.816 93.1848 329.098 92.5841C329.383 91.9835 329.773 91.5237 330.268 91.2047C330.764 90.8857 331.326 90.7262 331.953 90.7262C332.439 90.7262 332.829 90.8077 333.124 90.9706C333.423 91.13 333.653 91.3167 333.816 91.5305C333.983 91.7443 334.112 91.9326 334.203 92.0955H334.295V88.2219H335.817V98.6465H334.33V97.4299H334.203C334.112 97.5962 333.979 97.7863 333.806 98C333.636 98.2138 333.402 98.4005 333.104 98.56C332.805 98.7194 332.418 98.7992 331.943 98.7992ZM332.279 97.5012C332.717 97.5012 333.087 97.3858 333.389 97.1551C333.694 96.9209 333.925 96.5969 334.081 96.1829C334.24 95.7689 334.32 95.287 334.32 94.7373C334.32 94.1943 334.242 93.7192 334.086 93.312C333.93 92.9048 333.701 92.5875 333.399 92.3602C333.097 92.1328 332.724 92.0191 332.279 92.0191C331.821 92.0191 331.439 92.1379 331.134 92.3754C330.828 92.613 330.598 92.937 330.442 93.3476C330.289 93.7583 330.212 94.2215 330.212 94.7373C330.212 95.2598 330.291 95.7298 330.447 96.1472C330.603 96.5646 330.833 96.8955 331.139 97.1398C331.448 97.3807 331.828 97.5012 332.279 97.5012ZM340.916 98.7992C340.285 98.7992 339.721 98.638 339.226 98.3156C338.734 97.9899 338.347 97.5267 338.065 96.926C337.787 96.322 337.648 95.5975 337.648 94.7525C337.648 93.9076 337.789 93.1848 338.07 92.5841C338.355 91.9835 338.746 91.5237 339.241 91.2047C339.737 90.8857 340.298 90.7262 340.926 90.7262C341.411 90.7262 341.801 90.8077 342.097 90.9706C342.395 91.13 342.626 91.3167 342.789 91.5305C342.955 91.7443 343.084 91.9326 343.176 92.0955H343.267V88.2219H344.789V98.6465H343.303V97.4299H343.176C343.084 97.5962 342.952 97.7863 342.779 98C342.609 98.2138 342.375 98.4005 342.076 98.56C341.778 98.7194 341.391 98.7992 340.916 98.7992ZM341.252 97.5012C341.689 97.5012 342.059 97.3858 342.361 97.1551C342.667 96.9209 342.898 96.5969 343.054 96.1829C343.213 95.7689 343.293 95.287 343.293 94.7373C343.293 94.1943 343.215 93.7192 343.059 93.312C342.903 92.9048 342.674 92.5875 342.372 92.3602C342.07 92.1328 341.696 92.0191 341.252 92.0191C340.794 92.0191 340.412 92.1379 340.106 92.3754C339.801 92.613 339.57 92.937 339.414 93.3476C339.261 93.7583 339.185 94.2215 339.185 94.7373C339.185 95.2598 339.263 95.7298 339.419 96.1472C339.575 96.5646 339.806 96.8955 340.112 97.1398C340.42 97.3807 340.8 97.5012 341.252 97.5012Z" fill="#F5F5F3"/>
<circle cx="104.804" cy="95.7247" r="40.8848" fill="#C5C5C4"/>
<path d="M32.9038 193.002C32.9038 169.643 51.8398 150.708 75.1984 150.708H134.411C157.77 150.708 176.706 169.643 176.706 193.002V207.1C176.706 211.772 172.918 215.559 168.247 215.559H41.3627C36.691 215.559 32.9038 211.772 32.9038 207.1V193.002Z" fill="#C5C5C4"/>
<rect x="18.8892" y="156.598" width="32.9038" height="65.8076" rx="16.4519" fill="#C5C5C4" stroke="#F5F5F3" stroke-width="6.09329"/>
<rect x="160.254" y="156.598" width="32.9038" height="65.8076" rx="16.4519" fill="#C5C5C4" stroke="#F5F5F3" stroke-width="6.09329"/>
<rect x="31.6851" y="176.706" width="37.7784" height="28.0292" rx="2.43732" fill="#F5F5F3"/>
<rect x="138.927" y="176.706" width="37.7784" height="28.0292" rx="2.43732" fill="#F5F5F3"/>
<path d="M38.9971 176.096V47.5277C38.9971 46.1816 40.0883 45.0903 41.4344 45.0903H216.312" stroke="#C5C5C4" stroke-width="1.21866" stroke-linecap="round"/>
<path d="M176.706 191.329H216.312" stroke="#C5C5C4" stroke-width="1.21866" stroke-linecap="round"/>
<path d="M176.706 191.329H189.501" stroke="#F5F5F3" stroke-width="1.21866" stroke-linecap="round"/>
<path d="M38.9971 180.362V160.254" stroke="#F5F5F3" stroke-width="1.21866" stroke-linecap="round"/>
<path d="M212.656 49.9648L216.382 46.2392C217.016 45.6046 217.016 44.5758 216.382 43.9412L212.656 40.2156" stroke="#C5C5C4" stroke-width="1.21866" stroke-linecap="round"/>
<path d="M212.656 196.204L216.382 192.478C217.016 191.844 217.016 190.815 216.382 190.181L212.656 186.455" stroke="#C5C5C4" stroke-width="1.21866" stroke-linecap="round"/>
<circle cx="368.035" cy="36.5595" r="13.4052" fill="#F5F5F3"/>
<path fill-rule="evenodd" clip-rule="evenodd" d="M368.035 47.5277C374.092 47.5277 379.003 42.6171 379.003 36.5597C379.003 30.5023 374.092 25.5918 368.035 25.5918C361.978 25.5918 357.067 30.5023 357.067 36.5597C357.067 42.6171 361.978 47.5277 368.035 47.5277ZM373.8 33.3674C374.157 33.0105 374.157 32.4318 373.8 32.0748C373.443 31.7179 372.864 31.7179 372.507 32.0748L367.008 37.5738C366.889 37.6927 366.696 37.6927 366.577 37.5738L363.746 34.7422C363.389 34.3853 362.81 34.3853 362.453 34.7422C362.096 35.0991 362.096 35.6778 362.453 36.0348L365.285 38.8663C366.117 39.6992 367.468 39.6992 368.301 38.8663L373.8 33.3674Z" fill="#C5C5C4"/>
<circle cx="368.035" cy="148.676" r="13.4052" fill="#F5F5F3"/>
<path fill-rule="evenodd" clip-rule="evenodd" d="M368.035 159.644C374.092 159.644 379.003 154.734 379.003 148.676C379.003 142.619 374.092 137.708 368.035 137.708C361.978 137.708 357.067 142.619 357.067 148.676C357.067 154.734 361.978 159.644 368.035 159.644ZM373.8 145.484C374.157 145.127 374.157 144.548 373.8 144.191C373.443 143.835 372.864 143.835 372.507 144.191L367.008 149.69C366.889 149.809 366.696 149.809 366.577 149.69L363.746 146.859C363.389 146.502 362.81 146.502 362.453 146.859C362.096 147.216 362.096 147.794 362.453 148.151L365.285 150.983C366.117 151.816 367.468 151.816 368.301 150.983L373.8 145.484Z" fill="#C5C5C4"/>
<rect x="182.799" y="106.633" width="53.621" height="52.4023" rx="3.65598" fill="#F5F5F3"/>
<rect x="187.674" y="111.674" width="42.6531" height="42.6531" rx="10.3586" fill="#9E9E9D"/>
<path fill-rule="evenodd" clip-rule="evenodd" d="M212.161 125.555C211.709 124.877 210.948 124.469 210.133 124.469H207.867C207.052 124.469 206.291 124.877 205.839 125.555L205.255 126.431C204.803 127.109 204.042 127.516 203.227 127.516H202.907C201.561 127.516 200.469 128.607 200.469 129.953V137.875C200.469 139.221 201.561 140.312 202.907 140.312H215.093C216.439 140.312 217.531 139.221 217.531 137.875V129.953C217.531 128.607 216.439 127.516 215.093 127.516H214.773C213.958 127.516 213.197 127.109 212.745 126.431L212.161 125.555ZM212.656 133C212.656 135.019 211.019 136.656 209 136.656C206.981 136.656 205.344 135.019 205.344 133C205.344 130.981 206.981 129.344 209 129.344C211.019 129.344 212.656 130.981 212.656 133ZM213.265 129.344C212.929 129.344 212.656 129.617 212.656 129.953C212.656 130.29 212.929 130.563 213.265 130.563H215.093C215.43 130.563 215.703 130.29 215.703 129.953C215.703 129.617 215.43 129.344 215.093 129.344H213.265Z" fill="#FFD30F"/>
<rect x="187.674" y="111.674" width="42.6531" height="42.6531" rx="10.3586" stroke="#FFD30F" stroke-width="1.21866"/>
<g opacity="0.5">
<path d="M192.548 106.023H187.673C184.981 106.023 182.799 108.206 182.799 110.898V115.773" stroke="#FFD30F" stroke-width="1.21866" stroke-linecap="round"/>
<path d="M236.42 115.773L236.42 110.898C236.42 108.206 234.237 106.023 231.545 106.023L226.671 106.023" stroke="#FFD30F" stroke-width="1.21866" stroke-linecap="round"/>
<path d="M226.671 159.644L231.545 159.644C234.237 159.644 236.42 157.462 236.42 154.77L236.42 149.895" stroke="#FFD30F" stroke-width="1.21866" stroke-linecap="round"/>
<path d="M182.799 149.895L182.799 154.77C182.799 157.462 184.981 159.644 187.673 159.644L192.548 159.644" stroke="#FFD30F" stroke-width="1.21866" stroke-linecap="round"/>
</g>
</svg>
