<?xml version="1.0" encoding="UTF-8"?><svg version="1.1" width="1602px" height="480px" viewBox="0 0 1602.0 480.0" xmlns="http://www.w3.org/2000/svg" xmlns:xlink="http://www.w3.org/1999/xlink"><defs><clipPath id="i0"><path d="M324.032632,0 C422.228119,0 501.832593,80.5449937 501.832593,179.900652 C501.832593,248.704761 463.652391,308.419153 407.629806,338.71821 L407.505034,338.71821 C397.648054,344.020545 387.416758,348.312912 376.686374,351.721556 C344.120908,363.46244 308.935231,369.90099 272.252292,369.90099 C162.203474,369.90099 65.3804771,312.206535 9.85698032,224.9705 C7.86062987,221.940594 5.98905133,218.910688 4.11747279,215.754537 C2.74498186,213.229615 1.37249093,210.83094 0,208.432264 L1.37249093,208.432264 C4.11747279,208.432264 6.98722656,208.306018 9.73220842,208.179772 C10.4808398,208.179772 11.3542432,208.053526 12.1028746,208.053526 L14.0875516,207.921366 C79.4842438,203.198935 135.149182,162.786735 161.95393,105.794208 L162.328246,104.961773 C162.702561,104.145119 163.076877,103.363971 163.451193,102.51181 L164.318122,100.699495 C193.247696,41.0796133 253.870895,0 324.032632,0 Z"></path></clipPath><linearGradient id="i1" x1="250.916296px" y1="0px" x2="250.916296px" y2="369.90099px" gradientUnits="userSpaceOnUse"><stop stop-color="#006EF1" offset="0%"></stop><stop stop-color="#2896EF" offset="100%"></stop></linearGradient><clipPath id="i2"><path d="M295.815013,1.45953138 C326.220848,-2.43255229 355.944646,1.45953138 384.986406,13.1357824 L384.986406,212.604576 L0,212.604576 L0,196.507202 C9.8002927,194.756772 42.80018,183.957129 65.8461721,174.183822 C88.8921641,164.410515 107.965792,148.402689 124.314936,132.089537 C132.979982,123.443566 143.817179,107.758344 155.430917,91.4912513 L156.748922,89.6475549 C166.657717,75.8063935 177.088352,61.7214273 187.1866,51.3451054 C209.627151,28.2866122 250.20626,7.29765688 295.815013,1.45953138 Z"></path></clipPath><linearGradient id="i3" x1="192.493203px" y1="0px" x2="192.493203px" y2="212.604576px" gradientUnits="userSpaceOnUse"><stop stop-color="rgba(255, 255, 255, 0.203316)" offset="0%"></stop><stop stop-color="rgba(255, 255, 255, 0)" offset="100%"></stop></linearGradient><clipPath id="i4"><path d="M170.097214,34.4627344 C224.745562,-0.702390059 279.711916,-8.956142 334.996276,9.7014786 L334.996276,188.164472 L0,188.164472 L0,172.974517 C30.3787904,164.315067 76.42931,139.268982 94.7126504,118.775783 C119.660031,82.1837636 145.593809,49.4783943 170.097214,34.4627344 Z"></path></clipPath><linearGradient id="i5" x1="167.498138px" y1="0px" x2="167.498138px" y2="188.164472px" gradientUnits="userSpaceOnUse"><stop stop-color="rgba(255, 255, 255, 0.201404)" offset="0%"></stop><stop stop-color="rgba(255, 255, 255, 0)" offset="100%"></stop></linearGradient><clipPath id="i6"><path d="M210.081562,6.55380368 C243.888702,-2.18460123 277.23603,-2.18460123 310.123547,6.55380368 L310.123547,153.701737 L0,153.701737 L0,141.888269 C40.1064313,133.013759 77.1916221,110.084931 103.057869,78.2544937 C128.924115,46.4240558 159.370851,19.661411 210.081562,6.55380368 Z"></path></clipPath><linearGradient id="i7" x1="155.061773px" y1="53.4562776px" x2="155.061773px" y2="153.701737px" gradientUnits="userSpaceOnUse"><stop stop-color="#FFFFFF" offset="0%"></stop><stop stop-color="#BBDAF1" offset="100%"></stop></linearGradient><clipPath id="i8"><path d="M51.1280204,0 C89.7399964,0 121.445463,29.7619221 124.83392,67.7365086 C111.546078,80.5216335 93.5369349,88.3722502 73.7059892,88.3722502 C35.0936743,88.3722502 3.38799008,58.6098056 2.38828622e-14,20.6347416 C13.2874622,7.85082147 31.296816,0 51.1280204,0 Z"></path></clipPath><linearGradient id="i9" x1="62.4169602px" y1="0px" x2="62.4169602px" y2="88.3722502px" gradientUnits="userSpaceOnUse"><stop stop-color="#006EF1" offset="0%"></stop><stop stop-color="#2896EF" offset="100%"></stop></linearGradient><clipPath id="i10"><path d="M40.9023461,-2.20268248e-13 C71.7921704,-2.20268248e-13 97.1566965,23.8099435 99.8670977,54.1899836 C89.2365004,64.4174204 74.8293125,70.6978002 58.9647096,70.6978002 C28.0750449,70.6978002 2.71062125,46.8881026 -3.61712977e-12,16.5082874 C10.6300854,6.28058459 25.0374844,-2.20268248e-13 40.9023461,-2.20268248e-13 Z"></path></clipPath><linearGradient id="i11" x1="49.9335488px" y1="0px" x2="49.9335488px" y2="70.6978002px" gradientUnits="userSpaceOnUse"><stop stop-color="#006EF1" offset="0%"></stop><stop stop-color="#2896EF" offset="100%"></stop></linearGradient><clipPath id="i12"><path d="M21.3480998,0 C33.1383297,0 42.6961996,9.64590758 42.6961996,21.5447376 C42.6961996,33.4435676 33.1383297,43.0894752 21.3480998,43.0894752 C9.55786984,43.0894752 0,33.4435676 0,21.5447376 C0,9.64590758 9.55786984,0 21.3480998,0 Z"></path></clipPath><clipPath id="i13"><path d="M0,0 C0.928178252,1.71733416 1.8563565,3.27854702 3.09392751,4.83975989 C4.17680213,6.24485148 5.56906951,7.64994306 6.80664051,8.89891335 C9.59117527,11.3968539 12.6851028,13.2703094 16.2431194,14.3631584 C19.6464397,15.4560074 23.3591527,15.9243713 27.0718657,15.6121287 C30.6298823,15.2998861 34.3425953,14.3631584 37.7459156,12.6458242 C34.8066844,15.1437648 31.0939714,16.7049777 27.2265621,17.3294628 C23.3591527,17.953948 19.3370469,17.6417054 15.4696375,16.3927351 C13.613281,15.76825 11.7569245,14.8315223 10.0552644,13.8947945 C8.35360427,12.8019455 6.80664051,11.5529752 5.56906951,10.1478836 C4.17680213,8.74279207 3.09392751,7.02545791 2.16574925,5.46424504 C1.237571,3.74691089 0.464089126,1.87345544 0,0 Z"></path></clipPath><clipPath id="i14"><path d="M21.1934034,2.19768563 C22.8950635,2.97829206 24.4420273,3.91501978 25.9889911,5.16399008 C27.3812584,6.41296037 28.7735258,7.66193067 29.8564004,9.06702225 C32.1768461,11.8772054 33.7238098,15.467995 34.3425953,18.9026633 C32.7956316,15.6241163 30.9392751,12.6578119 28.4641331,10.1598713 C26.1436874,7.66193067 23.2044563,5.63235394 20.1105288,4.22726236 C17.0166013,2.66604949 13.613281,2.04156434 10.2099608,1.72932177 C6.96133689,1.41707919 3.55801663,1.88544305 0,2.97829206 C6.18785501,-0.768618822 14.3867629,-0.924740109 21.1934034,2.19768563 Z"></path></clipPath><clipPath id="i15"><path d="M15.6243339,0 C24.2534153,0 31.2486678,7.05968598 31.2486678,15.76825 C31.2486678,24.476814 24.2534153,31.5365 15.6243339,31.5365 C6.99525256,31.5365 0,24.476814 0,15.76825 C0,7.05968598 6.99525256,0 15.6243339,0 Z"></path></clipPath><clipPath id="i16"><path d="M8.66299702,0 C13.4474382,0 17.325994,3.91428134 17.325994,8.74279207 C17.325994,13.5713028 13.4474382,17.4855841 8.66299702,17.4855841 C3.87855588,17.4855841 0,13.5713028 0,8.74279207 C0,3.91428134 3.87855588,0 8.66299702,0 Z"></path></clipPath><clipPath id="i17"><path d="M4.79558764,0 C7.44411755,0 9.59117527,2.16683431 9.59117527,4.83975989 C9.59117527,7.51268548 7.44411755,9.67951979 4.79558764,9.67951979 C2.14705772,9.67951979 0,7.51268548 0,4.83975989 C0,2.16683431 2.14705772,0 4.79558764,0 Z"></path></clipPath><clipPath id="i18"><path d="M2.74346083,58.0430458 C-7.11929987,43.8071504 11.1318913,18.134456 33.2468444,34.7916557 C53.2096144,49.8174802 51.7691768,95.049505 51.7691768,95.049505 C43.7027265,70.8364621 12.6062215,72.2789412 2.74346083,58.0430458 Z M111.82695,31.1682855 C97.4903596,45.3870085 75.087319,48.1174155 67.3089562,79.6115436 C67.3089562,79.6115436 55.7346167,29.4853932 82.45897,6.88655315 C106.743053,-13.6516024 126.16354,16.9323901 111.82695,31.1682855 Z"></path></clipPath><linearGradient id="i19" x1="58.3583204px" y1="0px" x2="58.3583204px" y2="95.049505px" gradientUnits="userSpaceOnUse"><stop stop-color="#006EF1" offset="0%"></stop><stop stop-color="#2896EF" offset="100%"></stop></linearGradient><clipPath id="i20"><path d="M40.8,0 L84,77.3333333 L85.6,77.3333333 L129.333333,0 L168.533333,0 L101.6,109.066667 L101.6,185.066667 L66.4,185.066667 L66.4,109.6 L0,0 L40.8,0 Z"></path></clipPath><clipPath id="i21"><path d="M80.8,0 L80.8,27.2 L0,27.2 L0,0 L80.8,0 Z"></path></clipPath><clipPath id="i22"><path d="M160.533333,0 C176.711111,0 188.711111,4.13333333 196.533333,12.4 C204.355556,20.6666667 208.266667,33.1555556 208.266667,49.8666667 L208.266667,146.666667 L174.933333,146.666667 L174.933333,57.3333333 C174.933333,46.8444444 173.155556,39.2888889 169.6,34.6666667 C166.044444,30.0444444 159.911111,27.7333333 151.2,27.7333333 C142.844444,27.7333333 136.133333,29.4222222 131.066667,32.8 C126,36.1777778 122.4,41.9555556 120.266667,50.1333333 L120.266667,146.666667 L86.9333333,146.666667 L86.9333333,57.3333333 C86.9333333,46.8444444 85.2,39.2888889 81.7333333,34.6666667 C78.2666667,30.0444444 72.2666667,27.7333333 63.7333333,27.7333333 C55.3777778,27.7333333 48.8,29.3333333 44,32.5333333 C39.2,35.7333333 35.6444444,41.3333333 33.3333333,49.3333333 L33.3333333,146.666667 L0,146.666667 L0,2.66666667 L33.3333333,2.66666667 L33.3333333,19.7333333 C37.2444444,12.8 42.5777778,7.77777778 49.3333333,4.66666667 C56.0888889,1.55555556 64.3555556,0 74.1333333,0 C84.9777778,0 93.7777778,1.77777778 100.533333,5.33333333 C107.288889,8.88888889 112.266667,14.2222222 115.466667,21.3333333 C122.933333,7.11111111 137.955556,0 160.533333,0 Z"></path></clipPath><clipPath id="i23"><path d="M69.0666667,0 C92,0 107.777778,5.51111111 116.4,16.5333333 C125.022222,27.5555556 129.333333,42.7555556 129.333333,62.1333333 C129.333333,69.4222222 128.888889,75.7333333 128,81.0666667 L33.6,87.2 C33.9555556,99.2888889 37.3777778,108.177778 43.8666667,113.866667 C50.3555556,119.555556 60.7111111,122.4 74.9333333,122.4 C83.2888889,122.4 91.9111111,121.422222 100.8,119.466667 C109.688889,117.511111 116.711111,115.2 121.866667,112.533333 L121.866667,139.733333 C117.244444,142.4 110.088889,144.666667 100.4,146.533333 C90.7111111,148.4 80.2666667,149.333333 69.0666667,149.333333 C53.7777778,149.333333 41.1111111,147.066667 31.0666667,142.533333 C21.0222222,138 13.3333333,130.266667 8,119.333333 C2.66666667,108.4 0,93.5111111 0,74.6666667 C0,55.8222222 2.66666667,40.9333333 8,30 C13.3333333,19.0666667 21.0222222,11.3333333 31.0666667,6.8 C41.1111111,2.26666667 53.7777778,0 69.0666667,0 Z M69.0666667,25.6 C56.0888889,25.6 47.0666667,28.6222222 42,34.6666667 C36.9333333,40.7111111 34.1333333,50.3111111 33.6,63.4666667 L98.4,58.6666667 C98.4,48.1777778 96.4444444,40.0444444 92.5333333,34.2666667 C88.6222222,28.4888889 80.8,25.6 69.0666667,25.6 Z"></path></clipPath><clipPath id="i24"><path d="M41.8666667,0 L72.5333333,50.4 L74.1333333,50.4 L104.8,0 L142.933333,0 L96.2666667,70.1333333 L145.6,144 L106.4,144 L73.8666667,90.9333333 L72.2666667,90.9333333 L38.9333333,144 L0,144 L49.8666667,70.4 L3.2,0 L41.8666667,0 Z"></path></clipPath></defs><g opacity="8%"><g transform="translate(0.0 110.09900990099771)"><g transform="translate(124.83399396165501 0.0)"><g clip-path="url(#i0)"><polygon points="0,0 501.832593,0 501.832593,369.90099 0,369.90099 0,0" stroke="none" fill="url(#i1)"></polygon><g transform="translate(116.84618697791544 204.82116689219202)"><g clip-path="url(#i2)"><polygon points="0,1.77635684e-15 384.986406,1.77635684e-15 384.986406,165.079823 0,165.079823 0,1.77635684e-15" stroke="none" fill="url(#i3)"></polygon></g></g><g transform="translate(166.83631731058313 229.2612709533642)"><g clip-path="url(#i4)"><polygon points="0,0 334.996276,0 334.996276,140.639719 0,140.639719 0,0" stroke="none" fill="url(#i5)"></polygon></g></g><g transform="translate(186.55645207936502 263.7240053776778)"><g clip-path="url(#i6)"><polygon points="0,8.8817842e-16 310.123547,8.8817842e-16 310.123547,106.176985 0,106.176985 0,8.8817842e-16" stroke="none" fill="url(#i7)"></polygon></g></g></g></g><g transform="translate(0.0 141.39560031087595)"><g clip-path="url(#i8)"><polygon points="2.38828622e-14,0 124.83392,0 124.83392,88.3722502 2.38828622e-14,88.3722502 2.38828622e-14,0" stroke="none" fill="url(#i9)"></polygon></g></g><g transform="translate(201.86231227302935 125.0367781160637) rotate(104.99999999999999)"><g clip-path="url(#i10)"><polygon points="-4.07187712e-12,-2.20268248e-13 99.8670977,-2.20268248e-13 99.8670977,70.6978002 -4.07187712e-12,70.6978002 -4.07187712e-12,-2.20268248e-13" stroke="none" fill="url(#i11)"></polygon></g></g><g transform="translate(449.88190238116476 139.40184389194832) scale(-1.0 1.0)"><g transform="translate(2.6298383805758405 5.007868792814406)"><g clip-path="url(#i12)"><polygon points="0,0 42.6961996,0 42.6961996,43.0894752 0,43.0894752 0,0" stroke="none" fill="#FFFFFF"></polygon></g></g><g transform="translate(0.0 35.451519736769114)"><g clip-path="url(#i13)"><polygon points="0,0 37.7459156,0 37.7459156,17.6417054 0,17.6417054 0,0" stroke="none" fill="#3035AB"></polygon></g></g><g transform="translate(13.767977404148102 0.0)"><g clip-path="url(#i14)"><polygon points="0,3.64153152e-14 34.3425953,3.64153152e-14 34.3425953,18.9026633 0,18.9026633 0,3.64153152e-14" stroke="none" fill="#3035AB"></polygon></g></g><g transform="translate(5.723765887114496 10.784356407828449)"><g clip-path="url(#i15)"><polygon points="0,0 31.2486678,0 31.2486678,31.5365 0,31.5365 0,0" stroke="none" fill="#3035AB"></polygon></g></g><g transform="translate(17.480690412019094 6.569081661753442)"><g clip-path="url(#i16)"><polygon points="0,0 17.325994,0 17.325994,17.4855841 0,17.4855841 0,0" stroke="none" fill="#FFFFFF"></polygon></g></g><g transform="translate(14.386762905459971 34.35867072850304)"><g clip-path="url(#i17)"><polygon points="0,0 9.59117527,0 9.59117527,9.67951979 0,9.67951979 0,0" stroke="none" fill="#FFFFFF"></polygon></g></g></g></g><g transform="translate(360.3333123952409 0.0)"><g clip-path="url(#i18)"><polygon points="2.84217094e-14,7.10542736e-15 116.716641,7.10542736e-15 116.716641,95.049505 2.84217094e-14,95.049505 2.84217094e-14,7.10542736e-15" stroke="none" fill="url(#i19)"></polygon></g></g></g><g transform="translate(761.0666322305169 159.2666666666678)"><g transform=""><g clip-path="url(#i20)"><polygon points="0,0 168.533333,0 168.533333,185.066667 0,185.066667 0,0" stroke="none" fill="#798296" opacity="8%"></polygon></g></g><g transform="translate(187.73333333333312 89.59999999999991)"><g clip-path="url(#i21)"><polygon points="0,0 80.8,0 80.8,27.2 0,27.2 0,0" stroke="none" fill="#798296" opacity="8%"></polygon></g></g><g transform="translate(307.9999999999998 38.40000000000009)"><g clip-path="url(#i22)"><polygon points="0,0 208.266667,0 208.266667,146.666667 0,146.666667 0,0" stroke="none" fill="#798296" opacity="8%"></polygon></g></g><g transform="translate(549.8666666666666 38.40000000000009)"><g clip-path="url(#i23)"><polygon points="0,0 129.333333,0 129.333333,149.333333 0,149.333333 0,0" stroke="none" fill="#798296" opacity="8%"></polygon></g></g><g transform="translate(694.6666666666665 41.066666666666606)"><g clip-path="url(#i24)"><polygon points="0,0 145.6,0 145.6,144 0,144 0,0" stroke="none" fill="#798296" opacity="8%"></polygon></g></g></g></svg>