<svg  viewBox="0 0 26 26" fill="none" xmlns="http://www.w3.org/2000/svg">
<path d="M8.2 9.48148H9.24661C9.41459 9.48148 9.56466 9.37654 9.62231 9.21877L9.97167 8.26271C10.0293 8.10494 10.1794 8 10.3474 8H15.5778C15.7381 8 15.8829 8.09569 15.9458 8.24313L16.37 9.23835C16.4329 9.3858 16.5777 9.48148 16.738 9.48148H17.8C18.4627 9.48148 19 10.0187 19 10.6815V16.8C19 17.4627 18.4627 18 17.8 18H8.2C7.53726 18 7 17.4627 7 16.8V10.6815C7 10.0187 7.53726 9.48148 8.2 9.48148Z" stroke="currentColor" stroke-width="0.857141"/>
<path d="M15.7706 13.6255C15.7706 15.1314 14.6031 16.3219 13.1992 16.3219C11.7954 16.3219 10.6278 15.1314 10.6278 13.6255C10.6278 12.1196 11.7954 10.9291 13.1992 10.9291C14.6031 10.9291 15.7706 12.1196 15.7706 13.6255Z" stroke="currentColor" stroke-width="0.857141"/>
<mask id="path-3-inside-1_4372_36185" fill="white">
<ellipse cx="17.1994" cy="11.1255" rx="0.6" ry="0.625"/>
</mask>
<path d="M16.9422 11.1255C16.9422 11.0306 17.0247 10.8934 17.1994 10.8934V12.6076C18.0368 12.6076 18.6565 11.9108 18.6565 11.1255H16.9422ZM17.1994 10.8934C17.374 10.8934 17.4565 11.0306 17.4565 11.1255H15.7422C15.7422 11.9108 16.362 12.6076 17.1994 12.6076V10.8934ZM17.4565 11.1255C17.4565 11.2204 17.374 11.3576 17.1994 11.3576V9.64336C16.362 9.64336 15.7422 10.3403 15.7422 11.1255H17.4565ZM17.1994 11.3576C17.0247 11.3576 16.9422 11.2204 16.9422 11.1255H18.6565C18.6565 10.3403 18.0368 9.64336 17.1994 9.64336V11.3576Z" fill="currentColor" mask="url(#path-3-inside-1_4372_36185)"/>
</svg>
