<svg width="12" height="12" viewBox="0 0 12 12" fill="none" xmlns="http://www.w3.org/2000/svg">
<g id="Group 4664">
<path id="Vector" d="M7.14878 11.4021L7.5192 11.0663C7.41305 10.9492 7.20073 10.749 6.94868 10.5742C6.71637 10.413 6.35385 10.204 5.96924 10.204C5.60862 10.204 5.26143 10.3929 5.03072 10.5456C4.78091 10.711 4.55968 10.908 4.42999 11.0481L4.42802 11.0503C4.35067 11.1348 4.17006 11.1742 4.0613 11.1277L2.63492 10.3274C2.54449 10.2535 2.5083 10.113 2.55674 10.0035L2.55679 10.0035L2.5599 9.99614L2.56017 9.99552C2.56804 9.97723 2.72586 9.61038 2.72586 9.24858C2.72586 8.17254 1.85137 7.29805 0.775329 7.29805H0.724C0.720077 7.29805 0.719585 7.29755 0.719444 7.29748C0.718727 7.29716 0.712173 7.29418 0.70131 7.28285C0.678177 7.25874 0.638455 7.19854 0.616861 7.08426L0.616898 7.08426L0.615673 7.07819C0.615686 7.07825 0.615654 7.07808 0.61558 7.07769C0.614677 7.07293 0.607456 7.03489 0.596767 6.97135C0.585457 6.90413 0.570771 6.81136 0.556248 6.7043C0.526666 6.48624 0.5 6.2249 0.5 6.00269C0.5 5.78012 0.526672 5.51853 0.556254 5.30031C0.570778 5.19317 0.585466 5.10033 0.596779 5.03303C0.607898 4.96688 0.61533 4.92794 0.6158 4.92547L0.615824 4.92535L0.615852 4.92535L0.61685 4.92007C0.638424 4.80597 0.67835 4.74471 0.701958 4.71984C0.707573 4.71393 0.711969 4.71033 0.714766 4.7083L0.717205 4.70668H0.775329C1.85142 4.70668 2.72586 3.83216 2.72586 2.75593C2.72586 2.5583 2.68063 2.36994 2.6438 2.24547C2.62436 2.17977 2.60478 2.12376 2.58946 2.08269C2.58175 2.06204 2.57502 2.04488 2.56978 2.03186L2.56315 2.01562C2.56153 2.01172 2.55983 2.0077 2.5602 2.00856L2.56029 2.00852L2.55609 1.99904C2.5079 1.89042 2.54587 1.74456 2.64349 1.67122L4.15491 0.843123C4.26489 0.806358 4.43612 0.845408 4.51399 0.92727L4.51491 0.928236C4.61951 1.0376 4.82804 1.22594 5.07539 1.39077C5.30368 1.5429 5.65773 1.73901 6.03076 1.73901C6.39927 1.73901 6.75084 1.54683 6.97776 1.39779C7.22363 1.2363 7.43184 1.05149 7.53661 0.943434L7.53835 0.941625C7.61516 0.861605 7.7952 0.822504 7.90523 0.864196L9.3641 1.67648C9.45605 1.75202 9.4909 1.89309 9.4432 2.00042L9.44013 2.00733L9.43727 2.01433C9.43798 2.01261 9.43367 2.023 9.42872 2.03544C9.42361 2.04829 9.417 2.06533 9.40941 2.0859C9.39432 2.12677 9.37495 2.18265 9.35569 2.24811C9.31933 2.37173 9.27414 2.55987 9.27414 2.75591C9.27414 3.83215 10.1486 4.70666 11.2247 4.70666H11.276C11.276 4.70666 11.2809 4.70317 11.2988 4.72187C11.3219 4.74592 11.3616 4.80599 11.3832 4.92012L11.3834 4.92134C11.3887 4.94874 11.5 5.54416 11.5 6.0027C11.5 6.22487 11.4733 6.48618 11.4437 6.70427C11.4292 6.81134 11.4145 6.90415 11.4031 6.97146C11.3975 7.00505 11.3927 7.03212 11.3893 7.05125L11.3852 7.07369L11.384 7.07996L11.3837 7.08146L11.3836 7.08222L11.3832 7.08424C11.3616 7.19833 11.3216 7.25966 11.2979 7.28464C11.2923 7.29058 11.2878 7.29421 11.285 7.29627C11.2839 7.29707 11.283 7.29765 11.2823 7.29807H11.2247C10.1486 7.29807 9.27416 8.17255 9.27416 9.2486C9.27416 9.44621 9.31938 9.63457 9.3562 9.75904C9.37563 9.82474 9.39521 9.88075 9.41051 9.92181C9.41821 9.94246 9.42493 9.9596 9.43014 9.97256C9.43527 9.98531 9.4395 9.99537 9.43906 9.99431L9.43891 9.99438L9.44409 10.006C9.49229 10.1145 9.45478 10.2603 9.35609 10.3343L7.87209 11.1521C7.84273 11.1625 7.80985 11.1685 7.77267 11.1685C7.66602 11.1685 7.56961 11.1215 7.51802 11.065L7.14878 11.4021ZM7.14878 11.4021C7.3006 11.5684 7.53388 11.6685 7.77267 11.6685C7.88421 11.6685 7.98982 11.6464 8.08652 11.6049L4.06135 11.1278L4.06426 11.1291L4.06415 11.1293L4.0801 11.1383L3.97618 11.3235L3.85792 11.5845M7.14878 11.4021C6.98421 11.2206 6.41288 10.704 5.96924 10.704C5.55997 10.704 5.00264 11.1655 4.79695 11.3877C4.57428 11.6312 4.16245 11.7185 3.85792 11.5845M3.85792 11.5845L3.96052 11.3514L3.83544 11.5743M3.85792 11.5845L3.83544 11.5743M3.83544 11.5743L2.36285 10.7481C2.06513 10.5403 1.9523 10.134 2.09946 9.80122L3.83544 11.5743ZM11.2846 7.29807H11.2845C11.2846 7.29806 11.2846 7.29807 11.2846 7.29807ZM8.11283 0.408989C7.81254 0.278768 7.40154 0.362117 7.17763 0.595384C7.0156 0.762502 6.457 1.23901 6.03076 1.23901C5.59896 1.23901 5.03912 0.752945 4.87627 0.582657C4.65275 0.347685 4.24599 0.259475 3.94232 0.389472L8.11283 0.408989Z" stroke="#FFD30F"/>
<path id="Vector_2" d="M4.33887 5.99441C4.33887 5.09358 5.0727 4.35974 5.97352 4.35974C6.87435 4.35974 7.60819 5.09358 7.60819 5.99441C7.60819 6.89534 6.87444 7.62887 5.97352 7.62887C5.07262 7.62887 4.33887 6.89534 4.33887 5.99441Z" stroke="#FFD30F"/>
</g>
</svg>
