<svg width="16" height="16" viewBox="0 0 16 16" fill="none" xmlns="http://www.w3.org/2000/svg">
<g id="WEB/&#233;&#128;&#154;&#231;&#148;&#168;/&#230;&#151;&#182;&#233;&#151;&#180;&#231;&#173;&#155;&#233;&#128;&#137;icon">
<path id="&#229;&#189;&#162;&#231;&#138;&#182;" fill-rule="evenodd" clip-rule="evenodd" d="M0 6V14.5915C0 15.4366 0.548287 16 1.34579 16H14.3053C15.1028 16 16 15.3897 16 14.5915V6H0ZM4.43613 13.8873H3.23987C3.04049 13.8873 2.84112 13.7465 2.84112 13.5117V12.338C2.84112 12.1502 2.99065 11.9624 3.23987 11.9624H4.48598C4.68535 11.9624 4.88473 12.1033 4.88473 12.338V13.5117C4.83489 13.7465 4.68535 13.8873 4.43613 13.8873ZM3.23987 9.66197H4.43613C4.68535 9.66197 4.83489 9.52113 4.88473 9.28639V8.11268C4.88473 7.87794 4.68535 7.73709 4.48598 7.73709H3.23987C2.99065 7.73709 2.84112 7.92488 2.84112 8.11268V9.28639C2.84112 9.52113 3.04049 9.66197 3.23987 9.66197ZM8.42368 13.8873H7.17757C6.97819 13.8873 6.77882 13.7465 6.77882 13.5117V12.338C6.77882 12.1502 6.92835 11.9624 7.17757 11.9624H8.42368C8.62305 11.9624 8.82243 12.1033 8.82243 12.338V13.5117C8.82243 13.7465 8.6729 13.8873 8.42368 13.8873ZM7.17757 9.66197H8.42368C8.6729 9.66197 8.82243 9.52113 8.82243 9.28639V8.11268C8.82243 7.87794 8.62305 7.73709 8.42368 7.73709H7.17757C6.92835 7.73709 6.77882 7.92488 6.77882 8.11268V9.28639C6.77882 9.52113 6.97819 9.66197 7.17757 9.66197ZM12.4112 13.8873H11.1651C10.9657 13.8873 10.7664 13.7465 10.7664 13.5117V12.338C10.7664 12.1502 10.9159 11.9624 11.1651 11.9624H12.4112C12.6106 11.9624 12.81 12.1033 12.81 12.338V13.5117C12.81 13.7465 12.6604 13.8873 12.4112 13.8873ZM11.1651 9.66197H12.4112C12.6604 9.66197 12.81 9.52113 12.81 9.28639V8.11268C12.81 7.87794 12.6106 7.73709 12.4112 7.73709H11.1651C10.9159 7.73709 10.7664 7.92488 10.7664 8.11268V9.28639C10.7664 9.52113 10.9657 9.66197 11.1651 9.66197Z" fill="#A5A8AC"/>
<path id="&#232;&#183;&#175;&#229;&#190;&#132;" d="M14.3 0H12.8V1.81818C12.8 2.18182 12.55 2.42424 12.3 2.42424C12.05 2.42424 11.8 2.18182 11.8 1.81818V0H3.8V1.81818C3.8 2.18182 3.55 2.42424 3.3 2.42424C3.05 2.42424 2.8 2.18182 2.8 1.81818V0H1.3C0.55 0 0 0.787879 0 1.81818V4H16V1.81818C16 0.787879 15.1 0 14.3 0Z" fill="white"/>
</g>
</svg>
