<svg width="24" height="24" viewBox="0 0 24 24" fill="none" xmlns="http://www.w3.org/2000/svg">
<path fill-rule="evenodd" clip-rule="evenodd" d="M20.7273 12C20.7273 15.1179 19.0638 17.999 16.3636 19.558C13.6634 21.117 10.3366 21.117 7.63634 19.558C4.93611 17.999 3.27271 15.1179 3.27271 12C3.27271 7.18004 7.18004 3.27271 12 3.27271C16.8199 3.27271 20.7273 7.18004 20.7273 12ZM13.7134 12L16.6283 14.9139L14.9139 16.6283L12 13.7134L9.08604 16.6274L7.37161 14.9129L10.2856 11.999L7.37161 9.08507L9.08604 7.37161L12 10.2836L14.9139 7.36967L16.6283 9.08313L13.7134 12Z" fill="white"/>
</svg>
