<svg width="48" height="48" viewBox="0 0 48 48" fill="none" xmlns="http://www.w3.org/2000/svg">
<path d="M18.0455 22.4322C18.656 22.4322 19.1325 21.8056 19.4699 20.558C19.8126 19.2836 19.6734 18.6463 19.0629 18.6463H7.74297C5.07631 18.6463 4.12316 17.2327 4.88353 14.4H20.2035C21.7831 14.4 22.8809 15.0479 23.502 16.3438C24.0803 17.5218 24.1553 18.9248 23.7162 20.5526C23.2825 22.1805 22.4578 23.5727 21.253 24.7293C19.9357 26.0252 18.49 26.6731 16.9103 26.6731H5.83668L4.24632 32.6169H0L2.73628 22.4L18.0455 22.4322ZM29.7403 29.0828C29.1084 31.4388 27.3788 32.6222 24.5462 32.6222L28.4819 17.9395C29.1138 15.5834 30.8434 14.4 33.676 14.4L29.7403 29.0828ZM33.7189 21.3719L42.2008 14.4H48L36.8568 23.5299L43.6198 32.6222H37.8153L32.6801 25.6557C31.6198 24.2367 31.9679 22.8123 33.7189 21.3719Z" fill="#ffffff"/>
</svg>
