<svg width="48" height="48" viewBox="0 0 48 48" fill="none" xmlns="http://www.w3.org/2000/svg">
<g id="icon_PK">
<path id="Vector" d="M18.0455 22.4321C18.656 22.4321 19.1325 21.8056 19.4699 20.5579C19.8126 19.2835 19.6734 18.6463 19.0629 18.6463H7.74297C5.07631 18.6463 4.12316 17.2326 4.88353 14.3999H20.2035C21.7831 14.3999 22.8809 15.0479 23.502 16.3437C24.0803 17.5218 24.1553 18.9247 23.7162 20.5525C23.2825 22.1804 22.4578 23.5726 21.253 24.7292C19.9357 26.0251 18.49 26.673 16.9103 26.673H5.83668L4.24632 32.6168H0L2.73628 22.3999L18.0455 22.4321ZM29.7403 29.0827C29.1084 31.4388 27.3788 32.6222 24.5462 32.6222L28.4819 17.9394C29.1138 15.5833 30.8434 14.3999 33.676 14.3999L29.7403 29.0827ZM33.7189 21.3718L42.2008 14.3999H48L36.8568 23.5298L43.6198 32.6222H37.8153L32.6801 25.6556C31.6198 24.2366 31.9679 22.8122 33.7189 21.3718Z" fill="#2B2F33"/>
</g>
</svg>
