<svg width="36" height="36" viewBox="0 0 36 36" fill="none" xmlns="http://www.w3.org/2000/svg">
<path d="M30.4625 16.908C29.8025 16.932 29.2865 17.49 29.3105 18.156C29.4365 21.33 28.2245 24.438 25.9805 26.682C23.8265 28.836 20.9645 30.024 17.9165 30.024C14.8685 30.024 12.0065 28.836 9.85852 26.682C5.41252 22.236 5.41252 15.006 9.85852 10.56C12.0125 8.40599 14.8745 7.21799 17.9165 7.21799C18.5765 7.21799 19.1165 6.67799 19.1165 6.01799C19.1165 5.35799 18.5765 4.81799 17.9165 4.81799C14.2325 4.81799 10.7645 6.25199 8.16052 8.86199C2.77852 14.244 2.77852 22.998 8.16052 28.38C10.7645 30.984 14.2325 32.424 17.9165 32.424C21.6005 32.424 25.0685 30.99 27.6725 28.38C29.019 27.0314 30.0722 25.4191 30.7661 23.6442C31.4599 21.8694 31.7794 19.9702 31.7045 18.066C31.6865 17.4 31.1345 16.89 30.4625 16.908Z" fill="#ffffff"/>
<path d="M30.5879 4.86609H24.7259C24.0659 4.86609 23.5259 5.40609 23.5259 6.06609C23.5259 6.72609 24.0659 7.26609 24.7259 7.26609H27.7979L19.1699 15.8881C19.0022 16.056 18.888 16.2698 18.8416 16.5026C18.7952 16.7353 18.8187 16.9766 18.9091 17.196C18.9996 17.4154 19.153 17.6031 19.3499 17.7356C19.5469 17.868 19.7786 17.9391 20.0159 17.9401C20.3219 17.9401 20.6279 17.8201 20.8619 17.5861L29.3819 9.06609V11.9221C29.3819 12.5821 29.9219 13.1221 30.5819 13.1221C31.2419 13.1221 31.7819 12.5821 31.7819 11.9221V6.06009C31.7879 5.40009 31.2479 4.86609 30.5879 4.86609Z" fill="#ffffff"/>
</svg>
