<svg width="15" height="14" viewBox="0 0 15 14" fill="none" xmlns="http://www.w3.org/2000/svg">
<g id="&#229;&#164;&#141;&#229;&#136;&#182; 1">
<path id="Vector" d="M10.7053 9.77958C10.565 9.77958 10.4304 9.72382 10.3311 9.62458C10.2319 9.52534 10.1761 9.39073 10.1761 9.25038C10.1761 9.11003 10.2319 8.97542 10.3311 8.87618C10.4304 8.77693 10.565 8.72118 10.7053 8.72118C10.841 8.72118 10.9712 8.66727 11.0672 8.5713C11.1631 8.47534 11.217 8.34519 11.217 8.20948V3.62308C11.217 3.48737 11.1631 3.35721 11.0672 3.26125C10.9712 3.16529 10.841 3.11138 10.7053 3.11138H6.11893C5.98322 3.11138 5.85306 3.16529 5.7571 3.26125C5.66114 3.35721 5.60723 3.48737 5.60723 3.62308C5.60723 3.76343 5.55147 3.89804 5.45223 3.99728C5.35298 4.09652 5.21838 4.15228 5.07803 4.15228C4.93768 4.15228 4.80307 4.09652 4.70383 3.99728C4.60458 3.89804 4.54883 3.76343 4.54883 3.62308C4.54975 3.20695 4.71547 2.80812 5.00972 2.51387C5.30397 2.21962 5.7028 2.0539 6.11893 2.05298H10.7053C11.1215 2.0539 11.5203 2.21962 11.8145 2.51387C12.1088 2.80812 12.2745 3.20695 12.2754 3.62308V8.20948C12.2745 8.62561 12.1088 9.02444 11.8145 9.31869C11.5203 9.61294 11.1215 9.77865 10.7053 9.77958Z" fill="#A5A8AC"/>
<path id="Vector_2" d="M8.35891 12.0735H3.96641C3.74856 12.0738 3.5328 12.0311 3.33148 11.9478C3.13016 11.8646 2.94724 11.7424 2.7932 11.5884C2.63915 11.4344 2.51701 11.2514 2.43378 11.0501C2.35054 10.8488 2.30783 10.633 2.30811 10.4152V6.00519C2.30774 5.78729 2.35038 5.57145 2.43357 5.37005C2.51677 5.16865 2.6389 4.98565 2.79295 4.83153C2.947 4.67741 3.12995 4.55521 3.33131 4.47193C3.53268 4.38864 3.7485 4.34592 3.96641 4.34619H8.35891C8.57676 4.34592 8.79252 4.38862 8.99384 4.47186C9.19516 4.5551 9.37808 4.67724 9.53212 4.83128C9.68616 4.98532 9.8083 5.16824 9.89154 5.36956C9.97478 5.57088 10.0175 5.78664 10.0172 6.00449V10.4145C10.0347 11.3322 9.27661 12.0735 8.35891 12.0735ZM3.96641 5.40459C3.88745 5.40394 3.80914 5.41901 3.73607 5.44893C3.66299 5.47884 3.5966 5.52301 3.54076 5.57884C3.48492 5.63468 3.44076 5.70107 3.41084 5.77415C3.38093 5.84723 3.36585 5.92553 3.36651 6.00449V10.4145C3.36585 10.4935 3.38093 10.5718 3.41084 10.6448C3.44076 10.7179 3.48492 10.7843 3.54076 10.8401C3.5966 10.896 3.66299 10.9401 3.73607 10.9701C3.80914 11 3.88745 11.015 3.96641 11.0144H8.35891C8.43787 11.015 8.51617 11 8.58925 10.9701C8.66233 10.9401 8.72872 10.896 8.78456 10.8401C8.84039 10.7843 8.88456 10.7179 8.91447 10.6448C8.94439 10.5718 8.95946 10.4935 8.95881 10.4145V6.00449C8.95946 5.92553 8.94439 5.84723 8.91447 5.77415C8.88456 5.70107 8.84039 5.63468 8.78456 5.57884C8.72872 5.52301 8.66233 5.47884 8.58925 5.44893C8.51617 5.41901 8.43787 5.40394 8.35891 5.40459H3.96641Z" fill="#A5A8AC"/>
</g>
</svg>
