<svg xmlns="http://www.w3.org/2000/svg" width="12" height="13" viewBox="0 0 12 13" fill="none">
  <g clip-path="url(#clip0_31_646)">
    <path d="M11.5289 4.16445C11.2266 3.44961 10.793 2.80859 10.2422 2.25781C9.69141 1.70703 9.04922 1.27461 8.33555 0.972266C7.59609 0.658203 6.80977 0.5 6 0.5C5.19023 0.5 4.40391 0.658203 3.66445 0.971094C2.94961 1.27344 2.30859 1.70586 1.75781 2.25781C1.20703 2.80859 0.774609 3.45078 0.472266 4.16445C0.158203 4.90391 0 5.69023 0 6.5C0 7.30977 0.158203 8.09609 0.471094 8.83555C0.773438 9.55039 1.20586 10.1914 1.75781 10.7422C2.30859 11.293 2.95078 11.7254 3.66445 12.0277C4.40391 12.3406 5.19023 12.4988 6 12.4988C6.80977 12.4988 7.59609 12.3406 8.33555 12.0277C9.05039 11.7266 9.69141 11.293 10.2422 10.7422C10.793 10.1914 11.2254 9.54922 11.5277 8.83555C11.8406 8.09609 11.9988 7.30977 11.9988 6.5C11.9988 5.69023 11.8418 4.90391 11.5289 4.16445ZM10.8809 8.56133C10.6137 9.1918 10.2316 9.75898 9.74531 10.2453C9.25898 10.7316 8.6918 11.1137 8.06133 11.3809C7.40859 11.6574 6.71484 11.7969 6 11.7969C5.28516 11.7969 4.59141 11.6574 3.93867 11.3809C3.3082 11.1137 2.74102 10.7316 2.25469 10.2453C1.76836 9.75898 1.38633 9.1918 1.11914 8.56133C0.842578 7.90859 0.703125 7.21484 0.703125 6.5C0.703125 5.78516 0.842578 5.09141 1.11914 4.43867C1.38633 3.8082 1.76836 3.24102 2.25469 2.75469C2.74102 2.26836 3.3082 1.88633 3.93867 1.61914C4.59141 1.34258 5.28516 1.20313 6 1.20313C6.71484 1.20313 7.40859 1.34258 8.06133 1.61914C8.6918 1.88633 9.25898 2.26836 9.74531 2.75469C10.2316 3.24102 10.6137 3.8082 10.8809 4.43867C11.1574 5.09141 11.2969 5.78516 11.2969 6.5C11.2969 7.21484 11.1574 7.90859 10.8809 8.56133Z" fill="#ffffff"/>
    <path d="M8.12358 8.21338C7.88218 7.97197 7.60562 7.77627 7.30679 7.63096C7.91265 7.21377 8.31108 6.51533 8.31108 5.72549C8.31108 4.45049 7.27397 3.41455 6.00015 3.41455C4.72632 3.41455 3.68921 4.45166 3.68921 5.72549C3.68921 6.51533 4.08765 7.21377 4.69351 7.63096C4.39468 7.77627 4.11812 7.9708 3.87671 8.21338C3.6189 8.47119 3.41382 8.7665 3.26733 9.08877C3.16069 9.32197 3.33179 9.58682 3.58843 9.58682H3.59194C3.72905 9.58682 3.85327 9.50596 3.91069 9.38057C4.27397 8.58955 5.07437 8.0376 6.00132 8.0376C6.92827 8.0376 7.72866 8.58838 8.09194 9.38057C8.14936 9.50596 8.27241 9.58682 8.41069 9.58682H8.41421C8.66968 9.58682 8.84077 9.32197 8.7353 9.08877C8.58647 8.7665 8.3814 8.47002 8.12358 8.21338ZM6.00015 7.3333C5.11421 7.3333 4.39233 6.6126 4.39233 5.72549C4.39233 4.83838 5.11421 4.11885 6.00015 4.11885C6.88608 4.11885 7.60796 4.83955 7.60796 5.72666C7.60796 6.61377 6.88608 7.3333 6.00015 7.3333Z" fill="#ffffff"/>
  </g>
  <defs>
    <clipPath id="clip0_31_646">
      <rect width="12" height="12" fill="white" transform="translate(0 0.5)"/>
    </clipPath>
  </defs>
</svg>