<svg xmlns="http://www.w3.org/2000/svg" width="14" height="14" viewBox="0 0 14 14" fill="none">
  <g clip-path="url(#clip0_41_1474)">
    <path d="M9.62229 9.28672C9.69222 9.32168 9.77614 9.34266 9.85307 9.33566C10.1817 9.33566 10.2307 9.1119 10.2517 8.93706V8.88811C10.2587 8.74825 10.2027 8.61539 10.1118 8.51748L10.0629 8.46854C10.0139 8.37762 9.92299 8.32867 9.83207 8.2867C9.5034 8.05595 9.13278 7.86714 8.76215 7.68532C9.92299 6.9091 10.6223 5.60839 10.6223 4.20979C10.6293 1.9021 8.72019 0 6.30061 0C4.01389 0.0489453 2.05586 1.94406 2.05586 4.25875C2.05586 5.65734 2.75515 6.95804 3.916 7.73428C1.95796 8.56641 0.559352 10.3287 0.237666 12.4126C0.237666 12.4615 0.188721 12.5524 0.188721 12.6014V12.6503C0.22368 12.8671 0.265639 13.0489 0.587311 13.0489C0.915983 13.0419 1.18871 12.7762 1.19571 12.4475C1.47544 10.1329 3.63626 8.37062 6.01388 8.23076H6.57334C7.50339 8.2797 8.59431 8.60139 9.2936 9.06292C9.39151 9.15384 9.50341 9.23077 9.62229 9.28672ZM6.30761 7.61537C4.43347 7.62236 2.909 6.10488 2.90201 4.22376C2.89503 2.34265 4.4125 0.82518 6.28662 0.81818C8.16075 0.81118 9.68523 2.32868 9.69222 4.20979V4.21679C9.69222 6.08392 8.17474 7.60139 6.30761 7.61537Z" fill="#ffffff"/>
    <path d="M11.937 10.8881H13.1467C13.4684 10.8881 13.7481 11.1608 13.7551 11.5384C13.7481 11.8671 13.4754 12.1329 13.1467 12.1398H11.937V13.3916C11.937 13.7273 11.6642 14 11.3286 14C10.9929 14 10.7202 13.7272 10.7202 13.3916V12.1398H9.46143C9.12577 12.1329 8.86003 11.8671 8.85303 11.5384V11.5035C8.86701 11.1818 9.13974 10.9231 9.46143 10.937H10.7202V9.6853C10.7202 9.34963 10.9929 9.0769 11.3286 9.0769C11.6642 9.0769 11.937 9.34963 11.937 9.6853V10.8881Z" fill="#ffffff"/>
  </g>
  <defs>
    <clipPath id="clip0_41_1474">
      <rect width="14" height="14" fill="white"/>
    </clipPath>
  </defs>
</svg>