<svg width="14" height="14" viewBox="0 0 14 14" fill="none" xmlns="http://www.w3.org/2000/svg">
<path d="M11.5501 1.40002C11.6429 1.40002 11.7319 1.4369 11.7976 1.50254C11.8632 1.56817 11.9001 1.6572 11.9001 1.75002V12.3578C11.9001 12.4507 11.8632 12.5397 11.7976 12.6053C11.7319 12.6709 11.6429 12.7078 11.5501 12.7078H3.5001C3.12879 12.7078 2.7727 12.5603 2.51015 12.2978C2.2476 12.0352 2.1001 11.6791 2.1001 11.3078V2.80002C2.1001 2.42872 2.2476 2.07263 2.51015 1.81008C2.7727 1.54752 3.12879 1.40002 3.5001 1.40002H11.5501ZM11.1462 10.4461H3.554C3.36835 10.4461 3.1903 10.5199 3.05902 10.6511C2.92775 10.7824 2.854 10.9605 2.854 11.1461V11.2539C2.854 11.4396 2.92775 11.6176 3.05902 11.7489C3.1903 11.8802 3.36835 11.9539 3.554 11.9539H11.1462V10.4461ZM11.1462 2.15392H3.554C3.38254 2.15395 3.21706 2.21689 3.08894 2.33083C2.96081 2.44476 2.87896 2.60175 2.8589 2.77202L2.854 2.85392V9.69292H11.1462V2.15322V2.15392Z" fill="#ffffff"/>
<path d="M7.06937 3.46362C6.60317 3.46362 6.23777 3.59592 5.96687 3.86052C5.68967 4.12512 5.55737 4.49052 5.55737 4.95672H6.27557C6.27557 4.68582 6.32597 4.47792 6.43307 4.33302C6.55907 4.16292 6.75437 4.08102 7.02527 4.08102C7.23947 4.08102 7.40957 4.13772 7.52927 4.25742C7.64267 4.37712 7.70567 4.54092 7.70567 4.74882C7.70346 4.91331 7.64322 5.07173 7.53557 5.19612L7.45997 5.28432C7.05047 5.64972 6.80477 5.91432 6.72287 6.08442C6.63467 6.25452 6.59687 6.46242 6.59687 6.70182V6.79002H7.32137V6.70182C7.31867 6.56241 7.34859 6.4243 7.40876 6.29851C7.46892 6.17271 7.55765 6.06273 7.66787 5.97732C7.97027 5.71272 8.15297 5.54262 8.20967 5.47962C8.36087 5.27802 8.44277 5.01972 8.44277 4.70472C8.44277 4.32042 8.31677 4.01802 8.06477 3.79752C7.81277 3.57072 7.47887 3.46362 7.06937 3.46362ZM6.95597 7.09872C6.89325 7.09643 6.83071 7.10698 6.77221 7.12973C6.71371 7.15249 6.66047 7.18695 6.61577 7.23102C6.56763 7.27321 6.5296 7.3257 6.50452 7.38459C6.47943 7.44349 6.46793 7.50728 6.47087 7.57122C6.47087 7.70982 6.51497 7.82322 6.61577 7.91142C6.66011 7.95639 6.71314 7.99187 6.77162 8.0157C6.83011 8.03953 6.89283 8.05121 6.95597 8.05002C7.08613 8.05247 7.21232 8.00515 7.30877 7.91772C7.35383 7.87214 7.38931 7.818 7.41311 7.75849C7.43691 7.69898 7.44856 7.63531 7.44737 7.57122C7.44856 7.50808 7.43688 7.44536 7.41305 7.38687C7.38922 7.32839 7.35374 7.27536 7.30877 7.23102C7.2129 7.14265 7.08632 7.09518 6.95597 7.09872Z" fill="#ffffff"/>
</svg>
