<svg width="80" height="80" viewBox="0 0 80 80" fill="none" xmlns="http://www.w3.org/2000/svg">
<g id="&#230;&#154;&#130;&#230;&#151;&#160;&#230;&#149;&#176;&#230;&#141;&#174;">
<path id="Vector" d="M75 40C75 40.5391 74.9844 41.0703 74.9609 41.6016C74.9453 41.9219 74.9297 42.25 74.9062 42.5703C74.8984 42.6719 74.8906 42.7734 74.8828 42.8672C74.7891 44 74.6484 45.1094 74.4531 46.2031C74.4531 46.2109 74.4453 46.2266 74.4453 46.2344C74.3594 46.7188 74.2578 47.2031 74.1484 47.6875C74.0391 48.1797 73.9141 48.6641 73.7891 49.1484C73.7891 49.1641 73.7812 49.1797 73.7812 49.1953C73.5312 50.1328 73.2344 51.0547 72.9062 51.9531C72.8047 52.2266 72.7031 52.5 72.6016 52.7656C72.5469 52.9141 72.4844 53.0547 72.4297 53.2031C72.2734 53.5781 72.1172 53.9453 71.9531 54.3125C71.8125 54.625 71.6719 54.9297 71.5234 55.2344C70.8516 56.625 70.0859 57.9688 69.2344 59.25C69.2188 59.2734 69.2031 59.3047 69.1797 59.3281C69.0156 59.5781 68.8438 59.8359 68.6641 60.0781C68.3594 60.5078 68.0547 60.9297 67.7344 61.3438C67.3828 61.8047 67.0156 62.25 66.6406 62.6875C63.6719 66.1797 60.0469 69.0625 55.9609 71.1562C51.1719 73.6172 45.75 75 40 75C28.7109 75 18.6719 69.6562 12.2734 61.3672C12.0156 61.0312 11.7578 60.6875 11.5156 60.3438C11.2891 60.0234 11.0625 59.7031 10.8438 59.375C10.8281 59.3594 10.8203 59.3359 10.8047 59.3203C10.7969 59.3047 10.7812 59.2891 10.7734 59.2734C10.5547 58.9453 10.3438 58.6172 10.1406 58.2812C9.53906 57.3047 8.98438 56.2969 8.48438 55.2578C8.36719 55.0156 8.25 54.7734 8.14062 54.5234C7.90625 54.0156 7.6875 53.4922 7.47656 52.9688C7.4375 52.8828 7.40625 52.7891 7.36719 52.6953C7.32813 52.6016 7.29688 52.5078 7.25781 52.4141C7.20313 52.2656 7.14062 52.1094 7.08594 51.9609C6.89062 51.4141 6.70312 50.8672 6.53125 50.3047C6.42188 49.9375 6.3125 49.5703 6.21094 49.2031C6.20312 49.1875 6.20313 49.1641 6.19531 49.1484C5.92188 48.1484 5.69531 47.125 5.51562 46.0859C5.32812 45.0312 5.1875 43.9531 5.10156 42.8672C5.09375 42.7734 5.08594 42.6719 5.07813 42.5703C5.0625 42.4063 5.05469 42.2422 5.04687 42.0703C5.03906 41.9141 5.03125 41.75 5.02344 41.5938C5 41.0625 4.98438 40.5234 4.98438 39.9922C4.98438 39.0391 5.02344 38.0938 5.10156 37.1562C5.10156 37.1328 5.10156 37.1016 5.10938 37.0781C5.17969 36.25 5.27344 35.4297 5.39844 34.6172C5.45312 34.2812 5.50781 33.9531 5.57031 33.625C5.64844 33.1875 5.74219 32.75 5.83594 32.3203C9.34375 16.6875 23.3047 5 40 5C44.9688 5 49.6953 6.03125 53.9766 7.90625C56.0781 8.82031 58.0703 9.9375 59.9297 11.2266C67.0234 16.1484 72.2031 23.625 74.1562 32.3281C74.25 32.7578 74.3438 33.1953 74.4219 33.6328C74.4844 33.9609 74.5391 34.2891 74.5859 34.6172C74.7188 35.4609 74.8203 36.3047 74.8828 37.1719C74.9453 37.9609 74.9844 38.75 74.9922 39.5547C75 39.6953 75 39.8516 75 40Z" fill="#101010"/>
<path id="Vector_2" d="M73.7891 49.1563C73.7891 49.1719 73.7812 49.1875 73.7812 49.2031C73.5312 50.1406 73.2344 51.0625 72.9062 51.9609C72.8047 52.2344 72.7031 52.5078 72.6016 52.7734C72.5469 52.9219 72.4844 53.0625 72.4297 53.2109C72.2734 53.5859 72.1172 53.9531 71.9531 54.3203C71.8125 54.6328 71.6719 54.9375 71.5234 55.2422C70.8516 56.6328 70.0859 57.9766 69.2344 59.2578C69.2188 59.2813 69.2031 59.3125 69.1797 59.3359C69.0156 59.5859 68.8438 59.8438 68.6641 60.0859C68.3594 60.5156 68.0547 60.9375 67.7344 61.3516C67.3828 61.8125 67.0156 62.2578 66.6406 62.6953C63.6719 66.1797 60.0469 69.0625 55.9609 71.1563C51.1719 73.6172 45.75 75 40 75C28.7109 75 18.6719 69.6563 12.2734 61.3672C12.0156 61.0313 11.7578 60.6875 11.5156 60.3438C11.2891 60.0234 11.0625 59.7031 10.8438 59.375C10.8281 59.3594 10.8203 59.3359 10.8047 59.3203C10.7969 59.3047 10.7812 59.2891 10.7734 59.2734C10.5547 58.9453 10.3438 58.6172 10.1406 58.2813C9.53906 57.3047 8.98437 56.2969 8.48437 55.2578C8.36719 55.0156 8.25 54.7734 8.14062 54.5234C7.90625 54.0156 7.6875 53.4922 7.47656 52.9688C7.4375 52.8828 7.40625 52.7891 7.36719 52.6953C7.32812 52.6016 7.29687 52.5078 7.25781 52.4141C7.20312 52.2656 7.14062 52.1094 7.08594 51.9609C6.89062 51.4141 6.70312 50.8672 6.53125 50.3047C6.42187 49.9375 6.3125 49.5703 6.21094 49.2031C6.20312 49.1875 6.20312 49.1641 6.19531 49.1484C8.03906 48.9922 9.03125 48.2969 10.25 47.4375C11.7891 46.3516 13.5391 45.125 16.9141 45.125C20.2891 45.125 22.0391 46.3594 23.5781 47.4375C24.9609 48.4141 26.0547 49.1875 28.4453 49.1875C30.8359 49.1875 31.9297 48.4141 33.3125 47.4375C34.8516 46.3516 36.6016 45.125 39.9766 45.125C43.3516 45.125 45.1016 46.3594 46.6406 47.4375C48.0234 48.4141 49.1172 49.1875 51.5078 49.1875C53.8984 49.1875 54.9922 48.4141 56.375 47.4375C57.9141 46.3516 59.6641 45.125 63.0391 45.125C66.4141 45.125 68.1641 46.3594 69.7031 47.4375C70.9531 48.3047 71.9375 49 73.7891 49.1563Z" fill="black"/>
<path id="Vector_3" d="M56.6719 33.6719C47.8047 38.6641 42.2891 40.4531 43.711 46.1172C45.1328 51.7812 48.5547 55.0234 48.5547 55.0234H31.4453C31.4453 55.0234 34.8672 51.7812 36.2891 46.1172C37.711 40.4531 32.1953 38.6719 23.3282 33.6719C14.0313 28.4375 14.5 12.3203 14.5 12.3203C15.5 14.8828 19.7657 21.0078 30.1641 21.0078C39.5313 21.0078 40 24.8281 40 25.5781C40 25.6641 39.9922 25.7031 39.9922 25.7031H40C40 25.7031 39.9922 25.6562 39.9922 25.5781C39.9922 24.8281 40.4532 21.0078 49.8282 21.0078C54.9844 21.0078 58.6328 19.5 61.125 17.6719C63.6563 15.8125 64.9922 13.6094 65.5 12.3203C65.5 12.3203 65.9688 28.4297 56.6719 33.6719Z" fill="#2E2E2E"/>
<path id="Vector_4" opacity="0.4" d="M56.6719 33.6719C47.8047 38.6641 42.2891 40.4531 43.7109 46.1172C45.1328 51.7813 48.5547 55.0234 48.5547 55.0234H43.1328C40.3516 50.9688 39.1172 44.625 39.6953 40.8906C40.4219 36.1797 49.75 32.9297 55.875 28.9531C59.5391 26.5781 60.75 21.4297 61.1328 17.6797C63.6641 15.8203 65 13.6172 65.5078 12.3281C65.5 12.3203 65.9687 28.4297 56.6719 33.6719Z" fill="#3D3D3D"/>
<path id="Vector_5" d="M71.9453 54.3281C71.8047 54.6406 71.6641 54.9453 71.5156 55.25C70.8438 56.6406 70.0781 57.9844 69.2266 59.2656C69.2109 59.2891 69.1953 59.3203 69.1719 59.3438C69.0078 59.5938 68.8359 59.8516 68.6562 60.0938C68.3516 60.5234 68.0469 60.9453 67.7266 61.3594C67.375 61.8203 67.0078 62.2656 66.6328 62.7031C63.6719 66.1797 60.0469 69.0625 55.9609 71.1562C51.1719 73.6172 45.75 75 40 75C28.7109 75 18.6719 69.6563 12.2734 61.3672C12.0156 61.0313 11.7578 60.6875 11.5156 60.3438C11.2891 60.0234 11.0625 59.7031 10.8438 59.375C10.8281 59.3594 10.8203 59.3359 10.8047 59.3203C10.7969 59.3047 10.7812 59.2891 10.7734 59.2734C10.5547 58.9453 10.3438 58.6172 10.1406 58.2813C9.53906 57.3047 8.98438 56.2969 8.48438 55.2578C8.36719 55.0156 8.25 54.7734 8.14062 54.5234C9.04688 54.2031 9.75 53.7109 10.5469 53.1484C12.0859 52.0625 13.8359 50.8281 17.2109 50.8281C20.5859 50.8281 22.3359 52.0625 23.875 53.1484C25.2578 54.125 26.3516 54.8906 28.7422 54.8906C31.1328 54.8906 32.2266 54.1172 33.6094 53.1484C35.1484 52.0625 36.8984 50.8281 40.2734 50.8281C43.6484 50.8281 45.3984 52.0625 46.9375 53.1484C48.3203 54.125 49.4141 54.8906 51.8047 54.8906C54.1953 54.8906 55.2891 54.1172 56.6719 53.1484C58.2109 52.0625 59.9609 50.8281 63.3359 50.8281C66.7109 50.8281 68.4609 52.0625 70 53.1484C70.6719 53.6016 71.2578 54.0156 71.9453 54.3281Z" fill="#333333"/>
<path id="Vector_6" d="M69.2188 59.2657C69.2031 59.2891 69.1875 59.3204 69.1641 59.3438C69 59.5938 68.8281 59.8516 68.6484 60.0938C68.3438 60.5235 68.0391 60.9454 67.7188 61.3594C67.3672 61.8204 67 62.2657 66.625 62.7032C63.6719 66.1797 60.0469 69.0625 55.9609 71.1563C51.1719 73.6172 45.75 75 40 75C28.7109 75 18.6719 69.6563 12.2734 61.3672C12.0156 61.0313 11.7578 60.6876 11.5156 60.3438C11.2891 60.0235 11.0625 59.7032 10.8438 59.375C10.8281 59.3594 10.8203 59.336 10.8047 59.3204C10.7969 59.3047 10.7812 59.2891 10.7734 59.2735C12.2031 58.2891 13.9141 57.3125 16.9297 57.3125C20.3047 57.3125 22.0547 58.5469 23.5938 59.6329C24.9766 60.6094 26.0703 61.375 28.4609 61.375C30.8516 61.375 31.9453 60.6016 33.3281 59.6329C34.8672 58.5469 36.6172 57.3125 39.9922 57.3125C43.3672 57.3125 45.1172 58.5469 46.6562 59.625C48.0391 60.6016 49.1328 61.375 51.5234 61.375C53.9141 61.375 55.0078 60.6016 56.3906 59.6329C57.9297 58.5469 59.6797 57.3125 63.0547 57.3125C66.0781 57.3047 67.7969 58.2813 69.2188 59.2657Z" fill="#1A1A1A"/>
</g>
</svg>
