<svg width="24" height="24" viewBox="0 0 24 24" fill="none" xmlns="http://www.w3.org/2000/svg">
<path d="M12 14.2329C13.0954 14.2329 13.9834 13.3553 13.9834 12.2727C13.9834 11.1901 13.0954 10.3125 12 10.3125C10.9045 10.3125 10.0165 11.1901 10.0165 12.2727C10.0165 13.3553 10.9045 14.2329 12 14.2329Z" fill="white"/>
<path fill-rule="evenodd" clip-rule="evenodd" d="M7.67998 7.81133L3.27271 12.2727L7.67998 16.7341C8.81194 17.8917 10.371 18.5455 12 18.5455C13.6289 18.5455 15.188 17.8917 16.32 16.7341L20.7273 12.2727L16.32 7.81133C15.188 6.65372 13.6289 6 12 6C10.371 6 8.81194 6.65372 7.67998 7.81133ZM15.9669 12.2727C15.9669 14.4379 14.1909 16.1931 12 16.1931C9.8091 16.1931 8.03304 14.4379 8.03304 12.2727C8.03304 10.1076 9.8091 8.35234 12 8.35234C14.1909 8.35234 15.9669 10.1076 15.9669 12.2727Z" fill="white"/>
</svg>
