<svg width="16" height="16" viewBox="0 0 16 16" fill="none" xmlns="http://www.w3.org/2000/svg">
<g id="icon_help">
<path id="Vector" d="M13.2 1.59999C13.3061 1.59999 13.4079 1.64213 13.4829 1.71715C13.5579 1.79216 13.6 1.8939 13.6 1.99999V14.1232C13.6 14.2293 13.5579 14.331 13.4829 14.406C13.4079 14.481 13.3061 14.5232 13.2 14.5232H4.00002C3.57568 14.5232 3.16871 14.3546 2.86865 14.0546C2.5686 13.7545 2.40002 13.3475 2.40002 12.9232V3.19999C2.40002 2.77564 2.5686 2.36868 2.86865 2.06862C3.16871 1.76856 3.57568 1.59999 4.00002 1.59999H13.2ZM12.7384 11.9384H4.06162C3.84945 11.9384 3.64597 12.0227 3.49594 12.1727C3.34591 12.3227 3.26162 12.5262 3.26162 12.7384V12.8616C3.26162 13.0738 3.34591 13.2772 3.49594 13.4273C3.64597 13.5773 3.84945 13.6616 4.06162 13.6616H12.7384V11.9384ZM12.7384 2.46159H4.06162C3.86568 2.46162 3.67655 2.53356 3.53013 2.66376C3.3837 2.79397 3.29015 2.97339 3.26722 3.16799L3.26162 3.26159V11.0776H12.7384V2.46079V2.46159Z" fill="#787D83"/>
<path id="Vector_2" d="M8.0792 3.9584C7.5464 3.9584 7.1288 4.1096 6.8192 4.412C6.5024 4.7144 6.3512 5.132 6.3512 5.6648H7.172C7.172 5.3552 7.2296 5.1176 7.352 4.952C7.496 4.7576 7.7192 4.664 8.0288 4.664C8.2736 4.664 8.468 4.7288 8.6048 4.8656C8.7344 5.0024 8.8064 5.1896 8.8064 5.4272C8.80387 5.61519 8.73502 5.79624 8.612 5.9384L8.5256 6.0392C8.0576 6.4568 7.7768 6.7592 7.6832 6.9536C7.5824 7.148 7.5392 7.3856 7.5392 7.6592V7.76H8.3672V7.6592C8.36411 7.49988 8.39831 7.34203 8.46706 7.19827C8.53582 7.05451 8.63723 6.92881 8.7632 6.8312C9.1088 6.5288 9.3176 6.3344 9.3824 6.2624C9.5552 6.032 9.6488 5.7368 9.6488 5.3768C9.6488 4.9376 9.5048 4.592 9.2168 4.34C8.9288 4.0808 8.5472 3.9584 8.0792 3.9584ZM7.9496 8.1128C7.87791 8.11018 7.80644 8.12225 7.73958 8.14825C7.67272 8.17425 7.61188 8.21364 7.5608 8.264C7.50577 8.31222 7.46231 8.37221 7.43365 8.43952C7.40498 8.50682 7.39184 8.57972 7.3952 8.6528C7.3952 8.8112 7.4456 8.9408 7.5608 9.0416C7.61147 9.093 7.67207 9.13355 7.73891 9.16078C7.80575 9.18801 7.87743 9.20136 7.9496 9.2C8.09835 9.2028 8.24256 9.14872 8.3528 9.04881C8.40429 8.99671 8.44483 8.93483 8.47204 8.86682C8.49924 8.79881 8.51256 8.72604 8.5112 8.6528C8.51255 8.58064 8.4992 8.50896 8.47197 8.44212C8.44474 8.37528 8.40419 8.31468 8.3528 8.264C8.24322 8.16301 8.09856 8.10876 7.9496 8.1128Z" fill="#787D83"/>
</g>
</svg>
