<svg width="13" height="13" viewBox="0 0 13 13" fill="none" xmlns="http://www.w3.org/2000/svg">
<g id="Group 1533213686">
<path id="Icon" d="M3.36407 5.61629L1.96816 7.0122C1.44683 7.53353 1.14703 8.24288 1.15251 8.98839C1.15798 9.7339 1.45123 10.4476 1.9973 10.9768C2.52647 11.5229 3.2403 11.8161 3.98569 11.8216C4.74808 11.8272 5.44065 11.5443 5.96201 11.0229L7.35792 9.62702M9.14093 7.87811L10.5368 6.4822C11.0582 5.96087 11.358 5.25152 11.3525 4.50601C11.347 3.7605 11.0538 3.04682 10.5077 2.51761C9.97865 1.98856 9.26494 1.6953 8.51943 1.68982C7.77393 1.68435 7.06448 1.96713 6.54311 2.48848L5.14721 3.88439M4.13569 8.82668L8.32342 4.63895" stroke="white" stroke-width="1.25" stroke-linecap="round" stroke-linejoin="round"/>
</g>
</svg>
