<svg width="16" height="16" viewBox="0 0 16 16" fill="none" xmlns="http://www.w3.org/2000/svg">
<g id="close">
<path id="Vector" d="M9.1492 7.99998L13.0906 11.9241C13.2432 12.0776 13.3301 12.2844 13.3331 12.5008C13.3361 12.7173 13.2549 12.9264 13.1066 13.0841C13.0344 13.1614 12.9473 13.2234 12.8506 13.2663C12.7538 13.3093 12.6494 13.3322 12.5436 13.3338C12.4378 13.3354 12.3328 13.3157 12.2348 13.2758C12.1367 13.2358 12.0478 13.1765 11.9733 13.1014L7.99984 9.14401L4.02642 13.1014C3.95196 13.1766 3.86309 13.236 3.76513 13.2761C3.66718 13.3161 3.56215 13.336 3.45634 13.3345C3.35052 13.333 3.2461 13.3102 3.14931 13.2674C3.05253 13.2246 2.96537 13.1627 2.89306 13.0854C2.7448 12.9277 2.6636 12.7186 2.66658 12.5022C2.66957 12.2858 2.75651 12.0789 2.90906 11.9254L6.85048 7.99998L2.90906 4.0759C2.75651 3.92235 2.66957 3.71555 2.66658 3.49912C2.6636 3.28269 2.7448 3.07357 2.89306 2.91587C2.96528 2.83852 3.05237 2.77653 3.1491 2.73362C3.24584 2.69071 3.35024 2.66776 3.45605 2.66614C3.56187 2.66453 3.66692 2.68427 3.76492 2.72421C3.86293 2.76414 3.95187 2.82343 4.02642 2.89854L7.99984 6.85596L11.9733 2.89854C12.0477 2.82335 12.1366 2.76395 12.2345 2.72391C12.3325 2.68386 12.4375 2.66399 12.5433 2.66548C12.6492 2.66698 12.7536 2.6898 12.8504 2.7326C12.9471 2.77539 13.0343 2.83728 13.1066 2.91454C13.2549 3.07224 13.3361 3.28136 13.3331 3.49779C13.3301 3.71421 13.2432 3.92102 13.0906 4.07457L9.1492 7.99998Z" fill="#A5A8AC"/>
</g>
</svg>
