<svg width="24" height="24" viewBox="0 0 24 24" fill="none" xmlns="http://www.w3.org/2000/svg">
<g id="&#228;&#191;&#157;&#229;&#173;&#152;&#229;&#155;&#190;&#231;&#137;&#135; 1">
<rect width="24" height="24" rx="12" fill="#07828B" fill-opacity="0.2"/>
<path id="Vector" d="M12 7C12.1326 7 12.2598 7.05268 12.3536 7.14645C12.4473 7.24022 12.5 7.36739 12.5 7.5V12.293L14.1465 10.6465C14.2408 10.5554 14.3671 10.505 14.4982 10.5062C14.6293 10.5073 14.7547 10.5599 14.8474 10.6526C14.9401 10.7453 14.9927 10.8707 14.9938 11.0018C14.995 11.1329 14.9446 11.2592 14.8535 11.3535L12.3535 13.8535C12.2597 13.9472 12.1326 13.9999 12 13.9999C11.8674 13.9999 11.7403 13.9472 11.6465 13.8535L9.1465 11.3535C9.05542 11.2592 9.00502 11.1329 9.00616 11.0018C9.0073 10.8707 9.05989 10.7453 9.15259 10.6526C9.24529 10.5599 9.3707 10.5073 9.5018 10.5062C9.6329 10.505 9.7592 10.5554 9.8535 10.6465L11.5 12.293V7.5C11.5 7.36739 11.5527 7.24022 11.6464 7.14645C11.7402 7.05268 11.8674 7 12 7ZM7.5 13C7.56566 13 7.63068 13.0129 7.69134 13.0381C7.752 13.0632 7.80712 13.1 7.85355 13.1464C7.89998 13.1929 7.93681 13.248 7.96194 13.3087C7.98707 13.3693 8 13.4343 8 13.5V14.1C8 14.5285 8 14.8195 8.019 15.0445C8.0365 15.2635 8.069 15.376 8.109 15.454C8.20487 15.6422 8.35785 15.7951 8.546 15.891C8.624 15.931 8.736 15.9635 8.9555 15.981C9.1805 15.9995 9.4715 16 9.9 16H14.1C14.5285 16 14.8195 16 15.0445 15.981C15.2635 15.9635 15.376 15.931 15.454 15.891C15.6422 15.7951 15.7951 15.6422 15.891 15.454C15.931 15.376 15.9635 15.264 15.981 15.0445C15.9995 14.8195 16 14.5285 16 14.1V13.5C16 13.3674 16.0527 13.2402 16.1464 13.1464C16.2402 13.0527 16.3674 13 16.5 13C16.6326 13 16.7598 13.0527 16.8536 13.1464C16.9473 13.2402 17 13.3674 17 13.5V14.1205C17 14.523 17 14.8555 16.978 15.1255C16.955 15.407 16.9055 15.6655 16.782 15.908C16.5903 16.2843 16.2843 16.5903 15.908 16.782C15.6655 16.9055 15.407 16.955 15.126 16.978C14.8555 17 14.523 17 14.121 17H9.8795C9.477 17 9.1445 17 8.8745 16.978C8.593 16.955 8.3345 16.9055 8.092 16.782C7.71569 16.5903 7.40974 16.2843 7.218 15.908C7.0945 15.6655 7.045 15.407 7.022 15.126C7 14.855 7 14.523 7 14.121V13.5C7 13.3674 7.05268 13.2402 7.14645 13.1464C7.24022 13.0527 7.36739 13 7.5 13Z" fill="#07828B"/>
</g>
</svg>
