<svg width="16" height="16" viewBox="0 0 16 16" fill="none" xmlns="http://www.w3.org/2000/svg">
<g id="icon_search">
<path id="Vector" d="M14.8019 13.9213L12.4754 11.5947C14.5763 9.05036 14.4372 5.27775 12.0565 2.89702C10.7918 1.63233 9.13428 1 7.47671 1C5.81915 1 4.1616 1.63233 2.89692 2.89702C0.367572 5.42636 0.367572 9.52725 2.89692 12.0566C4.1616 13.3213 5.81915 13.9536 7.47671 13.9536C8.93951 13.9536 10.4019 13.4604 11.5946 12.4754L13.9212 14.802C14.0428 14.9236 14.2021 14.9844 14.3615 14.9844C14.5209 14.9844 14.6803 14.9236 14.8019 14.802C15.0451 14.5588 15.0451 14.1645 14.8019 13.9213ZM7.47671 12.7081C6.0794 12.7081 4.76571 12.1639 3.77765 11.1759C1.73799 9.1362 1.73799 5.81741 3.77765 3.77775C4.7657 2.7897 6.07939 2.24555 7.47671 2.24555C8.87404 2.24555 10.1877 2.7897 11.1758 3.77775C13.2154 5.81741 13.2154 9.1362 11.1758 11.1759C10.1877 12.1639 8.87404 12.7081 7.47671 12.7081Z" fill="#717171"/>
</g>
</svg>
