<svg width="18" height="19" viewBox="0 0 18 19" fill="none" xmlns="http://www.w3.org/2000/svg">
<rect y="0.5" width="18" height="18" rx="3" fill="#3E4343"/>
<path fill-rule="evenodd" clip-rule="evenodd" d="M5.24935 5.74984H10.2493V7.83317H11.0827V5.74984C11.0827 5.2896 10.7096 4.9165 10.2493 4.9165H5.24935C4.78911 4.9165 4.41602 5.2896 4.41602 5.74984V10.7498C4.41602 11.2101 4.78911 11.5832 5.24935 11.5832H7.33268V10.7498H5.24935L5.24935 5.74984Z" fill="#C5C5C4"/>
<path d="M7.33366 8.25008C7.33366 8.01996 7.52021 7.83341 7.75033 7.83341H12.7503C12.9804 7.83341 13.167 8.01996 13.167 8.25008V13.2501C13.167 13.4802 12.9804 13.6667 12.7503 13.6667H7.75033C7.52021 13.6667 7.33366 13.4802 7.33366 13.2501V8.25008Z" stroke="#C5C5C4" stroke-width="0.833333"/>
</svg>
