<svg width="24" height="24" viewBox="0 0 24 24" fill="none" xmlns="http://www.w3.org/2000/svg">
<path d="M12.4065 18.0136C12.3094 18.0135 12.2137 17.9898 12.1277 17.9446C12.0417 17.8994 11.9679 17.8341 11.9127 17.7541L9.20919 13.8494C9.14627 13.7594 9.10929 13.6538 9.10229 13.5442C9.0953 13.4346 9.11855 13.3252 9.16951 13.2279C9.22048 13.1306 9.29719 13.0492 9.39128 12.9926C9.48536 12.9359 9.59321 12.9063 9.70302 12.9067H15.11C15.2194 12.9072 15.3267 12.9375 15.4202 12.9943C15.5137 13.0512 15.59 13.1324 15.6408 13.2294C15.6915 13.3263 15.7149 13.4352 15.7084 13.5445C15.7019 13.6537 15.6658 13.7591 15.6039 13.8494L12.9004 17.7541C12.8451 17.8341 12.7714 17.8994 12.6854 17.9446C12.5994 17.9898 12.5037 18.0135 12.4065 18.0136Z" fill="#666666"/>
<path d="M15.1076 11.1044H9.70057C9.59113 11.1039 9.48389 11.0736 9.39037 11.0168C9.29686 10.9599 9.22061 10.8787 9.16982 10.7817C9.11904 10.6848 9.09564 10.5759 9.10214 10.4666C9.10864 10.3574 9.1448 10.252 9.20673 10.1617L11.9102 6.25699C12.1355 5.93257 12.6735 5.93257 12.8979 6.25699L15.6014 10.1617C15.6643 10.2517 15.7013 10.3573 15.7083 10.4669C15.7153 10.5765 15.692 10.6859 15.6411 10.7832C15.5901 10.8805 15.5134 10.9619 15.4193 11.0185C15.3252 11.0751 15.2174 11.1048 15.1076 11.1044Z" fill="#666666"/>
</svg>
