<svg width="41" height="41" viewBox="0 0 41 41" fill="none" xmlns="http://www.w3.org/2000/svg">
<g id="twitter" clip-path="url(#clip0_5153_758)">
<path id="Vector" d="M0.799805 20.5C0.799805 25.8043 2.90489 30.8914 6.65195 34.6421C10.399 38.3929 15.4811 40.5 20.7803 40.5C26.0794 40.5 31.1616 38.3929 34.9086 34.6421C38.6557 30.8914 40.7608 25.8043 40.7608 20.5C40.7608 15.1957 38.6557 10.1086 34.9086 6.35786C31.1616 2.60714 26.0794 0.5 20.7803 0.5C15.4811 0.5 10.399 2.60714 6.65195 6.35786C2.90489 10.1086 0.799805 15.1957 0.799805 20.5Z" fill="white"/>
<path id="Vector_2" d="M8.78552 8.80943C8.77509 8.82509 9.59986 9.9508 10.6124 11.3053C11.6249 12.6607 13.7776 15.5437 15.3959 17.709L18.3377 21.6463L18.1491 21.8603C18.0422 21.9778 15.8791 24.3153 13.3448 27.0565C10.8105 29.802 8.72903 32.0639 8.72381 32.0891C8.71338 32.1143 9.15662 32.1352 9.7928 32.13L10.8766 32.1248L11.2329 31.7324C11.431 31.5184 13.2735 29.5263 15.3298 27.3009C17.3861 25.0756 19.126 23.1896 19.1973 23.1087L19.3242 22.9608L20.3419 24.3257C20.9016 25.0748 22.4433 27.1426 23.767 28.9156L26.1796 32.1352H29.8689C32.9377 32.1352 33.5539 32.1248 33.533 32.0691C33.5173 32.0282 32.5813 30.7651 31.4515 29.2522C30.3217 27.7446 29.0293 26.0126 28.5809 25.4114C28.1281 24.8103 26.7992 23.0226 25.619 21.448C24.4379 19.869 23.4715 18.5545 23.4715 18.5345C23.4715 18.4989 29.7107 11.7185 31.833 9.45145L32.4388 8.80421H31.3246L30.2148 8.80943L28.9172 10.2153C28.2046 10.9895 26.4594 12.8842 25.0341 14.418L22.4538 17.2096L19.3242 13.0226L16.1893 8.83031L12.5 8.80508C10.4698 8.78855 8.79508 8.79377 8.78552 8.80943ZM17.5286 13.3227C18.7349 14.9425 20.5974 17.434 21.6664 18.8651C22.7354 20.2918 25.1062 23.4706 26.9392 25.9203C28.7712 28.3753 30.2878 30.4084 30.313 30.4441C30.3434 30.4902 29.9819 30.5049 28.6643 30.5049H26.98L23.641 26.0326C15.9356 15.7272 12.0481 10.5206 12.002 10.4441C11.9716 10.3979 12.3175 10.3832 13.6455 10.3832H15.3298L17.5286 13.3227Z" fill="black"/>
</g>
<defs>
<clipPath id="clip0_5153_758">
<rect width="40" height="40" fill="white" transform="translate(0.799805 0.5)"/>
</clipPath>
</defs>
</svg>
